M48
;Layer_Color=9474304
;FILE_FORMAT=2:4
INCH
;TYPE=PLATED
T1F00S00C0.0118
T2F00S00C0.0276
T3F00S00C0.0400
T4F00S00C0.0472
T5F00S00C0.0512
T6F00S00C0.1083
%
T01
X002660Y000910
X003050Y004690
X004587Y005201
Y005680
Y006202
X005060Y006630
X005540Y006460
X006360Y006780
X006890Y006500
X004715Y008320
X004124Y008168
X002884Y007833
X002178Y007840
X001780Y007008
X002895Y007085
X001380Y006199
X000840Y004317
X000517Y004433
X007400Y006500
X007850Y006520
X009190Y006670
X009606Y007402
X010720Y005760
X008670Y005430
X014028Y005568
X015730Y005190
X016080Y006030
X016390Y006900
X016389Y007205
X016390Y007510
X015512Y008110
X018071Y007894
Y007303
X018661
Y007894
Y006713
X018652Y006122
X018061
X018071Y005531
X018661
X019350Y004665
X020065Y004700
X020433Y004183
X020590Y003180
X021441Y002504
X022250Y002420
X022269Y003051
X021043Y001928
X020130Y001160
X019235
X017430Y000438
X016540Y000790
X017027Y003808
X017410Y003820
X018570Y003620
X020160Y005660
Y005925
Y006428
X020860Y006570
X021260Y006630
X021575Y006024
X021732Y005630
X021614Y007677
X021230Y007650
X020772Y007761
X020220Y008180
X017776Y006890
X023840Y007220
Y008130
X024170
X025350Y008120
X025197Y007219
X025079Y006290
X024961Y005370
X024801Y004478
X023840
Y003590
X024173Y002283
X023840Y005390
Y006310
X023858Y009409
X022795Y009567
X021772Y009882
X021210Y008700
X018870Y009310
X018809Y010945
X018268Y010443
X017480Y010630
X017421Y009990
X015787Y009596
X015790Y008880
X014803Y012165
X019449Y010443
X011378Y008425
X007795Y011929
X006820Y009100
X006210Y009150
X004640Y009590
X004803Y010748
X005340Y010340
X002240Y012280
T02
X009689Y005946
X011362
X013035
Y009884
X011362
X009689
T03
X008295Y011429
Y012429
X009295
X010295
X011295
X012295
X013295
X014295
X015295
X016295
X017295
X018295
X019295
X020295
X021295
X022295
Y011429
X021295
X020295
X019295
X018295
X017295
X016295
X015295
X014295
X013295
X012295
X011295
X010295
X009295
X020296Y010429
X021296
X022296
X007295Y011429
Y012429
X006295
X005295
X004295
X003295
Y011429
X004295
X005295
X006295
T04
X004072Y000446
Y001430
X006040Y003399
X008008Y001430
X008942
Y000446
X008008
X012879
Y001430
X010910Y003399
T05
X004072Y003399
X005056
X007024
X006040Y001430
X008008Y003399
X008942
X009926
X011894
X012879
X010910Y001430
T06
X001181Y001181
X024409
Y011811
X001181
M30
