G04 Layer_Physical_Order=1*
G04 Layer_Color=255*
%FSAX24Y24*%
%MOIN*%
G70*
G01*
G75*
%ADD10R,0.0394X0.0433*%
%ADD11R,0.0433X0.0394*%
G04:AMPARAMS|DCode=12|XSize=40mil|YSize=40mil|CornerRadius=20mil|HoleSize=0mil|Usage=FLASHONLY|Rotation=0.000|XOffset=0mil|YOffset=0mil|HoleType=Round|Shape=RoundedRectangle|*
%AMROUNDEDRECTD12*
21,1,0.0400,0.0000,0,0,0.0*
21,1,0.0000,0.0400,0,0,0.0*
1,1,0.0400,0.0000,0.0000*
1,1,0.0400,0.0000,0.0000*
1,1,0.0400,0.0000,0.0000*
1,1,0.0400,0.0000,0.0000*
%
%ADD12ROUNDEDRECTD12*%
%ADD13R,0.0870X0.0240*%
%ADD14R,0.0315X0.0472*%
%ADD15R,0.0551X0.0630*%
%ADD16R,0.0630X0.0551*%
G04:AMPARAMS|DCode=17|XSize=30mil|YSize=30mil|CornerRadius=15mil|HoleSize=0mil|Usage=FLASHONLY|Rotation=90.000|XOffset=0mil|YOffset=0mil|HoleType=Round|Shape=RoundedRectangle|*
%AMROUNDEDRECTD17*
21,1,0.0300,0.0000,0,0,90.0*
21,1,0.0000,0.0300,0,0,90.0*
1,1,0.0300,0.0000,0.0000*
1,1,0.0300,0.0000,0.0000*
1,1,0.0300,0.0000,0.0000*
1,1,0.0300,0.0000,0.0000*
%
%ADD17ROUNDEDRECTD17*%
%ADD18R,0.0472X0.0217*%
%ADD19R,0.0787X0.0551*%
%ADD20R,0.0787X0.0709*%
%ADD21R,0.0591X0.0158*%
%ADD22R,0.0472X0.0315*%
%ADD23R,0.0866X0.0394*%
%ADD24R,0.0250X0.0500*%
G04:AMPARAMS|DCode=25|XSize=40mil|YSize=40mil|CornerRadius=20mil|HoleSize=0mil|Usage=FLASHONLY|Rotation=90.000|XOffset=0mil|YOffset=0mil|HoleType=Round|Shape=RoundedRectangle|*
%AMROUNDEDRECTD25*
21,1,0.0400,0.0000,0,0,90.0*
21,1,0.0000,0.0400,0,0,90.0*
1,1,0.0400,0.0000,0.0000*
1,1,0.0400,0.0000,0.0000*
1,1,0.0400,0.0000,0.0000*
1,1,0.0400,0.0000,0.0000*
%
%ADD25ROUNDEDRECTD25*%
%ADD26R,0.0591X0.0472*%
G04:AMPARAMS|DCode=27|XSize=50mil|YSize=50mil|CornerRadius=25mil|HoleSize=0mil|Usage=FLASHONLY|Rotation=90.000|XOffset=0mil|YOffset=0mil|HoleType=Round|Shape=RoundedRectangle|*
%AMROUNDEDRECTD27*
21,1,0.0500,0.0000,0,0,90.0*
21,1,0.0000,0.0500,0,0,90.0*
1,1,0.0500,0.0000,0.0000*
1,1,0.0500,0.0000,0.0000*
1,1,0.0500,0.0000,0.0000*
1,1,0.0500,0.0000,0.0000*
%
%ADD27ROUNDEDRECTD27*%
G04:AMPARAMS|DCode=28|XSize=15.7mil|YSize=78.7mil|CornerRadius=2mil|HoleSize=0mil|Usage=FLASHONLY|Rotation=270.000|XOffset=0mil|YOffset=0mil|HoleType=Round|Shape=RoundedRectangle|*
%AMROUNDEDRECTD28*
21,1,0.0157,0.0748,0,0,270.0*
21,1,0.0118,0.0787,0,0,270.0*
1,1,0.0039,-0.0374,-0.0059*
1,1,0.0039,-0.0374,0.0059*
1,1,0.0039,0.0374,0.0059*
1,1,0.0039,0.0374,-0.0059*
%
%ADD28ROUNDEDRECTD28*%
G04:AMPARAMS|DCode=29|XSize=82.7mil|YSize=88.6mil|CornerRadius=10.3mil|HoleSize=0mil|Usage=FLASHONLY|Rotation=270.000|XOffset=0mil|YOffset=0mil|HoleType=Round|Shape=RoundedRectangle|*
%AMROUNDEDRECTD29*
21,1,0.0827,0.0679,0,0,270.0*
21,1,0.0620,0.0886,0,0,270.0*
1,1,0.0207,-0.0340,-0.0310*
1,1,0.0207,-0.0340,0.0310*
1,1,0.0207,0.0340,0.0310*
1,1,0.0207,0.0340,-0.0310*
%
%ADD29ROUNDEDRECTD29*%
G04:AMPARAMS|DCode=30|XSize=70.9mil|YSize=74.8mil|CornerRadius=8.9mil|HoleSize=0mil|Usage=FLASHONLY|Rotation=270.000|XOffset=0mil|YOffset=0mil|HoleType=Round|Shape=RoundedRectangle|*
%AMROUNDEDRECTD30*
21,1,0.0709,0.0571,0,0,270.0*
21,1,0.0532,0.0748,0,0,270.0*
1,1,0.0177,-0.0285,-0.0266*
1,1,0.0177,-0.0285,0.0266*
1,1,0.0177,0.0285,0.0266*
1,1,0.0177,0.0285,-0.0266*
%
%ADD30ROUNDEDRECTD30*%
G04:AMPARAMS|DCode=31|XSize=74.8mil|YSize=74.8mil|CornerRadius=9.4mil|HoleSize=0mil|Usage=FLASHONLY|Rotation=270.000|XOffset=0mil|YOffset=0mil|HoleType=Round|Shape=RoundedRectangle|*
%AMROUNDEDRECTD31*
21,1,0.0748,0.0561,0,0,270.0*
21,1,0.0561,0.0748,0,0,270.0*
1,1,0.0187,-0.0281,-0.0281*
1,1,0.0187,-0.0281,0.0281*
1,1,0.0187,0.0281,0.0281*
1,1,0.0187,0.0281,-0.0281*
%
%ADD31ROUNDEDRECTD31*%
%ADD32R,0.0500X0.0250*%
%ADD33R,0.0472X0.0472*%
%ADD34R,0.0630X0.0591*%
%ADD35R,0.0295X0.0158*%
%ADD36C,0.0079*%
%ADD37C,0.0118*%
%ADD38C,0.0080*%
%ADD39C,0.0472*%
%ADD40C,0.0860*%
%ADD41C,0.0650*%
%ADD42C,0.0472*%
%ADD43C,0.0600*%
%ADD44C,0.0740*%
%ADD45C,0.0197*%
G36*
X024775Y012892D02*
X024938Y012843D01*
X025088Y012763D01*
X025217Y012656D01*
X025219Y012654D01*
X025255Y012618D01*
X025257Y012616D01*
X025363Y012488D01*
X025442Y012340D01*
X025491Y012179D01*
X025507Y012014D01*
X025506Y012012D01*
Y011968D01*
Y008265D01*
X025492Y008255D01*
X025456Y008243D01*
X025413Y008272D01*
X025389Y008277D01*
X024600Y009066D01*
X024566Y009089D01*
X024526Y009096D01*
X024526Y009096D01*
X023364D01*
X023324Y009089D01*
X023291Y009066D01*
X023291Y009066D01*
X021801Y007577D01*
X021762Y007608D01*
X021766Y007614D01*
X021779Y007677D01*
X021776Y007691D01*
X023370Y009285D01*
X023370Y009285D01*
X023392Y009319D01*
X023400Y009359D01*
X023400Y009359D01*
Y010134D01*
X023454Y010156D01*
X023519Y010206D01*
X023569Y010271D01*
X023601Y010347D01*
X023612Y010429D01*
X023601Y010511D01*
X023569Y010587D01*
X023519Y010652D01*
X023454Y010703D01*
X023378Y010734D01*
X023296Y010745D01*
X023214Y010734D01*
X023138Y010703D01*
X023073Y010652D01*
X023023Y010587D01*
X022991Y010511D01*
X022980Y010429D01*
X022991Y010347D01*
X023023Y010271D01*
X023073Y010206D01*
X023138Y010156D01*
X023192Y010134D01*
Y009402D01*
X021760Y007971D01*
X021714Y007990D01*
Y008100D01*
X021081D01*
Y007853D01*
X021086D01*
X021101Y007803D01*
X021087Y007793D01*
X021043Y007727D01*
X021038Y007700D01*
X021230D01*
Y007600D01*
X021038D01*
X021043Y007573D01*
X021054Y007556D01*
X021027Y007506D01*
X020572D01*
X020134Y007944D01*
X020159Y007990D01*
X020170Y007988D01*
Y008180D01*
Y008372D01*
X020143Y008367D01*
X020103Y008341D01*
X020053Y008367D01*
Y008685D01*
X019337D01*
Y008087D01*
X019337D01*
Y007831D01*
Y007575D01*
Y007319D01*
Y007063D01*
Y006807D01*
Y006360D01*
X019300D01*
Y006231D01*
X019695D01*
Y006131D01*
X019300D01*
Y006002D01*
X019337D01*
Y005528D01*
X019725D01*
X019734Y005526D01*
X019744Y005528D01*
X020053D01*
Y005528D01*
X020061Y005532D01*
X020097Y005508D01*
X020160Y005495D01*
X020223Y005508D01*
X020276Y005544D01*
X020279Y005547D01*
X020329Y005532D01*
Y004347D01*
X020312Y004335D01*
X020279Y004328D01*
X020277Y004329D01*
X020124Y004483D01*
X020123Y004542D01*
X020131Y004550D01*
X020181Y004584D01*
X020217Y004637D01*
X020229Y004700D01*
X020217Y004763D01*
X020181Y004816D01*
X020128Y004852D01*
X020065Y004865D01*
X020002Y004852D01*
X019977Y004836D01*
X019708Y005105D01*
X019674Y005128D01*
X019634Y005136D01*
X019634Y005136D01*
X017551D01*
X017484Y005203D01*
Y006160D01*
X017484Y006160D01*
X017476Y006200D01*
X017454Y006234D01*
X017266Y006422D01*
X017285Y006468D01*
X018392D01*
Y006530D01*
Y008456D01*
X017953D01*
Y008960D01*
X018003Y008975D01*
X018016Y008955D01*
X018109Y008862D01*
X018143Y008840D01*
X018179Y008832D01*
Y008765D01*
X018777D01*
Y009070D01*
X018814Y009102D01*
X018820Y009103D01*
Y009310D01*
Y009517D01*
X018814Y009518D01*
X018777Y009550D01*
Y009855D01*
X018574D01*
Y010241D01*
X018574Y010241D01*
X018566Y010281D01*
X018543Y010315D01*
X018512Y010346D01*
X018524Y010374D01*
X018533Y010443D01*
X018524Y010512D01*
X018497Y010576D01*
X018455Y010630D01*
X018400Y010673D01*
X018336Y010699D01*
X018268Y010708D01*
X018199Y010699D01*
X018135Y010673D01*
X018080Y010630D01*
X018038Y010576D01*
X018011Y010512D01*
X018002Y010443D01*
X018011Y010374D01*
X018013Y010370D01*
X018003Y010360D01*
X017953Y010380D01*
Y010906D01*
X005876D01*
Y011297D01*
X005926Y011307D01*
X005956Y011233D01*
X006019Y011152D01*
X006100Y011090D01*
X006194Y011051D01*
X006295Y011038D01*
X006397Y011051D01*
X006491Y011090D01*
X006572Y011152D01*
X006634Y011233D01*
X006673Y011328D01*
X006687Y011429D01*
X006673Y011530D01*
X006634Y011625D01*
X006572Y011706D01*
X006491Y011768D01*
X006397Y011807D01*
X006295Y011820D01*
X006194Y011807D01*
X006100Y011768D01*
X006019Y011706D01*
X005956Y011625D01*
X005926Y011551D01*
X005876Y011561D01*
Y012297D01*
X005926Y012307D01*
X005956Y012233D01*
X006019Y012152D01*
X006100Y012090D01*
X006194Y012051D01*
X006295Y012038D01*
X006397Y012051D01*
X006491Y012090D01*
X006572Y012152D01*
X006634Y012233D01*
X006673Y012328D01*
X006687Y012429D01*
X006673Y012530D01*
X006634Y012625D01*
X006572Y012706D01*
X006491Y012768D01*
X006397Y012807D01*
X006295Y012820D01*
X006194Y012807D01*
X006100Y012768D01*
X006019Y012706D01*
X005956Y012625D01*
X005926Y012551D01*
X005876Y012561D01*
Y012908D01*
X024606D01*
X024609Y012908D01*
X024775Y012892D01*
D02*
G37*
G36*
X000984Y012908D02*
X005812D01*
Y012561D01*
X005813Y012555D01*
Y012549D01*
X005815Y012543D01*
X005817Y012537D01*
X005820Y012532D01*
X005823Y012526D01*
X005827Y012521D01*
X005831Y012516D01*
X005836Y012512D01*
X005840Y012508D01*
X005846Y012506D01*
X005851Y012502D01*
X005858Y012501D01*
X005863Y012498D01*
X005912Y012489D01*
X005904Y012429D01*
X005912Y012369D01*
X005863Y012360D01*
X005858Y012357D01*
X005851Y012356D01*
X005846Y012353D01*
X005840Y012350D01*
X005836Y012346D01*
X005831Y012342D01*
X005827Y012337D01*
X005823Y012333D01*
X005820Y012327D01*
X005817Y012321D01*
X005815Y012315D01*
X005813Y012309D01*
Y012303D01*
X005812Y012297D01*
Y011561D01*
X005813Y011555D01*
Y011549D01*
X005815Y011543D01*
X005817Y011537D01*
X005820Y011532D01*
X005823Y011526D01*
X005827Y011521D01*
X005831Y011516D01*
X005836Y011512D01*
X005840Y011508D01*
X005846Y011506D01*
X005851Y011502D01*
X005858Y011501D01*
X005863Y011498D01*
X005912Y011489D01*
X005904Y011429D01*
X005912Y011369D01*
X005863Y011360D01*
X005858Y011357D01*
X005851Y011356D01*
X005846Y011353D01*
X005840Y011350D01*
X005836Y011346D01*
X005831Y011342D01*
X005827Y011337D01*
X005823Y011333D01*
X005820Y011327D01*
X005817Y011321D01*
X005815Y011315D01*
X005813Y011309D01*
Y011303D01*
X005812Y011297D01*
Y010906D01*
X005766Y010880D01*
X005060D01*
X005060Y010880D01*
Y010880D01*
X005011Y010887D01*
X004983Y010928D01*
X004901Y010984D01*
X004853Y010993D01*
Y010748D01*
X004753D01*
Y010993D01*
X004706Y010984D01*
X004623Y010928D01*
X004572Y010852D01*
X004419D01*
X004419Y010852D01*
X004379Y010844D01*
X004345Y010822D01*
X003803Y010279D01*
X003761Y010258D01*
Y010258D01*
X003761Y010258D01*
X003515D01*
Y009941D01*
X003465D01*
Y009891D01*
X003168D01*
Y009781D01*
X003161Y009774D01*
X003126Y009771D01*
X003094Y009798D01*
Y010142D01*
X002496D01*
Y009701D01*
X002496D01*
Y009189D01*
X002608D01*
Y008598D01*
X002744D01*
X002789Y008553D01*
X002770Y008507D01*
X002449D01*
Y008260D01*
X002766D01*
Y008160D01*
X002449D01*
Y007913D01*
X002688D01*
X002725Y007863D01*
X002719Y007833D01*
X002732Y007770D01*
X002767Y007717D01*
X002821Y007681D01*
X002884Y007668D01*
X002947Y007681D01*
X003000Y007717D01*
X003008Y007729D01*
X003392D01*
Y007667D01*
X003354D01*
Y007509D01*
X003691D01*
Y007409D01*
X003354D01*
Y007260D01*
X002695D01*
Y007470D01*
X000842D01*
Y007941D01*
X000830Y008000D01*
X000797Y008050D01*
X000747Y008084D01*
X000688Y008095D01*
X000117D01*
X000084Y008122D01*
Y008307D01*
X000122Y008337D01*
X000683D01*
X000744Y008350D01*
X000795Y008384D01*
X000830Y008436D01*
X000842Y008497D01*
Y009058D01*
X000830Y009119D01*
X000795Y009171D01*
X000744Y009205D01*
X000683Y009218D01*
X000122D01*
X000122Y009218D01*
Y009232D01*
X000172Y009282D01*
X000683D01*
X000744Y009295D01*
X000795Y009329D01*
X000830Y009381D01*
X000842Y009442D01*
Y010003D01*
X000830Y010064D01*
X000795Y010116D01*
X000744Y010150D01*
X000683Y010163D01*
X000122D01*
X000084Y010193D01*
Y010378D01*
X000117Y010405D01*
X000688D01*
X000747Y010416D01*
X000797Y010450D01*
X000830Y010500D01*
X000842Y010559D01*
Y011091D01*
X000830Y011150D01*
X000797Y011200D01*
X000747Y011233D01*
X000688Y011245D01*
X000117D01*
X000084Y011272D01*
Y012008D01*
X000084Y012011D01*
X000100Y012177D01*
X000149Y012340D01*
X000230Y012490D01*
X000336Y012619D01*
X000338Y012620D01*
X000372Y012654D01*
X000373Y012656D01*
X000503Y012763D01*
X000652Y012843D01*
X000815Y012892D01*
X000982Y012908D01*
X000984Y012908D01*
D02*
G37*
G36*
X005851Y010846D02*
X005876Y010841D01*
X017349D01*
X017365Y010791D01*
X017337Y010773D01*
X017293Y010707D01*
X017288Y010680D01*
X017673D01*
X017667Y010707D01*
X017623Y010773D01*
X017596Y010791D01*
X017611Y010841D01*
X017889D01*
Y010380D01*
X017893Y010356D01*
X017907Y010335D01*
X017928Y010321D01*
X017936Y010318D01*
X017946Y010269D01*
X017871Y010194D01*
X017649D01*
X017463Y010380D01*
X017474Y010411D01*
X017485Y010429D01*
X017558Y010443D01*
X017623Y010487D01*
X017667Y010553D01*
X017673Y010580D01*
X017288D01*
X017293Y010553D01*
X017265Y010504D01*
X005972D01*
X005972Y010504D01*
X005932Y010496D01*
X005899Y010474D01*
X005899Y010474D01*
X004797Y009373D01*
X004750Y009376D01*
X004761Y009432D01*
X004783Y009447D01*
X004827Y009513D01*
X004832Y009540D01*
X004448D01*
X004453Y009513D01*
X004497Y009447D01*
X004519Y009432D01*
X004532Y009364D01*
X004526Y009356D01*
X004271D01*
Y008832D01*
X004225Y008813D01*
X004004Y009033D01*
X003970Y009056D01*
X003930Y009064D01*
X003930Y009064D01*
X003740D01*
Y009921D01*
X003909Y010090D01*
X004234D01*
Y009744D01*
X004444D01*
X004471Y009694D01*
X004453Y009667D01*
X004448Y009640D01*
X004832D01*
X004827Y009667D01*
X004809Y009694D01*
X004836Y009744D01*
X005064D01*
Y010070D01*
X004649D01*
Y010170D01*
X005064D01*
Y010495D01*
X004881D01*
X004876Y010545D01*
X004886Y010547D01*
X004957Y010594D01*
X005004Y010665D01*
X005020Y010748D01*
X005014Y010780D01*
X005040Y010808D01*
X005056Y010817D01*
X005060Y010816D01*
X005060Y010816D01*
X005766D01*
X005769Y010817D01*
X005773Y010816D01*
X005782Y010819D01*
X005790Y010821D01*
X005794Y010823D01*
X005797Y010824D01*
X005843Y010849D01*
X005845Y010851D01*
X005851Y010846D01*
D02*
G37*
G36*
X016274Y006784D02*
X016327Y006748D01*
X016390Y006735D01*
X016407Y006739D01*
X016445Y006707D01*
Y006532D01*
X016260D01*
X016235Y006528D01*
X016214Y006514D01*
X016201Y006493D01*
X016196Y006468D01*
Y006247D01*
X016152Y006223D01*
X016104Y006241D01*
Y006468D01*
X015857D01*
Y006152D01*
X015757D01*
Y006468D01*
X015510D01*
Y006445D01*
X015464Y006426D01*
X015358Y006531D01*
Y006657D01*
X015547D01*
Y006541D01*
X016067D01*
Y006796D01*
X016266D01*
X016274Y006784D01*
D02*
G37*
G36*
X017327Y010221D02*
X017318Y010160D01*
X017278Y010133D01*
X017234Y010068D01*
X017229Y010040D01*
X017421D01*
Y009990D01*
X017471D01*
Y009798D01*
X017499Y009803D01*
X017564Y009847D01*
X017608Y009913D01*
X017623Y009986D01*
X017915D01*
X017915Y009986D01*
X017955Y009994D01*
X017989Y010016D01*
X018171Y010198D01*
X018199Y010187D01*
X018268Y010178D01*
X018315Y010184D01*
X018358Y010155D01*
X018365Y010145D01*
Y009855D01*
X018179D01*
Y009836D01*
X018174Y009788D01*
X018134Y009780D01*
X018100Y009758D01*
X018016Y009674D01*
X017994Y009640D01*
X017986Y009600D01*
X017986Y009600D01*
Y009037D01*
X017984Y009037D01*
X017934Y009021D01*
X017931Y009020D01*
X017928Y009019D01*
X017920Y009014D01*
X017912Y009010D01*
X017910Y009007D01*
X017907Y009005D01*
X017902Y008997D01*
X017896Y008990D01*
X017895Y008987D01*
X017893Y008984D01*
X017892Y008975D01*
X017889Y008966D01*
X017889Y008963D01*
X017889Y008960D01*
Y008765D01*
X017780D01*
Y008456D01*
X017889D01*
X017893Y008432D01*
X017907Y008411D01*
X017928Y008397D01*
X017953Y008392D01*
X018328D01*
Y006532D01*
X017285D01*
X017279Y006534D01*
X017239Y006564D01*
X017236Y006570D01*
Y006643D01*
X016841D01*
Y006743D01*
X017236D01*
Y006872D01*
X017199D01*
Y007319D01*
Y007575D01*
Y007831D01*
Y008087D01*
X017199D01*
Y008685D01*
X016547D01*
Y008941D01*
X016547Y008941D01*
X016539Y008981D01*
X016517Y009015D01*
X016517Y009015D01*
X015993Y009538D01*
X016005Y009596D01*
X015988Y009680D01*
X015941Y009750D01*
X015871Y009797D01*
X015787Y009814D01*
X015729Y009802D01*
X015574Y009957D01*
X015540Y009980D01*
X015500Y009988D01*
X015500Y009988D01*
X013316D01*
X013296Y010034D01*
X013248Y010097D01*
X013186Y010145D01*
X013113Y010175D01*
X013035Y010185D01*
X012957Y010175D01*
X012884Y010145D01*
X012822Y010097D01*
X012774Y010034D01*
X012744Y009962D01*
X012733Y009884D01*
X012744Y009805D01*
X012763Y009759D01*
X011927Y008923D01*
X009492D01*
X009236Y009179D01*
X009202Y009202D01*
X009162Y009210D01*
X009162Y009210D01*
X008682D01*
Y009385D01*
X008162D01*
Y008826D01*
X008682D01*
Y009001D01*
X009119D01*
X009375Y008745D01*
X009409Y008722D01*
X009449Y008715D01*
X009449Y008715D01*
X011970D01*
X011970Y008715D01*
X012010Y008722D01*
X012044Y008745D01*
X012910Y009611D01*
X012957Y009592D01*
X013035Y009582D01*
X013113Y009592D01*
X013186Y009622D01*
X013248Y009670D01*
X013296Y009733D01*
X013316Y009779D01*
X015457D01*
X015582Y009654D01*
X015570Y009596D01*
X015587Y009513D01*
X015634Y009443D01*
X015704Y009396D01*
X015787Y009379D01*
X015845Y009391D01*
X016339Y008898D01*
Y008047D01*
X016346Y008007D01*
X016369Y007973D01*
X016403Y007951D01*
X016443Y007943D01*
X016482D01*
Y007821D01*
X015627D01*
X015616Y007831D01*
Y007986D01*
X015628Y007994D01*
X015664Y008047D01*
X015676Y008110D01*
X015664Y008173D01*
X015628Y008227D01*
X015575Y008262D01*
X015512Y008275D01*
X015449Y008262D01*
X015395Y008227D01*
X015387Y008215D01*
X013526D01*
X013526Y008215D01*
X013486Y008207D01*
X013452Y008184D01*
X013452Y008184D01*
X011486Y006219D01*
X011440Y006238D01*
X011362Y006248D01*
X011284Y006238D01*
X011237Y006219D01*
X010364Y007092D01*
X010331Y007114D01*
X010291Y007122D01*
X010291Y007122D01*
X008670D01*
Y007455D01*
X008150D01*
Y006896D01*
X008670D01*
Y006913D01*
X009140D01*
X009145Y006863D01*
X009113Y006857D01*
X009047Y006813D01*
X009003Y006747D01*
X008998Y006720D01*
X009382D01*
X009377Y006747D01*
X009333Y006813D01*
X009267Y006857D01*
X009235Y006863D01*
X009240Y006913D01*
X010247D01*
X011090Y006071D01*
X011070Y006025D01*
X011060Y005946D01*
X011070Y005868D01*
X011100Y005796D01*
X011148Y005733D01*
X011211Y005685D01*
X011284Y005655D01*
X011362Y005645D01*
X011440Y005655D01*
X011513Y005685D01*
X011575Y005733D01*
X011623Y005796D01*
X011653Y005868D01*
X011664Y005946D01*
X011653Y006025D01*
X011634Y006071D01*
X013569Y008006D01*
X015387D01*
X015395Y007994D01*
X015407Y007986D01*
Y007788D01*
X015407Y007788D01*
X015415Y007748D01*
X015438Y007714D01*
X015510Y007643D01*
X015510Y007643D01*
X015543Y007620D01*
X015583Y007612D01*
X016209D01*
X016236Y007562D01*
X016225Y007510D01*
X016238Y007447D01*
X016274Y007394D01*
X016282Y007388D01*
Y007328D01*
X016273Y007321D01*
X016237Y007268D01*
X016224Y007205D01*
X016237Y007142D01*
X016273Y007088D01*
X016272Y007037D01*
X016239Y007004D01*
X016067D01*
Y007100D01*
X015547D01*
Y006866D01*
X015358D01*
Y007100D01*
X014602D01*
Y006423D01*
X015171D01*
X015404Y006191D01*
Y006082D01*
X015395Y006035D01*
X015354Y006035D01*
X015030D01*
Y005709D01*
X015395D01*
Y005789D01*
X015401Y005794D01*
X015445Y005808D01*
X015829Y005424D01*
X015808Y005380D01*
X015805Y005377D01*
X015780Y005382D01*
Y005190D01*
Y004992D01*
X015950Y004822D01*
X015931Y004776D01*
X015468D01*
X015140Y005104D01*
X015106Y005126D01*
X015066Y005134D01*
X015066Y005134D01*
X014461D01*
X014179Y005416D01*
X014144Y005451D01*
X014180Y005505D01*
X014192Y005568D01*
X014180Y005631D01*
X014144Y005684D01*
X014091Y005720D01*
X014028Y005732D01*
X013965Y005720D01*
X013911Y005684D01*
X013876Y005631D01*
X013863Y005568D01*
X013876Y005505D01*
X013911Y005451D01*
X013923Y005443D01*
Y005420D01*
X013923Y005420D01*
X013931Y005380D01*
X013954Y005346D01*
X014344Y004956D01*
X014344Y004956D01*
X014378Y004934D01*
X014418Y004926D01*
X015023D01*
X015281Y004668D01*
Y004099D01*
X016037D01*
Y004392D01*
X016143D01*
Y004217D01*
X016663D01*
Y004497D01*
X016814D01*
X017279Y004031D01*
X017274Y003968D01*
X017267Y003963D01*
X017223Y003897D01*
X017222Y003892D01*
X017170Y003885D01*
X017143Y003925D01*
X017090Y003960D01*
X017027Y003973D01*
X016964Y003960D01*
X016911Y003925D01*
X016875Y003871D01*
X016862Y003808D01*
X016875Y003745D01*
X016911Y003692D01*
X016933Y003677D01*
Y003480D01*
X016766D01*
Y003160D01*
X016371Y002765D01*
X016348Y002731D01*
X016342Y002700D01*
X016165D01*
Y002180D01*
X016166D01*
Y001782D01*
X016157D01*
Y001357D01*
X016120D01*
Y001110D01*
X016437D01*
Y001010D01*
X016120D01*
Y000763D01*
X016287D01*
X016291Y000754D01*
X016260Y000704D01*
X015573D01*
X015527Y000750D01*
X015548Y000800D01*
X016047D01*
Y001263D01*
Y001698D01*
X016093D01*
Y001945D01*
X015459D01*
Y001698D01*
X015488D01*
Y001263D01*
Y000860D01*
X015438Y000840D01*
X014642Y001636D01*
Y002184D01*
X014764D01*
Y002470D01*
X014557D01*
Y002228D01*
X014326D01*
Y002819D01*
X013885D01*
Y002624D01*
X013800D01*
X013294Y003130D01*
X013309Y003150D01*
X013359Y003270D01*
X013376Y003399D01*
X013359Y003527D01*
X013309Y003647D01*
X013230Y003750D01*
X013127Y003829D01*
X013007Y003879D01*
X012879Y003896D01*
X012750Y003879D01*
X012630Y003829D01*
X012527Y003750D01*
X012448Y003647D01*
X012431Y003607D01*
X012381D01*
X012357Y003666D01*
X012272Y003776D01*
X012162Y003861D01*
X012033Y003915D01*
X011944Y003926D01*
Y003399D01*
Y002871D01*
X012033Y002882D01*
X012162Y002936D01*
X012272Y003020D01*
X012357Y003131D01*
X012381Y003190D01*
X012431D01*
X012448Y003150D01*
X012527Y003047D01*
X012630Y002968D01*
X012750Y002918D01*
X012774Y002915D01*
Y002482D01*
X012587Y002294D01*
X009163D01*
X009046Y002412D01*
Y002915D01*
X009070Y002918D01*
X009190Y002968D01*
X009293Y003047D01*
X009372Y003150D01*
X009389Y003190D01*
X009439D01*
X009463Y003131D01*
X009548Y003020D01*
X009658Y002936D01*
X009787Y002882D01*
X009876Y002871D01*
Y003399D01*
Y003926D01*
X009787Y003915D01*
X009658Y003861D01*
X009548Y003776D01*
X009463Y003666D01*
X009439Y003607D01*
X009389D01*
X009372Y003647D01*
X009293Y003750D01*
X009190Y003829D01*
X009070Y003879D01*
X009046Y003882D01*
Y004028D01*
X009762Y004745D01*
X009785Y004779D01*
X009793Y004819D01*
X009793Y004819D01*
Y005666D01*
X009839Y005685D01*
X009902Y005733D01*
X009950Y005796D01*
X009980Y005868D01*
X009990Y005946D01*
X009980Y006025D01*
X009950Y006097D01*
X009902Y006160D01*
X009839Y006208D01*
X009767Y006238D01*
X009689Y006248D01*
X009610Y006238D01*
X009538Y006208D01*
X009475Y006160D01*
X009427Y006097D01*
X009397Y006025D01*
X009387Y005946D01*
X009397Y005868D01*
X009427Y005796D01*
X009475Y005733D01*
X009538Y005685D01*
X009584Y005666D01*
Y004862D01*
X008868Y004145D01*
X008845Y004111D01*
X008837Y004072D01*
X008837Y004071D01*
Y003882D01*
X008813Y003879D01*
X008693Y003829D01*
X008590Y003750D01*
X008511Y003647D01*
X008500Y003621D01*
X008450D01*
X008439Y003647D01*
X008360Y003750D01*
X008257Y003829D01*
X008137Y003879D01*
X008008Y003896D01*
X007880Y003879D01*
X007760Y003829D01*
X007657Y003750D01*
X007578Y003647D01*
X007561Y003607D01*
X007511D01*
X007487Y003666D01*
X007402Y003776D01*
X007292Y003861D01*
X007163Y003915D01*
X007074Y003926D01*
Y003399D01*
Y002871D01*
X007163Y002882D01*
X007292Y002936D01*
X007402Y003020D01*
X007487Y003131D01*
X007511Y003190D01*
X007561D01*
X007578Y003150D01*
X007593Y003130D01*
X006887Y002424D01*
X003643D01*
X003057Y003011D01*
X003023Y003033D01*
X002983Y003041D01*
X002983Y003041D01*
X002934D01*
Y003100D01*
X002971D01*
Y003347D01*
X002655D01*
X002338D01*
Y003100D01*
X002375D01*
Y002677D01*
Y002217D01*
X002556D01*
Y001034D01*
X002544Y001026D01*
X002508Y000973D01*
X002495Y000910D01*
X002508Y000847D01*
X002544Y000794D01*
X002597Y000758D01*
X002660Y000745D01*
X002723Y000758D01*
X002776Y000794D01*
X002812Y000847D01*
X002825Y000910D01*
X002812Y000973D01*
X002776Y001026D01*
X002764Y001034D01*
Y002217D01*
X002934D01*
Y002768D01*
X002984Y002788D01*
X003526Y002246D01*
X003526Y002246D01*
X003560Y002224D01*
X003600Y002216D01*
X003600Y002216D01*
X006930D01*
X006930Y002216D01*
X006970Y002224D01*
X007004Y002246D01*
X007740Y002983D01*
X007760Y002968D01*
X007880Y002918D01*
X008008Y002901D01*
X008137Y002918D01*
X008257Y002968D01*
X008360Y003047D01*
X008439Y003150D01*
X008450Y003176D01*
X008500D01*
X008511Y003150D01*
X008590Y003047D01*
X008693Y002968D01*
X008813Y002918D01*
X008837Y002915D01*
Y002369D01*
X008837Y002368D01*
X008845Y002329D01*
X008868Y002295D01*
X009046Y002116D01*
X009080Y002094D01*
X009120Y002086D01*
X012630D01*
X012630Y002086D01*
X012670Y002094D01*
X012704Y002116D01*
X012952Y002365D01*
X012975Y002399D01*
X012983Y002438D01*
Y002915D01*
X013007Y002918D01*
X013127Y002968D01*
X013147Y002983D01*
X013683Y002446D01*
X013683Y002446D01*
X013717Y002424D01*
X013757Y002416D01*
X013757Y002416D01*
X013885D01*
Y002221D01*
X013886D01*
Y001511D01*
X013943D01*
X013962Y001465D01*
X013856Y001360D01*
X013834Y001326D01*
X013826Y001286D01*
X013826Y001286D01*
Y000889D01*
X013571D01*
Y000291D01*
X014169D01*
Y000889D01*
X014034D01*
Y001243D01*
X014303Y001511D01*
X014471D01*
X015456Y000526D01*
X015490Y000504D01*
X015530Y000496D01*
X015530Y000496D01*
X016413D01*
X016417Y000493D01*
X016457Y000485D01*
X016623D01*
X016623Y000485D01*
X016663Y000493D01*
X016667Y000496D01*
X016674D01*
X016674Y000496D01*
X016714Y000504D01*
X016748Y000526D01*
X017150Y000928D01*
X017150Y000928D01*
X017173Y000962D01*
X017178Y000990D01*
X017345D01*
Y001510D01*
X017328D01*
X017287Y001531D01*
Y001750D01*
X017324D01*
Y001878D01*
X017076D01*
Y001978D01*
X017324D01*
Y002107D01*
X017287D01*
Y002326D01*
X016893D01*
X016888Y002334D01*
X016913Y002384D01*
X016976D01*
Y002720D01*
X017026D01*
Y002770D01*
X017283D01*
Y002960D01*
X017325D01*
Y003480D01*
X017141D01*
Y003690D01*
X017143Y003692D01*
X017173Y003737D01*
X017204Y003740D01*
X017228Y003735D01*
X017267Y003677D01*
X017333Y003633D01*
X017360Y003628D01*
Y003820D01*
X017460D01*
Y003628D01*
X017487Y003633D01*
X017553Y003677D01*
X017591Y003734D01*
X017632Y003729D01*
X017641Y003726D01*
Y003480D01*
X017435D01*
Y002960D01*
X017514D01*
Y002421D01*
X017641D01*
Y002326D01*
X017515D01*
Y002042D01*
X017936D01*
Y002080D01*
X018224D01*
Y001856D01*
X018744D01*
Y002080D01*
X018864D01*
Y001846D01*
X019620D01*
X019646Y001807D01*
Y000084D01*
X000787D01*
Y000084D01*
X000656Y000097D01*
X000529Y000136D01*
X000412Y000198D01*
X000309Y000282D01*
X000309Y000282D01*
X000256Y000335D01*
X000257Y000336D01*
X000184Y000425D01*
X000130Y000526D01*
X000096Y000636D01*
X000085Y000751D01*
X000084D01*
Y003027D01*
X000134Y003048D01*
X000319Y002863D01*
X000319Y002863D01*
X000353Y002840D01*
X000393Y002832D01*
X000393Y002832D01*
X000536D01*
Y002677D01*
Y002217D01*
X001095D01*
Y002609D01*
X001155Y002669D01*
X001205Y002648D01*
Y002217D01*
X002265D01*
Y002677D01*
Y003137D01*
Y003597D01*
Y004117D01*
X001589D01*
Y004481D01*
X001980D01*
Y004701D01*
Y004921D01*
X001589D01*
Y005018D01*
X002528D01*
Y005384D01*
X001532D01*
Y005270D01*
X001411Y005148D01*
X001388Y005115D01*
X001380Y005075D01*
X001380Y005075D01*
Y004117D01*
X001205D01*
Y003501D01*
X001170D01*
X001145Y003496D01*
X001105Y003520D01*
X001095Y003530D01*
Y004117D01*
X000920D01*
Y004176D01*
X000956Y004200D01*
X000992Y004254D01*
X001005Y004317D01*
X000992Y004380D01*
X000956Y004433D01*
X000903Y004469D01*
X000840Y004481D01*
X000777Y004469D01*
X000730Y004437D01*
X000700Y004444D01*
X000677Y004454D01*
X000669Y004496D01*
X000633Y004550D01*
X000580Y004585D01*
X000517Y004598D01*
X000454Y004585D01*
X000401Y004550D01*
X000365Y004496D01*
X000353Y004433D01*
X000365Y004370D01*
X000392Y004330D01*
Y003433D01*
X000392Y003433D01*
X000400Y003393D01*
X000423Y003360D01*
X000459Y003323D01*
X000459Y003323D01*
X000493Y003300D01*
X000533Y003292D01*
X000536Y003245D01*
Y003041D01*
X000436D01*
X000274Y003203D01*
Y004657D01*
X001214Y005597D01*
X001532D01*
Y005518D01*
X002528D01*
Y005884D01*
X001532D01*
Y005805D01*
X001171D01*
X001171Y005805D01*
X001131Y005797D01*
X001097Y005775D01*
X000134Y004812D01*
X000084Y004833D01*
Y007228D01*
X000117Y007255D01*
X000688D01*
X000747Y007267D01*
X000797Y007300D01*
X000830Y007350D01*
X000841Y007406D01*
X000842Y007406D01*
X002631D01*
Y007260D01*
X002636Y007235D01*
X002650Y007215D01*
X002670Y007201D01*
X002695Y007196D01*
Y006987D01*
X002449D01*
Y006740D01*
X002766D01*
Y006690D01*
X002816D01*
Y006393D01*
X003082D01*
Y006400D01*
X003549D01*
X003592Y006384D01*
Y006018D01*
X004588D01*
Y006038D01*
X004650Y006050D01*
X004703Y006086D01*
X004739Y006139D01*
X004750Y006197D01*
X004800Y006192D01*
Y005992D01*
X004641Y005834D01*
X004588Y005844D01*
Y005884D01*
X003592D01*
Y005518D01*
X004574D01*
X004587Y005515D01*
X004650Y005528D01*
X004703Y005564D01*
X004739Y005617D01*
X004750Y005621D01*
X004800Y005586D01*
Y005323D01*
X004782Y005305D01*
X004711D01*
X004703Y005317D01*
X004650Y005353D01*
X004588Y005365D01*
Y005384D01*
X003592D01*
Y005018D01*
X004588D01*
Y005037D01*
X004650Y005049D01*
X004703Y005085D01*
X004711Y005097D01*
X004826D01*
X004826Y005097D01*
X004865Y005105D01*
X004899Y005127D01*
X004928Y005156D01*
X005280D01*
Y005155D01*
X005703D01*
Y005118D01*
X005950D01*
Y005435D01*
Y005751D01*
X005703D01*
Y005714D01*
X005644D01*
Y006336D01*
X005656Y006344D01*
X005692Y006397D01*
X005705Y006460D01*
X005692Y006523D01*
X005656Y006576D01*
X005603Y006612D01*
X005540Y006625D01*
X005477Y006612D01*
X005424Y006576D01*
X005388Y006523D01*
X005375Y006460D01*
X005388Y006397D01*
X005424Y006344D01*
X005436Y006336D01*
Y005714D01*
X005320D01*
Y005715D01*
X004883D01*
X004864Y005761D01*
X004928Y005825D01*
X005320D01*
Y006384D01*
X005097D01*
X005092Y006434D01*
X005137Y006443D01*
X005203Y006487D01*
X005247Y006553D01*
X005252Y006580D01*
X004868D01*
X004873Y006553D01*
X004917Y006487D01*
X004983Y006443D01*
X005028Y006434D01*
X005023Y006384D01*
X004800D01*
Y006212D01*
X004750Y006207D01*
X004739Y006265D01*
X004703Y006319D01*
X004650Y006354D01*
X004588Y006366D01*
Y006384D01*
X004063D01*
X003740Y006707D01*
Y006914D01*
X003990D01*
Y007256D01*
X003990D01*
Y007288D01*
X003990D01*
Y007630D01*
X003990D01*
Y007662D01*
X003990D01*
Y007958D01*
X004040Y007985D01*
X004046Y007981D01*
X004074Y007975D01*
Y008118D01*
X003931D01*
X003937Y008090D01*
X003961Y008054D01*
X003934Y008004D01*
X003740D01*
Y008855D01*
X003887D01*
X004496Y008246D01*
X004496Y008246D01*
X004530Y008224D01*
X004570Y008216D01*
X004590D01*
X004598Y008204D01*
X004610Y008196D01*
Y008004D01*
X004415D01*
Y007662D01*
X004943D01*
Y007558D01*
X005190D01*
Y007875D01*
Y008191D01*
X004943D01*
Y008004D01*
X004819D01*
Y008196D01*
X004831Y008204D01*
X004867Y008257D01*
X004879Y008320D01*
X004867Y008383D01*
X004831Y008436D01*
X004829Y008438D01*
Y008679D01*
X005027D01*
Y009307D01*
X006016Y010296D01*
X017252D01*
X017327Y010221D01*
D02*
G37*
G36*
X024590Y007979D02*
Y004585D01*
X024590Y004585D01*
X024598Y004545D01*
X024621Y004511D01*
X024639Y004493D01*
X024637Y004478D01*
X024649Y004415D01*
X024685Y004362D01*
X024738Y004326D01*
X024801Y004314D01*
X024864Y004326D01*
X024918Y004362D01*
X024953Y004415D01*
X024966Y004478D01*
X024953Y004541D01*
X024918Y004595D01*
X024864Y004630D01*
X024801Y004643D01*
X024799Y004645D01*
Y005231D01*
X024826Y005245D01*
X024849Y005250D01*
X024898Y005218D01*
X024961Y005205D01*
X025024Y005218D01*
X025077Y005254D01*
X025113Y005307D01*
X025125Y005370D01*
X025113Y005433D01*
X025077Y005486D01*
X025024Y005522D01*
X024961Y005535D01*
X024941Y005582D01*
Y006128D01*
X024991Y006155D01*
X025016Y006138D01*
X025079Y006125D01*
X025142Y006138D01*
X025195Y006174D01*
X025231Y006227D01*
X025243Y006290D01*
X025231Y006353D01*
X025195Y006406D01*
X025142Y006442D01*
X025083Y006454D01*
Y007048D01*
X025127Y007072D01*
X025134Y007067D01*
X025197Y007054D01*
X025260Y007067D01*
X025313Y007102D01*
X025349Y007156D01*
X025361Y007219D01*
X025349Y007282D01*
X025313Y007335D01*
X025260Y007371D01*
X025224Y007378D01*
Y007950D01*
X025274Y007976D01*
X025287Y007968D01*
X025350Y007955D01*
X025413Y007968D01*
X025456Y007997D01*
X025492Y007985D01*
X025506Y007975D01*
Y000984D01*
X025507Y000982D01*
X025490Y000815D01*
X025441Y000652D01*
X025361Y000503D01*
X025255Y000373D01*
X025253Y000372D01*
X025219Y000338D01*
X025217Y000336D01*
X025088Y000230D01*
X024938Y000149D01*
X024775Y000100D01*
X024609Y000084D01*
X024606Y000084D01*
X019710D01*
Y004060D01*
X017748D01*
X016609Y005198D01*
X016576Y005221D01*
X016536Y005229D01*
X016536Y005229D01*
X016319D01*
X016260Y005288D01*
Y006468D01*
X016482D01*
Y006104D01*
X016445D01*
Y005975D01*
X016841D01*
Y005875D01*
X016445D01*
Y005746D01*
X016482D01*
Y005528D01*
X016835D01*
X016972Y005390D01*
Y005034D01*
X016972Y005034D01*
X016980Y004994D01*
X017003Y004960D01*
X017309Y004655D01*
X017342Y004632D01*
X017382Y004624D01*
X017382Y004624D01*
X019194D01*
X019198Y004602D01*
X019234Y004549D01*
X019287Y004513D01*
X019350Y004501D01*
X019413Y004513D01*
X019467Y004549D01*
X019502Y004602D01*
X019515Y004665D01*
X019510Y004691D01*
X019546Y004747D01*
X019546Y004747D01*
X019562Y004749D01*
X020109Y004202D01*
Y004119D01*
X020109Y004119D01*
X020117Y004079D01*
X020140Y004045D01*
X020246Y003939D01*
Y002850D01*
X020246Y002850D01*
X020254Y002810D01*
X020276Y002776D01*
X020607Y002446D01*
X020640Y002423D01*
X020680Y002415D01*
X020680Y002415D01*
X021306D01*
X021325Y002388D01*
X021378Y002352D01*
X021441Y002340D01*
X021504Y002352D01*
X021557Y002388D01*
X021593Y002441D01*
X021606Y002504D01*
X021593Y002567D01*
X021557Y002621D01*
X021504Y002656D01*
X021441Y002669D01*
X021378Y002656D01*
X021329Y002624D01*
X020724D01*
X020454Y002893D01*
Y002979D01*
X020498Y003003D01*
X020513Y002993D01*
X020540Y002988D01*
Y003180D01*
Y003372D01*
X020513Y003367D01*
X020498Y003357D01*
X020454Y003381D01*
Y003982D01*
X020454Y003982D01*
X020493Y004030D01*
X020496Y004031D01*
X020503Y004036D01*
X020547Y004012D01*
Y003602D01*
X020969D01*
Y003311D01*
X020793D01*
X020793Y003311D01*
Y003311D01*
X020743Y003308D01*
X020733Y003323D01*
X020667Y003367D01*
X020640Y003372D01*
Y003180D01*
Y002988D01*
X020667Y002993D01*
X020733Y003037D01*
X020743Y003052D01*
X020793Y003037D01*
Y002791D01*
X021352D01*
Y003311D01*
X021177D01*
Y003602D01*
X021461D01*
Y004437D01*
X020547D01*
X020537Y004483D01*
Y004635D01*
X020547Y004681D01*
X020587Y004681D01*
X021461D01*
Y005358D01*
X020587D01*
X020547Y005358D01*
X020537Y005404D01*
Y005556D01*
X020547Y005602D01*
X021461D01*
Y005853D01*
X021505Y005876D01*
X021512Y005872D01*
X021575Y005859D01*
X021638Y005872D01*
X021691Y005907D01*
X021727Y005961D01*
X021739Y006024D01*
X021727Y006087D01*
X021691Y006140D01*
X021638Y006176D01*
X021575Y006188D01*
X021512Y006176D01*
X021505Y006171D01*
X021461Y006194D01*
Y006437D01*
X021418D01*
X021403Y006487D01*
X021447Y006553D01*
X021452Y006580D01*
X021260D01*
Y006680D01*
X021452D01*
X021452Y006680D01*
X021487Y006730D01*
X022009D01*
X022009Y006730D01*
X022049Y006738D01*
X022082Y006761D01*
X023278Y007956D01*
X023324Y007937D01*
Y007504D01*
X023385D01*
Y007222D01*
X023331D01*
Y006596D01*
X023385D01*
Y006307D01*
X023331D01*
Y005681D01*
X023385D01*
Y005392D01*
X023331D01*
Y004766D01*
X023385D01*
Y004476D01*
X023331D01*
Y003850D01*
X023385D01*
Y003561D01*
X023331D01*
Y002935D01*
X023414D01*
Y002402D01*
X023045Y002032D01*
X021167D01*
X021159Y002044D01*
X021106Y002080D01*
X021043Y002093D01*
X020980Y002080D01*
X020927Y002044D01*
X020891Y001991D01*
X020878Y001928D01*
X020891Y001865D01*
X020927Y001812D01*
X020980Y001776D01*
X021043Y001763D01*
X021106Y001776D01*
X021159Y001812D01*
X021167Y001824D01*
X023088D01*
X023088Y001824D01*
X023128Y001832D01*
X023162Y001854D01*
X023592Y002285D01*
X023592Y002285D01*
X023615Y002319D01*
X023623Y002359D01*
Y002935D01*
X023934D01*
Y002898D01*
X024034D01*
Y002429D01*
X024030Y002427D01*
X023986Y002361D01*
X023981Y002333D01*
X024366D01*
X024360Y002361D01*
X024316Y002427D01*
X024283Y002449D01*
Y002898D01*
X024384D01*
Y003598D01*
X024283D01*
Y003813D01*
X024384D01*
Y004513D01*
X024283D01*
Y004729D01*
X024384D01*
Y005029D01*
X024159D01*
Y005129D01*
X024384D01*
Y005429D01*
X024283D01*
Y005644D01*
X024384D01*
Y006344D01*
X024283D01*
Y006559D01*
X024384D01*
Y007259D01*
X024283D01*
Y007467D01*
X024377D01*
Y008121D01*
X024427Y008142D01*
X024590Y007979D01*
D02*
G37*
G36*
X019646Y003662D02*
X019292D01*
Y003287D01*
Y002911D01*
X019646D01*
Y002562D01*
X019620Y002523D01*
X018864D01*
Y002289D01*
X018744D01*
Y002415D01*
X018224D01*
Y002289D01*
X017936D01*
Y002326D01*
X017850D01*
Y002421D01*
X017955D01*
Y002960D01*
X017994D01*
Y003480D01*
X017850D01*
Y003915D01*
X017850Y003915D01*
X017844Y003946D01*
X017861Y003978D01*
X017874Y003996D01*
X019646D01*
Y003662D01*
D02*
G37*
%LPC*%
G36*
X022295Y012820D02*
X022194Y012807D01*
X022100Y012768D01*
X022019Y012706D01*
X021956Y012625D01*
X021917Y012530D01*
X021904Y012429D01*
X021917Y012328D01*
X021956Y012233D01*
X022019Y012152D01*
X022100Y012090D01*
X022194Y012051D01*
X022295Y012038D01*
X022397Y012051D01*
X022491Y012090D01*
X022572Y012152D01*
X022634Y012233D01*
X022673Y012328D01*
X022687Y012429D01*
X022673Y012530D01*
X022634Y012625D01*
X022572Y012706D01*
X022491Y012768D01*
X022397Y012807D01*
X022295Y012820D01*
D02*
G37*
G36*
X020295D02*
X020194Y012807D01*
X020100Y012768D01*
X020019Y012706D01*
X019956Y012625D01*
X019917Y012530D01*
X019904Y012429D01*
X019917Y012328D01*
X019956Y012233D01*
X020019Y012152D01*
X020100Y012090D01*
X020194Y012051D01*
X020295Y012038D01*
X020397Y012051D01*
X020491Y012090D01*
X020572Y012152D01*
X020634Y012233D01*
X020673Y012328D01*
X020687Y012429D01*
X020673Y012530D01*
X020634Y012625D01*
X020572Y012706D01*
X020491Y012768D01*
X020397Y012807D01*
X020295Y012820D01*
D02*
G37*
G36*
X019295D02*
X019194Y012807D01*
X019100Y012768D01*
X019019Y012706D01*
X018956Y012625D01*
X018917Y012530D01*
X018904Y012429D01*
X018917Y012328D01*
X018956Y012233D01*
X019019Y012152D01*
X019100Y012090D01*
X019194Y012051D01*
X019295Y012038D01*
X019397Y012051D01*
X019491Y012090D01*
X019572Y012152D01*
X019634Y012233D01*
X019673Y012328D01*
X019687Y012429D01*
X019673Y012530D01*
X019634Y012625D01*
X019572Y012706D01*
X019491Y012768D01*
X019397Y012807D01*
X019295Y012820D01*
D02*
G37*
G36*
X018295D02*
X018194Y012807D01*
X018100Y012768D01*
X018019Y012706D01*
X017956Y012625D01*
X017917Y012530D01*
X017904Y012429D01*
X017917Y012328D01*
X017956Y012233D01*
X018019Y012152D01*
X018100Y012090D01*
X018194Y012051D01*
X018295Y012038D01*
X018397Y012051D01*
X018491Y012090D01*
X018572Y012152D01*
X018634Y012233D01*
X018673Y012328D01*
X018687Y012429D01*
X018673Y012530D01*
X018634Y012625D01*
X018572Y012706D01*
X018491Y012768D01*
X018397Y012807D01*
X018295Y012820D01*
D02*
G37*
G36*
X017295D02*
X017194Y012807D01*
X017100Y012768D01*
X017019Y012706D01*
X016956Y012625D01*
X016917Y012530D01*
X016904Y012429D01*
X016917Y012328D01*
X016956Y012233D01*
X017019Y012152D01*
X017100Y012090D01*
X017194Y012051D01*
X017295Y012038D01*
X017397Y012051D01*
X017491Y012090D01*
X017572Y012152D01*
X017634Y012233D01*
X017673Y012328D01*
X017687Y012429D01*
X017673Y012530D01*
X017634Y012625D01*
X017572Y012706D01*
X017491Y012768D01*
X017397Y012807D01*
X017295Y012820D01*
D02*
G37*
G36*
X016295D02*
X016194Y012807D01*
X016100Y012768D01*
X016019Y012706D01*
X015956Y012625D01*
X015917Y012530D01*
X015904Y012429D01*
X015917Y012328D01*
X015956Y012233D01*
X016019Y012152D01*
X016100Y012090D01*
X016194Y012051D01*
X016295Y012038D01*
X016397Y012051D01*
X016491Y012090D01*
X016572Y012152D01*
X016634Y012233D01*
X016673Y012328D01*
X016687Y012429D01*
X016673Y012530D01*
X016634Y012625D01*
X016572Y012706D01*
X016491Y012768D01*
X016397Y012807D01*
X016295Y012820D01*
D02*
G37*
G36*
X021295D02*
X021194Y012807D01*
X021100Y012768D01*
X021019Y012706D01*
X020956Y012625D01*
X020917Y012530D01*
X020904Y012429D01*
X020917Y012328D01*
X020956Y012233D01*
X021019Y012152D01*
X021100Y012090D01*
X021194Y012051D01*
X021295Y012038D01*
X021397Y012051D01*
X021468Y012081D01*
X021724Y011825D01*
Y011530D01*
X021674Y011527D01*
X021673Y011530D01*
X021634Y011625D01*
X021572Y011706D01*
X021491Y011768D01*
X021397Y011807D01*
X021295Y011820D01*
X021194Y011807D01*
X021100Y011768D01*
X021019Y011706D01*
X021003Y011685D01*
X020975Y011688D01*
X020951Y011700D01*
X020945Y011731D01*
X020922Y011765D01*
X020737Y011950D01*
X020703Y011973D01*
X020663Y011981D01*
X020663Y011981D01*
X014967D01*
X014952Y012031D01*
X014990Y012088D01*
X014994Y012108D01*
X015049Y012129D01*
X015100Y012090D01*
X015194Y012051D01*
X015295Y012038D01*
X015397Y012051D01*
X015491Y012090D01*
X015572Y012152D01*
X015634Y012233D01*
X015673Y012328D01*
X015687Y012429D01*
X015673Y012530D01*
X015634Y012625D01*
X015572Y012706D01*
X015491Y012768D01*
X015397Y012807D01*
X015295Y012820D01*
X015194Y012807D01*
X015100Y012768D01*
X015019Y012706D01*
X014956Y012625D01*
X014917Y012530D01*
X014904Y012429D01*
X014909Y012394D01*
X014901Y012383D01*
X014863Y012356D01*
X014853Y012358D01*
Y012165D01*
X014753D01*
Y012358D01*
X014726Y012352D01*
X014680Y012382D01*
X014687Y012429D01*
X014673Y012530D01*
X014634Y012625D01*
X014572Y012706D01*
X014491Y012768D01*
X014397Y012807D01*
X014295Y012820D01*
X014194Y012807D01*
X014100Y012768D01*
X014019Y012706D01*
X013956Y012625D01*
X013917Y012530D01*
X013904Y012429D01*
X013917Y012328D01*
X013956Y012233D01*
X014019Y012152D01*
X014100Y012090D01*
X014194Y012051D01*
X014295Y012038D01*
X014397Y012051D01*
X014491Y012090D01*
X014555Y012139D01*
X014604Y012126D01*
X014610Y012121D01*
X014616Y012088D01*
X014655Y012031D01*
X014639Y011981D01*
X008502D01*
X008453Y012029D01*
X008463Y012078D01*
X008491Y012090D01*
X008572Y012152D01*
X008634Y012233D01*
X008673Y012328D01*
X008687Y012429D01*
X008673Y012530D01*
X008634Y012625D01*
X008572Y012706D01*
X008491Y012768D01*
X008397Y012807D01*
X008295Y012820D01*
X008194Y012807D01*
X008100Y012768D01*
X008019Y012706D01*
X007956Y012625D01*
X007917Y012530D01*
X007904Y012429D01*
X007917Y012328D01*
X007956Y012233D01*
X008019Y012152D01*
X008100Y012090D01*
X008191Y012052D01*
Y012039D01*
X008191Y012039D01*
X008199Y011999D01*
X008221Y011966D01*
X008322Y011865D01*
X008300Y011820D01*
X008295Y011820D01*
X008194Y011807D01*
X008100Y011768D01*
X008019Y011706D01*
X007956Y011625D01*
X007917Y011530D01*
X007904Y011429D01*
X007917Y011328D01*
X007956Y011233D01*
X008019Y011152D01*
X008100Y011090D01*
X008194Y011051D01*
X008295Y011038D01*
X008397Y011051D01*
X008491Y011090D01*
X008572Y011152D01*
X008634Y011233D01*
X008673Y011328D01*
X008687Y011429D01*
X008673Y011530D01*
X008634Y011625D01*
X008572Y011706D01*
X008551Y011722D01*
X008568Y011772D01*
X009022D01*
X009039Y011722D01*
X009019Y011706D01*
X008956Y011625D01*
X008917Y011530D01*
X008904Y011429D01*
X008917Y011328D01*
X008956Y011233D01*
X009019Y011152D01*
X009100Y011090D01*
X009194Y011051D01*
X009295Y011038D01*
X009397Y011051D01*
X009491Y011090D01*
X009572Y011152D01*
X009634Y011233D01*
X009673Y011328D01*
X009687Y011429D01*
X009673Y011530D01*
X009634Y011625D01*
X009572Y011706D01*
X009551Y011722D01*
X009568Y011772D01*
X010022D01*
X010039Y011722D01*
X010019Y011706D01*
X009956Y011625D01*
X009917Y011530D01*
X009904Y011429D01*
X009917Y011328D01*
X009956Y011233D01*
X010019Y011152D01*
X010100Y011090D01*
X010194Y011051D01*
X010295Y011038D01*
X010397Y011051D01*
X010491Y011090D01*
X010572Y011152D01*
X010634Y011233D01*
X010673Y011328D01*
X010687Y011429D01*
X010673Y011530D01*
X010634Y011625D01*
X010572Y011706D01*
X010551Y011722D01*
X010568Y011772D01*
X011022D01*
X011039Y011722D01*
X011019Y011706D01*
X010956Y011625D01*
X010917Y011530D01*
X010904Y011429D01*
X010917Y011328D01*
X010956Y011233D01*
X011019Y011152D01*
X011100Y011090D01*
X011194Y011051D01*
X011295Y011038D01*
X011397Y011051D01*
X011491Y011090D01*
X011572Y011152D01*
X011634Y011233D01*
X011673Y011328D01*
X011687Y011429D01*
X011673Y011530D01*
X011634Y011625D01*
X011572Y011706D01*
X011551Y011722D01*
X011568Y011772D01*
X012022D01*
X012039Y011722D01*
X012019Y011706D01*
X011956Y011625D01*
X011917Y011530D01*
X011904Y011429D01*
X011917Y011328D01*
X011956Y011233D01*
X012019Y011152D01*
X012100Y011090D01*
X012194Y011051D01*
X012295Y011038D01*
X012397Y011051D01*
X012491Y011090D01*
X012572Y011152D01*
X012634Y011233D01*
X012673Y011328D01*
X012687Y011429D01*
X012673Y011530D01*
X012634Y011625D01*
X012572Y011706D01*
X012551Y011722D01*
X012568Y011772D01*
X013022D01*
X013039Y011722D01*
X013019Y011706D01*
X012956Y011625D01*
X012917Y011530D01*
X012904Y011429D01*
X012917Y011328D01*
X012956Y011233D01*
X013019Y011152D01*
X013100Y011090D01*
X013194Y011051D01*
X013295Y011038D01*
X013397Y011051D01*
X013491Y011090D01*
X013572Y011152D01*
X013634Y011233D01*
X013673Y011328D01*
X013687Y011429D01*
X013673Y011530D01*
X013634Y011625D01*
X013572Y011706D01*
X013551Y011722D01*
X013568Y011772D01*
X014022D01*
X014039Y011722D01*
X014019Y011706D01*
X013956Y011625D01*
X013917Y011530D01*
X013904Y011429D01*
X013917Y011328D01*
X013956Y011233D01*
X014019Y011152D01*
X014100Y011090D01*
X014194Y011051D01*
X014295Y011038D01*
X014397Y011051D01*
X014491Y011090D01*
X014572Y011152D01*
X014634Y011233D01*
X014673Y011328D01*
X014687Y011429D01*
X014673Y011530D01*
X014634Y011625D01*
X014572Y011706D01*
X014551Y011722D01*
X014568Y011772D01*
X015022D01*
X015039Y011722D01*
X015019Y011706D01*
X014956Y011625D01*
X014917Y011530D01*
X014904Y011429D01*
X014917Y011328D01*
X014956Y011233D01*
X015019Y011152D01*
X015100Y011090D01*
X015194Y011051D01*
X015295Y011038D01*
X015397Y011051D01*
X015491Y011090D01*
X015572Y011152D01*
X015634Y011233D01*
X015673Y011328D01*
X015687Y011429D01*
X015673Y011530D01*
X015634Y011625D01*
X015572Y011706D01*
X015551Y011722D01*
X015568Y011772D01*
X016022D01*
X016039Y011722D01*
X016019Y011706D01*
X015956Y011625D01*
X015917Y011530D01*
X015904Y011429D01*
X015917Y011328D01*
X015956Y011233D01*
X016019Y011152D01*
X016100Y011090D01*
X016194Y011051D01*
X016295Y011038D01*
X016397Y011051D01*
X016491Y011090D01*
X016572Y011152D01*
X016634Y011233D01*
X016673Y011328D01*
X016687Y011429D01*
X016673Y011530D01*
X016634Y011625D01*
X016572Y011706D01*
X016551Y011722D01*
X016568Y011772D01*
X017022D01*
X017039Y011722D01*
X017019Y011706D01*
X016956Y011625D01*
X016917Y011530D01*
X016904Y011429D01*
X016917Y011328D01*
X016956Y011233D01*
X017019Y011152D01*
X017100Y011090D01*
X017194Y011051D01*
X017295Y011038D01*
X017397Y011051D01*
X017491Y011090D01*
X017572Y011152D01*
X017634Y011233D01*
X017673Y011328D01*
X017687Y011429D01*
X017673Y011530D01*
X017634Y011625D01*
X017572Y011706D01*
X017551Y011722D01*
X017568Y011772D01*
X018022D01*
X018039Y011722D01*
X018019Y011706D01*
X017956Y011625D01*
X017917Y011530D01*
X017904Y011429D01*
X017917Y011328D01*
X017956Y011233D01*
X018019Y011152D01*
X018100Y011090D01*
X018194Y011051D01*
X018295Y011038D01*
X018397Y011051D01*
X018491Y011090D01*
X018572Y011152D01*
X018634Y011233D01*
X018673Y011328D01*
X018687Y011429D01*
X018673Y011530D01*
X018634Y011625D01*
X018572Y011706D01*
X018551Y011722D01*
X018568Y011772D01*
X019022D01*
X019039Y011722D01*
X019019Y011706D01*
X018956Y011625D01*
X018917Y011530D01*
X018904Y011429D01*
X018917Y011328D01*
X018956Y011233D01*
X019019Y011152D01*
X019100Y011090D01*
X019194Y011051D01*
X019295Y011038D01*
X019397Y011051D01*
X019491Y011090D01*
X019572Y011152D01*
X019634Y011233D01*
X019673Y011328D01*
X019687Y011429D01*
X019673Y011530D01*
X019634Y011625D01*
X019572Y011706D01*
X019551Y011722D01*
X019568Y011772D01*
X020022D01*
X020039Y011722D01*
X020019Y011706D01*
X019956Y011625D01*
X019917Y011530D01*
X019904Y011429D01*
X019917Y011328D01*
X019956Y011233D01*
X020019Y011152D01*
X020100Y011090D01*
X020191Y011052D01*
Y010852D01*
X020183Y010851D01*
X020078Y010807D01*
X019987Y010738D01*
X019918Y010647D01*
X019874Y010542D01*
X019859Y010429D01*
X019874Y010316D01*
X019918Y010211D01*
X019987Y010120D01*
X020078Y010051D01*
X020183Y010007D01*
X020296Y009992D01*
X020409Y010007D01*
X020449Y010024D01*
X020816Y009656D01*
X020816Y009656D01*
X020850Y009634D01*
X020890Y009626D01*
X021620D01*
X021620Y009626D01*
X021660Y009634D01*
X021694Y009656D01*
X021757Y009720D01*
X021772Y009717D01*
X021835Y009730D01*
X021888Y009766D01*
X021924Y009819D01*
X021936Y009882D01*
X021924Y009945D01*
X021888Y009998D01*
X021835Y010034D01*
X021772Y010046D01*
X021709Y010034D01*
X021655Y009998D01*
X021620Y009945D01*
X021607Y009882D01*
X021610Y009868D01*
X021577Y009834D01*
X020933D01*
X020623Y010144D01*
X020674Y010211D01*
X020718Y010316D01*
X020733Y010429D01*
X020718Y010542D01*
X020674Y010647D01*
X020605Y010738D01*
X020514Y010807D01*
X020409Y010851D01*
X020400Y010852D01*
Y011052D01*
X020491Y011090D01*
X020572Y011152D01*
X020634Y011233D01*
X020673Y011328D01*
X020687Y011429D01*
X020673Y011530D01*
X020634Y011625D01*
X020572Y011706D01*
X020551Y011722D01*
X020568Y011772D01*
X020620D01*
X020744Y011648D01*
Y010996D01*
X020744Y010996D01*
X020752Y010956D01*
X020774Y010922D01*
X020975Y010722D01*
X020918Y010647D01*
X020874Y010542D01*
X020859Y010429D01*
X020874Y010316D01*
X020918Y010211D01*
X020987Y010120D01*
X021078Y010051D01*
X021183Y010007D01*
X021296Y009992D01*
X021409Y010007D01*
X021514Y010051D01*
X021605Y010120D01*
X021674Y010211D01*
X021718Y010316D01*
X021733Y010429D01*
X021718Y010542D01*
X021674Y010647D01*
X021605Y010738D01*
X021514Y010807D01*
X021409Y010851D01*
X021296Y010866D01*
X021183Y010851D01*
X021153Y010839D01*
X020953Y011039D01*
Y011156D01*
X021003Y011173D01*
X021019Y011152D01*
X021100Y011090D01*
X021194Y011051D01*
X021295Y011038D01*
X021397Y011051D01*
X021491Y011090D01*
X021572Y011152D01*
X021634Y011233D01*
X021673Y011328D01*
X021674Y011332D01*
X021724Y011328D01*
Y011244D01*
X021733Y011196D01*
X021760Y011156D01*
X022022Y010894D01*
X022062Y010867D01*
X022082Y010863D01*
X022087Y010811D01*
X022078Y010807D01*
X021987Y010738D01*
X021918Y010647D01*
X021874Y010542D01*
X021859Y010429D01*
X021874Y010316D01*
X021918Y010211D01*
X021987Y010120D01*
X022078Y010051D01*
X022183Y010007D01*
X022296Y009992D01*
X022409Y010007D01*
X022514Y010051D01*
X022521Y010056D01*
X022691Y009887D01*
Y009691D01*
X022679Y009683D01*
X022643Y009630D01*
X022631Y009567D01*
X022643Y009504D01*
X022679Y009451D01*
X022732Y009415D01*
X022795Y009402D01*
X022858Y009415D01*
X022912Y009451D01*
X022947Y009504D01*
X022960Y009567D01*
X022947Y009630D01*
X022912Y009683D01*
X022900Y009691D01*
Y009930D01*
X022900Y009930D01*
X022892Y009970D01*
X022869Y010004D01*
X022869Y010004D01*
X022669Y010204D01*
X022674Y010211D01*
X022718Y010316D01*
X022733Y010429D01*
X022718Y010542D01*
X022674Y010647D01*
X022605Y010738D01*
X022514Y010807D01*
X022420Y010846D01*
Y010982D01*
X022411Y011030D01*
X022444Y011071D01*
X022491Y011090D01*
X022572Y011152D01*
X022634Y011233D01*
X022673Y011328D01*
X022687Y011429D01*
X022673Y011530D01*
X022634Y011625D01*
X022572Y011706D01*
X022491Y011768D01*
X022397Y011807D01*
X022295Y011820D01*
X022194Y011807D01*
X022100Y011768D01*
X022023Y011709D01*
X021991Y011715D01*
X021973Y011721D01*
Y011876D01*
X021963Y011924D01*
X021936Y011964D01*
X021644Y012257D01*
X021673Y012328D01*
X021687Y012429D01*
X021673Y012530D01*
X021634Y012625D01*
X021572Y012706D01*
X021491Y012768D01*
X021397Y012807D01*
X021295Y012820D01*
D02*
G37*
G36*
X013295D02*
X013194Y012807D01*
X013100Y012768D01*
X013019Y012706D01*
X012956Y012625D01*
X012917Y012530D01*
X012904Y012429D01*
X012917Y012328D01*
X012956Y012233D01*
X013019Y012152D01*
X013100Y012090D01*
X013194Y012051D01*
X013295Y012038D01*
X013397Y012051D01*
X013491Y012090D01*
X013572Y012152D01*
X013634Y012233D01*
X013673Y012328D01*
X013687Y012429D01*
X013673Y012530D01*
X013634Y012625D01*
X013572Y012706D01*
X013491Y012768D01*
X013397Y012807D01*
X013295Y012820D01*
D02*
G37*
G36*
X012295D02*
X012194Y012807D01*
X012100Y012768D01*
X012019Y012706D01*
X011956Y012625D01*
X011917Y012530D01*
X011904Y012429D01*
X011917Y012328D01*
X011956Y012233D01*
X012019Y012152D01*
X012100Y012090D01*
X012194Y012051D01*
X012295Y012038D01*
X012397Y012051D01*
X012491Y012090D01*
X012572Y012152D01*
X012634Y012233D01*
X012673Y012328D01*
X012687Y012429D01*
X012673Y012530D01*
X012634Y012625D01*
X012572Y012706D01*
X012491Y012768D01*
X012397Y012807D01*
X012295Y012820D01*
D02*
G37*
G36*
X011295D02*
X011194Y012807D01*
X011100Y012768D01*
X011019Y012706D01*
X010956Y012625D01*
X010917Y012530D01*
X010904Y012429D01*
X010917Y012328D01*
X010956Y012233D01*
X011019Y012152D01*
X011100Y012090D01*
X011194Y012051D01*
X011295Y012038D01*
X011397Y012051D01*
X011491Y012090D01*
X011572Y012152D01*
X011634Y012233D01*
X011673Y012328D01*
X011687Y012429D01*
X011673Y012530D01*
X011634Y012625D01*
X011572Y012706D01*
X011491Y012768D01*
X011397Y012807D01*
X011295Y012820D01*
D02*
G37*
G36*
X010295D02*
X010194Y012807D01*
X010100Y012768D01*
X010019Y012706D01*
X009956Y012625D01*
X009917Y012530D01*
X009904Y012429D01*
X009917Y012328D01*
X009956Y012233D01*
X010019Y012152D01*
X010100Y012090D01*
X010194Y012051D01*
X010295Y012038D01*
X010397Y012051D01*
X010491Y012090D01*
X010572Y012152D01*
X010634Y012233D01*
X010673Y012328D01*
X010687Y012429D01*
X010673Y012530D01*
X010634Y012625D01*
X010572Y012706D01*
X010491Y012768D01*
X010397Y012807D01*
X010295Y012820D01*
D02*
G37*
G36*
X009295D02*
X009194Y012807D01*
X009100Y012768D01*
X009019Y012706D01*
X008956Y012625D01*
X008917Y012530D01*
X008904Y012429D01*
X008917Y012328D01*
X008956Y012233D01*
X009019Y012152D01*
X009100Y012090D01*
X009194Y012051D01*
X009295Y012038D01*
X009397Y012051D01*
X009491Y012090D01*
X009572Y012152D01*
X009634Y012233D01*
X009673Y012328D01*
X009687Y012429D01*
X009673Y012530D01*
X009634Y012625D01*
X009572Y012706D01*
X009491Y012768D01*
X009397Y012807D01*
X009295Y012820D01*
D02*
G37*
G36*
X007295D02*
X007194Y012807D01*
X007100Y012768D01*
X007019Y012706D01*
X006956Y012625D01*
X006917Y012530D01*
X006904Y012429D01*
X006917Y012328D01*
X006956Y012233D01*
X007019Y012152D01*
X007100Y012090D01*
X007194Y012051D01*
X007295Y012038D01*
X007397Y012051D01*
X007491Y012090D01*
X007572Y012152D01*
X007634Y012233D01*
X007673Y012328D01*
X007687Y012429D01*
X007673Y012530D01*
X007634Y012625D01*
X007572Y012706D01*
X007491Y012768D01*
X007397Y012807D01*
X007295Y012820D01*
D02*
G37*
G36*
X007845Y012121D02*
Y011979D01*
X007988D01*
X007982Y012007D01*
X007938Y012072D01*
X007873Y012116D01*
X007845Y012121D01*
D02*
G37*
G36*
X007745D02*
X007718Y012116D01*
X007652Y012072D01*
X007608Y012007D01*
X007603Y011979D01*
X007745D01*
Y012121D01*
D02*
G37*
G36*
X007988Y011879D02*
X007845D01*
Y011737D01*
X007873Y011742D01*
X007938Y011786D01*
X007982Y011852D01*
X007988Y011879D01*
D02*
G37*
G36*
X007745D02*
X007603D01*
X007608Y011852D01*
X007652Y011786D01*
X007718Y011742D01*
X007745Y011737D01*
Y011879D01*
D02*
G37*
G36*
X024409Y012418D02*
X024291Y012407D01*
X024177Y012372D01*
X024072Y012316D01*
X023980Y012240D01*
X023905Y012148D01*
X023848Y012043D01*
X023814Y011929D01*
X023802Y011811D01*
X023814Y011693D01*
X023848Y011579D01*
X023905Y011474D01*
X023980Y011382D01*
X024072Y011306D01*
X024177Y011250D01*
X024291Y011215D01*
X024409Y011204D01*
X024528Y011215D01*
X024642Y011250D01*
X024747Y011306D01*
X024839Y011382D01*
X024914Y011474D01*
X024970Y011579D01*
X025005Y011693D01*
X025017Y011811D01*
X025005Y011929D01*
X024970Y012043D01*
X024914Y012148D01*
X024839Y012240D01*
X024747Y012316D01*
X024642Y012372D01*
X024528Y012407D01*
X024409Y012418D01*
D02*
G37*
G36*
X007295Y011820D02*
X007194Y011807D01*
X007100Y011768D01*
X007019Y011706D01*
X006956Y011625D01*
X006917Y011530D01*
X006904Y011429D01*
X006917Y011328D01*
X006956Y011233D01*
X007019Y011152D01*
X007100Y011090D01*
X007194Y011051D01*
X007295Y011038D01*
X007397Y011051D01*
X007491Y011090D01*
X007572Y011152D01*
X007634Y011233D01*
X007673Y011328D01*
X007687Y011429D01*
X007673Y011530D01*
X007634Y011625D01*
X007572Y011706D01*
X007491Y011768D01*
X007397Y011807D01*
X007295Y011820D01*
D02*
G37*
G36*
X018859Y011137D02*
Y010995D01*
X019001D01*
X018996Y011022D01*
X018952Y011088D01*
X018886Y011132D01*
X018859Y011137D01*
D02*
G37*
G36*
X018759D02*
X018732Y011132D01*
X018666Y011088D01*
X018622Y011022D01*
X018617Y010995D01*
X018759D01*
Y011137D01*
D02*
G37*
G36*
X019001Y010895D02*
X018859D01*
Y010753D01*
X018886Y010758D01*
X018952Y010802D01*
X018996Y010867D01*
X019001Y010895D01*
D02*
G37*
G36*
X018759D02*
X018617D01*
X018622Y010867D01*
X018666Y010802D01*
X018732Y010758D01*
X018759Y010753D01*
Y010895D01*
D02*
G37*
G36*
X023908Y009602D02*
Y009459D01*
X024051D01*
X024045Y009487D01*
X024001Y009553D01*
X023936Y009596D01*
X023908Y009602D01*
D02*
G37*
G36*
X023808D02*
X023781Y009596D01*
X023715Y009553D01*
X023671Y009487D01*
X023666Y009459D01*
X023808D01*
Y009602D01*
D02*
G37*
G36*
X018920Y009502D02*
Y009360D01*
X019062D01*
X019057Y009387D01*
X019013Y009453D01*
X018947Y009497D01*
X018920Y009502D01*
D02*
G37*
G36*
X024051Y009359D02*
X023908D01*
Y009217D01*
X023936Y009223D01*
X024001Y009266D01*
X024045Y009332D01*
X024051Y009359D01*
D02*
G37*
G36*
X023808D02*
X023666D01*
X023671Y009332D01*
X023715Y009266D01*
X023781Y009223D01*
X023808Y009217D01*
Y009359D01*
D02*
G37*
G36*
X019062Y009260D02*
X018920D01*
Y009118D01*
X018947Y009123D01*
X019013Y009167D01*
X019057Y009233D01*
X019062Y009260D01*
D02*
G37*
G36*
X022147Y009313D02*
X021822D01*
Y008948D01*
X022147D01*
Y009313D01*
D02*
G37*
G36*
X021722D02*
X021396D01*
Y008862D01*
X021346Y008848D01*
X021287Y008887D01*
X021260Y008892D01*
Y008700D01*
Y008508D01*
X021287Y008513D01*
X021346Y008552D01*
X021396Y008538D01*
X021396Y008483D01*
X021363Y008446D01*
X021081D01*
Y008200D01*
X021714D01*
Y008433D01*
X021714Y008446D01*
X021722Y008455D01*
Y008898D01*
Y009313D01*
D02*
G37*
G36*
X019801Y009107D02*
X019203D01*
Y008765D01*
X019801D01*
Y009107D01*
D02*
G37*
G36*
X019449Y010708D02*
X019380Y010699D01*
X019316Y010673D01*
X019261Y010630D01*
X019219Y010576D01*
X019193Y010512D01*
X019184Y010443D01*
X019193Y010374D01*
X019219Y010310D01*
X019261Y010255D01*
X019316Y010213D01*
X019344Y010201D01*
Y009855D01*
X019203D01*
Y009513D01*
X019801D01*
Y009580D01*
X020312D01*
X020565Y009327D01*
Y009276D01*
X020331D01*
Y008520D01*
X020624D01*
Y008409D01*
X020449D01*
Y008283D01*
X020399Y008269D01*
X020363Y008323D01*
X020297Y008367D01*
X020270Y008372D01*
Y008180D01*
Y007988D01*
X020297Y007993D01*
X020363Y008037D01*
X020399Y008091D01*
X020449Y008077D01*
Y007890D01*
X020624D01*
Y007831D01*
X020620Y007824D01*
X020607Y007761D01*
X020620Y007698D01*
X020655Y007645D01*
X020709Y007609D01*
X020772Y007597D01*
X020835Y007609D01*
X020888Y007645D01*
X020924Y007698D01*
X020936Y007761D01*
X020924Y007824D01*
X020913Y007840D01*
X020940Y007890D01*
X021008D01*
Y008409D01*
X020833D01*
Y008520D01*
X021008D01*
Y008555D01*
X021058Y008571D01*
X021067Y008557D01*
X021133Y008513D01*
X021160Y008508D01*
Y008700D01*
Y008892D01*
X021133Y008887D01*
X021067Y008843D01*
X021058Y008829D01*
X021008Y008845D01*
Y009276D01*
X020774D01*
Y009370D01*
X020774Y009370D01*
X020766Y009410D01*
X020743Y009444D01*
X020743Y009444D01*
X020429Y009758D01*
X020395Y009781D01*
X020355Y009789D01*
X020355Y009789D01*
X019801D01*
Y009855D01*
X019553D01*
Y010201D01*
X019581Y010213D01*
X019636Y010255D01*
X019679Y010310D01*
X019705Y010374D01*
X019714Y010443D01*
X019705Y010512D01*
X019679Y010576D01*
X019636Y010630D01*
X019581Y010673D01*
X019517Y010699D01*
X019449Y010708D01*
D02*
G37*
G36*
X022147Y008848D02*
X021822D01*
Y008483D01*
X022147D01*
Y008848D01*
D02*
G37*
G36*
X018711Y008086D02*
Y007944D01*
X018854D01*
X018848Y007971D01*
X018804Y008037D01*
X018739Y008081D01*
X018711Y008086D01*
D02*
G37*
G36*
X018611D02*
X018584Y008081D01*
X018518Y008037D01*
X018475Y007971D01*
X018469Y007944D01*
X018611D01*
Y008086D01*
D02*
G37*
G36*
X018854Y007844D02*
X018711D01*
Y007701D01*
X018739Y007707D01*
X018804Y007751D01*
X018848Y007816D01*
X018854Y007844D01*
D02*
G37*
G36*
X018611D02*
X018469D01*
X018475Y007816D01*
X018518Y007751D01*
X018584Y007707D01*
X018611Y007701D01*
Y007844D01*
D02*
G37*
G36*
X018711Y007496D02*
Y007353D01*
X018854D01*
X018848Y007381D01*
X018804Y007446D01*
X018739Y007490D01*
X018711Y007496D01*
D02*
G37*
G36*
X018611D02*
X018584Y007490D01*
X018518Y007446D01*
X018475Y007381D01*
X018469Y007353D01*
X018611D01*
Y007496D01*
D02*
G37*
G36*
X018854Y007253D02*
X018711D01*
Y007111D01*
X018739Y007116D01*
X018804Y007160D01*
X018848Y007226D01*
X018854Y007253D01*
D02*
G37*
G36*
X018611D02*
X018469D01*
X018475Y007226D01*
X018518Y007160D01*
X018584Y007116D01*
X018611Y007111D01*
Y007253D01*
D02*
G37*
G36*
X018711Y006905D02*
Y006763D01*
X018854D01*
X018848Y006790D01*
X018804Y006856D01*
X018739Y006900D01*
X018711Y006905D01*
D02*
G37*
G36*
X018611D02*
X018584Y006900D01*
X018518Y006856D01*
X018475Y006790D01*
X018469Y006763D01*
X018611D01*
Y006905D01*
D02*
G37*
G36*
X018854Y006663D02*
X018711D01*
Y006520D01*
X018739Y006526D01*
X018804Y006570D01*
X018848Y006635D01*
X018854Y006663D01*
D02*
G37*
G36*
X018611D02*
X018469D01*
X018475Y006635D01*
X018518Y006570D01*
X018584Y006526D01*
X018611Y006520D01*
Y006663D01*
D02*
G37*
G36*
X018702Y006314D02*
Y006172D01*
X018844D01*
X018838Y006199D01*
X018795Y006265D01*
X018729Y006309D01*
X018702Y006314D01*
D02*
G37*
G36*
X018602D02*
X018574Y006309D01*
X018509Y006265D01*
X018465Y006199D01*
X018459Y006172D01*
X018602D01*
Y006314D01*
D02*
G37*
G36*
X018111D02*
Y006172D01*
X018253D01*
X018248Y006199D01*
X018204Y006265D01*
X018138Y006309D01*
X018111Y006314D01*
D02*
G37*
G36*
X018011D02*
X017984Y006309D01*
X017918Y006265D01*
X017874Y006199D01*
X017869Y006172D01*
X018011D01*
Y006314D01*
D02*
G37*
G36*
X018844Y006072D02*
X018702D01*
Y005930D01*
X018729Y005935D01*
X018795Y005979D01*
X018838Y006045D01*
X018844Y006072D01*
D02*
G37*
G36*
X018602D02*
X018459D01*
X018465Y006045D01*
X018509Y005979D01*
X018574Y005935D01*
X018602Y005930D01*
Y006072D01*
D02*
G37*
G36*
X018253D02*
X018111D01*
Y005930D01*
X018138Y005935D01*
X018204Y005979D01*
X018248Y006045D01*
X018253Y006072D01*
D02*
G37*
G36*
X018011D02*
X017869D01*
X017874Y006045D01*
X017918Y005979D01*
X017984Y005935D01*
X018011Y005930D01*
Y006072D01*
D02*
G37*
G36*
X018711Y005724D02*
Y005581D01*
X018854D01*
X018848Y005609D01*
X018804Y005675D01*
X018739Y005718D01*
X018711Y005724D01*
D02*
G37*
G36*
X018611D02*
X018584Y005718D01*
X018518Y005675D01*
X018475Y005609D01*
X018469Y005581D01*
X018611D01*
Y005724D01*
D02*
G37*
G36*
X018121D02*
Y005581D01*
X018263D01*
X018258Y005609D01*
X018214Y005675D01*
X018148Y005718D01*
X018121Y005724D01*
D02*
G37*
G36*
X018021D02*
X017993Y005718D01*
X017928Y005675D01*
X017884Y005609D01*
X017879Y005581D01*
X018021D01*
Y005724D01*
D02*
G37*
G36*
X018854Y005482D02*
X018711D01*
Y005339D01*
X018739Y005345D01*
X018804Y005388D01*
X018848Y005454D01*
X018854Y005482D01*
D02*
G37*
G36*
X018611D02*
X018469D01*
X018475Y005454D01*
X018518Y005388D01*
X018584Y005345D01*
X018611Y005339D01*
Y005482D01*
D02*
G37*
G36*
X018263D02*
X018121D01*
Y005339D01*
X018148Y005345D01*
X018214Y005388D01*
X018258Y005454D01*
X018263Y005482D01*
D02*
G37*
G36*
X018021D02*
X017879D01*
X017884Y005454D01*
X017928Y005388D01*
X017993Y005345D01*
X018021Y005339D01*
Y005482D01*
D02*
G37*
G36*
X005345Y012851D02*
Y012479D01*
X005717D01*
X005709Y012540D01*
X005667Y012643D01*
X005598Y012732D01*
X005510Y012800D01*
X005406Y012843D01*
X005345Y012851D01*
D02*
G37*
G36*
X005245Y012851D02*
X005184Y012843D01*
X005081Y012800D01*
X004992Y012732D01*
X004924Y012643D01*
X004881Y012540D01*
X004873Y012479D01*
X005245D01*
Y012851D01*
D02*
G37*
G36*
X004295Y012820D02*
X004194Y012807D01*
X004100Y012768D01*
X004019Y012706D01*
X003956Y012625D01*
X003917Y012530D01*
X003904Y012429D01*
X003917Y012328D01*
X003956Y012233D01*
X004019Y012152D01*
X004100Y012090D01*
X004194Y012051D01*
X004295Y012038D01*
X004397Y012051D01*
X004491Y012090D01*
X004572Y012152D01*
X004634Y012233D01*
X004673Y012328D01*
X004687Y012429D01*
X004673Y012530D01*
X004634Y012625D01*
X004572Y012706D01*
X004491Y012768D01*
X004397Y012807D01*
X004295Y012820D01*
D02*
G37*
G36*
X003295D02*
X003194Y012807D01*
X003100Y012768D01*
X003019Y012706D01*
X002956Y012625D01*
X002917Y012530D01*
X002904Y012429D01*
X002917Y012328D01*
X002955Y012237D01*
X002377Y011658D01*
X002107D01*
X002094Y011703D01*
Y011958D01*
X002163Y012027D01*
X002171Y012024D01*
X002240Y012015D01*
X002309Y012024D01*
X002373Y012050D01*
X002428Y012092D01*
X002470Y012147D01*
X002496Y012211D01*
X002505Y012280D01*
X002496Y012349D01*
X002470Y012413D01*
X002428Y012468D01*
X002373Y012510D01*
X002309Y012536D01*
X002240Y012545D01*
X002171Y012536D01*
X002107Y012510D01*
X002052Y012468D01*
X002010Y012413D01*
X001984Y012349D01*
X001975Y012280D01*
X001984Y012211D01*
X001987Y012203D01*
X001882Y012098D01*
X001855Y012058D01*
X001846Y012010D01*
Y011140D01*
X001855Y011092D01*
X001882Y011052D01*
X001952Y010982D01*
X001925Y010940D01*
X001874Y010950D01*
X001194D01*
X001130Y010937D01*
X001075Y010900D01*
X001038Y010845D01*
X001025Y010781D01*
Y010160D01*
X001038Y010096D01*
X001075Y010041D01*
X001130Y010004D01*
X001194Y009991D01*
X001874D01*
X001938Y010004D01*
X001994Y010041D01*
X002030Y010096D01*
X002043Y010160D01*
Y010781D01*
X002030Y010845D01*
X001994Y010900D01*
X001986Y010905D01*
X002006Y010952D01*
X002040Y010946D01*
X002107D01*
Y010882D01*
X002337D01*
Y010673D01*
X002170Y010507D01*
X002148Y010473D01*
X002140Y010433D01*
X002140Y010433D01*
Y009925D01*
X002083Y009868D01*
X002025D01*
X002017Y009880D01*
X001989Y009899D01*
X001957Y009905D01*
X001209D01*
X001177Y009899D01*
X001150Y009880D01*
X001131Y009853D01*
X001125Y009821D01*
Y009703D01*
X001131Y009671D01*
X001146Y009634D01*
X001131Y009597D01*
X001125Y009565D01*
Y009447D01*
X001131Y009415D01*
X001146Y009378D01*
X001131Y009341D01*
X001125Y009309D01*
Y009191D01*
X001131Y009159D01*
X001146Y009122D01*
X001131Y009085D01*
X001125Y009053D01*
Y008935D01*
X001131Y008903D01*
X001138Y008893D01*
X001123Y008884D01*
X001096Y008844D01*
X001087Y008797D01*
Y008788D01*
X001583D01*
X002079D01*
Y008797D01*
X002070Y008844D01*
X002044Y008884D01*
X002029Y008893D01*
X002035Y008903D01*
X002042Y008935D01*
Y009053D01*
X002035Y009085D01*
X002021Y009122D01*
X002035Y009159D01*
X002042Y009191D01*
Y009309D01*
X002035Y009341D01*
X002021Y009378D01*
X002035Y009415D01*
X002042Y009447D01*
Y009565D01*
X002035Y009597D01*
X002028Y009614D01*
X002047Y009657D01*
X002049Y009659D01*
X002126D01*
X002126Y009659D01*
X002166Y009667D01*
X002200Y009690D01*
X002318Y009808D01*
X002318Y009808D01*
X002341Y009842D01*
X002349Y009882D01*
X002349Y009882D01*
Y010390D01*
X002446Y010487D01*
X002496Y010467D01*
Y010409D01*
X003094D01*
Y010526D01*
X003205D01*
Y010331D01*
X003724D01*
Y010890D01*
X003205D01*
Y010734D01*
X003094D01*
Y010850D01*
X002770D01*
X002733Y010882D01*
Y011258D01*
X002733D01*
Y011282D01*
X002733D01*
Y011658D01*
X002733D01*
X002715Y011701D01*
X003103Y012089D01*
X003194Y012051D01*
X003295Y012038D01*
X003397Y012051D01*
X003491Y012090D01*
X003572Y012152D01*
X003634Y012233D01*
X003673Y012328D01*
X003687Y012429D01*
X003673Y012530D01*
X003634Y012625D01*
X003572Y012706D01*
X003491Y012768D01*
X003397Y012807D01*
X003295Y012820D01*
D02*
G37*
G36*
X005245Y012379D02*
X004873D01*
X004881Y012318D01*
X004924Y012215D01*
X004992Y012126D01*
X005081Y012058D01*
X005184Y012015D01*
X005245Y012007D01*
Y012379D01*
D02*
G37*
G36*
X005717D02*
X005345D01*
Y012007D01*
X005406Y012015D01*
X005510Y012058D01*
X005598Y012126D01*
X005667Y012215D01*
X005709Y012318D01*
X005717Y012379D01*
D02*
G37*
G36*
X001181Y012418D02*
X001063Y012407D01*
X000949Y012372D01*
X000844Y012316D01*
X000752Y012240D01*
X000676Y012148D01*
X000620Y012043D01*
X000586Y011929D01*
X000574Y011811D01*
X000586Y011693D01*
X000620Y011579D01*
X000676Y011474D01*
X000752Y011382D01*
X000844Y011306D01*
X000949Y011250D01*
X001063Y011215D01*
X001181Y011204D01*
X001300Y011215D01*
X001413Y011250D01*
X001518Y011306D01*
X001610Y011382D01*
X001686Y011474D01*
X001742Y011579D01*
X001777Y011693D01*
X001788Y011811D01*
X001777Y011929D01*
X001742Y012043D01*
X001686Y012148D01*
X001610Y012240D01*
X001518Y012316D01*
X001413Y012372D01*
X001300Y012407D01*
X001181Y012418D01*
D02*
G37*
G36*
X005295Y011820D02*
X005194Y011807D01*
X005100Y011768D01*
X005019Y011706D01*
X004956Y011625D01*
X004917Y011530D01*
X004904Y011429D01*
X004917Y011328D01*
X004956Y011233D01*
X005019Y011152D01*
X005100Y011090D01*
X005194Y011051D01*
X005295Y011038D01*
X005397Y011051D01*
X005491Y011090D01*
X005572Y011152D01*
X005634Y011233D01*
X005673Y011328D01*
X005687Y011429D01*
X005673Y011530D01*
X005634Y011625D01*
X005572Y011706D01*
X005491Y011768D01*
X005397Y011807D01*
X005295Y011820D01*
D02*
G37*
G36*
X004295D02*
X004194Y011807D01*
X004100Y011768D01*
X004019Y011706D01*
X003956Y011625D01*
X003917Y011530D01*
X003904Y011429D01*
X003917Y011328D01*
X003956Y011233D01*
X004019Y011152D01*
X004100Y011090D01*
X004194Y011051D01*
X004295Y011038D01*
X004397Y011051D01*
X004491Y011090D01*
X004572Y011152D01*
X004634Y011233D01*
X004673Y011328D01*
X004687Y011429D01*
X004673Y011530D01*
X004634Y011625D01*
X004572Y011706D01*
X004491Y011768D01*
X004397Y011807D01*
X004295Y011820D01*
D02*
G37*
G36*
X003295D02*
X003194Y011807D01*
X003100Y011768D01*
X003019Y011706D01*
X002956Y011625D01*
X002917Y011530D01*
X002904Y011429D01*
X002917Y011328D01*
X002956Y011233D01*
X003019Y011152D01*
X003100Y011090D01*
X003194Y011051D01*
X003295Y011038D01*
X003397Y011051D01*
X003491Y011090D01*
X003572Y011152D01*
X003634Y011233D01*
X003673Y011328D01*
X003687Y011429D01*
X003673Y011530D01*
X003634Y011625D01*
X003572Y011706D01*
X003491Y011768D01*
X003397Y011807D01*
X003295Y011820D01*
D02*
G37*
G36*
X003415Y010258D02*
X003168D01*
Y009991D01*
X003415D01*
Y010258D01*
D02*
G37*
G36*
X002228Y008032D02*
Y007890D01*
X002370D01*
X002365Y007917D01*
X002321Y007983D01*
X002255Y008027D01*
X002228Y008032D01*
D02*
G37*
G36*
X002370Y007790D02*
X002228D01*
Y007648D01*
X002255Y007653D01*
X002321Y007697D01*
X002365Y007763D01*
X002370Y007790D01*
D02*
G37*
G36*
X002079Y008688D02*
X001583D01*
X001087D01*
Y008679D01*
X001096Y008632D01*
X001123Y008593D01*
X001163Y008566D01*
X001199Y008559D01*
X001194Y008509D01*
X001130Y008496D01*
X001075Y008459D01*
X001038Y008404D01*
X001025Y008340D01*
Y007719D01*
X001038Y007655D01*
X001075Y007600D01*
X001130Y007563D01*
X001194Y007550D01*
X001874D01*
X001938Y007563D01*
X001994Y007600D01*
X002030Y007655D01*
X002072Y007672D01*
X002100Y007653D01*
X002128Y007648D01*
Y007840D01*
Y008032D01*
X002100Y008027D01*
X002087Y008018D01*
X002043Y008042D01*
Y008340D01*
X002030Y008404D01*
X001994Y008459D01*
X001938Y008496D01*
X001884Y008507D01*
X001889Y008557D01*
X001957D01*
X002004Y008566D01*
X002044Y008593D01*
X002070Y008632D01*
X002079Y008679D01*
Y008688D01*
D02*
G37*
G36*
X005390Y010532D02*
Y010390D01*
X005532D01*
X005527Y010417D01*
X005483Y010483D01*
X005417Y010527D01*
X005390Y010532D01*
D02*
G37*
G36*
X005290D02*
X005263Y010527D01*
X005197Y010483D01*
X005153Y010417D01*
X005148Y010390D01*
X005290D01*
Y010532D01*
D02*
G37*
G36*
X005532Y010290D02*
X005390D01*
Y010148D01*
X005417Y010153D01*
X005483Y010197D01*
X005527Y010263D01*
X005532Y010290D01*
D02*
G37*
G36*
X005290D02*
X005148D01*
X005153Y010263D01*
X005197Y010197D01*
X005263Y010153D01*
X005290Y010148D01*
Y010290D01*
D02*
G37*
G36*
X011412Y010216D02*
Y009934D01*
X011694D01*
X011689Y009971D01*
X011655Y010053D01*
X011602Y010123D01*
X011531Y010177D01*
X011450Y010211D01*
X011412Y010216D01*
D02*
G37*
G36*
X011312Y010216D02*
X011274Y010211D01*
X011192Y010177D01*
X011122Y010123D01*
X011068Y010053D01*
X011034Y009971D01*
X011029Y009934D01*
X011312D01*
Y010216D01*
D02*
G37*
G36*
X008682Y010054D02*
X008162D01*
Y009814D01*
X007866D01*
Y009870D01*
X006874D01*
Y009350D01*
X007866D01*
Y009606D01*
X008162D01*
Y009495D01*
X008682D01*
Y010054D01*
D02*
G37*
G36*
X017371Y009940D02*
X017229D01*
X017234Y009913D01*
X017278Y009847D01*
X017344Y009803D01*
X017371Y009798D01*
Y009940D01*
D02*
G37*
G36*
X009689Y010185D02*
X009610Y010175D01*
X009538Y010145D01*
X009475Y010097D01*
X009427Y010034D01*
X009397Y009962D01*
X009387Y009884D01*
X009397Y009805D01*
X009427Y009733D01*
X009475Y009670D01*
X009538Y009622D01*
X009610Y009592D01*
X009689Y009582D01*
X009767Y009592D01*
X009839Y009622D01*
X009902Y009670D01*
X009950Y009733D01*
X009980Y009805D01*
X009990Y009884D01*
X009980Y009962D01*
X009950Y010034D01*
X009902Y010097D01*
X009839Y010145D01*
X009767Y010175D01*
X009689Y010185D01*
D02*
G37*
G36*
X011694Y009834D02*
X011412D01*
Y009551D01*
X011450Y009556D01*
X011531Y009590D01*
X011602Y009644D01*
X011655Y009714D01*
X011689Y009796D01*
X011694Y009834D01*
D02*
G37*
G36*
X011312D02*
X011029D01*
X011034Y009796D01*
X011068Y009714D01*
X011122Y009644D01*
X011192Y009590D01*
X011274Y009556D01*
X011312Y009551D01*
Y009834D01*
D02*
G37*
G36*
X006870Y009292D02*
Y009150D01*
X007012D01*
X007007Y009177D01*
X006963Y009243D01*
X006897Y009287D01*
X006870Y009292D01*
D02*
G37*
G36*
X006770D02*
X006743Y009287D01*
X006677Y009243D01*
X006633Y009177D01*
X006628Y009150D01*
X006770D01*
Y009292D01*
D02*
G37*
G36*
X006666Y009870D02*
X005674D01*
Y009350D01*
X006106D01*
Y009274D01*
X006094Y009266D01*
X006058Y009213D01*
X006045Y009150D01*
X006058Y009087D01*
X006094Y009034D01*
X006147Y008998D01*
X006210Y008985D01*
X006273Y008998D01*
X006326Y009034D01*
X006362Y009087D01*
X006375Y009150D01*
X006362Y009213D01*
X006326Y009266D01*
X006314Y009274D01*
Y009350D01*
X006666D01*
Y009870D01*
D02*
G37*
G36*
X007012Y009050D02*
X006870D01*
Y008908D01*
X006897Y008913D01*
X006963Y008957D01*
X007007Y009023D01*
X007012Y009050D01*
D02*
G37*
G36*
X006770D02*
X006628D01*
X006633Y009023D01*
X006677Y008957D01*
X006743Y008913D01*
X006770Y008908D01*
Y009050D01*
D02*
G37*
G36*
X015790Y009097D02*
X015707Y009081D01*
X015636Y009034D01*
X015589Y008963D01*
X015573Y008880D01*
X015589Y008797D01*
X015636Y008726D01*
X015707Y008679D01*
X015790Y008663D01*
X015873Y008679D01*
X015944Y008726D01*
X015991Y008797D01*
X016007Y008880D01*
X015991Y008963D01*
X015944Y009034D01*
X015873Y009081D01*
X015790Y009097D01*
D02*
G37*
G36*
X011428Y008618D02*
Y008475D01*
X011570D01*
X011565Y008503D01*
X011521Y008568D01*
X011455Y008612D01*
X011428Y008618D01*
D02*
G37*
G36*
X011328D02*
X011301Y008612D01*
X011235Y008568D01*
X011191Y008503D01*
X011186Y008475D01*
X011328D01*
Y008618D01*
D02*
G37*
G36*
X011570Y008375D02*
X011428D01*
Y008233D01*
X011455Y008238D01*
X011521Y008282D01*
X011565Y008348D01*
X011570Y008375D01*
D02*
G37*
G36*
X011328D02*
X011186D01*
X011191Y008348D01*
X011235Y008282D01*
X011301Y008238D01*
X011328Y008233D01*
Y008375D01*
D02*
G37*
G36*
X004174Y008360D02*
Y008218D01*
X004316D01*
X004311Y008245D01*
X004267Y008311D01*
X004201Y008355D01*
X004174Y008360D01*
D02*
G37*
G36*
X004074D02*
X004046Y008355D01*
X003981Y008311D01*
X003937Y008245D01*
X003931Y008218D01*
X004074D01*
Y008360D01*
D02*
G37*
G36*
X004316Y008118D02*
X004174D01*
Y007975D01*
X004201Y007981D01*
X004267Y008025D01*
X004311Y008090D01*
X004316Y008118D01*
D02*
G37*
G36*
X008670Y008124D02*
X008150D01*
Y007962D01*
X007866D01*
Y008027D01*
X006874D01*
Y007508D01*
X007866D01*
Y007753D01*
X008150D01*
Y007565D01*
X008670D01*
Y008124D01*
D02*
G37*
G36*
X018121Y008086D02*
Y007944D01*
X018263D01*
X018258Y007971D01*
X018214Y008037D01*
X018148Y008081D01*
X018121Y008086D01*
D02*
G37*
G36*
X018021D02*
X017993Y008081D01*
X017928Y008037D01*
X017884Y007971D01*
X017879Y007944D01*
X018021D01*
Y008086D01*
D02*
G37*
G36*
X005537Y008191D02*
X005290D01*
Y007925D01*
X005537D01*
Y008191D01*
D02*
G37*
G36*
X018263Y007844D02*
X018121D01*
Y007701D01*
X018148Y007707D01*
X018214Y007751D01*
X018258Y007816D01*
X018263Y007844D01*
D02*
G37*
G36*
X018021D02*
X017879D01*
X017884Y007816D01*
X017928Y007751D01*
X017993Y007707D01*
X018021Y007701D01*
Y007844D01*
D02*
G37*
G36*
X005537Y007825D02*
X005290D01*
Y007558D01*
X005537D01*
Y007825D01*
D02*
G37*
G36*
X009656Y007594D02*
Y007452D01*
X009799D01*
X009793Y007479D01*
X009749Y007545D01*
X009684Y007588D01*
X009656Y007594D01*
D02*
G37*
G36*
X009556D02*
X009529Y007588D01*
X009463Y007545D01*
X009419Y007479D01*
X009414Y007452D01*
X009556D01*
Y007594D01*
D02*
G37*
G36*
X018121Y007496D02*
Y007353D01*
X018263D01*
X018258Y007381D01*
X018214Y007446D01*
X018148Y007490D01*
X018121Y007496D01*
D02*
G37*
G36*
X018021D02*
X017993Y007490D01*
X017928Y007446D01*
X017884Y007381D01*
X017879Y007353D01*
X018021D01*
Y007496D01*
D02*
G37*
G36*
X005500Y007485D02*
X004980D01*
Y007310D01*
X004835D01*
X004835Y007310D01*
X004795Y007302D01*
X004761Y007279D01*
X004761Y007279D01*
X004738Y007256D01*
X004415D01*
Y006914D01*
X005014D01*
Y006926D01*
X005500D01*
Y007485D01*
D02*
G37*
G36*
X009799Y007352D02*
X009656D01*
Y007209D01*
X009684Y007215D01*
X009749Y007259D01*
X009793Y007324D01*
X009799Y007352D01*
D02*
G37*
G36*
X009556D02*
X009414D01*
X009419Y007324D01*
X009463Y007259D01*
X009529Y007215D01*
X009556Y007209D01*
Y007352D01*
D02*
G37*
G36*
X018263Y007253D02*
X018121D01*
Y007111D01*
X018148Y007116D01*
X018214Y007160D01*
X018258Y007226D01*
X018263Y007253D01*
D02*
G37*
G36*
X018021D02*
X017879D01*
X017884Y007226D01*
X017928Y007160D01*
X017993Y007116D01*
X018021Y007111D01*
Y007253D01*
D02*
G37*
G36*
X001830Y007200D02*
Y007058D01*
X001972D01*
X001967Y007085D01*
X001923Y007151D01*
X001857Y007195D01*
X001830Y007200D01*
D02*
G37*
G36*
X001730D02*
X001703Y007195D01*
X001637Y007151D01*
X001593Y007085D01*
X001588Y007058D01*
X001730D01*
Y007200D01*
D02*
G37*
G36*
X017826Y007082D02*
Y006940D01*
X017968D01*
X017962Y006967D01*
X017919Y007033D01*
X017853Y007077D01*
X017826Y007082D01*
D02*
G37*
G36*
X017726D02*
X017698Y007077D01*
X017633Y007033D01*
X017589Y006967D01*
X017583Y006940D01*
X017726D01*
Y007082D01*
D02*
G37*
G36*
X001972Y006958D02*
X001830D01*
Y006816D01*
X001857Y006821D01*
X001923Y006865D01*
X001967Y006930D01*
X001972Y006958D01*
D02*
G37*
G36*
X001730D02*
X001588D01*
X001593Y006930D01*
X001637Y006865D01*
X001703Y006821D01*
X001730Y006816D01*
Y006958D01*
D02*
G37*
G36*
X017968Y006840D02*
X017826D01*
Y006697D01*
X017853Y006703D01*
X017919Y006747D01*
X017962Y006812D01*
X017968Y006840D01*
D02*
G37*
G36*
X017726D02*
X017583D01*
X017589Y006812D01*
X017633Y006747D01*
X017698Y006703D01*
X017726Y006697D01*
Y006840D01*
D02*
G37*
G36*
X005110Y006822D02*
Y006680D01*
X005252D01*
X005247Y006707D01*
X005203Y006773D01*
X005137Y006817D01*
X005110Y006822D01*
D02*
G37*
G36*
X005010D02*
X004983Y006817D01*
X004917Y006773D01*
X004873Y006707D01*
X004868Y006680D01*
X005010D01*
Y006822D01*
D02*
G37*
G36*
X006666Y008027D02*
X005674D01*
Y007508D01*
X006256D01*
Y006904D01*
X006244Y006896D01*
X006208Y006843D01*
X006195Y006780D01*
X006208Y006717D01*
X006244Y006664D01*
X006297Y006628D01*
X006360Y006615D01*
X006423Y006628D01*
X006476Y006664D01*
X006512Y006717D01*
X006525Y006780D01*
X006512Y006843D01*
X006476Y006896D01*
X006464Y006904D01*
Y007508D01*
X006666D01*
Y008027D01*
D02*
G37*
G36*
X007900Y006712D02*
Y006570D01*
X008042D01*
X008037Y006597D01*
X007993Y006663D01*
X007927Y006707D01*
X007900Y006712D01*
D02*
G37*
G36*
X007800D02*
X007773Y006707D01*
X007707Y006663D01*
X007663Y006597D01*
X007658Y006570D01*
X007800D01*
Y006712D01*
D02*
G37*
G36*
X009382Y006620D02*
X009240D01*
Y006478D01*
X009267Y006483D01*
X009333Y006527D01*
X009377Y006593D01*
X009382Y006620D01*
D02*
G37*
G36*
X009140D02*
X008998D01*
X009003Y006593D01*
X009047Y006527D01*
X009113Y006483D01*
X009140Y006478D01*
Y006620D01*
D02*
G37*
G36*
X008042Y006470D02*
X007900D01*
Y006328D01*
X007927Y006333D01*
X007993Y006377D01*
X008037Y006443D01*
X008042Y006470D01*
D02*
G37*
G36*
X007800D02*
X007658D01*
X007663Y006443D01*
X007707Y006377D01*
X007773Y006333D01*
X007800Y006328D01*
Y006470D01*
D02*
G37*
G36*
X002716Y006640D02*
X002449D01*
X002449Y006393D01*
X002403Y006384D01*
X001532D01*
Y006347D01*
X001528Y006344D01*
X001482Y006325D01*
X001443Y006351D01*
X001380Y006364D01*
X001317Y006351D01*
X001264Y006315D01*
X001228Y006262D01*
X001215Y006199D01*
X001228Y006136D01*
X001264Y006083D01*
X001317Y006047D01*
X001380Y006034D01*
X001443Y006047D01*
X001482Y006073D01*
X001528Y006054D01*
X001532Y006051D01*
Y006018D01*
X002528D01*
X002528Y006384D01*
X002574Y006393D01*
X002716D01*
Y006640D01*
D02*
G37*
G36*
X013085Y006279D02*
Y005997D01*
X013368D01*
X013363Y006034D01*
X013329Y006116D01*
X013275Y006186D01*
X013205Y006240D01*
X013123Y006274D01*
X013085Y006279D01*
D02*
G37*
G36*
X012985D02*
X012947Y006274D01*
X012865Y006240D01*
X012795Y006186D01*
X012741Y006116D01*
X012707Y006034D01*
X012702Y005997D01*
X012985D01*
Y006279D01*
D02*
G37*
G36*
X007400Y006665D02*
X007337Y006652D01*
X007284Y006616D01*
X007248Y006563D01*
X007235Y006500D01*
X007248Y006437D01*
X007284Y006384D01*
X007296Y006376D01*
Y005714D01*
X007014D01*
Y006396D01*
X007042Y006437D01*
X007055Y006500D01*
X007042Y006563D01*
X007006Y006616D01*
X006953Y006652D01*
X006890Y006665D01*
X006827Y006652D01*
X006774Y006616D01*
X006738Y006563D01*
X006725Y006500D01*
X006738Y006437D01*
X006774Y006384D01*
X006806Y006362D01*
Y005714D01*
X006747D01*
Y005751D01*
X006500D01*
Y005435D01*
Y005118D01*
X006747D01*
Y005155D01*
X008550D01*
Y005256D01*
X008600Y005283D01*
X008607Y005278D01*
X008670Y005265D01*
X008733Y005278D01*
X008786Y005314D01*
X008822Y005367D01*
X008835Y005430D01*
X008822Y005493D01*
X008786Y005546D01*
X008733Y005582D01*
X008670Y005595D01*
X008607Y005582D01*
X008600Y005577D01*
X008550Y005604D01*
Y005714D01*
X007504D01*
Y006376D01*
X007516Y006384D01*
X007552Y006437D01*
X007565Y006500D01*
X007552Y006563D01*
X007516Y006616D01*
X007463Y006652D01*
X007400Y006665D01*
D02*
G37*
G36*
X014930Y006035D02*
X014565D01*
Y005709D01*
X014930D01*
Y006035D01*
D02*
G37*
G36*
X013368Y005896D02*
X013085D01*
Y005614D01*
X013123Y005619D01*
X013205Y005653D01*
X013275Y005707D01*
X013329Y005777D01*
X013363Y005859D01*
X013368Y005896D01*
D02*
G37*
G36*
X012985D02*
X012702D01*
X012707Y005859D01*
X012741Y005777D01*
X012795Y005707D01*
X012865Y005653D01*
X012947Y005619D01*
X012985Y005614D01*
Y005896D01*
D02*
G37*
G36*
X015395Y005609D02*
X015030D01*
Y005284D01*
X015395D01*
Y005609D01*
D02*
G37*
G36*
X014930D02*
X014565D01*
Y005284D01*
X014930D01*
Y005609D01*
D02*
G37*
G36*
X015680Y005382D02*
X015653Y005377D01*
X015587Y005333D01*
X015543Y005267D01*
X015538Y005240D01*
X015680D01*
Y005382D01*
D02*
G37*
G36*
X006400Y005751D02*
X006050D01*
Y005435D01*
Y005118D01*
X006400D01*
Y005435D01*
Y005751D01*
D02*
G37*
G36*
X015680Y005140D02*
X015538D01*
X015543Y005113D01*
X015587Y005047D01*
X015653Y005003D01*
X015680Y004998D01*
Y005140D01*
D02*
G37*
G36*
X008550Y005045D02*
X005280D01*
Y004870D01*
X004588D01*
Y004884D01*
X003592D01*
Y004518D01*
X004588D01*
Y004661D01*
X005280D01*
Y004486D01*
X008550D01*
Y005045D01*
D02*
G37*
G36*
X002565Y004921D02*
X002080D01*
Y004751D01*
X002565D01*
Y004921D01*
D02*
G37*
G36*
X003100Y004882D02*
Y004740D01*
X003242D01*
X003237Y004767D01*
X003193Y004833D01*
X003127Y004877D01*
X003100Y004882D01*
D02*
G37*
G36*
X003000D02*
X002973Y004877D01*
X002907Y004833D01*
X002863Y004767D01*
X002858Y004740D01*
X003000D01*
Y004882D01*
D02*
G37*
G36*
X003242Y004640D02*
X003100D01*
Y004498D01*
X003127Y004503D01*
X003193Y004547D01*
X003237Y004613D01*
X003242Y004640D01*
D02*
G37*
G36*
X003000D02*
X002858D01*
X002863Y004613D01*
X002907Y004547D01*
X002973Y004503D01*
X003000Y004498D01*
Y004640D01*
D02*
G37*
G36*
X002565Y004651D02*
X002080D01*
Y004481D01*
X002565D01*
Y004651D01*
D02*
G37*
G36*
X010720Y005925D02*
X010657Y005912D01*
X010604Y005876D01*
X010568Y005823D01*
X010555Y005760D01*
X010568Y005697D01*
X010604Y005644D01*
X010657Y005608D01*
X010720Y005595D01*
X010734Y005598D01*
X010946Y005386D01*
X010980Y005364D01*
X011020Y005356D01*
X012890D01*
X013637Y004609D01*
Y004217D01*
X014157D01*
Y004333D01*
X014252D01*
Y004099D01*
X015008D01*
Y004776D01*
X014252D01*
Y004542D01*
X014157D01*
Y004776D01*
X013765D01*
X013007Y005534D01*
X012973Y005556D01*
X012933Y005564D01*
X012933Y005564D01*
X011063D01*
X010882Y005746D01*
X010885Y005760D01*
X010872Y005823D01*
X010836Y005876D01*
X010783Y005912D01*
X010720Y005925D01*
D02*
G37*
G36*
X002971Y004154D02*
X002705D01*
Y003907D01*
X002971D01*
Y004154D01*
D02*
G37*
G36*
X002605D02*
X002338D01*
Y003907D01*
X002605D01*
Y004154D01*
D02*
G37*
G36*
X016700Y004144D02*
X016453D01*
Y003877D01*
X016700D01*
Y004144D01*
D02*
G37*
G36*
X014194D02*
X013947D01*
Y003877D01*
X014194D01*
Y004144D01*
D02*
G37*
G36*
X016353D02*
X016106D01*
Y003877D01*
X016353D01*
Y004144D01*
D02*
G37*
G36*
X013847D02*
X013600D01*
Y003877D01*
X013847D01*
Y004144D01*
D02*
G37*
G36*
X005006Y003926D02*
X004917Y003915D01*
X004788Y003861D01*
X004678Y003776D01*
X004593Y003666D01*
X004569Y003607D01*
X004519D01*
X004502Y003647D01*
X004423Y003750D01*
X004320Y003829D01*
X004200Y003879D01*
X004072Y003896D01*
X003943Y003879D01*
X003823Y003829D01*
X003720Y003750D01*
X003641Y003647D01*
X003591Y003527D01*
X003574Y003399D01*
X003591Y003270D01*
X003641Y003150D01*
X003720Y003047D01*
X003823Y002968D01*
X003943Y002918D01*
X004072Y002901D01*
X004200Y002918D01*
X004320Y002968D01*
X004423Y003047D01*
X004502Y003150D01*
X004519Y003190D01*
X004569D01*
X004593Y003131D01*
X004678Y003020D01*
X004788Y002936D01*
X004917Y002882D01*
X005006Y002871D01*
Y003399D01*
Y003926D01*
D02*
G37*
G36*
X016700Y003777D02*
X016453D01*
Y003511D01*
X016700D01*
Y003777D01*
D02*
G37*
G36*
X013847D02*
X013600D01*
Y003511D01*
X013847D01*
Y003777D01*
D02*
G37*
G36*
X009976Y003926D02*
Y003449D01*
X010454D01*
X010442Y003537D01*
X010389Y003666D01*
X010304Y003776D01*
X010193Y003861D01*
X010064Y003915D01*
X009976Y003926D01*
D02*
G37*
G36*
X011844Y003926D02*
X011756Y003915D01*
X011627Y003861D01*
X011516Y003776D01*
X011431Y003666D01*
X011378Y003537D01*
X011366Y003449D01*
X011844D01*
Y003926D01*
D02*
G37*
G36*
X005106D02*
Y003449D01*
X005584D01*
X005572Y003537D01*
X005519Y003666D01*
X005434Y003776D01*
X005323Y003861D01*
X005194Y003915D01*
X005106Y003926D01*
D02*
G37*
G36*
X006974D02*
X006886Y003915D01*
X006757Y003861D01*
X006646Y003776D01*
X006561Y003666D01*
X006508Y003537D01*
X006496Y003449D01*
X006974D01*
Y003926D01*
D02*
G37*
G36*
X002971Y003807D02*
X002338D01*
Y003560D01*
Y003447D01*
X002655D01*
X002971D01*
Y003560D01*
Y003807D01*
D02*
G37*
G36*
X016353Y003777D02*
X016106D01*
Y003747D01*
X016074Y003711D01*
X016056Y003711D01*
X015709D01*
Y003385D01*
X016074D01*
Y003474D01*
X016106Y003511D01*
X016124Y003511D01*
X016353D01*
Y003777D01*
D02*
G37*
G36*
X014680Y003711D02*
Y003385D01*
X015045D01*
Y003711D01*
X014680D01*
D02*
G37*
G36*
X014194Y003777D02*
X013947D01*
Y003511D01*
X014165D01*
X014194Y003511D01*
X014215Y003470D01*
Y003385D01*
X014580D01*
Y003711D01*
X014244D01*
X014215Y003711D01*
X014194Y003752D01*
Y003777D01*
D02*
G37*
G36*
X015609Y003711D02*
X015244D01*
Y003385D01*
X015609D01*
Y003711D01*
D02*
G37*
G36*
X010910Y003700D02*
X010832Y003690D01*
X010759Y003660D01*
X010697Y003612D01*
X010649Y003549D01*
X010619Y003477D01*
X010608Y003399D01*
X010619Y003320D01*
X010649Y003248D01*
X010697Y003185D01*
X010759Y003137D01*
X010832Y003107D01*
X010910Y003097D01*
X010988Y003107D01*
X011061Y003137D01*
X011123Y003185D01*
X011171Y003248D01*
X011201Y003320D01*
X011212Y003399D01*
X011201Y003477D01*
X011171Y003549D01*
X011123Y003612D01*
X011061Y003660D01*
X010988Y003690D01*
X010910Y003700D01*
D02*
G37*
G36*
X006040D02*
X005962Y003690D01*
X005889Y003660D01*
X005827Y003612D01*
X005779Y003549D01*
X005749Y003477D01*
X005738Y003399D01*
X005749Y003320D01*
X005779Y003248D01*
X005827Y003185D01*
X005889Y003137D01*
X005962Y003107D01*
X006040Y003097D01*
X006118Y003107D01*
X006191Y003137D01*
X006253Y003185D01*
X006301Y003248D01*
X006331Y003320D01*
X006342Y003399D01*
X006331Y003477D01*
X006301Y003549D01*
X006253Y003612D01*
X006191Y003660D01*
X006118Y003690D01*
X006040Y003700D01*
D02*
G37*
G36*
X016074Y003285D02*
X015709D01*
Y002960D01*
X016074D01*
Y003285D01*
D02*
G37*
G36*
X015609D02*
X015244D01*
Y002960D01*
X015609D01*
Y003285D01*
D02*
G37*
G36*
X015045D02*
X014680D01*
Y002960D01*
X015045D01*
Y003285D01*
D02*
G37*
G36*
X014580D02*
X014215D01*
Y002960D01*
X014580D01*
Y003285D01*
D02*
G37*
G36*
X011844Y003349D02*
X011366D01*
X011378Y003260D01*
X011431Y003131D01*
X011516Y003020D01*
X011627Y002936D01*
X011756Y002882D01*
X011844Y002871D01*
Y003349D01*
D02*
G37*
G36*
X005584Y003349D02*
X005106D01*
Y002871D01*
X005194Y002882D01*
X005323Y002936D01*
X005434Y003020D01*
X005519Y003131D01*
X005572Y003260D01*
X005584Y003349D01*
D02*
G37*
G36*
X006974D02*
X006496D01*
X006508Y003260D01*
X006561Y003131D01*
X006646Y003020D01*
X006757Y002936D01*
X006886Y002882D01*
X006974Y002871D01*
Y003349D01*
D02*
G37*
G36*
X010454Y003349D02*
X009976D01*
Y002871D01*
X010064Y002882D01*
X010193Y002936D01*
X010304Y003020D01*
X010389Y003131D01*
X010442Y003260D01*
X010454Y003349D01*
D02*
G37*
G36*
X015072Y002856D02*
X014864D01*
Y002570D01*
X015072D01*
Y002856D01*
D02*
G37*
G36*
X014764D02*
X014557D01*
Y002570D01*
X014764D01*
Y002856D01*
D02*
G37*
G36*
X016092Y002737D02*
X015825D01*
Y002490D01*
X016092D01*
Y002737D01*
D02*
G37*
G36*
X015725D02*
X015459D01*
Y002490D01*
X015725D01*
Y002737D01*
D02*
G37*
G36*
X017283Y002670D02*
X017076D01*
Y002384D01*
X017283D01*
Y002670D01*
D02*
G37*
G36*
X015072Y002470D02*
X014864D01*
Y002184D01*
X015072D01*
Y002470D01*
D02*
G37*
G36*
X016092Y002390D02*
X015775D01*
X015459D01*
Y002143D01*
X015459D01*
Y002045D01*
X016093D01*
Y002292D01*
X016092D01*
Y002390D01*
D02*
G37*
G36*
X010960Y001958D02*
Y001480D01*
X011438D01*
X011426Y001568D01*
X011373Y001697D01*
X011288Y001808D01*
X011177Y001893D01*
X011048Y001946D01*
X010960Y001958D01*
D02*
G37*
G36*
X010860Y001958D02*
X010772Y001946D01*
X010643Y001893D01*
X010532Y001808D01*
X010447Y001697D01*
X010394Y001568D01*
X010382Y001480D01*
X010860D01*
Y001958D01*
D02*
G37*
G36*
X006090D02*
Y001480D01*
X006568D01*
X006556Y001568D01*
X006503Y001697D01*
X006418Y001808D01*
X006307Y001893D01*
X006178Y001946D01*
X006090Y001958D01*
D02*
G37*
G36*
X005990D02*
X005902Y001946D01*
X005773Y001893D01*
X005662Y001808D01*
X005577Y001697D01*
X005524Y001568D01*
X005512Y001480D01*
X005990D01*
Y001958D01*
D02*
G37*
G36*
X019285Y001352D02*
Y001210D01*
X019427D01*
X019421Y001237D01*
X019378Y001303D01*
X019312Y001347D01*
X019285Y001352D01*
D02*
G37*
G36*
X019185D02*
X019157Y001347D01*
X019092Y001303D01*
X019048Y001237D01*
X019042Y001210D01*
X019185D01*
Y001352D01*
D02*
G37*
G36*
X012879Y001732D02*
X012800Y001721D01*
X012728Y001691D01*
X012665Y001643D01*
X012617Y001581D01*
X012587Y001508D01*
X012577Y001430D01*
X012587Y001352D01*
X012617Y001279D01*
X012665Y001217D01*
X012728Y001169D01*
X012800Y001139D01*
X012879Y001128D01*
X012957Y001139D01*
X013029Y001169D01*
X013092Y001217D01*
X013140Y001279D01*
X013170Y001352D01*
X013180Y001430D01*
X013170Y001508D01*
X013140Y001581D01*
X013092Y001643D01*
X013029Y001691D01*
X012957Y001721D01*
X012879Y001732D01*
D02*
G37*
G36*
X008942D02*
X008863Y001721D01*
X008791Y001691D01*
X008728Y001643D01*
X008680Y001581D01*
X008650Y001508D01*
X008640Y001430D01*
X008650Y001352D01*
X008680Y001279D01*
X008728Y001217D01*
X008791Y001169D01*
X008863Y001139D01*
X008942Y001128D01*
X009020Y001139D01*
X009092Y001169D01*
X009155Y001217D01*
X009203Y001279D01*
X009233Y001352D01*
X009243Y001430D01*
X009233Y001508D01*
X009203Y001581D01*
X009155Y001643D01*
X009092Y001691D01*
X009020Y001721D01*
X008942Y001732D01*
D02*
G37*
G36*
X008008D02*
X007930Y001721D01*
X007858Y001691D01*
X007795Y001643D01*
X007747Y001581D01*
X007717Y001508D01*
X007707Y001430D01*
X007717Y001352D01*
X007747Y001279D01*
X007795Y001217D01*
X007858Y001169D01*
X007930Y001139D01*
X008008Y001128D01*
X008087Y001139D01*
X008159Y001169D01*
X008222Y001217D01*
X008270Y001279D01*
X008300Y001352D01*
X008310Y001430D01*
X008300Y001508D01*
X008270Y001581D01*
X008222Y001643D01*
X008159Y001691D01*
X008087Y001721D01*
X008008Y001732D01*
D02*
G37*
G36*
X004072D02*
X003993Y001721D01*
X003921Y001691D01*
X003858Y001643D01*
X003810Y001581D01*
X003780Y001508D01*
X003770Y001430D01*
X003780Y001352D01*
X003810Y001279D01*
X003858Y001217D01*
X003921Y001169D01*
X003993Y001139D01*
X004072Y001128D01*
X004150Y001139D01*
X004222Y001169D01*
X004285Y001217D01*
X004333Y001279D01*
X004363Y001352D01*
X004373Y001430D01*
X004363Y001508D01*
X004333Y001581D01*
X004285Y001643D01*
X004222Y001691D01*
X004150Y001721D01*
X004072Y001732D01*
D02*
G37*
G36*
X019427Y001110D02*
X019285D01*
Y000968D01*
X019312Y000973D01*
X019378Y001017D01*
X019421Y001083D01*
X019427Y001110D01*
D02*
G37*
G36*
X019185D02*
X019042D01*
X019048Y001083D01*
X019092Y001017D01*
X019157Y000973D01*
X019185Y000968D01*
Y001110D01*
D02*
G37*
G36*
X010860Y001380D02*
X010382D01*
X010394Y001292D01*
X010447Y001163D01*
X010532Y001052D01*
X010643Y000967D01*
X010772Y000914D01*
X010860Y000902D01*
Y001380D01*
D02*
G37*
G36*
X006568Y001380D02*
X006090D01*
Y000902D01*
X006178Y000914D01*
X006307Y000967D01*
X006418Y001052D01*
X006503Y001163D01*
X006556Y001292D01*
X006568Y001380D01*
D02*
G37*
G36*
X005990D02*
X005512D01*
X005524Y001292D01*
X005577Y001163D01*
X005662Y001052D01*
X005773Y000967D01*
X005902Y000914D01*
X005990Y000902D01*
Y001380D01*
D02*
G37*
G36*
X011438Y001380D02*
X010960D01*
Y000902D01*
X011048Y000914D01*
X011177Y000967D01*
X011288Y001052D01*
X011373Y001163D01*
X011426Y001292D01*
X011438Y001380D01*
D02*
G37*
G36*
X017936Y001814D02*
X017515D01*
Y001531D01*
X017474Y001510D01*
X017455D01*
Y000990D01*
X017621D01*
Y000777D01*
X017444Y000600D01*
X017430Y000603D01*
X017367Y000590D01*
X017314Y000555D01*
X017278Y000501D01*
X017265Y000438D01*
X017268Y000424D01*
X017208Y000364D01*
X015241D01*
X014957Y000648D01*
Y000889D01*
X014358D01*
Y000291D01*
X014957D01*
Y000291D01*
X015001Y000309D01*
X015124Y000186D01*
X015124Y000186D01*
X015157Y000164D01*
X015197Y000156D01*
X017252D01*
X017252Y000156D01*
X017292Y000164D01*
X017325Y000186D01*
X017416Y000277D01*
X017430Y000274D01*
X017493Y000286D01*
X017546Y000322D01*
X017582Y000375D01*
X017595Y000438D01*
X017592Y000453D01*
X017800Y000660D01*
X017800Y000660D01*
X017822Y000694D01*
X017830Y000734D01*
X017830Y000734D01*
Y000990D01*
X018014D01*
Y001510D01*
X017978D01*
X017936Y001531D01*
Y001814D01*
D02*
G37*
G36*
X001181Y001788D02*
X001063Y001777D01*
X000949Y001742D01*
X000844Y001686D01*
X000752Y001610D01*
X000676Y001518D01*
X000620Y001413D01*
X000586Y001300D01*
X000574Y001181D01*
X000586Y001063D01*
X000620Y000949D01*
X000676Y000844D01*
X000752Y000752D01*
X000844Y000676D01*
X000949Y000620D01*
X001063Y000586D01*
X001181Y000574D01*
X001300Y000586D01*
X001413Y000620D01*
X001518Y000676D01*
X001610Y000752D01*
X001686Y000844D01*
X001742Y000949D01*
X001777Y001063D01*
X001788Y001181D01*
X001777Y001300D01*
X001742Y001413D01*
X001686Y001518D01*
X001610Y001610D01*
X001518Y001686D01*
X001413Y001742D01*
X001300Y001777D01*
X001181Y001788D01*
D02*
G37*
G36*
X012879Y000747D02*
X012800Y000737D01*
X012728Y000707D01*
X012665Y000659D01*
X012617Y000597D01*
X012587Y000524D01*
X012577Y000446D01*
X012587Y000368D01*
X012617Y000295D01*
X012665Y000232D01*
X012728Y000184D01*
X012800Y000154D01*
X012879Y000144D01*
X012957Y000154D01*
X013029Y000184D01*
X013092Y000232D01*
X013140Y000295D01*
X013170Y000368D01*
X013180Y000446D01*
X013170Y000524D01*
X013140Y000597D01*
X013092Y000659D01*
X013029Y000707D01*
X012957Y000737D01*
X012879Y000747D01*
D02*
G37*
G36*
X008942D02*
X008863Y000737D01*
X008791Y000707D01*
X008728Y000659D01*
X008680Y000597D01*
X008650Y000524D01*
X008640Y000446D01*
X008650Y000368D01*
X008680Y000295D01*
X008728Y000232D01*
X008791Y000184D01*
X008863Y000154D01*
X008942Y000144D01*
X009020Y000154D01*
X009092Y000184D01*
X009155Y000232D01*
X009203Y000295D01*
X009233Y000368D01*
X009243Y000446D01*
X009233Y000524D01*
X009203Y000597D01*
X009155Y000659D01*
X009092Y000707D01*
X009020Y000737D01*
X008942Y000747D01*
D02*
G37*
G36*
X008008D02*
X007930Y000737D01*
X007858Y000707D01*
X007795Y000659D01*
X007747Y000597D01*
X007717Y000524D01*
X007707Y000446D01*
X007717Y000368D01*
X007747Y000295D01*
X007795Y000232D01*
X007858Y000184D01*
X007930Y000154D01*
X008008Y000144D01*
X008087Y000154D01*
X008159Y000184D01*
X008222Y000232D01*
X008270Y000295D01*
X008300Y000368D01*
X008310Y000446D01*
X008300Y000524D01*
X008270Y000597D01*
X008222Y000659D01*
X008159Y000707D01*
X008087Y000737D01*
X008008Y000747D01*
D02*
G37*
G36*
X004072D02*
X003993Y000737D01*
X003921Y000707D01*
X003858Y000659D01*
X003810Y000597D01*
X003780Y000524D01*
X003770Y000446D01*
X003780Y000368D01*
X003810Y000295D01*
X003858Y000232D01*
X003921Y000184D01*
X003993Y000154D01*
X004072Y000144D01*
X004150Y000154D01*
X004222Y000184D01*
X004285Y000232D01*
X004333Y000295D01*
X004363Y000368D01*
X004373Y000446D01*
X004363Y000524D01*
X004333Y000597D01*
X004285Y000659D01*
X004222Y000707D01*
X004150Y000737D01*
X004072Y000747D01*
D02*
G37*
G36*
X023151Y006474D02*
X022708D01*
Y006070D01*
X023151D01*
Y006474D01*
D02*
G37*
G36*
X022608D02*
X022164D01*
Y006070D01*
X022608D01*
Y006474D01*
D02*
G37*
G36*
X021782Y005822D02*
Y005680D01*
X021925D01*
X021919Y005707D01*
X021875Y005773D01*
X021810Y005817D01*
X021782Y005822D01*
D02*
G37*
G36*
X021682D02*
X021655Y005817D01*
X021589Y005773D01*
X021545Y005707D01*
X021540Y005680D01*
X021682D01*
Y005822D01*
D02*
G37*
G36*
X023151Y005970D02*
X022708D01*
Y005565D01*
X023151D01*
Y005970D01*
D02*
G37*
G36*
X021925Y005580D02*
X021782D01*
Y005438D01*
X021810Y005443D01*
X021875Y005487D01*
X021919Y005552D01*
X021925Y005580D01*
D02*
G37*
G36*
X021682D02*
X021540D01*
X021545Y005552D01*
X021589Y005487D01*
X021655Y005443D01*
X021682Y005438D01*
Y005580D01*
D02*
G37*
G36*
X023114Y005358D02*
X022201D01*
Y004681D01*
X023114D01*
Y005358D01*
D02*
G37*
G36*
Y004437D02*
X022201D01*
Y003602D01*
X023114D01*
Y004437D01*
D02*
G37*
G36*
X022319Y003244D02*
Y003101D01*
X022461D01*
X022456Y003129D01*
X022412Y003194D01*
X022346Y003238D01*
X022319Y003244D01*
D02*
G37*
G36*
X021692Y003001D02*
X021426D01*
Y002754D01*
X021692D01*
Y003001D01*
D02*
G37*
G36*
X022608Y005970D02*
X022164D01*
Y005697D01*
X021590Y005123D01*
X021567Y005089D01*
X021559Y005049D01*
X021559Y005049D01*
Y003348D01*
X021426D01*
Y003101D01*
X021742D01*
Y003051D01*
X021792D01*
Y002754D01*
X022059D01*
Y002919D01*
X022109Y002934D01*
X022126Y002908D01*
X022146Y002895D01*
Y002589D01*
X022107Y002563D01*
X022063Y002497D01*
X022058Y002470D01*
X022442D01*
X022437Y002497D01*
X022393Y002563D01*
X022354Y002589D01*
Y002870D01*
X022412Y002908D01*
X022456Y002974D01*
X022461Y003001D01*
X022269D01*
Y003051D01*
X022219D01*
Y003244D01*
X022191Y003238D01*
X022126Y003194D01*
X022109Y003169D01*
X022059Y003184D01*
Y003348D01*
X021768D01*
Y005006D01*
X022327Y005565D01*
X022608D01*
Y005970D01*
D02*
G37*
G36*
X022442Y002370D02*
X022300D01*
Y002228D01*
X022327Y002233D01*
X022393Y002277D01*
X022437Y002343D01*
X022442Y002370D01*
D02*
G37*
G36*
X022200D02*
X022058D01*
X022063Y002343D01*
X022107Y002277D01*
X022173Y002233D01*
X022200Y002228D01*
Y002370D01*
D02*
G37*
G36*
X024366Y002233D02*
X024223D01*
Y002091D01*
X024251Y002097D01*
X024316Y002140D01*
X024360Y002206D01*
X024366Y002233D01*
D02*
G37*
G36*
X024123D02*
X023981D01*
X023986Y002206D01*
X024030Y002140D01*
X024096Y002097D01*
X024123Y002091D01*
Y002233D01*
D02*
G37*
G36*
X020180Y001352D02*
Y001210D01*
X020322D01*
X020317Y001237D01*
X020273Y001303D01*
X020207Y001347D01*
X020180Y001352D01*
D02*
G37*
G36*
X020080D02*
X020053Y001347D01*
X019987Y001303D01*
X019943Y001237D01*
X019938Y001210D01*
X020080D01*
Y001352D01*
D02*
G37*
G36*
X020322Y001110D02*
X020180D01*
Y000968D01*
X020207Y000973D01*
X020273Y001017D01*
X020317Y001083D01*
X020322Y001110D01*
D02*
G37*
G36*
X020080D02*
X019938D01*
X019943Y001083D01*
X019987Y001017D01*
X020053Y000973D01*
X020080Y000968D01*
Y001110D01*
D02*
G37*
G36*
X024409Y001788D02*
X024291Y001777D01*
X024177Y001742D01*
X024072Y001686D01*
X023980Y001610D01*
X023905Y001518D01*
X023848Y001413D01*
X023814Y001300D01*
X023802Y001181D01*
X023814Y001063D01*
X023848Y000949D01*
X023905Y000844D01*
X023980Y000752D01*
X024072Y000676D01*
X024177Y000620D01*
X024291Y000586D01*
X024409Y000574D01*
X024528Y000586D01*
X024642Y000620D01*
X024747Y000676D01*
X024839Y000752D01*
X024914Y000844D01*
X024970Y000949D01*
X025005Y001063D01*
X025017Y001181D01*
X025005Y001300D01*
X024970Y001413D01*
X024914Y001518D01*
X024839Y001610D01*
X024747Y001686D01*
X024642Y001742D01*
X024528Y001777D01*
X024409Y001788D01*
D02*
G37*
G36*
X018620Y003812D02*
Y003670D01*
X018762D01*
X018757Y003697D01*
X018713Y003763D01*
X018647Y003807D01*
X018620Y003812D01*
D02*
G37*
G36*
X018520D02*
X018493Y003807D01*
X018427Y003763D01*
X018383Y003697D01*
X018378Y003670D01*
X018520D01*
Y003812D01*
D02*
G37*
G36*
X018762Y003570D02*
X018620D01*
Y003428D01*
X018647Y003433D01*
X018713Y003477D01*
X018757Y003543D01*
X018762Y003570D01*
D02*
G37*
G36*
X018520D02*
X018378D01*
X018383Y003543D01*
X018427Y003477D01*
X018493Y003433D01*
X018520Y003428D01*
Y003570D01*
D02*
G37*
G36*
X019192Y003662D02*
X018827D01*
Y003337D01*
X019192D01*
Y003662D01*
D02*
G37*
G36*
Y003237D02*
X018827D01*
Y003130D01*
X018781Y003121D01*
X018777Y003121D01*
X018534D01*
Y002854D01*
X018781D01*
Y002902D01*
X018827Y002911D01*
X018831Y002911D01*
X019192D01*
Y003237D01*
D02*
G37*
G36*
X018434Y003121D02*
X018187D01*
Y002854D01*
X018434D01*
Y003121D01*
D02*
G37*
G36*
X018781Y002754D02*
X018534D01*
Y002488D01*
X018781D01*
Y002754D01*
D02*
G37*
G36*
X018434D02*
X018187D01*
Y002488D01*
X018434D01*
Y002754D01*
D02*
G37*
%LPD*%
D10*
X008422Y009105D02*
D03*
Y009775D02*
D03*
X008410Y007175D02*
D03*
Y007845D02*
D03*
X008290Y004765D02*
D03*
Y005435D02*
D03*
X006910Y004765D02*
D03*
Y005435D02*
D03*
X006450D02*
D03*
Y004765D02*
D03*
X005060Y005435D02*
D03*
Y006105D02*
D03*
X006000Y004765D02*
D03*
Y005435D02*
D03*
X007370Y004765D02*
D03*
Y005435D02*
D03*
X007830Y004765D02*
D03*
Y005435D02*
D03*
X005540D02*
D03*
Y004765D02*
D03*
X015807Y006152D02*
D03*
Y006821D02*
D03*
X018484Y002804D02*
D03*
Y002135D02*
D03*
X003465Y009941D02*
D03*
Y010610D02*
D03*
X005240Y007875D02*
D03*
Y007205D02*
D03*
X016403Y003827D02*
D03*
Y004497D02*
D03*
X013897Y003827D02*
D03*
Y004497D02*
D03*
D11*
X002655Y003857D02*
D03*
X001985D02*
D03*
Y002937D02*
D03*
X002655D02*
D03*
X001985Y002477D02*
D03*
X002655D02*
D03*
X015775Y002440D02*
D03*
X016445D02*
D03*
X017715Y003220D02*
D03*
X017045D02*
D03*
X021398Y008150D02*
D03*
X020728D02*
D03*
X003445Y009449D02*
D03*
X002776D02*
D03*
X021742Y003051D02*
D03*
X021073D02*
D03*
X003435Y006690D02*
D03*
X002766D02*
D03*
X001485Y003397D02*
D03*
X000815D02*
D03*
Y003857D02*
D03*
X001485D02*
D03*
Y002477D02*
D03*
X000815D02*
D03*
X001485Y002937D02*
D03*
X000815D02*
D03*
X001985Y003397D02*
D03*
X002655D02*
D03*
X016437Y001060D02*
D03*
X015767D02*
D03*
X017735Y001250D02*
D03*
X017065D02*
D03*
X016445Y001995D02*
D03*
X015776D02*
D03*
X015767Y001523D02*
D03*
X016437D02*
D03*
X003435Y008210D02*
D03*
X002766D02*
D03*
D12*
X002240Y012280D02*
D03*
X018268Y010443D02*
D03*
D13*
X004090Y006201D02*
D03*
Y005701D02*
D03*
Y005201D02*
D03*
Y004701D02*
D03*
X002030D02*
D03*
Y005201D02*
D03*
Y005701D02*
D03*
Y006201D02*
D03*
D14*
X017026Y002720D02*
D03*
X017734D02*
D03*
X014106Y002520D02*
D03*
X014814D02*
D03*
D15*
X020669Y008898D02*
D03*
X021772D02*
D03*
D16*
X014980Y006762D02*
D03*
Y005659D02*
D03*
X019242Y002184D02*
D03*
Y003287D02*
D03*
X004649Y009017D02*
D03*
Y010120D02*
D03*
X015659Y004438D02*
D03*
Y003335D02*
D03*
X014630Y004438D02*
D03*
Y003335D02*
D03*
D17*
X015787Y009596D02*
D03*
X015790Y008880D02*
D03*
X004803Y010748D02*
D03*
D18*
X004715Y007833D02*
D03*
Y007085D02*
D03*
X003691D02*
D03*
Y007459D02*
D03*
Y007833D02*
D03*
X019502Y009684D02*
D03*
Y008936D02*
D03*
X018478D02*
D03*
Y009310D02*
D03*
Y009684D02*
D03*
D19*
X021004Y005020D02*
D03*
X022658D02*
D03*
D20*
Y004020D02*
D03*
X021004D02*
D03*
Y006020D02*
D03*
X022658D02*
D03*
D21*
X019695Y007972D02*
D03*
Y007717D02*
D03*
Y007461D02*
D03*
Y007205D02*
D03*
Y006949D02*
D03*
Y006693D02*
D03*
Y006437D02*
D03*
Y006181D02*
D03*
Y005925D02*
D03*
Y005669D02*
D03*
X016841D02*
D03*
Y005925D02*
D03*
Y006181D02*
D03*
Y006437D02*
D03*
Y006693D02*
D03*
Y006949D02*
D03*
Y007205D02*
D03*
Y007461D02*
D03*
Y007717D02*
D03*
Y007972D02*
D03*
D22*
X002795Y009921D02*
D03*
Y010630D02*
D03*
D23*
X007370Y007767D02*
D03*
X006170D02*
D03*
X007370Y009610D02*
D03*
X006170D02*
D03*
D24*
X023519Y005079D02*
D03*
X023839D02*
D03*
X024159D02*
D03*
Y005994D02*
D03*
X023839D02*
D03*
X023519D02*
D03*
X024159Y003248D02*
D03*
X023839D02*
D03*
X023519D02*
D03*
X024159Y004163D02*
D03*
X023839D02*
D03*
X023519D02*
D03*
X024159Y006909D02*
D03*
X023839D02*
D03*
X023519D02*
D03*
X024152Y007817D02*
D03*
X023832D02*
D03*
X023512D02*
D03*
X002796Y008911D02*
D03*
X003116D02*
D03*
X003436D02*
D03*
D25*
X019449Y010443D02*
D03*
D26*
X019695Y008386D02*
D03*
X016841D02*
D03*
D27*
X023296Y010429D02*
D03*
D28*
X001583Y009250D02*
D03*
Y008994D02*
D03*
Y008738D02*
D03*
Y009762D02*
D03*
Y009506D02*
D03*
D29*
X001534Y008030D02*
D03*
Y010470D02*
D03*
D30*
X000402Y010825D02*
D03*
Y007675D02*
D03*
D31*
Y009722D02*
D03*
Y008778D02*
D03*
D32*
X002420Y011470D02*
D03*
Y011070D02*
D03*
D33*
X013870Y000590D02*
D03*
X014657D02*
D03*
D34*
X014264Y001870D02*
D03*
D35*
X017726Y002184D02*
D03*
Y001672D02*
D03*
X017076D02*
D03*
Y001928D02*
D03*
Y002184D02*
D03*
D36*
X020295Y010429D02*
Y011429D01*
Y010325D02*
Y010429D01*
X021315D02*
Y010529D01*
Y010305D02*
Y010429D01*
X019734Y005630D02*
X019764Y005660D01*
X004649Y009599D02*
Y010120D01*
X000496Y003433D02*
X000533Y003397D01*
X015197Y000260D02*
X017252D01*
X017430Y000438D01*
X017726Y000734D01*
Y001672D01*
X003435Y006690D02*
X003610D01*
X000496Y003433D02*
Y004413D01*
X000517Y004433D01*
X001171Y005701D02*
X002030D01*
X000170Y004700D02*
X001171Y005701D01*
X000170Y003160D02*
Y004700D01*
Y003160D02*
X000393Y002937D01*
X000815D01*
Y002477D02*
X001166Y002827D01*
Y003393D01*
X001170Y003397D01*
X009162Y009105D02*
X009449Y008819D01*
X008422Y009105D02*
X009162D01*
X016437Y001060D02*
X016540Y000957D01*
Y000790D02*
Y000957D01*
X014867Y000590D02*
X015197Y000260D01*
X016634Y000600D02*
X016674D01*
X016623Y000589D02*
X016634Y000600D01*
X016457Y000589D02*
X016623D01*
X016446Y000600D02*
X016457Y000589D01*
X015530Y000600D02*
X016446D01*
X016674D02*
X017076Y001002D01*
X014387Y001743D02*
X015530Y000600D01*
X017076Y001002D02*
Y001672D01*
X004724Y008320D02*
Y009073D01*
X004715Y007833D02*
Y008320D01*
X016733Y001663D02*
X017066D01*
X016593Y001523D02*
X016733Y001663D01*
X016437Y001523D02*
X016593D01*
X016445Y002691D02*
X017050Y003296D01*
X016445Y002589D02*
Y002691D01*
Y002589D02*
X016850Y002184D01*
X016661Y001995D02*
X016850Y002184D01*
X016445Y001995D02*
X016661D01*
X013930Y001286D02*
X014387Y001743D01*
X019764Y005660D02*
X020160D01*
X019695Y005925D02*
X020089D01*
X020433Y004183D02*
Y006267D01*
X020272Y006428D02*
X020433Y006267D01*
X020089Y006428D02*
X020272D01*
X024695Y004585D02*
X024801Y004478D01*
X024695Y004585D02*
Y008022D01*
X024837Y005494D02*
X024961Y005370D01*
X024837Y005494D02*
Y008080D01*
X024350Y008567D02*
X024837Y008080D01*
X024291Y008425D02*
X024695Y008022D01*
X024978Y006390D02*
X025079Y006290D01*
X024978Y006390D02*
Y008139D01*
X024467Y008850D02*
X025120Y008198D01*
Y007296D02*
Y008198D01*
X024409Y008709D02*
X024978Y008139D01*
X025350Y008110D02*
Y008168D01*
X023364Y008992D02*
X024526D01*
X021774Y007402D02*
X023364Y008992D01*
X023423Y008850D02*
X024467D01*
X021833Y007260D02*
X023423Y008850D01*
X021891Y007118D02*
X023482Y008709D01*
X021950Y006976D02*
X023541Y008567D01*
X022009Y006835D02*
X023599Y008425D01*
X020529Y007402D02*
X021774D01*
X020415Y007260D02*
X021833D01*
X019958Y007972D02*
X020529Y007402D01*
X019695Y007972D02*
X019958D01*
X019695Y007717D02*
X019958D01*
X020415Y007260D01*
X019978Y007461D02*
X020320Y007118D01*
X019695Y007461D02*
X019978D01*
X020033Y007205D02*
X020262Y006976D01*
X019695Y007205D02*
X020033D01*
X020125Y006835D02*
X022009D01*
X020011Y006949D02*
X020125Y006835D01*
X019695Y006949D02*
X020011D01*
X020262Y006976D02*
X021950D01*
X020320Y007118D02*
X021891D01*
X006210Y009150D02*
Y009570D01*
X015583Y007717D02*
X016841D01*
X015512Y007788D02*
X015583Y007717D01*
X015512Y007788D02*
Y008110D01*
X015500Y009884D02*
X015787Y009596D01*
X016766Y008047D02*
X016841Y007972D01*
X016443Y008047D02*
X016766D01*
X016443D02*
Y008941D01*
X015787Y009596D02*
X016443Y008941D01*
X013035Y009884D02*
X015500D01*
X011970Y008819D02*
X012895Y009743D01*
X009449Y008819D02*
X011970D01*
X007370Y009610D02*
X007470Y009710D01*
X008412D01*
X008420Y009718D01*
X008590Y007018D02*
X010291D01*
X008420Y007188D02*
X008590Y007018D01*
X008420Y007188D02*
Y007248D01*
X005972Y010400D02*
X017295D01*
X017605Y010090D01*
X010291Y007018D02*
X011362Y005946D01*
X013526Y008110D01*
X015512D01*
X016850Y002184D02*
X017076D01*
X014980Y006762D02*
X015508Y006234D01*
Y005893D02*
Y006234D01*
X004715Y007085D02*
X004835Y007205D01*
X004714Y007085D02*
X004715Y007085D01*
X004835Y007205D02*
X005240D01*
X023599Y008425D02*
X024291D01*
X023541Y008567D02*
X024350D01*
X023482Y008709D02*
X024409D01*
X021073Y003051D02*
Y004020D01*
X003445Y009449D02*
Y009921D01*
X003465Y009941D01*
X023489Y005200D02*
Y007801D01*
X020065Y004632D02*
Y004700D01*
X020049Y004616D02*
X020065Y004632D01*
X016389Y007461D02*
X016841D01*
X016390Y006900D02*
X016792D01*
X015984D02*
X016390D01*
X015935Y006949D02*
X015984Y006900D01*
X019232Y003277D02*
X019242Y003287D01*
X017027Y003808D02*
X017037Y003798D01*
Y003296D02*
Y003798D01*
X017726Y002184D02*
X017745Y002204D01*
X017726Y002184D02*
X017726Y002184D01*
X015767Y001035D02*
Y001497D01*
X020827Y006693D02*
X021004Y006516D01*
X019695Y006693D02*
X020827D01*
X020355Y009684D02*
X020669Y009370D01*
Y008898D02*
Y009370D01*
Y008898D02*
X020728Y008839D01*
Y008150D02*
Y008839D01*
X021614Y007677D02*
X023296Y009359D01*
Y010429D01*
X022296D02*
X022795Y009930D01*
Y009567D02*
Y009930D01*
X021004Y006020D02*
X021571D01*
X021004D02*
Y006516D01*
X020433Y004183D02*
X020841D01*
X021663Y005049D02*
X022646Y006032D01*
X021663Y003051D02*
Y005049D01*
X015807Y006821D02*
X015935Y006949D01*
X015748Y006762D02*
X015807Y006821D01*
X014980Y006762D02*
X015748D01*
X019704Y006428D02*
X020089D01*
X016389Y007205D02*
X016841D01*
X016792Y006900D02*
X016841Y006949D01*
X019242Y002184D02*
X019242Y002184D01*
X017726Y002184D02*
X019242D01*
X020848Y010996D02*
X021315Y010529D01*
X008295Y012039D02*
Y012429D01*
X020848Y010996D02*
Y011691D01*
X019695Y006437D02*
X019704Y006428D01*
X023446Y005200D02*
X023489D01*
X023446Y005039D02*
Y005200D01*
X020663Y011876D02*
X020848Y011691D01*
X008458Y011876D02*
X020663D01*
X008295Y012039D02*
X008458Y011876D01*
X019634Y005031D02*
X020049Y004616D01*
X016841Y006437D02*
X017103D01*
X017380Y006160D01*
Y005159D02*
Y006160D01*
Y005159D02*
X017508Y005031D01*
X019634D01*
X016841Y005669D02*
X017077Y005433D01*
Y005034D02*
Y005433D01*
Y005034D02*
X017382Y004728D01*
X019287D01*
X019350Y004665D01*
X017449Y004890D02*
X019569D01*
X017238Y005804D02*
Y006046D01*
Y005101D02*
X017449Y004890D01*
X017238Y005101D02*
Y005790D01*
X016841Y006181D02*
X017103D01*
X017238Y006046D01*
X001583Y009764D02*
X002126D01*
X002244Y009882D01*
Y010433D01*
X002441Y010630D01*
Y010948D01*
X002441Y010948D01*
X002441Y010630D02*
X002795D01*
X003445D01*
X003465Y010610D01*
X024526Y008992D02*
X025350Y008168D01*
X007386Y007858D02*
X008420D01*
X023519Y002359D02*
Y003248D01*
X021742Y003051D02*
X022269D01*
X022250Y003084D02*
X022263Y003098D01*
X022250Y002420D02*
Y003084D01*
X021426Y002520D02*
X021441Y002504D01*
X021043Y001928D02*
X023088D01*
X023519Y002359D01*
X019569Y004890D02*
X020213Y004245D01*
Y004119D02*
Y004245D01*
Y004119D02*
X020350Y003982D01*
X013930Y000400D02*
Y001286D01*
X017037Y003296D02*
X017050D01*
X020295Y011429D02*
X020470D01*
X004685Y009113D02*
X005972Y010400D01*
X004685Y009113D02*
X004724Y009073D01*
X020728Y007805D02*
Y008150D01*
Y007805D02*
X020772Y007761D01*
X019449Y009684D02*
X020355D01*
X019449D02*
Y010443D01*
X017915Y010090D02*
X018268Y010443D01*
X017605Y010090D02*
X017915D01*
X018469Y009684D02*
Y010241D01*
X018268Y010443D02*
X018469Y010241D01*
X018463Y009310D02*
X018870D01*
X018174Y009684D02*
X018478D01*
X018183Y008936D02*
X018478D01*
X018090Y009600D02*
X018174Y009684D01*
X018090Y009029D02*
X018183Y008936D01*
X018090Y009029D02*
Y009600D01*
X023446Y005039D02*
X023489Y004997D01*
Y003268D02*
Y004997D01*
X002795Y009468D02*
Y009921D01*
Y009468D02*
X003072D01*
X003116Y009424D01*
Y009102D02*
Y009424D01*
X003436Y008960D02*
X003930D01*
X002884Y007833D02*
X003691D01*
X003435Y008089D02*
X003691Y007833D01*
X003435Y008089D02*
Y008210D01*
X002796Y008694D02*
Y008911D01*
Y008694D02*
X002950Y008540D01*
X003370D01*
X003435Y008475D01*
Y008210D02*
Y008475D01*
X003930Y008960D02*
X004570Y008320D01*
X004715D01*
X002429Y011562D02*
X003295Y012429D01*
X002420Y011562D02*
X002429D01*
X003465Y009941D02*
X003612D01*
X004419Y010748D01*
X004803D01*
X020295Y010325D02*
X020890Y009730D01*
X021620D01*
X021772Y009882D01*
X020350Y002850D02*
Y003982D01*
Y002850D02*
X020680Y002520D01*
X021426D01*
X006360Y006780D02*
Y007577D01*
X006170Y007767D02*
X006360Y007577D01*
X001382Y006201D02*
X002030D01*
X004118Y006202D02*
X004587D01*
X015929Y006030D02*
X016080D01*
X015807Y006152D02*
X015929Y006030D01*
X015728Y004497D02*
X016403D01*
X013956Y004438D02*
X014630D01*
X014640D01*
X015066Y005030D02*
X015659Y004438D01*
X014418Y005030D02*
X015066D01*
X015669Y004438D02*
Y004621D01*
X002895Y007085D02*
X003691D01*
X004656Y005701D02*
X005060Y006105D01*
X004566Y005701D02*
X004656D01*
X012933Y005460D02*
X013897Y004497D01*
X011020Y005460D02*
X012933D01*
X010720Y005760D02*
X011020Y005460D01*
X008290Y005435D02*
X008665D01*
X002660Y000910D02*
Y002447D01*
X002655Y002477D02*
X002660Y002471D01*
X001485Y002477D02*
X001985D01*
X001485Y002937D02*
X001985D01*
X000533Y003397D02*
X000815D01*
X006930Y002320D02*
X008008Y003399D01*
X003610Y006690D02*
X004094Y006205D01*
X000815Y003857D02*
Y004341D01*
Y002477D02*
Y002937D01*
X001170Y003397D02*
X001485D01*
X001611Y005201D02*
X002030D01*
X001485Y005075D02*
X001611Y005201D01*
X001485Y003857D02*
Y005075D01*
X001985Y003397D02*
Y003857D01*
X001485D02*
X001985D01*
X006910Y005435D02*
Y006480D01*
X006890Y006500D02*
X006910Y006480D01*
X007400Y005465D02*
Y006500D01*
X007370Y005435D02*
X007400Y005465D01*
X007370Y005435D02*
X007830D01*
X004090Y005201D02*
X004585D01*
X007830Y004765D02*
X008290D01*
X006910D02*
X007370D01*
X005540Y005435D02*
Y006460D01*
X004587Y005201D02*
X004826D01*
X005060Y005435D01*
X009689Y004819D02*
Y005946D01*
X008942Y004072D02*
X009689Y004819D01*
X008942Y003399D02*
Y004072D01*
Y002368D02*
Y003399D01*
Y002368D02*
X009120Y002190D01*
X012630D01*
X012879Y002438D01*
Y003399D01*
X013757Y002520D01*
X014106D01*
X015508Y005893D02*
X016276Y005124D01*
X015730Y005190D02*
X016105Y004815D01*
X016642D01*
X017410Y004048D01*
Y003820D02*
Y004048D01*
X016276Y005124D02*
X016536D01*
X017745Y003915D01*
Y002204D02*
Y003915D01*
X004090Y004701D02*
X004154Y004765D01*
X005540D01*
X006450D01*
X002655Y002937D02*
X002983D01*
X003600Y002320D01*
X006930D01*
X014028Y005420D02*
X014418Y005030D01*
X014028Y005420D02*
Y005568D01*
D37*
X001970Y012010D02*
X002240Y012280D01*
X001970Y011140D02*
Y012010D01*
Y011140D02*
X002040Y011070D01*
X024159Y002298D02*
X024173Y002283D01*
X024159Y002298D02*
Y003248D01*
X002040Y011070D02*
X002420D01*
X022296Y010429D02*
Y010982D01*
X022110D02*
X022296D01*
X021848Y011244D02*
X022110Y010982D01*
X021848Y011244D02*
Y011876D01*
X024159Y006909D02*
Y007810D01*
Y004163D02*
Y005079D01*
Y003248D02*
Y004163D01*
X021295Y012429D02*
X021848Y011876D01*
X024159Y005079D02*
Y005994D01*
Y006909D01*
D38*
X023589Y005079D02*
X023839D01*
Y005994D02*
X024089D01*
X023839Y003248D02*
X024089D01*
X023839Y004163D02*
X024089D01*
X023839Y006909D02*
X024089D01*
X023832Y007817D02*
X024082D01*
X002420Y011120D02*
Y011420D01*
X002866Y008911D02*
X003116D01*
D39*
X006040Y003399D02*
D03*
X008008Y001430D02*
D03*
Y000446D02*
D03*
X004072D02*
D03*
Y001430D02*
D03*
X010910Y003399D02*
D03*
X012879Y001430D02*
D03*
Y000446D02*
D03*
X008942D02*
D03*
Y001430D02*
D03*
D40*
X008008Y003399D02*
D03*
X007024D02*
D03*
X004072D02*
D03*
X005056D02*
D03*
X006040Y001430D02*
D03*
X012879Y003399D02*
D03*
X011894D02*
D03*
X008942D02*
D03*
X009926D02*
D03*
X010910Y001430D02*
D03*
D41*
X022295Y012429D02*
D03*
Y011429D02*
D03*
X021295Y012429D02*
D03*
Y011429D02*
D03*
X020295Y012429D02*
D03*
Y011429D02*
D03*
X019295Y012429D02*
D03*
Y011429D02*
D03*
X018295Y012429D02*
D03*
Y011429D02*
D03*
X017295Y012429D02*
D03*
Y011429D02*
D03*
X016295Y012429D02*
D03*
Y011429D02*
D03*
X003295Y012429D02*
D03*
X004295D02*
D03*
X005295D02*
D03*
X006295D02*
D03*
X007295D02*
D03*
X008295D02*
D03*
X009295D02*
D03*
X010295D02*
D03*
X011295D02*
D03*
X012295D02*
D03*
X013295D02*
D03*
X014295D02*
D03*
X015295D02*
D03*
Y011429D02*
D03*
X014295D02*
D03*
X013295D02*
D03*
X012295D02*
D03*
X011295D02*
D03*
X010295D02*
D03*
X009295D02*
D03*
X008295D02*
D03*
X007295D02*
D03*
X006295D02*
D03*
X005295D02*
D03*
X004295D02*
D03*
X003295D02*
D03*
D42*
X011362Y009884D02*
D03*
Y005946D02*
D03*
X013035D02*
D03*
Y009884D02*
D03*
X009689D02*
D03*
Y005946D02*
D03*
D43*
X024409Y011811D02*
D03*
Y001181D02*
D03*
X001181D02*
D03*
Y011811D02*
D03*
D44*
X020296Y010429D02*
D03*
X021296D02*
D03*
X022296D02*
D03*
D45*
X017430Y000438D02*
D03*
X000517Y004433D02*
D03*
X016540Y000790D02*
D03*
X005340Y010340D02*
D03*
X020160Y005660D02*
D03*
Y005925D02*
D03*
X025350Y008120D02*
D03*
X025197Y007219D02*
D03*
X024170Y008130D02*
D03*
X004587Y006202D02*
D03*
X010720Y005760D02*
D03*
X006210Y009150D02*
D03*
X001380Y006199D02*
D03*
X006360Y006780D02*
D03*
X002240Y012280D02*
D03*
X020860Y006570D02*
D03*
X021260Y006630D02*
D03*
X021210Y008700D02*
D03*
X020065Y004700D02*
D03*
X016390Y007510D02*
D03*
Y006900D02*
D03*
X022795Y009567D02*
D03*
X017027Y003808D02*
D03*
X021614Y007677D02*
D03*
X021772Y009882D02*
D03*
X024173Y002283D02*
D03*
X020433Y004183D02*
D03*
X015790Y008880D02*
D03*
X015512Y008110D02*
D03*
X021732Y005630D02*
D03*
X016389Y007205D02*
D03*
X020160Y006428D02*
D03*
X023840Y004478D02*
D03*
X025079Y006290D02*
D03*
X024961Y005370D02*
D03*
X024801Y004478D02*
D03*
X018809Y010945D02*
D03*
X023858Y009409D02*
D03*
X018661Y007894D02*
D03*
Y007303D02*
D03*
Y006713D02*
D03*
X018652Y006122D02*
D03*
X018661Y005531D02*
D03*
X018071D02*
D03*
X018061Y006122D02*
D03*
X017776Y006890D02*
D03*
X018071Y007303D02*
D03*
Y007894D02*
D03*
X019235Y001160D02*
D03*
X020130D02*
D03*
X019350Y004665D02*
D03*
X009606Y007402D02*
D03*
X009190Y006670D02*
D03*
X011378Y008425D02*
D03*
X017421Y009990D02*
D03*
X018268Y010443D02*
D03*
X019449D02*
D03*
X007795Y011929D02*
D03*
X014803Y012165D02*
D03*
X006820Y009100D02*
D03*
X004124Y008168D02*
D03*
X002884Y007833D02*
D03*
X004640Y009590D02*
D03*
X017480Y010630D02*
D03*
X021575Y006024D02*
D03*
X018570Y003620D02*
D03*
X016080Y006030D02*
D03*
X022269Y003051D02*
D03*
X022250Y002420D02*
D03*
X021441Y002504D02*
D03*
X021043Y001928D02*
D03*
X020590Y003180D02*
D03*
X004715Y008320D02*
D03*
X020220Y008180D02*
D03*
X021230Y007650D02*
D03*
X020772Y007761D02*
D03*
X018870Y009310D02*
D03*
X015787Y009596D02*
D03*
X005060Y006630D02*
D03*
X023840Y007220D02*
D03*
Y008130D02*
D03*
Y005390D02*
D03*
Y003590D02*
D03*
Y006310D02*
D03*
X002178Y007840D02*
D03*
X004803Y010748D02*
D03*
X007400Y006500D02*
D03*
X004587Y005680D02*
D03*
X015730Y005190D02*
D03*
X002895Y007085D02*
D03*
X008670Y005430D02*
D03*
X002660Y000910D02*
D03*
X000840Y004317D02*
D03*
X003050Y004690D02*
D03*
X006890Y006500D02*
D03*
X004587Y005201D02*
D03*
X005540Y006460D02*
D03*
X007850Y006520D02*
D03*
X017410Y003820D02*
D03*
X014028Y005568D02*
D03*
X001780Y007008D02*
D03*
M02*
