G04 Layer_Physical_Order=3*
G04 Layer_Color=16440176*
%FSAX24Y24*%
%MOIN*%
G70*
G01*
G75*
%ADD37C,0.0197*%
%ADD38C,0.0118*%
%ADD42C,0.0157*%
%ADD44C,0.0591*%
%ADD45R,0.0591X0.0591*%
%ADD46R,0.0591X0.0591*%
%ADD47R,0.0600X0.0600*%
%ADD48C,0.0600*%
%ADD50C,0.0740*%
%ADD52C,0.0860*%
%ADD53C,0.0315*%
%ADD54C,0.0200*%
%ADD55C,0.0180*%
%ADD56C,0.0280*%
%ADD57C,0.0394*%
G36*
X023052Y011373D02*
X023301D01*
X023310Y011350D01*
X023314Y011323D01*
X023189Y011177D01*
X023085Y011007D01*
X023010Y010824D01*
X022963Y010631D01*
X022948Y010433D01*
X022963Y010235D01*
X023010Y010042D01*
X023085Y009859D01*
X023189Y009690D01*
X023318Y009539D01*
X023469Y009410D01*
X023638Y009306D01*
X023822Y009230D01*
X024015Y009184D01*
X024085Y009178D01*
Y008713D01*
X024035Y008708D01*
X024028Y008740D01*
X023989Y008799D01*
X023930Y008838D01*
X023910Y008842D01*
Y008670D01*
X023860D01*
Y008620D01*
X023688D01*
X023692Y008600D01*
X023723Y008554D01*
X023704Y008504D01*
X023159D01*
Y007461D01*
X023159Y007460D01*
X023332D01*
Y007360D01*
X023159D01*
X023159Y007359D01*
X023159Y005925D01*
X023006D01*
X022990Y005975D01*
X023004Y005984D01*
X023044Y006044D01*
X023058Y006114D01*
X023044Y006184D01*
X023016Y006226D01*
Y008504D01*
X023112Y008601D01*
X023160Y008581D01*
X023258Y008568D01*
X023356Y008581D01*
X023447Y008619D01*
X023526Y008679D01*
X023586Y008758D01*
X023623Y008849D01*
X023636Y008947D01*
X023623Y009045D01*
X023586Y009136D01*
X023526Y009215D01*
X023447Y009275D01*
X023356Y009312D01*
X023258Y009325D01*
X023160Y009312D01*
X023069Y009275D01*
X022990Y009215D01*
X022930Y009136D01*
X022892Y009045D01*
X022879Y008947D01*
X022892Y008849D01*
X022912Y008801D01*
X022774Y008663D01*
X022743Y008617D01*
X022732Y008563D01*
Y006226D01*
X022704Y006184D01*
X022690Y006114D01*
X022704Y006044D01*
X022744Y005984D01*
X022758Y005975D01*
X022743Y005925D01*
X022529D01*
X022502Y005966D01*
X022442Y006006D01*
X022372Y006020D01*
X022302Y006006D01*
X022270Y005985D01*
X022234Y006021D01*
X022235Y006023D01*
X022239Y006043D01*
X021895D01*
X021899Y006023D01*
X021930Y005975D01*
X021912Y005925D01*
X021467D01*
X021467Y002766D01*
Y002528D01*
X019278D01*
X019273Y002578D01*
X019332Y002617D01*
X019371Y002676D01*
X019375Y002696D01*
X019203D01*
Y002746D01*
X019153D01*
Y002920D01*
X019104Y002951D01*
X019104Y003386D01*
Y009518D01*
X007847D01*
Y009839D01*
X007894Y009852D01*
X007932Y009759D01*
X007993Y009680D01*
X008072Y009619D01*
X008165Y009581D01*
X008264Y009568D01*
X008363Y009581D01*
X008455Y009619D01*
X008535Y009680D01*
X008596Y009759D01*
X008634Y009852D01*
X008647Y009951D01*
X008634Y010050D01*
X008596Y010142D01*
X008535Y010222D01*
X008455Y010283D01*
X008363Y010321D01*
X008264Y010334D01*
X008165Y010321D01*
X008072Y010283D01*
X007993Y010222D01*
X007932Y010142D01*
X007894Y010050D01*
X007847Y010062D01*
Y010260D01*
X007860Y010276D01*
X007932Y010325D01*
X007980Y010397D01*
X007987Y010432D01*
X007774D01*
Y010532D01*
X007987D01*
X007980Y010568D01*
X007932Y010640D01*
X007860Y010688D01*
X007847Y010705D01*
Y010839D01*
X007894Y010852D01*
X007932Y010759D01*
X007993Y010680D01*
X008072Y010619D01*
X008165Y010581D01*
X008264Y010568D01*
X008363Y010581D01*
X008413Y010601D01*
X008652Y010362D01*
X008698Y010332D01*
X008752Y010321D01*
X009040D01*
X009057Y010271D01*
X008993Y010222D01*
X008932Y010142D01*
X008894Y010050D01*
X008881Y009951D01*
X008894Y009852D01*
X008932Y009759D01*
X008993Y009680D01*
X009072Y009619D01*
X009165Y009581D01*
X009264Y009568D01*
X009363Y009581D01*
X009455Y009619D01*
X009535Y009680D01*
X009596Y009759D01*
X009634Y009852D01*
X009647Y009951D01*
X009634Y010050D01*
X009596Y010142D01*
X009535Y010222D01*
X009471Y010271D01*
X009488Y010321D01*
X010040D01*
X010057Y010271D01*
X009993Y010222D01*
X009932Y010142D01*
X009894Y010050D01*
X009881Y009951D01*
X009894Y009852D01*
X009932Y009759D01*
X009993Y009680D01*
X010072Y009619D01*
X010165Y009581D01*
X010264Y009568D01*
X010363Y009581D01*
X010455Y009619D01*
X010535Y009680D01*
X010596Y009759D01*
X010634Y009852D01*
X010647Y009951D01*
X010634Y010050D01*
X010596Y010142D01*
X010535Y010222D01*
X010471Y010271D01*
X010488Y010321D01*
X011040D01*
X011057Y010271D01*
X010993Y010222D01*
X010932Y010142D01*
X010894Y010050D01*
X010881Y009951D01*
X010894Y009852D01*
X010932Y009759D01*
X010993Y009680D01*
X011072Y009619D01*
X011165Y009581D01*
X011264Y009568D01*
X011363Y009581D01*
X011455Y009619D01*
X011535Y009680D01*
X011596Y009759D01*
X011634Y009852D01*
X011647Y009951D01*
X011634Y010050D01*
X011596Y010142D01*
X011535Y010222D01*
X011471Y010271D01*
X011488Y010321D01*
X012040D01*
X012057Y010271D01*
X011993Y010222D01*
X011932Y010142D01*
X011894Y010050D01*
X011881Y009951D01*
X011894Y009852D01*
X011932Y009759D01*
X011993Y009680D01*
X012072Y009619D01*
X012165Y009581D01*
X012264Y009568D01*
X012363Y009581D01*
X012455Y009619D01*
X012535Y009680D01*
X012596Y009759D01*
X012634Y009852D01*
X012647Y009951D01*
X012634Y010050D01*
X012596Y010142D01*
X012535Y010222D01*
X012471Y010271D01*
X012488Y010321D01*
X013040D01*
X013057Y010271D01*
X012993Y010222D01*
X012932Y010142D01*
X012894Y010050D01*
X012881Y009951D01*
X012894Y009852D01*
X012932Y009759D01*
X012993Y009680D01*
X013072Y009619D01*
X013165Y009581D01*
X013264Y009568D01*
X013363Y009581D01*
X013455Y009619D01*
X013535Y009680D01*
X013596Y009759D01*
X013634Y009852D01*
X013647Y009951D01*
X013634Y010050D01*
X013596Y010142D01*
X013535Y010222D01*
X013471Y010271D01*
X013488Y010321D01*
X014040D01*
X014057Y010271D01*
X013993Y010222D01*
X013932Y010142D01*
X013894Y010050D01*
X013881Y009951D01*
X013894Y009852D01*
X013932Y009759D01*
X013993Y009680D01*
X014072Y009619D01*
X014165Y009581D01*
X014264Y009568D01*
X014363Y009581D01*
X014455Y009619D01*
X014535Y009680D01*
X014596Y009759D01*
X014634Y009852D01*
X014647Y009951D01*
X014634Y010050D01*
X014596Y010142D01*
X014535Y010222D01*
X014471Y010271D01*
X014488Y010321D01*
X015040D01*
X015057Y010271D01*
X014993Y010222D01*
X014932Y010142D01*
X014894Y010050D01*
X014881Y009951D01*
X014894Y009852D01*
X014932Y009759D01*
X014993Y009680D01*
X015072Y009619D01*
X015165Y009581D01*
X015264Y009568D01*
X015363Y009581D01*
X015455Y009619D01*
X015535Y009680D01*
X015596Y009759D01*
X015634Y009852D01*
X015647Y009951D01*
X015634Y010050D01*
X015596Y010142D01*
X015535Y010222D01*
X015471Y010271D01*
X015488Y010321D01*
X016040D01*
X016057Y010271D01*
X015993Y010222D01*
X015932Y010142D01*
X015894Y010050D01*
X015881Y009951D01*
X015894Y009852D01*
X015932Y009759D01*
X015993Y009680D01*
X016072Y009619D01*
X016165Y009581D01*
X016264Y009568D01*
X016363Y009581D01*
X016455Y009619D01*
X016535Y009680D01*
X016596Y009759D01*
X016634Y009852D01*
X016647Y009951D01*
X016634Y010050D01*
X016596Y010142D01*
X016535Y010222D01*
X016471Y010271D01*
X016488Y010321D01*
X017040D01*
X017057Y010271D01*
X016993Y010222D01*
X016932Y010142D01*
X016894Y010050D01*
X016881Y009951D01*
X016894Y009852D01*
X016932Y009759D01*
X016993Y009680D01*
X017072Y009619D01*
X017165Y009581D01*
X017264Y009568D01*
X017363Y009581D01*
X017455Y009619D01*
X017535Y009680D01*
X017596Y009759D01*
X017634Y009852D01*
X017647Y009951D01*
X017634Y010050D01*
X017596Y010142D01*
X017535Y010222D01*
X017471Y010271D01*
X017488Y010321D01*
X018040D01*
X018057Y010271D01*
X017993Y010222D01*
X017932Y010142D01*
X017894Y010050D01*
X017881Y009951D01*
X017894Y009852D01*
X017932Y009759D01*
X017993Y009680D01*
X018072Y009619D01*
X018165Y009581D01*
X018264Y009568D01*
X018363Y009581D01*
X018455Y009619D01*
X018535Y009680D01*
X018596Y009759D01*
X018634Y009852D01*
X018647Y009951D01*
X018634Y010050D01*
X018596Y010142D01*
X018535Y010222D01*
X018471Y010271D01*
X018488Y010321D01*
X019040D01*
X019057Y010271D01*
X018993Y010222D01*
X018932Y010142D01*
X018894Y010050D01*
X018881Y009951D01*
X018894Y009852D01*
X018932Y009759D01*
X018993Y009680D01*
X019072Y009619D01*
X019165Y009581D01*
X019264Y009568D01*
X019363Y009581D01*
X019455Y009619D01*
X019535Y009680D01*
X019596Y009759D01*
X019634Y009852D01*
X019647Y009951D01*
X019634Y010050D01*
X019596Y010142D01*
X019535Y010222D01*
X019471Y010271D01*
X019488Y010321D01*
X020040D01*
X020057Y010271D01*
X019993Y010222D01*
X019932Y010142D01*
X019894Y010050D01*
X019881Y009951D01*
X019894Y009852D01*
X019932Y009759D01*
X019993Y009680D01*
X020072Y009619D01*
X020124Y009597D01*
Y009375D01*
X020039Y009340D01*
X019945Y009268D01*
X019873Y009174D01*
X019827Y009064D01*
X019812Y008947D01*
X019827Y008829D01*
X019863Y008744D01*
X019211Y008092D01*
X019180Y008046D01*
X019169Y007992D01*
Y003563D01*
X019180Y003509D01*
X019210Y003463D01*
X019220Y003414D01*
X019260Y003354D01*
X019320Y003315D01*
X019390Y003301D01*
X019460Y003315D01*
X019520Y003354D01*
X019559Y003414D01*
X019573Y003484D01*
X019559Y003554D01*
X019520Y003614D01*
X019460Y003654D01*
X019453Y003655D01*
Y003730D01*
X019503Y003750D01*
X019548Y003719D01*
X019568Y003715D01*
Y003888D01*
X019668D01*
Y003714D01*
X019696Y003720D01*
X019755Y003759D01*
X019794Y003818D01*
X019795Y003824D01*
X019848Y003835D01*
X019860Y003817D01*
X020224Y003453D01*
X020234Y003404D01*
X020274Y003345D01*
X020333Y003305D01*
X020404Y003291D01*
X020474Y003305D01*
X020533Y003345D01*
X020573Y003404D01*
X020587Y003474D01*
X020573Y003545D01*
X020533Y003604D01*
X020474Y003644D01*
X020425Y003654D01*
X020270Y003809D01*
X020286Y003863D01*
X020306Y003867D01*
X020365Y003907D01*
X020405Y003966D01*
X020409Y003985D01*
X020236D01*
Y004085D01*
X020418D01*
Y004124D01*
X020468Y004144D01*
X020793Y003819D01*
Y003336D01*
X020402Y002945D01*
X020353Y002935D01*
X020293Y002896D01*
X020254Y002836D01*
X020240Y002766D01*
X020254Y002696D01*
X020293Y002636D01*
X020353Y002596D01*
X020423Y002582D01*
X020493Y002596D01*
X020553Y002636D01*
X020593Y002696D01*
X020603Y002745D01*
X021035Y003177D01*
X021066Y003223D01*
X021077Y003278D01*
Y003878D01*
X021066Y003932D01*
X021035Y003978D01*
X020683Y004330D01*
Y004933D01*
X020727Y004957D01*
X020737Y004950D01*
X020757Y004946D01*
Y005118D01*
X020807D01*
Y005168D01*
X020989D01*
Y006151D01*
X020807D01*
Y006251D01*
X020989D01*
Y006672D01*
X020807D01*
Y006722D01*
X020757D01*
Y006895D01*
X020737Y006891D01*
X020727Y006884D01*
X020683Y006908D01*
Y007280D01*
X021332Y007929D01*
X021713D01*
X021767Y007940D01*
X021813Y007971D01*
X022346Y008504D01*
X022383Y008508D01*
X022493Y008554D01*
X022587Y008626D01*
X022659Y008720D01*
X022704Y008829D01*
X022720Y008947D01*
X022704Y009064D01*
X022659Y009174D01*
X022623Y009220D01*
X022846Y009443D01*
X022877Y009489D01*
X022888Y009543D01*
Y010295D01*
X022877Y010350D01*
X022846Y010396D01*
X022699Y010543D01*
X022653Y010574D01*
X022598Y010585D01*
X022493D01*
X022476Y010635D01*
X022535Y010680D01*
X022596Y010759D01*
X022634Y010852D01*
X022647Y010951D01*
X022634Y011050D01*
X022596Y011142D01*
X022535Y011222D01*
X022455Y011283D01*
X022363Y011321D01*
X022347Y011323D01*
X022350Y011373D01*
X022460D01*
Y011555D01*
X022560D01*
Y011373D01*
X022952D01*
Y011555D01*
X023052D01*
Y011373D01*
D02*
G37*
G36*
X022058D02*
X022178D01*
X022181Y011323D01*
X022165Y011321D01*
X022072Y011283D01*
X021993Y011222D01*
X021932Y011142D01*
X021894Y011050D01*
X021881Y010951D01*
X021894Y010852D01*
X021932Y010759D01*
X021993Y010680D01*
X022051Y010635D01*
X022035Y010585D01*
X021830D01*
X021613Y010802D01*
X021634Y010852D01*
X021647Y010951D01*
X021634Y011050D01*
X021596Y011142D01*
X021535Y011222D01*
X021455Y011283D01*
X021363Y011321D01*
X021347Y011323D01*
X021350Y011373D01*
X021466D01*
Y011555D01*
X021566D01*
Y011373D01*
X021958D01*
Y011555D01*
X022058D01*
Y011373D01*
D02*
G37*
G36*
X021064D02*
X021178D01*
X021181Y011323D01*
X021165Y011321D01*
X021072Y011283D01*
X020993Y011222D01*
X020932Y011142D01*
X020894Y011050D01*
X020881Y010951D01*
X020894Y010852D01*
X020932Y010759D01*
X020993Y010680D01*
X021072Y010619D01*
X021165Y010581D01*
X021264Y010568D01*
X021363Y010581D01*
X021413Y010601D01*
X021671Y010343D01*
X021717Y010312D01*
X021772Y010301D01*
X022014D01*
X022031Y010251D01*
X021993Y010222D01*
X021932Y010142D01*
X021894Y010050D01*
X021881Y009951D01*
X021894Y009852D01*
X021932Y009759D01*
X021993Y009680D01*
X022072Y009619D01*
X022165Y009581D01*
X022264Y009568D01*
X022363Y009581D01*
X022455Y009619D01*
X022535Y009680D01*
X022554Y009705D01*
X022604Y009688D01*
Y009602D01*
X022386Y009384D01*
X022383Y009385D01*
X022266Y009401D01*
X022148Y009385D01*
X022039Y009340D01*
X021945Y009268D01*
X021873Y009174D01*
X021827Y009064D01*
X021812Y008947D01*
X021827Y008829D01*
X021873Y008720D01*
X021945Y008626D01*
X021984Y008596D01*
X021987Y008546D01*
X021654Y008213D01*
X021274D01*
X021219Y008202D01*
X021173Y008171D01*
X020468Y007466D01*
X020418Y007487D01*
Y007489D01*
X020418Y007490D01*
X020405Y007560D01*
X020365Y007619D01*
X020306Y007659D01*
X020258Y007668D01*
X020240Y007720D01*
X021063Y008544D01*
X021148Y008508D01*
X021266Y008493D01*
X021383Y008508D01*
X021493Y008554D01*
X021587Y008626D01*
X021659Y008720D01*
X021704Y008829D01*
X021720Y008947D01*
X021704Y009064D01*
X021659Y009174D01*
X021587Y009268D01*
X021493Y009340D01*
X021383Y009385D01*
X021266Y009401D01*
X021237Y009397D01*
X021066Y009567D01*
X021095Y009610D01*
X021165Y009581D01*
X021264Y009568D01*
X021363Y009581D01*
X021455Y009619D01*
X021535Y009680D01*
X021596Y009759D01*
X021634Y009852D01*
X021647Y009951D01*
X021634Y010050D01*
X021596Y010142D01*
X021535Y010222D01*
X021455Y010283D01*
X021363Y010321D01*
X021264Y010334D01*
X021165Y010321D01*
X021072Y010283D01*
X020993Y010222D01*
X020955Y010173D01*
X020894Y010175D01*
X020888Y010184D01*
X020508Y010563D01*
X020484Y010579D01*
X020479Y010637D01*
X020480Y010638D01*
X020535Y010680D01*
X020596Y010759D01*
X020634Y010852D01*
X020647Y010951D01*
X020634Y011050D01*
X020596Y011142D01*
X020535Y011222D01*
X020455Y011283D01*
X020363Y011321D01*
X020347Y011323D01*
X020350Y011373D01*
X020472D01*
Y011555D01*
X020572D01*
Y011373D01*
X020964D01*
Y011555D01*
X021064D01*
Y011373D01*
D02*
G37*
G36*
X020070D02*
X020178D01*
X020181Y011323D01*
X020165Y011321D01*
X020072Y011283D01*
X019993Y011222D01*
X019932Y011142D01*
X019894Y011050D01*
X019881Y010951D01*
X019894Y010852D01*
X019932Y010759D01*
X019993Y010680D01*
X020026Y010654D01*
X020009Y010604D01*
X019519D01*
X019502Y010654D01*
X019535Y010680D01*
X019596Y010759D01*
X019634Y010852D01*
X019647Y010951D01*
X019634Y011050D01*
X019596Y011142D01*
X019535Y011222D01*
X019455Y011283D01*
X019363Y011321D01*
X019347Y011323D01*
X019350Y011373D01*
X019478D01*
Y011555D01*
X019578D01*
Y011373D01*
X019970D01*
Y011555D01*
X020070D01*
Y011373D01*
D02*
G37*
G36*
X019076D02*
X019178D01*
X019181Y011323D01*
X019165Y011321D01*
X019072Y011283D01*
X018993Y011222D01*
X018932Y011142D01*
X018894Y011050D01*
X018881Y010951D01*
X018894Y010852D01*
X018932Y010759D01*
X018993Y010680D01*
X019026Y010654D01*
X019009Y010604D01*
X018519D01*
X018502Y010654D01*
X018535Y010680D01*
X018596Y010759D01*
X018634Y010852D01*
X018647Y010951D01*
X018634Y011050D01*
X018596Y011142D01*
X018535Y011222D01*
X018455Y011283D01*
X018363Y011321D01*
X018347Y011323D01*
X018350Y011373D01*
X018483D01*
Y011555D01*
X018583D01*
Y011373D01*
X018976D01*
Y011555D01*
X019076D01*
Y011373D01*
D02*
G37*
G36*
X018082D02*
X018178D01*
X018181Y011323D01*
X018165Y011321D01*
X018072Y011283D01*
X017993Y011222D01*
X017932Y011142D01*
X017894Y011050D01*
X017881Y010951D01*
X017894Y010852D01*
X017932Y010759D01*
X017993Y010680D01*
X018026Y010654D01*
X018009Y010604D01*
X017519D01*
X017502Y010654D01*
X017535Y010680D01*
X017596Y010759D01*
X017634Y010852D01*
X017647Y010951D01*
X017634Y011050D01*
X017596Y011142D01*
X017535Y011222D01*
X017455Y011283D01*
X017363Y011321D01*
X017347Y011323D01*
X017350Y011373D01*
X017489D01*
Y011555D01*
X017589D01*
Y011373D01*
X017981D01*
Y011555D01*
X018082D01*
Y011373D01*
D02*
G37*
G36*
X017087D02*
X017178D01*
X017181Y011323D01*
X017165Y011321D01*
X017072Y011283D01*
X016993Y011222D01*
X016932Y011142D01*
X016894Y011050D01*
X016881Y010951D01*
X016894Y010852D01*
X016932Y010759D01*
X016993Y010680D01*
X017026Y010654D01*
X017009Y010604D01*
X016519D01*
X016502Y010654D01*
X016535Y010680D01*
X016596Y010759D01*
X016634Y010852D01*
X016647Y010951D01*
X016634Y011050D01*
X016596Y011142D01*
X016535Y011222D01*
X016455Y011283D01*
X016363Y011321D01*
X016347Y011323D01*
X016350Y011373D01*
X016495D01*
Y011555D01*
X016595D01*
Y011373D01*
X016987D01*
Y011555D01*
X017087D01*
Y011373D01*
D02*
G37*
G36*
X016093D02*
X016178D01*
X016181Y011323D01*
X016165Y011321D01*
X016072Y011283D01*
X015993Y011222D01*
X015932Y011142D01*
X015894Y011050D01*
X015881Y010951D01*
X015894Y010852D01*
X015932Y010759D01*
X015993Y010680D01*
X016026Y010654D01*
X016009Y010604D01*
X015519D01*
X015502Y010654D01*
X015535Y010680D01*
X015596Y010759D01*
X015634Y010852D01*
X015647Y010951D01*
X015634Y011050D01*
X015596Y011142D01*
X015535Y011222D01*
X015455Y011283D01*
X015363Y011321D01*
X015347Y011323D01*
X015350Y011373D01*
X015491D01*
Y011555D01*
X015591D01*
Y011373D01*
X015993D01*
Y011555D01*
X016093D01*
Y011373D01*
D02*
G37*
G36*
X015099D02*
X015178D01*
X015181Y011323D01*
X015165Y011321D01*
X015072Y011283D01*
X014993Y011222D01*
X014932Y011142D01*
X014894Y011050D01*
X014881Y010951D01*
X014894Y010852D01*
X014932Y010759D01*
X014993Y010680D01*
X015026Y010654D01*
X015009Y010604D01*
X014519D01*
X014502Y010654D01*
X014535Y010680D01*
X014596Y010759D01*
X014634Y010852D01*
X014647Y010951D01*
X014634Y011050D01*
X014596Y011142D01*
X014535Y011222D01*
X014455Y011283D01*
X014363Y011321D01*
X014347Y011323D01*
X014350Y011373D01*
X014497D01*
Y011555D01*
X014597D01*
Y011373D01*
X014999D01*
Y011555D01*
X015099D01*
Y011373D01*
D02*
G37*
G36*
X014105D02*
X014178D01*
X014181Y011323D01*
X014165Y011321D01*
X014072Y011283D01*
X013993Y011222D01*
X013932Y011142D01*
X013894Y011050D01*
X013881Y010951D01*
X013894Y010852D01*
X013932Y010759D01*
X013993Y010680D01*
X014026Y010654D01*
X014009Y010604D01*
X013519D01*
X013502Y010654D01*
X013535Y010680D01*
X013596Y010759D01*
X013634Y010852D01*
X013647Y010951D01*
X013634Y011050D01*
X013596Y011142D01*
X013535Y011222D01*
X013455Y011283D01*
X013363Y011321D01*
X013347Y011323D01*
X013350Y011373D01*
X013503D01*
Y011555D01*
X013603D01*
Y011373D01*
X014005D01*
Y011555D01*
X014105D01*
Y011373D01*
D02*
G37*
G36*
X013111D02*
X013178D01*
X013181Y011323D01*
X013165Y011321D01*
X013072Y011283D01*
X012993Y011222D01*
X012932Y011142D01*
X012894Y011050D01*
X012881Y010951D01*
X012894Y010852D01*
X012932Y010759D01*
X012993Y010680D01*
X013026Y010654D01*
X013009Y010604D01*
X012519D01*
X012502Y010654D01*
X012535Y010680D01*
X012596Y010759D01*
X012634Y010852D01*
X012647Y010951D01*
X012634Y011050D01*
X012596Y011142D01*
X012535Y011222D01*
X012455Y011283D01*
X012363Y011321D01*
X012347Y011323D01*
X012350Y011373D01*
X012509D01*
Y011555D01*
X012609D01*
Y011373D01*
X013011D01*
Y011555D01*
X013111D01*
Y011373D01*
D02*
G37*
G36*
X012117D02*
X012178D01*
X012181Y011323D01*
X012165Y011321D01*
X012072Y011283D01*
X011993Y011222D01*
X011932Y011142D01*
X011894Y011050D01*
X011881Y010951D01*
X011894Y010852D01*
X011932Y010759D01*
X011993Y010680D01*
X012026Y010654D01*
X012009Y010604D01*
X011519D01*
X011502Y010654D01*
X011535Y010680D01*
X011596Y010759D01*
X011634Y010852D01*
X011647Y010951D01*
X011634Y011050D01*
X011596Y011142D01*
X011535Y011222D01*
X011455Y011283D01*
X011363Y011321D01*
X011347Y011323D01*
X011350Y011373D01*
X011515D01*
Y011555D01*
X011615D01*
Y011373D01*
X012017D01*
Y011555D01*
X012117D01*
Y011373D01*
D02*
G37*
G36*
X011123D02*
X011178D01*
X011181Y011323D01*
X011165Y011321D01*
X011072Y011283D01*
X010993Y011222D01*
X010932Y011142D01*
X010894Y011050D01*
X010881Y010951D01*
X010894Y010852D01*
X010932Y010759D01*
X010993Y010680D01*
X011026Y010654D01*
X011009Y010604D01*
X010519D01*
X010502Y010654D01*
X010535Y010680D01*
X010596Y010759D01*
X010634Y010852D01*
X010647Y010951D01*
X010634Y011050D01*
X010596Y011142D01*
X010535Y011222D01*
X010455Y011283D01*
X010363Y011321D01*
X010347Y011323D01*
X010350Y011373D01*
X010521D01*
Y011555D01*
X010621D01*
Y011373D01*
X011023D01*
Y011555D01*
X011123D01*
Y011373D01*
D02*
G37*
G36*
X010129D02*
X010178D01*
X010181Y011323D01*
X010165Y011321D01*
X010072Y011283D01*
X009993Y011222D01*
X009932Y011142D01*
X009894Y011050D01*
X009881Y010951D01*
X009894Y010852D01*
X009932Y010759D01*
X009993Y010680D01*
X010026Y010654D01*
X010009Y010604D01*
X009519D01*
X009502Y010654D01*
X009535Y010680D01*
X009596Y010759D01*
X009634Y010852D01*
X009647Y010951D01*
X009634Y011050D01*
X009596Y011142D01*
X009535Y011222D01*
X009455Y011283D01*
X009363Y011321D01*
X009347Y011323D01*
X009350Y011373D01*
X009527D01*
Y011555D01*
X009627D01*
Y011373D01*
X010029D01*
Y011555D01*
X010129D01*
Y011373D01*
D02*
G37*
G36*
X009125D02*
X009178D01*
X009181Y011323D01*
X009165Y011321D01*
X009072Y011283D01*
X008993Y011222D01*
X008932Y011142D01*
X008894Y011050D01*
X008881Y010951D01*
X008894Y010852D01*
X008932Y010759D01*
X008993Y010680D01*
X009026Y010654D01*
X009009Y010604D01*
X008811D01*
X008613Y010802D01*
X008634Y010852D01*
X008647Y010951D01*
X008634Y011050D01*
X008596Y011142D01*
X008535Y011222D01*
X008455Y011283D01*
X008363Y011321D01*
X008347Y011323D01*
X008350Y011373D01*
X008533D01*
Y011555D01*
X008633D01*
Y011373D01*
X009025D01*
Y011555D01*
X009125D01*
Y011373D01*
D02*
G37*
G36*
X007766Y011255D02*
Y010705D01*
X007688Y010690D01*
X007616Y010641D01*
X007567Y010568D01*
X007550Y010482D01*
X007567Y010396D01*
X007616Y010324D01*
X007688Y010275D01*
X007766Y010260D01*
Y009483D01*
X004190D01*
X004133Y009540D01*
X004161Y009582D01*
X004165Y009581D01*
X004264Y009568D01*
X004363Y009581D01*
X004455Y009619D01*
X004535Y009680D01*
X004596Y009759D01*
X004634Y009852D01*
X004647Y009951D01*
X004634Y010050D01*
X004596Y010142D01*
X004535Y010222D01*
X004455Y010283D01*
X004363Y010321D01*
X004264Y010334D01*
X004165Y010321D01*
X004072Y010283D01*
X003993Y010222D01*
X003932Y010142D01*
X003894Y010050D01*
X003881Y009951D01*
X003894Y009852D01*
X003895Y009848D01*
X003853Y009820D01*
X003644Y010029D01*
Y010331D01*
X002884D01*
Y009571D01*
X003017D01*
X003033Y009521D01*
X002987Y009452D01*
X002979Y009410D01*
X003441D01*
X003433Y009452D01*
X003387Y009521D01*
X003403Y009571D01*
X003644D01*
X003644Y009571D01*
X003644D01*
X003644D01*
X004008Y009206D01*
X004061Y009171D01*
X004123Y009159D01*
X005650D01*
X005650Y008563D01*
X005305D01*
Y007834D01*
X005259Y007815D01*
X004982Y008091D01*
X004923Y008131D01*
X004854Y008145D01*
X004854Y008145D01*
X002905D01*
X002891Y008213D01*
X002839Y008291D01*
X002760Y008344D01*
X002667Y008362D01*
X002575Y008344D01*
X002496Y008291D01*
X002444Y008213D01*
X002425Y008120D01*
X002444Y008027D01*
X002496Y007949D01*
X002575Y007896D01*
X002648Y007882D01*
X002696Y007834D01*
X002696Y007834D01*
X002755Y007795D01*
X002825Y007781D01*
X002825Y007781D01*
X004778D01*
X005092Y007467D01*
X005091Y007465D01*
X005073Y007372D01*
X005075Y007361D01*
X005043Y007323D01*
X004183D01*
Y007549D01*
X003002D01*
Y006830D01*
X002345D01*
Y006485D01*
X002306Y006453D01*
X002260Y006463D01*
X002167Y006444D01*
X002089Y006392D01*
X002036Y006313D01*
X002018Y006220D01*
X002036Y006128D01*
X002089Y006049D01*
X002167Y005997D01*
X002260Y005978D01*
X002306Y005988D01*
X002345Y005956D01*
Y004460D01*
X002333Y004455D01*
X002295Y004451D01*
X002248Y004522D01*
X002169Y004574D01*
X002077Y004593D01*
X001984Y004574D01*
X001906Y004522D01*
X001853Y004443D01*
X001835Y004350D01*
X001853Y004258D01*
X001906Y004179D01*
X001943Y004154D01*
X001928Y004104D01*
X000820D01*
X000820Y009254D01*
X000862Y009282D01*
X000987Y009230D01*
X001180Y009184D01*
X001378Y009168D01*
X001576Y009184D01*
X001769Y009230D01*
X001952Y009306D01*
X002121Y009410D01*
X002272Y009539D01*
X002401Y009690D01*
X002505Y009859D01*
X002581Y010042D01*
X002627Y010235D01*
X002643Y010433D01*
X002627Y010631D01*
X002581Y010824D01*
X002505Y011007D01*
X002401Y011177D01*
X002343Y011244D01*
X002364Y011290D01*
X002999Y011290D01*
X003016Y011240D01*
X002993Y011222D01*
X002932Y011142D01*
X002894Y011050D01*
X002881Y010951D01*
X002894Y010852D01*
X002932Y010759D01*
X002993Y010680D01*
X003072Y010619D01*
X003165Y010581D01*
X003264Y010568D01*
X003363Y010581D01*
X003455Y010619D01*
X003535Y010680D01*
X003596Y010759D01*
X003634Y010852D01*
X003647Y010951D01*
X003634Y011050D01*
X003596Y011142D01*
X003535Y011222D01*
X003511Y011240D01*
X003528Y011290D01*
X004000Y011290D01*
X004016Y011240D01*
X003993Y011222D01*
X003932Y011142D01*
X003894Y011050D01*
X003881Y010951D01*
X003894Y010852D01*
X003932Y010759D01*
X003993Y010680D01*
X004072Y010619D01*
X004165Y010581D01*
X004264Y010568D01*
X004363Y010581D01*
X004455Y010619D01*
X004535Y010680D01*
X004596Y010759D01*
X004634Y010852D01*
X004647Y010951D01*
X004634Y011050D01*
X004596Y011142D01*
X004535Y011222D01*
X004511Y011240D01*
X004528Y011290D01*
X005000Y011290D01*
X005017Y011240D01*
X004993Y011222D01*
X004932Y011142D01*
X004894Y011050D01*
X004881Y010951D01*
X004894Y010852D01*
X004932Y010759D01*
X004993Y010680D01*
X005072Y010619D01*
X005165Y010581D01*
X005264Y010568D01*
X005363Y010581D01*
X005455Y010619D01*
X005535Y010680D01*
X005596Y010759D01*
X005634Y010852D01*
X005647Y010951D01*
X005634Y011050D01*
X005596Y011142D01*
X005535Y011222D01*
X005511Y011240D01*
X005528Y011290D01*
X006000Y011290D01*
X006017Y011240D01*
X005993Y011222D01*
X005932Y011142D01*
X005894Y011050D01*
X005881Y010951D01*
X005894Y010852D01*
X005932Y010759D01*
X005993Y010680D01*
X006072Y010619D01*
X006165Y010581D01*
X006264Y010568D01*
X006363Y010581D01*
X006455Y010619D01*
X006535Y010680D01*
X006596Y010759D01*
X006634Y010852D01*
X006647Y010951D01*
X006634Y011050D01*
X006596Y011142D01*
X006535Y011222D01*
X006511Y011240D01*
X006528Y011290D01*
X007000Y011290D01*
X007017Y011240D01*
X006993Y011222D01*
X006932Y011142D01*
X006894Y011050D01*
X006881Y010951D01*
X006894Y010852D01*
X006932Y010759D01*
X006993Y010680D01*
X007072Y010619D01*
X007165Y010581D01*
X007264Y010568D01*
X007363Y010581D01*
X007455Y010619D01*
X007535Y010680D01*
X007596Y010759D01*
X007634Y010852D01*
X007647Y010951D01*
X007634Y011050D01*
X007596Y011142D01*
X007535Y011222D01*
X007511Y011240D01*
X007528Y011290D01*
X007730Y011290D01*
X007766Y011255D01*
D02*
G37*
G36*
X024409Y009147D02*
Y002664D01*
X024373Y002630D01*
X024213Y002643D01*
X024015Y002627D01*
X023822Y002581D01*
X023638Y002505D01*
X023469Y002401D01*
X023318Y002272D01*
X023189Y002121D01*
X023085Y001952D01*
X023010Y001769D01*
X022963Y001576D01*
X022948Y001378D01*
X022963Y001180D01*
X023010Y000987D01*
X023026Y000947D01*
X022998Y000906D01*
X020882D01*
X020867Y000956D01*
X020907Y000982D01*
X020947Y001042D01*
X020961Y001112D01*
X020947Y001182D01*
X020907Y001242D01*
X020848Y001282D01*
X020778Y001296D01*
X020707Y001282D01*
X020648Y001242D01*
X020608Y001182D01*
X020594Y001112D01*
X020608Y001042D01*
X020648Y000982D01*
X020688Y000956D01*
X020673Y000906D01*
X019567D01*
Y001506D01*
Y001959D01*
X019567Y002091D01*
X019602Y002126D01*
X020086D01*
X020118Y002120D01*
X020150Y002126D01*
X021348D01*
Y002446D01*
X021467D01*
X021498Y002452D01*
X021524Y002470D01*
X021542Y002497D01*
X021548Y002528D01*
Y002766D01*
X021548Y005844D01*
X021912D01*
X021914Y005844D01*
X021916Y005844D01*
X021930Y005847D01*
X021944Y005850D01*
X021945Y005851D01*
X021947Y005851D01*
X021959Y005860D01*
X021970Y005868D01*
X021971Y005869D01*
X021973Y005870D01*
X021980Y005882D01*
X021988Y005894D01*
X021988Y005896D01*
X021989Y005898D01*
X021998Y005923D01*
X022067Y005909D01*
X022137Y005923D01*
X022169Y005944D01*
X022205Y005908D01*
X022204Y005906D01*
X022190Y005837D01*
X022192Y005826D01*
X022177Y005810D01*
X022148Y005791D01*
X022087Y005804D01*
X022016Y005790D01*
X021957Y005750D01*
X021917Y005690D01*
X021903Y005620D01*
X021917Y005550D01*
X021957Y005490D01*
X022016Y005451D01*
X022087Y005437D01*
X022157Y005451D01*
X022216Y005490D01*
X022256Y005550D01*
X022270Y005620D01*
X022268Y005631D01*
X022282Y005647D01*
X022312Y005666D01*
X022322Y005664D01*
Y005837D01*
X022422D01*
Y005664D01*
X022442Y005668D01*
X022501Y005708D01*
X022540Y005767D01*
X022554Y005837D01*
X022560Y005844D01*
X022743D01*
X022746Y005844D01*
X022750Y005844D01*
X022762Y005847D01*
X022774Y005850D01*
X022777Y005852D01*
X022781Y005853D01*
X022790Y005861D01*
X022800Y005868D01*
X022802Y005871D01*
X022806Y005873D01*
X022811Y005884D01*
X022818Y005894D01*
X022819Y005898D01*
X022821Y005902D01*
X022832Y005939D01*
X022874Y005930D01*
X022916Y005939D01*
X022927Y005902D01*
X022929Y005898D01*
X022930Y005894D01*
X022937Y005884D01*
X022942Y005873D01*
X022946Y005871D01*
X022948Y005868D01*
X022958Y005861D01*
X022967Y005853D01*
X022971Y005852D01*
X022974Y005850D01*
X022986Y005847D01*
X022998Y005844D01*
X023002Y005844D01*
X023006Y005844D01*
X023159D01*
X023191Y005850D01*
X023217Y005868D01*
X023235Y005894D01*
X023241Y005925D01*
X023241Y007198D01*
X023291Y007235D01*
X023332Y007226D01*
X023402Y007240D01*
X023461Y007280D01*
X023501Y007340D01*
X023515Y007410D01*
X023501Y007480D01*
X023461Y007540D01*
X023402Y007580D01*
X023332Y007594D01*
X023291Y007585D01*
X023241Y007622D01*
Y008422D01*
X023704D01*
X023705Y008423D01*
X023706Y008422D01*
X023720Y008426D01*
X023735Y008429D01*
X023736Y008429D01*
X023737Y008430D01*
X023749Y008438D01*
X023761Y008446D01*
X023762Y008447D01*
X023763Y008448D01*
X023769Y008457D01*
X023771Y008461D01*
X023771Y008461D01*
X023779Y008473D01*
X023779Y008473D01*
X023780Y008475D01*
X023780Y008475D01*
X023781Y008477D01*
X023790Y008500D01*
X023860Y008486D01*
X023930Y008500D01*
X023990Y008540D01*
X024030Y008600D01*
X024035Y008628D01*
X024043Y008627D01*
X024093Y008632D01*
X024104Y008635D01*
X024116Y008638D01*
X024119Y008640D01*
X024123Y008641D01*
X024132Y008649D01*
X024142Y008655D01*
X024145Y008659D01*
X024148Y008661D01*
X024153Y008672D01*
X024160Y008682D01*
X024161Y008686D01*
X024163Y008689D01*
X024164Y008701D01*
X024166Y008713D01*
Y009135D01*
X024203Y009169D01*
X024213Y009168D01*
X024373Y009181D01*
X024409Y009147D01*
D02*
G37*
G36*
X020646Y009749D02*
Y009646D01*
X020656Y009591D01*
X020687Y009545D01*
X020946Y009287D01*
X020945Y009268D01*
X020873Y009174D01*
X020827Y009064D01*
X020812Y008947D01*
X020827Y008829D01*
X020863Y008744D01*
X020221Y008103D01*
X020204Y008105D01*
X020170Y008122D01*
X020159Y008180D01*
X020119Y008239D01*
X020060Y008279D01*
X020040Y008283D01*
Y008110D01*
X019990D01*
Y008060D01*
X019818D01*
X019822Y008040D01*
X019861Y007981D01*
X019920Y007942D01*
X019978Y007930D01*
X019995Y007896D01*
X019998Y007879D01*
X019860Y007742D01*
X019830Y007696D01*
X019819Y007642D01*
Y006983D01*
X019769Y006968D01*
X019755Y006989D01*
X019696Y007028D01*
X019668Y007034D01*
Y006860D01*
X019568D01*
Y007033D01*
X019548Y007029D01*
X019503Y006998D01*
X019453Y007018D01*
Y007933D01*
X020063Y008544D01*
X020148Y008508D01*
X020266Y008493D01*
X020383Y008508D01*
X020493Y008554D01*
X020587Y008626D01*
X020659Y008720D01*
X020704Y008829D01*
X020720Y008947D01*
X020704Y009064D01*
X020659Y009174D01*
X020587Y009268D01*
X020493Y009340D01*
X020408Y009375D01*
Y009599D01*
X020455Y009619D01*
X020535Y009680D01*
X020596Y009759D01*
X020646Y009749D01*
D02*
G37*
G36*
X007620Y008976D02*
X007626Y008946D01*
X007666Y008886D01*
X007725Y008846D01*
X007795Y008832D01*
X007866Y008846D01*
X007925Y008886D01*
X007965Y008946D01*
X007971Y008976D01*
X008114D01*
X008129Y008926D01*
X008118Y008919D01*
X008078Y008860D01*
X008065Y008789D01*
X008066Y008781D01*
Y008652D01*
X006545Y007131D01*
X006505Y007072D01*
X006491Y007002D01*
X006491Y007002D01*
Y005778D01*
X006491Y005778D01*
X006505Y005708D01*
X006545Y005649D01*
X006627Y005566D01*
X006632Y005559D01*
X006692Y005519D01*
X006762Y005505D01*
X006832Y005519D01*
X006892Y005559D01*
X006931Y005619D01*
X006945Y005689D01*
X006931Y005759D01*
X006892Y005819D01*
X006885Y005823D01*
X006872Y005836D01*
X006876Y005874D01*
X006922Y005906D01*
X006959Y005899D01*
X007029Y005913D01*
X007088Y005953D01*
X007128Y006012D01*
X007142Y006083D01*
X007128Y006153D01*
X007088Y006212D01*
X007029Y006252D01*
X006959Y006266D01*
X006905Y006256D01*
X006855Y006286D01*
Y006927D01*
X008377Y008448D01*
X008377Y008448D01*
X008416Y008507D01*
X008430Y008577D01*
X008430Y008577D01*
Y008781D01*
X008432Y008789D01*
X008418Y008860D01*
X008378Y008919D01*
X008367Y008926D01*
X008382Y008976D01*
X009568D01*
X009575Y008946D01*
X009614Y008886D01*
X009674Y008846D01*
X009744Y008832D01*
X009752Y008834D01*
X009836D01*
X010231Y008438D01*
Y008107D01*
X009325Y007200D01*
X009286Y007141D01*
X009272Y007072D01*
X009272Y007072D01*
Y004133D01*
X009270Y004125D01*
X009284Y004055D01*
X009324Y003995D01*
X009383Y003955D01*
X009454Y003941D01*
X009524Y003955D01*
X009583Y003995D01*
X009623Y004055D01*
X009637Y004125D01*
X009636Y004133D01*
Y006996D01*
X010542Y007903D01*
X010542Y007903D01*
X010581Y007962D01*
X010595Y008031D01*
X010595Y008031D01*
Y008514D01*
X010595Y008514D01*
X010581Y008583D01*
X010542Y008642D01*
X010254Y008930D01*
X010273Y008976D01*
X012001Y008976D01*
X012021Y008930D01*
X011742Y008652D01*
X011703Y008593D01*
X011689Y008523D01*
X011689Y008523D01*
Y008204D01*
X011398D01*
X011398Y008204D01*
X011328Y008190D01*
X011269Y008151D01*
X011269Y008151D01*
X010848Y007730D01*
X010809Y007671D01*
X010795Y007601D01*
X010795Y007601D01*
Y006476D01*
X010795Y006476D01*
X010809Y006407D01*
X010848Y006348D01*
X011577Y005619D01*
X011577Y005619D01*
X011636Y005580D01*
X011705Y005566D01*
X014078D01*
X014296Y005348D01*
Y004455D01*
X014200Y004359D01*
X014161Y004300D01*
X014147Y004231D01*
X014147Y004230D01*
Y003742D01*
X014147Y003742D01*
X014161Y003672D01*
X014200Y003613D01*
X014462Y003351D01*
X014467Y003345D01*
X014526Y003305D01*
X014596Y003291D01*
X014667Y003305D01*
X014726Y003345D01*
X014766Y003404D01*
X014780Y003474D01*
X014766Y003545D01*
X014726Y003604D01*
X014719Y003609D01*
X014595Y003734D01*
X014601Y003759D01*
X014615Y003784D01*
X014677Y003796D01*
X014737Y003836D01*
X014777Y003895D01*
X014791Y003966D01*
X014777Y004036D01*
X014737Y004095D01*
X014677Y004135D01*
X014607Y004149D01*
X014568Y004141D01*
X014543Y004187D01*
X014607Y004251D01*
X014607Y004251D01*
X014646Y004310D01*
X014660Y004380D01*
X014660Y004380D01*
Y005423D01*
X014646Y005493D01*
X014607Y005552D01*
X014607Y005552D01*
X014282Y005877D01*
X014223Y005916D01*
X014154Y005930D01*
X014154Y005930D01*
X011781D01*
X011159Y006552D01*
Y007526D01*
X011473Y007840D01*
X011871D01*
X011940Y007854D01*
X011945Y007857D01*
X011966Y007862D01*
X012022Y007899D01*
X012060Y007955D01*
X012073Y008022D01*
X012060Y008088D01*
X012053Y008099D01*
Y008448D01*
X012371Y008766D01*
X012509D01*
X012514Y008716D01*
X012449Y008703D01*
X012390Y008663D01*
X012350Y008604D01*
X012336Y008533D01*
X012350Y008463D01*
X012390Y008404D01*
X012397Y008399D01*
X012903Y007893D01*
X012962Y007854D01*
X013032Y007840D01*
X013032Y007840D01*
X013799D01*
X013799Y007840D01*
X013869Y007854D01*
X013928Y007893D01*
X014631Y008596D01*
X014638Y008601D01*
X014677Y008660D01*
X014691Y008730D01*
X014677Y008801D01*
X014638Y008860D01*
X014578Y008900D01*
X014508Y008914D01*
X014438Y008900D01*
X014378Y008860D01*
X014374Y008853D01*
X013724Y008204D01*
X013107D01*
X012877Y008433D01*
X012894Y008488D01*
X012915Y008492D01*
X012974Y008532D01*
X013014Y008591D01*
X013028Y008661D01*
X013017Y008716D01*
X013047Y008766D01*
X013890D01*
X013891Y008765D01*
X013896Y008758D01*
X013955Y008718D01*
X014026Y008704D01*
X014096Y008718D01*
X014155Y008758D01*
X014195Y008818D01*
X014209Y008888D01*
X014201Y008926D01*
X014238Y008976D01*
X015633D01*
X015667Y008925D01*
X015727Y008886D01*
X015797Y008872D01*
X015867Y008886D01*
X015927Y008925D01*
X015961Y008976D01*
X018061D01*
Y007164D01*
X018020Y007138D01*
X018011Y007138D01*
X017943Y007152D01*
X017873Y007138D01*
X017813Y007098D01*
X017773Y007039D01*
X017759Y006969D01*
X017773Y006898D01*
X017813Y006839D01*
X017873Y006799D01*
X017943Y006785D01*
X018011Y006799D01*
X018020Y006799D01*
X018061Y006773D01*
Y005732D01*
X018002Y005720D01*
X017943Y005680D01*
X017903Y005621D01*
X017899Y005601D01*
X018072D01*
Y005501D01*
X017899D01*
X017903Y005482D01*
X017943Y005423D01*
X018002Y005383D01*
X018061Y005371D01*
Y004668D01*
X018011Y004627D01*
X017982Y004632D01*
X017912Y004618D01*
X017853Y004579D01*
X017813Y004519D01*
X017799Y004449D01*
X017813Y004379D01*
X017853Y004319D01*
X017912Y004279D01*
X017982Y004265D01*
X018011Y004271D01*
X018061Y004230D01*
Y002195D01*
X018045Y002188D01*
X017967Y002128D01*
X017906Y002049D01*
X017869Y001958D01*
X017856Y001860D01*
X017869Y001762D01*
X017906Y001671D01*
X017967Y001593D01*
X018045Y001532D01*
X018136Y001495D01*
X018234Y001482D01*
X018332Y001495D01*
X018424Y001532D01*
X018502Y001593D01*
X018562Y001671D01*
X018600Y001762D01*
X018613Y001860D01*
X018600Y001958D01*
X018584Y001996D01*
X018612Y002037D01*
X019262D01*
X019262Y000781D01*
X018640Y000780D01*
X018607Y000817D01*
X018613Y000860D01*
X018600Y000958D01*
X018562Y001049D01*
X018502Y001128D01*
X018424Y001188D01*
X018332Y001226D01*
X018234Y001239D01*
X018136Y001226D01*
X018045Y001188D01*
X017967Y001128D01*
X017906Y001049D01*
X017869Y000958D01*
X017856Y000860D01*
X017862Y000816D01*
X017829Y000778D01*
X017640Y000777D01*
X017607Y000815D01*
X017613Y000860D01*
X017600Y000958D01*
X017562Y001049D01*
X017502Y001128D01*
X017424Y001188D01*
X017332Y001226D01*
X017234Y001239D01*
X017136Y001226D01*
X017045Y001188D01*
X016967Y001128D01*
X016906Y001049D01*
X016869Y000958D01*
X016856Y000860D01*
X016862Y000813D01*
X016829Y000776D01*
X015642Y000773D01*
X015631Y000856D01*
X015594Y000947D01*
X015533Y001026D01*
X015455Y001086D01*
X015364Y001123D01*
X015266Y001136D01*
X015168Y001123D01*
X015076Y001086D01*
X014998Y001026D01*
X014938Y000947D01*
X014900Y000856D01*
X014889Y000771D01*
X014658Y000770D01*
X014647Y000856D01*
X014609Y000947D01*
X014549Y001026D01*
X014471Y001086D01*
X014463Y001089D01*
Y001272D01*
X014884Y001693D01*
X014884Y001693D01*
X014923Y001752D01*
X014925Y001763D01*
X014979Y001775D01*
X014998Y001750D01*
X015076Y001690D01*
X015168Y001652D01*
X015266Y001639D01*
X015364Y001652D01*
X015455Y001690D01*
X015533Y001750D01*
X015594Y001828D01*
X015631Y001920D01*
X015644Y002018D01*
X015631Y002116D01*
X015594Y002207D01*
X015533Y002285D01*
X015455Y002346D01*
X015364Y002383D01*
X015266Y002396D01*
X015168Y002383D01*
X015076Y002346D01*
X014998Y002285D01*
X014979Y002260D01*
X014925Y002273D01*
X014923Y002284D01*
X014884Y002343D01*
X014884Y002343D01*
X014606Y002620D01*
X014547Y002659D01*
X014478Y002673D01*
X014478Y002673D01*
X014346D01*
X012609Y004410D01*
X012550Y004450D01*
X012480Y004463D01*
X012480Y004463D01*
X011069D01*
X010891Y004642D01*
Y005423D01*
X010891Y005423D01*
X010877Y005493D01*
X010837Y005552D01*
X010244Y006145D01*
Y006931D01*
X010246Y006939D01*
X010232Y007009D01*
X010192Y007069D01*
X010132Y007109D01*
X010062Y007122D01*
X009992Y007109D01*
X009932Y007069D01*
X009893Y007009D01*
X009879Y006939D01*
X009880Y006931D01*
Y006070D01*
X009880Y006070D01*
X009894Y006000D01*
X009933Y005941D01*
X010527Y005348D01*
Y004567D01*
X010527Y004567D01*
X010541Y004497D01*
X010580Y004438D01*
X010865Y004153D01*
X010865Y004153D01*
X010924Y004113D01*
X010994Y004100D01*
X010994Y004100D01*
X012405D01*
X014108Y002397D01*
X014099Y002354D01*
X014090Y002344D01*
X014014Y002285D01*
X013954Y002207D01*
X013916Y002116D01*
X013903Y002018D01*
X013916Y001920D01*
X013954Y001828D01*
X014014Y001750D01*
X014092Y001690D01*
X014184Y001652D01*
X014249Y001643D01*
X014267Y001591D01*
X014153Y001476D01*
X014113Y001417D01*
X014100Y001348D01*
X014100Y001348D01*
Y001089D01*
X014092Y001086D01*
X014014Y001026D01*
X013954Y000947D01*
X013916Y000856D01*
X013904Y000769D01*
X013674Y000768D01*
X013663Y000856D01*
X013625Y000947D01*
X013576Y001010D01*
Y001642D01*
X013673D01*
Y002393D01*
X013174D01*
X013131Y002422D01*
X013061Y002436D01*
X013061Y002436D01*
X005804D01*
X005389Y002850D01*
Y003075D01*
X005439Y003092D01*
X005493Y003022D01*
X005599Y002940D01*
X005723Y002889D01*
X005856Y002871D01*
X005989Y002889D01*
X006114Y002940D01*
X006220Y003022D01*
X006302Y003129D01*
X006323Y003181D01*
X006373D01*
X006395Y003129D01*
X006477Y003022D01*
X006583Y002940D01*
X006707Y002889D01*
X006841Y002871D01*
X006974Y002889D01*
X007098Y002940D01*
X007204Y003022D01*
X007286Y003129D01*
X007337Y003253D01*
X007347Y003324D01*
X007397D01*
X007407Y003253D01*
X007458Y003129D01*
X007540Y003022D01*
X007646Y002940D01*
X007770Y002889D01*
X007904Y002871D01*
X008037Y002889D01*
X008161Y002940D01*
X008267Y003022D01*
X008349Y003129D01*
X008371Y003181D01*
X008421D01*
X008442Y003129D01*
X008524Y003022D01*
X008631Y002940D01*
X008755Y002889D01*
X008888Y002871D01*
X009021Y002889D01*
X009145Y002940D01*
X009251Y003022D01*
X009333Y003129D01*
X009385Y003253D01*
X009402Y003386D01*
X009385Y003519D01*
X009333Y003643D01*
X009251Y003750D01*
X009145Y003831D01*
X009021Y003883D01*
X008888Y003900D01*
X008755Y003883D01*
X008631Y003831D01*
X008524Y003750D01*
X008442Y003643D01*
X008421Y003591D01*
X008371D01*
X008349Y003643D01*
X008267Y003750D01*
X008161Y003831D01*
X008085Y003862D01*
Y004058D01*
X008174Y004146D01*
X008442D01*
X008442Y004146D01*
X008512Y004160D01*
X008571Y004199D01*
X008734Y004362D01*
X008734Y004362D01*
X008773Y004421D01*
X008787Y004491D01*
Y007368D01*
X009544Y008125D01*
X009726D01*
X009734Y008124D01*
X009804Y008138D01*
X009864Y008177D01*
X009904Y008237D01*
X009918Y008307D01*
X009904Y008377D01*
X009864Y008437D01*
X009804Y008477D01*
X009734Y008491D01*
X009726Y008489D01*
X009469D01*
X009469Y008489D01*
X009399Y008475D01*
X009340Y008436D01*
X008477Y007572D01*
X008437Y007513D01*
X008423Y007444D01*
X008423Y007444D01*
Y004814D01*
X008373Y004781D01*
X008327Y004790D01*
X008257Y004776D01*
X008197Y004736D01*
X008157Y004677D01*
X008143Y004606D01*
X008152Y004560D01*
X008119Y004510D01*
X008098D01*
X008098Y004510D01*
X008029Y004496D01*
X007970Y004457D01*
X007970Y004457D01*
X007775Y004262D01*
X007735Y004203D01*
X007722Y004133D01*
X007722Y004133D01*
Y003862D01*
X007646Y003831D01*
X007540Y003750D01*
X007458Y003643D01*
X007407Y003519D01*
X007397Y003447D01*
X007347D01*
X007337Y003519D01*
X007286Y003643D01*
X007204Y003750D01*
X007098Y003831D01*
X006974Y003883D01*
X006841Y003900D01*
X006707Y003883D01*
X006583Y003831D01*
X006477Y003750D01*
X006395Y003643D01*
X006373Y003591D01*
X006323D01*
X006302Y003643D01*
X006220Y003750D01*
X006114Y003831D01*
X005989Y003883D01*
X005856Y003900D01*
X005723Y003883D01*
X005599Y003831D01*
X005493Y003750D01*
X005439Y003680D01*
X005389Y003697D01*
Y003901D01*
X005646Y004159D01*
X007313D01*
X007313Y004159D01*
X007382Y004172D01*
X007441Y004212D01*
X008233Y005003D01*
X008240Y005008D01*
X008280Y005068D01*
X008294Y005138D01*
X008280Y005208D01*
X008240Y005268D01*
X008180Y005307D01*
X008110Y005321D01*
X008040Y005307D01*
X007980Y005268D01*
X007976Y005261D01*
X007237Y004522D01*
X005571D01*
X005501Y004509D01*
X005442Y004469D01*
X005442Y004469D01*
X005119Y004146D01*
X005079Y004087D01*
X005077Y004077D01*
X004903Y003903D01*
X004717D01*
X004662Y003892D01*
X004616Y003861D01*
X004397Y003642D01*
X004391Y003634D01*
X004335Y003639D01*
X004333Y003643D01*
X004251Y003750D01*
X004145Y003831D01*
X004021Y003883D01*
X003888Y003900D01*
X003755Y003883D01*
X003631Y003831D01*
X003524Y003750D01*
X003442Y003643D01*
X003421Y003591D01*
X003371D01*
X003349Y003643D01*
X003267Y003750D01*
X003161Y003831D01*
X003037Y003883D01*
X002904Y003900D01*
X002770Y003883D01*
X002646Y003831D01*
X002540Y003750D01*
X002458Y003643D01*
X002407Y003519D01*
X002389Y003386D01*
X002407Y003253D01*
X002458Y003129D01*
X002540Y003022D01*
X002646Y002940D01*
X002770Y002889D01*
X002904Y002871D01*
X003037Y002889D01*
X003161Y002940D01*
X003267Y003022D01*
X003349Y003129D01*
X003371Y003181D01*
X003421D01*
X003442Y003129D01*
X003524Y003022D01*
X003631Y002940D01*
X003755Y002889D01*
X003888Y002871D01*
X004021Y002889D01*
X004145Y002940D01*
X004251Y003022D01*
X004308Y003096D01*
X004362Y003084D01*
X004366Y003064D01*
X004397Y003018D01*
X004837Y002577D01*
X004883Y002546D01*
X004938Y002535D01*
X005190D01*
X005600Y002125D01*
X005659Y002086D01*
X005728Y002072D01*
X005728Y002072D01*
X012922D01*
Y001642D01*
X013018D01*
Y001010D01*
X012969Y000947D01*
X012932Y000856D01*
X012920Y000766D01*
X002970Y000743D01*
X002904Y000752D01*
X002834Y000743D01*
X002519Y000742D01*
X002494Y000786D01*
X002505Y000804D01*
X002581Y000987D01*
X002627Y001177D01*
X002642Y001185D01*
X002675Y001195D01*
X002678Y001192D01*
X002744Y001141D01*
X002821Y001109D01*
X002904Y001098D01*
X002986Y001109D01*
X003063Y001141D01*
X003129Y001192D01*
X003180Y001258D01*
X003212Y001335D01*
X003222Y001417D01*
X003212Y001500D01*
X003180Y001577D01*
X003129Y001643D01*
X003063Y001694D01*
X002986Y001725D01*
X002904Y001736D01*
X002821Y001725D01*
X002744Y001694D01*
X002678Y001643D01*
X002666Y001628D01*
X002612Y001639D01*
X002581Y001769D01*
X002505Y001952D01*
X002401Y002121D01*
X002272Y002272D01*
X002121Y002401D01*
X001952Y002505D01*
X001769Y002581D01*
X001576Y002627D01*
X001378Y002643D01*
X001180Y002627D01*
X000987Y002581D01*
X000862Y002529D01*
X000820Y002557D01*
Y004023D01*
X000820Y004023D01*
X001928D01*
X001932Y004024D01*
X001936Y004023D01*
X001947Y004027D01*
X001959Y004029D01*
X001962Y004031D01*
X001966Y004032D01*
X001975Y004040D01*
X001985Y004047D01*
X001988Y004050D01*
X001991Y004053D01*
X001996Y004063D01*
X002003Y004073D01*
X002004Y004077D01*
X002006Y004081D01*
X002018Y004120D01*
X002077Y004108D01*
X002169Y004127D01*
X002248Y004179D01*
X002300Y004258D01*
X002319Y004350D01*
X002362Y004379D01*
X002374Y004383D01*
X002375Y004384D01*
X002376Y004384D01*
X002388Y004392D01*
X002401Y004400D01*
X002401Y004401D01*
X002403Y004402D01*
X002411Y004414D01*
X002419Y004426D01*
X002419Y004427D01*
X002420Y004429D01*
X002423Y004443D01*
X002426Y004457D01*
X002426Y004458D01*
X002426Y004460D01*
Y005956D01*
X002426Y005960D01*
X002426Y005964D01*
X002423Y005975D01*
X002420Y005987D01*
X002418Y005990D01*
X002417Y005994D01*
X002426Y006043D01*
X002431Y006049D01*
X002484Y006128D01*
X002502Y006220D01*
X002484Y006313D01*
X002431Y006392D01*
X002426Y006398D01*
X002417Y006447D01*
X002418Y006451D01*
X002420Y006454D01*
X002423Y006466D01*
X002426Y006477D01*
X002426Y006481D01*
X002426Y006485D01*
Y006748D01*
X003002D01*
X003033Y006755D01*
X003060Y006772D01*
X003070Y006788D01*
X003084Y006792D01*
X003109Y006792D01*
X003126Y006788D01*
X003158Y006740D01*
X003217Y006701D01*
X003287Y006687D01*
X003358Y006701D01*
X003417Y006740D01*
X003457Y006800D01*
X003471Y006870D01*
X003457Y006940D01*
X003417Y007000D01*
X003358Y007040D01*
X003287Y007054D01*
X003217Y007040D01*
X003158Y007000D01*
X003134Y006964D01*
X003084Y006979D01*
Y007468D01*
X004102D01*
Y007323D01*
X004108Y007292D01*
X004125Y007265D01*
X004152Y007247D01*
X004183Y007241D01*
X005043D01*
X005047Y007242D01*
X005051Y007242D01*
X005063Y007245D01*
X005074Y007247D01*
X005078Y007250D01*
X005082Y007251D01*
X005126Y007227D01*
X005144Y007201D01*
X005222Y007148D01*
X005315Y007130D01*
X005408Y007148D01*
X005486Y007201D01*
X005539Y007279D01*
X005557Y007372D01*
X005539Y007465D01*
X005486Y007543D01*
X005484Y007544D01*
X005478Y007576D01*
X005439Y007635D01*
X005358Y007716D01*
X005363Y007776D01*
X005369Y007786D01*
X005380Y007803D01*
X005387Y007834D01*
Y008065D01*
X005423Y008085D01*
X005437Y008087D01*
X005502Y008074D01*
X005572Y008088D01*
X005632Y008128D01*
X005672Y008188D01*
X005685Y008258D01*
X005672Y008328D01*
X005632Y008388D01*
X005572Y008427D01*
X005552Y008431D01*
X005557Y008481D01*
X005650D01*
X005681Y008488D01*
X005707Y008505D01*
X005725Y008532D01*
X005731Y008563D01*
X005731Y008976D01*
X007620D01*
D02*
G37*
%LPC*%
G36*
X019447Y009016D02*
Y008894D01*
X019569D01*
X019565Y008914D01*
X019526Y008973D01*
X019466Y009012D01*
X019447Y009016D01*
D02*
G37*
G36*
X019347D02*
X019327Y009012D01*
X019268Y008973D01*
X019228Y008914D01*
X019224Y008894D01*
X019347D01*
Y009016D01*
D02*
G37*
G36*
X023810Y008842D02*
X023790Y008838D01*
X023731Y008799D01*
X023692Y008740D01*
X023688Y008720D01*
X023810D01*
Y008842D01*
D02*
G37*
G36*
X019569Y008794D02*
X019447D01*
Y008672D01*
X019466Y008676D01*
X019526Y008715D01*
X019565Y008774D01*
X019569Y008794D01*
D02*
G37*
G36*
X019347D02*
X019224D01*
X019228Y008774D01*
X019268Y008715D01*
X019327Y008676D01*
X019347Y008672D01*
Y008794D01*
D02*
G37*
G36*
X021605Y007682D02*
Y007560D01*
X021727D01*
X021723Y007580D01*
X021684Y007639D01*
X021625Y007678D01*
X021605Y007682D01*
D02*
G37*
G36*
X021505D02*
X021485Y007678D01*
X021426Y007639D01*
X021387Y007580D01*
X021383Y007560D01*
X021505D01*
Y007682D01*
D02*
G37*
G36*
X021727Y007460D02*
X021605D01*
Y007338D01*
X021625Y007341D01*
X021684Y007381D01*
X021723Y007440D01*
X021727Y007460D01*
D02*
G37*
G36*
X021505D02*
X021383D01*
X021387Y007440D01*
X021426Y007381D01*
X021485Y007341D01*
X021505Y007338D01*
Y007460D01*
D02*
G37*
G36*
X022412Y007042D02*
Y006920D01*
X022534D01*
X022531Y006940D01*
X022491Y006999D01*
X022432Y007038D01*
X022412Y007042D01*
D02*
G37*
G36*
X022312D02*
X022292Y007038D01*
X022233Y006999D01*
X022194Y006940D01*
X022190Y006920D01*
X022312D01*
Y007042D01*
D02*
G37*
G36*
X020857Y006895D02*
Y006772D01*
X020979D01*
X020975Y006792D01*
X020936Y006851D01*
X020877Y006891D01*
X020857Y006895D01*
D02*
G37*
G36*
X022534Y006820D02*
X022412D01*
Y006698D01*
X022432Y006702D01*
X022491Y006741D01*
X022531Y006800D01*
X022534Y006820D01*
D02*
G37*
G36*
X022312D02*
X022190D01*
X022194Y006800D01*
X022233Y006741D01*
X022292Y006702D01*
X022312Y006698D01*
Y006820D01*
D02*
G37*
G36*
X022117Y006265D02*
Y006143D01*
X022239D01*
X022235Y006162D01*
X022196Y006221D01*
X022137Y006261D01*
X022117Y006265D01*
D02*
G37*
G36*
X022017D02*
X021997Y006261D01*
X021938Y006221D01*
X021899Y006162D01*
X021895Y006143D01*
X022017D01*
Y006265D01*
D02*
G37*
G36*
X020979Y005068D02*
X020857D01*
Y004946D01*
X020877Y004950D01*
X020936Y004989D01*
X020975Y005048D01*
X020979Y005068D01*
D02*
G37*
G36*
X020198Y003302D02*
Y003180D01*
X020320D01*
X020316Y003200D01*
X020277Y003259D01*
X020217Y003298D01*
X020198Y003302D01*
D02*
G37*
G36*
X020098D02*
X020078Y003298D01*
X020019Y003259D01*
X019979Y003200D01*
X019975Y003180D01*
X020098D01*
Y003302D01*
D02*
G37*
G36*
X020320Y003080D02*
X020198D01*
Y002958D01*
X020217Y002962D01*
X020277Y003001D01*
X020316Y003060D01*
X020320Y003080D01*
D02*
G37*
G36*
X020098D02*
X019975D01*
X019979Y003060D01*
X020019Y003001D01*
X020078Y002962D01*
X020098Y002958D01*
Y003080D01*
D02*
G37*
G36*
X019253Y002918D02*
Y002796D01*
X019375D01*
X019371Y002816D01*
X019332Y002875D01*
X019273Y002914D01*
X019253Y002918D01*
D02*
G37*
G36*
X007264Y010334D02*
X007165Y010321D01*
X007072Y010283D01*
X006993Y010222D01*
X006932Y010142D01*
X006894Y010050D01*
X006881Y009951D01*
X006894Y009852D01*
X006932Y009759D01*
X006993Y009680D01*
X007072Y009619D01*
X007165Y009581D01*
X007264Y009568D01*
X007363Y009581D01*
X007455Y009619D01*
X007535Y009680D01*
X007596Y009759D01*
X007634Y009852D01*
X007647Y009951D01*
X007634Y010050D01*
X007596Y010142D01*
X007535Y010222D01*
X007455Y010283D01*
X007363Y010321D01*
X007264Y010334D01*
D02*
G37*
G36*
X006264D02*
X006165Y010321D01*
X006072Y010283D01*
X005993Y010222D01*
X005932Y010142D01*
X005894Y010050D01*
X005881Y009951D01*
X005894Y009852D01*
X005932Y009759D01*
X005993Y009680D01*
X006072Y009619D01*
X006165Y009581D01*
X006264Y009568D01*
X006363Y009581D01*
X006455Y009619D01*
X006535Y009680D01*
X006596Y009759D01*
X006634Y009852D01*
X006647Y009951D01*
X006634Y010050D01*
X006596Y010142D01*
X006535Y010222D01*
X006455Y010283D01*
X006363Y010321D01*
X006264Y010334D01*
D02*
G37*
G36*
X005264D02*
X005165Y010321D01*
X005072Y010283D01*
X004993Y010222D01*
X004932Y010142D01*
X004894Y010050D01*
X004881Y009951D01*
X004894Y009852D01*
X004932Y009759D01*
X004993Y009680D01*
X005072Y009619D01*
X005165Y009581D01*
X005264Y009568D01*
X005363Y009581D01*
X005455Y009619D01*
X005535Y009680D01*
X005596Y009759D01*
X005634Y009852D01*
X005647Y009951D01*
X005634Y010050D01*
X005596Y010142D01*
X005535Y010222D01*
X005455Y010283D01*
X005363Y010321D01*
X005264Y010334D01*
D02*
G37*
G36*
X003441Y009310D02*
X003260D01*
Y009129D01*
X003302Y009137D01*
X003380Y009190D01*
X003433Y009268D01*
X003441Y009310D01*
D02*
G37*
G36*
X003160D02*
X002979D01*
X002987Y009268D01*
X003040Y009190D01*
X003118Y009137D01*
X003160Y009129D01*
Y009310D01*
D02*
G37*
G36*
X001979Y009089D02*
Y008908D01*
X002160D01*
X002152Y008950D01*
X002099Y009029D01*
X002021Y009081D01*
X001979Y009089D01*
D02*
G37*
G36*
X001879D02*
X001837Y009081D01*
X001759Y009029D01*
X001707Y008950D01*
X001698Y008908D01*
X001879D01*
Y009089D01*
D02*
G37*
G36*
X002160Y008808D02*
X001979D01*
Y008627D01*
X002021Y008636D01*
X002099Y008688D01*
X002152Y008766D01*
X002160Y008808D01*
D02*
G37*
G36*
X001879D02*
X001698D01*
X001707Y008766D01*
X001759Y008688D01*
X001837Y008636D01*
X001879Y008627D01*
Y008808D01*
D02*
G37*
G36*
X002310Y007561D02*
Y007380D01*
X002491D01*
X002483Y007422D01*
X002430Y007500D01*
X002352Y007553D01*
X002310Y007561D01*
D02*
G37*
G36*
X002210D02*
X002168Y007553D01*
X002090Y007500D01*
X002037Y007422D01*
X002029Y007380D01*
X002210D01*
Y007561D01*
D02*
G37*
G36*
X002491Y007280D02*
X002310D01*
Y007099D01*
X002352Y007107D01*
X002430Y007160D01*
X002483Y007238D01*
X002491Y007280D01*
D02*
G37*
G36*
X002210D02*
X002029D01*
X002037Y007238D01*
X002090Y007160D01*
X002168Y007107D01*
X002210Y007099D01*
Y007280D01*
D02*
G37*
G36*
X024017Y006865D02*
Y006743D01*
X024139D01*
X024135Y006763D01*
X024095Y006822D01*
X024036Y006861D01*
X024017Y006865D01*
D02*
G37*
G36*
X023917D02*
X023897Y006861D01*
X023838Y006822D01*
X023798Y006763D01*
X023794Y006743D01*
X023917D01*
Y006865D01*
D02*
G37*
G36*
X024139Y006643D02*
X024017D01*
Y006521D01*
X024036Y006525D01*
X024095Y006564D01*
X024135Y006623D01*
X024139Y006643D01*
D02*
G37*
G36*
X023917D02*
X023794D01*
X023798Y006623D01*
X023838Y006564D01*
X023897Y006525D01*
X023917Y006521D01*
Y006643D01*
D02*
G37*
G36*
X022335Y005027D02*
Y004905D01*
X022458D01*
X022454Y004925D01*
X022414Y004984D01*
X022355Y005023D01*
X022335Y005027D01*
D02*
G37*
G36*
X022235D02*
X022216Y005023D01*
X022156Y004984D01*
X022117Y004925D01*
X022113Y004905D01*
X022235D01*
Y005027D01*
D02*
G37*
G36*
X022458Y004805D02*
X022335D01*
Y004683D01*
X022355Y004687D01*
X022414Y004726D01*
X022454Y004785D01*
X022458Y004805D01*
D02*
G37*
G36*
X022235D02*
X022113D01*
X022117Y004785D01*
X022156Y004726D01*
X022216Y004687D01*
X022235Y004683D01*
Y004805D01*
D02*
G37*
G36*
X022796Y003725D02*
Y003603D01*
X022918D01*
X022914Y003623D01*
X022875Y003682D01*
X022816Y003722D01*
X022796Y003725D01*
D02*
G37*
G36*
X022696D02*
X022676Y003722D01*
X022617Y003682D01*
X022578Y003623D01*
X022574Y003603D01*
X022696D01*
Y003725D01*
D02*
G37*
G36*
X022918Y003503D02*
X022796D01*
Y003381D01*
X022816Y003385D01*
X022875Y003424D01*
X022914Y003483D01*
X022918Y003503D01*
D02*
G37*
G36*
X022696D02*
X022574D01*
X022578Y003483D01*
X022617Y003424D01*
X022676Y003385D01*
X022696Y003381D01*
Y003503D01*
D02*
G37*
G36*
X023820Y003312D02*
Y003190D01*
X023942D01*
X023938Y003210D01*
X023899Y003269D01*
X023839Y003308D01*
X023820Y003312D01*
D02*
G37*
G36*
X023720D02*
X023700Y003308D01*
X023641Y003269D01*
X023601Y003210D01*
X023597Y003190D01*
X023720D01*
Y003312D01*
D02*
G37*
G36*
X023942Y003090D02*
X023820D01*
Y002967D01*
X023839Y002971D01*
X023899Y003011D01*
X023938Y003070D01*
X023942Y003090D01*
D02*
G37*
G36*
X023720D02*
X023597D01*
X023601Y003070D01*
X023641Y003011D01*
X023700Y002971D01*
X023720Y002967D01*
Y003090D01*
D02*
G37*
G36*
X022186Y002682D02*
Y002560D01*
X022308D01*
X022304Y002580D01*
X022265Y002639D01*
X022206Y002678D01*
X022186Y002682D01*
D02*
G37*
G36*
X022086D02*
X022066Y002678D01*
X022007Y002639D01*
X021967Y002580D01*
X021964Y002560D01*
X022086D01*
Y002682D01*
D02*
G37*
G36*
X022308Y002460D02*
X022186D01*
Y002338D01*
X022206Y002341D01*
X022265Y002381D01*
X022304Y002440D01*
X022308Y002460D01*
D02*
G37*
G36*
X022086D02*
X021964D01*
X021967Y002440D01*
X022007Y002381D01*
X022066Y002341D01*
X022086Y002338D01*
Y002460D01*
D02*
G37*
G36*
X019940Y008283D02*
X019920Y008279D01*
X019861Y008239D01*
X019822Y008180D01*
X019818Y008160D01*
X019940D01*
Y008283D01*
D02*
G37*
G36*
X006251Y008273D02*
Y008150D01*
X006373D01*
X006369Y008170D01*
X006330Y008229D01*
X006271Y008269D01*
X006251Y008273D01*
D02*
G37*
G36*
X006151D02*
X006131Y008269D01*
X006072Y008229D01*
X006032Y008170D01*
X006028Y008150D01*
X006151D01*
Y008273D01*
D02*
G37*
G36*
X006373Y008050D02*
X006251D01*
Y007928D01*
X006271Y007932D01*
X006330Y007972D01*
X006369Y008031D01*
X006373Y008050D01*
D02*
G37*
G36*
X006151D02*
X006028D01*
X006032Y008031D01*
X006072Y007972D01*
X006131Y007932D01*
X006151Y007928D01*
Y008050D01*
D02*
G37*
G36*
X013554Y007712D02*
Y007589D01*
X013676D01*
X013672Y007609D01*
X013633Y007668D01*
X013574Y007708D01*
X013554Y007712D01*
D02*
G37*
G36*
X012589Y007702D02*
Y007580D01*
X012712D01*
X012708Y007599D01*
X012668Y007658D01*
X012609Y007698D01*
X012589Y007702D01*
D02*
G37*
G36*
X012489D02*
X012470Y007698D01*
X012411Y007658D01*
X012371Y007599D01*
X012367Y007580D01*
X012489D01*
Y007702D01*
D02*
G37*
G36*
X015010Y008914D02*
X014940Y008900D01*
X014880Y008860D01*
X014840Y008801D01*
X014826Y008730D01*
X014828Y008722D01*
Y008566D01*
X013721Y007459D01*
X013675Y007484D01*
X013676Y007489D01*
X013504D01*
Y007539D01*
X013454D01*
Y007712D01*
X013434Y007708D01*
X013375Y007668D01*
X013336Y007609D01*
X013331Y007587D01*
X013280D01*
X013280Y007590D01*
X013240Y007649D01*
X013180Y007689D01*
X013110Y007703D01*
X013040Y007689D01*
X012980Y007649D01*
X012941Y007590D01*
X012927Y007520D01*
X012941Y007449D01*
X012962Y007417D01*
X012936Y007367D01*
X012701D01*
X012679Y007417D01*
X012708Y007460D01*
X012712Y007480D01*
X012367D01*
X012371Y007460D01*
X012400Y007417D01*
X012378Y007367D01*
X011486D01*
X011417Y007353D01*
X011378Y007327D01*
X011367Y007325D01*
X011307Y007285D01*
X011267Y007226D01*
X011253Y007156D01*
X011267Y007085D01*
X011307Y007026D01*
X011367Y006986D01*
X011437Y006972D01*
X011507Y006986D01*
X011533Y007003D01*
X013704D01*
X013704Y007003D01*
X013774Y007017D01*
X013833Y007056D01*
X015138Y008362D01*
X015178Y008421D01*
X015192Y008491D01*
X015192Y008491D01*
Y008722D01*
X015193Y008730D01*
X015179Y008801D01*
X015140Y008860D01*
X015080Y008900D01*
X015010Y008914D01*
D02*
G37*
G36*
X007924Y006983D02*
Y006861D01*
X008046D01*
X008042Y006881D01*
X008003Y006940D01*
X007944Y006979D01*
X007924Y006983D01*
D02*
G37*
G36*
X007824D02*
X007804Y006979D01*
X007745Y006940D01*
X007706Y006881D01*
X007702Y006861D01*
X007824D01*
Y006983D01*
D02*
G37*
G36*
X015020Y007083D02*
X014949Y007069D01*
X014890Y007029D01*
X014850Y006970D01*
X014836Y006900D01*
X014850Y006829D01*
X014890Y006770D01*
X014949Y006730D01*
X015020Y006716D01*
X015090Y006730D01*
X015149Y006770D01*
X015189Y006829D01*
X015203Y006900D01*
X015189Y006970D01*
X015149Y007029D01*
X015090Y007069D01*
X015020Y007083D01*
D02*
G37*
G36*
X008046Y006761D02*
X007924D01*
Y006639D01*
X007944Y006643D01*
X008003Y006682D01*
X008042Y006741D01*
X008046Y006761D01*
D02*
G37*
G36*
X007824D02*
X007702D01*
X007706Y006741D01*
X007745Y006682D01*
X007804Y006643D01*
X007824Y006639D01*
Y006761D01*
D02*
G37*
G36*
X012687Y006808D02*
X012617Y006794D01*
X012557Y006754D01*
X012517Y006694D01*
X012503Y006624D01*
X012517Y006554D01*
X012557Y006494D01*
X012617Y006454D01*
X012687Y006440D01*
X012757Y006454D01*
X012817Y006494D01*
X012857Y006554D01*
X012871Y006624D01*
X012857Y006694D01*
X012817Y006754D01*
X012757Y006794D01*
X012687Y006808D01*
D02*
G37*
G36*
X003950Y006509D02*
Y006387D01*
X004072D01*
X004068Y006407D01*
X004029Y006466D01*
X003970Y006505D01*
X003950Y006509D01*
D02*
G37*
G36*
X003850D02*
X003830Y006505D01*
X003771Y006466D01*
X003732Y006407D01*
X003728Y006387D01*
X003850D01*
Y006509D01*
D02*
G37*
G36*
X004072Y006287D02*
X003950D01*
Y006165D01*
X003970Y006169D01*
X004029Y006208D01*
X004068Y006267D01*
X004072Y006287D01*
D02*
G37*
G36*
X003850D02*
X003728D01*
X003732Y006267D01*
X003771Y006208D01*
X003830Y006169D01*
X003850Y006165D01*
Y006287D01*
D02*
G37*
G36*
X003910Y006030D02*
X003817Y006012D01*
X003739Y005959D01*
X003686Y005881D01*
X003668Y005788D01*
X003686Y005695D01*
X003739Y005617D01*
X003817Y005564D01*
X003910Y005546D01*
X004003Y005564D01*
X004081Y005617D01*
X004134Y005695D01*
X004152Y005788D01*
X004134Y005881D01*
X004081Y005959D01*
X004003Y006012D01*
X003910Y006030D01*
D02*
G37*
G36*
X012452Y005310D02*
Y005188D01*
X012574D01*
X012570Y005208D01*
X012530Y005267D01*
X012471Y005306D01*
X012452Y005310D01*
D02*
G37*
G36*
X012352D02*
X012332Y005306D01*
X012273Y005267D01*
X012233Y005208D01*
X012229Y005188D01*
X012352D01*
Y005310D01*
D02*
G37*
G36*
X017737Y005231D02*
Y005109D01*
X017859D01*
X017855Y005129D01*
X017816Y005188D01*
X017757Y005227D01*
X017737Y005231D01*
D02*
G37*
G36*
X017637D02*
X017617Y005227D01*
X017558Y005188D01*
X017519Y005129D01*
X017515Y005109D01*
X017637D01*
Y005231D01*
D02*
G37*
G36*
X012574Y005088D02*
X012229D01*
X012233Y005068D01*
X012255Y005035D01*
X012229Y004985D01*
X011494D01*
X011486Y004987D01*
X011416Y004973D01*
X011356Y004933D01*
X011317Y004873D01*
X011303Y004803D01*
X011317Y004733D01*
X011356Y004673D01*
X011416Y004634D01*
X011486Y004620D01*
X011494Y004621D01*
X013819D01*
X013819Y004621D01*
X013889Y004635D01*
X013948Y004675D01*
X014021Y004748D01*
X014027Y004752D01*
X014067Y004812D01*
X014081Y004882D01*
X014067Y004952D01*
X014027Y005012D01*
X013968Y005051D01*
X013898Y005065D01*
X013827Y005051D01*
X013768Y005012D01*
X013763Y005005D01*
X013744Y004985D01*
X012575D01*
X012548Y005035D01*
X012570Y005068D01*
X012574Y005088D01*
D02*
G37*
G36*
X010197Y004967D02*
X010127Y004953D01*
X010067Y004913D01*
X010027Y004854D01*
X010013Y004783D01*
X010027Y004713D01*
X010067Y004654D01*
X010127Y004614D01*
X010197Y004600D01*
X010267Y004614D01*
X010327Y004654D01*
X010366Y004713D01*
X010380Y004783D01*
X010366Y004854D01*
X010327Y004913D01*
X010267Y004953D01*
X010197Y004967D01*
D02*
G37*
G36*
X017859Y005009D02*
X017515D01*
X017519Y004989D01*
X017558Y004930D01*
X017542Y004881D01*
X017517Y004844D01*
X017503Y004774D01*
X017517Y004703D01*
X017557Y004644D01*
X017617Y004604D01*
X017687Y004590D01*
X017757Y004604D01*
X017817Y004644D01*
X017857Y004703D01*
X017871Y004774D01*
X017857Y004844D01*
X017832Y004881D01*
X017816Y004930D01*
X017855Y004989D01*
X017859Y005009D01*
D02*
G37*
G36*
X002785Y004849D02*
X002715Y004835D01*
X002656Y004795D01*
X002616Y004736D01*
X002602Y004665D01*
X002616Y004595D01*
X002656Y004536D01*
X002715Y004496D01*
X002785Y004482D01*
X002856Y004496D01*
X002915Y004536D01*
X002955Y004595D01*
X002969Y004665D01*
X002955Y004736D01*
X002915Y004795D01*
X002856Y004835D01*
X002785Y004849D01*
D02*
G37*
G36*
X004724Y004435D02*
X004654Y004422D01*
X004595Y004382D01*
X004555Y004322D01*
X004541Y004252D01*
X004555Y004182D01*
X004595Y004122D01*
X004654Y004082D01*
X004724Y004068D01*
X004795Y004082D01*
X004854Y004122D01*
X004894Y004182D01*
X004908Y004252D01*
X004894Y004322D01*
X004854Y004382D01*
X004795Y004422D01*
X004724Y004435D01*
D02*
G37*
G36*
X011841Y003900D02*
X011707Y003883D01*
X011583Y003831D01*
X011477Y003750D01*
X011395Y003643D01*
X011373Y003591D01*
X011323D01*
X011302Y003643D01*
X011220Y003750D01*
X011114Y003831D01*
X010989Y003883D01*
X010856Y003900D01*
X010723Y003883D01*
X010599Y003831D01*
X010493Y003750D01*
X010411Y003643D01*
X010359Y003519D01*
X010342Y003386D01*
X010359Y003253D01*
X010411Y003129D01*
X010493Y003022D01*
X010599Y002940D01*
X010723Y002889D01*
X010856Y002871D01*
X010989Y002889D01*
X011114Y002940D01*
X011220Y003022D01*
X011302Y003129D01*
X011323Y003181D01*
X011373D01*
X011395Y003129D01*
X011477Y003022D01*
X011583Y002940D01*
X011707Y002889D01*
X011841Y002871D01*
X011974Y002889D01*
X012098Y002940D01*
X012204Y003022D01*
X012286Y003129D01*
X012337Y003253D01*
X012355Y003386D01*
X012337Y003519D01*
X012286Y003643D01*
X012204Y003750D01*
X012098Y003831D01*
X011974Y003883D01*
X011841Y003900D01*
D02*
G37*
G36*
X017019Y003597D02*
Y003475D01*
X017141D01*
X017137Y003495D01*
X017097Y003554D01*
X017038Y003594D01*
X017019Y003597D01*
D02*
G37*
G36*
X016918D02*
X016899Y003594D01*
X016840Y003554D01*
X016800Y003495D01*
X016796Y003475D01*
X016918D01*
Y003597D01*
D02*
G37*
G36*
X013976Y003687D02*
X013906Y003673D01*
X013847Y003634D01*
X013807Y003574D01*
X013793Y003504D01*
X013807Y003434D01*
X013847Y003374D01*
X013906Y003334D01*
X013976Y003320D01*
X014047Y003334D01*
X014106Y003374D01*
X014146Y003434D01*
X014160Y003504D01*
X014146Y003574D01*
X014106Y003634D01*
X014047Y003673D01*
X013976Y003687D01*
D02*
G37*
G36*
X017141Y003375D02*
X017019D01*
Y003253D01*
X017038Y003257D01*
X017097Y003296D01*
X017137Y003355D01*
X017141Y003375D01*
D02*
G37*
G36*
X016918D02*
X016796D01*
X016800Y003355D01*
X016840Y003296D01*
X016899Y003257D01*
X016918Y003253D01*
Y003375D01*
D02*
G37*
G36*
X009872Y003705D02*
X009790Y003694D01*
X009713Y003662D01*
X009647Y003611D01*
X009596Y003545D01*
X009564Y003468D01*
X009553Y003386D01*
X009564Y003303D01*
X009596Y003226D01*
X009647Y003160D01*
X009713Y003110D01*
X009790Y003078D01*
X009872Y003067D01*
X009955Y003078D01*
X010032Y003110D01*
X010098Y003160D01*
X010148Y003226D01*
X010180Y003303D01*
X010191Y003386D01*
X010180Y003468D01*
X010148Y003545D01*
X010098Y003611D01*
X010032Y003662D01*
X009955Y003694D01*
X009872Y003705D01*
D02*
G37*
G36*
X017608Y002234D02*
X017284D01*
Y001910D01*
X017608D01*
Y002234D01*
D02*
G37*
G36*
X017184D02*
X016860D01*
Y001910D01*
X017184D01*
Y002234D01*
D02*
G37*
G36*
X019046Y001836D02*
Y001713D01*
X019168D01*
X019164Y001733D01*
X019125Y001792D01*
X019066Y001832D01*
X019046Y001836D01*
D02*
G37*
G36*
X018946D02*
X018926Y001832D01*
X018867Y001792D01*
X018828Y001733D01*
X018824Y001713D01*
X018946D01*
Y001836D01*
D02*
G37*
G36*
X019168Y001613D02*
X019046D01*
Y001491D01*
X019066Y001495D01*
X019125Y001535D01*
X019164Y001594D01*
X019168Y001613D01*
D02*
G37*
G36*
X018946D02*
X018824D01*
X018828Y001594D01*
X018867Y001535D01*
X018926Y001495D01*
X018946Y001491D01*
Y001613D01*
D02*
G37*
G36*
X017608Y001810D02*
X017284D01*
Y001486D01*
X017608D01*
Y001810D01*
D02*
G37*
G36*
X017184D02*
X016860D01*
Y001486D01*
X017184D01*
Y001810D01*
D02*
G37*
G36*
X011841Y001736D02*
X011758Y001725D01*
X011681Y001694D01*
X011615Y001643D01*
X011564Y001577D01*
X011532Y001500D01*
X011522Y001417D01*
X011532Y001335D01*
X011564Y001258D01*
X011615Y001192D01*
X011681Y001141D01*
X011758Y001109D01*
X011841Y001098D01*
X011923Y001109D01*
X012000Y001141D01*
X012066Y001192D01*
X012117Y001258D01*
X012149Y001335D01*
X012159Y001417D01*
X012149Y001500D01*
X012117Y001577D01*
X012066Y001643D01*
X012000Y001694D01*
X011923Y001725D01*
X011841Y001736D01*
D02*
G37*
G36*
X007904D02*
X007821Y001725D01*
X007744Y001694D01*
X007678Y001643D01*
X007627Y001577D01*
X007595Y001500D01*
X007585Y001417D01*
X007595Y001335D01*
X007627Y001258D01*
X007678Y001192D01*
X007744Y001141D01*
X007821Y001109D01*
X007904Y001098D01*
X007986Y001109D01*
X008063Y001141D01*
X008129Y001192D01*
X008180Y001258D01*
X008212Y001335D01*
X008222Y001417D01*
X008212Y001500D01*
X008180Y001577D01*
X008129Y001643D01*
X008063Y001694D01*
X007986Y001725D01*
X007904Y001736D01*
D02*
G37*
G36*
X006841D02*
X006758Y001725D01*
X006681Y001694D01*
X006615Y001643D01*
X006564Y001577D01*
X006532Y001500D01*
X006522Y001417D01*
X006532Y001335D01*
X006564Y001258D01*
X006615Y001192D01*
X006681Y001141D01*
X006758Y001109D01*
X006841Y001098D01*
X006923Y001109D01*
X007000Y001141D01*
X007066Y001192D01*
X007117Y001258D01*
X007149Y001335D01*
X007159Y001417D01*
X007149Y001500D01*
X007117Y001577D01*
X007066Y001643D01*
X007000Y001694D01*
X006923Y001725D01*
X006841Y001736D01*
D02*
G37*
G36*
X009872Y001932D02*
X009739Y001914D01*
X009615Y001863D01*
X009508Y001781D01*
X009427Y001675D01*
X009375Y001550D01*
X009358Y001417D01*
X009375Y001284D01*
X009427Y001160D01*
X009508Y001054D01*
X009615Y000972D01*
X009739Y000920D01*
X009872Y000903D01*
X010005Y000920D01*
X010129Y000972D01*
X010236Y001054D01*
X010318Y001160D01*
X010369Y001284D01*
X010386Y001417D01*
X010369Y001550D01*
X010318Y001675D01*
X010236Y001781D01*
X010129Y001863D01*
X010005Y001914D01*
X009872Y001932D01*
D02*
G37*
G36*
X004872D02*
X004739Y001914D01*
X004615Y001863D01*
X004508Y001781D01*
X004427Y001675D01*
X004375Y001550D01*
X004358Y001417D01*
X004375Y001284D01*
X004427Y001160D01*
X004508Y001054D01*
X004615Y000972D01*
X004739Y000920D01*
X004872Y000903D01*
X005005Y000920D01*
X005129Y000972D01*
X005236Y001054D01*
X005318Y001160D01*
X005369Y001284D01*
X005386Y001417D01*
X005369Y001550D01*
X005318Y001675D01*
X005236Y001781D01*
X005129Y001863D01*
X005005Y001914D01*
X004872Y001932D01*
D02*
G37*
%LPD*%
D37*
X010062Y006070D02*
Y006939D01*
Y006070D02*
X010709Y005423D01*
Y004567D02*
Y005423D01*
Y004567D02*
X010994Y004281D01*
X012480D01*
X014270Y002491D01*
X014478D01*
X014755Y002214D01*
Y001822D02*
Y002214D01*
X014282Y001348D02*
X014755Y001822D01*
X014282Y000758D02*
Y001348D01*
X010977Y006476D02*
Y007601D01*
Y006476D02*
X011705Y005748D01*
X014154D01*
X014478Y005423D01*
Y004380D02*
Y005423D01*
X014329Y004231D02*
X014478Y004380D01*
X014329Y003742D02*
Y004231D01*
Y003742D02*
X014596Y003474D01*
X009744Y009016D02*
X009911D01*
X010413Y008514D01*
Y008031D02*
Y008514D01*
X009454Y007072D02*
X010413Y008031D01*
X009454Y004125D02*
Y007072D01*
X013819Y004803D02*
X013898Y004882D01*
X011486Y004803D02*
X013819D01*
X012295Y008948D02*
X013966D01*
X014026Y008888D01*
X010977Y007601D02*
X011398Y008022D01*
X011871Y008523D02*
X012295Y008948D01*
X011871Y008022D02*
Y008523D01*
X011398Y008022D02*
X011871D01*
X007904Y003386D02*
Y004133D01*
X009469Y008307D02*
X009734D01*
X008605Y007444D02*
X009469Y008307D01*
X008605Y004491D02*
Y007444D01*
X008442Y004328D02*
X008605Y004491D01*
X008098Y004328D02*
X008442D01*
X007904Y004133D02*
X008098Y004328D01*
X013061Y002254D02*
X013297Y002018D01*
X005728Y002254D02*
X013061D01*
X005247Y002735D02*
X005728Y002254D01*
X005247Y004017D02*
X005571Y004341D01*
X007313D01*
X008110Y005138D01*
X008248Y008577D02*
Y008789D01*
X006673Y007002D02*
X008248Y008577D01*
X006673Y005778D02*
Y007002D01*
Y005778D02*
X006762Y005689D01*
X003407Y000246D02*
X006270D01*
X013799Y008022D02*
X014508Y008730D01*
X013032Y008022D02*
X013799D01*
X011486Y007185D02*
X013704D01*
X015010Y008491D01*
Y008730D01*
X012520Y008533D02*
X013032Y008022D01*
X006093Y011555D02*
X006594D01*
X007087D01*
X023002D02*
X023425D01*
X022510D02*
X023002D01*
X022008D02*
X022510D01*
X021516D02*
X022008D01*
X021014D02*
X021516D01*
X020522D02*
X021014D01*
X020020D02*
X020522D01*
X019528D02*
X020020D01*
X019026D02*
X019528D01*
X018533D02*
X019026D01*
X018032D02*
X018533D01*
X017539D02*
X018032D01*
X017037D02*
X017539D01*
X016545D02*
X017037D01*
X016043D02*
X016545D01*
X015541D02*
X016043D01*
X015049D02*
X015541D01*
X014547D02*
X015049D01*
X014055D02*
X014547D01*
X013553D02*
X014055D01*
X013061D02*
X013553D01*
X012559D02*
X013061D01*
X012067D02*
X012559D01*
X011565D02*
X012067D01*
X011073D02*
X011565D01*
X010571D02*
X011073D01*
X010079D02*
X010571D01*
X009577D02*
X010079D01*
X009075D02*
X009577D01*
X008583D02*
X009075D01*
X008081D02*
X008583D01*
X007589D02*
X008081D01*
X007087D02*
X007589D01*
X005098D02*
X005600D01*
X004606D02*
X005098D01*
X004104D02*
X004606D01*
X003612D02*
X004104D01*
X003110D02*
X003612D01*
X002608D02*
X003110D01*
X002165D02*
X002608D01*
X000256Y009281D02*
Y009646D01*
Y008917D02*
Y009281D01*
Y002165D02*
Y002441D01*
X010888Y000256D02*
X011356D01*
X010420D02*
X010888D01*
X009952D02*
X010420D01*
X009483D02*
X009952D01*
X009015D02*
X009483D01*
X008547D02*
X009015D01*
X008513D02*
X008547D01*
X016975D02*
X017443D01*
X016506D02*
X016975D01*
X016038D02*
X016506D01*
X015570D02*
X016038D01*
X015102D02*
X015570D01*
X014634D02*
X015102D01*
X014165D02*
X014634D01*
X013697D02*
X014165D01*
X013229D02*
X013697D01*
X012761D02*
X013229D01*
X012293D02*
X012761D01*
X023061D02*
X023425D01*
X022593D02*
X023061D01*
X020252D02*
X020720D01*
X019784D02*
X020252D01*
X018847D02*
X019315D01*
X018379D02*
X018847D01*
X017911D02*
X018379D01*
X025335Y009281D02*
Y009646D01*
Y008839D02*
Y009281D01*
Y008396D02*
Y008839D01*
Y007943D02*
Y008396D01*
Y007500D02*
Y007943D01*
Y007047D02*
Y007500D01*
Y006604D02*
Y007047D01*
Y006152D02*
Y006604D01*
Y005709D02*
Y006152D01*
Y005256D02*
Y005709D01*
Y004813D02*
Y005256D01*
Y004360D02*
Y004813D01*
Y003917D02*
Y004360D01*
Y003465D02*
Y003917D01*
Y003022D02*
Y003465D01*
Y002579D02*
Y003022D01*
Y002165D02*
Y002579D01*
X000256Y004424D02*
Y004705D01*
X019626Y003888D02*
Y006860D01*
X000256Y002441D02*
Y002528D01*
Y002771D01*
Y002891D01*
Y003254D01*
Y003616D01*
Y003979D01*
Y002441D02*
Y002771D01*
Y003254D01*
X020807Y005118D02*
Y006722D01*
X020236Y004035D02*
Y007490D01*
X002165Y000256D02*
X002520D01*
X002667Y008120D02*
X002825Y007963D01*
X004854D01*
X005310Y007506D01*
X021656Y000256D02*
X022125D01*
X021188D02*
X021656D01*
X020720D02*
X021188D01*
X022125D02*
X022593D01*
X017443D02*
X017911D01*
D38*
X004938Y002677D02*
X005305D01*
X004497Y003118D02*
X004938Y002677D01*
X005247Y002735D02*
Y004047D01*
X004962Y003761D02*
X005247Y004047D01*
X004717Y003761D02*
X004962D01*
X004497Y003118D02*
Y003541D01*
X004717Y003761D01*
X021266Y008947D02*
Y009167D01*
X020935Y003278D02*
Y003878D01*
X020423Y002766D02*
X020935Y003278D01*
X020264Y009951D02*
X020266Y009949D01*
Y008947D02*
Y009949D01*
X008264Y010951D02*
X008752Y010463D01*
X020408D01*
X020787Y010083D01*
Y009646D02*
Y010083D01*
Y009646D02*
X021266Y009167D01*
X021264Y010951D02*
X021772Y010443D01*
X019311Y003563D02*
X019390Y003484D01*
X019311Y003563D02*
Y007992D01*
X020266Y008947D01*
X021274Y008071D02*
X021713D01*
X019961Y003917D02*
X020404Y003474D01*
X022874Y006114D02*
Y008563D01*
X023258Y008947D01*
X022746Y009543D02*
Y010295D01*
X022598Y010443D02*
X022746Y010295D01*
X021772Y010443D02*
X022598D01*
X020541Y007339D02*
X021274Y008071D01*
X020541Y004272D02*
Y007339D01*
Y004272D02*
X020935Y003878D01*
X021713Y008071D02*
X022266Y008624D01*
Y009063D01*
X022746Y009543D01*
X019961Y003917D02*
Y007642D01*
X021266Y008947D01*
D42*
X004123Y009321D02*
X018685D01*
X018819Y009187D01*
X018622Y005089D02*
X018849Y005316D01*
X003493Y009951D02*
X004123Y009321D01*
X018849Y005316D02*
Y009151D01*
X003264Y009951D02*
X003493D01*
X018819Y009181D02*
Y009187D01*
Y009181D02*
X018849Y009151D01*
X018622Y002825D02*
Y005089D01*
Y002825D02*
X019144Y002303D01*
X020118D01*
D44*
X014282Y000758D02*
D03*
X013297D02*
D03*
X023258Y008947D02*
D03*
D45*
X017234Y001860D02*
D03*
D46*
X013297Y002018D02*
D03*
D47*
X003264Y009951D02*
D03*
D48*
X008264Y010951D02*
D03*
X020264Y009951D02*
D03*
X021264Y010951D02*
D03*
D50*
X020266Y008947D02*
D03*
X021266D02*
D03*
X022266D02*
D03*
D52*
X007904Y003386D02*
D03*
D53*
X005315Y007372D02*
D03*
X003210Y009360D02*
D03*
X001929Y008858D02*
D03*
X002667Y008120D02*
D03*
X002260Y007330D02*
D03*
D54*
X018996Y001663D02*
D03*
X006201Y008100D02*
D03*
X013898Y004882D02*
D03*
X016968Y003425D02*
D03*
X012402Y005138D02*
D03*
X008248Y008789D02*
D03*
X014026Y008888D02*
D03*
X006270Y000256D02*
D03*
X000256Y004342D02*
D03*
Y004705D02*
D03*
X006762Y005689D02*
D03*
X020236Y006506D02*
D03*
X020807Y006201D02*
D03*
X009744Y009016D02*
D03*
X010062Y006939D02*
D03*
X022285Y004855D02*
D03*
X013504Y007539D02*
D03*
X006594Y011555D02*
D03*
X025335Y002579D02*
D03*
Y003022D02*
D03*
Y003465D02*
D03*
Y003917D02*
D03*
Y004360D02*
D03*
Y004813D02*
D03*
Y005256D02*
D03*
Y005709D02*
D03*
Y006152D02*
D03*
Y006604D02*
D03*
Y007047D02*
D03*
Y007500D02*
D03*
Y007943D02*
D03*
Y008396D02*
D03*
Y008839D02*
D03*
Y009281D02*
D03*
X000256D02*
D03*
Y008917D02*
D03*
Y003979D02*
D03*
Y003616D02*
D03*
Y003254D02*
D03*
Y002891D02*
D03*
Y002528D02*
D03*
X012761Y000256D02*
D03*
X013697D02*
D03*
X014165D02*
D03*
X014634D02*
D03*
X015102D02*
D03*
X016038D02*
D03*
X016506D02*
D03*
X003397D02*
D03*
X003865D02*
D03*
X004333D02*
D03*
X004802D02*
D03*
X005270D02*
D03*
X005738D02*
D03*
X008547D02*
D03*
X009015D02*
D03*
X009483D02*
D03*
X009952D02*
D03*
X010420D02*
D03*
X010888D02*
D03*
X011356D02*
D03*
X012293D02*
D03*
X016975D02*
D03*
X017443D02*
D03*
X017911D02*
D03*
X018379D02*
D03*
X018847D02*
D03*
X019315D02*
D03*
X019784D02*
D03*
X020187D02*
D03*
X020720D02*
D03*
X021171D02*
D03*
X022579Y000246D02*
D03*
X023061Y000256D02*
D03*
X002608Y011555D02*
D03*
X003110D02*
D03*
X003612D02*
D03*
X004104D02*
D03*
X004606D02*
D03*
X005098D02*
D03*
X005600D02*
D03*
X006093D02*
D03*
X007589D02*
D03*
X008583D02*
D03*
X009577D02*
D03*
X010571D02*
D03*
X011565D02*
D03*
X012559D02*
D03*
X013553D02*
D03*
X014547D02*
D03*
X015541D02*
D03*
X016545D02*
D03*
X017539D02*
D03*
X018533D02*
D03*
X019528D02*
D03*
X020522D02*
D03*
X021516D02*
D03*
X022510D02*
D03*
X023002D02*
D03*
X008081D02*
D03*
X009075D02*
D03*
X010079D02*
D03*
X011073D02*
D03*
X012067D02*
D03*
X013061D02*
D03*
X014055D02*
D03*
X015049D02*
D03*
X016043D02*
D03*
X017037D02*
D03*
X018032D02*
D03*
X019026D02*
D03*
X020020D02*
D03*
X021014D02*
D03*
X022008D02*
D03*
X000256Y002165D02*
D03*
X023425Y000256D02*
D03*
X025335Y002165D02*
D03*
X002165Y011555D02*
D03*
X000256Y009646D02*
D03*
X015010Y008730D02*
D03*
X014508D02*
D03*
X011486Y004803D02*
D03*
X012539Y007530D02*
D03*
X019618Y006860D02*
D03*
X019203Y002746D02*
D03*
X019618Y003888D02*
D03*
X021555Y007510D02*
D03*
X022362Y006870D02*
D03*
X023860Y008670D02*
D03*
X019990Y008110D02*
D03*
X019397Y008844D02*
D03*
X025335Y009646D02*
D03*
X023425Y011555D02*
D03*
X007087D02*
D03*
X022874Y006114D02*
D03*
X020404Y003474D02*
D03*
X020423Y002766D02*
D03*
X019390Y003484D02*
D03*
X017687Y005059D02*
D03*
X023770Y003140D02*
D03*
X009454Y004125D02*
D03*
X022067Y006093D02*
D03*
X020807Y006722D02*
D03*
Y005118D02*
D03*
X020148Y003130D02*
D03*
X012520Y008533D02*
D03*
X020236Y007490D02*
D03*
X019619Y004382D02*
D03*
Y004877D02*
D03*
Y005372D02*
D03*
Y006363D02*
D03*
X020238Y005902D02*
D03*
Y005432D02*
D03*
Y004963D02*
D03*
X020806Y005518D02*
D03*
Y005919D02*
D03*
X019619Y005868D02*
D03*
X020238Y006841D02*
D03*
Y004493D02*
D03*
X020236Y004035D02*
D03*
X020118Y002303D02*
D03*
X003900Y006337D02*
D03*
X023332Y007410D02*
D03*
X008110Y005138D02*
D03*
X018072Y005551D02*
D03*
X002520Y000256D02*
D03*
X002165D02*
D03*
X021604D02*
D03*
X022077Y000246D02*
D03*
X011437Y007156D02*
D03*
X009734Y008307D02*
D03*
X022372Y005837D02*
D03*
X023967Y006693D02*
D03*
X014596Y003474D02*
D03*
X022746Y003553D02*
D03*
X022136Y002510D02*
D03*
X007874Y006811D02*
D03*
D55*
X011900Y008022D02*
D03*
D56*
X007774Y010482D02*
D03*
D57*
X013297Y000758D02*
Y002018D01*
M02*
