G04 Layer_Color=8421504*
%FSAX24Y24*%
%MOIN*%
G70*
G01*
G75*
%ADD10R,0.0394X0.0866*%
%ADD11R,0.0250X0.0500*%
%ADD12R,0.0500X0.0250*%
%ADD13R,0.0591X0.0472*%
%ADD14R,0.0472X0.0551*%
G04:AMPARAMS|DCode=15|XSize=50mil|YSize=50mil|CornerRadius=25mil|HoleSize=0mil|Usage=FLASHONLY|Rotation=90.000|XOffset=0mil|YOffset=0mil|HoleType=Round|Shape=RoundedRectangle|*
%AMROUNDEDRECTD15*
21,1,0.0500,0.0000,0,0,90.0*
21,1,0.0000,0.0500,0,0,90.0*
1,1,0.0500,0.0000,0.0000*
1,1,0.0500,0.0000,0.0000*
1,1,0.0500,0.0000,0.0000*
1,1,0.0500,0.0000,0.0000*
%
%ADD15ROUNDEDRECTD15*%
G04:AMPARAMS|DCode=16|XSize=30mil|YSize=30mil|CornerRadius=15mil|HoleSize=0mil|Usage=FLASHONLY|Rotation=180.000|XOffset=0mil|YOffset=0mil|HoleType=Round|Shape=RoundedRectangle|*
%AMROUNDEDRECTD16*
21,1,0.0300,0.0000,0,0,180.0*
21,1,0.0000,0.0300,0,0,180.0*
1,1,0.0300,0.0000,0.0000*
1,1,0.0300,0.0000,0.0000*
1,1,0.0300,0.0000,0.0000*
1,1,0.0300,0.0000,0.0000*
%
%ADD16ROUNDEDRECTD16*%
G04:AMPARAMS|DCode=17|XSize=30mil|YSize=30mil|CornerRadius=15mil|HoleSize=0mil|Usage=FLASHONLY|Rotation=90.000|XOffset=0mil|YOffset=0mil|HoleType=Round|Shape=RoundedRectangle|*
%AMROUNDEDRECTD17*
21,1,0.0300,0.0000,0,0,90.0*
21,1,0.0000,0.0300,0,0,90.0*
1,1,0.0300,0.0000,0.0000*
1,1,0.0300,0.0000,0.0000*
1,1,0.0300,0.0000,0.0000*
1,1,0.0300,0.0000,0.0000*
%
%ADD17ROUNDEDRECTD17*%
%ADD18R,0.0200X0.0200*%
%ADD19R,0.0630X0.0591*%
%ADD20R,0.0472X0.0472*%
%ADD21R,0.0433X0.0551*%
%ADD22R,0.0551X0.0433*%
%ADD23R,0.0433X0.0394*%
%ADD24R,0.0394X0.0512*%
%ADD25R,0.0335X0.0157*%
G04:AMPARAMS|DCode=26|XSize=74.8mil|YSize=74.8mil|CornerRadius=9.4mil|HoleSize=0mil|Usage=FLASHONLY|Rotation=270.000|XOffset=0mil|YOffset=0mil|HoleType=Round|Shape=RoundedRectangle|*
%AMROUNDEDRECTD26*
21,1,0.0748,0.0561,0,0,270.0*
21,1,0.0561,0.0748,0,0,270.0*
1,1,0.0187,-0.0281,-0.0281*
1,1,0.0187,-0.0281,0.0281*
1,1,0.0187,0.0281,0.0281*
1,1,0.0187,0.0281,-0.0281*
%
%ADD26ROUNDEDRECTD26*%
G04:AMPARAMS|DCode=27|XSize=70.9mil|YSize=74.8mil|CornerRadius=8.9mil|HoleSize=0mil|Usage=FLASHONLY|Rotation=270.000|XOffset=0mil|YOffset=0mil|HoleType=Round|Shape=RoundedRectangle|*
%AMROUNDEDRECTD27*
21,1,0.0709,0.0571,0,0,270.0*
21,1,0.0532,0.0748,0,0,270.0*
1,1,0.0177,-0.0285,-0.0266*
1,1,0.0177,-0.0285,0.0266*
1,1,0.0177,0.0285,0.0266*
1,1,0.0177,0.0285,-0.0266*
%
%ADD27ROUNDEDRECTD27*%
G04:AMPARAMS|DCode=28|XSize=82.7mil|YSize=88.6mil|CornerRadius=10.3mil|HoleSize=0mil|Usage=FLASHONLY|Rotation=270.000|XOffset=0mil|YOffset=0mil|HoleType=Round|Shape=RoundedRectangle|*
%AMROUNDEDRECTD28*
21,1,0.0827,0.0679,0,0,270.0*
21,1,0.0620,0.0886,0,0,270.0*
1,1,0.0207,-0.0340,-0.0310*
1,1,0.0207,-0.0340,0.0310*
1,1,0.0207,0.0340,0.0310*
1,1,0.0207,0.0340,-0.0310*
%
%ADD28ROUNDEDRECTD28*%
G04:AMPARAMS|DCode=29|XSize=15.7mil|YSize=78.7mil|CornerRadius=2mil|HoleSize=0mil|Usage=FLASHONLY|Rotation=270.000|XOffset=0mil|YOffset=0mil|HoleType=Round|Shape=RoundedRectangle|*
%AMROUNDEDRECTD29*
21,1,0.0157,0.0748,0,0,270.0*
21,1,0.0118,0.0787,0,0,270.0*
1,1,0.0039,-0.0374,-0.0059*
1,1,0.0039,-0.0374,0.0059*
1,1,0.0039,0.0374,0.0059*
1,1,0.0039,0.0374,-0.0059*
%
%ADD29ROUNDEDRECTD29*%
%ADD30R,0.0394X0.0433*%
%ADD31R,0.0630X0.0551*%
%ADD32R,0.0433X0.0236*%
%ADD33R,0.0551X0.0630*%
%ADD34R,0.0236X0.0433*%
%ADD35R,0.0591X0.0158*%
%ADD36O,0.0276X0.0925*%
%ADD69R,0.0807X0.1004*%
%ADD70R,0.0827X0.0984*%
%ADD71R,0.0670X0.0790*%
%ADD72R,0.0900X0.0960*%
%ADD73R,0.1614X0.1211*%
%ADD74R,0.0748X0.1171*%
%ADD75R,0.0858X0.0889*%
%ADD76R,0.0819X0.0894*%
D10*
X015167Y003101D02*
D03*
Y004301D02*
D03*
X013297D02*
D03*
Y003101D02*
D03*
D11*
X001629Y003376D02*
D03*
X001309D02*
D03*
X000989D02*
D03*
X023962Y007000D02*
D03*
X023642D02*
D03*
X023322D02*
D03*
Y007838D02*
D03*
X023642D02*
D03*
X023962D02*
D03*
D12*
X002470Y008854D02*
D03*
Y009178D02*
D03*
X019793Y001486D02*
D03*
Y001841D02*
D03*
X020413Y001486D02*
D03*
Y001841D02*
D03*
D13*
X021329Y006998D02*
D03*
X018474D02*
D03*
D14*
X023740Y004203D02*
D03*
X024488D02*
D03*
X023740Y005148D02*
D03*
X024488D02*
D03*
D15*
X023258Y008947D02*
D03*
D16*
X024656Y006791D02*
D03*
X002260Y007330D02*
D03*
D17*
Y006220D02*
D03*
D18*
X017992Y005059D02*
D03*
X021791Y005817D02*
D03*
Y006093D02*
D03*
X017992Y004774D02*
D03*
X021791Y005541D02*
D03*
D19*
X008703Y008783D02*
D03*
D20*
X009096Y007504D02*
D03*
X008309D02*
D03*
D21*
X003809Y008385D02*
D03*
X003218D02*
D03*
X004905Y005210D02*
D03*
X004315D02*
D03*
D22*
X017077Y005030D02*
D03*
Y005621D02*
D03*
X017087Y006929D02*
D03*
Y006339D02*
D03*
D23*
X003523Y005187D02*
D03*
X002854D02*
D03*
X002854Y006289D02*
D03*
X003524D02*
D03*
X009023Y005151D02*
D03*
X008354D02*
D03*
X023770Y003386D02*
D03*
X024439D02*
D03*
X010866Y007510D02*
D03*
X010197D02*
D03*
Y008533D02*
D03*
X010866D02*
D03*
X010197Y009045D02*
D03*
X010866D02*
D03*
X010866Y005148D02*
D03*
X010197D02*
D03*
Y006132D02*
D03*
X010866D02*
D03*
X010197Y006644D02*
D03*
X010866D02*
D03*
X012155Y008022D02*
D03*
X011486D02*
D03*
X012155Y005640D02*
D03*
X011486D02*
D03*
X003219Y008982D02*
D03*
X003888D02*
D03*
X004281Y005788D02*
D03*
X004951D02*
D03*
X004951Y006289D02*
D03*
X004282D02*
D03*
X006762Y005157D02*
D03*
X007431D02*
D03*
X008354Y006358D02*
D03*
X009024D02*
D03*
X002854Y005768D02*
D03*
X003524D02*
D03*
X012864Y009045D02*
D03*
X013533D02*
D03*
X011486Y005148D02*
D03*
X012155D02*
D03*
X012155Y006644D02*
D03*
X011486D02*
D03*
X012155Y006132D02*
D03*
X011486D02*
D03*
X010197Y005640D02*
D03*
X010866D02*
D03*
X011486Y007510D02*
D03*
X012155D02*
D03*
Y009045D02*
D03*
X011486D02*
D03*
X012155Y008533D02*
D03*
X011486D02*
D03*
X010197Y008022D02*
D03*
X010866D02*
D03*
X003386Y007618D02*
D03*
X004055D02*
D03*
D24*
X023740Y005994D02*
D03*
X023110D02*
D03*
X019065Y003543D02*
D03*
X018435D02*
D03*
X020748Y003543D02*
D03*
X021378D02*
D03*
X020748Y002815D02*
D03*
X021378D02*
D03*
D25*
X007480Y006339D02*
D03*
Y005827D02*
D03*
X006732D02*
D03*
Y006083D02*
D03*
Y006339D02*
D03*
D26*
X000541Y006339D02*
D03*
Y007283D02*
D03*
D27*
Y005236D02*
D03*
Y008386D02*
D03*
D28*
X001673Y008031D02*
D03*
Y005591D02*
D03*
D29*
X001722Y007067D02*
D03*
Y007323D02*
D03*
Y006299D02*
D03*
Y006555D02*
D03*
Y006811D02*
D03*
D30*
X016309Y004981D02*
D03*
Y005650D02*
D03*
X016319Y006998D02*
D03*
Y006329D02*
D03*
X021014Y001801D02*
D03*
Y001132D02*
D03*
X006732Y007067D02*
D03*
Y007736D02*
D03*
X004528Y008346D02*
D03*
Y009016D02*
D03*
X006112Y005827D02*
D03*
Y005158D02*
D03*
X018533Y007756D02*
D03*
Y008425D02*
D03*
X015955Y007756D02*
D03*
Y008425D02*
D03*
X005512Y005158D02*
D03*
Y005827D02*
D03*
X016299Y003041D02*
D03*
Y003711D02*
D03*
D31*
X022766Y004104D02*
D03*
Y003002D02*
D03*
X017726Y008898D02*
D03*
Y007795D02*
D03*
X016762Y008898D02*
D03*
Y007795D02*
D03*
X017057Y004104D02*
D03*
Y003002D02*
D03*
D32*
X005925Y007726D02*
D03*
Y006978D02*
D03*
X004980D02*
D03*
Y007352D02*
D03*
Y007726D02*
D03*
D33*
X007146Y008730D02*
D03*
X006043D02*
D03*
D34*
X021791Y002057D02*
D03*
X022539D02*
D03*
Y001112D02*
D03*
X022165D02*
D03*
X021791D02*
D03*
D35*
X018474Y006585D02*
D03*
Y006329D02*
D03*
Y006073D02*
D03*
Y005817D02*
D03*
Y005561D02*
D03*
Y005305D02*
D03*
Y005049D02*
D03*
Y004793D02*
D03*
Y004537D02*
D03*
Y004281D02*
D03*
X021329D02*
D03*
Y004537D02*
D03*
Y004793D02*
D03*
Y005049D02*
D03*
Y005305D02*
D03*
Y005561D02*
D03*
Y005817D02*
D03*
Y006073D02*
D03*
Y006329D02*
D03*
Y006585D02*
D03*
D36*
X013512Y006201D02*
D03*
X014012D02*
D03*
X014512D02*
D03*
X015012D02*
D03*
X013512Y008150D02*
D03*
X014012D02*
D03*
X014512D02*
D03*
X015012D02*
D03*
D69*
X015207Y003051D02*
D03*
X013337D02*
D03*
D70*
X015217Y004341D02*
D03*
X013346D02*
D03*
D71*
X001534Y003371D02*
D03*
X023867Y006995D02*
D03*
X023417Y007843D02*
D03*
D72*
X002470Y009016D02*
D03*
D73*
X001319Y003381D02*
D03*
D74*
X019843Y001678D02*
D03*
D75*
X023323Y007892D02*
D03*
D76*
X023941Y006943D02*
D03*
M02*
