G04 Layer_Physical_Order=1*
G04 Layer_Color=255*
%FSAX24Y24*%
%MOIN*%
G70*
G01*
G75*
%ADD10R,0.0394X0.0866*%
%ADD11R,0.0250X0.0500*%
%ADD12R,0.0500X0.0250*%
%ADD13R,0.0591X0.0472*%
%ADD14R,0.0472X0.0551*%
G04:AMPARAMS|DCode=15|XSize=50mil|YSize=50mil|CornerRadius=25mil|HoleSize=0mil|Usage=FLASHONLY|Rotation=90.000|XOffset=0mil|YOffset=0mil|HoleType=Round|Shape=RoundedRectangle|*
%AMROUNDEDRECTD15*
21,1,0.0500,0.0000,0,0,90.0*
21,1,0.0000,0.0500,0,0,90.0*
1,1,0.0500,0.0000,0.0000*
1,1,0.0500,0.0000,0.0000*
1,1,0.0500,0.0000,0.0000*
1,1,0.0500,0.0000,0.0000*
%
%ADD15ROUNDEDRECTD15*%
G04:AMPARAMS|DCode=16|XSize=30mil|YSize=30mil|CornerRadius=15mil|HoleSize=0mil|Usage=FLASHONLY|Rotation=180.000|XOffset=0mil|YOffset=0mil|HoleType=Round|Shape=RoundedRectangle|*
%AMROUNDEDRECTD16*
21,1,0.0300,0.0000,0,0,180.0*
21,1,0.0000,0.0300,0,0,180.0*
1,1,0.0300,0.0000,0.0000*
1,1,0.0300,0.0000,0.0000*
1,1,0.0300,0.0000,0.0000*
1,1,0.0300,0.0000,0.0000*
%
%ADD16ROUNDEDRECTD16*%
G04:AMPARAMS|DCode=17|XSize=30mil|YSize=30mil|CornerRadius=15mil|HoleSize=0mil|Usage=FLASHONLY|Rotation=90.000|XOffset=0mil|YOffset=0mil|HoleType=Round|Shape=RoundedRectangle|*
%AMROUNDEDRECTD17*
21,1,0.0300,0.0000,0,0,90.0*
21,1,0.0000,0.0300,0,0,90.0*
1,1,0.0300,0.0000,0.0000*
1,1,0.0300,0.0000,0.0000*
1,1,0.0300,0.0000,0.0000*
1,1,0.0300,0.0000,0.0000*
%
%ADD17ROUNDEDRECTD17*%
%ADD18R,0.0200X0.0200*%
%ADD19R,0.0630X0.0591*%
%ADD20R,0.0472X0.0472*%
%ADD21R,0.0433X0.0551*%
%ADD22R,0.0551X0.0433*%
%ADD23R,0.0433X0.0394*%
%ADD24R,0.0394X0.0512*%
%ADD25R,0.0335X0.0157*%
G04:AMPARAMS|DCode=26|XSize=74.8mil|YSize=74.8mil|CornerRadius=9.4mil|HoleSize=0mil|Usage=FLASHONLY|Rotation=270.000|XOffset=0mil|YOffset=0mil|HoleType=Round|Shape=RoundedRectangle|*
%AMROUNDEDRECTD26*
21,1,0.0748,0.0561,0,0,270.0*
21,1,0.0561,0.0748,0,0,270.0*
1,1,0.0187,-0.0281,-0.0281*
1,1,0.0187,-0.0281,0.0281*
1,1,0.0187,0.0281,0.0281*
1,1,0.0187,0.0281,-0.0281*
%
%ADD26ROUNDEDRECTD26*%
G04:AMPARAMS|DCode=27|XSize=70.9mil|YSize=74.8mil|CornerRadius=8.9mil|HoleSize=0mil|Usage=FLASHONLY|Rotation=270.000|XOffset=0mil|YOffset=0mil|HoleType=Round|Shape=RoundedRectangle|*
%AMROUNDEDRECTD27*
21,1,0.0709,0.0571,0,0,270.0*
21,1,0.0532,0.0748,0,0,270.0*
1,1,0.0177,-0.0285,-0.0266*
1,1,0.0177,-0.0285,0.0266*
1,1,0.0177,0.0285,0.0266*
1,1,0.0177,0.0285,-0.0266*
%
%ADD27ROUNDEDRECTD27*%
G04:AMPARAMS|DCode=28|XSize=82.7mil|YSize=88.6mil|CornerRadius=10.3mil|HoleSize=0mil|Usage=FLASHONLY|Rotation=270.000|XOffset=0mil|YOffset=0mil|HoleType=Round|Shape=RoundedRectangle|*
%AMROUNDEDRECTD28*
21,1,0.0827,0.0679,0,0,270.0*
21,1,0.0620,0.0886,0,0,270.0*
1,1,0.0207,-0.0340,-0.0310*
1,1,0.0207,-0.0340,0.0310*
1,1,0.0207,0.0340,0.0310*
1,1,0.0207,0.0340,-0.0310*
%
%ADD28ROUNDEDRECTD28*%
G04:AMPARAMS|DCode=29|XSize=15.7mil|YSize=78.7mil|CornerRadius=2mil|HoleSize=0mil|Usage=FLASHONLY|Rotation=270.000|XOffset=0mil|YOffset=0mil|HoleType=Round|Shape=RoundedRectangle|*
%AMROUNDEDRECTD29*
21,1,0.0157,0.0748,0,0,270.0*
21,1,0.0118,0.0787,0,0,270.0*
1,1,0.0039,-0.0374,-0.0059*
1,1,0.0039,-0.0374,0.0059*
1,1,0.0039,0.0374,0.0059*
1,1,0.0039,0.0374,-0.0059*
%
%ADD29ROUNDEDRECTD29*%
%ADD30R,0.0394X0.0433*%
%ADD31R,0.0630X0.0551*%
%ADD32R,0.0433X0.0236*%
%ADD33R,0.0551X0.0630*%
%ADD34R,0.0236X0.0433*%
%ADD35R,0.0591X0.0158*%
%ADD36O,0.0276X0.0925*%
%ADD37C,0.0197*%
%ADD38C,0.0118*%
%ADD39C,0.0100*%
%ADD40C,0.0079*%
%ADD41C,0.0315*%
%ADD42C,0.0157*%
%ADD43C,0.0060*%
%ADD44C,0.0591*%
%ADD45R,0.0591X0.0591*%
%ADD46R,0.0591X0.0591*%
%ADD47R,0.0600X0.0600*%
%ADD48C,0.0600*%
%ADD49C,0.2362*%
%ADD50C,0.0740*%
%ADD51C,0.0472*%
%ADD52C,0.0860*%
%ADD53C,0.0315*%
%ADD54C,0.0200*%
%ADD55C,0.0180*%
%ADD56C,0.0280*%
G36*
X023052Y011373D02*
X023301D01*
X023310Y011350D01*
X023314Y011323D01*
X023189Y011177D01*
X023085Y011007D01*
X023010Y010824D01*
X022963Y010631D01*
X022948Y010433D01*
X022963Y010235D01*
X023010Y010042D01*
X023085Y009859D01*
X023189Y009690D01*
X023318Y009539D01*
X023469Y009410D01*
X023638Y009306D01*
X023822Y009230D01*
X024015Y009184D01*
X024213Y009168D01*
X024410Y009184D01*
X024604Y009230D01*
X024787Y009306D01*
X024956Y009410D01*
X025103Y009535D01*
X025129Y009530D01*
X025153Y009522D01*
Y009331D01*
X025335D01*
Y009232D01*
X025153D01*
Y008889D01*
X025335D01*
Y008789D01*
X025153D01*
Y008446D01*
X025335D01*
Y008346D01*
X025153D01*
Y007993D01*
X025335D01*
Y007893D01*
X025153D01*
Y007550D01*
X025335D01*
Y007450D01*
X025153D01*
Y007097D01*
X025335D01*
Y006997D01*
X025153D01*
Y006654D01*
X025335D01*
Y006554D01*
X025153D01*
Y006202D01*
X025335D01*
Y006102D01*
X025153D01*
Y005759D01*
X025335D01*
Y005659D01*
X025153D01*
Y005306D01*
X025335D01*
Y005206D01*
X025153D01*
Y004863D01*
X025335D01*
Y004763D01*
X025153D01*
Y004410D01*
X025335D01*
Y004310D01*
X025153D01*
Y003967D01*
X025335D01*
Y003867D01*
X025153D01*
Y003515D01*
X025335D01*
Y003415D01*
X025153D01*
Y003072D01*
X025335D01*
Y002972D01*
X025153D01*
Y002629D01*
X025335D01*
Y002529D01*
X025153D01*
Y002289D01*
X025129Y002281D01*
X025103Y002276D01*
X024956Y002401D01*
X024787Y002505D01*
X024604Y002581D01*
X024410Y002627D01*
X024213Y002643D01*
X024015Y002627D01*
X023822Y002581D01*
X023638Y002505D01*
X023469Y002401D01*
X023318Y002272D01*
X023189Y002121D01*
X023085Y001952D01*
X023010Y001769D01*
X022963Y001576D01*
X022948Y001378D01*
X022963Y001180D01*
X023010Y000987D01*
X023085Y000804D01*
X023189Y000634D01*
X023314Y000488D01*
X023310Y000461D01*
X023301Y000438D01*
X023111D01*
Y000256D01*
X023011D01*
Y000438D01*
X021654D01*
Y000256D01*
X021554D01*
Y000438D01*
X021221D01*
Y000256D01*
X021121D01*
Y000438D01*
X020770D01*
Y000256D01*
X020670D01*
Y000438D01*
X020237D01*
Y000256D01*
X020137D01*
Y000438D01*
X019834D01*
Y000256D01*
X019734D01*
Y000428D01*
X019714Y000424D01*
X019696Y000412D01*
X019646Y000439D01*
Y001281D01*
X019819D01*
Y001024D01*
X019830Y000969D01*
X019860Y000923D01*
X020215Y000569D01*
X020261Y000538D01*
X020315Y000528D01*
X022333D01*
X022387Y000538D01*
X022433Y000569D01*
X022610Y000746D01*
X022641Y000792D01*
X022645Y000816D01*
X022737D01*
Y001409D01*
X022341D01*
Y001407D01*
X022215D01*
Y001112D01*
X022115D01*
Y001407D01*
X021989D01*
Y001409D01*
X021593D01*
Y000878D01*
X021526Y000811D01*
X021329D01*
X021289Y000837D01*
Y001082D01*
X021014D01*
Y001132D01*
X020964D01*
Y001452D01*
X020955Y001473D01*
X020981Y001505D01*
X021291D01*
Y001619D01*
X021516D01*
X021516Y001619D01*
X021585Y001633D01*
X021644Y001673D01*
X021732Y001761D01*
X021989D01*
Y002018D01*
X022264Y002293D01*
X022264Y002293D01*
X022271Y002302D01*
X022309Y002327D01*
X022310Y002327D01*
X022341Y002318D01*
X022341Y002310D01*
X022341Y002310D01*
X022341Y002309D01*
Y001761D01*
X022737D01*
Y002354D01*
X022392D01*
X022360Y002389D01*
X022355Y002404D01*
X022359Y002416D01*
X022362Y002417D01*
X022432Y002430D01*
X022491Y002470D01*
X022667Y002646D01*
X023161D01*
Y003358D01*
X022948D01*
Y003533D01*
X022948Y003533D01*
X022934Y003603D01*
X022894Y003662D01*
X022894Y003662D01*
X022880Y003676D01*
X022876Y003683D01*
X022850Y003700D01*
X022865Y003750D01*
X023159D01*
Y004054D01*
X022372D01*
Y003750D01*
X022627D01*
X022642Y003700D01*
X022616Y003683D01*
X022577Y003623D01*
X022563Y003553D01*
X022577Y003483D01*
X022584Y003472D01*
Y003358D01*
X022371D01*
Y002864D01*
X022287Y002780D01*
X022224D01*
X022224Y002780D01*
X022155Y002767D01*
X022096Y002727D01*
X022096Y002727D01*
X022013Y002644D01*
X022006Y002640D01*
X021966Y002580D01*
X021952Y002510D01*
X021954Y002502D01*
Y002497D01*
X021811Y002354D01*
X021593D01*
Y002136D01*
X021440Y001983D01*
X021291D01*
Y002098D01*
X020737D01*
Y002046D01*
X020568D01*
X020563Y002070D01*
X020528Y002122D01*
X020290Y002360D01*
X020288Y002373D01*
X020248Y002433D01*
X020188Y002473D01*
X020118Y002487D01*
X020048Y002473D01*
X019988Y002433D01*
X019949Y002373D01*
X019935Y002303D01*
X019949Y002233D01*
X019988Y002173D01*
X020048Y002134D01*
X020061Y002131D01*
X020101Y002092D01*
X020081Y002046D01*
X019646D01*
Y002510D01*
X017776D01*
Y004346D01*
X017826Y004362D01*
X017853Y004320D01*
X017913Y004280D01*
X017932Y004277D01*
Y004449D01*
X018032D01*
Y004277D01*
X018049Y004280D01*
X018058Y004280D01*
X018099Y004254D01*
Y004123D01*
X018333D01*
Y003879D01*
X018158D01*
Y003207D01*
X018712D01*
Y003879D01*
X018616D01*
Y004123D01*
X018850D01*
Y004440D01*
X018848D01*
Y004487D01*
X018474D01*
Y004587D01*
X018867D01*
X018887Y004604D01*
X018907Y004600D01*
X018978Y004614D01*
X018981Y004616D01*
X019163D01*
X019163Y005659D01*
X019370D01*
Y007972D01*
X019163D01*
X019163Y009527D01*
X018340Y009527D01*
X018337Y009577D01*
X018363Y009581D01*
X018455Y009619D01*
X018535Y009680D01*
X018596Y009759D01*
X018634Y009852D01*
X018647Y009951D01*
X018634Y010050D01*
X018596Y010142D01*
X018535Y010222D01*
X018455Y010283D01*
X018363Y010321D01*
X018264Y010334D01*
X018165Y010321D01*
X018072Y010283D01*
X017993Y010222D01*
X017932Y010142D01*
X017894Y010050D01*
X017881Y009951D01*
X017894Y009852D01*
X017932Y009759D01*
X017993Y009680D01*
X018072Y009619D01*
X018165Y009581D01*
X018191Y009577D01*
X018188Y009527D01*
X017341Y009527D01*
X017338Y009577D01*
X017363Y009581D01*
X017455Y009619D01*
X017535Y009680D01*
X017596Y009759D01*
X017634Y009852D01*
X017647Y009951D01*
X017634Y010050D01*
X017596Y010142D01*
X017535Y010222D01*
X017455Y010283D01*
X017363Y010321D01*
X017264Y010334D01*
X017165Y010321D01*
X017072Y010283D01*
X016993Y010222D01*
X016932Y010142D01*
X016894Y010050D01*
X016881Y009951D01*
X016894Y009852D01*
X016932Y009759D01*
X016993Y009680D01*
X017072Y009619D01*
X017165Y009581D01*
X017190Y009577D01*
X017187Y009527D01*
X016342Y009527D01*
X016338Y009577D01*
X016363Y009581D01*
X016455Y009619D01*
X016535Y009680D01*
X016596Y009759D01*
X016634Y009852D01*
X016647Y009951D01*
X016634Y010050D01*
X016596Y010142D01*
X016535Y010222D01*
X016455Y010283D01*
X016363Y010321D01*
X016264Y010334D01*
X016165Y010321D01*
X016072Y010283D01*
X015993Y010222D01*
X015932Y010142D01*
X015894Y010050D01*
X015881Y009951D01*
X015894Y009852D01*
X015932Y009759D01*
X015993Y009680D01*
X016072Y009619D01*
X016165Y009581D01*
X016189Y009577D01*
X016186Y009527D01*
X015343Y009527D01*
X015339Y009577D01*
X015363Y009581D01*
X015455Y009619D01*
X015535Y009680D01*
X015596Y009759D01*
X015634Y009852D01*
X015647Y009951D01*
X015634Y010050D01*
X015596Y010142D01*
X015535Y010222D01*
X015455Y010283D01*
X015363Y010321D01*
X015264Y010334D01*
X015165Y010321D01*
X015072Y010283D01*
X014993Y010222D01*
X014932Y010142D01*
X014894Y010050D01*
X014881Y009951D01*
X014894Y009852D01*
X014932Y009759D01*
X014993Y009680D01*
X015072Y009619D01*
X015165Y009581D01*
X015188Y009577D01*
X015185Y009527D01*
X014343Y009528D01*
X014340Y009578D01*
X014363Y009581D01*
X014455Y009619D01*
X014535Y009680D01*
X014596Y009759D01*
X014634Y009852D01*
X014647Y009951D01*
X014634Y010050D01*
X014596Y010142D01*
X014535Y010222D01*
X014455Y010283D01*
X014363Y010321D01*
X014264Y010334D01*
X014165Y010321D01*
X014072Y010283D01*
X013993Y010222D01*
X013932Y010142D01*
X013894Y010050D01*
X013881Y009951D01*
X013894Y009852D01*
X013932Y009759D01*
X013993Y009680D01*
X014072Y009619D01*
X014165Y009581D01*
X014187Y009578D01*
X014184Y009528D01*
X013344Y009528D01*
X013341Y009578D01*
X013363Y009581D01*
X013455Y009619D01*
X013535Y009680D01*
X013596Y009759D01*
X013634Y009852D01*
X013647Y009951D01*
X013634Y010050D01*
X013596Y010142D01*
X013535Y010222D01*
X013455Y010283D01*
X013363Y010321D01*
X013264Y010334D01*
X013165Y010321D01*
X013072Y010283D01*
X012993Y010222D01*
X012932Y010142D01*
X012894Y010050D01*
X012881Y009951D01*
X012894Y009852D01*
X012932Y009759D01*
X012993Y009680D01*
X013072Y009619D01*
X013165Y009581D01*
X013186Y009578D01*
X013183Y009528D01*
X012345Y009528D01*
X012342Y009578D01*
X012363Y009581D01*
X012455Y009619D01*
X012535Y009680D01*
X012596Y009759D01*
X012634Y009852D01*
X012647Y009951D01*
X012634Y010050D01*
X012596Y010142D01*
X012535Y010222D01*
X012455Y010283D01*
X012363Y010321D01*
X012264Y010334D01*
X012165Y010321D01*
X012072Y010283D01*
X011993Y010222D01*
X011932Y010142D01*
X011894Y010050D01*
X011881Y009951D01*
X011894Y009852D01*
X011932Y009759D01*
X011993Y009680D01*
X012072Y009619D01*
X012165Y009581D01*
X012186Y009578D01*
X012182Y009528D01*
X011346Y009528D01*
X011343Y009578D01*
X011363Y009581D01*
X011455Y009619D01*
X011535Y009680D01*
X011596Y009759D01*
X011634Y009852D01*
X011647Y009951D01*
X011634Y010050D01*
X011596Y010142D01*
X011535Y010222D01*
X011455Y010283D01*
X011363Y010321D01*
X011264Y010334D01*
X011165Y010321D01*
X011072Y010283D01*
X010993Y010222D01*
X010932Y010142D01*
X010894Y010050D01*
X010881Y009951D01*
X010894Y009852D01*
X010932Y009759D01*
X010993Y009680D01*
X011072Y009619D01*
X011165Y009581D01*
X011185Y009578D01*
X011181Y009528D01*
X010347Y009528D01*
X010344Y009578D01*
X010363Y009581D01*
X010455Y009619D01*
X010535Y009680D01*
X010596Y009759D01*
X010634Y009852D01*
X010647Y009951D01*
X010634Y010050D01*
X010596Y010142D01*
X010535Y010222D01*
X010455Y010283D01*
X010363Y010321D01*
X010264Y010334D01*
X010165Y010321D01*
X010072Y010283D01*
X009993Y010222D01*
X009932Y010142D01*
X009894Y010050D01*
X009881Y009951D01*
X009894Y009852D01*
X009932Y009759D01*
X009993Y009680D01*
X010072Y009619D01*
X010165Y009581D01*
X010184Y009578D01*
X010180Y009528D01*
X009348Y009528D01*
X009345Y009578D01*
X009363Y009581D01*
X009455Y009619D01*
X009535Y009680D01*
X009596Y009759D01*
X009634Y009852D01*
X009647Y009951D01*
X009634Y010050D01*
X009596Y010142D01*
X009535Y010222D01*
X009455Y010283D01*
X009363Y010321D01*
X009264Y010334D01*
X009165Y010321D01*
X009072Y010283D01*
X008993Y010222D01*
X008932Y010142D01*
X008894Y010050D01*
X008881Y009951D01*
X008894Y009852D01*
X008932Y009759D01*
X008993Y009680D01*
X009072Y009619D01*
X009165Y009581D01*
X009183Y009578D01*
X009180Y009528D01*
X008349Y009528D01*
X008346Y009578D01*
X008363Y009581D01*
X008455Y009619D01*
X008535Y009680D01*
X008596Y009759D01*
X008634Y009852D01*
X008647Y009951D01*
X008634Y010050D01*
X008596Y010142D01*
X008535Y010222D01*
X008455Y010283D01*
X008363Y010321D01*
X008264Y010334D01*
X008165Y010321D01*
X008072Y010283D01*
X007993Y010222D01*
X007932Y010142D01*
X007894Y010050D01*
X007887Y010003D01*
X007837Y010007D01*
Y010262D01*
X007860Y010276D01*
X007932Y010325D01*
X007980Y010397D01*
X007987Y010432D01*
X007774D01*
Y010532D01*
X007987D01*
X007980Y010568D01*
X007932Y010640D01*
X007860Y010688D01*
X007837Y010703D01*
Y010895D01*
X007887Y010898D01*
X007894Y010852D01*
X007932Y010759D01*
X007993Y010680D01*
X008072Y010619D01*
X008165Y010581D01*
X008264Y010568D01*
X008363Y010581D01*
X008455Y010619D01*
X008535Y010680D01*
X008596Y010759D01*
X008634Y010852D01*
X008647Y010951D01*
X008634Y011050D01*
X008596Y011142D01*
X008535Y011222D01*
X008455Y011283D01*
X008363Y011321D01*
X008347Y011323D01*
X008350Y011373D01*
X008533D01*
Y011555D01*
X008633D01*
Y011373D01*
X009025D01*
Y011555D01*
X009125D01*
Y011373D01*
X009178D01*
X009181Y011323D01*
X009165Y011321D01*
X009072Y011283D01*
X008993Y011222D01*
X008932Y011142D01*
X008894Y011050D01*
X008881Y010951D01*
X008894Y010852D01*
X008932Y010759D01*
X008993Y010680D01*
X009072Y010619D01*
X009165Y010581D01*
X009264Y010568D01*
X009363Y010581D01*
X009455Y010619D01*
X009535Y010680D01*
X009596Y010759D01*
X009634Y010852D01*
X009647Y010951D01*
X009634Y011050D01*
X009596Y011142D01*
X009535Y011222D01*
X009455Y011283D01*
X009363Y011321D01*
X009347Y011323D01*
X009350Y011373D01*
X009527D01*
Y011555D01*
X009627D01*
Y011373D01*
X010029D01*
Y011555D01*
X010129D01*
Y011373D01*
X010178D01*
X010181Y011323D01*
X010165Y011321D01*
X010072Y011283D01*
X009993Y011222D01*
X009932Y011142D01*
X009894Y011050D01*
X009881Y010951D01*
X009894Y010852D01*
X009932Y010759D01*
X009993Y010680D01*
X010072Y010619D01*
X010165Y010581D01*
X010264Y010568D01*
X010363Y010581D01*
X010455Y010619D01*
X010535Y010680D01*
X010596Y010759D01*
X010634Y010852D01*
X010647Y010951D01*
X010634Y011050D01*
X010596Y011142D01*
X010535Y011222D01*
X010455Y011283D01*
X010363Y011321D01*
X010347Y011323D01*
X010350Y011373D01*
X010521D01*
Y011555D01*
X010621D01*
Y011373D01*
X011023D01*
Y011555D01*
X011123D01*
Y011373D01*
X011178D01*
X011181Y011323D01*
X011165Y011321D01*
X011072Y011283D01*
X010993Y011222D01*
X010932Y011142D01*
X010894Y011050D01*
X010881Y010951D01*
X010894Y010852D01*
X010932Y010759D01*
X010993Y010680D01*
X011072Y010619D01*
X011165Y010581D01*
X011264Y010568D01*
X011363Y010581D01*
X011455Y010619D01*
X011535Y010680D01*
X011596Y010759D01*
X011634Y010852D01*
X011647Y010951D01*
X011634Y011050D01*
X011596Y011142D01*
X011535Y011222D01*
X011455Y011283D01*
X011363Y011321D01*
X011347Y011323D01*
X011350Y011373D01*
X011515D01*
Y011555D01*
X011615D01*
Y011373D01*
X012017D01*
Y011555D01*
X012117D01*
Y011373D01*
X012178D01*
X012181Y011323D01*
X012165Y011321D01*
X012072Y011283D01*
X011993Y011222D01*
X011932Y011142D01*
X011894Y011050D01*
X011881Y010951D01*
X011894Y010852D01*
X011932Y010759D01*
X011993Y010680D01*
X012072Y010619D01*
X012165Y010581D01*
X012264Y010568D01*
X012363Y010581D01*
X012455Y010619D01*
X012535Y010680D01*
X012596Y010759D01*
X012634Y010852D01*
X012647Y010951D01*
X012634Y011050D01*
X012596Y011142D01*
X012535Y011222D01*
X012455Y011283D01*
X012363Y011321D01*
X012347Y011323D01*
X012350Y011373D01*
X012509D01*
Y011555D01*
X012609D01*
Y011373D01*
X013011D01*
Y011555D01*
X013111D01*
Y011373D01*
X013178D01*
X013181Y011323D01*
X013165Y011321D01*
X013072Y011283D01*
X012993Y011222D01*
X012932Y011142D01*
X012894Y011050D01*
X012881Y010951D01*
X012894Y010852D01*
X012932Y010759D01*
X012993Y010680D01*
X013072Y010619D01*
X013165Y010581D01*
X013264Y010568D01*
X013363Y010581D01*
X013455Y010619D01*
X013535Y010680D01*
X013596Y010759D01*
X013634Y010852D01*
X013647Y010951D01*
X013634Y011050D01*
X013596Y011142D01*
X013535Y011222D01*
X013455Y011283D01*
X013363Y011321D01*
X013347Y011323D01*
X013350Y011373D01*
X013503D01*
Y011555D01*
X013603D01*
Y011373D01*
X014005D01*
Y011555D01*
X014105D01*
Y011373D01*
X014178D01*
X014181Y011323D01*
X014165Y011321D01*
X014072Y011283D01*
X013993Y011222D01*
X013932Y011142D01*
X013894Y011050D01*
X013881Y010951D01*
X013894Y010852D01*
X013932Y010759D01*
X013993Y010680D01*
X014072Y010619D01*
X014165Y010581D01*
X014264Y010568D01*
X014363Y010581D01*
X014455Y010619D01*
X014535Y010680D01*
X014596Y010759D01*
X014634Y010852D01*
X014647Y010951D01*
X014634Y011050D01*
X014596Y011142D01*
X014535Y011222D01*
X014455Y011283D01*
X014363Y011321D01*
X014347Y011323D01*
X014350Y011373D01*
X014497D01*
Y011555D01*
X014597D01*
Y011373D01*
X014999D01*
Y011555D01*
X015099D01*
Y011373D01*
X015178D01*
X015181Y011323D01*
X015165Y011321D01*
X015072Y011283D01*
X014993Y011222D01*
X014932Y011142D01*
X014894Y011050D01*
X014881Y010951D01*
X014894Y010852D01*
X014932Y010759D01*
X014993Y010680D01*
X015072Y010619D01*
X015165Y010581D01*
X015264Y010568D01*
X015363Y010581D01*
X015455Y010619D01*
X015535Y010680D01*
X015596Y010759D01*
X015634Y010852D01*
X015647Y010951D01*
X015634Y011050D01*
X015596Y011142D01*
X015535Y011222D01*
X015455Y011283D01*
X015363Y011321D01*
X015347Y011323D01*
X015350Y011373D01*
X015491D01*
Y011555D01*
X015591D01*
Y011373D01*
X015993D01*
Y011555D01*
X016093D01*
Y011373D01*
X016178D01*
X016181Y011323D01*
X016165Y011321D01*
X016072Y011283D01*
X015993Y011222D01*
X015932Y011142D01*
X015894Y011050D01*
X015881Y010951D01*
X015894Y010852D01*
X015932Y010759D01*
X015993Y010680D01*
X016072Y010619D01*
X016165Y010581D01*
X016264Y010568D01*
X016363Y010581D01*
X016455Y010619D01*
X016535Y010680D01*
X016596Y010759D01*
X016634Y010852D01*
X016647Y010951D01*
X016634Y011050D01*
X016596Y011142D01*
X016535Y011222D01*
X016455Y011283D01*
X016363Y011321D01*
X016347Y011323D01*
X016350Y011373D01*
X016495D01*
Y011555D01*
X016595D01*
Y011373D01*
X016987D01*
Y011555D01*
X017087D01*
Y011373D01*
X017178D01*
X017181Y011323D01*
X017165Y011321D01*
X017072Y011283D01*
X016993Y011222D01*
X016932Y011142D01*
X016894Y011050D01*
X016881Y010951D01*
X016894Y010852D01*
X016932Y010759D01*
X016993Y010680D01*
X017072Y010619D01*
X017165Y010581D01*
X017264Y010568D01*
X017363Y010581D01*
X017455Y010619D01*
X017535Y010680D01*
X017596Y010759D01*
X017634Y010852D01*
X017647Y010951D01*
X017634Y011050D01*
X017596Y011142D01*
X017535Y011222D01*
X017455Y011283D01*
X017363Y011321D01*
X017347Y011323D01*
X017350Y011373D01*
X017489D01*
Y011555D01*
X017589D01*
Y011373D01*
X017981D01*
Y011555D01*
X018082D01*
Y011373D01*
X018178D01*
X018181Y011323D01*
X018165Y011321D01*
X018072Y011283D01*
X017993Y011222D01*
X017932Y011142D01*
X017894Y011050D01*
X017881Y010951D01*
X017894Y010852D01*
X017932Y010759D01*
X017993Y010680D01*
X018072Y010619D01*
X018165Y010581D01*
X018264Y010568D01*
X018363Y010581D01*
X018455Y010619D01*
X018535Y010680D01*
X018596Y010759D01*
X018634Y010852D01*
X018647Y010951D01*
X018634Y011050D01*
X018596Y011142D01*
X018535Y011222D01*
X018455Y011283D01*
X018363Y011321D01*
X018347Y011323D01*
X018350Y011373D01*
X018483D01*
Y011555D01*
X018583D01*
Y011373D01*
X018976D01*
Y011555D01*
X019076D01*
Y011373D01*
X019178D01*
X019181Y011323D01*
X019165Y011321D01*
X019072Y011283D01*
X018993Y011222D01*
X018932Y011142D01*
X018894Y011050D01*
X018881Y010951D01*
X018894Y010852D01*
X018932Y010759D01*
X018993Y010680D01*
X019072Y010619D01*
X019165Y010581D01*
X019264Y010568D01*
X019363Y010581D01*
X019455Y010619D01*
X019535Y010680D01*
X019596Y010759D01*
X019634Y010852D01*
X019647Y010951D01*
X019634Y011050D01*
X019596Y011142D01*
X019535Y011222D01*
X019455Y011283D01*
X019363Y011321D01*
X019347Y011323D01*
X019350Y011373D01*
X019478D01*
Y011555D01*
X019578D01*
Y011373D01*
X019970D01*
Y011555D01*
X020070D01*
Y011373D01*
X020178D01*
X020181Y011323D01*
X020165Y011321D01*
X020072Y011283D01*
X019993Y011222D01*
X019932Y011142D01*
X019894Y011050D01*
X019881Y010951D01*
X019894Y010852D01*
X019932Y010759D01*
X019993Y010680D01*
X020072Y010619D01*
X020165Y010581D01*
X020264Y010568D01*
X020363Y010581D01*
X020455Y010619D01*
X020535Y010680D01*
X020596Y010759D01*
X020634Y010852D01*
X020647Y010951D01*
X020634Y011050D01*
X020596Y011142D01*
X020535Y011222D01*
X020455Y011283D01*
X020363Y011321D01*
X020347Y011323D01*
X020350Y011373D01*
X020472D01*
Y011555D01*
X020572D01*
Y011373D01*
X020964D01*
Y011555D01*
X021064D01*
Y011373D01*
X021178D01*
X021181Y011323D01*
X021165Y011321D01*
X021072Y011283D01*
X020993Y011222D01*
X020932Y011142D01*
X020894Y011050D01*
X020881Y010951D01*
X020894Y010852D01*
X020932Y010759D01*
X020993Y010680D01*
X021072Y010619D01*
X021165Y010581D01*
X021264Y010568D01*
X021363Y010581D01*
X021455Y010619D01*
X021535Y010680D01*
X021596Y010759D01*
X021634Y010852D01*
X021647Y010951D01*
X021634Y011050D01*
X021596Y011142D01*
X021535Y011222D01*
X021455Y011283D01*
X021363Y011321D01*
X021347Y011323D01*
X021350Y011373D01*
X021466D01*
Y011555D01*
X021566D01*
Y011373D01*
X021958D01*
Y011555D01*
X022058D01*
Y011373D01*
X022178D01*
X022181Y011323D01*
X022165Y011321D01*
X022072Y011283D01*
X021993Y011222D01*
X021932Y011142D01*
X021894Y011050D01*
X021881Y010951D01*
X021894Y010852D01*
X021932Y010759D01*
X021993Y010680D01*
X022072Y010619D01*
X022165Y010581D01*
X022264Y010568D01*
X022363Y010581D01*
X022455Y010619D01*
X022535Y010680D01*
X022596Y010759D01*
X022634Y010852D01*
X022647Y010951D01*
X022634Y011050D01*
X022596Y011142D01*
X022535Y011222D01*
X022455Y011283D01*
X022363Y011321D01*
X022347Y011323D01*
X022350Y011373D01*
X022460D01*
Y011555D01*
X022560D01*
Y011373D01*
X022952D01*
Y011555D01*
X023052D01*
Y011373D01*
D02*
G37*
G36*
X003160D02*
X003178D01*
X003181Y011323D01*
X003165Y011321D01*
X003072Y011283D01*
X002993Y011222D01*
X002932Y011142D01*
X002894Y011050D01*
X002881Y010951D01*
X002894Y010852D01*
X002898Y010842D01*
X002672Y010616D01*
X002625Y010640D01*
X002581Y010824D01*
X002505Y011007D01*
X002401Y011177D01*
X002276Y011323D01*
X002281Y011350D01*
X002289Y011373D01*
X002558D01*
Y011555D01*
X002658D01*
Y011373D01*
X003060D01*
Y011555D01*
X003160D01*
Y011373D01*
D02*
G37*
G36*
X005953Y011704D02*
X005959Y011679D01*
X005923Y011625D01*
X005909Y011555D01*
X005923Y011485D01*
X005963Y011425D01*
X006022Y011386D01*
X006093Y011372D01*
X006101Y011373D01*
X006178D01*
X006181Y011323D01*
X006165Y011321D01*
X006072Y011283D01*
X005993Y011222D01*
X005932Y011142D01*
X005894Y011050D01*
X005881Y010951D01*
X005894Y010852D01*
X005932Y010759D01*
X005993Y010680D01*
X006072Y010619D01*
X006165Y010581D01*
X006264Y010568D01*
X006363Y010581D01*
X006455Y010619D01*
X006535Y010680D01*
X006596Y010759D01*
X006634Y010852D01*
X006647Y010951D01*
X006634Y011050D01*
X006596Y011142D01*
X006535Y011222D01*
X006455Y011283D01*
X006363Y011321D01*
X006347Y011323D01*
X006350Y011373D01*
X006586D01*
X006594Y011372D01*
X006603Y011373D01*
X007079D01*
X007087Y011372D01*
X007095Y011373D01*
X007178D01*
X007181Y011323D01*
X007165Y011321D01*
X007072Y011283D01*
X006993Y011222D01*
X006932Y011142D01*
X006894Y011050D01*
X006881Y010951D01*
X006894Y010852D01*
X006932Y010759D01*
X006993Y010680D01*
X007072Y010619D01*
X007165Y010581D01*
X007264Y010568D01*
X007363Y010581D01*
X007455Y010619D01*
X007535Y010680D01*
X007596Y010759D01*
X007634Y010852D01*
X007647Y010951D01*
X007634Y011050D01*
X007596Y011142D01*
X007535Y011222D01*
X007455Y011283D01*
X007363Y011321D01*
X007347Y011323D01*
X007350Y011373D01*
X007581D01*
X007589Y011372D01*
X007597Y011373D01*
X007756D01*
Y010703D01*
X007688Y010690D01*
X007616Y010641D01*
X007567Y010568D01*
X007550Y010482D01*
X007567Y010396D01*
X007616Y010324D01*
X007688Y010275D01*
X007756Y010262D01*
Y009429D01*
X005650Y009429D01*
X005650Y008445D01*
X005305D01*
Y007963D01*
X005277Y007924D01*
X005156D01*
X005148Y007963D01*
X005109Y008022D01*
X005109Y008022D01*
X004804Y008327D01*
Y008643D01*
X004251D01*
Y008577D01*
X004106D01*
Y008706D01*
X004184D01*
Y008932D01*
X003593D01*
Y008741D01*
X003516D01*
Y009259D01*
X003483D01*
X003442Y009309D01*
X003452Y009360D01*
X003434Y009453D01*
X003388Y009521D01*
X003405Y009571D01*
X003644D01*
Y010331D01*
X002972D01*
X002951Y010381D01*
X003155Y010585D01*
X003165Y010581D01*
X003264Y010568D01*
X003363Y010581D01*
X003455Y010619D01*
X003535Y010680D01*
X003596Y010759D01*
X003634Y010852D01*
X003647Y010951D01*
X003634Y011050D01*
X003596Y011142D01*
X003535Y011222D01*
X003455Y011283D01*
X003363Y011321D01*
X003347Y011323D01*
X003350Y011373D01*
X003562D01*
Y011555D01*
X003662D01*
Y011373D01*
X004054D01*
Y011555D01*
X004154D01*
Y011373D01*
X004178D01*
X004181Y011323D01*
X004165Y011321D01*
X004072Y011283D01*
X003993Y011222D01*
X003932Y011142D01*
X003894Y011050D01*
X003881Y010951D01*
X003894Y010852D01*
X003932Y010759D01*
X003993Y010680D01*
X004072Y010619D01*
X004165Y010581D01*
X004264Y010568D01*
X004363Y010581D01*
X004455Y010619D01*
X004535Y010680D01*
X004596Y010759D01*
X004634Y010852D01*
X004647Y010951D01*
X004634Y011050D01*
X004596Y011142D01*
X004535Y011222D01*
X004455Y011283D01*
X004363Y011321D01*
X004347Y011323D01*
X004350Y011373D01*
X004556D01*
Y011555D01*
X004656D01*
Y011373D01*
X005048D01*
Y011555D01*
X005148D01*
Y011373D01*
X005187D01*
X005191Y011323D01*
X005165Y011320D01*
X005073Y011282D01*
X004994Y011221D01*
X004933Y011142D01*
X004895Y011050D01*
X004888Y011001D01*
X005639D01*
X005633Y011050D01*
X005595Y011142D01*
X005534Y011221D01*
X005455Y011282D01*
X005363Y011320D01*
X005337Y011323D01*
X005340Y011373D01*
X005550D01*
Y011555D01*
X005600D01*
Y011605D01*
X005773D01*
X005769Y011625D01*
X005732Y011679D01*
X005738Y011701D01*
X005752Y011729D01*
X005939D01*
X005953Y011704D01*
D02*
G37*
G36*
X003032Y009521D02*
X002986Y009453D01*
X002968Y009360D01*
X002978Y009309D01*
X002937Y009259D01*
X002923D01*
Y008741D01*
X002922D01*
Y008254D01*
X002872Y008239D01*
X002838Y008290D01*
X002759Y008343D01*
X002717Y008351D01*
Y008120D01*
Y007889D01*
X002759Y007898D01*
X002838Y007950D01*
X002876Y008008D01*
X002921Y008029D01*
X002941Y008029D01*
X002968Y008029D01*
X004106D01*
Y008213D01*
X004251D01*
Y008050D01*
X004567D01*
X004660Y007956D01*
X004640Y007906D01*
X004461D01*
X004402Y007895D01*
X004352Y007895D01*
X004352Y007895D01*
X004352Y007895D01*
X003759D01*
Y007431D01*
X003681D01*
Y007568D01*
X003386D01*
X003091D01*
Y007431D01*
X003002D01*
Y006712D01*
X002315D01*
Y006490D01*
X002277Y006459D01*
X002260Y006462D01*
X002226D01*
X002198Y006496D01*
Y006614D01*
X002190Y006653D01*
X002170Y006683D01*
X002190Y006713D01*
X002198Y006752D01*
Y006870D01*
X002190Y006909D01*
X002170Y006939D01*
X002190Y006969D01*
X002198Y007008D01*
Y007061D01*
X002237Y007092D01*
X002260Y007088D01*
X002353Y007106D01*
X002431Y007159D01*
X002484Y007237D01*
X002502Y007330D01*
X002484Y007423D01*
X002431Y007501D01*
X002353Y007554D01*
X002260Y007572D01*
X002178Y007556D01*
X002178Y007556D01*
X002151Y007598D01*
X002185Y007650D01*
X002200Y007721D01*
Y008342D01*
X002185Y008413D01*
X002145Y008474D01*
X002084Y008514D01*
X002013Y008528D01*
X001334D01*
X001262Y008514D01*
X001201Y008474D01*
X001161Y008413D01*
X001147Y008342D01*
Y007721D01*
X001161Y007650D01*
X001201Y007589D01*
X001262Y007549D01*
X001334Y007535D01*
X001496D01*
X001516Y007485D01*
X001515Y007484D01*
X001348D01*
X001310Y007476D01*
X001277Y007454D01*
X001255Y007421D01*
X001247Y007382D01*
Y007264D01*
X001255Y007225D01*
X001275Y007195D01*
X001255Y007165D01*
X001247Y007126D01*
Y007008D01*
X001255Y006969D01*
X001275Y006939D01*
X001255Y006909D01*
X001247Y006870D01*
Y006752D01*
X001255Y006713D01*
X001275Y006683D01*
X001255Y006653D01*
X001247Y006614D01*
Y006496D01*
X001255Y006457D01*
X001275Y006426D01*
X001256Y006397D01*
X001248Y006358D01*
Y006349D01*
X001722D01*
Y006249D01*
X001248D01*
Y006240D01*
X001256Y006202D01*
X001277Y006169D01*
X001310Y006147D01*
X001348Y006140D01*
X001557D01*
X001566Y006138D01*
X001982D01*
X001982Y006138D01*
X001950Y006088D01*
X001334D01*
X001262Y006073D01*
X001201Y006033D01*
X001161Y005972D01*
X001147Y005901D01*
Y005281D01*
X001161Y005209D01*
X001201Y005148D01*
X001262Y005108D01*
X001334Y005094D01*
X002013D01*
X002084Y005108D01*
X002145Y005148D01*
X002185Y005209D01*
X002200Y005281D01*
Y005901D01*
X002191Y005942D01*
X002210Y005962D01*
Y006220D01*
X002310D01*
Y005956D01*
X002315Y005951D01*
Y004509D01*
X002265Y004493D01*
X002247Y004521D01*
X002169Y004573D01*
X002127Y004581D01*
Y004350D01*
X002077D01*
Y004300D01*
X001846D01*
X001854Y004258D01*
X001904Y004184D01*
X001893Y004135D01*
X001892Y004134D01*
X000395D01*
X000380Y004150D01*
X000385Y004213D01*
X000424Y004272D01*
X000428Y004292D01*
X000256D01*
Y004392D01*
X000432D01*
X000438Y004424D01*
Y004655D01*
X000256D01*
Y004755D01*
X000434D01*
X000464Y004799D01*
X000827D01*
X000893Y004812D01*
X000948Y004849D01*
X000986Y004905D01*
X000999Y004970D01*
Y005502D01*
X000986Y005568D01*
X000948Y005624D01*
X000893Y005661D01*
X000827Y005674D01*
X000448D01*
X000432Y005704D01*
X000426Y005724D01*
X000428Y005737D01*
X000256D01*
Y005837D01*
X000434D01*
X000464Y005881D01*
X000822D01*
X000890Y005895D01*
X000947Y005933D01*
X000985Y005990D01*
X000999Y006058D01*
Y006619D01*
X000985Y006687D01*
X000947Y006744D01*
X000890Y006783D01*
X000874Y006786D01*
Y006837D01*
X000890Y006840D01*
X000947Y006878D01*
X000985Y006935D01*
X000999Y007003D01*
Y007564D01*
X000985Y007632D01*
X000947Y007689D01*
X000890Y007727D01*
X000822Y007741D01*
X000448D01*
X000432Y007770D01*
X000426Y007791D01*
X000428Y007804D01*
X000256D01*
Y007904D01*
X000434D01*
X000464Y007948D01*
X000827D01*
X000893Y007961D01*
X000948Y007999D01*
X000986Y008054D01*
X000999Y008120D01*
Y008652D01*
X000986Y008717D01*
X000948Y008773D01*
X000893Y008810D01*
X000827Y008823D01*
X000464D01*
X000434Y008867D01*
X000256D01*
Y008967D01*
X000438D01*
Y009232D01*
X000256D01*
Y009331D01*
X000438D01*
Y009522D01*
X000461Y009530D01*
X000488Y009535D01*
X000634Y009410D01*
X000804Y009306D01*
X000987Y009230D01*
X001180Y009184D01*
X001378Y009168D01*
X001576Y009184D01*
X001769Y009230D01*
X001952Y009306D01*
X002095Y009393D01*
X002140Y009363D01*
Y009040D01*
X002084D01*
X002022Y009082D01*
X001929Y009100D01*
X001836Y009082D01*
X001758Y009029D01*
X001705Y008951D01*
X001687Y008858D01*
X001705Y008766D01*
X001758Y008687D01*
X001836Y008635D01*
X001929Y008616D01*
X002022Y008635D01*
X002084Y008676D01*
X002140D01*
Y008649D01*
X002800D01*
Y008973D01*
Y009383D01*
X002722D01*
X002703Y009429D01*
X002837Y009563D01*
X002884Y009571D01*
X002884Y009571D01*
X003015D01*
X003032Y009521D01*
D02*
G37*
G36*
X007890Y009882D02*
X007894Y009852D01*
X007932Y009759D01*
X007993Y009680D01*
X008072Y009619D01*
X008165Y009581D01*
X008264Y009568D01*
X008265Y009567D01*
X008267Y009523D01*
X008271Y009510D01*
X008273Y009497D01*
X008275Y009495D01*
X008276Y009492D01*
X008284Y009482D01*
X008291Y009471D01*
X008293Y009469D01*
X008295Y009467D01*
X008307Y009460D01*
X008318Y009453D01*
X008320Y009452D01*
X008323Y009451D01*
X008336Y009449D01*
X008349Y009447D01*
X009180Y009447D01*
X009193Y009449D01*
X009206Y009451D01*
X009208Y009452D01*
X009211Y009453D01*
X009222Y009460D01*
X009233Y009467D01*
X009234Y009467D01*
X009241Y009471D01*
X009287Y009471D01*
X009294Y009467D01*
X009294Y009467D01*
X009306Y009460D01*
X009317Y009453D01*
X009319Y009452D01*
X009322Y009451D01*
X009335Y009449D01*
X009348Y009447D01*
X010180Y009447D01*
X010193Y009449D01*
X010207Y009451D01*
X010209Y009452D01*
X010212Y009453D01*
X010223Y009460D01*
X010234Y009467D01*
X010246Y009470D01*
X010281Y009470D01*
X010293Y009467D01*
X010305Y009460D01*
X010316Y009453D01*
X010318Y009452D01*
X010321Y009451D01*
X010334Y009449D01*
X010347Y009446D01*
X011181Y009446D01*
X011194Y009449D01*
X011208Y009451D01*
X011210Y009452D01*
X011213Y009453D01*
X011224Y009460D01*
X011235Y009467D01*
X011243Y009469D01*
X011253Y009470D01*
X011275Y009470D01*
X011284Y009469D01*
X011292Y009467D01*
X011304Y009460D01*
X011315Y009453D01*
X011318Y009452D01*
X011320Y009451D01*
X011333Y009449D01*
X011346Y009446D01*
X012182Y009446D01*
X012195Y009449D01*
X012208Y009451D01*
X012211Y009452D01*
X012213Y009452D01*
X012224Y009460D01*
X012236Y009467D01*
X012264Y009470D01*
X012291Y009467D01*
X012291Y009467D01*
X012303Y009460D01*
X012314Y009452D01*
X012317Y009452D01*
X012319Y009451D01*
X012332Y009449D01*
X012345Y009446D01*
X013183Y009446D01*
X013196Y009449D01*
X013209Y009450D01*
X013212Y009452D01*
X013214Y009452D01*
X013225Y009460D01*
X013237Y009466D01*
X013264Y009468D01*
X013291Y009466D01*
X013302Y009460D01*
X013313Y009452D01*
X013316Y009452D01*
X013318Y009450D01*
X013331Y009449D01*
X013344Y009446D01*
X014184Y009446D01*
X014197Y009449D01*
X014210Y009450D01*
X014213Y009452D01*
X014215Y009452D01*
X014226Y009460D01*
X014238Y009466D01*
X014264Y009468D01*
X014290Y009466D01*
X014301Y009460D01*
X014312Y009452D01*
X014315Y009452D01*
X014317Y009450D01*
X014330Y009449D01*
X014343Y009446D01*
X015185Y009446D01*
X015198Y009449D01*
X015211Y009450D01*
X015213Y009452D01*
X015216Y009452D01*
X015227Y009460D01*
X015239Y009466D01*
X015253Y009467D01*
X015274Y009467D01*
X015289Y009466D01*
X015300Y009460D01*
X015311Y009452D01*
X015314Y009452D01*
X015316Y009450D01*
X015330Y009449D01*
X015343Y009446D01*
X016186Y009446D01*
X016199Y009448D01*
X016212Y009450D01*
X016214Y009451D01*
X016217Y009452D01*
X016228Y009459D01*
X016240Y009466D01*
X016288Y009466D01*
X016299Y009459D01*
X016310Y009452D01*
X016313Y009451D01*
X016315Y009450D01*
X016329Y009448D01*
X016342Y009446D01*
X017187Y009446D01*
X017200Y009448D01*
X017213Y009450D01*
X017215Y009451D01*
X017218Y009452D01*
X017229Y009459D01*
X017240Y009466D01*
X017287Y009466D01*
X017299Y009459D01*
X017310Y009452D01*
X017312Y009451D01*
X017315Y009450D01*
X017328Y009448D01*
X017341Y009446D01*
X018188Y009446D01*
X018201Y009448D01*
X018214Y009450D01*
X018216Y009451D01*
X018219Y009452D01*
X018230Y009459D01*
X018241Y009466D01*
X018286Y009466D01*
X018298Y009459D01*
X018309Y009452D01*
X018311Y009451D01*
X018314Y009450D01*
X018327Y009448D01*
X018340Y009446D01*
X019082Y009445D01*
X019082Y007972D01*
X019088Y007941D01*
X019106Y007915D01*
X019132Y007897D01*
X019163Y007891D01*
X019289D01*
Y005741D01*
X019163D01*
X019132Y005735D01*
X019106Y005717D01*
X019088Y005691D01*
X019082Y005659D01*
X019082Y004934D01*
X019053Y004921D01*
X019032Y004915D01*
X018977Y004952D01*
X018957Y004956D01*
Y004783D01*
X018868D01*
Y004872D01*
Y004892D01*
Y004931D01*
X018857D01*
Y004987D01*
X018850Y004994D01*
Y005208D01*
X018848D01*
Y005255D01*
X018474D01*
X018100D01*
Y005239D01*
X017812D01*
Y005239D01*
X017762Y005225D01*
X017757Y005229D01*
X017687Y005243D01*
X017617Y005229D01*
X017557Y005189D01*
X017517Y005129D01*
X017503Y005059D01*
X017517Y004989D01*
X017542Y004952D01*
X017558Y004902D01*
X017519Y004843D01*
X017515Y004824D01*
X017687D01*
Y004774D01*
X017737D01*
Y004601D01*
X017757Y004605D01*
X017763Y004610D01*
X017813Y004595D01*
X017830Y004545D01*
X017813Y004519D01*
X017799Y004449D01*
X017801Y004439D01*
X017752Y004424D01*
X017748Y004423D01*
X017744Y004422D01*
X017734Y004415D01*
X017724Y004409D01*
X017721Y004406D01*
X017718Y004404D01*
X017711Y004394D01*
X017704Y004385D01*
X017702Y004381D01*
X017700Y004378D01*
X017698Y004366D01*
X017694Y004354D01*
X017695Y004350D01*
X017694Y004346D01*
Y002510D01*
X017700Y002479D01*
X017718Y002452D01*
X017744Y002434D01*
X017776Y002428D01*
X019564D01*
Y002046D01*
X019463D01*
Y002024D01*
X019411Y001989D01*
X019268Y001845D01*
X019004D01*
X018996Y001847D01*
X018926Y001833D01*
X018866Y001793D01*
X018827Y001734D01*
X018813Y001663D01*
X018827Y001593D01*
X018866Y001534D01*
X018926Y001494D01*
X018996Y001480D01*
X019004Y001481D01*
X019343D01*
X019343Y001481D01*
X019413Y001495D01*
X019419Y001500D01*
X019463Y001476D01*
Y001281D01*
X019564D01*
Y000439D01*
X019566Y000427D01*
X019568Y000415D01*
X019570Y000412D01*
X019570Y000408D01*
X019577Y000398D01*
X019583Y000387D01*
X019586Y000384D01*
X019588Y000381D01*
X019590Y000380D01*
X019614Y000340D01*
X019617Y000330D01*
X019614Y000326D01*
X019600Y000256D01*
X019614Y000186D01*
X019621Y000175D01*
X019598Y000131D01*
X019500D01*
X019476Y000175D01*
X019484Y000186D01*
X019488Y000206D01*
X019315D01*
Y000256D01*
X019265D01*
Y000438D01*
X018897D01*
Y000256D01*
X018797D01*
Y000438D01*
X018429D01*
Y000256D01*
X018329D01*
Y000438D01*
X018284D01*
X018281Y000488D01*
X018332Y000495D01*
X018424Y000532D01*
X018502Y000593D01*
X018562Y000671D01*
X018600Y000762D01*
X018613Y000860D01*
X018600Y000958D01*
X018562Y001049D01*
X018502Y001128D01*
X018424Y001188D01*
X018332Y001226D01*
X018234Y001239D01*
X018136Y001226D01*
X018115Y001217D01*
X018115Y001218D01*
X018045Y001231D01*
X018045Y001231D01*
X017790D01*
X017587Y001435D01*
X017607Y001485D01*
X017610D01*
Y002236D01*
X016859D01*
Y001516D01*
X016005D01*
X015623Y001899D01*
X015631Y001920D01*
X015644Y002018D01*
X015631Y002116D01*
X015594Y002207D01*
X015533Y002285D01*
X015455Y002346D01*
X015364Y002383D01*
X015266Y002396D01*
X015168Y002383D01*
X015076Y002346D01*
X014998Y002285D01*
X014938Y002207D01*
X014900Y002116D01*
X014887Y002018D01*
X014900Y001920D01*
X014938Y001828D01*
X014998Y001750D01*
X015076Y001690D01*
X015168Y001652D01*
X015266Y001639D01*
X015355Y001651D01*
X015801Y001205D01*
X015801Y001205D01*
X015860Y001166D01*
X015930Y001152D01*
X016922D01*
X016947Y001102D01*
X016906Y001049D01*
X016869Y000958D01*
X016866Y000940D01*
X015597D01*
X015594Y000947D01*
X015533Y001026D01*
X015455Y001086D01*
X015364Y001123D01*
X015266Y001136D01*
X015168Y001123D01*
X015076Y001086D01*
X014998Y001026D01*
X014938Y000947D01*
X014900Y000856D01*
X014887Y000758D01*
X014900Y000660D01*
X014938Y000569D01*
X014998Y000490D01*
X015005Y000485D01*
X014989Y000438D01*
X014684D01*
Y000256D01*
X014584D01*
Y000438D01*
X014559D01*
X014543Y000485D01*
X014549Y000490D01*
X014609Y000569D01*
X014647Y000660D01*
X014660Y000758D01*
X014647Y000856D01*
X014609Y000947D01*
X014549Y001026D01*
X014471Y001086D01*
X014379Y001123D01*
X014282Y001136D01*
X014184Y001123D01*
X014092Y001086D01*
X014014Y001026D01*
X013954Y000947D01*
X013916Y000856D01*
X013903Y000758D01*
X013916Y000660D01*
X013954Y000569D01*
X014014Y000490D01*
X014020Y000485D01*
X014004Y000438D01*
X013747D01*
Y000256D01*
X013647D01*
Y000438D01*
X013574D01*
X013558Y000485D01*
X013565Y000490D01*
X013625Y000569D01*
X013663Y000660D01*
X013676Y000758D01*
X013663Y000856D01*
X013625Y000947D01*
X013565Y001026D01*
X013486Y001086D01*
X013395Y001123D01*
X013297Y001136D01*
X013199Y001123D01*
X013108Y001086D01*
X013030Y001026D01*
X012969Y000947D01*
X012932Y000856D01*
X012919Y000758D01*
X012932Y000660D01*
X012969Y000569D01*
X013030Y000490D01*
X013036Y000485D01*
X013020Y000438D01*
X012811D01*
Y000256D01*
X012711D01*
Y000438D01*
X012343D01*
Y000256D01*
X012243D01*
Y000428D01*
X012223Y000424D01*
X012207Y000414D01*
X012181Y000424D01*
X012158Y000441D01*
X012149Y000516D01*
X012117Y000592D01*
X012066Y000659D01*
X012000Y000709D01*
X011923Y000741D01*
X011841Y000752D01*
X011758Y000741D01*
X011681Y000709D01*
X011615Y000659D01*
X011564Y000592D01*
X011532Y000516D01*
X011522Y000433D01*
X011524Y000414D01*
X011508Y000402D01*
X011477Y000390D01*
X011426Y000424D01*
X011406Y000428D01*
Y000256D01*
X011306D01*
Y000438D01*
X010938D01*
Y000256D01*
X010838D01*
Y000438D01*
X010470D01*
Y000256D01*
X010370D01*
Y000438D01*
X010002D01*
Y000256D01*
X009902D01*
Y000438D01*
X009533D01*
Y000256D01*
X009433D01*
Y000438D01*
X009065D01*
Y000256D01*
X008965D01*
Y000438D01*
X008597D01*
Y000256D01*
X008547D01*
Y000206D01*
X008375D01*
X008379Y000186D01*
X008386Y000175D01*
X008363Y000131D01*
X008111D01*
X008094Y000181D01*
X008129Y000208D01*
X008180Y000274D01*
X008212Y000350D01*
X008222Y000433D01*
X008212Y000516D01*
X008180Y000592D01*
X008129Y000659D01*
X008063Y000709D01*
X007986Y000741D01*
X007904Y000752D01*
X007821Y000741D01*
X007744Y000709D01*
X007678Y000659D01*
X007627Y000592D01*
X007595Y000516D01*
X007585Y000433D01*
X007595Y000350D01*
X007627Y000274D01*
X007678Y000208D01*
X007713Y000181D01*
X007696Y000131D01*
X007547D01*
X007523Y000175D01*
X007531Y000186D01*
X007534Y000206D01*
X007190D01*
X007194Y000186D01*
X007201Y000175D01*
X007178Y000131D01*
X007048D01*
X007031Y000181D01*
X007066Y000208D01*
X007117Y000274D01*
X007149Y000350D01*
X007159Y000433D01*
X007149Y000516D01*
X007117Y000592D01*
X007066Y000659D01*
X007000Y000709D01*
X006923Y000741D01*
X006841Y000752D01*
X006758Y000741D01*
X006681Y000709D01*
X006615Y000659D01*
X006564Y000592D01*
X006532Y000516D01*
X006522Y000433D01*
X006532Y000350D01*
X006564Y000274D01*
X006615Y000208D01*
X006650Y000181D01*
X006633Y000131D01*
X006454D01*
X006431Y000175D01*
X006438Y000186D01*
X006442Y000206D01*
X006270D01*
Y000256D01*
X006220D01*
Y000435D01*
X006206Y000438D01*
X005788D01*
Y000256D01*
X005688D01*
Y000438D01*
X005320D01*
Y000256D01*
X005220D01*
Y000438D01*
X004852D01*
Y000256D01*
X004752D01*
Y000438D01*
X004383D01*
Y000256D01*
X004283D01*
Y000438D01*
X003915D01*
Y000256D01*
X003815D01*
Y000438D01*
X003447D01*
Y000256D01*
X003347D01*
Y000428D01*
X003327Y000424D01*
X003268Y000385D01*
X003266Y000382D01*
X003218Y000400D01*
X003222Y000433D01*
X003212Y000516D01*
X003180Y000592D01*
X003129Y000659D01*
X003063Y000709D01*
X002986Y000741D01*
X002904Y000752D01*
X002821Y000741D01*
X002744Y000709D01*
X002678Y000659D01*
X002627Y000592D01*
X002595Y000516D01*
X002590Y000475D01*
X002570Y000460D01*
Y000256D01*
X002470D01*
Y000438D01*
X002289D01*
X002281Y000461D01*
X002276Y000488D01*
X002401Y000634D01*
X002505Y000804D01*
X002581Y000987D01*
X002627Y001177D01*
X002642Y001185D01*
X002675Y001195D01*
X002678Y001192D01*
X002744Y001141D01*
X002821Y001109D01*
X002904Y001098D01*
X002986Y001109D01*
X003063Y001141D01*
X003129Y001192D01*
X003180Y001258D01*
X003212Y001335D01*
X003222Y001417D01*
X003212Y001500D01*
X003180Y001577D01*
X003129Y001643D01*
X003063Y001694D01*
X002986Y001725D01*
X002904Y001736D01*
X002821Y001725D01*
X002744Y001694D01*
X002678Y001643D01*
X002666Y001628D01*
X002612Y001639D01*
X002581Y001769D01*
X002505Y001952D01*
X002401Y002121D01*
X002272Y002272D01*
X002231Y002308D01*
X002248Y002355D01*
X006466D01*
X006466Y002355D01*
X006536Y002369D01*
X006595Y002408D01*
X007087Y002901D01*
X007127Y002960D01*
X007127Y002963D01*
X007204Y003022D01*
X007286Y003129D01*
X007337Y003253D01*
X007347Y003324D01*
X007397D01*
X007407Y003253D01*
X007458Y003129D01*
X007540Y003022D01*
X007646Y002940D01*
X007770Y002889D01*
X007904Y002871D01*
X008037Y002889D01*
X008161Y002940D01*
X008267Y003022D01*
X008349Y003129D01*
X008371Y003182D01*
X008421D01*
X008443Y003129D01*
X008525Y003023D01*
X008631Y002941D01*
X008755Y002890D01*
X008838Y002879D01*
Y003386D01*
Y003892D01*
X008755Y003881D01*
X008631Y003830D01*
X008525Y003749D01*
X008443Y003642D01*
X008421Y003589D01*
X008371D01*
X008349Y003643D01*
X008267Y003750D01*
X008161Y003831D01*
X008037Y003883D01*
X007904Y003900D01*
X007770Y003883D01*
X007646Y003831D01*
X007540Y003750D01*
X007458Y003643D01*
X007407Y003519D01*
X007397Y003447D01*
X007347D01*
X007337Y003519D01*
X007286Y003643D01*
X007204Y003750D01*
X007098Y003831D01*
X006974Y003883D01*
X006841Y003900D01*
X006707Y003883D01*
X006583Y003831D01*
X006477Y003750D01*
X006395Y003643D01*
X006373Y003589D01*
X006323D01*
X006301Y003642D01*
X006219Y003749D01*
X006113Y003830D01*
X005989Y003881D01*
X005906Y003892D01*
Y003386D01*
Y002879D01*
X005989Y002890D01*
X006113Y002941D01*
X006219Y003023D01*
X006301Y003129D01*
X006323Y003182D01*
X006373D01*
X006395Y003129D01*
X006477Y003022D01*
X006560Y002959D01*
X006568Y002897D01*
X006391Y002719D01*
X002217D01*
X002070Y002866D01*
X002011Y002906D01*
X001941Y002919D01*
X001941Y002919D01*
X001277D01*
X001200Y002996D01*
X001221Y003046D01*
X001834D01*
Y003115D01*
X002468D01*
X002540Y003022D01*
X002646Y002940D01*
X002770Y002889D01*
X002904Y002871D01*
X003037Y002889D01*
X003161Y002940D01*
X003267Y003022D01*
X003349Y003129D01*
X003371Y003182D01*
X003421D01*
X003443Y003129D01*
X003525Y003023D01*
X003631Y002941D01*
X003755Y002890D01*
X003838Y002879D01*
Y003386D01*
Y003892D01*
X003755Y003881D01*
X003631Y003830D01*
X003525Y003749D01*
X003443Y003642D01*
X003421Y003589D01*
X003371D01*
X003349Y003643D01*
X003267Y003750D01*
X003161Y003831D01*
X003037Y003883D01*
X002904Y003900D01*
X002770Y003883D01*
X002675Y003843D01*
X002647Y003886D01*
X002831Y004070D01*
X003268D01*
X003268Y004070D01*
X003337Y004084D01*
X003396Y004123D01*
X003682Y004409D01*
X003682Y004409D01*
X003721Y004468D01*
X003735Y004537D01*
Y004910D01*
X003820D01*
Y005005D01*
X004018D01*
Y004854D01*
X005188D01*
X005202Y004854D01*
X005249Y004861D01*
X005789D01*
Y004861D01*
X005835D01*
Y004861D01*
X006389D01*
Y005454D01*
X005835D01*
Y005454D01*
X005789D01*
Y005454D01*
X005279D01*
X005245Y005497D01*
X005244Y005504D01*
X005247Y005511D01*
X005289Y005531D01*
X005462D01*
Y005827D01*
Y006122D01*
X005247D01*
Y006197D01*
X005319D01*
X005373Y006208D01*
X005419Y006238D01*
X005448Y006267D01*
X006485D01*
Y006180D01*
X006486D01*
Y006133D01*
X006732D01*
Y006033D01*
X006486D01*
Y005986D01*
X006485D01*
Y005969D01*
X006389D01*
Y006123D01*
X005835D01*
Y006123D01*
X005787Y006122D01*
Y006122D01*
X005562D01*
Y005827D01*
Y005531D01*
X005787D01*
Y005531D01*
X005835Y005530D01*
Y005530D01*
X006389D01*
Y005685D01*
X006485D01*
Y005668D01*
X006582D01*
X006592Y005619D01*
X006620Y005577D01*
Y005434D01*
X006465D01*
Y004881D01*
X007058D01*
Y005434D01*
X006904D01*
Y005577D01*
X006931Y005619D01*
X006941Y005668D01*
X006980D01*
Y005905D01*
X007028Y005914D01*
X007088Y005954D01*
X007127Y006013D01*
X007131Y006033D01*
X006959D01*
Y006133D01*
X007131D01*
X007127Y006152D01*
X007088Y006212D01*
X007028Y006251D01*
X006980Y006261D01*
Y006497D01*
X006774D01*
X006762Y006509D01*
X006716Y006540D01*
X006662Y006551D01*
X005389D01*
X005335Y006540D01*
X005297Y006515D01*
X005268Y006524D01*
X005247Y006538D01*
Y006566D01*
X004654D01*
Y006065D01*
X004654D01*
Y005566D01*
X004577D01*
Y005738D01*
X004281D01*
Y005838D01*
X004577D01*
Y006013D01*
X004578D01*
Y006566D01*
X003985D01*
Y006519D01*
X003908D01*
X003900Y006521D01*
X003892Y006519D01*
X003820D01*
Y006566D01*
X003227D01*
Y006013D01*
X003228D01*
Y005818D01*
X003524D01*
Y005718D01*
X003228D01*
Y005492D01*
X003228D01*
X003227Y005464D01*
X003227D01*
X003227Y005443D01*
Y004910D01*
X003371D01*
Y004613D01*
X003192Y004434D01*
X002756D01*
X002686Y004420D01*
X002627Y004381D01*
X002627Y004381D01*
X002203Y003956D01*
X001373D01*
X001373Y003956D01*
X001303Y003943D01*
X001244Y003903D01*
X001244Y003903D01*
X001180Y003839D01*
X001141Y003780D01*
X001127Y003711D01*
X001079Y003706D01*
X000784D01*
Y003046D01*
X000807D01*
Y002950D01*
X000807Y002950D01*
X000821Y002880D01*
X000860Y002821D01*
X001037Y002645D01*
X001022Y002589D01*
X000987Y002581D01*
X000804Y002505D01*
X000634Y002401D01*
X000488Y002276D01*
X000461Y002281D01*
X000438Y002289D01*
Y002478D01*
X000256D01*
Y002578D01*
X000438D01*
Y002841D01*
X000256D01*
Y002941D01*
X000438D01*
Y003204D01*
X000256D01*
Y003304D01*
X000438D01*
Y003566D01*
X000256D01*
Y003666D01*
X000438D01*
Y003929D01*
X000256D01*
Y004029D01*
X000456D01*
X000475Y004052D01*
X001892D01*
X001896Y004053D01*
X001900Y004053D01*
X001906Y004054D01*
X001906Y004054D01*
X001908Y004055D01*
X001912Y004056D01*
X001924Y004058D01*
X001927Y004061D01*
X001931Y004062D01*
X001935Y004065D01*
X001936Y004066D01*
X001940Y004070D01*
X001940Y004070D01*
X001950Y004076D01*
X001952Y004080D01*
X001956Y004082D01*
X001957Y004085D01*
X001958Y004086D01*
X001959Y004088D01*
X001975Y004112D01*
X002017Y004120D01*
X002077Y004108D01*
X002169Y004127D01*
X002248Y004179D01*
X002300Y004258D01*
X002319Y004350D01*
X002305Y004420D01*
X002339Y004431D01*
X002343Y004432D01*
X002347Y004433D01*
X002357Y004440D01*
X002367Y004446D01*
X002370Y004449D01*
X002373Y004451D01*
X002380Y004461D01*
X002387Y004470D01*
X002388Y004474D01*
X002391Y004477D01*
X002393Y004489D01*
X002396Y004501D01*
X002396Y004505D01*
X002397Y004509D01*
Y005951D01*
X002396Y005955D01*
X002396Y005959D01*
X002393Y005971D01*
X002392Y005978D01*
Y006023D01*
X002431Y006049D01*
X002484Y006128D01*
X002502Y006220D01*
X002484Y006313D01*
X002431Y006392D01*
X002410Y006406D01*
X002387Y006452D01*
X002388Y006456D01*
X002391Y006459D01*
X002393Y006471D01*
X002396Y006482D01*
X002396Y006486D01*
X002397Y006490D01*
Y006630D01*
X003002D01*
X003033Y006636D01*
X003060Y006654D01*
X003077Y006681D01*
X003084Y006712D01*
Y006763D01*
X003134Y006779D01*
X003159Y006741D01*
X003218Y006702D01*
X003237Y006698D01*
Y006870D01*
Y007042D01*
X003218Y007038D01*
X003159Y006999D01*
X003134Y006962D01*
X003084Y006977D01*
Y007294D01*
X003089Y007341D01*
X003682D01*
Y007350D01*
X003759D01*
Y007341D01*
X004317D01*
Y007281D01*
X004328Y007227D01*
X004358Y007181D01*
X004661Y006878D01*
X004684Y006863D01*
Y006780D01*
X005277D01*
Y007099D01*
X005315Y007130D01*
X005408Y007148D01*
X005486Y007201D01*
X005539Y007279D01*
X005557Y007372D01*
X005539Y007465D01*
X005486Y007543D01*
X005408Y007596D01*
X005315Y007614D01*
X005277Y007645D01*
Y007796D01*
X005289Y007844D01*
X005298Y007847D01*
X005308Y007849D01*
X005313Y007853D01*
X005319Y007855D01*
X005326Y007861D01*
X005335Y007867D01*
X005338Y007872D01*
X005342Y007876D01*
X005371Y007914D01*
X005375Y007923D01*
X005380Y007932D01*
X005382Y007938D01*
X005384Y007943D01*
X005385Y007953D01*
X005387Y007963D01*
Y008067D01*
X005424Y008087D01*
X005437Y008089D01*
X005452Y008086D01*
Y008258D01*
X005502D01*
Y008308D01*
X005695D01*
X005720Y008335D01*
X005861D01*
Y008258D01*
X005861Y008258D01*
X005875Y008188D01*
X005915Y008129D01*
X005919Y008125D01*
Y008075D01*
X005797Y007953D01*
X005777Y007924D01*
X005629D01*
Y007528D01*
X006222D01*
Y007864D01*
X006324Y007966D01*
X006331Y007971D01*
X006370Y008030D01*
X006384Y008100D01*
X006370Y008171D01*
X006331Y008230D01*
X006324Y008235D01*
X006273Y008285D01*
X006294Y008335D01*
X006399D01*
Y009125D01*
X005731D01*
X005731Y009348D01*
X007756Y009348D01*
X007787Y009354D01*
X007814Y009371D01*
X007831Y009398D01*
X007837Y009429D01*
Y009839D01*
X007887Y009882D01*
X007890Y009882D01*
D02*
G37*
G36*
X020630Y001267D02*
X020642Y001231D01*
X020609Y001182D01*
X020605Y001162D01*
X020778D01*
Y001062D01*
X020605D01*
X020609Y001042D01*
X020649Y000983D01*
X020708Y000944D01*
X020738Y000938D01*
Y000837D01*
X020699Y000811D01*
X020374D01*
X020102Y001082D01*
Y001281D01*
X020620D01*
X020630Y001267D01*
D02*
G37*
G36*
X017715Y000868D02*
X017715Y000868D01*
X017849D01*
X017856Y000860D01*
X017869Y000762D01*
X017906Y000671D01*
X017967Y000593D01*
X018045Y000532D01*
X018136Y000495D01*
X018188Y000488D01*
X018185Y000438D01*
X017961D01*
Y000256D01*
X017861D01*
Y000438D01*
X017493D01*
Y000256D01*
X017393D01*
Y000438D01*
X017284D01*
X017281Y000488D01*
X017332Y000495D01*
X017424Y000532D01*
X017502Y000593D01*
X017562Y000671D01*
X017600Y000762D01*
X017611Y000844D01*
X017621Y000855D01*
X017646Y000873D01*
X017661Y000878D01*
X017715Y000868D01*
D02*
G37*
G36*
X017045Y000532D02*
X017136Y000495D01*
X017188Y000488D01*
X017185Y000438D01*
X017025D01*
Y000256D01*
X016925D01*
Y000438D01*
X016556D01*
Y000256D01*
X016456D01*
Y000438D01*
X016088D01*
Y000256D01*
X015988D01*
Y000438D01*
X015543D01*
X015527Y000485D01*
X015533Y000490D01*
X015594Y000569D01*
X015597Y000576D01*
X016988D01*
X017045Y000532D01*
D02*
G37*
%LPC*%
G36*
X022264Y010334D02*
X022165Y010321D01*
X022072Y010283D01*
X021993Y010222D01*
X021932Y010142D01*
X021894Y010050D01*
X021881Y009951D01*
X021894Y009852D01*
X021932Y009759D01*
X021993Y009680D01*
X022072Y009619D01*
X022165Y009581D01*
X022264Y009568D01*
X022363Y009581D01*
X022455Y009619D01*
X022535Y009680D01*
X022596Y009759D01*
X022634Y009852D01*
X022647Y009951D01*
X022634Y010050D01*
X022596Y010142D01*
X022535Y010222D01*
X022455Y010283D01*
X022363Y010321D01*
X022264Y010334D01*
D02*
G37*
G36*
X021264D02*
X021165Y010321D01*
X021072Y010283D01*
X020993Y010222D01*
X020932Y010142D01*
X020894Y010050D01*
X020881Y009951D01*
X020894Y009852D01*
X020932Y009759D01*
X020993Y009680D01*
X021072Y009619D01*
X021165Y009581D01*
X021264Y009568D01*
X021363Y009581D01*
X021455Y009619D01*
X021535Y009680D01*
X021596Y009759D01*
X021634Y009852D01*
X021647Y009951D01*
X021634Y010050D01*
X021596Y010142D01*
X021535Y010222D01*
X021455Y010283D01*
X021363Y010321D01*
X021264Y010334D01*
D02*
G37*
G36*
X020264D02*
X020165Y010321D01*
X020072Y010283D01*
X019993Y010222D01*
X019932Y010142D01*
X019894Y010050D01*
X019881Y009951D01*
X019894Y009852D01*
X019932Y009759D01*
X019993Y009680D01*
X020072Y009619D01*
X020165Y009581D01*
X020264Y009568D01*
X020363Y009581D01*
X020455Y009619D01*
X020535Y009680D01*
X020596Y009759D01*
X020634Y009852D01*
X020647Y009951D01*
X020634Y010050D01*
X020596Y010142D01*
X020535Y010222D01*
X020455Y010283D01*
X020363Y010321D01*
X020264Y010334D01*
D02*
G37*
G36*
X019264D02*
X019165Y010321D01*
X019072Y010283D01*
X018993Y010222D01*
X018932Y010142D01*
X018894Y010050D01*
X018881Y009951D01*
X018894Y009852D01*
X018932Y009759D01*
X018993Y009680D01*
X019072Y009619D01*
X019165Y009581D01*
X019264Y009568D01*
X019363Y009581D01*
X019455Y009619D01*
X019535Y009680D01*
X019596Y009759D01*
X019634Y009852D01*
X019647Y009951D01*
X019634Y010050D01*
X019596Y010142D01*
X019535Y010222D01*
X019455Y010283D01*
X019363Y010321D01*
X019264Y010334D01*
D02*
G37*
G36*
X019447Y009016D02*
Y008894D01*
X019569D01*
X019565Y008914D01*
X019526Y008973D01*
X019466Y009012D01*
X019447Y009016D01*
D02*
G37*
G36*
X019347D02*
X019327Y009012D01*
X019268Y008973D01*
X019228Y008914D01*
X019224Y008894D01*
X019347D01*
Y009016D01*
D02*
G37*
G36*
X023910Y008842D02*
Y008720D01*
X024032D01*
X024028Y008740D01*
X023989Y008799D01*
X023930Y008838D01*
X023910Y008842D01*
D02*
G37*
G36*
X023810D02*
X023790Y008838D01*
X023731Y008799D01*
X023692Y008740D01*
X023688Y008720D01*
X023810D01*
Y008842D01*
D02*
G37*
G36*
X019569Y008794D02*
X019447D01*
Y008672D01*
X019466Y008676D01*
X019526Y008715D01*
X019565Y008774D01*
X019569Y008794D01*
D02*
G37*
G36*
X019347D02*
X019224D01*
X019228Y008774D01*
X019268Y008715D01*
X019327Y008676D01*
X019347Y008672D01*
Y008794D01*
D02*
G37*
G36*
X023258Y009325D02*
X023160Y009312D01*
X023069Y009275D01*
X022990Y009215D01*
X022930Y009136D01*
X022892Y009045D01*
X022879Y008947D01*
X022892Y008849D01*
X022930Y008758D01*
X022990Y008679D01*
X023069Y008619D01*
X023160Y008581D01*
X023258Y008568D01*
X023356Y008581D01*
X023447Y008619D01*
X023526Y008679D01*
X023586Y008758D01*
X023623Y008849D01*
X023636Y008947D01*
X023623Y009045D01*
X023586Y009136D01*
X023526Y009215D01*
X023447Y009275D01*
X023356Y009312D01*
X023258Y009325D01*
D02*
G37*
G36*
X024032Y008620D02*
X023910D01*
Y008498D01*
X023930Y008502D01*
X023989Y008541D01*
X024028Y008600D01*
X024032Y008620D01*
D02*
G37*
G36*
X023810D02*
X023688D01*
X023692Y008600D01*
X023731Y008541D01*
X023790Y008502D01*
X023810Y008498D01*
Y008620D01*
D02*
G37*
G36*
X022266Y009401D02*
X022148Y009385D01*
X022039Y009340D01*
X021945Y009268D01*
X021873Y009174D01*
X021827Y009064D01*
X021812Y008947D01*
X021827Y008829D01*
X021873Y008720D01*
X021945Y008626D01*
X022039Y008554D01*
X022148Y008508D01*
X022266Y008493D01*
X022383Y008508D01*
X022493Y008554D01*
X022587Y008626D01*
X022659Y008720D01*
X022704Y008829D01*
X022720Y008947D01*
X022704Y009064D01*
X022659Y009174D01*
X022587Y009268D01*
X022493Y009340D01*
X022383Y009385D01*
X022266Y009401D01*
D02*
G37*
G36*
X021266D02*
X021148Y009385D01*
X021039Y009340D01*
X020945Y009268D01*
X020873Y009174D01*
X020827Y009064D01*
X020812Y008947D01*
X020827Y008829D01*
X020873Y008720D01*
X020945Y008626D01*
X021039Y008554D01*
X021148Y008508D01*
X021266Y008493D01*
X021383Y008508D01*
X021493Y008554D01*
X021587Y008626D01*
X021659Y008720D01*
X021704Y008829D01*
X021720Y008947D01*
X021704Y009064D01*
X021659Y009174D01*
X021587Y009268D01*
X021493Y009340D01*
X021383Y009385D01*
X021266Y009401D01*
D02*
G37*
G36*
X020266D02*
X020148Y009385D01*
X020039Y009340D01*
X019945Y009268D01*
X019873Y009174D01*
X019827Y009064D01*
X019812Y008947D01*
X019827Y008829D01*
X019873Y008720D01*
X019945Y008626D01*
X020039Y008554D01*
X020148Y008508D01*
X020266Y008493D01*
X020383Y008508D01*
X020493Y008554D01*
X020587Y008626D01*
X020659Y008720D01*
X020704Y008829D01*
X020720Y008947D01*
X020704Y009064D01*
X020659Y009174D01*
X020587Y009268D01*
X020493Y009340D01*
X020383Y009385D01*
X020266Y009401D01*
D02*
G37*
G36*
X020040Y008283D02*
Y008160D01*
X020162D01*
X020159Y008180D01*
X020119Y008239D01*
X020060Y008279D01*
X020040Y008283D01*
D02*
G37*
G36*
X019940D02*
X019920Y008279D01*
X019861Y008239D01*
X019822Y008180D01*
X019818Y008160D01*
X019940D01*
Y008283D01*
D02*
G37*
G36*
X020162Y008060D02*
X020040D01*
Y007938D01*
X020060Y007942D01*
X020119Y007981D01*
X020159Y008040D01*
X020162Y008060D01*
D02*
G37*
G36*
X019940D02*
X019818D01*
X019822Y008040D01*
X019861Y007981D01*
X019920Y007942D01*
X019940Y007938D01*
Y008060D01*
D02*
G37*
G36*
X021605Y007682D02*
Y007560D01*
X021727D01*
X021723Y007580D01*
X021684Y007639D01*
X021625Y007678D01*
X021605Y007682D01*
D02*
G37*
G36*
X021505D02*
X021485Y007678D01*
X021426Y007639D01*
X021387Y007580D01*
X021383Y007560D01*
X021505D01*
Y007682D01*
D02*
G37*
G36*
X020286Y007662D02*
Y007540D01*
X020409D01*
X020405Y007560D01*
X020365Y007619D01*
X020306Y007659D01*
X020286Y007662D01*
D02*
G37*
G36*
X020186D02*
X020166Y007659D01*
X020107Y007619D01*
X020068Y007560D01*
X020064Y007540D01*
X020186D01*
Y007662D01*
D02*
G37*
G36*
X020409Y007440D02*
X020286D01*
Y007318D01*
X020306Y007322D01*
X020365Y007361D01*
X020405Y007420D01*
X020409Y007440D01*
D02*
G37*
G36*
X020186D02*
X020064D01*
X020068Y007420D01*
X020107Y007361D01*
X020166Y007322D01*
X020186Y007318D01*
Y007440D01*
D02*
G37*
G36*
X022312Y007042D02*
X022292Y007038D01*
X022233Y006999D01*
X022194Y006940D01*
X022190Y006920D01*
X022312D01*
Y007042D01*
D02*
G37*
G36*
X019668Y007033D02*
Y006910D01*
X019790D01*
X019786Y006930D01*
X019747Y006989D01*
X019687Y007029D01*
X019668Y007033D01*
D02*
G37*
G36*
X019568D02*
X019548Y007029D01*
X019489Y006989D01*
X019449Y006930D01*
X019445Y006910D01*
X019568D01*
Y007033D01*
D02*
G37*
G36*
X020288Y007013D02*
Y006891D01*
X020410D01*
X020406Y006910D01*
X020367Y006969D01*
X020308Y007009D01*
X020288Y007013D01*
D02*
G37*
G36*
X020188D02*
X020168Y007009D01*
X020109Y006969D01*
X020069Y006910D01*
X020066Y006891D01*
X020188D01*
Y007013D01*
D02*
G37*
G36*
X023513Y008309D02*
X023156D01*
X023109Y008300D01*
X023070Y008273D01*
X022992Y008196D01*
X022991Y008195D01*
X022965Y008156D01*
X022956Y008109D01*
Y007242D01*
X022593Y006880D01*
X022539Y006896D01*
X022531Y006940D01*
X022491Y006999D01*
X022432Y007038D01*
X022412Y007042D01*
Y006870D01*
X022362D01*
Y006820D01*
X022190D01*
X022194Y006800D01*
X022223Y006756D01*
X022202Y006706D01*
X021704D01*
Y006743D01*
X021704D01*
Y007314D01*
X021674D01*
X021659Y007364D01*
X021684Y007381D01*
X021723Y007440D01*
X021727Y007460D01*
X021383D01*
X021387Y007440D01*
X021426Y007381D01*
X021451Y007364D01*
X021436Y007314D01*
X020953D01*
Y006900D01*
X020903Y006873D01*
X020877Y006891D01*
X020857Y006895D01*
Y006722D01*
X020807D01*
Y006672D01*
X020625D01*
Y006251D01*
X020807D01*
Y006151D01*
X020625D01*
Y005969D01*
X020806D01*
Y005869D01*
X020625D01*
Y005568D01*
X020806D01*
Y005468D01*
X020625D01*
Y005168D01*
X020807D01*
Y005118D01*
X020857D01*
Y004946D01*
X020877Y004950D01*
X020903Y004968D01*
X020953Y004941D01*
Y004890D01*
X020955D01*
Y004843D01*
X021329D01*
X021703D01*
Y004890D01*
X021704D01*
Y004927D01*
X021815D01*
X021897Y004845D01*
X021937Y004819D01*
X021983Y004809D01*
X022111D01*
X022116Y004785D01*
X022156Y004725D01*
X022215Y004685D01*
X022285Y004671D01*
X022356Y004685D01*
X022415Y004725D01*
X022455Y004785D01*
X022469Y004855D01*
X022455Y004925D01*
X022415Y004985D01*
X022356Y005024D01*
X022285Y005038D01*
X022268Y005035D01*
X022256Y005044D01*
X022209Y005053D01*
X022034D01*
X021976Y005110D01*
X021997Y005161D01*
X022743D01*
X022797Y005171D01*
X022843Y005202D01*
X023201Y005559D01*
X023231Y005605D01*
X023242Y005658D01*
X023387D01*
Y006330D01*
X022833D01*
Y006289D01*
X022804Y006283D01*
X022744Y006244D01*
X022704Y006184D01*
X022690Y006114D01*
X022704Y006044D01*
X022744Y005984D01*
X022804Y005944D01*
X022833Y005938D01*
Y005658D01*
X022833D01*
X022852Y005612D01*
X022685Y005444D01*
X022235D01*
X022221Y005479D01*
X022217Y005494D01*
X022255Y005550D01*
X022269Y005620D01*
X022267Y005630D01*
X022282Y005646D01*
X022311Y005665D01*
X022372Y005653D01*
X022442Y005667D01*
X022502Y005707D01*
X022542Y005766D01*
X022556Y005837D01*
X022542Y005907D01*
X022502Y005966D01*
X022442Y006006D01*
X022372Y006020D01*
X022302Y006006D01*
X022270Y005985D01*
X022234Y006021D01*
X022235Y006023D01*
X022239Y006043D01*
X022067D01*
Y006143D01*
X022239D01*
X022236Y006157D01*
X022239Y006171D01*
X022258Y006207D01*
X022460D01*
X022507Y006216D01*
X022546Y006243D01*
X022831Y006528D01*
X023556D01*
X023603Y006537D01*
X023642Y006564D01*
X023728Y006649D01*
X023740Y006668D01*
X023788Y006668D01*
X023797Y006623D01*
X023837Y006563D01*
X023896Y006523D01*
X023967Y006509D01*
X024037Y006523D01*
X024096Y006563D01*
X024101Y006570D01*
X024140Y006609D01*
X024514D01*
X024566Y006575D01*
X024656Y006557D01*
X024745Y006575D01*
X024821Y006626D01*
X024872Y006702D01*
X024890Y006791D01*
X024872Y006881D01*
X024821Y006957D01*
X024745Y007008D01*
X024656Y007026D01*
X024566Y007008D01*
X024514Y006973D01*
X024167D01*
Y007330D01*
X024153D01*
Y007508D01*
X024167D01*
Y008168D01*
X023704D01*
X023599Y008273D01*
X023559Y008300D01*
X023513Y008309D01*
D02*
G37*
G36*
X020757Y006895D02*
X020737Y006891D01*
X020678Y006851D01*
X020639Y006792D01*
X020635Y006772D01*
X020757D01*
Y006895D01*
D02*
G37*
G36*
X019790Y006810D02*
X019668D01*
Y006688D01*
X019687Y006692D01*
X019747Y006731D01*
X019786Y006790D01*
X019790Y006810D01*
D02*
G37*
G36*
X019568D02*
X019445D01*
X019449Y006790D01*
X019489Y006731D01*
X019548Y006692D01*
X019568Y006688D01*
Y006810D01*
D02*
G37*
G36*
X019669Y006536D02*
Y006413D01*
X019792D01*
X019788Y006433D01*
X019748Y006492D01*
X019689Y006532D01*
X019669Y006536D01*
D02*
G37*
G36*
X019569D02*
X019550Y006532D01*
X019490Y006492D01*
X019451Y006433D01*
X019447Y006413D01*
X019569D01*
Y006536D01*
D02*
G37*
G36*
X020420Y006791D02*
X020056D01*
Y006556D01*
X020236D01*
Y006506D01*
X020286D01*
Y006334D01*
X020306Y006338D01*
X020365Y006377D01*
X020366Y006379D01*
X020366Y006379D01*
X020406Y006438D01*
X020420Y006507D01*
Y006791D01*
D02*
G37*
G36*
X020186Y006456D02*
X020064D01*
X020068Y006436D01*
X020107Y006377D01*
X020166Y006338D01*
X020186Y006334D01*
Y006456D01*
D02*
G37*
G36*
X019792Y006313D02*
X019669D01*
Y006191D01*
X019689Y006195D01*
X019748Y006234D01*
X019788Y006294D01*
X019792Y006313D01*
D02*
G37*
G36*
X019569D02*
X019447D01*
X019451Y006294D01*
X019490Y006234D01*
X019550Y006195D01*
X019569Y006191D01*
Y006313D01*
D02*
G37*
G36*
X020288Y006074D02*
Y005952D01*
X020410D01*
X020406Y005971D01*
X020367Y006031D01*
X020308Y006070D01*
X020288Y006074D01*
D02*
G37*
G36*
X020188D02*
X020168Y006070D01*
X020109Y006031D01*
X020069Y005971D01*
X020066Y005952D01*
X020188D01*
Y006074D01*
D02*
G37*
G36*
X019669Y006040D02*
Y005918D01*
X019792D01*
X019788Y005938D01*
X019748Y005997D01*
X019689Y006036D01*
X019669Y006040D01*
D02*
G37*
G36*
X019569D02*
X019550Y006036D01*
X019490Y005997D01*
X019451Y005938D01*
X019447Y005918D01*
X019569D01*
Y006040D01*
D02*
G37*
G36*
X020410Y005852D02*
X020288D01*
Y005729D01*
X020308Y005733D01*
X020367Y005773D01*
X020406Y005832D01*
X020410Y005852D01*
D02*
G37*
G36*
X020188D02*
X020066D01*
X020069Y005832D01*
X020109Y005773D01*
X020168Y005733D01*
X020188Y005729D01*
Y005852D01*
D02*
G37*
G36*
X019792Y005818D02*
X019669D01*
Y005696D01*
X019689Y005699D01*
X019748Y005739D01*
X019788Y005798D01*
X019792Y005818D01*
D02*
G37*
G36*
X019569D02*
X019447D01*
X019451Y005798D01*
X019490Y005739D01*
X019550Y005699D01*
X019569Y005696D01*
Y005818D01*
D02*
G37*
G36*
X020288Y005605D02*
Y005482D01*
X020410D01*
X020406Y005502D01*
X020367Y005561D01*
X020308Y005601D01*
X020288Y005605D01*
D02*
G37*
G36*
X020188D02*
X020168Y005601D01*
X020109Y005561D01*
X020069Y005502D01*
X020066Y005482D01*
X020188D01*
Y005605D01*
D02*
G37*
G36*
X019669Y005545D02*
Y005422D01*
X019792D01*
X019788Y005442D01*
X019748Y005501D01*
X019689Y005541D01*
X019669Y005545D01*
D02*
G37*
G36*
X019569D02*
X019550Y005541D01*
X019490Y005501D01*
X019451Y005442D01*
X019447Y005422D01*
X019569D01*
Y005545D01*
D02*
G37*
G36*
X020410Y005382D02*
X020288D01*
Y005260D01*
X020308Y005264D01*
X020367Y005303D01*
X020406Y005363D01*
X020410Y005382D01*
D02*
G37*
G36*
X020188D02*
X020066D01*
X020069Y005363D01*
X020109Y005303D01*
X020168Y005264D01*
X020188Y005260D01*
Y005382D01*
D02*
G37*
G36*
X019792Y005322D02*
X019669D01*
Y005200D01*
X019689Y005204D01*
X019748Y005244D01*
X019788Y005303D01*
X019792Y005322D01*
D02*
G37*
G36*
X019569D02*
X019447D01*
X019451Y005303D01*
X019490Y005244D01*
X019550Y005204D01*
X019569Y005200D01*
Y005322D01*
D02*
G37*
G36*
X024803Y005502D02*
X024538D01*
Y005198D01*
X024803D01*
Y005502D01*
D02*
G37*
G36*
X024438D02*
X024173D01*
Y005198D01*
X024438D01*
Y005502D01*
D02*
G37*
G36*
X020288Y005135D02*
Y005013D01*
X020410D01*
X020406Y005033D01*
X020367Y005092D01*
X020308Y005131D01*
X020288Y005135D01*
D02*
G37*
G36*
X020188D02*
X020168Y005131D01*
X020109Y005092D01*
X020069Y005033D01*
X020066Y005013D01*
X020188D01*
Y005135D01*
D02*
G37*
G36*
X020757Y005068D02*
X020635D01*
X020639Y005048D01*
X020678Y004989D01*
X020737Y004950D01*
X020757Y004946D01*
Y005068D01*
D02*
G37*
G36*
X019669Y005049D02*
Y004927D01*
X019792D01*
X019788Y004947D01*
X019748Y005006D01*
X019689Y005045D01*
X019669Y005049D01*
D02*
G37*
G36*
X019569D02*
X019550Y005045D01*
X019490Y005006D01*
X019451Y004947D01*
X019447Y004927D01*
X019569D01*
Y005049D01*
D02*
G37*
G36*
X024803Y005098D02*
X024538D01*
Y004793D01*
X024803D01*
Y005098D01*
D02*
G37*
G36*
X024438D02*
X024173D01*
Y004793D01*
X024438D01*
Y005098D01*
D02*
G37*
G36*
X024017Y006330D02*
X023463D01*
Y005658D01*
X023558D01*
Y005503D01*
X023424D01*
Y004792D01*
X024056D01*
Y005503D01*
X023922D01*
Y005658D01*
X024017D01*
Y006330D01*
D02*
G37*
G36*
X020410Y004913D02*
X020288D01*
Y004791D01*
X020308Y004794D01*
X020367Y004834D01*
X020406Y004893D01*
X020410Y004913D01*
D02*
G37*
G36*
X020188D02*
X020066D01*
X020069Y004893D01*
X020109Y004834D01*
X020168Y004794D01*
X020188Y004791D01*
Y004913D01*
D02*
G37*
G36*
X019792Y004827D02*
X019669D01*
Y004705D01*
X019689Y004709D01*
X019748Y004748D01*
X019788Y004807D01*
X019792Y004827D01*
D02*
G37*
G36*
X019569D02*
X019447D01*
X019451Y004807D01*
X019490Y004748D01*
X019550Y004709D01*
X019569Y004705D01*
Y004827D01*
D02*
G37*
G36*
X020288Y004666D02*
Y004543D01*
X020410D01*
X020406Y004563D01*
X020367Y004622D01*
X020308Y004662D01*
X020288Y004666D01*
D02*
G37*
G36*
X020188D02*
X020168Y004662D01*
X020109Y004622D01*
X020069Y004563D01*
X020066Y004543D01*
X020188D01*
Y004666D01*
D02*
G37*
G36*
X019669Y004554D02*
Y004432D01*
X019792D01*
X019788Y004451D01*
X019748Y004510D01*
X019689Y004550D01*
X019669Y004554D01*
D02*
G37*
G36*
X019569D02*
X019550Y004550D01*
X019490Y004510D01*
X019451Y004451D01*
X019447Y004432D01*
X019569D01*
Y004554D01*
D02*
G37*
G36*
X020410Y004443D02*
X020288D01*
Y004321D01*
X020308Y004325D01*
X020367Y004365D01*
X020406Y004424D01*
X020410Y004443D01*
D02*
G37*
G36*
X020188D02*
X020066D01*
X020069Y004424D01*
X020109Y004365D01*
X020168Y004325D01*
X020188Y004321D01*
Y004443D01*
D02*
G37*
G36*
X019792Y004332D02*
X019669D01*
Y004209D01*
X019689Y004213D01*
X019748Y004253D01*
X019788Y004312D01*
X019792Y004332D01*
D02*
G37*
G36*
X019569D02*
X019447D01*
X019451Y004312D01*
X019490Y004253D01*
X019550Y004213D01*
X019569Y004209D01*
Y004332D01*
D02*
G37*
G36*
X023159Y004459D02*
X022816D01*
Y004154D01*
X023159D01*
Y004459D01*
D02*
G37*
G36*
X022716D02*
X022372D01*
Y004154D01*
X022716D01*
Y004459D01*
D02*
G37*
G36*
X020286Y004208D02*
Y004085D01*
X020409D01*
X020405Y004105D01*
X020365Y004164D01*
X020306Y004204D01*
X020286Y004208D01*
D02*
G37*
G36*
X020186D02*
X020166Y004204D01*
X020107Y004164D01*
X020068Y004105D01*
X020064Y004085D01*
X020186D01*
Y004208D01*
D02*
G37*
G36*
X019668Y004060D02*
Y003938D01*
X019790D01*
X019786Y003958D01*
X019747Y004017D01*
X019687Y004056D01*
X019668Y004060D01*
D02*
G37*
G36*
X019568D02*
X019548Y004056D01*
X019489Y004017D01*
X019449Y003958D01*
X019445Y003938D01*
X019568D01*
Y004060D01*
D02*
G37*
G36*
X020409Y003985D02*
X020286D01*
Y003863D01*
X020306Y003867D01*
X020365Y003907D01*
X020405Y003966D01*
X020409Y003985D01*
D02*
G37*
G36*
X020186D02*
X020064D01*
X020068Y003966D01*
X020107Y003907D01*
X020166Y003867D01*
X020186Y003863D01*
Y003985D01*
D02*
G37*
G36*
X024804Y004558D02*
X024172D01*
Y003847D01*
X024804D01*
Y004558D01*
D02*
G37*
G36*
X019790Y003838D02*
X019668D01*
Y003715D01*
X019687Y003719D01*
X019747Y003759D01*
X019786Y003818D01*
X019790Y003838D01*
D02*
G37*
G36*
X019568D02*
X019445D01*
X019449Y003818D01*
X019489Y003759D01*
X019548Y003719D01*
X019568Y003715D01*
Y003838D01*
D02*
G37*
G36*
X021025Y003879D02*
X020471D01*
Y003656D01*
X020412D01*
X020404Y003658D01*
X020333Y003644D01*
X020274Y003604D01*
X020234Y003545D01*
X020220Y003474D01*
X020234Y003404D01*
X020274Y003345D01*
X020333Y003305D01*
X020404Y003291D01*
X020412Y003292D01*
X020471D01*
Y003207D01*
X021025D01*
Y003879D01*
D02*
G37*
G36*
X024734Y003661D02*
X024489D01*
Y003436D01*
X024734D01*
Y003661D01*
D02*
G37*
G36*
X024389D02*
X024144D01*
Y003436D01*
X024389D01*
Y003661D01*
D02*
G37*
G36*
X019342Y003879D02*
X018788D01*
Y003207D01*
X019342D01*
Y003273D01*
X019390Y003301D01*
X019460Y003315D01*
X019520Y003354D01*
X019559Y003414D01*
X019573Y003484D01*
X019559Y003554D01*
X019520Y003614D01*
X019460Y003654D01*
X019390Y003668D01*
X019342Y003695D01*
Y003879D01*
D02*
G37*
G36*
X020198Y003302D02*
Y003180D01*
X020320D01*
X020316Y003200D01*
X020277Y003259D01*
X020217Y003298D01*
X020198Y003302D01*
D02*
G37*
G36*
X020098D02*
X020078Y003298D01*
X020019Y003259D01*
X019979Y003200D01*
X019975Y003180D01*
X020098D01*
Y003302D01*
D02*
G37*
G36*
X024734Y003336D02*
X024489D01*
Y003110D01*
X024734D01*
Y003336D01*
D02*
G37*
G36*
X024389D02*
X024144D01*
Y003110D01*
X024389D01*
Y003336D01*
D02*
G37*
G36*
X021703Y004743D02*
X021329D01*
X020955D01*
Y004696D01*
X020953D01*
Y004379D01*
Y004123D01*
X021187D01*
Y003879D01*
X021101D01*
Y003207D01*
X021655D01*
Y003879D01*
X021471D01*
Y004123D01*
X021704D01*
Y004241D01*
X021750Y004260D01*
X021856Y004154D01*
Y003218D01*
X021701Y003063D01*
X021655Y003082D01*
Y003151D01*
X021101D01*
Y002479D01*
X021655D01*
Y002634D01*
X021659Y002635D01*
X021705Y002666D01*
X022098Y003059D01*
X022129Y003105D01*
X022140Y003159D01*
Y004213D01*
X022129Y004267D01*
X022098Y004313D01*
X021774Y004638D01*
X021728Y004668D01*
X021704Y004673D01*
Y004696D01*
X021703D01*
Y004743D01*
D02*
G37*
G36*
X020320Y003080D02*
X020198D01*
Y002958D01*
X020217Y002962D01*
X020277Y003001D01*
X020316Y003060D01*
X020320Y003080D01*
D02*
G37*
G36*
X020098D02*
X019975D01*
X019979Y003060D01*
X020019Y003001D01*
X020078Y002962D01*
X020098Y002958D01*
Y003080D01*
D02*
G37*
G36*
X024056Y004558D02*
X023424D01*
Y003847D01*
X023598D01*
Y003663D01*
X023473D01*
Y003109D01*
X023592D01*
X023600Y003070D01*
X023640Y003010D01*
X023699Y002970D01*
X023770Y002956D01*
X023840Y002970D01*
X023899Y003010D01*
X023939Y003070D01*
X023947Y003109D01*
X024066D01*
Y003663D01*
X023961D01*
Y003847D01*
X024056D01*
Y004558D01*
D02*
G37*
G36*
X019253Y002918D02*
Y002796D01*
X019375D01*
X019371Y002816D01*
X019332Y002875D01*
X019273Y002914D01*
X019253Y002918D01*
D02*
G37*
G36*
X019153D02*
X019133Y002914D01*
X019074Y002875D01*
X019034Y002816D01*
X019030Y002796D01*
X019153D01*
Y002918D01*
D02*
G37*
G36*
X019375Y002696D02*
X019253D01*
Y002574D01*
X019273Y002578D01*
X019332Y002617D01*
X019371Y002676D01*
X019375Y002696D01*
D02*
G37*
G36*
X019153D02*
X019030D01*
X019034Y002676D01*
X019074Y002617D01*
X019133Y002578D01*
X019153Y002574D01*
Y002696D01*
D02*
G37*
G36*
X021025Y003151D02*
X020471D01*
Y002977D01*
X020423Y002949D01*
X020353Y002935D01*
X020293Y002896D01*
X020254Y002836D01*
X020240Y002766D01*
X020254Y002696D01*
X020293Y002636D01*
X020353Y002596D01*
X020423Y002582D01*
X020471Y002555D01*
Y002479D01*
X021025D01*
Y003151D01*
D02*
G37*
G36*
X021289Y001427D02*
X021064D01*
Y001182D01*
X021289D01*
Y001427D01*
D02*
G37*
G36*
X005773Y011505D02*
X005650D01*
Y011383D01*
X005670Y011387D01*
X005729Y011426D01*
X005769Y011485D01*
X005773Y011505D01*
D02*
G37*
G36*
X005639Y010901D02*
X005314D01*
Y010575D01*
X005363Y010582D01*
X005455Y010620D01*
X005534Y010681D01*
X005595Y010760D01*
X005633Y010852D01*
X005639Y010901D01*
D02*
G37*
G36*
X005214D02*
X004888D01*
X004895Y010852D01*
X004933Y010760D01*
X004994Y010681D01*
X005073Y010620D01*
X005165Y010582D01*
X005214Y010575D01*
Y010901D01*
D02*
G37*
G36*
X007314Y010326D02*
Y010001D01*
X007639D01*
X007633Y010050D01*
X007595Y010142D01*
X007534Y010221D01*
X007455Y010282D01*
X007363Y010320D01*
X007314Y010326D01*
D02*
G37*
G36*
X007214D02*
X007165Y010320D01*
X007073Y010282D01*
X006994Y010221D01*
X006933Y010142D01*
X006895Y010050D01*
X006888Y010001D01*
X007214D01*
Y010326D01*
D02*
G37*
G36*
X007639Y009901D02*
X007314D01*
Y009575D01*
X007363Y009582D01*
X007455Y009620D01*
X007534Y009681D01*
X007595Y009760D01*
X007633Y009852D01*
X007639Y009901D01*
D02*
G37*
G36*
X007214D02*
X006888D01*
X006895Y009852D01*
X006933Y009760D01*
X006994Y009681D01*
X007073Y009620D01*
X007165Y009582D01*
X007214Y009575D01*
Y009901D01*
D02*
G37*
G36*
X006264Y010334D02*
X006165Y010321D01*
X006072Y010283D01*
X005993Y010222D01*
X005932Y010142D01*
X005894Y010050D01*
X005881Y009951D01*
X005894Y009852D01*
X005932Y009759D01*
X005993Y009680D01*
X006072Y009619D01*
X006165Y009581D01*
X006264Y009568D01*
X006363Y009581D01*
X006455Y009619D01*
X006535Y009680D01*
X006596Y009759D01*
X006634Y009852D01*
X006647Y009951D01*
X006634Y010050D01*
X006596Y010142D01*
X006535Y010222D01*
X006455Y010283D01*
X006363Y010321D01*
X006264Y010334D01*
D02*
G37*
G36*
X005264D02*
X005165Y010321D01*
X005072Y010283D01*
X004993Y010222D01*
X004932Y010142D01*
X004894Y010050D01*
X004881Y009951D01*
X004894Y009852D01*
X004932Y009759D01*
X004993Y009680D01*
X005072Y009619D01*
X005165Y009581D01*
X005264Y009568D01*
X005363Y009581D01*
X005455Y009619D01*
X005535Y009680D01*
X005596Y009759D01*
X005634Y009852D01*
X005647Y009951D01*
X005634Y010050D01*
X005596Y010142D01*
X005535Y010222D01*
X005455Y010283D01*
X005363Y010321D01*
X005264Y010334D01*
D02*
G37*
G36*
X004264D02*
X004165Y010321D01*
X004072Y010283D01*
X003993Y010222D01*
X003932Y010142D01*
X003894Y010050D01*
X003881Y009951D01*
X003894Y009852D01*
X003932Y009759D01*
X003993Y009680D01*
X004072Y009619D01*
X004165Y009581D01*
X004264Y009568D01*
X004363Y009581D01*
X004455Y009619D01*
X004535Y009680D01*
X004596Y009759D01*
X004634Y009852D01*
X004647Y009951D01*
X004634Y010050D01*
X004596Y010142D01*
X004535Y010222D01*
X004455Y010283D01*
X004363Y010321D01*
X004264Y010334D01*
D02*
G37*
G36*
X004803Y009311D02*
X004578D01*
Y009066D01*
X004803D01*
Y009311D01*
D02*
G37*
G36*
X004478D02*
X004252D01*
Y009066D01*
X004478D01*
Y009311D01*
D02*
G37*
G36*
X004184Y009258D02*
X003938D01*
Y009032D01*
X004184D01*
Y009258D01*
D02*
G37*
G36*
X003838D02*
X003593D01*
Y009032D01*
X003838D01*
Y009258D01*
D02*
G37*
G36*
X004803Y008966D02*
X004578D01*
Y008720D01*
X004803D01*
Y008966D01*
D02*
G37*
G36*
X004478D02*
X004252D01*
Y008720D01*
X004478D01*
Y008966D01*
D02*
G37*
G36*
X002617Y008351D02*
X002575Y008343D01*
X002497Y008290D01*
X002445Y008212D01*
X002436Y008170D01*
X002617D01*
Y008351D01*
D02*
G37*
G36*
Y008070D02*
X002436D01*
X002445Y008028D01*
X002497Y007950D01*
X002575Y007898D01*
X002617Y007889D01*
Y008070D01*
D02*
G37*
G36*
X003681Y007894D02*
X003436D01*
Y007668D01*
X003681D01*
Y007894D01*
D02*
G37*
G36*
X003336D02*
X003091D01*
Y007668D01*
X003336D01*
Y007894D01*
D02*
G37*
G36*
X002027Y004581D02*
X001985Y004573D01*
X001906Y004521D01*
X001854Y004443D01*
X001846Y004400D01*
X002027D01*
Y004581D01*
D02*
G37*
G36*
X010493Y009322D02*
X009900D01*
Y009198D01*
X009752D01*
X009744Y009199D01*
X009674Y009185D01*
X009614Y009146D01*
X009575Y009086D01*
X009561Y009016D01*
X009575Y008946D01*
X009614Y008886D01*
X009674Y008846D01*
X009744Y008832D01*
X009752Y008834D01*
X009900D01*
Y008660D01*
X009860Y008634D01*
X009713Y008486D01*
X009664Y008477D01*
X009604Y008437D01*
X009565Y008377D01*
X009551Y008307D01*
X009565Y008237D01*
X009604Y008177D01*
X009664Y008138D01*
X009734Y008124D01*
X009804Y008138D01*
X009852Y008169D01*
X009902Y008150D01*
Y008072D01*
X010492D01*
Y008257D01*
X010493D01*
Y008768D01*
Y009322D01*
D02*
G37*
G36*
X015847Y009227D02*
Y009105D01*
X015970D01*
X015966Y009125D01*
X015926Y009184D01*
X015867Y009223D01*
X015847Y009227D01*
D02*
G37*
G36*
X015747D02*
X015727Y009223D01*
X015668Y009184D01*
X015629Y009125D01*
X015625Y009105D01*
X015747D01*
Y009227D01*
D02*
G37*
G36*
X013160Y009321D02*
X012914D01*
Y009095D01*
X013160D01*
Y009321D01*
D02*
G37*
G36*
X012814D02*
X012569D01*
Y009095D01*
X012814D01*
Y009321D01*
D02*
G37*
G36*
X007845Y009188D02*
Y009066D01*
X007968D01*
X007964Y009085D01*
X007924Y009145D01*
X007865Y009184D01*
X007845Y009188D01*
D02*
G37*
G36*
X007745D02*
X007726Y009184D01*
X007666Y009145D01*
X007627Y009085D01*
X007623Y009066D01*
X007745D01*
Y009188D01*
D02*
G37*
G36*
X018475Y009159D02*
Y009036D01*
X018597D01*
X018594Y009056D01*
X018554Y009115D01*
X018495Y009155D01*
X018475Y009159D01*
D02*
G37*
G36*
X018375D02*
X018355Y009155D01*
X018296Y009115D01*
X018257Y009056D01*
X018253Y009036D01*
X018375D01*
Y009159D01*
D02*
G37*
G36*
X009097Y009158D02*
X008308D01*
Y008971D01*
X008256D01*
X008248Y008973D01*
X008178Y008959D01*
X008118Y008919D01*
X008078Y008860D01*
X008065Y008789D01*
X008078Y008719D01*
X008118Y008660D01*
X008178Y008620D01*
X008248Y008606D01*
X008256Y008607D01*
X008308D01*
Y008408D01*
X008521D01*
Y008305D01*
X008521Y008305D01*
X008534Y008236D01*
X008574Y008177D01*
X008881Y007870D01*
X008860Y007820D01*
X008780D01*
Y007187D01*
X009412D01*
Y007820D01*
X009276D01*
Y007913D01*
X009276Y007913D01*
X009263Y007983D01*
X009223Y008042D01*
X009223Y008042D01*
X008907Y008358D01*
X008928Y008408D01*
X009097D01*
Y009158D01*
D02*
G37*
G36*
X018120Y009252D02*
X017776D01*
Y008948D01*
X018120D01*
Y009252D01*
D02*
G37*
G36*
X017676D02*
X017333D01*
Y008948D01*
X017676D01*
Y009252D01*
D02*
G37*
G36*
X017155D02*
X016812D01*
Y008948D01*
X017155D01*
Y009252D01*
D02*
G37*
G36*
X016712D02*
X016368D01*
Y008948D01*
X016712D01*
Y009252D01*
D02*
G37*
G36*
X015970Y009005D02*
X015847D01*
Y008883D01*
X015867Y008887D01*
X015926Y008926D01*
X015966Y008985D01*
X015970Y009005D01*
D02*
G37*
G36*
X015747D02*
X015625D01*
X015629Y008985D01*
X015668Y008926D01*
X015727Y008887D01*
X015747Y008883D01*
Y009005D01*
D02*
G37*
G36*
X007968Y008966D02*
X007845D01*
Y008843D01*
X007865Y008847D01*
X007924Y008887D01*
X007964Y008946D01*
X007968Y008966D01*
D02*
G37*
G36*
X007745D02*
X007623D01*
X007627Y008946D01*
X007666Y008887D01*
X007726Y008847D01*
X007745Y008843D01*
Y008966D01*
D02*
G37*
G36*
X018597Y008936D02*
X018475D01*
Y008814D01*
X018495Y008818D01*
X018554Y008857D01*
X018594Y008916D01*
X018597Y008936D01*
D02*
G37*
G36*
X018375D02*
X018253D01*
X018257Y008916D01*
X018296Y008857D01*
X018355Y008818D01*
X018375Y008814D01*
Y008936D01*
D02*
G37*
G36*
X007500Y009124D02*
X007196D01*
Y008780D01*
X007500D01*
Y009124D01*
D02*
G37*
G36*
X007096D02*
X006791D01*
Y008780D01*
X007096D01*
Y009124D01*
D02*
G37*
G36*
X018120Y008848D02*
X017776D01*
Y008543D01*
X018120D01*
Y008848D01*
D02*
G37*
G36*
X017676D02*
X017333D01*
Y008543D01*
X017676D01*
Y008848D01*
D02*
G37*
G36*
X017155D02*
X016812D01*
Y008543D01*
X017155D01*
Y008848D01*
D02*
G37*
G36*
X016712D02*
X016368D01*
Y008543D01*
X016712D01*
Y008848D01*
D02*
G37*
G36*
X011163Y009322D02*
Y009322D01*
X011141Y009322D01*
X010570D01*
Y008768D01*
Y008257D01*
Y007745D01*
Y007233D01*
X011163D01*
Y007233D01*
X011190D01*
X011232Y007215D01*
X011259Y007183D01*
X011253Y007156D01*
X011267Y007085D01*
X011307Y007026D01*
X011367Y006986D01*
X011437Y006972D01*
X011507Y006986D01*
X011553Y007016D01*
X011556Y007017D01*
X011615Y007056D01*
X011654Y007115D01*
X011668Y007185D01*
Y007233D01*
X011783D01*
Y007808D01*
X011829Y007838D01*
X011859Y007825D01*
Y007233D01*
X012452D01*
Y007328D01*
X012510D01*
X012579Y007342D01*
X012605Y007359D01*
X012610Y007360D01*
X012669Y007400D01*
X012709Y007459D01*
X012723Y007530D01*
X012709Y007600D01*
X012669Y007659D01*
X012610Y007699D01*
X012539Y007713D01*
X012502Y007706D01*
X012452Y007743D01*
Y008352D01*
X012512D01*
X012520Y008350D01*
X012590Y008364D01*
X012649Y008404D01*
X012689Y008463D01*
X012694Y008487D01*
X012750Y008510D01*
X012775Y008493D01*
X012794Y008489D01*
Y008661D01*
X012894D01*
Y008489D01*
X012914Y008493D01*
X012973Y008533D01*
X012974Y008534D01*
X012993Y008553D01*
X012993Y008553D01*
X013032Y008612D01*
X013046Y008681D01*
X013046Y008681D01*
Y008770D01*
X013160D01*
Y008995D01*
X012864D01*
X012569D01*
Y008770D01*
X012607D01*
X012640Y008724D01*
X012590Y008703D01*
X012520Y008717D01*
X012512Y008715D01*
X012452D01*
Y009322D01*
X011859D01*
Y008768D01*
Y008516D01*
X011830Y008492D01*
X011783Y008513D01*
Y008768D01*
Y009322D01*
X011211D01*
X011190Y009322D01*
Y009322D01*
X011163D01*
D02*
G37*
G36*
X018809Y008720D02*
X018583D01*
Y008475D01*
X018809D01*
Y008720D01*
D02*
G37*
G36*
X018483D02*
X018258D01*
Y008475D01*
X018483D01*
Y008720D01*
D02*
G37*
G36*
X016230D02*
X016005D01*
Y008475D01*
X016230D01*
Y008720D01*
D02*
G37*
G36*
X015905D02*
X015679D01*
Y008475D01*
X015905D01*
Y008720D01*
D02*
G37*
G36*
X007500Y008680D02*
X007196D01*
Y008337D01*
X007500D01*
Y008680D01*
D02*
G37*
G36*
X007096D02*
X006791D01*
Y008337D01*
X007096D01*
Y008680D01*
D02*
G37*
G36*
X018809Y008375D02*
X018583D01*
Y008130D01*
X018809D01*
Y008375D01*
D02*
G37*
G36*
X018483D02*
X018258D01*
Y008130D01*
X018483D01*
Y008375D01*
D02*
G37*
G36*
X016230Y008375D02*
X016005D01*
Y008130D01*
X016230D01*
Y008375D01*
D02*
G37*
G36*
X015905D02*
X015679D01*
Y008130D01*
X015905D01*
Y008375D01*
D02*
G37*
G36*
X005674Y008208D02*
X005552D01*
Y008086D01*
X005572Y008090D01*
X005631Y008129D01*
X005670Y008188D01*
X005674Y008208D01*
D02*
G37*
G36*
X007008Y008031D02*
X006782D01*
Y007786D01*
X007008D01*
Y008031D01*
D02*
G37*
G36*
X006682D02*
X006457D01*
Y007786D01*
X006682D01*
Y008031D01*
D02*
G37*
G36*
X018121Y008151D02*
X017331D01*
Y007668D01*
X017285Y007649D01*
X017157Y007778D01*
Y008151D01*
X016367D01*
Y007938D01*
X016232D01*
Y008052D01*
X015678D01*
Y007459D01*
X016232D01*
Y007574D01*
X016367D01*
Y007440D01*
X017150D01*
X017276Y007314D01*
X017315Y007288D01*
X017362Y007279D01*
X018099D01*
Y007139D01*
X018049Y007113D01*
X018013Y007137D01*
X017993Y007141D01*
Y006969D01*
Y006796D01*
X018013Y006800D01*
X018049Y006825D01*
X018099Y006798D01*
Y006743D01*
X018099D01*
Y006729D01*
X017645D01*
X017591Y006718D01*
X017590Y006718D01*
X017544Y006709D01*
X017498Y006678D01*
X017491Y006671D01*
X017441Y006692D01*
Y006879D01*
X017087D01*
X016732D01*
Y006635D01*
X016731D01*
Y006511D01*
X016596D01*
Y006625D01*
X016042D01*
Y006032D01*
X016596D01*
Y006147D01*
X016731D01*
Y006042D01*
X017442D01*
Y006290D01*
X017458D01*
X017512Y006301D01*
X017558Y006331D01*
X017570Y006349D01*
X017662Y006441D01*
X017685Y006446D01*
X018005D01*
X018026Y006396D01*
X017940Y006309D01*
X017920Y006280D01*
X017482Y005842D01*
X017432Y005863D01*
Y005917D01*
X016721D01*
Y005782D01*
X016586D01*
Y005947D01*
X016032D01*
Y005354D01*
X016586D01*
Y005418D01*
X016721D01*
Y005324D01*
X016722D01*
Y005080D01*
X017431D01*
Y005324D01*
X017432D01*
Y005518D01*
X017500D01*
X017554Y005528D01*
X017600Y005559D01*
X018053Y006012D01*
X018099Y005993D01*
Y005757D01*
X018072Y005735D01*
X018002Y005721D01*
X017942Y005681D01*
X017902Y005622D01*
X017888Y005551D01*
X017902Y005481D01*
X017942Y005422D01*
X018002Y005382D01*
X018072Y005368D01*
X018087Y005355D01*
X018474D01*
X018848D01*
Y005402D01*
X018850D01*
Y005734D01*
X018871Y005766D01*
X018905Y005789D01*
X019134Y006017D01*
X019160Y006057D01*
X019170Y006103D01*
Y007349D01*
X019160Y007396D01*
X019134Y007436D01*
X018810Y007759D01*
Y008052D01*
X018257D01*
Y007977D01*
X018121D01*
Y008151D01*
D02*
G37*
G36*
X015010Y008914D02*
X014940Y008900D01*
X014880Y008860D01*
X014840Y008801D01*
X014826Y008730D01*
X014830Y008712D01*
Y008594D01*
X014807Y008559D01*
X014790Y008474D01*
Y007825D01*
X014807Y007740D01*
X014855Y007668D01*
X014927Y007620D01*
X015012Y007603D01*
X015097Y007620D01*
X015169Y007668D01*
X015217Y007740D01*
X015234Y007825D01*
Y008474D01*
X015217Y008559D01*
X015194Y008594D01*
Y008728D01*
X015193Y008730D01*
X015193Y008730D01*
X015179Y008801D01*
X015140Y008860D01*
X015080Y008900D01*
X015010Y008914D01*
D02*
G37*
G36*
X014508D02*
X014438Y008900D01*
X014378Y008860D01*
X014338Y008801D01*
X014324Y008730D01*
X014330Y008702D01*
Y008594D01*
X014307Y008559D01*
X014290Y008474D01*
Y007825D01*
X014307Y007740D01*
X014355Y007668D01*
X014427Y007620D01*
X014512Y007603D01*
X014597Y007620D01*
X014669Y007668D01*
X014717Y007740D01*
X014734Y007825D01*
Y008474D01*
X014717Y008559D01*
X014694Y008594D01*
Y008726D01*
X014680Y008796D01*
X014678Y008799D01*
X014677Y008801D01*
X014638Y008860D01*
X014578Y008900D01*
X014508Y008914D01*
D02*
G37*
G36*
X013830Y009322D02*
X013237D01*
Y008768D01*
X013352D01*
Y008627D01*
X013307Y008559D01*
X013290Y008474D01*
Y007825D01*
X013307Y007740D01*
X013352Y007673D01*
Y007635D01*
X013334Y007610D01*
X013330Y007587D01*
X013279D01*
X013279Y007589D01*
X013239Y007649D01*
X013180Y007688D01*
X013160Y007692D01*
Y007520D01*
Y007347D01*
X013180Y007351D01*
X013239Y007391D01*
X013279Y007450D01*
X013283Y007472D01*
X013334D01*
X013334Y007469D01*
X013374Y007410D01*
X013434Y007370D01*
X013504Y007356D01*
X013574Y007370D01*
X013634Y007410D01*
X013638Y007416D01*
X013662Y007440D01*
X013662Y007440D01*
X013701Y007499D01*
X013715Y007569D01*
X013715Y007569D01*
Y007737D01*
X013717Y007740D01*
X013734Y007825D01*
Y008474D01*
X013717Y008559D01*
X013715Y008562D01*
Y008733D01*
X013751Y008768D01*
X013830Y008768D01*
X013844Y008724D01*
Y008615D01*
X013807Y008559D01*
X013790Y008474D01*
Y007825D01*
X013807Y007740D01*
X013855Y007668D01*
X013927Y007620D01*
X014012Y007603D01*
X014097Y007620D01*
X014169Y007668D01*
X014217Y007740D01*
X014234Y007825D01*
Y008474D01*
X014217Y008559D01*
X014208Y008574D01*
Y008880D01*
X014209Y008888D01*
X014195Y008958D01*
X014155Y009018D01*
X014096Y009057D01*
X014026Y009071D01*
X013955Y009057D01*
X013896Y009018D01*
X013880Y008994D01*
X013830Y009009D01*
Y009322D01*
D02*
G37*
G36*
X013060Y007692D02*
X013040Y007688D01*
X012981Y007649D01*
X012942Y007589D01*
X012938Y007570D01*
X013060D01*
Y007692D01*
D02*
G37*
G36*
X010492Y007972D02*
X009902D01*
Y007746D01*
Y007560D01*
X010197D01*
X010492D01*
Y007746D01*
Y007972D01*
D02*
G37*
G36*
X007008Y007686D02*
X006782D01*
Y007441D01*
X007008D01*
Y007686D01*
D02*
G37*
G36*
X006682D02*
X006457D01*
Y007441D01*
X006682D01*
Y007686D01*
D02*
G37*
G36*
X013060Y007470D02*
X012938D01*
X012942Y007450D01*
X012981Y007391D01*
X013040Y007351D01*
X013060Y007347D01*
Y007470D01*
D02*
G37*
G36*
X010492Y007460D02*
X010247D01*
Y007234D01*
X010492D01*
Y007460D01*
D02*
G37*
G36*
X010147D02*
X009902D01*
Y007234D01*
X010147D01*
Y007460D01*
D02*
G37*
G36*
X007009Y007364D02*
X006455D01*
Y007120D01*
X006222D01*
Y007176D01*
X005629D01*
Y006780D01*
X006222D01*
Y006837D01*
X006455D01*
Y006770D01*
X007009D01*
Y007364D01*
D02*
G37*
G36*
X017893Y007141D02*
X017873Y007137D01*
X017814Y007097D01*
X017775Y007038D01*
X017771Y007018D01*
X017893D01*
Y007141D01*
D02*
G37*
G36*
X017441Y007224D02*
X017137D01*
Y006979D01*
X017441D01*
Y007224D01*
D02*
G37*
G36*
X017037D02*
X016732D01*
Y006979D01*
X017037D01*
Y007224D01*
D02*
G37*
G36*
X015070Y007072D02*
Y006950D01*
X015192D01*
X015188Y006969D01*
X015149Y007028D01*
X015089Y007068D01*
X015070Y007072D01*
D02*
G37*
G36*
X003337Y007042D02*
Y006920D01*
X003460D01*
X003456Y006940D01*
X003416Y006999D01*
X003357Y007038D01*
X003337Y007042D01*
D02*
G37*
G36*
X017893Y006919D02*
X017771D01*
X017775Y006899D01*
X017814Y006840D01*
X017873Y006800D01*
X017893Y006796D01*
Y006919D01*
D02*
G37*
G36*
X013878Y007229D02*
X013878Y007229D01*
X013337D01*
X013267Y007215D01*
X013208Y007176D01*
X013208Y007176D01*
X012837Y006805D01*
X012826Y006789D01*
X012777Y006779D01*
X012757Y006792D01*
X012737Y006796D01*
Y006624D01*
X012687D01*
Y006574D01*
X012515D01*
X012519Y006554D01*
X012558Y006495D01*
X012598Y006469D01*
X012610Y006410D01*
X012513Y006314D01*
X012452D01*
Y006409D01*
X012452D01*
Y006921D01*
X011859D01*
Y006367D01*
X011859D01*
Y006101D01*
X011830Y006077D01*
X011783Y006098D01*
Y006409D01*
X011783D01*
Y006921D01*
X011190D01*
Y006921D01*
X011163D01*
Y006921D01*
X010570D01*
Y006367D01*
X010570D01*
Y005855D01*
Y005363D01*
Y004871D01*
X011163D01*
Y004871D01*
X011190D01*
Y004871D01*
X011304D01*
Y004811D01*
X011303Y004803D01*
X011317Y004733D01*
X011356Y004673D01*
X011416Y004634D01*
X011486Y004620D01*
X011556Y004634D01*
X011616Y004673D01*
X011656Y004733D01*
X011670Y004803D01*
X011668Y004811D01*
Y004871D01*
X011783D01*
Y005363D01*
Y005695D01*
X011812Y005719D01*
X011859Y005698D01*
Y005363D01*
Y004871D01*
X012452D01*
Y004964D01*
X012472Y004968D01*
X012531Y005008D01*
X012571Y005068D01*
X012585Y005138D01*
X012583Y005147D01*
X012584Y005148D01*
X012570Y005217D01*
X012530Y005276D01*
X012471Y005316D01*
X012452Y005320D01*
Y005458D01*
X012951D01*
X012951Y005458D01*
X013017Y005471D01*
X013020Y005469D01*
X013036Y005419D01*
X012617Y005001D01*
X012578Y004942D01*
X012564Y004872D01*
X012564Y004872D01*
Y003434D01*
X012564Y003434D01*
X012578Y003364D01*
X012617Y003305D01*
X013000Y002923D01*
X013000Y002923D01*
X013020Y002909D01*
Y002588D01*
X013574D01*
Y003614D01*
X013020D01*
Y003482D01*
X012974Y003463D01*
X012928Y003509D01*
Y004797D01*
X013640Y005509D01*
X013680Y005568D01*
X013694Y005638D01*
X013694Y005638D01*
Y005756D01*
X013717Y005791D01*
X013734Y005876D01*
Y006526D01*
X013717Y006611D01*
X013669Y006683D01*
X013597Y006731D01*
X013512Y006748D01*
X013427Y006731D01*
X013355Y006683D01*
X013307Y006611D01*
X013290Y006526D01*
Y006236D01*
X012875Y005822D01*
X012452D01*
Y005950D01*
X012589D01*
X012589Y005950D01*
X012658Y005964D01*
X012717Y006003D01*
X013094Y006380D01*
X013094Y006380D01*
X013134Y006439D01*
X013147Y006509D01*
Y006601D01*
X013412Y006865D01*
X013803D01*
X013830Y006838D01*
Y006645D01*
X013807Y006611D01*
X013790Y006526D01*
Y005876D01*
X013807Y005791D01*
X013855Y005719D01*
X013927Y005671D01*
X014012Y005654D01*
X014097Y005671D01*
X014169Y005719D01*
X014217Y005791D01*
X014234Y005876D01*
Y006526D01*
X014217Y006611D01*
X014194Y006645D01*
Y006913D01*
X014194Y006913D01*
X014180Y006983D01*
X014140Y007042D01*
X014140Y007042D01*
X014007Y007176D01*
X013948Y007215D01*
X013878Y007229D01*
D02*
G37*
G36*
X016596Y007295D02*
X016042D01*
Y007140D01*
X016000D01*
X015946Y007129D01*
X015900Y007098D01*
X015530Y006728D01*
X015499Y006682D01*
X015488Y006628D01*
Y005925D01*
X013957Y004393D01*
X013574D01*
Y004814D01*
X013020D01*
Y003788D01*
X013574D01*
Y004110D01*
X014015D01*
X014070Y004121D01*
X014116Y004151D01*
X015730Y005766D01*
X015761Y005812D01*
X015772Y005866D01*
Y006569D01*
X015996Y006793D01*
X016042Y006774D01*
Y006701D01*
X016596D01*
Y006984D01*
X016598Y006998D01*
X016596Y007012D01*
Y007295D01*
D02*
G37*
G36*
X003460Y006820D02*
X003337D01*
Y006698D01*
X003357Y006702D01*
X003416Y006741D01*
X003456Y006800D01*
X003460Y006820D01*
D02*
G37*
G36*
X012637Y006796D02*
X012617Y006792D01*
X012558Y006753D01*
X012519Y006694D01*
X012515Y006674D01*
X012637D01*
Y006796D01*
D02*
G37*
G36*
X007874Y006995D02*
X007804Y006981D01*
X007744Y006941D01*
X007704Y006881D01*
X007690Y006811D01*
X007704Y006741D01*
X007744Y006681D01*
X007751Y006677D01*
X007901Y006527D01*
X007882Y006480D01*
X007728D01*
Y006497D01*
X007233D01*
Y006180D01*
X007728D01*
Y006197D01*
X008058D01*
Y006081D01*
X008651D01*
Y006635D01*
X008307D01*
X008008Y006934D01*
X008004Y006941D01*
X007944Y006981D01*
X007874Y006995D01*
D02*
G37*
G36*
X008974Y006634D02*
X008728D01*
Y006408D01*
X008974D01*
Y006634D01*
D02*
G37*
G36*
X014970Y007072D02*
X014950Y007068D01*
X014891Y007028D01*
X014890Y007027D01*
X014883Y007020D01*
X014844Y006961D01*
X014830Y006892D01*
X014830Y006892D01*
Y006643D01*
X014808Y006610D01*
X014791Y006526D01*
Y006251D01*
X015012D01*
X015233D01*
Y006526D01*
X015216Y006610D01*
X015194Y006643D01*
Y006850D01*
X015020D01*
Y006900D01*
X014970D01*
Y007072D01*
D02*
G37*
G36*
X008974Y006308D02*
X008728D01*
Y006083D01*
X008974D01*
Y006308D01*
D02*
G37*
G36*
X015233Y006151D02*
X015062D01*
Y005665D01*
X015096Y005672D01*
X015168Y005720D01*
X015216Y005792D01*
X015233Y005876D01*
Y006151D01*
D02*
G37*
G36*
X014962D02*
X014791D01*
Y005876D01*
X014808Y005792D01*
X014856Y005720D01*
X014927Y005672D01*
X014962Y005665D01*
Y006151D01*
D02*
G37*
G36*
X003151Y006566D02*
X002558D01*
Y006013D01*
Y005491D01*
X002558D01*
X002558Y005464D01*
X002558D01*
X002558Y005441D01*
Y004910D01*
X003151D01*
Y005464D01*
X003151D01*
X003151Y005491D01*
X003151D01*
X003151Y005514D01*
Y006013D01*
Y006566D01*
D02*
G37*
G36*
X008625Y007820D02*
X007993D01*
Y007187D01*
X008176D01*
Y007095D01*
X008186Y007044D01*
X008215Y007001D01*
X008400Y006816D01*
X008443Y006787D01*
X008494Y006777D01*
X009049D01*
X009146Y006680D01*
X009127Y006634D01*
X009074D01*
Y006358D01*
Y006083D01*
X009092D01*
X009112Y006036D01*
X008930Y005855D01*
X008901Y005812D01*
X008891Y005761D01*
Y005428D01*
X008727D01*
Y004874D01*
X009320D01*
Y005428D01*
X009156D01*
Y005706D01*
X009464Y006014D01*
X009493Y006057D01*
X009503Y006108D01*
Y006644D01*
X009493Y006694D01*
X009464Y006737D01*
X009198Y007003D01*
X009155Y007032D01*
X009104Y007042D01*
X008549D01*
X008454Y007137D01*
X008471Y007187D01*
X008625D01*
Y007820D01*
D02*
G37*
G36*
X007728Y005986D02*
X007233D01*
Y005668D01*
X007276D01*
X007291Y005638D01*
X007298Y005618D01*
X007288Y005570D01*
Y005434D01*
X007135D01*
Y004881D01*
X007728D01*
Y005016D01*
X007975D01*
X007980Y005008D01*
X008040Y004968D01*
X008058Y004965D01*
Y004874D01*
X008651D01*
Y005428D01*
X008058D01*
Y005311D01*
X008040Y005307D01*
X008028Y005299D01*
X007728D01*
Y005434D01*
X007572D01*
Y005511D01*
X007581Y005520D01*
X007611Y005566D01*
X007622Y005620D01*
Y005668D01*
X007728D01*
Y005986D01*
D02*
G37*
G36*
X017431Y004980D02*
X017127D01*
Y004735D01*
X017431D01*
Y004980D01*
D02*
G37*
G36*
X017027D02*
X016722D01*
Y004735D01*
X017027D01*
Y004980D01*
D02*
G37*
G36*
X002835Y004838D02*
Y004715D01*
X002958D01*
X002954Y004735D01*
X002914Y004794D01*
X002855Y004834D01*
X002835Y004838D01*
D02*
G37*
G36*
X002735D02*
X002716Y004834D01*
X002657Y004794D01*
X002617Y004735D01*
X002613Y004715D01*
X002735D01*
Y004838D01*
D02*
G37*
G36*
X014512Y006748D02*
X014427Y006731D01*
X014355Y006683D01*
X014307Y006611D01*
X014290Y006526D01*
Y005876D01*
X014307Y005791D01*
X014330Y005756D01*
Y005640D01*
X013769Y005079D01*
X013730Y005020D01*
X013716Y004951D01*
X013716Y004951D01*
Y004890D01*
X013714Y004882D01*
X013728Y004812D01*
X013768Y004752D01*
X013827Y004712D01*
X013898Y004698D01*
X013968Y004712D01*
X014027Y004752D01*
X014067Y004812D01*
X014080Y004876D01*
X014640Y005436D01*
X014640Y005436D01*
X014680Y005495D01*
X014694Y005565D01*
X014694Y005565D01*
Y005756D01*
X014717Y005791D01*
X014734Y005876D01*
Y006526D01*
X014717Y006611D01*
X014669Y006683D01*
X014597Y006731D01*
X014512Y006748D01*
D02*
G37*
G36*
X016586Y005278D02*
X016032D01*
Y005113D01*
X015354D01*
X015285Y005099D01*
X015226Y005060D01*
X015226Y005060D01*
X015029Y004863D01*
X014996Y004814D01*
X014890D01*
Y003788D01*
X015444D01*
Y004749D01*
X016032D01*
Y004685D01*
X016586D01*
Y005278D01*
D02*
G37*
G36*
X008377Y004779D02*
Y004656D01*
X008499D01*
X008495Y004676D01*
X008456Y004735D01*
X008397Y004775D01*
X008377Y004779D01*
D02*
G37*
G36*
X008277D02*
X008257Y004775D01*
X008198Y004735D01*
X008158Y004676D01*
X008154Y004656D01*
X008277D01*
Y004779D01*
D02*
G37*
G36*
X017637Y004724D02*
X017515D01*
X017519Y004704D01*
X017558Y004645D01*
X017617Y004605D01*
X017637Y004601D01*
Y004724D01*
D02*
G37*
G36*
X002958Y004615D02*
X002835D01*
Y004493D01*
X002855Y004497D01*
X002914Y004536D01*
X002954Y004596D01*
X002958Y004615D01*
D02*
G37*
G36*
X002735D02*
X002613D01*
X002617Y004596D01*
X002657Y004536D01*
X002716Y004497D01*
X002735Y004493D01*
Y004615D01*
D02*
G37*
G36*
X008499Y004556D02*
X008377D01*
Y004434D01*
X008397Y004438D01*
X008456Y004477D01*
X008495Y004537D01*
X008499Y004556D01*
D02*
G37*
G36*
X008277D02*
X008154D01*
X008158Y004537D01*
X008198Y004477D01*
X008257Y004438D01*
X008277Y004434D01*
Y004556D01*
D02*
G37*
G36*
X004774Y004424D02*
Y004302D01*
X004897D01*
X004893Y004322D01*
X004853Y004381D01*
X004794Y004420D01*
X004774Y004424D01*
D02*
G37*
G36*
X004674D02*
X004655Y004420D01*
X004596Y004381D01*
X004556Y004322D01*
X004552Y004302D01*
X004674D01*
Y004424D01*
D02*
G37*
G36*
X017451Y004459D02*
X017107D01*
Y004154D01*
X017451D01*
Y004459D01*
D02*
G37*
G36*
X017007D02*
X016663D01*
Y004154D01*
X017007D01*
Y004459D01*
D02*
G37*
G36*
X004897Y004202D02*
X004774D01*
Y004080D01*
X004794Y004084D01*
X004853Y004123D01*
X004893Y004182D01*
X004897Y004202D01*
D02*
G37*
G36*
X004674D02*
X004552D01*
X004556Y004182D01*
X004596Y004123D01*
X004655Y004084D01*
X004674Y004080D01*
Y004202D01*
D02*
G37*
G36*
X014657Y004138D02*
Y004016D01*
X014780D01*
X014776Y004035D01*
X014736Y004094D01*
X014677Y004134D01*
X014657Y004138D01*
D02*
G37*
G36*
X014557D02*
X014537Y004134D01*
X014478Y004094D01*
X014439Y004035D01*
X014435Y004016D01*
X014557D01*
Y004138D01*
D02*
G37*
G36*
X014780Y003916D02*
X014657D01*
Y003793D01*
X014677Y003797D01*
X014736Y003837D01*
X014776Y003896D01*
X014780Y003916D01*
D02*
G37*
G36*
X014557D02*
X014435D01*
X014439Y003896D01*
X014478Y003837D01*
X014537Y003797D01*
X014557Y003793D01*
Y003916D01*
D02*
G37*
G36*
X016575Y004006D02*
X016349D01*
Y003761D01*
X016575D01*
Y004006D01*
D02*
G37*
G36*
X016249D02*
X016024D01*
Y003761D01*
X016249D01*
Y004006D01*
D02*
G37*
G36*
X017451Y004054D02*
X017107D01*
Y003750D01*
X017451D01*
Y004054D01*
D02*
G37*
G36*
X017007D02*
X016663D01*
Y003750D01*
X017007D01*
Y004054D01*
D02*
G37*
G36*
X009454Y004308D02*
X009383Y004294D01*
X009324Y004255D01*
X009284Y004195D01*
X009270Y004125D01*
X009284Y004055D01*
X009317Y004006D01*
Y003740D01*
X009270Y003724D01*
X009251Y003749D01*
X009144Y003830D01*
X009021Y003881D01*
X008938Y003892D01*
Y003386D01*
Y002879D01*
X009021Y002890D01*
X009144Y002941D01*
X009251Y003023D01*
X009269Y003047D01*
X009322Y003034D01*
X009328Y003007D01*
X009358Y002961D01*
X009705Y002615D01*
X009714Y002568D01*
X009753Y002509D01*
X010049Y002214D01*
X010108Y002174D01*
X010177Y002161D01*
X010177Y002161D01*
X011440D01*
X011817Y001784D01*
X011799Y001731D01*
X011758Y001725D01*
X011681Y001694D01*
X011615Y001643D01*
X011564Y001577D01*
X011532Y001500D01*
X011522Y001417D01*
X011532Y001335D01*
X011564Y001258D01*
X011615Y001192D01*
X011681Y001141D01*
X011758Y001109D01*
X011841Y001098D01*
X011923Y001109D01*
X012000Y001141D01*
X012066Y001192D01*
X012117Y001258D01*
X012149Y001335D01*
X012154Y001376D01*
X012207Y001394D01*
X012352Y001249D01*
X012352Y001249D01*
X012411Y001210D01*
X012480Y001196D01*
X012480Y001196D01*
X013992D01*
X013992Y001196D01*
X014062Y001210D01*
X014121Y001249D01*
X014410Y001538D01*
X014450Y001597D01*
X014463Y001667D01*
X014463Y001667D01*
Y001687D01*
X014471Y001690D01*
X014549Y001750D01*
X014609Y001828D01*
X014647Y001920D01*
X014660Y002018D01*
X014647Y002116D01*
X014609Y002207D01*
X014549Y002285D01*
X014471Y002346D01*
X014379Y002383D01*
X014282Y002396D01*
X014184Y002383D01*
X014092Y002346D01*
X014014Y002285D01*
X013954Y002207D01*
X013916Y002116D01*
X013903Y002018D01*
X013916Y001920D01*
X013954Y001828D01*
X014014Y001750D01*
X014037Y001733D01*
X014040Y001683D01*
X013917Y001560D01*
X012556D01*
X011644Y002471D01*
X011585Y002511D01*
X011516Y002524D01*
X011516Y002524D01*
X010253D01*
X010096Y002681D01*
X010348Y002932D01*
X010378Y002978D01*
X010389Y003033D01*
Y003077D01*
X010439Y003094D01*
X010494Y003023D01*
X010600Y002941D01*
X010724Y002890D01*
X010806Y002879D01*
Y003386D01*
Y003892D01*
X010724Y003881D01*
X010600Y003830D01*
X010494Y003749D01*
X010439Y003678D01*
X010389Y003695D01*
Y003759D01*
X010378Y003813D01*
X010348Y003859D01*
X010248Y003959D01*
X010202Y003989D01*
X010148Y004000D01*
X009979D01*
X009754Y004225D01*
X009708Y004256D01*
X009654Y004267D01*
X009565D01*
X009524Y004294D01*
X009454Y004308D01*
D02*
G37*
G36*
X010062Y007122D02*
X009992Y007109D01*
X009932Y007069D01*
X009893Y007009D01*
X009879Y006939D01*
X009893Y006869D01*
X009900Y006857D01*
Y006367D01*
X009900D01*
Y006191D01*
X009713Y006003D01*
X009682Y005957D01*
X009671Y005903D01*
Y004764D01*
X009682Y004710D01*
X009713Y004664D01*
X010234Y004142D01*
X010280Y004111D01*
X010335Y004100D01*
X011162D01*
X011479Y003784D01*
X011477Y003750D01*
X011395Y003643D01*
X011373Y003589D01*
X011323D01*
X011301Y003642D01*
X011219Y003749D01*
X011113Y003830D01*
X010989Y003881D01*
X010906Y003892D01*
Y003386D01*
Y002879D01*
X010989Y002890D01*
X011113Y002941D01*
X011219Y003023D01*
X011301Y003129D01*
X011323Y003182D01*
X011373D01*
X011395Y003129D01*
X011477Y003022D01*
X011583Y002940D01*
X011707Y002889D01*
X011841Y002871D01*
X011974Y002889D01*
X012098Y002940D01*
X012204Y003022D01*
X012286Y003129D01*
X012337Y003253D01*
X012355Y003386D01*
X012337Y003519D01*
X012286Y003643D01*
X012204Y003750D01*
X012098Y003831D01*
X011974Y003883D01*
X011841Y003900D01*
X011772Y003891D01*
X011321Y004342D01*
X011275Y004373D01*
X011221Y004384D01*
X010393D01*
X010222Y004555D01*
X010238Y004609D01*
X010267Y004615D01*
X010326Y004655D01*
X010365Y004714D01*
X010369Y004733D01*
X010197D01*
Y004833D01*
X010379D01*
Y004872D01*
X010492D01*
Y005098D01*
X010197D01*
Y005198D01*
X010492D01*
Y005364D01*
Y005590D01*
X010197D01*
Y005690D01*
X010492D01*
Y005855D01*
X010493D01*
Y006409D01*
X010493D01*
Y006921D01*
X010261D01*
X010246Y006939D01*
X010232Y007009D01*
X010192Y007069D01*
X010132Y007109D01*
X010062Y007122D01*
D02*
G37*
G36*
X014026Y003676D02*
Y003554D01*
X014149D01*
X014145Y003574D01*
X014105Y003633D01*
X014046Y003672D01*
X014026Y003676D01*
D02*
G37*
G36*
X013926D02*
X013907Y003672D01*
X013848Y003633D01*
X013808Y003574D01*
X013804Y003554D01*
X013926D01*
Y003676D01*
D02*
G37*
G36*
X003938Y003892D02*
Y003436D01*
X004394D01*
X004383Y003519D01*
X004332Y003642D01*
X004251Y003749D01*
X004144Y003830D01*
X004021Y003881D01*
X003938Y003892D01*
D02*
G37*
G36*
X005806Y003892D02*
X005724Y003881D01*
X005600Y003830D01*
X005494Y003749D01*
X005412Y003642D01*
X005361Y003519D01*
X005350Y003436D01*
X005806D01*
Y003892D01*
D02*
G37*
G36*
X016575Y003661D02*
X016349D01*
Y003415D01*
X016575D01*
Y003661D01*
D02*
G37*
G36*
X016249D02*
X016024D01*
Y003415D01*
X016249D01*
Y003661D01*
D02*
G37*
G36*
X014149Y003454D02*
X014026D01*
Y003332D01*
X014046Y003336D01*
X014105Y003375D01*
X014145Y003434D01*
X014149Y003454D01*
D02*
G37*
G36*
X013926D02*
X013804D01*
X013808Y003434D01*
X013848Y003375D01*
X013907Y003336D01*
X013926Y003332D01*
Y003454D01*
D02*
G37*
G36*
X016968Y003609D02*
X016898Y003595D01*
X016839Y003555D01*
X016799Y003495D01*
X016785Y003425D01*
X016787Y003417D01*
Y003358D01*
X016662D01*
Y003223D01*
X016576D01*
Y003338D01*
X016022D01*
Y002745D01*
X016576D01*
Y002859D01*
X016662D01*
Y002646D01*
X017452D01*
Y003358D01*
X017150D01*
Y003417D01*
X017152Y003425D01*
X017138Y003495D01*
X017098Y003555D01*
X017039Y003595D01*
X016968Y003609D01*
D02*
G37*
G36*
X004872Y003705D02*
X004789Y003694D01*
X004713Y003662D01*
X004647Y003611D01*
X004596Y003545D01*
X004564Y003468D01*
X004553Y003386D01*
X004564Y003303D01*
X004596Y003226D01*
X004647Y003160D01*
X004713Y003110D01*
X004789Y003078D01*
X004802Y003076D01*
X004808Y003064D01*
X004820Y003023D01*
X004818Y003013D01*
X005162D01*
X005159Y003032D01*
X005119Y003091D01*
X005103Y003102D01*
X005098Y003158D01*
X005100Y003164D01*
X005148Y003226D01*
X005180Y003303D01*
X005191Y003386D01*
X005180Y003468D01*
X005148Y003545D01*
X005098Y003611D01*
X005032Y003662D01*
X004955Y003694D01*
X004872Y003705D01*
D02*
G37*
G36*
X005806Y003336D02*
X005350D01*
X005361Y003253D01*
X005412Y003129D01*
X005494Y003023D01*
X005600Y002941D01*
X005724Y002890D01*
X005806Y002879D01*
Y003336D01*
D02*
G37*
G36*
X004394D02*
X003938D01*
Y002879D01*
X004021Y002890D01*
X004144Y002941D01*
X004251Y003023D01*
X004332Y003129D01*
X004383Y003253D01*
X004394Y003336D01*
D02*
G37*
G36*
X005162Y002913D02*
X005040D01*
Y002790D01*
X005060Y002794D01*
X005119Y002834D01*
X005159Y002893D01*
X005162Y002913D01*
D02*
G37*
G36*
X004940D02*
X004818D01*
X004822Y002893D01*
X004861Y002834D01*
X004920Y002794D01*
X004940Y002790D01*
Y002913D01*
D02*
G37*
G36*
X014596Y003658D02*
X014526Y003644D01*
X014467Y003604D01*
X014427Y003545D01*
X014413Y003474D01*
X014427Y003404D01*
X014467Y003345D01*
X014526Y003305D01*
X014596Y003291D01*
X014605Y003292D01*
X014659D01*
X014890Y003061D01*
Y002588D01*
X015444D01*
Y003614D01*
X014890D01*
X014890Y003614D01*
X014842Y003617D01*
X014804Y003642D01*
X014735Y003656D01*
X014735Y003656D01*
X014605D01*
X014596Y003658D01*
D02*
G37*
G36*
X018284Y002231D02*
Y001910D01*
X018605D01*
X018599Y001958D01*
X018561Y002049D01*
X018501Y002127D01*
X018423Y002187D01*
X018332Y002225D01*
X018284Y002231D01*
D02*
G37*
G36*
X018184D02*
X018137Y002225D01*
X018046Y002187D01*
X017967Y002127D01*
X017908Y002049D01*
X017870Y001958D01*
X017864Y001910D01*
X018184D01*
Y002231D01*
D02*
G37*
G36*
X013673Y002393D02*
X012922D01*
Y001642D01*
X013673D01*
Y002393D01*
D02*
G37*
G36*
X018605Y001810D02*
X018284D01*
Y001490D01*
X018332Y001496D01*
X018423Y001534D01*
X018501Y001593D01*
X018561Y001672D01*
X018599Y001763D01*
X018605Y001810D01*
D02*
G37*
G36*
X018184D02*
X017864D01*
X017870Y001763D01*
X017908Y001672D01*
X017967Y001593D01*
X018046Y001534D01*
X018137Y001496D01*
X018184Y001490D01*
Y001810D01*
D02*
G37*
G36*
X009922Y001924D02*
Y001467D01*
X010379D01*
X010368Y001550D01*
X010316Y001674D01*
X010235Y001780D01*
X010129Y001862D01*
X010005Y001913D01*
X009922Y001924D01*
D02*
G37*
G36*
X009822D02*
X009739Y001913D01*
X009615Y001862D01*
X009509Y001780D01*
X009428Y001674D01*
X009376Y001550D01*
X009366Y001467D01*
X009822D01*
Y001924D01*
D02*
G37*
G36*
X004922Y001924D02*
Y001467D01*
X005379D01*
X005368Y001550D01*
X005316Y001674D01*
X005235Y001780D01*
X005129Y001862D01*
X005005Y001913D01*
X004922Y001924D01*
D02*
G37*
G36*
X004822Y001924D02*
X004739Y001913D01*
X004615Y001862D01*
X004509Y001780D01*
X004428Y001674D01*
X004376Y001550D01*
X004365Y001467D01*
X004822D01*
Y001924D01*
D02*
G37*
G36*
X007904Y001736D02*
X007821Y001725D01*
X007744Y001694D01*
X007678Y001643D01*
X007627Y001577D01*
X007595Y001500D01*
X007585Y001417D01*
X007595Y001335D01*
X007627Y001258D01*
X007678Y001192D01*
X007744Y001141D01*
X007821Y001109D01*
X007904Y001098D01*
X007986Y001109D01*
X008063Y001141D01*
X008129Y001192D01*
X008180Y001258D01*
X008212Y001335D01*
X008222Y001417D01*
X008212Y001500D01*
X008180Y001577D01*
X008129Y001643D01*
X008063Y001694D01*
X007986Y001725D01*
X007904Y001736D01*
D02*
G37*
G36*
X006841D02*
X006758Y001725D01*
X006681Y001694D01*
X006615Y001643D01*
X006564Y001577D01*
X006532Y001500D01*
X006522Y001417D01*
X006532Y001335D01*
X006564Y001258D01*
X006615Y001192D01*
X006681Y001141D01*
X006758Y001109D01*
X006841Y001098D01*
X006923Y001109D01*
X007000Y001141D01*
X007066Y001192D01*
X007117Y001258D01*
X007149Y001335D01*
X007159Y001417D01*
X007149Y001500D01*
X007117Y001577D01*
X007066Y001643D01*
X007000Y001694D01*
X006923Y001725D01*
X006841Y001736D01*
D02*
G37*
G36*
X005379Y001367D02*
X004922D01*
Y000911D01*
X005005Y000922D01*
X005129Y000973D01*
X005235Y001054D01*
X005316Y001161D01*
X005368Y001285D01*
X005379Y001367D01*
D02*
G37*
G36*
X010379Y001367D02*
X009922D01*
Y000911D01*
X010005Y000922D01*
X010129Y000973D01*
X010235Y001054D01*
X010316Y001161D01*
X010368Y001285D01*
X010379Y001367D01*
D02*
G37*
G36*
X009822D02*
X009366D01*
X009376Y001285D01*
X009428Y001161D01*
X009509Y001054D01*
X009615Y000973D01*
X009739Y000922D01*
X009822Y000911D01*
Y001367D01*
D02*
G37*
G36*
X004822Y001367D02*
X004365D01*
X004376Y001285D01*
X004428Y001161D01*
X004509Y001054D01*
X004615Y000973D01*
X004739Y000922D01*
X004822Y000911D01*
Y001367D01*
D02*
G37*
G36*
X019365Y000428D02*
Y000306D01*
X019488D01*
X019484Y000326D01*
X019444Y000385D01*
X019385Y000424D01*
X019365Y000428D01*
D02*
G37*
G36*
X008497D02*
X008477Y000424D01*
X008418Y000385D01*
X008379Y000326D01*
X008375Y000306D01*
X008497D01*
Y000428D01*
D02*
G37*
G36*
X007412D02*
Y000306D01*
X007534D01*
X007531Y000326D01*
X007491Y000385D01*
X007432Y000424D01*
X007412Y000428D01*
D02*
G37*
G36*
X007312D02*
X007292Y000424D01*
X007233Y000385D01*
X007194Y000326D01*
X007190Y000306D01*
X007312D01*
Y000428D01*
D02*
G37*
G36*
X006320D02*
Y000306D01*
X006442D01*
X006438Y000326D01*
X006399Y000385D01*
X006339Y000424D01*
X006320Y000428D01*
D02*
G37*
%LPD*%
D10*
X015167Y003101D02*
D03*
Y004301D02*
D03*
X013297D02*
D03*
Y003101D02*
D03*
D11*
X001629Y003376D02*
D03*
X001309D02*
D03*
X000989D02*
D03*
X023962Y007000D02*
D03*
X023642D02*
D03*
X023322D02*
D03*
Y007838D02*
D03*
X023642D02*
D03*
X023962D02*
D03*
D12*
X002470Y008854D02*
D03*
Y009178D02*
D03*
X019793Y001486D02*
D03*
Y001841D02*
D03*
X020413Y001486D02*
D03*
Y001841D02*
D03*
D13*
X021329Y006998D02*
D03*
X018474D02*
D03*
D14*
X023740Y004203D02*
D03*
X024488D02*
D03*
X023740Y005148D02*
D03*
X024488D02*
D03*
D15*
X023258Y008947D02*
D03*
D16*
X024656Y006791D02*
D03*
X002260Y007330D02*
D03*
D17*
Y006220D02*
D03*
D18*
X017992Y005059D02*
D03*
X021791Y005817D02*
D03*
Y006093D02*
D03*
X017992Y004774D02*
D03*
X021791Y005541D02*
D03*
D19*
X008703Y008783D02*
D03*
D20*
X009096Y007504D02*
D03*
X008309D02*
D03*
D21*
X003809Y008385D02*
D03*
X003218D02*
D03*
X004905Y005210D02*
D03*
X004315D02*
D03*
D22*
X017077Y005030D02*
D03*
Y005621D02*
D03*
X017087Y006929D02*
D03*
Y006339D02*
D03*
D23*
X003523Y005187D02*
D03*
X002854D02*
D03*
X002854Y006289D02*
D03*
X003524D02*
D03*
X009023Y005151D02*
D03*
X008354D02*
D03*
X023770Y003386D02*
D03*
X024439D02*
D03*
X010866Y007510D02*
D03*
X010197D02*
D03*
Y008533D02*
D03*
X010866D02*
D03*
X010197Y009045D02*
D03*
X010866D02*
D03*
X010866Y005148D02*
D03*
X010197D02*
D03*
Y006132D02*
D03*
X010866D02*
D03*
X010197Y006644D02*
D03*
X010866D02*
D03*
X012155Y008022D02*
D03*
X011486D02*
D03*
X012155Y005640D02*
D03*
X011486D02*
D03*
X003219Y008982D02*
D03*
X003888D02*
D03*
X004281Y005788D02*
D03*
X004951D02*
D03*
X004951Y006289D02*
D03*
X004282D02*
D03*
X006762Y005157D02*
D03*
X007431D02*
D03*
X008354Y006358D02*
D03*
X009024D02*
D03*
X002854Y005768D02*
D03*
X003524D02*
D03*
X012864Y009045D02*
D03*
X013533D02*
D03*
X011486Y005148D02*
D03*
X012155D02*
D03*
X012155Y006644D02*
D03*
X011486D02*
D03*
X012155Y006132D02*
D03*
X011486D02*
D03*
X010197Y005640D02*
D03*
X010866D02*
D03*
X011486Y007510D02*
D03*
X012155D02*
D03*
Y009045D02*
D03*
X011486D02*
D03*
X012155Y008533D02*
D03*
X011486D02*
D03*
X010197Y008022D02*
D03*
X010866D02*
D03*
X003386Y007618D02*
D03*
X004055D02*
D03*
D24*
X023740Y005994D02*
D03*
X023110D02*
D03*
X019065Y003543D02*
D03*
X018435D02*
D03*
X020748Y003543D02*
D03*
X021378D02*
D03*
X020748Y002815D02*
D03*
X021378D02*
D03*
D25*
X007480Y006339D02*
D03*
Y005827D02*
D03*
X006732D02*
D03*
Y006083D02*
D03*
Y006339D02*
D03*
D26*
X000541Y006339D02*
D03*
Y007283D02*
D03*
D27*
Y005236D02*
D03*
Y008386D02*
D03*
D28*
X001673Y008031D02*
D03*
Y005591D02*
D03*
D29*
X001722Y007067D02*
D03*
Y007323D02*
D03*
Y006299D02*
D03*
Y006555D02*
D03*
Y006811D02*
D03*
D30*
X016309Y004981D02*
D03*
Y005650D02*
D03*
X016319Y006998D02*
D03*
Y006329D02*
D03*
X021014Y001801D02*
D03*
Y001132D02*
D03*
X006732Y007067D02*
D03*
Y007736D02*
D03*
X004528Y008346D02*
D03*
Y009016D02*
D03*
X006112Y005827D02*
D03*
Y005158D02*
D03*
X018533Y007756D02*
D03*
Y008425D02*
D03*
X015955Y007756D02*
D03*
Y008425D02*
D03*
X005512Y005158D02*
D03*
Y005827D02*
D03*
X016299Y003041D02*
D03*
Y003711D02*
D03*
D31*
X022766Y004104D02*
D03*
Y003002D02*
D03*
X017726Y008898D02*
D03*
Y007795D02*
D03*
X016762Y008898D02*
D03*
Y007795D02*
D03*
X017057Y004104D02*
D03*
Y003002D02*
D03*
D32*
X005925Y007726D02*
D03*
Y006978D02*
D03*
X004980D02*
D03*
Y007352D02*
D03*
Y007726D02*
D03*
D33*
X007146Y008730D02*
D03*
X006043D02*
D03*
D34*
X021791Y002057D02*
D03*
X022539D02*
D03*
Y001112D02*
D03*
X022165D02*
D03*
X021791D02*
D03*
D35*
X018474Y006585D02*
D03*
Y006329D02*
D03*
Y006073D02*
D03*
Y005817D02*
D03*
Y005561D02*
D03*
Y005305D02*
D03*
Y005049D02*
D03*
Y004793D02*
D03*
Y004537D02*
D03*
Y004281D02*
D03*
X021329D02*
D03*
Y004537D02*
D03*
Y004793D02*
D03*
Y005049D02*
D03*
Y005305D02*
D03*
Y005561D02*
D03*
Y005817D02*
D03*
Y006073D02*
D03*
Y006329D02*
D03*
Y006585D02*
D03*
D36*
X013512Y006201D02*
D03*
X014012D02*
D03*
X014512D02*
D03*
X015012D02*
D03*
X013512Y008150D02*
D03*
X014012D02*
D03*
X014512D02*
D03*
X015012D02*
D03*
D37*
X013512Y005638D02*
Y006201D01*
X012746Y004872D02*
X013512Y005638D01*
X012746Y003434D02*
Y004872D01*
Y003434D02*
X013128Y003052D01*
X010167Y009016D02*
X010197Y009045D01*
X009744Y009016D02*
X010167D01*
X019540Y001860D02*
X019793D01*
X019343Y001663D02*
X019540Y001860D01*
X018996Y001663D02*
X019343D01*
X018045Y001049D02*
X018234Y000860D01*
X017715Y001049D02*
X018045D01*
X017430Y001334D02*
X017715Y001049D01*
X015930Y001334D02*
X017430D01*
X015266Y001998D02*
X015930Y001334D01*
X015266Y001998D02*
Y002018D01*
X017132Y000758D02*
X017234Y000860D01*
X015266Y000758D02*
X017132D01*
X005925Y007726D02*
Y007825D01*
X006201Y008100D01*
X006043Y008258D02*
X006201Y008100D01*
X006043Y008258D02*
Y008730D01*
X012480Y001378D02*
X013992D01*
X011516Y002343D02*
X012480Y001378D01*
X014282Y001667D02*
Y002018D01*
X013992Y001378D02*
X014282Y001667D01*
X009882Y002638D02*
X010177Y002343D01*
X011516D01*
X013878Y007047D02*
X014012Y006913D01*
X013337Y007047D02*
X013878D01*
X012965Y006676D02*
X013337Y007047D01*
X012155Y006132D02*
X012589D01*
X012965Y006509D01*
Y006676D01*
X014012Y006201D02*
Y006913D01*
X014512Y005565D02*
Y006201D01*
X013898Y004951D02*
X014512Y005565D01*
X013898Y004882D02*
Y004951D01*
X016968Y003169D02*
Y003425D01*
Y003169D02*
X017057Y003081D01*
X017018Y003041D02*
X017057Y003081D01*
X016299Y003041D02*
X017018D01*
X014596Y003474D02*
X014735D01*
X015157Y003052D01*
X015354Y004931D02*
X016309D01*
X015157Y004528D02*
Y004734D01*
Y004252D02*
Y004528D01*
Y004734D02*
X015354Y004931D01*
X013128Y003052D02*
X013287D01*
X008685Y008789D02*
X008703Y008771D01*
X008248Y008789D02*
X008685D01*
X004980Y007726D02*
Y007894D01*
X004870Y007725D02*
X004926Y007781D01*
X004354Y007618D02*
X004461Y007725D01*
X004528Y008346D02*
X004980Y007894D01*
X014012Y008150D02*
X014026Y008163D01*
Y008888D01*
X005020Y007372D02*
X005315D01*
X004980Y007333D02*
X005020Y007372D01*
X005738Y000256D02*
X006206D01*
X002756Y004252D02*
X003268D01*
X002279Y003775D02*
X002756Y004252D01*
X015012Y006892D02*
X015020Y006900D01*
X015012Y006201D02*
Y006892D01*
X016457Y006329D02*
X017057D01*
X003210Y008482D02*
Y009360D01*
Y008482D02*
X003297Y008395D01*
X001929Y008858D02*
X002534D01*
X002544Y008848D01*
X004489Y008395D02*
X004528Y008356D01*
X003888Y008395D02*
X004489D01*
X004501Y009042D02*
X004528Y009016D01*
X006466Y002537D02*
X006959Y003029D01*
Y003396D01*
X013533Y007569D02*
Y009045D01*
X013504Y007539D02*
X013533Y007569D01*
X002923Y003297D02*
X003022Y003396D01*
X001629Y003297D02*
X002923D01*
X005098Y011555D02*
X005600D01*
X004606D02*
X005098D01*
X004104D02*
X004606D01*
X003612D02*
X004104D01*
X003110D02*
X003612D01*
X002608D02*
X003110D01*
X002165D02*
X002608D01*
X023002D02*
X023425D01*
X022510D02*
X023002D01*
X022008D02*
X022510D01*
X021516D02*
X022008D01*
X021014D02*
X021516D01*
X020522D02*
X021014D01*
X020020D02*
X020522D01*
X019528D02*
X020020D01*
X019026D02*
X019528D01*
X018533D02*
X019026D01*
X018032D02*
X018533D01*
X017539D02*
X018032D01*
X017037D02*
X017539D01*
X016545D02*
X017037D01*
X016043D02*
X016545D01*
X015541D02*
X016043D01*
X015049D02*
X015541D01*
X014547D02*
X015049D01*
X014055D02*
X014547D01*
X013553D02*
X014055D01*
X013061D02*
X013553D01*
X012559D02*
X013061D01*
X012067D02*
X012559D01*
X011565D02*
X012067D01*
X011073D02*
X011565D01*
X010571D02*
X011073D01*
X010079D02*
X010571D01*
X009577D02*
X010079D01*
X009075D02*
X009577D01*
X008583D02*
X009075D01*
X008081D02*
X008583D01*
X007589D02*
X008081D01*
X007087D02*
X007589D01*
X006594D02*
X007087D01*
X006093D02*
X006594D01*
X025335Y009281D02*
Y009646D01*
Y008839D02*
Y009281D01*
Y008396D02*
Y008839D01*
Y007943D02*
Y008396D01*
Y007500D02*
Y007943D01*
Y007047D02*
Y007500D01*
Y006604D02*
Y007047D01*
Y006152D02*
Y006604D01*
Y005709D02*
Y006152D01*
Y005256D02*
Y005709D01*
Y004813D02*
Y005256D01*
Y004360D02*
Y004813D01*
Y003917D02*
Y004360D01*
Y003465D02*
Y003917D01*
Y003022D02*
Y003465D01*
Y002579D02*
Y003022D01*
Y002165D02*
Y002579D01*
X020252Y000256D02*
X020720D01*
X019784D02*
X020252D01*
X018847D02*
X019315D01*
X018379D02*
X018847D01*
X017911D02*
X018379D01*
X016975D02*
X017443D01*
X016506D02*
X016975D01*
X016038D02*
X016506D01*
X015570D02*
X016038D01*
X015102D02*
X015570D01*
X014634D02*
X015102D01*
X014165D02*
X014634D01*
X013697D02*
X014165D01*
X013229D02*
X013697D01*
X012761D02*
X013229D01*
X012293D02*
X012761D01*
X010888D02*
X011356D01*
X010420D02*
X010888D01*
X009952D02*
X010420D01*
X009483D02*
X009952D01*
X009015D02*
X009483D01*
X008547D02*
X009015D01*
X005270D02*
X005738D01*
X004802D02*
X005270D01*
X004333D02*
X004802D01*
X003865D02*
X004333D01*
X003397D02*
X003865D01*
X000256Y003102D02*
Y003254D01*
Y002165D02*
Y002441D01*
Y004424D02*
Y004705D01*
Y009281D02*
Y009646D01*
Y008917D02*
Y009281D01*
X017726Y007795D02*
X018435D01*
X016014Y007756D02*
X016723D01*
X016447Y005600D02*
X017018D01*
X012951Y005640D02*
X013512Y006201D01*
X012155Y005640D02*
X012951D01*
X015012Y008150D02*
Y008728D01*
X014512Y008150D02*
Y008726D01*
X011486Y007185D02*
Y007510D01*
Y004803D02*
Y005148D01*
X010866Y007510D02*
X011486D01*
X005512Y005158D02*
X006112D01*
X010197Y004783D02*
Y005148D01*
X012864Y008681D02*
Y009045D01*
X012844Y008661D02*
X012864Y008681D01*
X012155Y007510D02*
X012510D01*
X012155Y005148D02*
X012402D01*
X012155Y008533D02*
Y009045D01*
Y006132D02*
Y006644D01*
X010866Y005148D02*
X011486D01*
X010866D02*
Y005640D01*
Y006132D02*
X011486D01*
X010866Y006644D02*
X011486D01*
X010866Y007510D02*
Y008022D01*
Y008533D02*
X011486D01*
X010866Y009045D02*
X011486D01*
X020423Y002766D02*
X020719D01*
X019104Y003484D02*
X019390D01*
X020404Y003474D02*
X020709D01*
X012155Y008533D02*
X012520D01*
X003268Y004252D02*
X003553Y004537D01*
Y005187D01*
X004273D01*
X004461Y007725D02*
X004870D01*
X004925Y005248D02*
X004951Y005275D01*
Y006311D01*
Y006337D01*
X023332Y006931D02*
Y007838D01*
X004055Y007618D02*
X004354D01*
X000256Y002441D02*
Y002528D01*
Y002771D01*
Y002891D01*
Y003102D01*
Y003254D02*
Y003616D01*
Y003979D01*
Y002771D02*
Y003102D01*
Y002441D02*
Y002771D01*
X020807Y005118D02*
Y006722D01*
X020238Y006507D02*
Y006841D01*
X008703Y008305D02*
X009094Y007913D01*
Y007505D02*
Y007913D01*
Y007505D02*
X009096Y007504D01*
X008703Y008305D02*
Y008771D01*
X023780Y003642D02*
Y004163D01*
X023740Y004203D02*
X023780Y004163D01*
X023770Y003140D02*
Y003504D01*
X023770Y003504D01*
X002165Y000256D02*
X002520D01*
X002142Y002537D02*
X006466D01*
X001941Y002737D02*
X002142Y002537D01*
X001202Y002737D02*
X001941D01*
X000989Y002950D02*
X001202Y002737D01*
X000989Y002950D02*
Y003376D01*
X001309Y003711D02*
X001373Y003775D01*
X002279D01*
X001309Y003297D02*
Y003711D01*
X002737Y010424D02*
X003264Y010951D01*
X002737Y009721D02*
Y010424D01*
X002470Y009454D02*
X002737Y009721D01*
X002470Y009178D02*
Y009454D01*
X023061Y000256D02*
X023425D01*
X011900Y008022D02*
X012155D01*
X003531Y006337D02*
X003900D01*
X004282D01*
X023740Y005148D02*
Y005876D01*
X023730Y005886D02*
X023740Y005876D01*
X020720Y000256D02*
X021171D01*
X021604D01*
X023061D01*
X022362Y002598D02*
X022766Y003002D01*
X022224Y002598D02*
X022362D01*
X022136Y002510D02*
X022224Y002598D01*
X022766Y003002D02*
Y003533D01*
X022746Y003553D02*
X022766Y003533D01*
X022136Y002421D02*
Y002510D01*
X020413Y001486D02*
X020702D01*
X021516Y001801D02*
X022136Y002421D01*
X021017Y001801D02*
X021516D01*
X020702Y001486D02*
X021017Y001801D01*
X017443Y000256D02*
X017911D01*
X007874Y006811D02*
X008327Y006358D01*
X008354D01*
X024065Y006791D02*
X024656D01*
X023972Y006698D02*
Y007769D01*
X023967Y006693D02*
X023972Y006698D01*
X024065Y006791D01*
D38*
X005925Y006978D02*
X006644D01*
X006732Y007067D01*
X009921Y003858D02*
X010148D01*
X009654Y004125D02*
X009921Y003858D01*
X009454Y004125D02*
X009654D01*
X009459Y003829D02*
Y004120D01*
X009882Y002638D02*
Y002667D01*
X010247Y003033D01*
Y003759D01*
X010148Y003858D02*
X010247Y003759D01*
X009459Y003061D02*
Y003829D01*
Y003061D02*
X009882Y002638D01*
X007431Y005157D02*
X008435D01*
X015630Y005866D02*
Y006628D01*
X014015Y004252D02*
X015630Y005866D01*
X013287Y004252D02*
X014015D01*
X016000Y006998D02*
X016457D01*
X015630Y006628D02*
X016000Y006998D01*
X017635Y006578D02*
X017645Y006587D01*
X017598Y006578D02*
X017635D01*
X017458Y006438D02*
X017598Y006578D01*
X017458Y006432D02*
Y006438D01*
X017249Y006432D02*
X017458D01*
X017645Y006587D02*
X018472D01*
X017087Y006270D02*
X017249Y006432D01*
X018160Y006329D02*
X018474D01*
X018040Y006209D02*
X018160Y006329D01*
X018040Y006199D02*
Y006209D01*
X017500Y005659D02*
X018040Y006199D01*
X017077Y005659D02*
X017500D01*
X008335Y006339D02*
X008354Y006358D01*
X007480Y006339D02*
X008335D01*
X006732Y006083D02*
X006959D01*
X004892Y007333D02*
X004980D01*
X006762Y005157D02*
Y005797D01*
X021329Y003563D02*
Y004281D01*
Y003563D02*
X021417Y003474D01*
X021998Y003159D02*
Y004213D01*
X021673Y004537D02*
X021998Y004213D01*
X021329Y004537D02*
X021673D01*
X021604Y002766D02*
X021998Y003159D01*
X018474Y003563D02*
Y004281D01*
X018396Y003484D02*
X018474Y003563D01*
X018472Y006587D02*
X018474Y006585D01*
X009813Y004764D02*
X010335Y004242D01*
X011221D01*
X011841Y003623D01*
Y003386D02*
Y003623D01*
X006732Y005827D02*
X006762Y005797D01*
X006112Y005827D02*
X006732D01*
X021427Y002766D02*
X021604D01*
X021329Y006073D02*
X021348Y006093D01*
X002854Y005187D02*
Y005788D01*
Y006330D01*
X003523D02*
X003531Y006337D01*
X007480Y005620D02*
Y005827D01*
X007430Y005570D02*
X007480Y005620D01*
X007430Y005159D02*
Y005570D01*
Y005159D02*
X007431Y005157D01*
X009813Y004764D02*
Y005903D01*
X010042Y006132D01*
X010197D01*
X004459Y007281D02*
Y007726D01*
Y007281D02*
X004762Y006978D01*
X004872D01*
X023652Y007769D02*
Y007838D01*
X004951Y006311D02*
X004979Y006339D01*
X005319D01*
X005389Y006409D01*
X006662D01*
X006732Y006339D01*
X009961Y008533D02*
X010197D01*
X009734Y008307D02*
X009961Y008533D01*
X023100Y005886D02*
Y005888D01*
X022874Y006114D02*
X023100Y005888D01*
Y005659D02*
Y005886D01*
X022743Y005302D02*
X023100Y005659D01*
X021332Y005302D02*
X022743D01*
X021329Y005305D02*
X021332Y005302D01*
X022510Y000846D02*
Y001102D01*
X022333Y000669D02*
X022510Y000846D01*
X019961Y001024D02*
X020315Y000669D01*
X019961Y001024D02*
Y001506D01*
X021762Y000846D02*
Y001102D01*
X021585Y000669D02*
X021762Y000846D01*
X020315Y000669D02*
X021585D01*
X022333D01*
D39*
X008309Y007095D02*
X008494Y006909D01*
X009023Y005151D02*
Y005761D01*
X008494Y006909D02*
X009104D01*
X009370Y006644D01*
Y006108D02*
Y006644D01*
X009023Y005761D02*
X009370Y006108D01*
X008309Y007095D02*
Y007504D01*
D40*
X021348Y006093D02*
X022067D01*
X017992Y004774D02*
X018455D01*
X017982Y004449D02*
X017992Y004459D01*
X017687Y004774D02*
X017972D01*
X017687Y005059D02*
X017687Y005059D01*
X017992D01*
X018464D01*
X012054Y008533D02*
X012155D01*
X011486Y008022D02*
X011495D01*
Y008104D01*
X023642Y006735D02*
Y007000D01*
X023556Y006650D02*
X023642Y006735D01*
X021329Y006329D02*
X022460D01*
X023156Y008187D02*
X023513D01*
X023078Y008109D02*
X023156Y008187D01*
X023513D02*
X023642Y008058D01*
Y007838D02*
Y008058D01*
X022008Y005541D02*
X022087Y005620D01*
X021791Y005541D02*
X022008D01*
X022460Y006329D02*
X022781Y006650D01*
X023556D01*
X023077Y007192D02*
Y008109D01*
X022471Y006585D02*
X023077Y007192D01*
X021329Y006585D02*
X022471D01*
X018072Y005551D02*
X018368D01*
X018474Y007756D02*
X018533D01*
X016762Y007795D02*
X016967D01*
X017362Y007400D01*
X018772D01*
X018889Y006201D02*
Y007284D01*
X018772Y007400D02*
X018889Y007284D01*
X018474Y006073D02*
X018761D01*
X018889Y006201D01*
X018474Y005817D02*
X018761D01*
Y005875D02*
X018819D01*
X019048Y006103D01*
Y007349D01*
X018761Y005817D02*
Y005875D01*
X018533Y007756D02*
X018641D01*
X019048Y007349D01*
X011495Y008104D02*
X011624D01*
X011738Y008217D01*
X011752D01*
X011822Y008287D01*
Y008301D01*
X012054Y008533D01*
X021349Y005541D02*
X021791D01*
X021329Y005561D02*
X021349Y005541D01*
X021329Y005817D02*
X021791D01*
X021791Y005817D02*
Y005839D01*
X022369D02*
X022372Y005837D01*
X021791Y005839D02*
X022369D01*
X022209Y004931D02*
X022285Y004855D01*
X021329Y005049D02*
X021865D01*
X021983Y004931D01*
X022209D01*
D41*
X003523Y005788D02*
X004281D01*
D42*
X001566Y006300D02*
X002260D01*
X001565Y007323D02*
X002253D01*
X002260Y007330D01*
X020118Y002303D02*
X020413Y002008D01*
Y001841D02*
Y002008D01*
D43*
X012054Y006132D02*
X012155D01*
X011813Y005889D02*
Y005890D01*
X012054Y006132D01*
X011486Y005640D02*
X011563D01*
X011813Y005889D01*
D44*
X018234Y000860D02*
D03*
Y001860D02*
D03*
X017234Y000860D02*
D03*
X015266Y000758D02*
D03*
X014282D02*
D03*
X013297D02*
D03*
X015266Y002018D02*
D03*
X014282D02*
D03*
X023258Y008947D02*
D03*
D45*
X017234Y001860D02*
D03*
D46*
X013297Y002018D02*
D03*
D47*
X003264Y009951D02*
D03*
D48*
Y010951D02*
D03*
X004264Y009951D02*
D03*
Y010951D02*
D03*
X005264Y009951D02*
D03*
Y010951D02*
D03*
X006264Y009951D02*
D03*
Y010951D02*
D03*
X007264Y009951D02*
D03*
Y010951D02*
D03*
X008264Y009951D02*
D03*
Y010951D02*
D03*
X009264Y009951D02*
D03*
Y010951D02*
D03*
X010264Y009951D02*
D03*
Y010951D02*
D03*
X011264Y009951D02*
D03*
Y010951D02*
D03*
X012264Y009951D02*
D03*
Y010951D02*
D03*
X013264Y009951D02*
D03*
Y010951D02*
D03*
X014264Y009951D02*
D03*
Y010951D02*
D03*
X015264Y009951D02*
D03*
Y010951D02*
D03*
X016264Y009951D02*
D03*
Y010951D02*
D03*
X017264Y009951D02*
D03*
Y010951D02*
D03*
X018264Y009951D02*
D03*
Y010951D02*
D03*
X019264Y009951D02*
D03*
Y010951D02*
D03*
X020264Y009951D02*
D03*
Y010951D02*
D03*
X021264Y009951D02*
D03*
Y010951D02*
D03*
X022264Y009951D02*
D03*
Y010951D02*
D03*
D49*
X001378Y001378D02*
D03*
Y010433D02*
D03*
X024213D02*
D03*
Y001378D02*
D03*
D50*
X020266Y008947D02*
D03*
X021266D02*
D03*
X022266D02*
D03*
D51*
X009872Y003386D02*
D03*
X011841Y001417D02*
D03*
Y000433D02*
D03*
X007904D02*
D03*
Y001417D02*
D03*
X004872Y003386D02*
D03*
X006841Y001417D02*
D03*
Y000433D02*
D03*
X002904D02*
D03*
Y001417D02*
D03*
D52*
X011841Y003386D02*
D03*
X010856D02*
D03*
X007904D02*
D03*
X008888D02*
D03*
X009872Y001417D02*
D03*
X006841Y003386D02*
D03*
X005856D02*
D03*
X002904D02*
D03*
X003888D02*
D03*
X004872Y001417D02*
D03*
D53*
X002260Y006220D02*
D03*
X005315Y007372D02*
D03*
X003910Y005788D02*
D03*
X003210Y009360D02*
D03*
X001929Y008858D02*
D03*
X002077Y004350D02*
D03*
X002667Y008120D02*
D03*
X002260Y007330D02*
D03*
D54*
X020778Y001112D02*
D03*
X018996Y001663D02*
D03*
X006201Y008100D02*
D03*
X013898Y004882D02*
D03*
X016968Y003425D02*
D03*
X012402Y005138D02*
D03*
X008248Y008789D02*
D03*
X014026Y008888D02*
D03*
X006959Y006083D02*
D03*
X006270Y000256D02*
D03*
X000256Y004342D02*
D03*
Y004705D02*
D03*
X006762Y005689D02*
D03*
X015020Y006900D02*
D03*
X020236Y006506D02*
D03*
X020807Y006201D02*
D03*
X009744Y009016D02*
D03*
X010062Y006939D02*
D03*
X022285Y004855D02*
D03*
X022087Y005620D02*
D03*
X013504Y007539D02*
D03*
X006594Y011555D02*
D03*
X025335Y002579D02*
D03*
Y003022D02*
D03*
Y003465D02*
D03*
Y003917D02*
D03*
Y004360D02*
D03*
Y004813D02*
D03*
Y005256D02*
D03*
Y005709D02*
D03*
Y006152D02*
D03*
Y006604D02*
D03*
Y007047D02*
D03*
Y007500D02*
D03*
Y007943D02*
D03*
Y008396D02*
D03*
Y008839D02*
D03*
Y009281D02*
D03*
X000256D02*
D03*
Y008917D02*
D03*
Y007854D02*
D03*
Y005787D02*
D03*
Y003979D02*
D03*
Y003616D02*
D03*
Y003254D02*
D03*
Y002891D02*
D03*
Y002528D02*
D03*
X012761Y000256D02*
D03*
X013697D02*
D03*
X014165D02*
D03*
X014634D02*
D03*
X015102D02*
D03*
X016038D02*
D03*
X016506D02*
D03*
X003397D02*
D03*
X003865D02*
D03*
X004333D02*
D03*
X004802D02*
D03*
X005270D02*
D03*
X005738D02*
D03*
X007362D02*
D03*
X008547D02*
D03*
X009015D02*
D03*
X009483D02*
D03*
X009952D02*
D03*
X010420D02*
D03*
X010888D02*
D03*
X011356D02*
D03*
X012293D02*
D03*
X016975D02*
D03*
X017443D02*
D03*
X017911D02*
D03*
X018379D02*
D03*
X018847D02*
D03*
X019315D02*
D03*
X019784D02*
D03*
X020187D02*
D03*
X020720D02*
D03*
X021171D02*
D03*
X022579Y000246D02*
D03*
X023061Y000256D02*
D03*
X002608Y011555D02*
D03*
X003110D02*
D03*
X003612D02*
D03*
X004104D02*
D03*
X004606D02*
D03*
X005098D02*
D03*
X005600D02*
D03*
X006093D02*
D03*
X007589D02*
D03*
X008583D02*
D03*
X009577D02*
D03*
X010571D02*
D03*
X011565D02*
D03*
X012559D02*
D03*
X013553D02*
D03*
X014547D02*
D03*
X015541D02*
D03*
X016545D02*
D03*
X017539D02*
D03*
X018533D02*
D03*
X019528D02*
D03*
X020522D02*
D03*
X021516D02*
D03*
X022510D02*
D03*
X023002D02*
D03*
X008081D02*
D03*
X009075D02*
D03*
X010079D02*
D03*
X011073D02*
D03*
X012067D02*
D03*
X013061D02*
D03*
X014055D02*
D03*
X015049D02*
D03*
X016043D02*
D03*
X017037D02*
D03*
X018032D02*
D03*
X019026D02*
D03*
X020020D02*
D03*
X021014D02*
D03*
X022008D02*
D03*
X000256Y002165D02*
D03*
X023425Y000256D02*
D03*
X025335Y002165D02*
D03*
X002165Y011555D02*
D03*
X000256Y009646D02*
D03*
X015797Y009055D02*
D03*
X017943Y006969D02*
D03*
X018425Y008986D02*
D03*
X015010Y008730D02*
D03*
X014508D02*
D03*
X011486Y004803D02*
D03*
X012844Y008661D02*
D03*
X012539Y007530D02*
D03*
X019618Y006860D02*
D03*
X019203Y002746D02*
D03*
X019618Y003888D02*
D03*
X021555Y007510D02*
D03*
X022362Y006870D02*
D03*
X023860Y008670D02*
D03*
X019990Y008110D02*
D03*
X019397Y008844D02*
D03*
X025335Y009646D02*
D03*
X023425Y011555D02*
D03*
X007087D02*
D03*
X022874Y006114D02*
D03*
X020404Y003474D02*
D03*
X020423Y002766D02*
D03*
X019390Y003484D02*
D03*
X017982Y004449D02*
D03*
X017687Y005059D02*
D03*
X023770Y003140D02*
D03*
X004990Y002963D02*
D03*
X009454Y004125D02*
D03*
X013976Y003504D02*
D03*
X014607Y003966D02*
D03*
X007795Y009016D02*
D03*
X012687Y006624D02*
D03*
X013110Y007520D02*
D03*
X004724Y004252D02*
D03*
X002785Y004665D02*
D03*
X008327Y004606D02*
D03*
X022067Y006093D02*
D03*
X017687Y004774D02*
D03*
X020807Y006722D02*
D03*
Y005118D02*
D03*
X020148Y003130D02*
D03*
X012520Y008533D02*
D03*
X020236Y007490D02*
D03*
X018907Y004783D02*
D03*
X019619Y004382D02*
D03*
Y004877D02*
D03*
Y005372D02*
D03*
Y006363D02*
D03*
X020238Y005902D02*
D03*
Y005432D02*
D03*
Y004963D02*
D03*
X020806Y005518D02*
D03*
Y005919D02*
D03*
X019619Y005868D02*
D03*
X020238Y006841D02*
D03*
Y004493D02*
D03*
X020236Y004035D02*
D03*
X020118Y002303D02*
D03*
X005502Y008258D02*
D03*
X010197Y004783D02*
D03*
X003900Y006337D02*
D03*
X023332Y007410D02*
D03*
X008110Y005138D02*
D03*
X018072Y005551D02*
D03*
X002520Y000256D02*
D03*
X002165D02*
D03*
X003287Y006870D02*
D03*
X021604Y000256D02*
D03*
X022077Y000246D02*
D03*
X011437Y007156D02*
D03*
X009734Y008307D02*
D03*
X022372Y005837D02*
D03*
X023967Y006693D02*
D03*
X014596Y003474D02*
D03*
X022746Y003553D02*
D03*
X022136Y002510D02*
D03*
X007874Y006811D02*
D03*
D55*
X011900Y008022D02*
D03*
D56*
X007774Y010482D02*
D03*
M02*
