G04 Layer_Color=65535*
%FSAX24Y24*%
%MOIN*%
G70*
G01*
G75*
%ADD40C,0.0079*%
%ADD43C,0.0060*%
%ADD58C,0.0080*%
%ADD61C,0.0098*%
%ADD62C,0.0059*%
%ADD63C,0.0050*%
%ADD64C,0.0150*%
%ADD65R,0.0150X0.0300*%
%ADD66R,0.0180X0.0300*%
%ADD67R,0.0300X0.0150*%
%ADD68R,0.0300X0.0180*%
G36*
X020393Y002204D02*
X020398Y002204D01*
X020403Y002203D01*
X020408Y002203D01*
X020412Y002202D01*
X020413D01*
X020415Y002202D01*
X020417Y002201D01*
X020421Y002200D01*
X020425Y002199D01*
X020429Y002197D01*
X020433Y002195D01*
X020437Y002193D01*
X020437Y002192D01*
X020439Y002191D01*
X020440Y002190D01*
X020443Y002188D01*
X020445Y002185D01*
X020448Y002182D01*
X020451Y002178D01*
X020453Y002173D01*
X020453Y002173D01*
X020454Y002171D01*
X020455Y002169D01*
X020456Y002165D01*
X020457Y002161D01*
X020458Y002157D01*
X020459Y002151D01*
X020459Y002146D01*
Y002146D01*
Y002145D01*
Y002143D01*
X020459Y002141D01*
X020459Y002139D01*
X020458Y002137D01*
X020458Y002134D01*
X020457Y002131D01*
X020455Y002124D01*
X020454Y002120D01*
X020452Y002117D01*
X020450Y002113D01*
X020448Y002109D01*
X020446Y002106D01*
X020443Y002102D01*
X020442Y002102D01*
X020442Y002102D01*
X020441Y002101D01*
X020440Y002100D01*
X020438Y002098D01*
X020435Y002097D01*
X020433Y002095D01*
X020429Y002094D01*
X020426Y002092D01*
X020421Y002090D01*
X020417Y002089D01*
X020411Y002088D01*
X020405Y002086D01*
X020399Y002086D01*
X020391Y002085D01*
X020384Y002085D01*
X020332D01*
Y002003D01*
X020306D01*
Y002204D01*
X020388D01*
X020393Y002204D01*
D02*
G37*
G36*
X000811Y003923D02*
Y003922D01*
Y003922D01*
Y003920D01*
Y003919D01*
X000811Y003916D01*
Y003914D01*
X000811Y003909D01*
X000810Y003902D01*
X000809Y003895D01*
X000807Y003889D01*
X000805Y003883D01*
Y003883D01*
X000805Y003883D01*
X000804Y003881D01*
X000802Y003879D01*
X000800Y003876D01*
X000797Y003872D01*
X000794Y003869D01*
X000790Y003865D01*
X000786Y003863D01*
X000785Y003862D01*
X000783Y003861D01*
X000781Y003860D01*
X000777Y003859D01*
X000772Y003858D01*
X000767Y003856D01*
X000761Y003856D01*
X000755Y003855D01*
X000752D01*
X000750Y003856D01*
X000748Y003856D01*
X000746Y003856D01*
X000740Y003857D01*
X000733Y003859D01*
X000726Y003862D01*
X000723Y003863D01*
X000720Y003865D01*
X000717Y003868D01*
X000714Y003870D01*
X000714Y003871D01*
X000713Y003871D01*
X000713Y003872D01*
X000712Y003873D01*
X000711Y003875D01*
X000710Y003877D01*
X000708Y003879D01*
X000707Y003882D01*
X000706Y003885D01*
X000705Y003888D01*
X000703Y003892D01*
X000702Y003896D01*
X000702Y003900D01*
X000701Y003905D01*
X000701Y003910D01*
Y003915D01*
X000725Y003919D01*
Y003919D01*
Y003918D01*
Y003917D01*
X000725Y003915D01*
X000725Y003913D01*
Y003911D01*
X000726Y003906D01*
X000727Y003901D01*
X000729Y003896D01*
X000731Y003891D01*
X000732Y003889D01*
X000733Y003888D01*
X000733Y003887D01*
X000735Y003886D01*
X000736Y003885D01*
X000739Y003883D01*
X000742Y003882D01*
X000745Y003881D01*
X000750Y003879D01*
X000754Y003879D01*
X000756D01*
X000758Y003879D01*
X000761Y003880D01*
X000763Y003880D01*
X000766Y003881D01*
X000769Y003882D01*
X000772Y003883D01*
X000772Y003884D01*
X000773Y003884D01*
X000774Y003886D01*
X000776Y003887D01*
X000777Y003889D01*
X000779Y003891D01*
X000781Y003893D01*
X000782Y003896D01*
Y003896D01*
X000782Y003897D01*
X000783Y003899D01*
X000783Y003902D01*
X000784Y003906D01*
X000784Y003910D01*
X000785Y003915D01*
Y003921D01*
Y004060D01*
X000811D01*
Y003923D01*
D02*
G37*
G36*
X020587Y002074D02*
X020614D01*
Y002051D01*
X020587D01*
Y002003D01*
X020562D01*
Y002051D01*
X020475D01*
Y002074D01*
X020567Y002204D01*
X020587D01*
Y002074D01*
D02*
G37*
G36*
X002312Y009721D02*
X002317Y009721D01*
X002322Y009721D01*
X002327Y009720D01*
X002332Y009719D01*
X002332D01*
X002334Y009719D01*
X002337Y009718D01*
X002340Y009717D01*
X002344Y009716D01*
X002348Y009714D01*
X002353Y009712D01*
X002356Y009710D01*
X002357Y009709D01*
X002358Y009709D01*
X002360Y009707D01*
X002362Y009705D01*
X002365Y009702D01*
X002367Y009699D01*
X002370Y009695D01*
X002373Y009691D01*
X002373Y009690D01*
X002374Y009688D01*
X002375Y009686D01*
X002376Y009682D01*
X002377Y009678D01*
X002378Y009674D01*
X002378Y009668D01*
X002379Y009663D01*
Y009663D01*
Y009662D01*
Y009661D01*
X002378Y009659D01*
X002378Y009656D01*
X002378Y009654D01*
X002377Y009651D01*
X002377Y009648D01*
X002375Y009641D01*
X002374Y009638D01*
X002372Y009634D01*
X002370Y009630D01*
X002368Y009627D01*
X002365Y009623D01*
X002362Y009620D01*
X002362Y009619D01*
X002361Y009619D01*
X002360Y009618D01*
X002359Y009617D01*
X002357Y009615D01*
X002355Y009614D01*
X002352Y009612D01*
X002349Y009611D01*
X002345Y009609D01*
X002341Y009607D01*
X002336Y009606D01*
X002330Y009605D01*
X002325Y009604D01*
X002318Y009603D01*
X002311Y009602D01*
X002303Y009602D01*
X002252D01*
Y009520D01*
X002225D01*
Y009721D01*
X002308D01*
X002312Y009721D01*
D02*
G37*
G36*
X020262Y002067D02*
Y002067D01*
Y002066D01*
Y002065D01*
Y002063D01*
X020262Y002061D01*
Y002058D01*
X020261Y002053D01*
X020261Y002046D01*
X020259Y002040D01*
X020258Y002033D01*
X020256Y002028D01*
Y002027D01*
X020255Y002027D01*
X020254Y002025D01*
X020253Y002023D01*
X020251Y002020D01*
X020248Y002017D01*
X020245Y002013D01*
X020241Y002010D01*
X020236Y002007D01*
X020236Y002006D01*
X020234Y002006D01*
X020231Y002004D01*
X020227Y002003D01*
X020223Y002002D01*
X020217Y002001D01*
X020212Y002000D01*
X020205Y001999D01*
X020203D01*
X020201Y002000D01*
X020199Y002000D01*
X020196Y002000D01*
X020190Y002001D01*
X020184Y002003D01*
X020177Y002006D01*
X020174Y002008D01*
X020170Y002010D01*
X020167Y002012D01*
X020165Y002015D01*
X020164Y002015D01*
X020164Y002015D01*
X020163Y002016D01*
X020162Y002017D01*
X020161Y002019D01*
X020160Y002021D01*
X020159Y002023D01*
X020158Y002026D01*
X020156Y002029D01*
X020155Y002032D01*
X020154Y002036D01*
X020153Y002040D01*
X020152Y002044D01*
X020151Y002049D01*
X020151Y002054D01*
Y002060D01*
X020175Y002063D01*
Y002063D01*
Y002062D01*
Y002061D01*
X020176Y002059D01*
X020176Y002058D01*
Y002056D01*
X020177Y002051D01*
X020178Y002045D01*
X020179Y002040D01*
X020181Y002035D01*
X020182Y002033D01*
X020184Y002032D01*
X020184Y002031D01*
X020185Y002031D01*
X020187Y002029D01*
X020189Y002028D01*
X020192Y002026D01*
X020196Y002025D01*
X020200Y002024D01*
X020205Y002023D01*
X020207D01*
X020208Y002024D01*
X020211Y002024D01*
X020214Y002024D01*
X020217Y002025D01*
X020220Y002026D01*
X020222Y002028D01*
X020223Y002028D01*
X020224Y002029D01*
X020225Y002030D01*
X020227Y002031D01*
X020228Y002033D01*
X020230Y002035D01*
X020231Y002037D01*
X020232Y002040D01*
Y002040D01*
X020233Y002042D01*
X020233Y002044D01*
X020234Y002046D01*
X020234Y002050D01*
X020235Y002054D01*
X020235Y002059D01*
Y002065D01*
Y002204D01*
X020262D01*
Y002067D01*
D02*
G37*
G36*
X001126Y003859D02*
X001101D01*
Y004016D01*
X001101Y004016D01*
X001099Y004015D01*
X001098Y004013D01*
X001095Y004011D01*
X001091Y004008D01*
X001087Y004005D01*
X001083Y004002D01*
X001077Y003999D01*
X001077D01*
X001077Y003999D01*
X001075Y003998D01*
X001072Y003996D01*
X001069Y003994D01*
X001065Y003992D01*
X001060Y003990D01*
X001056Y003988D01*
X001052Y003986D01*
Y004010D01*
X001052D01*
X001052Y004011D01*
X001054Y004011D01*
X001055Y004012D01*
X001057Y004013D01*
X001059Y004014D01*
X001064Y004017D01*
X001070Y004020D01*
X001075Y004024D01*
X001081Y004029D01*
X001088Y004034D01*
X001088Y004034D01*
X001088Y004035D01*
X001089Y004035D01*
X001090Y004036D01*
X001093Y004039D01*
X001096Y004043D01*
X001100Y004047D01*
X001104Y004051D01*
X001107Y004056D01*
X001110Y004061D01*
X001126D01*
Y003859D01*
D02*
G37*
G36*
X019785Y002204D02*
X019790Y002204D01*
X019796Y002204D01*
X019801Y002203D01*
X019805Y002203D01*
X019806D01*
X019808Y002202D01*
X019810Y002202D01*
X019814Y002201D01*
X019817Y002199D01*
X019821Y002197D01*
X019826Y002195D01*
X019830Y002193D01*
X019830Y002193D01*
X019831Y002192D01*
X019833Y002190D01*
X019835Y002188D01*
X019838Y002186D01*
X019841Y002182D01*
X019844Y002178D01*
X019846Y002174D01*
X019846Y002173D01*
X019847Y002172D01*
X019848Y002169D01*
X019849Y002166D01*
X019850Y002162D01*
X019851Y002157D01*
X019852Y002152D01*
X019852Y002146D01*
Y002146D01*
Y002145D01*
Y002144D01*
X019852Y002142D01*
X019851Y002140D01*
X019851Y002137D01*
X019851Y002134D01*
X019850Y002131D01*
X019848Y002124D01*
X019847Y002121D01*
X019845Y002117D01*
X019843Y002113D01*
X019841Y002110D01*
X019838Y002106D01*
X019835Y002103D01*
X019835Y002103D01*
X019835Y002102D01*
X019834Y002101D01*
X019832Y002100D01*
X019831Y002099D01*
X019828Y002097D01*
X019825Y002096D01*
X019822Y002094D01*
X019818Y002092D01*
X019814Y002091D01*
X019809Y002089D01*
X019804Y002088D01*
X019798Y002087D01*
X019792Y002086D01*
X019784Y002085D01*
X019777Y002085D01*
X019725D01*
Y002003D01*
X019698D01*
Y002205D01*
X019781D01*
X019785Y002204D01*
D02*
G37*
G36*
X009848Y002452D02*
X010014Y002228D01*
X009948D01*
X009813Y002418D01*
X009752Y002359D01*
Y002228D01*
X009701D01*
Y002606D01*
X009752D01*
Y002418D01*
X009938Y002606D01*
X010007D01*
X009848Y002452D01*
D02*
G37*
G36*
X019655Y002067D02*
Y002067D01*
Y002066D01*
Y002065D01*
Y002063D01*
X019654Y002061D01*
Y002059D01*
X019654Y002053D01*
X019653Y002047D01*
X019652Y002040D01*
X019650Y002034D01*
X019648Y002028D01*
Y002028D01*
X019648Y002028D01*
X019647Y002026D01*
X019646Y002023D01*
X019644Y002020D01*
X019641Y002017D01*
X019638Y002014D01*
X019634Y002010D01*
X019629Y002007D01*
X019628Y002007D01*
X019627Y002006D01*
X019624Y002005D01*
X019620Y002004D01*
X019615Y002002D01*
X019610Y002001D01*
X019604Y002000D01*
X019598Y002000D01*
X019595D01*
X019594Y002000D01*
X019591Y002000D01*
X019589Y002001D01*
X019583Y002002D01*
X019576Y002004D01*
X019570Y002006D01*
X019566Y002008D01*
X019563Y002010D01*
X019560Y002012D01*
X019557Y002015D01*
X019557Y002015D01*
X019557Y002016D01*
X019556Y002017D01*
X019555Y002018D01*
X019554Y002019D01*
X019553Y002021D01*
X019552Y002024D01*
X019550Y002026D01*
X019549Y002029D01*
X019548Y002033D01*
X019547Y002036D01*
X019546Y002040D01*
X019545Y002045D01*
X019544Y002050D01*
X019544Y002055D01*
Y002060D01*
X019568Y002064D01*
Y002063D01*
Y002063D01*
Y002062D01*
X019568Y002060D01*
X019569Y002058D01*
Y002056D01*
X019569Y002051D01*
X019570Y002046D01*
X019572Y002041D01*
X019574Y002036D01*
X019575Y002034D01*
X019576Y002032D01*
X019577Y002032D01*
X019578Y002031D01*
X019580Y002030D01*
X019582Y002028D01*
X019585Y002026D01*
X019589Y002025D01*
X019593Y002024D01*
X019598Y002024D01*
X019599D01*
X019601Y002024D01*
X019604Y002024D01*
X019606Y002025D01*
X019609Y002025D01*
X019612Y002027D01*
X019615Y002028D01*
X019615Y002028D01*
X019616Y002029D01*
X019618Y002030D01*
X019619Y002031D01*
X019621Y002033D01*
X019622Y002035D01*
X019624Y002038D01*
X019625Y002041D01*
Y002041D01*
X019626Y002042D01*
X019626Y002044D01*
X019627Y002047D01*
X019627Y002050D01*
X019627Y002055D01*
X019628Y002060D01*
Y002066D01*
Y002205D01*
X019655D01*
Y002067D01*
D02*
G37*
G36*
X000942Y004060D02*
X000947Y004060D01*
X000952Y004059D01*
X000957Y004059D01*
X000962Y004058D01*
X000962D01*
X000964Y004057D01*
X000967Y004057D01*
X000970Y004056D01*
X000974Y004055D01*
X000978Y004053D01*
X000983Y004051D01*
X000986Y004048D01*
X000987Y004048D01*
X000988Y004047D01*
X000990Y004046D01*
X000992Y004044D01*
X000995Y004041D01*
X000997Y004037D01*
X001000Y004034D01*
X001003Y004029D01*
X001003Y004029D01*
X001004Y004027D01*
X001005Y004025D01*
X001006Y004021D01*
X001007Y004017D01*
X001008Y004012D01*
X001008Y004007D01*
X001009Y004002D01*
Y004001D01*
Y004000D01*
Y003999D01*
X001008Y003997D01*
X001008Y003995D01*
X001008Y003993D01*
X001007Y003990D01*
X001007Y003986D01*
X001005Y003980D01*
X001004Y003976D01*
X001002Y003973D01*
X001000Y003969D01*
X000998Y003965D01*
X000995Y003962D01*
X000992Y003958D01*
X000992Y003958D01*
X000991Y003957D01*
X000990Y003957D01*
X000989Y003956D01*
X000987Y003954D01*
X000985Y003953D01*
X000982Y003951D01*
X000979Y003950D01*
X000975Y003948D01*
X000971Y003946D01*
X000966Y003945D01*
X000960Y003943D01*
X000955Y003942D01*
X000948Y003941D01*
X000941Y003941D01*
X000933Y003941D01*
X000882D01*
Y003859D01*
X000855D01*
Y004060D01*
X000938D01*
X000942Y004060D01*
D02*
G37*
G36*
X019945Y002205D02*
X019949Y002205D01*
X019954Y002204D01*
X019959Y002202D01*
X019964Y002201D01*
X019969Y002198D01*
X019970D01*
X019970Y002198D01*
X019972Y002197D01*
X019974Y002195D01*
X019977Y002193D01*
X019981Y002191D01*
X019984Y002187D01*
X019988Y002184D01*
X019991Y002179D01*
X019991Y002179D01*
X019992Y002177D01*
X019993Y002174D01*
X019994Y002171D01*
X019996Y002168D01*
X019997Y002163D01*
X019998Y002158D01*
X019998Y002153D01*
Y002153D01*
Y002151D01*
X019998Y002149D01*
X019997Y002145D01*
X019996Y002142D01*
X019995Y002138D01*
X019993Y002133D01*
X019991Y002129D01*
X019991Y002129D01*
X019990Y002128D01*
X019988Y002126D01*
X019986Y002123D01*
X019983Y002121D01*
X019979Y002118D01*
X019975Y002115D01*
X019970Y002113D01*
X019971D01*
X019971Y002112D01*
X019972Y002112D01*
X019973Y002112D01*
X019976Y002110D01*
X019980Y002109D01*
X019985Y002106D01*
X019990Y002103D01*
X019994Y002100D01*
X019998Y002095D01*
X019998Y002095D01*
X020000Y002093D01*
X020001Y002090D01*
X020003Y002086D01*
X020005Y002082D01*
X020007Y002076D01*
X020008Y002070D01*
X020008Y002063D01*
Y002062D01*
Y002062D01*
Y002060D01*
X020008Y002058D01*
X020007Y002056D01*
X020007Y002053D01*
X020006Y002051D01*
X020006Y002047D01*
X020003Y002040D01*
X020002Y002037D01*
X020000Y002033D01*
X019998Y002029D01*
X019995Y002025D01*
X019992Y002022D01*
X019989Y002018D01*
X019988Y002018D01*
X019988Y002017D01*
X019986Y002016D01*
X019985Y002015D01*
X019983Y002014D01*
X019981Y002012D01*
X019978Y002011D01*
X019975Y002009D01*
X019972Y002007D01*
X019968Y002006D01*
X019964Y002004D01*
X019960Y002003D01*
X019955Y002002D01*
X019950Y002001D01*
X019945Y002000D01*
X019940Y002000D01*
X019937D01*
X019936Y002000D01*
X019933Y002000D01*
X019931Y002001D01*
X019928Y002001D01*
X019925Y002002D01*
X019918Y002004D01*
X019910Y002007D01*
X019906Y002008D01*
X019903Y002010D01*
X019899Y002013D01*
X019896Y002016D01*
X019896Y002016D01*
X019895Y002016D01*
X019894Y002017D01*
X019893Y002019D01*
X019892Y002020D01*
X019890Y002022D01*
X019889Y002024D01*
X019887Y002027D01*
X019885Y002030D01*
X019883Y002032D01*
X019880Y002039D01*
X019878Y002048D01*
X019877Y002052D01*
X019876Y002057D01*
X019901Y002060D01*
Y002060D01*
X019901Y002059D01*
X019902Y002058D01*
X019902Y002056D01*
X019902Y002055D01*
X019903Y002053D01*
X019904Y002048D01*
X019906Y002043D01*
X019909Y002038D01*
X019912Y002033D01*
X019915Y002029D01*
X019916Y002029D01*
X019917Y002028D01*
X019919Y002026D01*
X019922Y002025D01*
X019926Y002023D01*
X019930Y002022D01*
X019935Y002021D01*
X019940Y002020D01*
X019942D01*
X019943Y002021D01*
X019946Y002021D01*
X019950Y002022D01*
X019955Y002023D01*
X019960Y002025D01*
X019965Y002028D01*
X019970Y002032D01*
X019970Y002033D01*
X019972Y002035D01*
X019973Y002037D01*
X019976Y002041D01*
X019978Y002045D01*
X019980Y002050D01*
X019981Y002056D01*
X019982Y002062D01*
Y002062D01*
Y002063D01*
Y002064D01*
X019982Y002065D01*
X019981Y002068D01*
X019980Y002072D01*
X019979Y002077D01*
X019977Y002081D01*
X019974Y002086D01*
X019971Y002090D01*
X019970Y002091D01*
X019968Y002092D01*
X019966Y002094D01*
X019963Y002096D01*
X019959Y002098D01*
X019954Y002100D01*
X019948Y002101D01*
X019942Y002101D01*
X019940D01*
X019938Y002101D01*
X019935Y002101D01*
X019932Y002100D01*
X019929Y002100D01*
X019925Y002099D01*
X019928Y002121D01*
X019929D01*
X019930Y002120D01*
X019934D01*
X019937Y002121D01*
X019941Y002122D01*
X019945Y002122D01*
X019950Y002124D01*
X019955Y002126D01*
X019960Y002129D01*
X019960D01*
X019961Y002129D01*
X019962Y002130D01*
X019964Y002132D01*
X019966Y002135D01*
X019969Y002138D01*
X019971Y002143D01*
X019972Y002148D01*
X019973Y002151D01*
Y002154D01*
Y002154D01*
Y002154D01*
Y002156D01*
X019972Y002158D01*
X019972Y002162D01*
X019971Y002165D01*
X019969Y002169D01*
X019967Y002173D01*
X019964Y002176D01*
X019963Y002177D01*
X019962Y002178D01*
X019960Y002179D01*
X019957Y002181D01*
X019954Y002182D01*
X019950Y002184D01*
X019945Y002185D01*
X019940Y002185D01*
X019937D01*
X019935Y002185D01*
X019931Y002184D01*
X019927Y002183D01*
X019924Y002181D01*
X019920Y002179D01*
X019916Y002176D01*
X019915Y002176D01*
X019914Y002174D01*
X019913Y002172D01*
X019911Y002170D01*
X019909Y002166D01*
X019906Y002161D01*
X019905Y002156D01*
X019904Y002149D01*
X019879Y002154D01*
Y002154D01*
X019879Y002155D01*
X019879Y002156D01*
X019880Y002158D01*
X019880Y002160D01*
X019881Y002162D01*
X019883Y002168D01*
X019886Y002174D01*
X019889Y002180D01*
X019894Y002186D01*
X019899Y002192D01*
X019899Y002192D01*
X019900Y002193D01*
X019901Y002193D01*
X019902Y002194D01*
X019904Y002195D01*
X019906Y002196D01*
X019908Y002197D01*
X019910Y002199D01*
X019916Y002201D01*
X019923Y002204D01*
X019931Y002205D01*
X019935Y002206D01*
X019942D01*
X019945Y002205D01*
D02*
G37*
G36*
X002474Y009722D02*
X002477Y009722D01*
X002479Y009721D01*
X002483Y009721D01*
X002486Y009720D01*
X002493Y009718D01*
X002501Y009715D01*
X002505Y009714D01*
X002509Y009711D01*
X002512Y009709D01*
X002515Y009706D01*
X002516Y009706D01*
X002516Y009705D01*
X002517Y009704D01*
X002518Y009703D01*
X002519Y009702D01*
X002521Y009700D01*
X002522Y009698D01*
X002524Y009695D01*
X002527Y009689D01*
X002530Y009682D01*
X002531Y009679D01*
X002532Y009675D01*
X002532Y009671D01*
X002532Y009666D01*
Y009666D01*
Y009664D01*
X002532Y009662D01*
X002532Y009659D01*
X002531Y009655D01*
X002530Y009651D01*
X002529Y009647D01*
X002527Y009643D01*
X002527Y009642D01*
X002526Y009640D01*
X002525Y009638D01*
X002523Y009635D01*
X002521Y009631D01*
X002518Y009627D01*
X002515Y009623D01*
X002511Y009618D01*
X002510Y009617D01*
X002509Y009615D01*
X002507Y009614D01*
X002506Y009613D01*
X002504Y009611D01*
X002502Y009608D01*
X002499Y009606D01*
X002496Y009604D01*
X002493Y009601D01*
X002490Y009597D01*
X002486Y009594D01*
X002482Y009590D01*
X002477Y009587D01*
X002473Y009583D01*
X002472Y009582D01*
X002472Y009582D01*
X002471Y009581D01*
X002469Y009580D01*
X002468Y009578D01*
X002465Y009576D01*
X002461Y009572D01*
X002456Y009568D01*
X002451Y009564D01*
X002447Y009560D01*
X002445Y009558D01*
X002444Y009557D01*
X002444Y009557D01*
X002443Y009556D01*
X002442Y009555D01*
X002440Y009553D01*
X002439Y009551D01*
X002437Y009549D01*
X002433Y009544D01*
X002533D01*
Y009520D01*
X002399D01*
Y009520D01*
Y009521D01*
Y009523D01*
X002399Y009526D01*
X002400Y009528D01*
X002400Y009531D01*
X002401Y009534D01*
X002402Y009537D01*
Y009537D01*
X002402Y009538D01*
X002403Y009539D01*
X002404Y009542D01*
X002406Y009546D01*
X002408Y009550D01*
X002411Y009554D01*
X002414Y009559D01*
X002418Y009564D01*
Y009564D01*
X002419Y009565D01*
X002420Y009566D01*
X002423Y009569D01*
X002427Y009573D01*
X002431Y009577D01*
X002437Y009582D01*
X002443Y009588D01*
X002451Y009594D01*
X002451Y009595D01*
X002452Y009595D01*
X002454Y009597D01*
X002456Y009599D01*
X002458Y009601D01*
X002462Y009604D01*
X002465Y009606D01*
X002469Y009610D01*
X002476Y009617D01*
X002483Y009624D01*
X002487Y009627D01*
X002490Y009631D01*
X002493Y009634D01*
X002495Y009637D01*
Y009637D01*
X002496Y009638D01*
X002496Y009638D01*
X002497Y009640D01*
X002499Y009643D01*
X002501Y009647D01*
X002503Y009651D01*
X002505Y009656D01*
X002506Y009662D01*
X002507Y009667D01*
Y009667D01*
Y009668D01*
X002507Y009669D01*
X002506Y009672D01*
X002506Y009675D01*
X002504Y009679D01*
X002502Y009684D01*
X002500Y009688D01*
X002496Y009692D01*
X002496Y009692D01*
X002494Y009693D01*
X002492Y009695D01*
X002489Y009697D01*
X002485Y009699D01*
X002480Y009700D01*
X002475Y009702D01*
X002469Y009702D01*
X002467D01*
X002466Y009702D01*
X002462Y009701D01*
X002458Y009700D01*
X002454Y009699D01*
X002449Y009697D01*
X002444Y009695D01*
X002440Y009691D01*
X002439Y009691D01*
X002438Y009689D01*
X002436Y009687D01*
X002435Y009683D01*
X002433Y009679D01*
X002431Y009674D01*
X002430Y009668D01*
X002429Y009661D01*
X002404Y009664D01*
Y009664D01*
X002404Y009665D01*
Y009667D01*
X002404Y009669D01*
X002405Y009671D01*
X002406Y009674D01*
X002406Y009677D01*
X002407Y009680D01*
X002410Y009687D01*
X002413Y009694D01*
X002415Y009698D01*
X002418Y009701D01*
X002420Y009704D01*
X002423Y009707D01*
X002424Y009707D01*
X002424Y009708D01*
X002425Y009709D01*
X002426Y009709D01*
X002428Y009711D01*
X002430Y009712D01*
X002433Y009713D01*
X002436Y009715D01*
X002439Y009716D01*
X002442Y009718D01*
X002446Y009719D01*
X002450Y009720D01*
X002454Y009721D01*
X002459Y009722D01*
X002464Y009722D01*
X002469Y009722D01*
X002472D01*
X002474Y009722D01*
D02*
G37*
G36*
X022848Y008071D02*
X022810D01*
X022781Y008147D01*
X022675D01*
X022648Y008071D01*
X022613D01*
X022709Y008323D01*
X022745D01*
X022848Y008071D01*
D02*
G37*
G36*
X022606Y008293D02*
X022523D01*
Y008071D01*
X022489D01*
Y008293D01*
X022406D01*
Y008323D01*
X022606D01*
Y008293D01*
D02*
G37*
G36*
X020487Y008220D02*
X020597Y008071D01*
X020553D01*
X020464Y008198D01*
X020422Y008158D01*
Y008071D01*
X020389D01*
Y008323D01*
X020422D01*
Y008198D01*
X020547Y008323D01*
X020592D01*
X020487Y008220D01*
D02*
G37*
G36*
X020251Y008327D02*
X020255Y008326D01*
X020259Y008326D01*
X020263Y008326D01*
X020267Y008325D01*
X020277Y008322D01*
X020288Y008319D01*
X020294Y008317D01*
X020299Y008314D01*
X020304Y008311D01*
X020309Y008308D01*
X020309Y008307D01*
X020310Y008307D01*
X020311Y008306D01*
X020313Y008304D01*
X020315Y008302D01*
X020318Y008300D01*
X020320Y008297D01*
X020323Y008294D01*
X020326Y008290D01*
X020329Y008286D01*
X020332Y008282D01*
X020335Y008277D01*
X020338Y008271D01*
X020341Y008266D01*
X020343Y008260D01*
X020345Y008254D01*
X020312Y008246D01*
Y008246D01*
X020312Y008247D01*
X020311Y008249D01*
X020310Y008250D01*
X020310Y008253D01*
X020309Y008255D01*
X020306Y008261D01*
X020302Y008268D01*
X020298Y008274D01*
X020292Y008281D01*
X020286Y008286D01*
X020286Y008287D01*
X020283Y008288D01*
X020280Y008290D01*
X020275Y008293D01*
X020269Y008295D01*
X020262Y008297D01*
X020254Y008298D01*
X020245Y008299D01*
X020242D01*
X020240Y008298D01*
X020237D01*
X020234Y008298D01*
X020227Y008297D01*
X020220Y008295D01*
X020212Y008293D01*
X020203Y008289D01*
X020196Y008285D01*
X020195D01*
X020195Y008284D01*
X020192Y008282D01*
X020189Y008279D01*
X020185Y008275D01*
X020180Y008269D01*
X020176Y008263D01*
X020172Y008255D01*
X020168Y008247D01*
Y008247D01*
X020168Y008246D01*
X020168Y008245D01*
X020167Y008243D01*
X020167Y008241D01*
X020166Y008238D01*
X020165Y008232D01*
X020163Y008225D01*
X020162Y008217D01*
X020161Y008208D01*
X020161Y008199D01*
Y008198D01*
Y008197D01*
Y008195D01*
Y008193D01*
X020161Y008191D01*
Y008187D01*
X020162Y008184D01*
X020162Y008180D01*
X020163Y008171D01*
X020165Y008162D01*
X020167Y008152D01*
X020170Y008143D01*
Y008142D01*
X020170Y008141D01*
X020171Y008140D01*
X020172Y008139D01*
X020174Y008134D01*
X020177Y008129D01*
X020181Y008123D01*
X020186Y008117D01*
X020192Y008112D01*
X020199Y008107D01*
X020199D01*
X020200Y008106D01*
X020201Y008105D01*
X020203Y008105D01*
X020204Y008104D01*
X020207Y008103D01*
X020212Y008101D01*
X020218Y008099D01*
X020226Y008097D01*
X020234Y008095D01*
X020242Y008095D01*
X020245D01*
X020247Y008095D01*
X020249D01*
X020252Y008096D01*
X020258Y008097D01*
X020266Y008099D01*
X020274Y008102D01*
X020282Y008106D01*
X020286Y008108D01*
X020289Y008111D01*
X020290Y008111D01*
X020290Y008112D01*
X020291Y008113D01*
X020293Y008114D01*
X020294Y008116D01*
X020296Y008118D01*
X020298Y008120D01*
X020300Y008123D01*
X020302Y008126D01*
X020305Y008130D01*
X020307Y008133D01*
X020309Y008138D01*
X020311Y008143D01*
X020313Y008148D01*
X020314Y008153D01*
X020316Y008159D01*
X020349Y008151D01*
Y008150D01*
X020349Y008149D01*
X020348Y008147D01*
X020347Y008144D01*
X020346Y008140D01*
X020345Y008136D01*
X020343Y008132D01*
X020341Y008127D01*
X020336Y008117D01*
X020329Y008107D01*
X020325Y008102D01*
X020321Y008097D01*
X020317Y008092D01*
X020311Y008088D01*
X020311Y008088D01*
X020310Y008087D01*
X020309Y008086D01*
X020307Y008085D01*
X020304Y008083D01*
X020301Y008081D01*
X020297Y008079D01*
X020293Y008077D01*
X020288Y008075D01*
X020283Y008073D01*
X020278Y008072D01*
X020272Y008070D01*
X020266Y008068D01*
X020259Y008068D01*
X020252Y008067D01*
X020245Y008066D01*
X020241D01*
X020238Y008067D01*
X020235D01*
X020231Y008067D01*
X020226Y008068D01*
X020221Y008069D01*
X020211Y008070D01*
X020200Y008073D01*
X020189Y008077D01*
X020184Y008080D01*
X020179Y008083D01*
X020178Y008083D01*
X020178Y008084D01*
X020176Y008085D01*
X020175Y008086D01*
X020172Y008088D01*
X020170Y008090D01*
X020167Y008092D01*
X020164Y008095D01*
X020161Y008099D01*
X020158Y008102D01*
X020151Y008110D01*
X020145Y008120D01*
X020140Y008131D01*
Y008131D01*
X020139Y008132D01*
X020139Y008134D01*
X020137Y008136D01*
X020137Y008139D01*
X020136Y008143D01*
X020134Y008147D01*
X020133Y008151D01*
X020132Y008156D01*
X020131Y008162D01*
X020129Y008173D01*
X020127Y008186D01*
X020127Y008199D01*
Y008199D01*
Y008200D01*
Y008203D01*
X020127Y008205D01*
Y008209D01*
X020127Y008212D01*
X020128Y008217D01*
X020128Y008222D01*
X020130Y008232D01*
X020133Y008244D01*
X020136Y008256D01*
X020141Y008267D01*
X020142Y008267D01*
X020142Y008269D01*
X020143Y008270D01*
X020144Y008272D01*
X020146Y008274D01*
X020148Y008277D01*
X020152Y008284D01*
X020159Y008291D01*
X020166Y008298D01*
X020174Y008306D01*
X020184Y008312D01*
X020184Y008312D01*
X020186Y008313D01*
X020187Y008313D01*
X020189Y008314D01*
X020192Y008315D01*
X020195Y008317D01*
X020198Y008318D01*
X020202Y008319D01*
X020207Y008321D01*
X020211Y008322D01*
X020222Y008325D01*
X020233Y008326D01*
X020245Y008327D01*
X020249D01*
X020251Y008327D01*
D02*
G37*
G36*
X021504Y008220D02*
X021615Y008071D01*
X021571D01*
X021481Y008198D01*
X021440Y008158D01*
Y008071D01*
X021406D01*
Y008323D01*
X021440D01*
Y008198D01*
X021564Y008323D01*
X021610D01*
X021504Y008220D01*
D02*
G37*
G36*
X022398Y008071D02*
X022360D01*
X022331Y008147D01*
X022225D01*
X022198Y008071D01*
X022163D01*
X022259Y008323D01*
X022295D01*
X022398Y008071D01*
D02*
G37*
G36*
X019719Y008101D02*
X019843D01*
Y008071D01*
X019685D01*
Y008323D01*
X019719D01*
Y008101D01*
D02*
G37*
G36*
X002181Y009584D02*
Y009584D01*
Y009583D01*
Y009582D01*
Y009580D01*
X002181Y009578D01*
Y009575D01*
X002181Y009570D01*
X002180Y009563D01*
X002179Y009557D01*
X002177Y009551D01*
X002175Y009545D01*
Y009544D01*
X002175Y009544D01*
X002174Y009542D01*
X002172Y009540D01*
X002170Y009537D01*
X002167Y009534D01*
X002164Y009530D01*
X002160Y009527D01*
X002156Y009524D01*
X002155Y009523D01*
X002153Y009523D01*
X002151Y009521D01*
X002147Y009520D01*
X002142Y009519D01*
X002137Y009518D01*
X002131Y009517D01*
X002125Y009517D01*
X002122D01*
X002120Y009517D01*
X002118Y009517D01*
X002116Y009517D01*
X002110Y009519D01*
X002103Y009520D01*
X002096Y009523D01*
X002093Y009525D01*
X002090Y009527D01*
X002087Y009529D01*
X002084Y009532D01*
X002084Y009532D01*
X002083Y009532D01*
X002083Y009533D01*
X002082Y009535D01*
X002081Y009536D01*
X002080Y009538D01*
X002078Y009540D01*
X002077Y009543D01*
X002076Y009546D01*
X002075Y009549D01*
X002073Y009553D01*
X002072Y009557D01*
X002072Y009561D01*
X002071Y009566D01*
X002071Y009571D01*
Y009577D01*
X002095Y009580D01*
Y009580D01*
Y009579D01*
Y009578D01*
X002095Y009576D01*
X002095Y009575D01*
Y009573D01*
X002096Y009568D01*
X002097Y009562D01*
X002099Y009557D01*
X002101Y009553D01*
X002102Y009551D01*
X002103Y009549D01*
X002103Y009549D01*
X002105Y009548D01*
X002106Y009546D01*
X002109Y009545D01*
X002112Y009543D01*
X002115Y009542D01*
X002120Y009541D01*
X002124Y009540D01*
X002126D01*
X002128Y009541D01*
X002131Y009541D01*
X002133Y009542D01*
X002136Y009542D01*
X002139Y009543D01*
X002142Y009545D01*
X002142Y009545D01*
X002143Y009546D01*
X002144Y009547D01*
X002146Y009548D01*
X002147Y009550D01*
X002149Y009552D01*
X002151Y009554D01*
X002152Y009557D01*
Y009558D01*
X002152Y009559D01*
X002153Y009561D01*
X002153Y009563D01*
X002154Y009567D01*
X002154Y009571D01*
X002155Y009576D01*
Y009583D01*
Y009721D01*
X002181D01*
Y009584D01*
D02*
G37*
G36*
X020002Y008322D02*
X020006D01*
X020013Y008322D01*
X020021Y008321D01*
X020030Y008320D01*
X020038Y008318D01*
X020042Y008317D01*
X020045Y008316D01*
X020046D01*
X020046Y008315D01*
X020048Y008314D01*
X020052Y008313D01*
X020056Y008310D01*
X020060Y008307D01*
X020065Y008303D01*
X020069Y008298D01*
X020073Y008292D01*
Y008291D01*
X020074Y008291D01*
X020075Y008289D01*
X020077Y008285D01*
X020079Y008281D01*
X020081Y008275D01*
X020083Y008269D01*
X020084Y008262D01*
X020084Y008254D01*
Y008254D01*
Y008253D01*
Y008251D01*
X020084Y008250D01*
Y008247D01*
X020083Y008244D01*
X020082Y008238D01*
X020080Y008231D01*
X020077Y008223D01*
X020072Y008216D01*
X020069Y008212D01*
X020067Y008208D01*
X020066Y008208D01*
X020066Y008208D01*
X020065Y008207D01*
X020063Y008206D01*
X020061Y008204D01*
X020059Y008203D01*
X020056Y008201D01*
X020053Y008199D01*
X020050Y008197D01*
X020046Y008195D01*
X020041Y008193D01*
X020037Y008191D01*
X020031Y008190D01*
X020026Y008188D01*
X020020Y008187D01*
X020013Y008186D01*
X020014Y008185D01*
X020015Y008184D01*
X020017Y008183D01*
X020020Y008182D01*
X020027Y008178D01*
X020030Y008175D01*
X020033Y008173D01*
X020034Y008172D01*
X020036Y008170D01*
X020038Y008167D01*
X020042Y008164D01*
X020046Y008159D01*
X020051Y008153D01*
X020056Y008147D01*
X020061Y008139D01*
X020104Y008071D01*
X020063D01*
X020029Y008123D01*
Y008124D01*
X020029Y008124D01*
X020028Y008125D01*
X020027Y008127D01*
X020024Y008131D01*
X020021Y008136D01*
X020017Y008141D01*
X020013Y008147D01*
X020009Y008153D01*
X020005Y008158D01*
X020005Y008158D01*
X020004Y008160D01*
X020002Y008162D01*
X020000Y008164D01*
X019994Y008170D01*
X019991Y008172D01*
X019988Y008175D01*
X019988Y008175D01*
X019987Y008175D01*
X019986Y008176D01*
X019984Y008177D01*
X019981Y008178D01*
X019979Y008179D01*
X019973Y008181D01*
X019973D01*
X019972Y008182D01*
X019970D01*
X019969Y008182D01*
X019966Y008182D01*
X019963D01*
X019959Y008183D01*
X019916D01*
Y008071D01*
X019883D01*
Y008323D01*
X020000D01*
X020002Y008322D01*
D02*
G37*
G36*
X022040D02*
X022047Y008322D01*
X022054Y008321D01*
X022062Y008320D01*
X022068Y008319D01*
X022068D01*
X022069Y008319D01*
X022070D01*
X022071Y008318D01*
X022075Y008317D01*
X022081Y008315D01*
X022086Y008313D01*
X022093Y008309D01*
X022099Y008306D01*
X022105Y008301D01*
X022105Y008301D01*
X022105Y008300D01*
X022106Y008299D01*
X022108Y008298D01*
X022111Y008294D01*
X022116Y008289D01*
X022121Y008283D01*
X022126Y008276D01*
X022130Y008267D01*
X022134Y008258D01*
Y008258D01*
X022135Y008257D01*
X022135Y008255D01*
X022136Y008253D01*
X022137Y008251D01*
X022138Y008248D01*
X022138Y008244D01*
X022139Y008240D01*
X022141Y008236D01*
X022141Y008232D01*
X022143Y008222D01*
X022144Y008210D01*
X022145Y008198D01*
Y008198D01*
Y008197D01*
Y008195D01*
Y008193D01*
X022144Y008191D01*
Y008188D01*
X022144Y008181D01*
X022143Y008173D01*
X022142Y008164D01*
X022140Y008156D01*
X022138Y008147D01*
Y008147D01*
X022137Y008146D01*
X022137Y008145D01*
X022137Y008143D01*
X022135Y008139D01*
X022133Y008134D01*
X022131Y008128D01*
X022128Y008123D01*
X022124Y008116D01*
X022121Y008111D01*
X022120Y008110D01*
X022119Y008108D01*
X022117Y008105D01*
X022114Y008102D01*
X022110Y008099D01*
X022106Y008095D01*
X022102Y008091D01*
X022098Y008088D01*
X022097Y008087D01*
X022095Y008086D01*
X022093Y008085D01*
X022089Y008083D01*
X022085Y008081D01*
X022080Y008079D01*
X022074Y008077D01*
X022067Y008075D01*
X022067D01*
X022066Y008075D01*
X022065Y008074D01*
X022061Y008074D01*
X022056Y008073D01*
X022050Y008072D01*
X022043Y008072D01*
X022035Y008071D01*
X022027Y008071D01*
X021936D01*
Y008323D01*
X022033D01*
X022040Y008322D01*
D02*
G37*
G36*
X021019D02*
X021022D01*
X021029Y008322D01*
X021036Y008321D01*
X021043Y008319D01*
X021051Y008318D01*
X021058Y008315D01*
X021058D01*
X021059Y008315D01*
X021061Y008314D01*
X021064Y008312D01*
X021068Y008309D01*
X021072Y008306D01*
X021077Y008302D01*
X021081Y008297D01*
X021085Y008291D01*
X021086Y008291D01*
X021087Y008289D01*
X021089Y008286D01*
X021090Y008281D01*
X021092Y008276D01*
X021094Y008271D01*
X021095Y008265D01*
X021096Y008258D01*
Y008258D01*
Y008256D01*
X021095Y008253D01*
X021094Y008249D01*
X021093Y008244D01*
X021092Y008239D01*
X021089Y008234D01*
X021086Y008228D01*
X021086Y008227D01*
X021085Y008226D01*
X021083Y008223D01*
X021080Y008220D01*
X021076Y008216D01*
X021072Y008212D01*
X021066Y008209D01*
X021060Y008205D01*
X021061D01*
X021061Y008205D01*
X021062Y008204D01*
X021064Y008204D01*
X021068Y008202D01*
X021073Y008200D01*
X021079Y008196D01*
X021085Y008192D01*
X021090Y008188D01*
X021096Y008182D01*
X021096Y008181D01*
X021097Y008179D01*
X021100Y008176D01*
X021102Y008171D01*
X021104Y008166D01*
X021106Y008159D01*
X021108Y008152D01*
X021108Y008144D01*
Y008144D01*
Y008143D01*
Y008141D01*
X021108Y008137D01*
X021107Y008133D01*
X021106Y008128D01*
X021105Y008123D01*
X021103Y008117D01*
X021100Y008111D01*
X021100Y008110D01*
X021099Y008108D01*
X021097Y008106D01*
X021095Y008102D01*
X021092Y008099D01*
X021089Y008095D01*
X021086Y008091D01*
X021082Y008087D01*
X021081Y008087D01*
X021080Y008086D01*
X021077Y008084D01*
X021074Y008083D01*
X021070Y008081D01*
X021065Y008079D01*
X021060Y008077D01*
X021054Y008075D01*
X021053D01*
X021051Y008074D01*
X021047Y008074D01*
X021043Y008073D01*
X021037Y008072D01*
X021030Y008072D01*
X021022Y008071D01*
X021014Y008071D01*
X020918D01*
Y008323D01*
X021017D01*
X021019Y008322D01*
D02*
G37*
G36*
X009622Y002228D02*
X009574D01*
Y002544D01*
X009464Y002228D01*
X009419D01*
X009310Y002549D01*
Y002228D01*
X009262D01*
Y002606D01*
X009337D01*
X009426Y002337D01*
Y002337D01*
X009427Y002336D01*
X009427Y002334D01*
X009428Y002331D01*
X009431Y002325D01*
X009433Y002317D01*
X009436Y002307D01*
X009439Y002298D01*
X009442Y002289D01*
X009444Y002282D01*
X009445Y002283D01*
X009445Y002286D01*
X009447Y002290D01*
X009449Y002297D01*
X009452Y002306D01*
X009456Y002316D01*
X009459Y002328D01*
X009464Y002342D01*
X009555Y002606D01*
X009622D01*
Y002228D01*
D02*
G37*
G36*
X021421Y000664D02*
X021315D01*
Y000236D01*
X021268D01*
Y000664D01*
X021162D01*
Y000711D01*
X021421D01*
Y000664D01*
D02*
G37*
G36*
X021100Y000236D02*
X021053D01*
Y000711D01*
X021100D01*
Y000236D01*
D02*
G37*
G36*
X021630Y000710D02*
X021648Y000709D01*
X021666Y000708D01*
X021674Y000707D01*
X021682Y000706D01*
X021688Y000706D01*
X021694Y000704D01*
X021695D01*
X021696Y000704D01*
X021699Y000703D01*
X021701Y000702D01*
X021709Y000699D01*
X021719Y000695D01*
X021729Y000690D01*
X021741Y000682D01*
X021752Y000673D01*
X021763Y000662D01*
X021764Y000661D01*
X021767Y000656D01*
X021771Y000650D01*
X021777Y000641D01*
X021781Y000629D01*
X021785Y000616D01*
X021788Y000601D01*
X021790Y000584D01*
Y000583D01*
Y000582D01*
Y000580D01*
Y000577D01*
X021789Y000570D01*
X021787Y000561D01*
X021785Y000550D01*
X021782Y000539D01*
X021777Y000527D01*
X021771Y000515D01*
X021770Y000514D01*
X021767Y000510D01*
X021763Y000505D01*
X021758Y000499D01*
X021750Y000492D01*
X021742Y000484D01*
X021731Y000478D01*
X021719Y000471D01*
X021718D01*
X021717Y000470D01*
X021715Y000470D01*
X021713Y000469D01*
X021709Y000467D01*
X021705Y000467D01*
X021695Y000464D01*
X021682Y000461D01*
X021666Y000459D01*
X021647Y000457D01*
X021626Y000456D01*
X021796Y000236D01*
X021737D01*
X021567Y000456D01*
X021540D01*
Y000236D01*
X021493D01*
Y000711D01*
X021614D01*
X021630Y000710D01*
D02*
G37*
G36*
X022838Y000236D02*
X022827D01*
X022514Y000595D01*
Y000236D01*
X022465D01*
Y000711D01*
X022476D01*
X022791Y000348D01*
Y000711D01*
X022838D01*
Y000236D01*
D02*
G37*
G36*
X022994D02*
X022947D01*
Y000711D01*
X022994D01*
Y000236D01*
D02*
G37*
G36*
X020788Y000710D02*
X020794D01*
X020806Y000709D01*
X020820Y000707D01*
X020835Y000705D01*
X020849Y000701D01*
X020861Y000697D01*
X020862Y000696D01*
X020866Y000695D01*
X020871Y000691D01*
X020878Y000687D01*
X020886Y000681D01*
X020894Y000674D01*
X020901Y000666D01*
X020908Y000656D01*
X020909Y000655D01*
X020911Y000651D01*
X020914Y000646D01*
X020918Y000638D01*
X020921Y000629D01*
X020924Y000618D01*
X020926Y000607D01*
X020927Y000594D01*
Y000593D01*
Y000589D01*
X020926Y000583D01*
X020924Y000575D01*
X020923Y000566D01*
X020920Y000557D01*
X020916Y000547D01*
X020910Y000537D01*
X020910Y000535D01*
X020908Y000532D01*
X020904Y000528D01*
X020900Y000522D01*
X020893Y000515D01*
X020885Y000508D01*
X020876Y000502D01*
X020866Y000495D01*
X020867D01*
X020867Y000494D01*
X020872Y000493D01*
X020878Y000490D01*
X020886Y000487D01*
X020896Y000483D01*
X020905Y000478D01*
X020914Y000472D01*
X020922Y000465D01*
X020923Y000464D01*
X020926Y000462D01*
X020929Y000459D01*
X020934Y000453D01*
X020939Y000448D01*
X020944Y000441D01*
X020949Y000433D01*
X020954Y000424D01*
X020954Y000424D01*
X020956Y000420D01*
X020957Y000416D01*
X020959Y000409D01*
X020962Y000401D01*
X020964Y000392D01*
X020964Y000382D01*
X020965Y000372D01*
Y000371D01*
Y000370D01*
Y000366D01*
X020964Y000362D01*
X020964Y000357D01*
X020963Y000352D01*
X020960Y000338D01*
X020955Y000324D01*
X020951Y000316D01*
X020948Y000307D01*
X020943Y000299D01*
X020937Y000291D01*
X020930Y000283D01*
X020923Y000276D01*
X020922Y000275D01*
X020921Y000274D01*
X020919Y000272D01*
X020916Y000270D01*
X020911Y000267D01*
X020906Y000263D01*
X020900Y000260D01*
X020894Y000256D01*
X020886Y000252D01*
X020878Y000249D01*
X020868Y000246D01*
X020858Y000242D01*
X020848Y000240D01*
X020836Y000238D01*
X020824Y000237D01*
X020811Y000236D01*
X020682D01*
Y000711D01*
X020784D01*
X020788Y000710D01*
D02*
G37*
G36*
X023345Y008554D02*
X023348Y008554D01*
X023352Y008553D01*
X023356Y008552D01*
X023360Y008551D01*
X023365Y008550D01*
X023369Y008548D01*
X023374Y008546D01*
X023379Y008544D01*
X023384Y008541D01*
X023388Y008537D01*
X023393Y008533D01*
X023397Y008529D01*
X023397Y008528D01*
X023398Y008527D01*
X023399Y008525D01*
X023401Y008523D01*
X023403Y008519D01*
X023404Y008515D01*
X023407Y008510D01*
X023409Y008504D01*
X023411Y008497D01*
X023413Y008490D01*
X023416Y008481D01*
X023417Y008472D01*
X023419Y008462D01*
X023420Y008451D01*
X023421Y008439D01*
X023421Y008426D01*
Y008426D01*
Y008424D01*
Y008422D01*
Y008419D01*
X023421Y008415D01*
Y008410D01*
X023421Y008406D01*
X023420Y008400D01*
X023419Y008389D01*
X023417Y008377D01*
X023415Y008365D01*
X023414Y008359D01*
X023412Y008354D01*
Y008354D01*
X023412Y008353D01*
X023411Y008351D01*
X023411Y008350D01*
X023410Y008347D01*
X023408Y008345D01*
X023405Y008338D01*
X023402Y008332D01*
X023397Y008325D01*
X023392Y008318D01*
X023385Y008312D01*
X023385D01*
X023384Y008311D01*
X023383Y008311D01*
X023382Y008310D01*
X023380Y008309D01*
X023378Y008307D01*
X023372Y008305D01*
X023366Y008302D01*
X023358Y008299D01*
X023349Y008298D01*
X023339Y008297D01*
X023336D01*
X023332Y008298D01*
X023327Y008298D01*
X023322Y008299D01*
X023316Y008301D01*
X023310Y008303D01*
X023304Y008306D01*
X023304D01*
X023303Y008306D01*
X023301Y008307D01*
X023298Y008309D01*
X023295Y008311D01*
X023291Y008315D01*
X023286Y008319D01*
X023282Y008324D01*
X023278Y008329D01*
X023278Y008330D01*
X023277Y008332D01*
X023275Y008335D01*
X023273Y008340D01*
X023270Y008345D01*
X023267Y008351D01*
X023265Y008359D01*
X023263Y008367D01*
Y008367D01*
X023262Y008368D01*
X023262Y008369D01*
X023262Y008371D01*
X023261Y008373D01*
X023261Y008375D01*
X023260Y008379D01*
X023260Y008382D01*
X023259Y008386D01*
X023259Y008391D01*
X023258Y008396D01*
X023258Y008401D01*
X023257Y008407D01*
Y008413D01*
X023257Y008419D01*
Y008426D01*
Y008426D01*
Y008428D01*
Y008430D01*
Y008433D01*
X023257Y008437D01*
Y008442D01*
X023258Y008446D01*
X023258Y008452D01*
X023259Y008463D01*
X023261Y008475D01*
X023263Y008487D01*
X023265Y008492D01*
X023266Y008498D01*
Y008498D01*
X023267Y008499D01*
X023267Y008500D01*
X023268Y008502D01*
X023269Y008505D01*
X023270Y008507D01*
X023273Y008513D01*
X023277Y008520D01*
X023282Y008527D01*
X023287Y008534D01*
X023294Y008540D01*
X023294D01*
X023294Y008541D01*
X023296Y008541D01*
X023297Y008542D01*
X023299Y008543D01*
X023301Y008545D01*
X023306Y008547D01*
X023313Y008550D01*
X023320Y008552D01*
X023329Y008554D01*
X023339Y008555D01*
X023343D01*
X023345Y008554D01*
D02*
G37*
G36*
X023981Y008297D02*
X023950D01*
Y008494D01*
X023949Y008494D01*
X023947Y008492D01*
X023945Y008490D01*
X023942Y008488D01*
X023938Y008484D01*
X023933Y008481D01*
X023927Y008477D01*
X023920Y008473D01*
X023920D01*
X023919Y008472D01*
X023917Y008471D01*
X023914Y008469D01*
X023909Y008467D01*
X023904Y008464D01*
X023899Y008462D01*
X023893Y008459D01*
X023888Y008457D01*
Y008487D01*
X023888D01*
X023889Y008488D01*
X023890Y008488D01*
X023892Y008489D01*
X023894Y008490D01*
X023897Y008492D01*
X023903Y008495D01*
X023910Y008499D01*
X023918Y008504D01*
X023925Y008510D01*
X023933Y008516D01*
X023933Y008517D01*
X023934Y008517D01*
X023935Y008518D01*
X023936Y008519D01*
X023939Y008523D01*
X023944Y008527D01*
X023948Y008532D01*
X023953Y008538D01*
X023957Y008544D01*
X023961Y008550D01*
X023981D01*
Y008297D01*
D02*
G37*
G36*
X019942Y000722D02*
X019950Y000721D01*
X019958Y000720D01*
X019969Y000719D01*
X019982Y000717D01*
X019994Y000714D01*
X020008Y000709D01*
X020023Y000705D01*
X020038Y000699D01*
X020053Y000692D01*
X020068Y000684D01*
X020083Y000674D01*
X020098Y000663D01*
X020111Y000650D01*
X020112Y000650D01*
X020114Y000647D01*
X020118Y000643D01*
X020123Y000637D01*
X020128Y000631D01*
X020135Y000622D01*
X020141Y000612D01*
X020148Y000601D01*
X020155Y000589D01*
X020161Y000575D01*
X020168Y000561D01*
X020173Y000545D01*
X020178Y000529D01*
X020181Y000511D01*
X020184Y000492D01*
X020184Y000473D01*
Y000472D01*
Y000469D01*
X020184Y000463D01*
X020183Y000456D01*
X020182Y000447D01*
X020181Y000437D01*
X020179Y000425D01*
X020176Y000412D01*
X020171Y000399D01*
X020167Y000384D01*
X020161Y000370D01*
X020154Y000355D01*
X020145Y000340D01*
X020136Y000325D01*
X020125Y000311D01*
X020111Y000297D01*
X020111Y000296D01*
X020108Y000294D01*
X020104Y000290D01*
X020098Y000286D01*
X020092Y000280D01*
X020083Y000274D01*
X020074Y000268D01*
X020063Y000261D01*
X020050Y000254D01*
X020036Y000247D01*
X020023Y000241D01*
X020007Y000236D01*
X019990Y000231D01*
X019972Y000227D01*
X019954Y000225D01*
X019935Y000225D01*
X019931D01*
X019925Y000225D01*
X019918Y000226D01*
X019909Y000227D01*
X019898Y000228D01*
X019886Y000230D01*
X019874Y000233D01*
X019860Y000238D01*
X019845Y000242D01*
X019831Y000248D01*
X019816Y000255D01*
X019801Y000263D01*
X019786Y000273D01*
X019771Y000284D01*
X019757Y000297D01*
X019756Y000297D01*
X019754Y000300D01*
X019751Y000304D01*
X019746Y000310D01*
X019740Y000316D01*
X019735Y000325D01*
X019728Y000335D01*
X019721Y000346D01*
X019714Y000358D01*
X019708Y000371D01*
X019702Y000386D01*
X019697Y000401D01*
X019692Y000417D01*
X019688Y000435D01*
X019686Y000452D01*
X019685Y000471D01*
Y000472D01*
Y000474D01*
Y000478D01*
X019686Y000483D01*
Y000488D01*
X019686Y000496D01*
X019688Y000504D01*
X019689Y000513D01*
X019693Y000532D01*
X019699Y000553D01*
X019707Y000576D01*
X019712Y000587D01*
X019718Y000598D01*
X019719Y000599D01*
X019719Y000601D01*
X019721Y000604D01*
X019724Y000607D01*
X019727Y000612D01*
X019731Y000618D01*
X019741Y000631D01*
X019754Y000646D01*
X019770Y000661D01*
X019787Y000676D01*
X019808Y000689D01*
X019808Y000690D01*
X019810Y000690D01*
X019813Y000692D01*
X019818Y000694D01*
X019823Y000697D01*
X019829Y000700D01*
X019837Y000703D01*
X019845Y000706D01*
X019853Y000709D01*
X019863Y000712D01*
X019884Y000717D01*
X019907Y000721D01*
X019919Y000722D01*
X019937D01*
X019942Y000722D01*
D02*
G37*
G36*
X020419Y000710D02*
X020437Y000709D01*
X020455Y000708D01*
X020463Y000707D01*
X020471Y000706D01*
X020477Y000706D01*
X020483Y000704D01*
X020484D01*
X020485Y000704D01*
X020488Y000703D01*
X020491Y000702D01*
X020498Y000699D01*
X020508Y000695D01*
X020518Y000690D01*
X020530Y000682D01*
X020542Y000673D01*
X020552Y000662D01*
X020553Y000661D01*
X020556Y000656D01*
X020561Y000650D01*
X020566Y000641D01*
X020570Y000629D01*
X020574Y000616D01*
X020577Y000601D01*
X020579Y000584D01*
Y000583D01*
Y000582D01*
Y000580D01*
Y000577D01*
X020578Y000570D01*
X020577Y000561D01*
X020574Y000550D01*
X020571Y000539D01*
X020566Y000527D01*
X020560Y000515D01*
X020559Y000514D01*
X020556Y000510D01*
X020553Y000505D01*
X020547Y000499D01*
X020539Y000492D01*
X020531Y000484D01*
X020520Y000478D01*
X020508Y000471D01*
X020507D01*
X020507Y000470D01*
X020504Y000470D01*
X020502Y000469D01*
X020499Y000467D01*
X020494Y000467D01*
X020484Y000464D01*
X020471Y000461D01*
X020455Y000459D01*
X020436Y000457D01*
X020415Y000456D01*
X020585Y000236D01*
X020526D01*
X020356Y000456D01*
X020329D01*
Y000236D01*
X020282D01*
Y000711D01*
X020403D01*
X020419Y000710D01*
D02*
G37*
G36*
X022127Y000722D02*
X022135Y000721D01*
X022144Y000720D01*
X022155Y000719D01*
X022167Y000717D01*
X022180Y000714D01*
X022194Y000709D01*
X022208Y000705D01*
X022223Y000699D01*
X022239Y000692D01*
X022253Y000684D01*
X022269Y000674D01*
X022283Y000663D01*
X022297Y000650D01*
X022298Y000650D01*
X022300Y000647D01*
X022304Y000643D01*
X022309Y000637D01*
X022314Y000631D01*
X022320Y000622D01*
X022327Y000612D01*
X022334Y000601D01*
X022340Y000589D01*
X022347Y000575D01*
X022353Y000561D01*
X022358Y000545D01*
X022363Y000529D01*
X022367Y000511D01*
X022369Y000492D01*
X022370Y000473D01*
Y000472D01*
Y000469D01*
X022369Y000463D01*
X022368Y000456D01*
X022368Y000447D01*
X022366Y000437D01*
X022364Y000425D01*
X022361Y000412D01*
X022357Y000399D01*
X022352Y000384D01*
X022347Y000370D01*
X022339Y000355D01*
X022331Y000340D01*
X022321Y000325D01*
X022310Y000311D01*
X022297Y000297D01*
X022296Y000296D01*
X022293Y000294D01*
X022290Y000290D01*
X022284Y000286D01*
X022277Y000280D01*
X022269Y000274D01*
X022259Y000268D01*
X022248Y000261D01*
X022236Y000254D01*
X022222Y000247D01*
X022208Y000241D01*
X022192Y000236D01*
X022175Y000231D01*
X022158Y000227D01*
X022140Y000225D01*
X022121Y000225D01*
X022116D01*
X022110Y000225D01*
X022103Y000226D01*
X022094Y000227D01*
X022083Y000228D01*
X022072Y000230D01*
X022059Y000233D01*
X022046Y000238D01*
X022031Y000242D01*
X022016Y000248D01*
X022001Y000255D01*
X021986Y000263D01*
X021971Y000273D01*
X021957Y000284D01*
X021943Y000297D01*
X021942Y000297D01*
X021940Y000300D01*
X021936Y000304D01*
X021932Y000310D01*
X021926Y000316D01*
X021920Y000325D01*
X021914Y000335D01*
X021907Y000346D01*
X021900Y000358D01*
X021893Y000371D01*
X021887Y000386D01*
X021882Y000401D01*
X021877Y000417D01*
X021874Y000435D01*
X021871Y000452D01*
X021871Y000471D01*
Y000472D01*
Y000474D01*
Y000478D01*
X021871Y000483D01*
Y000488D01*
X021872Y000496D01*
X021874Y000504D01*
X021875Y000513D01*
X021879Y000532D01*
X021884Y000553D01*
X021892Y000576D01*
X021898Y000587D01*
X021903Y000598D01*
X021904Y000599D01*
X021905Y000601D01*
X021907Y000604D01*
X021909Y000607D01*
X021913Y000612D01*
X021917Y000618D01*
X021927Y000631D01*
X021940Y000646D01*
X021955Y000661D01*
X021973Y000676D01*
X021993Y000689D01*
X021994Y000690D01*
X021996Y000690D01*
X021999Y000692D01*
X022003Y000694D01*
X022008Y000697D01*
X022015Y000700D01*
X022022Y000703D01*
X022030Y000706D01*
X022039Y000709D01*
X022048Y000712D01*
X022070Y000717D01*
X022093Y000721D01*
X022105Y000722D01*
X022122D01*
X022127Y000722D01*
D02*
G37*
G36*
X023348D02*
X023353D01*
X023361Y000721D01*
X023368Y000720D01*
X023377Y000720D01*
X023395Y000716D01*
X023415Y000712D01*
X023436Y000705D01*
X023457Y000696D01*
X023458D01*
X023459Y000695D01*
X023462Y000693D01*
X023466Y000691D01*
X023471Y000689D01*
X023476Y000685D01*
X023488Y000677D01*
X023502Y000667D01*
X023517Y000655D01*
X023531Y000640D01*
X023545Y000623D01*
X023507Y000595D01*
Y000596D01*
X023506Y000596D01*
X023504Y000599D01*
X023502Y000601D01*
X023496Y000609D01*
X023487Y000617D01*
X023476Y000627D01*
X023463Y000637D01*
X023449Y000647D01*
X023433Y000655D01*
X023432D01*
X023431Y000656D01*
X023428Y000658D01*
X023426Y000659D01*
X023421Y000661D01*
X023417Y000662D01*
X023405Y000666D01*
X023391Y000670D01*
X023375Y000674D01*
X023356Y000676D01*
X023337Y000677D01*
X023331D01*
X023328Y000676D01*
X023323D01*
X023317Y000675D01*
X023310Y000674D01*
X023303Y000673D01*
X023287Y000670D01*
X023269Y000665D01*
X023251Y000658D01*
X023232Y000649D01*
X023232D01*
X023230Y000647D01*
X023228Y000646D01*
X023224Y000644D01*
X023216Y000638D01*
X023205Y000630D01*
X023193Y000619D01*
X023181Y000607D01*
X023168Y000592D01*
X023157Y000576D01*
Y000575D01*
X023156Y000574D01*
X023155Y000572D01*
X023153Y000568D01*
X023151Y000564D01*
X023149Y000558D01*
X023146Y000553D01*
X023144Y000546D01*
X023139Y000531D01*
X023135Y000513D01*
X023132Y000494D01*
X023131Y000472D01*
Y000472D01*
Y000469D01*
X023132Y000464D01*
Y000458D01*
X023133Y000451D01*
X023134Y000442D01*
X023136Y000432D01*
X023138Y000422D01*
X023141Y000410D01*
X023146Y000399D01*
X023150Y000387D01*
X023156Y000375D01*
X023162Y000362D01*
X023170Y000351D01*
X023180Y000338D01*
X023190Y000327D01*
X023191Y000327D01*
X023193Y000325D01*
X023196Y000322D01*
X023201Y000319D01*
X023207Y000314D01*
X023214Y000309D01*
X023222Y000304D01*
X023232Y000299D01*
X023242Y000293D01*
X023253Y000288D01*
X023265Y000283D01*
X023279Y000279D01*
X023293Y000275D01*
X023308Y000272D01*
X023323Y000270D01*
X023340Y000270D01*
X023345D01*
X023350Y000270D01*
X023357Y000271D01*
X023366Y000272D01*
X023375Y000274D01*
X023386Y000276D01*
X023399Y000279D01*
X023412Y000284D01*
X023425Y000289D01*
X023439Y000295D01*
X023453Y000303D01*
X023467Y000311D01*
X023481Y000322D01*
X023494Y000334D01*
X023507Y000348D01*
X023545Y000319D01*
X023544Y000319D01*
X023544Y000317D01*
X023541Y000315D01*
X023539Y000312D01*
X023535Y000308D01*
X023531Y000303D01*
X023520Y000293D01*
X023508Y000282D01*
X023493Y000270D01*
X023475Y000259D01*
X023456Y000249D01*
X023455D01*
X023454Y000248D01*
X023451Y000246D01*
X023447Y000245D01*
X023442Y000243D01*
X023436Y000241D01*
X023429Y000239D01*
X023421Y000237D01*
X023413Y000234D01*
X023404Y000232D01*
X023383Y000228D01*
X023361Y000225D01*
X023337Y000225D01*
X023331D01*
X023326Y000225D01*
X023317Y000226D01*
X023306Y000227D01*
X023294Y000229D01*
X023280Y000231D01*
X023266Y000235D01*
X023251Y000239D01*
X023235Y000245D01*
X023219Y000252D01*
X023202Y000260D01*
X023186Y000269D01*
X023170Y000280D01*
X023154Y000292D01*
X023140Y000307D01*
X023140Y000308D01*
X023138Y000310D01*
X023135Y000314D01*
X023131Y000319D01*
X023127Y000326D01*
X023122Y000335D01*
X023116Y000343D01*
X023111Y000354D01*
X023105Y000366D01*
X023100Y000379D01*
X023095Y000393D01*
X023090Y000408D01*
X023087Y000424D01*
X023084Y000440D01*
X023081Y000458D01*
X023081Y000476D01*
Y000478D01*
Y000480D01*
X023081Y000486D01*
X023082Y000494D01*
X023083Y000502D01*
X023084Y000513D01*
X023087Y000524D01*
X023090Y000537D01*
X023094Y000550D01*
X023098Y000564D01*
X023105Y000579D01*
X023111Y000594D01*
X023120Y000609D01*
X023130Y000623D01*
X023140Y000637D01*
X023154Y000651D01*
X023154Y000652D01*
X023157Y000654D01*
X023161Y000658D01*
X023167Y000662D01*
X023174Y000668D01*
X023183Y000674D01*
X023192Y000680D01*
X023204Y000687D01*
X023216Y000693D01*
X023230Y000700D01*
X023245Y000706D01*
X023262Y000712D01*
X023279Y000716D01*
X023297Y000720D01*
X023316Y000722D01*
X023337Y000722D01*
X023343D01*
X023348Y000722D01*
D02*
G37*
G36*
X004734Y002234D02*
X004689D01*
X004586Y002508D01*
X004635D01*
X004694Y002344D01*
Y002343D01*
X004695Y002343D01*
X004695Y002341D01*
X004696Y002340D01*
X004698Y002334D01*
X004700Y002327D01*
X004703Y002319D01*
X004706Y002310D01*
X004709Y002299D01*
X004712Y002289D01*
X004712Y002290D01*
X004713Y002293D01*
X004715Y002297D01*
X004716Y002304D01*
X004719Y002311D01*
X004722Y002320D01*
X004725Y002330D01*
X004729Y002341D01*
X004790Y002508D01*
X004838D01*
X004734Y002234D01*
D02*
G37*
G36*
X005246Y002563D02*
X005095D01*
X005074Y002461D01*
X005075Y002461D01*
X005076Y002462D01*
X005078Y002463D01*
X005080Y002465D01*
X005084Y002466D01*
X005087Y002468D01*
X005096Y002473D01*
X005107Y002477D01*
X005119Y002481D01*
X005132Y002484D01*
X005139Y002485D01*
X005151D01*
X005154Y002484D01*
X005158Y002484D01*
X005163Y002483D01*
X005169Y002482D01*
X005175Y002481D01*
X005188Y002477D01*
X005195Y002474D01*
X005202Y002470D01*
X005209Y002466D01*
X005216Y002462D01*
X005223Y002456D01*
X005229Y002450D01*
X005230Y002450D01*
X005231Y002449D01*
X005233Y002447D01*
X005235Y002444D01*
X005238Y002441D01*
X005240Y002437D01*
X005244Y002432D01*
X005247Y002426D01*
X005250Y002420D01*
X005253Y002414D01*
X005256Y002406D01*
X005258Y002399D01*
X005261Y002390D01*
X005262Y002381D01*
X005263Y002372D01*
X005264Y002362D01*
Y002361D01*
Y002360D01*
Y002357D01*
X005263Y002353D01*
X005263Y002349D01*
X005262Y002344D01*
X005261Y002338D01*
X005260Y002332D01*
X005257Y002318D01*
X005251Y002303D01*
X005248Y002295D01*
X005244Y002288D01*
X005239Y002281D01*
X005234Y002274D01*
X005233Y002273D01*
X005232Y002271D01*
X005230Y002269D01*
X005227Y002266D01*
X005223Y002263D01*
X005219Y002259D01*
X005214Y002255D01*
X005208Y002251D01*
X005201Y002246D01*
X005193Y002242D01*
X005185Y002239D01*
X005176Y002235D01*
X005167Y002232D01*
X005157Y002230D01*
X005146Y002228D01*
X005134Y002228D01*
X005129D01*
X005126Y002228D01*
X005121Y002229D01*
X005116Y002229D01*
X005110Y002230D01*
X005104Y002232D01*
X005091Y002235D01*
X005077Y002240D01*
X005070Y002243D01*
X005063Y002247D01*
X005056Y002251D01*
X005050Y002256D01*
X005049Y002257D01*
X005048Y002257D01*
X005047Y002259D01*
X005045Y002262D01*
X005042Y002264D01*
X005039Y002268D01*
X005036Y002272D01*
X005033Y002277D01*
X005030Y002282D01*
X005027Y002288D01*
X005021Y002301D01*
X005016Y002316D01*
X005014Y002324D01*
X005013Y002333D01*
X005062Y002337D01*
Y002336D01*
Y002335D01*
X005062Y002334D01*
X005063Y002331D01*
X005065Y002325D01*
X005067Y002317D01*
X005070Y002309D01*
X005074Y002299D01*
X005080Y002291D01*
X005086Y002283D01*
X005087Y002283D01*
X005090Y002281D01*
X005094Y002278D01*
X005100Y002275D01*
X005107Y002271D01*
X005115Y002269D01*
X005124Y002266D01*
X005134Y002266D01*
X005138D01*
X005140Y002266D01*
X005146Y002267D01*
X005154Y002269D01*
X005163Y002272D01*
X005173Y002276D01*
X005182Y002283D01*
X005187Y002287D01*
X005191Y002291D01*
X005192Y002292D01*
X005192Y002292D01*
X005193Y002294D01*
X005195Y002295D01*
X005199Y002301D01*
X005203Y002309D01*
X005207Y002318D01*
X005211Y002330D01*
X005214Y002343D01*
X005215Y002351D01*
Y002358D01*
Y002359D01*
Y002360D01*
Y002362D01*
X005214Y002365D01*
Y002368D01*
X005214Y002372D01*
X005212Y002381D01*
X005209Y002391D01*
X005205Y002401D01*
X005200Y002411D01*
X005192Y002420D01*
Y002421D01*
X005191Y002422D01*
X005188Y002424D01*
X005184Y002428D01*
X005177Y002432D01*
X005168Y002436D01*
X005158Y002440D01*
X005147Y002443D01*
X005140Y002444D01*
X005130D01*
X005126Y002443D01*
X005120Y002443D01*
X005114Y002441D01*
X005107Y002440D01*
X005100Y002437D01*
X005093Y002434D01*
X005092Y002433D01*
X005090Y002432D01*
X005087Y002429D01*
X005083Y002426D01*
X005078Y002423D01*
X005074Y002418D01*
X005069Y002413D01*
X005065Y002407D01*
X005021Y002413D01*
X005058Y002607D01*
X005246D01*
Y002563D01*
D02*
G37*
G36*
X010116Y002228D02*
X010063D01*
Y002281D01*
X010116D01*
Y002228D01*
D02*
G37*
G36*
X010408D02*
X010358D01*
Y002606D01*
X010408D01*
Y002228D01*
D02*
G37*
G36*
X010261D02*
X010211D01*
Y002606D01*
X010261D01*
Y002228D01*
D02*
G37*
G36*
X005942Y002367D02*
X005994D01*
Y002325D01*
X005942D01*
Y002234D01*
X005896D01*
Y002325D01*
X005732D01*
Y002367D01*
X005905Y002612D01*
X005942D01*
Y002367D01*
D02*
G37*
G36*
X004443Y002514D02*
X004447Y002513D01*
X004452Y002512D01*
X004458Y002511D01*
X004466Y002509D01*
X004472Y002508D01*
X004480Y002505D01*
X004487Y002502D01*
X004494Y002499D01*
X004502Y002494D01*
X004510Y002489D01*
X004517Y002483D01*
X004523Y002477D01*
X004524Y002476D01*
X004525Y002475D01*
X004527Y002473D01*
X004529Y002470D01*
X004532Y002466D01*
X004534Y002461D01*
X004538Y002456D01*
X004541Y002449D01*
X004544Y002442D01*
X004547Y002435D01*
X004550Y002426D01*
X004553Y002417D01*
X004555Y002406D01*
X004557Y002395D01*
X004558Y002384D01*
X004558Y002371D01*
Y002371D01*
Y002369D01*
Y002365D01*
X004558Y002359D01*
X004353D01*
Y002359D01*
Y002357D01*
X004354Y002355D01*
Y002352D01*
X004354Y002348D01*
X004355Y002343D01*
X004357Y002334D01*
X004360Y002323D01*
X004365Y002311D01*
X004371Y002300D01*
X004378Y002290D01*
X004379D01*
X004379Y002289D01*
X004383Y002286D01*
X004387Y002282D01*
X004394Y002278D01*
X004403Y002274D01*
X004413Y002270D01*
X004424Y002268D01*
X004430Y002267D01*
X004436Y002266D01*
X004440D01*
X004445Y002267D01*
X004451Y002268D01*
X004458Y002270D01*
X004466Y002272D01*
X004473Y002275D01*
X004480Y002280D01*
X004480Y002280D01*
X004483Y002282D01*
X004486Y002286D01*
X004490Y002290D01*
X004494Y002296D01*
X004499Y002304D01*
X004504Y002312D01*
X004509Y002323D01*
X004557Y002317D01*
Y002316D01*
X004556Y002315D01*
X004556Y002313D01*
X004555Y002310D01*
X004553Y002306D01*
X004551Y002302D01*
X004547Y002293D01*
X004541Y002282D01*
X004534Y002271D01*
X004525Y002261D01*
X004514Y002251D01*
X004514D01*
X004513Y002250D01*
X004511Y002249D01*
X004509Y002247D01*
X004505Y002246D01*
X004502Y002244D01*
X004498Y002242D01*
X004493Y002240D01*
X004487Y002238D01*
X004482Y002235D01*
X004468Y002232D01*
X004453Y002229D01*
X004436Y002228D01*
X004430D01*
X004426Y002229D01*
X004421Y002229D01*
X004415Y002230D01*
X004409Y002232D01*
X004402Y002233D01*
X004386Y002237D01*
X004378Y002240D01*
X004371Y002244D01*
X004362Y002248D01*
X004355Y002253D01*
X004348Y002258D01*
X004341Y002265D01*
X004340Y002265D01*
X004339Y002266D01*
X004337Y002269D01*
X004335Y002272D01*
X004332Y002276D01*
X004330Y002280D01*
X004326Y002286D01*
X004323Y002292D01*
X004320Y002299D01*
X004316Y002306D01*
X004314Y002315D01*
X004311Y002324D01*
X004309Y002334D01*
X004307Y002345D01*
X004306Y002357D01*
X004306Y002369D01*
Y002369D01*
Y002372D01*
Y002375D01*
X004306Y002380D01*
X004307Y002386D01*
X004307Y002393D01*
X004308Y002400D01*
X004310Y002408D01*
X004314Y002425D01*
X004317Y002434D01*
X004320Y002443D01*
X004325Y002452D01*
X004330Y002460D01*
X004335Y002468D01*
X004341Y002476D01*
X004342Y002477D01*
X004343Y002478D01*
X004345Y002479D01*
X004348Y002482D01*
X004351Y002485D01*
X004355Y002488D01*
X004360Y002492D01*
X004366Y002495D01*
X004372Y002499D01*
X004379Y002502D01*
X004387Y002506D01*
X004395Y002508D01*
X004404Y002511D01*
X004413Y002513D01*
X004423Y002514D01*
X004433Y002514D01*
X004439D01*
X004443Y002514D01*
D02*
G37*
G36*
X023748Y000722D02*
X023756Y000720D01*
X023766Y000718D01*
X023777Y000715D01*
X023788Y000712D01*
X023799Y000706D01*
X023800Y000705D01*
X023804Y000702D01*
X023810Y000698D01*
X023818Y000692D01*
X023826Y000683D01*
X023837Y000673D01*
X023848Y000660D01*
X023861Y000644D01*
X023821Y000615D01*
Y000616D01*
X023820Y000617D01*
X023817Y000621D01*
X023812Y000627D01*
X023806Y000634D01*
X023799Y000642D01*
X023791Y000650D01*
X023783Y000657D01*
X023776Y000662D01*
X023775Y000663D01*
X023773Y000664D01*
X023769Y000666D01*
X023764Y000668D01*
X023758Y000670D01*
X023751Y000672D01*
X023743Y000673D01*
X023735Y000674D01*
X023730D01*
X023724Y000673D01*
X023718Y000671D01*
X023711Y000669D01*
X023703Y000666D01*
X023695Y000662D01*
X023688Y000656D01*
X023687Y000655D01*
X023685Y000653D01*
X023682Y000650D01*
X023679Y000644D01*
X023676Y000638D01*
X023673Y000631D01*
X023670Y000623D01*
X023670Y000613D01*
Y000612D01*
Y000610D01*
Y000607D01*
X023670Y000604D01*
X023672Y000594D01*
X023676Y000583D01*
Y000582D01*
X023677Y000581D01*
X023679Y000577D01*
X023681Y000574D01*
X023684Y000569D01*
X023689Y000564D01*
X023694Y000558D01*
X023700Y000551D01*
X023700Y000550D01*
X023702Y000549D01*
X023705Y000546D01*
X023711Y000542D01*
X023719Y000536D01*
X023724Y000532D01*
X023730Y000528D01*
X023736Y000523D01*
X023743Y000517D01*
X023751Y000510D01*
X023761Y000504D01*
X023762Y000503D01*
X023764Y000502D01*
X023767Y000499D01*
X023771Y000496D01*
X023776Y000492D01*
X023782Y000488D01*
X023794Y000477D01*
X023809Y000464D01*
X023823Y000451D01*
X023835Y000437D01*
X023841Y000429D01*
X023845Y000423D01*
Y000422D01*
X023846Y000421D01*
X023849Y000417D01*
X023853Y000410D01*
X023857Y000401D01*
X023861Y000390D01*
X023865Y000378D01*
X023868Y000365D01*
X023869Y000352D01*
Y000351D01*
Y000350D01*
Y000347D01*
X023868Y000343D01*
X023867Y000339D01*
X023867Y000334D01*
X023864Y000322D01*
X023859Y000308D01*
X023852Y000292D01*
X023848Y000285D01*
X023843Y000277D01*
X023837Y000270D01*
X023829Y000262D01*
X023829Y000262D01*
X023828Y000261D01*
X023826Y000259D01*
X023822Y000257D01*
X023818Y000254D01*
X023814Y000251D01*
X023802Y000244D01*
X023789Y000236D01*
X023773Y000230D01*
X023754Y000226D01*
X023744Y000225D01*
X023734Y000225D01*
X023730D01*
X023727Y000225D01*
X023719Y000226D01*
X023708Y000227D01*
X023696Y000230D01*
X023683Y000234D01*
X023669Y000240D01*
X023655Y000247D01*
X023654D01*
X023654Y000249D01*
X023649Y000252D01*
X023643Y000257D01*
X023634Y000265D01*
X023624Y000276D01*
X023614Y000289D01*
X023602Y000305D01*
X023591Y000324D01*
X023631Y000349D01*
X023632Y000348D01*
X023633Y000346D01*
X023635Y000342D01*
X023638Y000337D01*
X023643Y000331D01*
X023647Y000324D01*
X023653Y000317D01*
X023660Y000310D01*
X023673Y000295D01*
X023682Y000289D01*
X023690Y000283D01*
X023700Y000278D01*
X023709Y000274D01*
X023719Y000271D01*
X023730Y000270D01*
X023734D01*
X023738Y000271D01*
X023744Y000272D01*
X023751Y000273D01*
X023759Y000275D01*
X023766Y000278D01*
X023774Y000281D01*
X023775Y000282D01*
X023778Y000284D01*
X023781Y000286D01*
X023786Y000289D01*
X023791Y000293D01*
X023797Y000298D01*
X023802Y000304D01*
X023806Y000311D01*
X023807Y000311D01*
X023808Y000314D01*
X023810Y000318D01*
X023812Y000323D01*
X023814Y000329D01*
X023816Y000335D01*
X023817Y000343D01*
X023818Y000351D01*
Y000352D01*
Y000355D01*
X023817Y000359D01*
X023816Y000365D01*
X023813Y000373D01*
X023810Y000381D01*
X023807Y000389D01*
X023801Y000397D01*
Y000398D01*
X023800Y000399D01*
X023797Y000403D01*
X023791Y000410D01*
X023783Y000419D01*
X023778Y000424D01*
X023772Y000430D01*
X023765Y000437D01*
X023758Y000443D01*
X023749Y000451D01*
X023740Y000458D01*
X023731Y000466D01*
X023720Y000474D01*
X023719Y000475D01*
X023717Y000476D01*
X023714Y000478D01*
X023711Y000481D01*
X023705Y000485D01*
X023700Y000489D01*
X023689Y000499D01*
X023676Y000510D01*
X023663Y000520D01*
X023658Y000525D01*
X023653Y000530D01*
X023649Y000534D01*
X023646Y000539D01*
Y000539D01*
X023645Y000540D01*
X023642Y000545D01*
X023638Y000551D01*
X023633Y000561D01*
X023629Y000571D01*
X023625Y000583D01*
X023622Y000597D01*
X023621Y000611D01*
Y000612D01*
Y000616D01*
X023622Y000622D01*
X023623Y000629D01*
X023625Y000638D01*
X023627Y000647D01*
X023630Y000658D01*
X023635Y000667D01*
X023636Y000669D01*
X023638Y000671D01*
X023641Y000676D01*
X023646Y000682D01*
X023652Y000688D01*
X023660Y000695D01*
X023668Y000701D01*
X023677Y000707D01*
X023679Y000708D01*
X023682Y000709D01*
X023687Y000712D01*
X023695Y000715D01*
X023703Y000717D01*
X023713Y000720D01*
X023724Y000722D01*
X023736Y000722D01*
X023742D01*
X023748Y000722D01*
D02*
G37*
G36*
X004126Y002612D02*
X004131D01*
X004143Y002611D01*
X004155Y002609D01*
X004168Y002608D01*
X004180Y002605D01*
X004186Y002603D01*
X004191Y002602D01*
X004191D01*
X004192Y002601D01*
X004195Y002600D01*
X004200Y002597D01*
X004206Y002594D01*
X004213Y002589D01*
X004220Y002582D01*
X004226Y002574D01*
X004233Y002566D01*
Y002565D01*
X004234Y002565D01*
X004236Y002561D01*
X004238Y002556D01*
X004241Y002549D01*
X004244Y002541D01*
X004247Y002531D01*
X004248Y002520D01*
X004249Y002509D01*
Y002508D01*
Y002507D01*
Y002505D01*
X004248Y002502D01*
Y002499D01*
X004248Y002495D01*
X004246Y002485D01*
X004242Y002474D01*
X004238Y002463D01*
X004231Y002452D01*
X004227Y002446D01*
X004223Y002441D01*
X004222Y002440D01*
X004221Y002440D01*
X004220Y002438D01*
X004218Y002436D01*
X004215Y002434D01*
X004212Y002432D01*
X004207Y002429D01*
X004203Y002426D01*
X004197Y002423D01*
X004191Y002420D01*
X004185Y002417D01*
X004178Y002414D01*
X004170Y002412D01*
X004161Y002410D01*
X004152Y002408D01*
X004142Y002406D01*
X004143Y002406D01*
X004146Y002405D01*
X004149Y002402D01*
X004153Y002400D01*
X004163Y002394D01*
X004168Y002390D01*
X004172Y002387D01*
X004173Y002386D01*
X004176Y002383D01*
X004181Y002379D01*
X004186Y002373D01*
X004192Y002366D01*
X004199Y002358D01*
X004206Y002348D01*
X004214Y002337D01*
X004279Y002234D01*
X004217D01*
X004167Y002313D01*
Y002313D01*
X004166Y002315D01*
X004165Y002316D01*
X004163Y002318D01*
X004159Y002324D01*
X004154Y002332D01*
X004148Y002340D01*
X004142Y002349D01*
X004136Y002357D01*
X004131Y002365D01*
X004130Y002365D01*
X004129Y002367D01*
X004126Y002371D01*
X004122Y002375D01*
X004114Y002383D01*
X004110Y002387D01*
X004105Y002390D01*
X004105Y002390D01*
X004104Y002391D01*
X004101Y002392D01*
X004098Y002394D01*
X004095Y002395D01*
X004091Y002397D01*
X004082Y002400D01*
X004082D01*
X004081Y002400D01*
X004078D01*
X004076Y002401D01*
X004072Y002401D01*
X004068D01*
X004062Y002402D01*
X003997D01*
Y002234D01*
X003947D01*
Y002612D01*
X004122D01*
X004126Y002612D01*
D02*
G37*
G36*
X005588Y002613D02*
X005592Y002613D01*
X005598Y002612D01*
X005604Y002611D01*
X005610Y002610D01*
X005624Y002606D01*
X005638Y002601D01*
X005645Y002597D01*
X005653Y002594D01*
X005659Y002589D01*
X005665Y002583D01*
X005666Y002583D01*
X005667Y002582D01*
X005668Y002580D01*
X005670Y002578D01*
X005673Y002575D01*
X005675Y002571D01*
X005678Y002567D01*
X005681Y002562D01*
X005687Y002552D01*
X005692Y002539D01*
X005695Y002532D01*
X005696Y002525D01*
X005697Y002517D01*
X005697Y002509D01*
Y002508D01*
Y002505D01*
X005697Y002501D01*
X005696Y002495D01*
X005695Y002488D01*
X005693Y002481D01*
X005691Y002472D01*
X005688Y002464D01*
X005687Y002463D01*
X005686Y002460D01*
X005684Y002456D01*
X005680Y002450D01*
X005676Y002443D01*
X005671Y002435D01*
X005664Y002427D01*
X005656Y002418D01*
X005655Y002417D01*
X005653Y002413D01*
X005650Y002411D01*
X005647Y002408D01*
X005644Y002405D01*
X005639Y002400D01*
X005635Y002396D01*
X005630Y002391D01*
X005624Y002385D01*
X005618Y002379D01*
X005611Y002373D01*
X005603Y002366D01*
X005594Y002359D01*
X005585Y002352D01*
X005585Y002351D01*
X005584Y002350D01*
X005582Y002348D01*
X005579Y002346D01*
X005576Y002343D01*
X005572Y002340D01*
X005563Y002333D01*
X005554Y002324D01*
X005545Y002316D01*
X005537Y002309D01*
X005534Y002306D01*
X005531Y002304D01*
X005531Y002303D01*
X005529Y002301D01*
X005527Y002299D01*
X005524Y002296D01*
X005522Y002292D01*
X005518Y002288D01*
X005512Y002279D01*
X005698D01*
Y002234D01*
X005447D01*
Y002235D01*
Y002237D01*
Y002240D01*
X005448Y002245D01*
X005448Y002250D01*
X005449Y002255D01*
X005451Y002260D01*
X005453Y002266D01*
Y002267D01*
X005453Y002268D01*
X005454Y002271D01*
X005457Y002276D01*
X005460Y002282D01*
X005464Y002290D01*
X005470Y002299D01*
X005476Y002307D01*
X005483Y002317D01*
Y002317D01*
X005484Y002318D01*
X005487Y002321D01*
X005492Y002326D01*
X005499Y002333D01*
X005507Y002341D01*
X005518Y002351D01*
X005530Y002362D01*
X005544Y002373D01*
X005544Y002374D01*
X005547Y002376D01*
X005550Y002378D01*
X005554Y002382D01*
X005559Y002386D01*
X005565Y002391D01*
X005571Y002396D01*
X005578Y002402D01*
X005591Y002416D01*
X005605Y002429D01*
X005612Y002435D01*
X005618Y002442D01*
X005623Y002448D01*
X005627Y002454D01*
Y002454D01*
X005629Y002455D01*
X005630Y002456D01*
X005631Y002459D01*
X005635Y002465D01*
X005639Y002472D01*
X005643Y002481D01*
X005647Y002490D01*
X005649Y002500D01*
X005650Y002510D01*
Y002511D01*
Y002511D01*
X005649Y002514D01*
X005649Y002520D01*
X005647Y002526D01*
X005645Y002533D01*
X005641Y002541D01*
X005636Y002549D01*
X005630Y002556D01*
X005629Y002557D01*
X005626Y002560D01*
X005622Y002562D01*
X005616Y002566D01*
X005608Y002569D01*
X005600Y002573D01*
X005589Y002575D01*
X005578Y002576D01*
X005574D01*
X005572Y002575D01*
X005566Y002574D01*
X005558Y002573D01*
X005550Y002571D01*
X005541Y002567D01*
X005532Y002562D01*
X005524Y002555D01*
X005523Y002554D01*
X005520Y002551D01*
X005517Y002547D01*
X005514Y002541D01*
X005510Y002533D01*
X005507Y002523D01*
X005505Y002512D01*
X005504Y002500D01*
X005456Y002505D01*
Y002505D01*
X005457Y002507D01*
Y002509D01*
X005457Y002513D01*
X005458Y002518D01*
X005459Y002523D01*
X005461Y002529D01*
X005463Y002535D01*
X005467Y002548D01*
X005473Y002561D01*
X005477Y002567D01*
X005482Y002574D01*
X005487Y002580D01*
X005493Y002585D01*
X005493Y002586D01*
X005494Y002586D01*
X005496Y002588D01*
X005499Y002590D01*
X005502Y002592D01*
X005506Y002594D01*
X005510Y002597D01*
X005516Y002600D01*
X005522Y002602D01*
X005528Y002605D01*
X005535Y002607D01*
X005543Y002609D01*
X005551Y002611D01*
X005560Y002613D01*
X005569Y002613D01*
X005579Y002614D01*
X005584D01*
X005588Y002613D01*
D02*
G37*
G36*
X005386Y002234D02*
X005333D01*
Y002287D01*
X005386D01*
Y002234D01*
D02*
G37*
G36*
X021269Y008327D02*
X021272Y008326D01*
X021276Y008326D01*
X021280Y008326D01*
X021285Y008325D01*
X021295Y008322D01*
X021306Y008319D01*
X021311Y008317D01*
X021316Y008314D01*
X021321Y008311D01*
X021326Y008308D01*
X021327Y008307D01*
X021327Y008307D01*
X021329Y008306D01*
X021331Y008304D01*
X021332Y008302D01*
X021335Y008300D01*
X021338Y008297D01*
X021341Y008294D01*
X021343Y008290D01*
X021346Y008286D01*
X021350Y008282D01*
X021353Y008277D01*
X021355Y008271D01*
X021358Y008266D01*
X021360Y008260D01*
X021362Y008254D01*
X021330Y008246D01*
Y008246D01*
X021329Y008247D01*
X021328Y008249D01*
X021328Y008250D01*
X021327Y008253D01*
X021326Y008255D01*
X021323Y008261D01*
X021319Y008268D01*
X021315Y008274D01*
X021310Y008281D01*
X021304Y008286D01*
X021303Y008287D01*
X021301Y008288D01*
X021297Y008290D01*
X021292Y008293D01*
X021286Y008295D01*
X021279Y008297D01*
X021271Y008298D01*
X021262Y008299D01*
X021259D01*
X021257Y008298D01*
X021255D01*
X021252Y008298D01*
X021245Y008297D01*
X021237Y008295D01*
X021229Y008293D01*
X021221Y008289D01*
X021213Y008285D01*
X021213D01*
X021212Y008284D01*
X021210Y008282D01*
X021207Y008279D01*
X021203Y008275D01*
X021198Y008269D01*
X021193Y008263D01*
X021189Y008255D01*
X021186Y008247D01*
Y008247D01*
X021185Y008246D01*
X021185Y008245D01*
X021185Y008243D01*
X021184Y008241D01*
X021183Y008238D01*
X021182Y008232D01*
X021181Y008225D01*
X021179Y008217D01*
X021179Y008208D01*
X021178Y008199D01*
Y008198D01*
Y008197D01*
Y008195D01*
Y008193D01*
X021179Y008191D01*
Y008187D01*
X021179Y008184D01*
X021179Y008180D01*
X021180Y008171D01*
X021182Y008162D01*
X021184Y008152D01*
X021187Y008143D01*
Y008142D01*
X021188Y008141D01*
X021188Y008140D01*
X021189Y008139D01*
X021191Y008134D01*
X021195Y008129D01*
X021199Y008123D01*
X021204Y008117D01*
X021209Y008112D01*
X021216Y008107D01*
X021217D01*
X021217Y008106D01*
X021219Y008105D01*
X021220Y008105D01*
X021222Y008104D01*
X021224Y008103D01*
X021229Y008101D01*
X021236Y008099D01*
X021243Y008097D01*
X021251Y008095D01*
X021259Y008095D01*
X021262D01*
X021264Y008095D01*
X021267D01*
X021269Y008096D01*
X021276Y008097D01*
X021283Y008099D01*
X021291Y008102D01*
X021299Y008106D01*
X021303Y008108D01*
X021307Y008111D01*
X021307Y008111D01*
X021307Y008112D01*
X021308Y008113D01*
X021310Y008114D01*
X021311Y008116D01*
X021313Y008118D01*
X021315Y008120D01*
X021317Y008123D01*
X021319Y008126D01*
X021322Y008130D01*
X021324Y008133D01*
X021326Y008138D01*
X021328Y008143D01*
X021330Y008148D01*
X021332Y008153D01*
X021333Y008159D01*
X021367Y008151D01*
Y008150D01*
X021366Y008149D01*
X021366Y008147D01*
X021365Y008144D01*
X021363Y008140D01*
X021362Y008136D01*
X021360Y008132D01*
X021358Y008127D01*
X021353Y008117D01*
X021346Y008107D01*
X021342Y008102D01*
X021338Y008097D01*
X021334Y008092D01*
X021329Y008088D01*
X021328Y008088D01*
X021328Y008087D01*
X021326Y008086D01*
X021324Y008085D01*
X021321Y008083D01*
X021318Y008081D01*
X021314Y008079D01*
X021310Y008077D01*
X021306Y008075D01*
X021300Y008073D01*
X021295Y008072D01*
X021289Y008070D01*
X021283Y008068D01*
X021276Y008068D01*
X021270Y008067D01*
X021262Y008066D01*
X021258D01*
X021255Y008067D01*
X021252D01*
X021248Y008067D01*
X021244Y008068D01*
X021239Y008069D01*
X021228Y008070D01*
X021217Y008073D01*
X021206Y008077D01*
X021201Y008080D01*
X021196Y008083D01*
X021196Y008083D01*
X021195Y008084D01*
X021193Y008085D01*
X021192Y008086D01*
X021190Y008088D01*
X021187Y008090D01*
X021184Y008092D01*
X021181Y008095D01*
X021179Y008099D01*
X021175Y008102D01*
X021169Y008110D01*
X021163Y008120D01*
X021157Y008131D01*
Y008131D01*
X021156Y008132D01*
X021156Y008134D01*
X021155Y008136D01*
X021154Y008139D01*
X021153Y008143D01*
X021152Y008147D01*
X021151Y008151D01*
X021149Y008156D01*
X021148Y008162D01*
X021146Y008173D01*
X021145Y008186D01*
X021144Y008199D01*
Y008199D01*
Y008200D01*
Y008203D01*
X021144Y008205D01*
Y008209D01*
X021145Y008212D01*
X021145Y008217D01*
X021146Y008222D01*
X021148Y008232D01*
X021150Y008244D01*
X021154Y008256D01*
X021159Y008267D01*
X021159Y008267D01*
X021160Y008269D01*
X021160Y008270D01*
X021162Y008272D01*
X021163Y008274D01*
X021165Y008277D01*
X021170Y008284D01*
X021176Y008291D01*
X021183Y008298D01*
X021192Y008306D01*
X021201Y008312D01*
X021202Y008312D01*
X021203Y008313D01*
X021204Y008313D01*
X021206Y008314D01*
X021209Y008315D01*
X021212Y008317D01*
X021216Y008318D01*
X021220Y008319D01*
X021224Y008321D01*
X021229Y008322D01*
X021239Y008325D01*
X021251Y008326D01*
X021263Y008327D01*
X021266D01*
X021269Y008327D01*
D02*
G37*
G36*
X013124Y000167D02*
X013092D01*
Y000378D01*
X013019Y000167D01*
X012989D01*
X012916Y000382D01*
Y000167D01*
X012884D01*
Y000419D01*
X012934D01*
X012993Y000240D01*
Y000240D01*
X012994Y000239D01*
X012994Y000238D01*
X012995Y000236D01*
X012996Y000232D01*
X012998Y000227D01*
X013000Y000220D01*
X013002Y000214D01*
X013004Y000208D01*
X013005Y000203D01*
X013006Y000204D01*
X013006Y000206D01*
X013007Y000209D01*
X013009Y000214D01*
X013011Y000219D01*
X013013Y000226D01*
X013016Y000234D01*
X013019Y000244D01*
X013079Y000419D01*
X013124D01*
Y000167D01*
D02*
G37*
G36*
X015476Y000389D02*
X015327D01*
Y000313D01*
X015466D01*
Y000283D01*
X015327D01*
Y000197D01*
X015482D01*
Y000167D01*
X015294D01*
Y000419D01*
X015476D01*
Y000389D01*
D02*
G37*
G36*
X013205Y000167D02*
X013174D01*
Y000350D01*
X013205D01*
Y000167D01*
D02*
G37*
G36*
Y000384D02*
X013174D01*
Y000419D01*
X013205D01*
Y000384D01*
D02*
G37*
G36*
X013332Y000354D02*
X013334D01*
X013337Y000353D01*
X013344Y000352D01*
X013351Y000350D01*
X013359Y000347D01*
X013367Y000344D01*
X013375Y000339D01*
X013375D01*
X013376Y000338D01*
X013378Y000336D01*
X013381Y000333D01*
X013385Y000328D01*
X013389Y000322D01*
X013393Y000315D01*
X013397Y000306D01*
X013399Y000297D01*
X013369Y000292D01*
Y000292D01*
X013369Y000293D01*
X013368Y000295D01*
X013367Y000298D01*
X013365Y000302D01*
X013364Y000306D01*
X013361Y000311D01*
X013357Y000315D01*
X013354Y000319D01*
X013353Y000319D01*
X013352Y000321D01*
X013349Y000322D01*
X013347Y000324D01*
X013342Y000326D01*
X013338Y000327D01*
X013333Y000328D01*
X013328Y000329D01*
X013325D01*
X013324Y000328D01*
X013320Y000328D01*
X013314Y000326D01*
X013308Y000325D01*
X013302Y000322D01*
X013296Y000317D01*
X013293Y000315D01*
X013290Y000312D01*
Y000311D01*
X013289Y000311D01*
X013288Y000310D01*
X013288Y000309D01*
X013286Y000307D01*
X013285Y000305D01*
X013284Y000302D01*
X013282Y000299D01*
X013281Y000295D01*
X013280Y000291D01*
X013278Y000287D01*
X013277Y000282D01*
X013277Y000277D01*
X013276Y000271D01*
X013275Y000265D01*
Y000259D01*
Y000258D01*
Y000257D01*
Y000255D01*
X013276Y000253D01*
Y000250D01*
X013276Y000246D01*
X013277Y000238D01*
X013278Y000230D01*
X013281Y000220D01*
X013284Y000212D01*
X013286Y000208D01*
X013289Y000205D01*
X013290Y000204D01*
X013292Y000203D01*
X013295Y000200D01*
X013299Y000197D01*
X013304Y000194D01*
X013310Y000191D01*
X013318Y000190D01*
X013322Y000189D01*
X013326Y000189D01*
X013326D01*
X013329Y000189D01*
X013332Y000190D01*
X013336Y000190D01*
X013341Y000191D01*
X013346Y000194D01*
X013351Y000196D01*
X013356Y000200D01*
X013357Y000200D01*
X013358Y000202D01*
X013360Y000204D01*
X013363Y000208D01*
X013365Y000213D01*
X013368Y000219D01*
X013370Y000226D01*
X013372Y000234D01*
X013402Y000230D01*
Y000230D01*
X013402Y000229D01*
X013401Y000227D01*
X013401Y000225D01*
X013400Y000222D01*
X013400Y000219D01*
X013397Y000212D01*
X013394Y000204D01*
X013389Y000196D01*
X013383Y000188D01*
X013380Y000184D01*
X013376Y000181D01*
X013376Y000180D01*
X013375Y000180D01*
X013374Y000179D01*
X013373Y000178D01*
X013371Y000177D01*
X013368Y000175D01*
X013365Y000174D01*
X013363Y000172D01*
X013355Y000169D01*
X013347Y000166D01*
X013337Y000164D01*
X013332Y000164D01*
X013326Y000163D01*
X013322D01*
X013320Y000164D01*
X013317Y000164D01*
X013313Y000165D01*
X013309Y000166D01*
X013305Y000166D01*
X013295Y000169D01*
X013290Y000171D01*
X013285Y000174D01*
X013280Y000176D01*
X013275Y000180D01*
X013270Y000183D01*
X013266Y000188D01*
X013266Y000188D01*
X013265Y000189D01*
X013264Y000190D01*
X013262Y000192D01*
X013261Y000195D01*
X013259Y000198D01*
X013257Y000202D01*
X013255Y000206D01*
X013253Y000210D01*
X013251Y000216D01*
X013249Y000221D01*
X013247Y000228D01*
X013246Y000234D01*
X013245Y000242D01*
X013244Y000250D01*
X013243Y000258D01*
Y000258D01*
Y000259D01*
Y000261D01*
Y000263D01*
X013244Y000266D01*
Y000269D01*
X013244Y000272D01*
X013245Y000275D01*
X013246Y000283D01*
X013247Y000292D01*
X013250Y000301D01*
X013253Y000310D01*
Y000310D01*
X013253Y000311D01*
X013254Y000312D01*
X013255Y000313D01*
X013257Y000317D01*
X013260Y000322D01*
X013265Y000327D01*
X013270Y000333D01*
X013276Y000338D01*
X013283Y000343D01*
X013283D01*
X013284Y000343D01*
X013285Y000344D01*
X013286Y000345D01*
X013288Y000345D01*
X013290Y000346D01*
X013296Y000349D01*
X013302Y000350D01*
X013310Y000352D01*
X013318Y000354D01*
X013326Y000354D01*
X013329D01*
X013332Y000354D01*
D02*
G37*
G36*
X015607Y000262D02*
X015674Y000167D01*
X015636D01*
X015598Y000224D01*
X015589Y000237D01*
X015540Y000167D01*
X015503D01*
X015569Y000262D01*
X015508Y000350D01*
X015546D01*
X015575Y000307D01*
X015575Y000306D01*
X015576Y000305D01*
X015577Y000302D01*
X015579Y000300D01*
X015581Y000297D01*
X015583Y000293D01*
X015585Y000290D01*
X015587Y000287D01*
X015588Y000287D01*
X015589Y000289D01*
X015590Y000291D01*
X015592Y000293D01*
X015594Y000297D01*
X015596Y000300D01*
X015601Y000307D01*
X015632Y000350D01*
X015670D01*
X015607Y000262D01*
D02*
G37*
G36*
X016560Y000792D02*
X016659D01*
Y000768D01*
X016533D01*
Y000969D01*
X016560D01*
Y000792D01*
D02*
G37*
G36*
X018915Y000969D02*
X018917D01*
X018923Y000969D01*
X018930Y000968D01*
X018937Y000967D01*
X018943Y000965D01*
X018946Y000964D01*
X018949Y000964D01*
X018949D01*
X018950Y000963D01*
X018951Y000962D01*
X018954Y000961D01*
X018957Y000959D01*
X018961Y000957D01*
X018964Y000953D01*
X018968Y000949D01*
X018971Y000944D01*
Y000944D01*
X018972Y000944D01*
X018973Y000942D01*
X018974Y000939D01*
X018976Y000935D01*
X018977Y000931D01*
X018979Y000926D01*
X018980Y000920D01*
X018980Y000914D01*
Y000914D01*
Y000913D01*
Y000912D01*
X018980Y000911D01*
Y000909D01*
X018979Y000907D01*
X018978Y000902D01*
X018976Y000896D01*
X018974Y000890D01*
X018971Y000884D01*
X018968Y000881D01*
X018966Y000878D01*
X018966Y000877D01*
X018965Y000877D01*
X018964Y000876D01*
X018963Y000875D01*
X018962Y000874D01*
X018960Y000873D01*
X018958Y000872D01*
X018955Y000870D01*
X018952Y000868D01*
X018949Y000867D01*
X018946Y000865D01*
X018942Y000864D01*
X018938Y000863D01*
X018933Y000861D01*
X018928Y000860D01*
X018923Y000859D01*
X018924Y000859D01*
X018925Y000859D01*
X018927Y000857D01*
X018929Y000856D01*
X018934Y000853D01*
X018937Y000851D01*
X018939Y000849D01*
X018940Y000849D01*
X018941Y000847D01*
X018943Y000845D01*
X018946Y000842D01*
X018950Y000838D01*
X018953Y000833D01*
X018957Y000828D01*
X018961Y000822D01*
X018996Y000768D01*
X018963D01*
X018936Y000810D01*
Y000810D01*
X018936Y000810D01*
X018935Y000811D01*
X018934Y000813D01*
X018932Y000816D01*
X018929Y000820D01*
X018926Y000824D01*
X018923Y000829D01*
X018920Y000833D01*
X018917Y000837D01*
X018917Y000838D01*
X018916Y000839D01*
X018914Y000840D01*
X018912Y000843D01*
X018908Y000847D01*
X018906Y000849D01*
X018903Y000851D01*
X018903Y000851D01*
X018902Y000851D01*
X018901Y000852D01*
X018900Y000853D01*
X018898Y000854D01*
X018896Y000854D01*
X018891Y000856D01*
X018891D01*
X018890Y000856D01*
X018889D01*
X018888Y000856D01*
X018886Y000857D01*
X018883D01*
X018880Y000857D01*
X018846D01*
Y000768D01*
X018819D01*
Y000969D01*
X018912D01*
X018915Y000969D01*
D02*
G37*
G36*
X018925Y002065D02*
X018927D01*
X018933Y002064D01*
X018939Y002063D01*
X018945Y002062D01*
X018952Y002060D01*
X018959Y002058D01*
X018959D01*
X018960Y002058D01*
X018961Y002057D01*
X018962Y002057D01*
X018965Y002055D01*
X018969Y002053D01*
X018974Y002050D01*
X018978Y002046D01*
X018983Y002043D01*
X018987Y002038D01*
X018987Y002037D01*
X018989Y002036D01*
X018990Y002033D01*
X018993Y002029D01*
X018995Y002025D01*
X018998Y002019D01*
X019000Y002012D01*
X019002Y002005D01*
X018978Y001999D01*
Y001999D01*
X018978Y001999D01*
X018977Y002000D01*
X018977Y002001D01*
X018976Y002004D01*
X018975Y002007D01*
X018973Y002012D01*
X018971Y002015D01*
X018969Y002019D01*
X018967Y002023D01*
X018966Y002023D01*
X018966Y002024D01*
X018964Y002026D01*
X018962Y002028D01*
X018959Y002030D01*
X018956Y002033D01*
X018952Y002035D01*
X018948Y002037D01*
X018947Y002037D01*
X018945Y002038D01*
X018943Y002039D01*
X018939Y002040D01*
X018935Y002041D01*
X018931Y002042D01*
X018925Y002042D01*
X018920Y002042D01*
X018917D01*
X018915Y002042D01*
X018913D01*
X018909Y002042D01*
X018904Y002041D01*
X018899Y002040D01*
X018893Y002039D01*
X018888Y002037D01*
X018888Y002036D01*
X018886Y002036D01*
X018884Y002034D01*
X018881Y002033D01*
X018877Y002030D01*
X018873Y002028D01*
X018870Y002025D01*
X018867Y002022D01*
X018866Y002022D01*
X018865Y002021D01*
X018864Y002019D01*
X018862Y002016D01*
X018860Y002013D01*
X018858Y002010D01*
X018856Y002006D01*
X018854Y002002D01*
Y002002D01*
X018854Y002001D01*
X018853Y002000D01*
X018853Y001999D01*
X018852Y001997D01*
X018851Y001995D01*
X018851Y001993D01*
X018850Y001990D01*
X018849Y001984D01*
X018847Y001977D01*
X018847Y001970D01*
X018846Y001962D01*
Y001961D01*
Y001960D01*
Y001959D01*
X018847Y001957D01*
Y001955D01*
X018847Y001952D01*
X018847Y001949D01*
X018847Y001946D01*
X018849Y001939D01*
X018850Y001931D01*
X018852Y001923D01*
X018855Y001916D01*
Y001916D01*
X018856Y001915D01*
X018856Y001914D01*
X018857Y001913D01*
X018859Y001910D01*
X018862Y001906D01*
X018866Y001902D01*
X018871Y001897D01*
X018876Y001893D01*
X018882Y001889D01*
X018883D01*
X018883Y001889D01*
X018884Y001888D01*
X018886Y001888D01*
X018887Y001887D01*
X018889Y001887D01*
X018894Y001885D01*
X018900Y001884D01*
X018906Y001882D01*
X018913Y001881D01*
X018920Y001881D01*
X018923D01*
X018925Y001881D01*
X018927D01*
X018931Y001881D01*
X018936Y001882D01*
X018942Y001883D01*
X018948Y001885D01*
X018954Y001887D01*
X018954D01*
X018955Y001887D01*
X018955Y001888D01*
X018957Y001888D01*
X018960Y001890D01*
X018963Y001891D01*
X018967Y001893D01*
X018972Y001896D01*
X018976Y001898D01*
X018979Y001901D01*
Y001939D01*
X018920D01*
Y001963D01*
X019005D01*
Y001888D01*
X019005Y001888D01*
X019005Y001888D01*
X019003Y001887D01*
X019002Y001886D01*
X019000Y001884D01*
X018998Y001883D01*
X018996Y001881D01*
X018993Y001879D01*
X018987Y001876D01*
X018980Y001872D01*
X018973Y001868D01*
X018965Y001865D01*
X018964D01*
X018964Y001864D01*
X018963Y001864D01*
X018961Y001863D01*
X018959Y001863D01*
X018957Y001862D01*
X018954Y001861D01*
X018952Y001861D01*
X018945Y001859D01*
X018938Y001858D01*
X018930Y001857D01*
X018922Y001857D01*
X018919D01*
X018917Y001857D01*
X018914D01*
X018911Y001857D01*
X018908Y001858D01*
X018904Y001858D01*
X018895Y001860D01*
X018886Y001862D01*
X018877Y001865D01*
X018872Y001867D01*
X018868Y001869D01*
X018867Y001870D01*
X018867Y001870D01*
X018865Y001871D01*
X018864Y001872D01*
X018862Y001873D01*
X018860Y001875D01*
X018854Y001879D01*
X018848Y001884D01*
X018842Y001890D01*
X018836Y001897D01*
X018831Y001906D01*
Y001906D01*
X018831Y001907D01*
X018830Y001908D01*
X018829Y001910D01*
X018828Y001912D01*
X018827Y001915D01*
X018826Y001918D01*
X018825Y001922D01*
X018824Y001925D01*
X018823Y001930D01*
X018822Y001934D01*
X018821Y001939D01*
X018819Y001949D01*
X018819Y001960D01*
Y001960D01*
Y001961D01*
Y001963D01*
X018819Y001965D01*
Y001967D01*
X018819Y001971D01*
X018820Y001974D01*
X018820Y001978D01*
X018821Y001982D01*
X018822Y001986D01*
X018824Y001995D01*
X018827Y002005D01*
X018831Y002014D01*
X018831Y002015D01*
X018832Y002016D01*
X018832Y002017D01*
X018833Y002019D01*
X018835Y002021D01*
X018836Y002023D01*
X018840Y002029D01*
X018845Y002035D01*
X018851Y002041D01*
X018858Y002047D01*
X018862Y002050D01*
X018866Y002053D01*
X018867Y002053D01*
X018867Y002053D01*
X018869Y002054D01*
X018870Y002055D01*
X018873Y002056D01*
X018875Y002057D01*
X018878Y002058D01*
X018882Y002059D01*
X018886Y002060D01*
X018890Y002061D01*
X018894Y002062D01*
X018899Y002063D01*
X018909Y002065D01*
X018914Y002065D01*
X018923D01*
X018925Y002065D01*
D02*
G37*
G36*
X015736Y000350D02*
X015767D01*
Y000326D01*
X015736D01*
Y000219D01*
Y000218D01*
Y000216D01*
Y000214D01*
X015737Y000212D01*
X015737Y000206D01*
X015737Y000203D01*
X015738Y000202D01*
X015738Y000201D01*
X015739Y000199D01*
X015741Y000198D01*
X015743Y000196D01*
X015744Y000195D01*
X015746Y000195D01*
X015749Y000194D01*
X015754Y000194D01*
X015757D01*
X015759Y000194D01*
X015762D01*
X015765Y000194D01*
X015767Y000195D01*
X015771Y000167D01*
X015771D01*
X015769Y000167D01*
X015767Y000167D01*
X015763Y000166D01*
X015760Y000166D01*
X015756Y000165D01*
X015748Y000165D01*
X015745D01*
X015742Y000165D01*
X015738Y000166D01*
X015734Y000166D01*
X015730Y000167D01*
X015726Y000168D01*
X015722Y000170D01*
X015721Y000170D01*
X015720Y000171D01*
X015719Y000172D01*
X015717Y000174D01*
X015715Y000176D01*
X015712Y000178D01*
X015710Y000181D01*
X015709Y000184D01*
Y000184D01*
X015708Y000186D01*
X015708Y000188D01*
X015707Y000192D01*
X015706Y000197D01*
X015706Y000200D01*
Y000203D01*
X015706Y000207D01*
X015705Y000211D01*
Y000215D01*
Y000220D01*
Y000326D01*
X015682D01*
Y000350D01*
X015705D01*
Y000395D01*
X015736Y000414D01*
Y000350D01*
D02*
G37*
G36*
X016580Y001864D02*
X016553D01*
X016475Y002065D01*
X016504D01*
X016556Y001919D01*
Y001918D01*
X016556Y001918D01*
X016557Y001917D01*
X016557Y001916D01*
X016557Y001914D01*
X016558Y001912D01*
X016559Y001908D01*
X016561Y001903D01*
X016563Y001897D01*
X016566Y001886D01*
Y001886D01*
X016567Y001887D01*
X016567Y001888D01*
X016567Y001889D01*
X016568Y001892D01*
X016570Y001896D01*
X016571Y001901D01*
X016573Y001907D01*
X016575Y001913D01*
X016577Y001919D01*
X016632Y002065D01*
X016659D01*
X016580Y001864D01*
D02*
G37*
G36*
X016453Y002039D02*
X016372D01*
X016361Y001984D01*
X016362Y001985D01*
X016362Y001985D01*
X016363Y001986D01*
X016365Y001987D01*
X016366Y001987D01*
X016368Y001989D01*
X016373Y001991D01*
X016379Y001993D01*
X016385Y001995D01*
X016392Y001997D01*
X016396Y001997D01*
X016402D01*
X016404Y001997D01*
X016406Y001997D01*
X016409Y001996D01*
X016412Y001996D01*
X016415Y001995D01*
X016422Y001993D01*
X016426Y001991D01*
X016429Y001989D01*
X016433Y001987D01*
X016437Y001985D01*
X016440Y001982D01*
X016444Y001979D01*
X016444Y001979D01*
X016445Y001978D01*
X016446Y001977D01*
X016447Y001976D01*
X016448Y001974D01*
X016450Y001972D01*
X016452Y001969D01*
X016453Y001966D01*
X016455Y001963D01*
X016456Y001959D01*
X016458Y001955D01*
X016459Y001951D01*
X016461Y001947D01*
X016461Y001942D01*
X016462Y001937D01*
X016462Y001932D01*
Y001932D01*
Y001931D01*
Y001929D01*
X016462Y001927D01*
X016462Y001925D01*
X016461Y001922D01*
X016461Y001919D01*
X016460Y001916D01*
X016459Y001908D01*
X016456Y001900D01*
X016454Y001896D01*
X016452Y001893D01*
X016449Y001888D01*
X016446Y001885D01*
X016446Y001884D01*
X016445Y001884D01*
X016444Y001882D01*
X016443Y001881D01*
X016441Y001879D01*
X016438Y001877D01*
X016436Y001875D01*
X016432Y001872D01*
X016429Y001870D01*
X016425Y001868D01*
X016420Y001866D01*
X016416Y001864D01*
X016411Y001863D01*
X016405Y001861D01*
X016399Y001861D01*
X016393Y001860D01*
X016391D01*
X016389Y001861D01*
X016386Y001861D01*
X016384Y001861D01*
X016381Y001861D01*
X016377Y001862D01*
X016370Y001864D01*
X016363Y001867D01*
X016359Y001868D01*
X016355Y001870D01*
X016352Y001873D01*
X016348Y001875D01*
X016348Y001876D01*
X016347Y001876D01*
X016347Y001877D01*
X016346Y001878D01*
X016344Y001880D01*
X016343Y001881D01*
X016341Y001884D01*
X016340Y001886D01*
X016338Y001889D01*
X016336Y001892D01*
X016333Y001899D01*
X016330Y001907D01*
X016329Y001912D01*
X016329Y001916D01*
X016355Y001918D01*
Y001918D01*
Y001918D01*
X016355Y001917D01*
X016355Y001915D01*
X016356Y001912D01*
X016357Y001908D01*
X016359Y001903D01*
X016361Y001898D01*
X016364Y001894D01*
X016368Y001890D01*
X016368Y001890D01*
X016369Y001888D01*
X016372Y001887D01*
X016375Y001885D01*
X016379Y001884D01*
X016383Y001882D01*
X016388Y001881D01*
X016393Y001881D01*
X016395D01*
X016396Y001881D01*
X016400Y001881D01*
X016404Y001882D01*
X016409Y001884D01*
X016414Y001886D01*
X016419Y001890D01*
X016421Y001892D01*
X016424Y001894D01*
X016424Y001894D01*
X016424Y001895D01*
X016425Y001895D01*
X016426Y001896D01*
X016428Y001900D01*
X016430Y001904D01*
X016432Y001909D01*
X016434Y001915D01*
X016436Y001922D01*
X016436Y001926D01*
Y001930D01*
Y001930D01*
Y001931D01*
Y001932D01*
X016436Y001933D01*
Y001935D01*
X016436Y001937D01*
X016435Y001942D01*
X016433Y001947D01*
X016431Y001953D01*
X016428Y001958D01*
X016424Y001963D01*
Y001963D01*
X016424Y001964D01*
X016422Y001965D01*
X016420Y001967D01*
X016416Y001969D01*
X016411Y001971D01*
X016406Y001973D01*
X016400Y001975D01*
X016397Y001975D01*
X016391D01*
X016389Y001975D01*
X016386Y001975D01*
X016382Y001974D01*
X016379Y001973D01*
X016375Y001972D01*
X016371Y001970D01*
X016371Y001970D01*
X016370Y001969D01*
X016368Y001968D01*
X016366Y001966D01*
X016363Y001964D01*
X016361Y001962D01*
X016358Y001959D01*
X016356Y001956D01*
X016333Y001959D01*
X016353Y002062D01*
X016453D01*
Y002039D01*
D02*
G37*
G36*
X020106Y004423D02*
X019908Y004236D01*
X020106D01*
Y004193D01*
X019679D01*
Y004236D01*
X019840D01*
X019679Y004408D01*
Y004464D01*
X019871Y004258D01*
X020106Y004480D01*
Y004423D01*
D02*
G37*
G36*
X019721Y005312D02*
X019855D01*
Y005512D01*
X019897D01*
Y005312D01*
X020064D01*
Y005512D01*
X020106D01*
Y005269D01*
X019679D01*
Y005514D01*
X019721D01*
Y005312D01*
D02*
G37*
G36*
X020064Y005014D02*
Y005183D01*
X020106D01*
Y004948D01*
X019721Y005127D01*
Y004967D01*
X019679D01*
Y005193D01*
X020064Y005014D01*
D02*
G37*
G36*
X020629Y004985D02*
X020244D01*
Y004918D01*
X020202Y004943D01*
Y005027D01*
X020629D01*
Y004985D01*
D02*
G37*
G36*
X020106Y006128D02*
X019679D01*
Y006171D01*
X020106D01*
Y006128D01*
D02*
G37*
G36*
Y006008D02*
X019801Y005966D01*
X020106Y005815D01*
Y005804D01*
X019799Y005651D01*
X020106Y005609D01*
Y005569D01*
X019679Y005629D01*
Y005636D01*
X020030Y005810D01*
X019679Y005982D01*
Y005988D01*
X020106Y006049D01*
Y006008D01*
D02*
G37*
G36*
X020522Y005466D02*
X020531Y005464D01*
X020541Y005462D01*
X020553Y005459D01*
X020564Y005454D01*
X020575Y005448D01*
X020577Y005448D01*
X020580Y005445D01*
X020586Y005441D01*
X020593Y005436D01*
X020600Y005429D01*
X020608Y005421D01*
X020615Y005411D01*
X020623Y005400D01*
Y005399D01*
X020623Y005399D01*
X020624Y005397D01*
X020625Y005395D01*
X020628Y005388D01*
X020631Y005380D01*
X020635Y005370D01*
X020637Y005358D01*
X020639Y005346D01*
X020640Y005332D01*
Y005332D01*
Y005331D01*
Y005329D01*
Y005326D01*
X020639Y005320D01*
X020638Y005311D01*
X020636Y005301D01*
X020633Y005290D01*
X020629Y005279D01*
X020623Y005267D01*
X020623Y005265D01*
X020620Y005262D01*
X020616Y005256D01*
X020611Y005250D01*
X020604Y005243D01*
X020596Y005235D01*
X020587Y005227D01*
X020575Y005220D01*
X020575D01*
X020574Y005220D01*
X020570Y005218D01*
X020564Y005215D01*
X020556Y005212D01*
X020546Y005208D01*
X020535Y005206D01*
X020522Y005204D01*
X020510Y005203D01*
X020505D01*
X020500Y005204D01*
X020493Y005204D01*
X020485Y005206D01*
X020476Y005208D01*
X020465Y005210D01*
X020455Y005214D01*
X020454D01*
X020453Y005214D01*
X020450Y005216D01*
X020444Y005218D01*
X020435Y005222D01*
X020425Y005227D01*
X020413Y005234D01*
X020400Y005242D01*
X020385Y005251D01*
X020192Y005381D01*
X020215Y005416D01*
X020389Y005300D01*
X020389Y005302D01*
X020388Y005304D01*
X020387Y005309D01*
X020385Y005315D01*
X020384Y005321D01*
X020383Y005328D01*
X020381Y005336D01*
Y005344D01*
Y005345D01*
Y005346D01*
Y005349D01*
X020382Y005353D01*
X020383Y005357D01*
X020383Y005362D01*
X020386Y005374D01*
X020390Y005387D01*
X020397Y005402D01*
X020401Y005409D01*
X020406Y005416D01*
X020411Y005424D01*
X020418Y005430D01*
X020419Y005431D01*
X020420Y005431D01*
X020422Y005433D01*
X020425Y005436D01*
X020428Y005439D01*
X020432Y005441D01*
X020438Y005445D01*
X020443Y005448D01*
X020456Y005455D01*
X020472Y005460D01*
X020489Y005465D01*
X020499Y005466D01*
X020509Y005466D01*
X020514D01*
X020522Y005466D01*
D02*
G37*
G36*
X020106Y004871D02*
X019967Y004804D01*
Y004619D01*
X020106Y004554D01*
Y004506D01*
X019679Y004708D01*
Y004718D01*
X020106Y004917D01*
Y004871D01*
D02*
G37*
G36*
X019480Y004447D02*
X019485Y004447D01*
X019490Y004446D01*
X019502Y004444D01*
X019515Y004439D01*
X019522Y004436D01*
X019530Y004432D01*
X019537Y004428D01*
X019545Y004423D01*
X019552Y004417D01*
X019558Y004410D01*
X019559Y004409D01*
X019560Y004408D01*
X019562Y004406D01*
X019564Y004403D01*
X019566Y004400D01*
X019570Y004395D01*
X019573Y004390D01*
X019576Y004384D01*
X019579Y004377D01*
X019583Y004369D01*
X019585Y004361D01*
X019589Y004352D01*
X019591Y004342D01*
X019593Y004332D01*
X019593Y004321D01*
X019594Y004310D01*
Y004193D01*
X019167D01*
Y004276D01*
Y004277D01*
Y004278D01*
Y004281D01*
Y004285D01*
X019167Y004289D01*
Y004294D01*
X019168Y004305D01*
X019170Y004318D01*
X019172Y004331D01*
X019175Y004343D01*
X019179Y004354D01*
X019180Y004356D01*
X019181Y004359D01*
X019184Y004363D01*
X019188Y004370D01*
X019194Y004377D01*
X019200Y004384D01*
X019207Y004390D01*
X019216Y004397D01*
X019217Y004398D01*
X019221Y004400D01*
X019225Y004402D01*
X019232Y004405D01*
X019240Y004408D01*
X019250Y004411D01*
X019261Y004413D01*
X019272Y004413D01*
X019276D01*
X019282Y004413D01*
X019289Y004411D01*
X019297Y004410D01*
X019305Y004407D01*
X019314Y004403D01*
X019324Y004399D01*
X019325Y004398D01*
X019328Y004396D01*
X019331Y004393D01*
X019337Y004389D01*
X019343Y004383D01*
X019349Y004376D01*
X019355Y004368D01*
X019361Y004359D01*
Y004360D01*
X019362Y004360D01*
X019363Y004364D01*
X019366Y004370D01*
X019368Y004377D01*
X019372Y004386D01*
X019377Y004394D01*
X019382Y004402D01*
X019388Y004409D01*
X019389Y004410D01*
X019390Y004413D01*
X019394Y004416D01*
X019398Y004420D01*
X019404Y004424D01*
X019410Y004429D01*
X019417Y004434D01*
X019425Y004438D01*
X019425Y004438D01*
X019429Y004440D01*
X019432Y004441D01*
X019438Y004443D01*
X019446Y004445D01*
X019453Y004447D01*
X019463Y004447D01*
X019472Y004448D01*
X019477D01*
X019480Y004447D01*
D02*
G37*
G36*
X020629Y004193D02*
X020453Y004356D01*
X020453Y004356D01*
X020451Y004358D01*
X020448Y004360D01*
X020445Y004363D01*
X020440Y004367D01*
X020435Y004372D01*
X020424Y004383D01*
X020411Y004394D01*
X020398Y004404D01*
X020385Y004413D01*
X020380Y004417D01*
X020375Y004421D01*
X020373Y004421D01*
X020370Y004423D01*
X020365Y004425D01*
X020358Y004428D01*
X020350Y004431D01*
X020341Y004433D01*
X020331Y004435D01*
X020320Y004436D01*
X020317D01*
X020314Y004435D01*
X020307Y004434D01*
X020299Y004432D01*
X020289Y004429D01*
X020279Y004424D01*
X020268Y004417D01*
X020258Y004408D01*
X020257Y004407D01*
X020254Y004403D01*
X020249Y004398D01*
X020245Y004390D01*
X020240Y004381D01*
X020236Y004369D01*
X020233Y004356D01*
X020232Y004342D01*
Y004342D01*
Y004341D01*
Y004339D01*
X020232Y004336D01*
X020233Y004328D01*
X020235Y004318D01*
X020238Y004308D01*
X020244Y004296D01*
X020250Y004285D01*
X020259Y004274D01*
X020261Y004272D01*
X020265Y004270D01*
X020270Y004265D01*
X020279Y004260D01*
X020289Y004255D01*
X020303Y004249D01*
X020318Y004245D01*
X020335Y004243D01*
Y004203D01*
X020333D01*
X020329Y004203D01*
X020325D01*
X020320Y004204D01*
X020314Y004205D01*
X020307Y004207D01*
X020299Y004209D01*
X020283Y004214D01*
X020274Y004217D01*
X020266Y004221D01*
X020257Y004226D01*
X020249Y004231D01*
X020240Y004238D01*
X020232Y004245D01*
X020232Y004245D01*
X020230Y004247D01*
X020228Y004249D01*
X020226Y004252D01*
X020223Y004256D01*
X020219Y004260D01*
X020216Y004266D01*
X020212Y004272D01*
X020208Y004280D01*
X020205Y004287D01*
X020198Y004304D01*
X020196Y004314D01*
X020194Y004323D01*
X020192Y004333D01*
X020192Y004344D01*
Y004345D01*
Y004347D01*
Y004350D01*
X020192Y004354D01*
X020193Y004360D01*
X020194Y004365D01*
X020195Y004371D01*
X020196Y004379D01*
X020201Y004394D01*
X020204Y004402D01*
X020207Y004410D01*
X020212Y004418D01*
X020217Y004426D01*
X020223Y004433D01*
X020230Y004440D01*
X020230Y004441D01*
X020232Y004442D01*
X020234Y004444D01*
X020236Y004446D01*
X020240Y004449D01*
X020244Y004452D01*
X020249Y004455D01*
X020255Y004459D01*
X020268Y004465D01*
X020284Y004471D01*
X020301Y004476D01*
X020310Y004476D01*
X020320Y004477D01*
X020326D01*
X020333Y004476D01*
X020342Y004475D01*
X020352Y004472D01*
X020364Y004470D01*
X020375Y004465D01*
X020388Y004459D01*
X020389D01*
X020389Y004459D01*
X020391Y004457D01*
X020394Y004456D01*
X020397Y004453D01*
X020401Y004451D01*
X020405Y004448D01*
X020410Y004444D01*
X020423Y004435D01*
X020430Y004430D01*
X020437Y004423D01*
X020446Y004417D01*
X020455Y004409D01*
X020464Y004401D01*
X020474Y004392D01*
X020589Y004285D01*
Y004483D01*
X020629D01*
Y004193D01*
D02*
G37*
G36*
X019594Y005178D02*
X019271Y004896D01*
X019594D01*
Y004852D01*
X019167D01*
Y004861D01*
X019493Y005145D01*
X019167D01*
Y005187D01*
X019594D01*
Y005178D01*
D02*
G37*
G36*
X019209Y004576D02*
X019343D01*
Y004776D01*
X019385D01*
Y004576D01*
X019552D01*
Y004776D01*
X019594D01*
Y004533D01*
X019167D01*
Y004778D01*
X019209D01*
Y004576D01*
D02*
G37*
G36*
X020436Y004814D02*
X020444Y004813D01*
X020453D01*
X020463Y004812D01*
X020483Y004810D01*
X020505Y004806D01*
X020526Y004802D01*
X020535Y004798D01*
X020545Y004795D01*
X020545D01*
X020547Y004794D01*
X020549Y004793D01*
X020553Y004792D01*
X020556Y004790D01*
X020561Y004787D01*
X020572Y004781D01*
X020583Y004774D01*
X020594Y004765D01*
X020606Y004754D01*
X020616Y004742D01*
Y004741D01*
X020617Y004741D01*
X020618Y004739D01*
X020620Y004736D01*
X020623Y004729D01*
X020628Y004720D01*
X020633Y004709D01*
X020636Y004696D01*
X020638Y004682D01*
X020640Y004667D01*
Y004666D01*
Y004665D01*
Y004663D01*
X020639Y004660D01*
Y004656D01*
X020638Y004652D01*
X020637Y004642D01*
X020634Y004630D01*
X020630Y004619D01*
X020625Y004606D01*
X020617Y004593D01*
Y004592D01*
X020615Y004592D01*
X020612Y004588D01*
X020607Y004582D01*
X020599Y004575D01*
X020589Y004566D01*
X020577Y004558D01*
X020563Y004549D01*
X020547Y004542D01*
X020546D01*
X020545Y004541D01*
X020542Y004540D01*
X020538Y004539D01*
X020533Y004538D01*
X020528Y004536D01*
X020520Y004535D01*
X020512Y004533D01*
X020504Y004531D01*
X020494Y004529D01*
X020484Y004528D01*
X020472Y004526D01*
X020459Y004526D01*
X020446Y004524D01*
X020431Y004524D01*
X020402D01*
X020395Y004524D01*
X020387D01*
X020378Y004525D01*
X020368Y004526D01*
X020347Y004528D01*
X020326Y004531D01*
X020305Y004535D01*
X020295Y004538D01*
X020286Y004541D01*
X020286D01*
X020284Y004542D01*
X020282Y004543D01*
X020278Y004545D01*
X020274Y004547D01*
X020270Y004549D01*
X020260Y004554D01*
X020249Y004562D01*
X020237Y004571D01*
X020226Y004581D01*
X020216Y004592D01*
Y004593D01*
X020215Y004594D01*
X020214Y004596D01*
X020212Y004598D01*
X020208Y004605D01*
X020204Y004614D01*
X020200Y004625D01*
X020196Y004638D01*
X020193Y004651D01*
X020192Y004667D01*
Y004667D01*
Y004669D01*
Y004670D01*
X020192Y004674D01*
Y004677D01*
X020193Y004682D01*
X020195Y004691D01*
X020198Y004703D01*
X020202Y004716D01*
X020208Y004728D01*
X020216Y004741D01*
Y004742D01*
X020217Y004743D01*
X020219Y004745D01*
X020221Y004747D01*
X020226Y004753D01*
X020234Y004761D01*
X020244Y004770D01*
X020256Y004779D01*
X020270Y004787D01*
X020287Y004795D01*
X020288D01*
X020289Y004796D01*
X020293Y004797D01*
X020296Y004798D01*
X020301Y004800D01*
X020307Y004802D01*
X020314Y004803D01*
X020322Y004805D01*
X020330Y004807D01*
X020340Y004809D01*
X020350Y004810D01*
X020362Y004812D01*
X020374Y004813D01*
X020387Y004814D01*
X020401Y004815D01*
X020429D01*
X020436Y004814D01*
D02*
G37*
G36*
X024241Y008850D02*
X024365D01*
Y008820D01*
X024207D01*
Y009072D01*
X024241D01*
Y008850D01*
D02*
G37*
G36*
X024512Y007890D02*
X024486D01*
Y008058D01*
X024428Y007890D01*
X024404D01*
X024346Y008061D01*
Y007890D01*
X024320D01*
Y008091D01*
X024360D01*
X024408Y007948D01*
Y007948D01*
X024408Y007948D01*
X024408Y007947D01*
X024409Y007945D01*
X024410Y007942D01*
X024411Y007937D01*
X024413Y007932D01*
X024415Y007928D01*
X024416Y007923D01*
X024417Y007919D01*
X024417Y007919D01*
X024418Y007921D01*
X024419Y007923D01*
X024420Y007927D01*
X024421Y007932D01*
X024423Y007937D01*
X024425Y007944D01*
X024428Y007951D01*
X024476Y008091D01*
X024512D01*
Y007890D01*
D02*
G37*
G36*
X024501Y008970D02*
X024611Y008820D01*
X024567D01*
X024478Y008947D01*
X024436Y008907D01*
Y008820D01*
X024403D01*
Y009072D01*
X024436D01*
Y008947D01*
X024561Y009072D01*
X024606D01*
X024501Y008970D01*
D02*
G37*
G36*
X023900Y008820D02*
X023868D01*
Y009031D01*
X023795Y008820D01*
X023765D01*
X023692Y009034D01*
Y008820D01*
X023660D01*
Y009072D01*
X023710D01*
X023770Y008893D01*
Y008893D01*
X023770Y008892D01*
X023770Y008891D01*
X023771Y008889D01*
X023772Y008885D01*
X023774Y008879D01*
X023776Y008873D01*
X023778Y008867D01*
X023780Y008861D01*
X023782Y008856D01*
X023782Y008857D01*
X023782Y008859D01*
X023783Y008862D01*
X023785Y008866D01*
X023787Y008872D01*
X023789Y008879D01*
X023792Y008887D01*
X023795Y008896D01*
X023855Y009072D01*
X023900D01*
Y008820D01*
D02*
G37*
G36*
X024841Y007890D02*
X024817D01*
Y008047D01*
X024816Y008047D01*
X024815Y008046D01*
X024813Y008044D01*
X024810Y008042D01*
X024807Y008040D01*
X024803Y008037D01*
X024798Y008033D01*
X024793Y008030D01*
X024793D01*
X024793Y008030D01*
X024791Y008029D01*
X024788Y008027D01*
X024784Y008026D01*
X024780Y008024D01*
X024776Y008022D01*
X024772Y008019D01*
X024767Y008018D01*
Y008042D01*
X024768D01*
X024768Y008042D01*
X024769Y008042D01*
X024771Y008043D01*
X024773Y008044D01*
X024775Y008045D01*
X024779Y008048D01*
X024785Y008051D01*
X024791Y008056D01*
X024797Y008060D01*
X024803Y008065D01*
X024804Y008065D01*
X024804Y008066D01*
X024805Y008067D01*
X024806Y008068D01*
X024809Y008070D01*
X024812Y008074D01*
X024816Y008078D01*
X024819Y008083D01*
X024823Y008087D01*
X024825Y008092D01*
X024841D01*
Y007890D01*
D02*
G37*
G36*
X024638Y007261D02*
X024644Y007261D01*
X024650Y007260D01*
X024656Y007259D01*
X024660Y007258D01*
X024661D01*
X024661Y007258D01*
X024662D01*
X024663Y007258D01*
X024667Y007257D01*
X024671Y007255D01*
X024675Y007253D01*
X024680Y007251D01*
X024685Y007248D01*
X024690Y007244D01*
X024690Y007244D01*
X024690Y007243D01*
X024691Y007242D01*
X024692Y007242D01*
X024695Y007239D01*
X024699Y007235D01*
X024703Y007230D01*
X024707Y007224D01*
X024711Y007217D01*
X024714Y007210D01*
Y007209D01*
X024714Y007209D01*
X024715Y007208D01*
X024715Y007206D01*
X024716Y007204D01*
X024716Y007201D01*
X024717Y007199D01*
X024718Y007196D01*
X024719Y007192D01*
X024719Y007189D01*
X024721Y007180D01*
X024722Y007171D01*
X024722Y007162D01*
Y007161D01*
Y007161D01*
Y007159D01*
Y007158D01*
X024722Y007156D01*
Y007153D01*
X024721Y007148D01*
X024720Y007141D01*
X024720Y007135D01*
X024718Y007128D01*
X024716Y007121D01*
Y007121D01*
X024716Y007120D01*
X024716Y007119D01*
X024715Y007118D01*
X024714Y007115D01*
X024713Y007111D01*
X024711Y007106D01*
X024708Y007101D01*
X024706Y007096D01*
X024703Y007092D01*
X024702Y007091D01*
X024701Y007090D01*
X024699Y007088D01*
X024697Y007085D01*
X024695Y007082D01*
X024691Y007079D01*
X024688Y007076D01*
X024684Y007073D01*
X024684Y007073D01*
X024683Y007072D01*
X024681Y007071D01*
X024678Y007070D01*
X024674Y007068D01*
X024670Y007066D01*
X024665Y007065D01*
X024660Y007063D01*
X024660D01*
X024659Y007063D01*
X024658Y007063D01*
X024655Y007062D01*
X024651Y007062D01*
X024646Y007061D01*
X024641Y007061D01*
X024635Y007060D01*
X024628Y007060D01*
X024555D01*
Y007261D01*
X024633D01*
X024638Y007261D01*
D02*
G37*
G36*
X024820Y007262D02*
X024824Y007261D01*
X024828Y007261D01*
X024833Y007259D01*
X024838Y007258D01*
X024842Y007256D01*
X024843D01*
X024843Y007255D01*
X024844Y007254D01*
X024847Y007253D01*
X024850Y007251D01*
X024853Y007248D01*
X024856Y007245D01*
X024860Y007241D01*
X024863Y007237D01*
X024863Y007236D01*
X024864Y007235D01*
X024865Y007232D01*
X024867Y007228D01*
X024869Y007224D01*
X024871Y007219D01*
X024873Y007213D01*
X024875Y007207D01*
Y007206D01*
X024876Y007206D01*
X024876Y007205D01*
X024876Y007203D01*
X024876Y007202D01*
X024877Y007200D01*
X024877Y007197D01*
X024878Y007194D01*
X024878Y007191D01*
X024878Y007187D01*
X024879Y007183D01*
X024879Y007179D01*
X024880Y007175D01*
Y007170D01*
X024880Y007165D01*
Y007159D01*
Y007159D01*
Y007158D01*
Y007156D01*
Y007153D01*
X024880Y007150D01*
Y007147D01*
X024879Y007143D01*
X024879Y007139D01*
X024878Y007130D01*
X024877Y007120D01*
X024875Y007111D01*
X024874Y007106D01*
X024872Y007102D01*
Y007102D01*
X024872Y007101D01*
X024871Y007100D01*
X024871Y007098D01*
X024870Y007096D01*
X024869Y007094D01*
X024867Y007089D01*
X024864Y007084D01*
X024860Y007078D01*
X024856Y007073D01*
X024850Y007068D01*
X024850D01*
X024850Y007068D01*
X024849Y007067D01*
X024848Y007066D01*
X024846Y007066D01*
X024845Y007064D01*
X024841Y007062D01*
X024835Y007060D01*
X024829Y007058D01*
X024822Y007057D01*
X024814Y007057D01*
X024811D01*
X024809Y007057D01*
X024807Y007057D01*
X024804Y007058D01*
X024801Y007058D01*
X024797Y007059D01*
X024794Y007060D01*
X024790Y007061D01*
X024786Y007063D01*
X024782Y007065D01*
X024779Y007068D01*
X024775Y007070D01*
X024771Y007074D01*
X024768Y007077D01*
X024768Y007077D01*
X024767Y007078D01*
X024766Y007080D01*
X024765Y007082D01*
X024763Y007085D01*
X024762Y007088D01*
X024760Y007092D01*
X024758Y007097D01*
X024757Y007102D01*
X024755Y007108D01*
X024753Y007115D01*
X024752Y007123D01*
X024750Y007131D01*
X024749Y007139D01*
X024749Y007149D01*
X024748Y007159D01*
Y007160D01*
Y007161D01*
Y007163D01*
Y007165D01*
X024749Y007168D01*
Y007172D01*
X024749Y007176D01*
X024749Y007180D01*
X024750Y007189D01*
X024752Y007199D01*
X024753Y007208D01*
X024754Y007212D01*
X024756Y007217D01*
Y007217D01*
X024756Y007218D01*
X024757Y007219D01*
X024757Y007220D01*
X024758Y007222D01*
X024759Y007224D01*
X024761Y007229D01*
X024764Y007235D01*
X024768Y007240D01*
X024772Y007246D01*
X024777Y007250D01*
X024778D01*
X024778Y007251D01*
X024779Y007251D01*
X024780Y007252D01*
X024782Y007253D01*
X024783Y007254D01*
X024788Y007256D01*
X024793Y007258D01*
X024799Y007261D01*
X024806Y007262D01*
X024814Y007262D01*
X024817D01*
X024820Y007262D01*
D02*
G37*
G36*
X024638Y008091D02*
X024644Y008091D01*
X024650Y008090D01*
X024656Y008089D01*
X024660Y008088D01*
X024661D01*
X024661Y008088D01*
X024662D01*
X024663Y008088D01*
X024667Y008087D01*
X024671Y008085D01*
X024675Y008083D01*
X024680Y008081D01*
X024685Y008078D01*
X024690Y008074D01*
X024690Y008074D01*
X024690Y008073D01*
X024691Y008072D01*
X024692Y008072D01*
X024695Y008069D01*
X024699Y008065D01*
X024703Y008060D01*
X024707Y008054D01*
X024711Y008047D01*
X024714Y008040D01*
Y008039D01*
X024714Y008039D01*
X024715Y008038D01*
X024715Y008036D01*
X024716Y008034D01*
X024716Y008031D01*
X024717Y008029D01*
X024718Y008026D01*
X024719Y008022D01*
X024719Y008019D01*
X024721Y008010D01*
X024722Y008001D01*
X024722Y007992D01*
Y007991D01*
Y007991D01*
Y007989D01*
Y007988D01*
X024722Y007986D01*
Y007983D01*
X024721Y007978D01*
X024720Y007971D01*
X024720Y007965D01*
X024718Y007958D01*
X024716Y007951D01*
Y007951D01*
X024716Y007950D01*
X024716Y007949D01*
X024715Y007948D01*
X024714Y007945D01*
X024713Y007941D01*
X024711Y007936D01*
X024708Y007931D01*
X024706Y007926D01*
X024703Y007922D01*
X024702Y007921D01*
X024701Y007920D01*
X024699Y007918D01*
X024697Y007915D01*
X024695Y007912D01*
X024691Y007909D01*
X024688Y007906D01*
X024684Y007903D01*
X024684Y007903D01*
X024683Y007902D01*
X024681Y007901D01*
X024678Y007900D01*
X024674Y007898D01*
X024670Y007896D01*
X024665Y007895D01*
X024660Y007893D01*
X024660D01*
X024659Y007893D01*
X024658Y007893D01*
X024655Y007892D01*
X024651Y007892D01*
X024646Y007891D01*
X024641Y007891D01*
X024635Y007890D01*
X024628Y007890D01*
X024555D01*
Y008091D01*
X024633D01*
X024638Y008091D01*
D02*
G37*
G36*
X024512Y007060D02*
X024486D01*
Y007228D01*
X024428Y007060D01*
X024404D01*
X024346Y007231D01*
Y007060D01*
X024320D01*
Y007261D01*
X024360D01*
X024408Y007118D01*
Y007118D01*
X024408Y007118D01*
X024408Y007117D01*
X024409Y007115D01*
X024410Y007112D01*
X024411Y007107D01*
X024413Y007102D01*
X024415Y007098D01*
X024416Y007093D01*
X024417Y007089D01*
X024417Y007089D01*
X024418Y007091D01*
X024419Y007093D01*
X024420Y007097D01*
X024421Y007102D01*
X024423Y007107D01*
X024425Y007114D01*
X024428Y007121D01*
X024476Y007261D01*
X024512D01*
Y007060D01*
D02*
G37*
G36*
X019330Y002061D02*
X019336Y002061D01*
X019342Y002060D01*
X019348Y002060D01*
X019353Y002059D01*
X019353D01*
X019354Y002058D01*
X019355D01*
X019356Y002058D01*
X019359Y002057D01*
X019363Y002056D01*
X019368Y002053D01*
X019373Y002051D01*
X019378Y002048D01*
X019382Y002044D01*
X019383Y002044D01*
X019383Y002044D01*
X019384Y002043D01*
X019385Y002042D01*
X019388Y002039D01*
X019391Y002035D01*
X019395Y002030D01*
X019399Y002024D01*
X019403Y002017D01*
X019406Y002010D01*
Y002010D01*
X019406Y002009D01*
X019407Y002008D01*
X019407Y002006D01*
X019408Y002004D01*
X019409Y002002D01*
X019409Y001999D01*
X019410Y001996D01*
X019411Y001993D01*
X019412Y001989D01*
X019413Y001981D01*
X019414Y001972D01*
X019414Y001962D01*
Y001962D01*
Y001961D01*
Y001959D01*
Y001958D01*
X019414Y001956D01*
Y001954D01*
X019414Y001948D01*
X019413Y001942D01*
X019412Y001935D01*
X019411Y001928D01*
X019409Y001921D01*
Y001921D01*
X019408Y001920D01*
X019408Y001919D01*
X019408Y001918D01*
X019407Y001915D01*
X019405Y001911D01*
X019403Y001906D01*
X019401Y001902D01*
X019398Y001897D01*
X019395Y001892D01*
X019395Y001891D01*
X019394Y001890D01*
X019392Y001888D01*
X019390Y001885D01*
X019387Y001882D01*
X019384Y001879D01*
X019381Y001876D01*
X019377Y001874D01*
X019376Y001873D01*
X019375Y001872D01*
X019373Y001871D01*
X019370Y001870D01*
X019367Y001868D01*
X019362Y001867D01*
X019358Y001865D01*
X019353Y001863D01*
X019352D01*
X019351Y001863D01*
X019350Y001863D01*
X019347Y001863D01*
X019343Y001862D01*
X019339Y001861D01*
X019333Y001861D01*
X019327Y001861D01*
X019320Y001860D01*
X019248D01*
Y002062D01*
X019325D01*
X019330Y002061D01*
D02*
G37*
G36*
X019203Y001860D02*
X019175D01*
X019070Y002018D01*
Y001860D01*
X019044D01*
Y002062D01*
X019072D01*
X019177Y001903D01*
Y002062D01*
X019203D01*
Y001860D01*
D02*
G37*
G36*
X024069Y009076D02*
X024073Y009076D01*
X024077Y009075D01*
X024081Y009075D01*
X024086Y009074D01*
X024095Y009072D01*
X024106Y009068D01*
X024112Y009066D01*
X024117Y009064D01*
X024122Y009060D01*
X024127Y009057D01*
X024127Y009057D01*
X024128Y009056D01*
X024130Y009055D01*
X024131Y009053D01*
X024133Y009051D01*
X024136Y009049D01*
X024138Y009046D01*
X024141Y009043D01*
X024144Y009039D01*
X024147Y009035D01*
X024150Y009031D01*
X024153Y009026D01*
X024156Y009021D01*
X024159Y009015D01*
X024161Y009009D01*
X024163Y009003D01*
X024130Y008995D01*
Y008995D01*
X024130Y008996D01*
X024129Y008998D01*
X024128Y008999D01*
X024128Y009002D01*
X024127Y009005D01*
X024124Y009010D01*
X024120Y009017D01*
X024116Y009023D01*
X024110Y009030D01*
X024104Y009035D01*
X024104Y009036D01*
X024102Y009037D01*
X024098Y009039D01*
X024093Y009042D01*
X024087Y009044D01*
X024080Y009046D01*
X024072Y009047D01*
X024063Y009048D01*
X024060D01*
X024058Y009047D01*
X024055D01*
X024052Y009047D01*
X024045Y009046D01*
X024038Y009045D01*
X024030Y009042D01*
X024021Y009038D01*
X024014Y009034D01*
X024013D01*
X024013Y009033D01*
X024011Y009031D01*
X024007Y009028D01*
X024003Y009024D01*
X023999Y009018D01*
X023994Y009012D01*
X023990Y009005D01*
X023987Y008996D01*
Y008996D01*
X023986Y008995D01*
X023986Y008994D01*
X023985Y008992D01*
X023985Y008990D01*
X023984Y008987D01*
X023983Y008981D01*
X023981Y008974D01*
X023980Y008966D01*
X023979Y008957D01*
X023979Y008948D01*
Y008947D01*
Y008946D01*
Y008944D01*
Y008942D01*
X023979Y008940D01*
Y008936D01*
X023980Y008933D01*
X023980Y008929D01*
X023981Y008920D01*
X023983Y008911D01*
X023985Y008901D01*
X023988Y008892D01*
Y008891D01*
X023988Y008891D01*
X023989Y008890D01*
X023990Y008888D01*
X023992Y008883D01*
X023995Y008878D01*
X023999Y008872D01*
X024004Y008866D01*
X024010Y008861D01*
X024017Y008856D01*
X024017D01*
X024018Y008855D01*
X024019Y008855D01*
X024021Y008854D01*
X024023Y008853D01*
X024025Y008852D01*
X024030Y008850D01*
X024036Y008848D01*
X024044Y008846D01*
X024052Y008844D01*
X024060Y008844D01*
X024063D01*
X024065Y008844D01*
X024067D01*
X024070Y008845D01*
X024076Y008846D01*
X024084Y008848D01*
X024092Y008851D01*
X024100Y008855D01*
X024104Y008857D01*
X024107Y008860D01*
X024108Y008860D01*
X024108Y008861D01*
X024109Y008862D01*
X024111Y008863D01*
X024112Y008865D01*
X024114Y008867D01*
X024116Y008869D01*
X024118Y008872D01*
X024120Y008875D01*
X024123Y008879D01*
X024125Y008883D01*
X024127Y008887D01*
X024129Y008892D01*
X024131Y008897D01*
X024132Y008902D01*
X024134Y008908D01*
X024167Y008900D01*
Y008899D01*
X024167Y008898D01*
X024166Y008896D01*
X024165Y008893D01*
X024164Y008890D01*
X024163Y008886D01*
X024161Y008881D01*
X024159Y008876D01*
X024154Y008866D01*
X024147Y008856D01*
X024143Y008851D01*
X024139Y008846D01*
X024135Y008841D01*
X024130Y008837D01*
X024129Y008837D01*
X024128Y008836D01*
X024127Y008835D01*
X024125Y008834D01*
X024122Y008832D01*
X024119Y008830D01*
X024115Y008828D01*
X024111Y008827D01*
X024106Y008824D01*
X024101Y008823D01*
X024096Y008821D01*
X024090Y008819D01*
X024084Y008817D01*
X024077Y008817D01*
X024070Y008816D01*
X024063Y008816D01*
X024059D01*
X024056Y008816D01*
X024053D01*
X024049Y008816D01*
X024044Y008817D01*
X024039Y008818D01*
X024029Y008820D01*
X024018Y008823D01*
X024007Y008827D01*
X024002Y008829D01*
X023997Y008832D01*
X023996Y008832D01*
X023996Y008833D01*
X023994Y008834D01*
X023993Y008835D01*
X023991Y008837D01*
X023988Y008839D01*
X023985Y008841D01*
X023982Y008844D01*
X023979Y008848D01*
X023976Y008851D01*
X023969Y008859D01*
X023963Y008869D01*
X023958Y008880D01*
Y008880D01*
X023957Y008882D01*
X023957Y008883D01*
X023956Y008886D01*
X023955Y008888D01*
X023954Y008892D01*
X023952Y008896D01*
X023951Y008900D01*
X023950Y008905D01*
X023949Y008911D01*
X023947Y008922D01*
X023945Y008935D01*
X023945Y008948D01*
Y008948D01*
Y008950D01*
Y008952D01*
X023945Y008954D01*
Y008958D01*
X023945Y008962D01*
X023946Y008966D01*
X023946Y008971D01*
X023948Y008982D01*
X023951Y008993D01*
X023954Y009005D01*
X023960Y009016D01*
X023960Y009017D01*
X023960Y009018D01*
X023961Y009019D01*
X023962Y009021D01*
X023964Y009023D01*
X023966Y009026D01*
X023970Y009033D01*
X023977Y009040D01*
X023984Y009047D01*
X023992Y009055D01*
X024002Y009061D01*
X024003Y009061D01*
X024004Y009062D01*
X024005Y009062D01*
X024007Y009064D01*
X024010Y009065D01*
X024013Y009066D01*
X024016Y009067D01*
X024020Y009069D01*
X024025Y009070D01*
X024029Y009072D01*
X024040Y009074D01*
X024051Y009076D01*
X024063Y009076D01*
X024067D01*
X024069Y009076D01*
D02*
G37*
%LPC*%
G36*
X020390Y002180D02*
X020332D01*
Y002109D01*
X020387D01*
X020389Y002109D01*
X020391D01*
X020393Y002109D01*
X020398Y002110D01*
X020405Y002111D01*
X020411Y002113D01*
X020416Y002115D01*
X020419Y002116D01*
X020421Y002118D01*
X020421Y002119D01*
X020423Y002120D01*
X020424Y002122D01*
X020426Y002125D01*
X020428Y002129D01*
X020430Y002134D01*
X020431Y002139D01*
X020432Y002145D01*
Y002145D01*
Y002146D01*
Y002147D01*
X020432Y002150D01*
X020431Y002152D01*
X020430Y002156D01*
X020429Y002159D01*
X020428Y002163D01*
X020426Y002166D01*
X020425Y002167D01*
X020424Y002168D01*
X020423Y002169D01*
X020421Y002171D01*
X020419Y002173D01*
X020416Y002175D01*
X020412Y002177D01*
X020409Y002178D01*
X020408D01*
X020407Y002179D01*
X020405Y002179D01*
X020403Y002180D01*
X020400Y002180D01*
X020395Y002180D01*
X020390Y002180D01*
D02*
G37*
G36*
X020562Y002164D02*
X020499Y002074D01*
X020562D01*
Y002164D01*
D02*
G37*
G36*
X002309Y009698D02*
X002252D01*
Y009626D01*
X002306D01*
X002308Y009626D01*
X002310D01*
X002312Y009626D01*
X002318Y009627D01*
X002324Y009628D01*
X002330Y009630D01*
X002336Y009632D01*
X002338Y009633D01*
X002340Y009635D01*
X002341Y009636D01*
X002342Y009637D01*
X002344Y009639D01*
X002346Y009642D01*
X002348Y009646D01*
X002350Y009651D01*
X002351Y009656D01*
X002351Y009662D01*
Y009662D01*
Y009663D01*
Y009664D01*
X002351Y009667D01*
X002351Y009670D01*
X002350Y009673D01*
X002349Y009677D01*
X002347Y009680D01*
X002345Y009684D01*
X002345Y009684D01*
X002344Y009685D01*
X002342Y009686D01*
X002341Y009688D01*
X002338Y009691D01*
X002335Y009692D01*
X002332Y009694D01*
X002328Y009695D01*
X002328D01*
X002327Y009696D01*
X002325Y009696D01*
X002323Y009697D01*
X002319Y009697D01*
X002315Y009697D01*
X002309Y009698D01*
D02*
G37*
G36*
X019783Y002181D02*
X019725D01*
Y002109D01*
X019779D01*
X019781Y002109D01*
X019783D01*
X019786Y002110D01*
X019791Y002110D01*
X019797Y002111D01*
X019803Y002113D01*
X019809Y002115D01*
X019812Y002117D01*
X019814Y002119D01*
X019814Y002119D01*
X019815Y002120D01*
X019817Y002123D01*
X019819Y002126D01*
X019821Y002129D01*
X019823Y002134D01*
X019824Y002139D01*
X019825Y002145D01*
Y002146D01*
Y002146D01*
Y002147D01*
X019824Y002150D01*
X019824Y002153D01*
X019823Y002156D01*
X019822Y002160D01*
X019820Y002163D01*
X019818Y002167D01*
X019818Y002167D01*
X019817Y002168D01*
X019816Y002170D01*
X019814Y002172D01*
X019811Y002174D01*
X019808Y002176D01*
X019805Y002177D01*
X019801Y002179D01*
X019801D01*
X019800Y002179D01*
X019798Y002179D01*
X019796Y002180D01*
X019792Y002180D01*
X019788Y002181D01*
X019783Y002181D01*
D02*
G37*
G36*
X000939Y004036D02*
X000882D01*
Y003964D01*
X000936D01*
X000938Y003965D01*
X000940D01*
X000942Y003965D01*
X000948Y003966D01*
X000954Y003967D01*
X000960Y003968D01*
X000966Y003971D01*
X000968Y003972D01*
X000970Y003974D01*
X000971Y003975D01*
X000972Y003976D01*
X000974Y003978D01*
X000976Y003981D01*
X000978Y003985D01*
X000980Y003989D01*
X000981Y003995D01*
X000981Y004001D01*
Y004001D01*
Y004001D01*
Y004003D01*
X000981Y004005D01*
X000981Y004008D01*
X000980Y004012D01*
X000979Y004015D01*
X000977Y004019D01*
X000975Y004022D01*
X000975Y004023D01*
X000974Y004024D01*
X000972Y004025D01*
X000971Y004027D01*
X000968Y004029D01*
X000965Y004031D01*
X000962Y004033D01*
X000958Y004034D01*
X000958D01*
X000957Y004035D01*
X000955Y004035D01*
X000953Y004035D01*
X000949Y004036D01*
X000945Y004036D01*
X000939Y004036D01*
D02*
G37*
G36*
X022726Y008297D02*
Y008296D01*
X022726Y008295D01*
Y008294D01*
X022725Y008293D01*
X022725Y008290D01*
X022724Y008287D01*
X022723Y008281D01*
X022721Y008274D01*
X022718Y008266D01*
X022716Y008257D01*
X022712Y008248D01*
X022685Y008175D01*
X022770D01*
X022744Y008244D01*
Y008244D01*
X022744Y008245D01*
X022743Y008247D01*
X022742Y008249D01*
X022741Y008252D01*
X022740Y008255D01*
X022739Y008259D01*
X022738Y008262D01*
X022735Y008271D01*
X022732Y008279D01*
X022729Y008288D01*
X022726Y008297D01*
D02*
G37*
G36*
X022276D02*
Y008296D01*
X022276Y008295D01*
Y008294D01*
X022275Y008293D01*
X022275Y008290D01*
X022274Y008287D01*
X022273Y008281D01*
X022271Y008274D01*
X022268Y008266D01*
X022266Y008257D01*
X022263Y008248D01*
X022235Y008175D01*
X022320D01*
X022294Y008244D01*
Y008244D01*
X022294Y008245D01*
X022293Y008247D01*
X022292Y008249D01*
X022291Y008252D01*
X022290Y008255D01*
X022289Y008259D01*
X022288Y008262D01*
X022285Y008271D01*
X022282Y008279D01*
X022279Y008288D01*
X022276Y008297D01*
D02*
G37*
G36*
X019996Y008295D02*
X019916D01*
Y008211D01*
X019991D01*
X019996Y008212D01*
X020001Y008212D01*
X020006Y008212D01*
X020012Y008213D01*
X020018Y008214D01*
X020023Y008216D01*
X020024Y008216D01*
X020025Y008217D01*
X020028Y008218D01*
X020030Y008219D01*
X020034Y008222D01*
X020037Y008224D01*
X020040Y008227D01*
X020043Y008231D01*
X020043Y008231D01*
X020044Y008233D01*
X020045Y008235D01*
X020046Y008238D01*
X020048Y008241D01*
X020049Y008245D01*
X020049Y008249D01*
X020050Y008254D01*
Y008254D01*
Y008254D01*
X020049Y008257D01*
X020049Y008260D01*
X020048Y008264D01*
X020046Y008269D01*
X020044Y008274D01*
X020041Y008278D01*
X020037Y008283D01*
X020036Y008283D01*
X020034Y008285D01*
X020031Y008287D01*
X020026Y008289D01*
X020021Y008291D01*
X020014Y008293D01*
X020005Y008294D01*
X019996Y008295D01*
D02*
G37*
G36*
X022028Y008293D02*
X021970D01*
Y008101D01*
X022030D01*
X022032Y008101D01*
X022038Y008101D01*
X022044Y008102D01*
X022050Y008103D01*
X022057Y008104D01*
X022062Y008105D01*
X022063Y008105D01*
X022065Y008106D01*
X022067Y008107D01*
X022071Y008108D01*
X022074Y008111D01*
X022078Y008113D01*
X022082Y008115D01*
X022085Y008118D01*
X022086Y008119D01*
X022087Y008120D01*
X022089Y008123D01*
X022092Y008127D01*
X022095Y008131D01*
X022098Y008137D01*
X022101Y008143D01*
X022103Y008150D01*
Y008150D01*
X022104Y008151D01*
X022104Y008152D01*
X022105Y008153D01*
X022105Y008155D01*
X022106Y008158D01*
X022106Y008160D01*
X022107Y008163D01*
X022108Y008171D01*
X022109Y008179D01*
X022110Y008188D01*
X022110Y008199D01*
Y008199D01*
Y008200D01*
Y008202D01*
X022110Y008205D01*
Y008208D01*
X022110Y008212D01*
X022109Y008216D01*
X022109Y008221D01*
X022107Y008231D01*
X022105Y008241D01*
X022102Y008250D01*
X022099Y008255D01*
X022097Y008259D01*
Y008259D01*
X022097Y008260D01*
X022096Y008261D01*
X022095Y008263D01*
X022092Y008266D01*
X022089Y008271D01*
X022084Y008275D01*
X022078Y008280D01*
X022072Y008284D01*
X022066Y008287D01*
X022065Y008288D01*
X022063Y008288D01*
X022060Y008289D01*
X022055Y008290D01*
X022049Y008291D01*
X022042Y008292D01*
X022038Y008293D01*
X022033D01*
X022028Y008293D01*
D02*
G37*
G36*
X021011D02*
X020951D01*
Y008217D01*
X021013D01*
X021018Y008218D01*
X021023Y008218D01*
X021028Y008218D01*
X021033Y008219D01*
X021037Y008220D01*
X021038Y008220D01*
X021039Y008220D01*
X021041Y008222D01*
X021044Y008223D01*
X021047Y008224D01*
X021050Y008227D01*
X021054Y008230D01*
X021056Y008232D01*
X021057Y008233D01*
X021057Y008234D01*
X021058Y008236D01*
X021060Y008239D01*
X021061Y008242D01*
X021062Y008245D01*
X021062Y008250D01*
X021063Y008254D01*
Y008255D01*
Y008257D01*
X021062Y008259D01*
X021062Y008262D01*
X021061Y008265D01*
X021060Y008269D01*
X021059Y008273D01*
X021057Y008276D01*
X021056Y008277D01*
X021056Y008278D01*
X021054Y008279D01*
X021052Y008281D01*
X021050Y008283D01*
X021047Y008286D01*
X021043Y008288D01*
X021039Y008289D01*
X021039D01*
X021037Y008290D01*
X021034Y008290D01*
X021030Y008291D01*
X021025Y008292D01*
X021019Y008292D01*
X021011Y008293D01*
D02*
G37*
G36*
X021017Y008187D02*
X020951D01*
Y008101D01*
X021023D01*
X021030Y008101D01*
X021034Y008101D01*
X021037Y008102D01*
X021037D01*
X021038Y008102D01*
X021041Y008103D01*
X021043Y008103D01*
X021049Y008105D01*
X021056Y008108D01*
X021056Y008109D01*
X021057Y008109D01*
X021058Y008111D01*
X021060Y008112D01*
X021062Y008114D01*
X021065Y008116D01*
X021066Y008119D01*
X021069Y008123D01*
X021069Y008123D01*
X021069Y008124D01*
X021070Y008126D01*
X021071Y008129D01*
X021072Y008132D01*
X021073Y008135D01*
X021073Y008140D01*
X021074Y008144D01*
Y008145D01*
Y008146D01*
X021073Y008149D01*
X021073Y008152D01*
X021072Y008156D01*
X021070Y008160D01*
X021069Y008164D01*
X021066Y008168D01*
X021066Y008168D01*
X021065Y008170D01*
X021063Y008172D01*
X021061Y008174D01*
X021058Y008176D01*
X021054Y008179D01*
X021050Y008181D01*
X021046Y008183D01*
X021045Y008183D01*
X021043Y008184D01*
X021040Y008184D01*
X021036Y008185D01*
X021031Y008186D01*
X021025Y008187D01*
X021017Y008187D01*
D02*
G37*
G36*
X021640Y000664D02*
X021540D01*
Y000503D01*
X021622Y000502D01*
X021630D01*
X021638Y000503D01*
X021648Y000504D01*
X021660Y000504D01*
X021672Y000506D01*
X021683Y000508D01*
X021692Y000511D01*
X021693Y000512D01*
X021696Y000513D01*
X021700Y000515D01*
X021705Y000518D01*
X021711Y000522D01*
X021717Y000527D01*
X021723Y000533D01*
X021728Y000539D01*
X021728Y000540D01*
X021730Y000543D01*
X021732Y000547D01*
X021734Y000553D01*
X021736Y000559D01*
X021739Y000567D01*
X021740Y000575D01*
X021741Y000584D01*
Y000585D01*
Y000588D01*
X021740Y000593D01*
X021739Y000599D01*
X021738Y000605D01*
X021735Y000612D01*
X021732Y000620D01*
X021728Y000628D01*
X021727Y000628D01*
X021726Y000631D01*
X021723Y000634D01*
X021718Y000639D01*
X021714Y000643D01*
X021708Y000647D01*
X021701Y000652D01*
X021693Y000655D01*
X021693Y000656D01*
X021689Y000657D01*
X021684Y000658D01*
X021677Y000660D01*
X021667Y000661D01*
X021655Y000663D01*
X021640Y000664D01*
D02*
G37*
G36*
X020776Y000465D02*
X020729D01*
Y000283D01*
X020800D01*
X020805Y000284D01*
X020816Y000284D01*
X020828Y000285D01*
X020840Y000287D01*
X020852Y000289D01*
X020862Y000292D01*
X020863Y000293D01*
X020867Y000295D01*
X020871Y000297D01*
X020876Y000300D01*
X020882Y000305D01*
X020889Y000311D01*
X020895Y000317D01*
X020901Y000324D01*
X020902Y000325D01*
X020903Y000328D01*
X020906Y000332D01*
X020909Y000338D01*
X020911Y000346D01*
X020914Y000354D01*
X020916Y000362D01*
X020916Y000371D01*
Y000372D01*
Y000373D01*
Y000376D01*
X020916Y000383D01*
X020913Y000390D01*
X020911Y000399D01*
X020908Y000408D01*
X020902Y000418D01*
X020895Y000426D01*
X020894Y000427D01*
X020892Y000430D01*
X020887Y000435D01*
X020881Y000440D01*
X020873Y000445D01*
X020862Y000451D01*
X020851Y000456D01*
X020838Y000459D01*
X020837D01*
X020834Y000460D01*
X020828Y000461D01*
X020819Y000462D01*
X020814Y000463D01*
X020808Y000464D01*
X020801D01*
X020793Y000464D01*
X020785D01*
X020776Y000465D01*
D02*
G37*
G36*
X020783Y000664D02*
X020729D01*
Y000513D01*
X020763D01*
X020772Y000513D01*
X020783Y000514D01*
X020795Y000515D01*
X020806Y000516D01*
X020818Y000518D01*
X020827Y000521D01*
X020828Y000522D01*
X020831Y000523D01*
X020835Y000526D01*
X020840Y000529D01*
X020846Y000533D01*
X020853Y000537D01*
X020859Y000544D01*
X020864Y000550D01*
X020865Y000551D01*
X020866Y000554D01*
X020868Y000558D01*
X020871Y000564D01*
X020873Y000570D01*
X020875Y000577D01*
X020877Y000585D01*
X020878Y000594D01*
Y000595D01*
Y000596D01*
Y000599D01*
X020876Y000606D01*
X020875Y000613D01*
X020872Y000621D01*
X020868Y000630D01*
X020862Y000638D01*
X020855Y000645D01*
X020854Y000646D01*
X020851Y000648D01*
X020846Y000651D01*
X020838Y000655D01*
X020827Y000658D01*
X020815Y000661D01*
X020800Y000663D01*
X020783Y000664D01*
D02*
G37*
G36*
X023339Y008529D02*
X023337D01*
X023336Y008529D01*
X023332Y008528D01*
X023327Y008527D01*
X023321Y008524D01*
X023315Y008520D01*
X023312Y008518D01*
X023309Y008515D01*
X023306Y008512D01*
X023304Y008509D01*
Y008508D01*
X023303Y008508D01*
X023302Y008507D01*
X023301Y008505D01*
X023300Y008502D01*
X023299Y008499D01*
X023297Y008495D01*
X023296Y008491D01*
X023295Y008485D01*
X023293Y008480D01*
X023292Y008473D01*
X023291Y008465D01*
X023290Y008457D01*
X023289Y008448D01*
X023289Y008437D01*
Y008426D01*
Y008426D01*
Y008425D01*
Y008424D01*
Y008420D01*
X023289Y008416D01*
Y008411D01*
X023289Y008405D01*
X023290Y008399D01*
X023290Y008392D01*
X023292Y008378D01*
X023293Y008371D01*
X023295Y008365D01*
X023296Y008359D01*
X023298Y008353D01*
X023301Y008348D01*
X023303Y008343D01*
Y008343D01*
X023304Y008343D01*
X023305Y008342D01*
X023306Y008340D01*
X023309Y008337D01*
X023313Y008333D01*
X023318Y008329D01*
X023325Y008326D01*
X023328Y008325D01*
X023332Y008323D01*
X023336Y008323D01*
X023340Y008323D01*
X023342D01*
X023343Y008323D01*
X023347Y008324D01*
X023352Y008325D01*
X023357Y008327D01*
X023363Y008330D01*
X023366Y008333D01*
X023369Y008335D01*
X023372Y008338D01*
X023374Y008341D01*
Y008341D01*
X023375Y008342D01*
X023376Y008343D01*
X023377Y008345D01*
X023378Y008348D01*
X023379Y008351D01*
X023380Y008355D01*
X023382Y008360D01*
X023383Y008366D01*
X023385Y008372D01*
X023386Y008379D01*
X023387Y008386D01*
X023388Y008395D01*
X023389Y008405D01*
X023389Y008415D01*
X023390Y008426D01*
Y008427D01*
Y008429D01*
Y008432D01*
X023389Y008436D01*
Y008441D01*
X023389Y008447D01*
X023389Y008453D01*
X023388Y008460D01*
X023386Y008474D01*
X023385Y008481D01*
X023384Y008487D01*
X023382Y008493D01*
X023380Y008499D01*
X023378Y008504D01*
X023375Y008509D01*
Y008509D01*
X023375Y008509D01*
X023373Y008512D01*
X023369Y008515D01*
X023365Y008519D01*
X023360Y008523D01*
X023354Y008526D01*
X023347Y008528D01*
X023343Y008529D01*
X023339Y008529D01*
D02*
G37*
G36*
X019934Y000677D02*
X019929D01*
X019925Y000676D01*
X019920D01*
X019915Y000675D01*
X019901Y000673D01*
X019886Y000670D01*
X019869Y000665D01*
X019851Y000658D01*
X019833Y000649D01*
X019832D01*
X019831Y000647D01*
X019829Y000646D01*
X019825Y000644D01*
X019817Y000638D01*
X019807Y000629D01*
X019794Y000618D01*
X019783Y000606D01*
X019771Y000591D01*
X019760Y000574D01*
Y000574D01*
X019759Y000572D01*
X019758Y000570D01*
X019756Y000566D01*
X019754Y000562D01*
X019752Y000557D01*
X019749Y000551D01*
X019747Y000545D01*
X019742Y000529D01*
X019738Y000512D01*
X019735Y000492D01*
X019734Y000471D01*
Y000470D01*
Y000467D01*
X019735Y000463D01*
Y000457D01*
X019735Y000450D01*
X019737Y000441D01*
X019739Y000432D01*
X019741Y000421D01*
X019744Y000410D01*
X019748Y000399D01*
X019753Y000387D01*
X019759Y000375D01*
X019765Y000363D01*
X019773Y000351D01*
X019782Y000339D01*
X019792Y000328D01*
X019793Y000327D01*
X019795Y000326D01*
X019798Y000323D01*
X019802Y000319D01*
X019808Y000315D01*
X019815Y000310D01*
X019823Y000305D01*
X019832Y000300D01*
X019842Y000294D01*
X019853Y000289D01*
X019864Y000284D01*
X019877Y000279D01*
X019890Y000276D01*
X019904Y000273D01*
X019918Y000271D01*
X019934Y000270D01*
X019939D01*
X019943Y000271D01*
X019947D01*
X019953Y000272D01*
X019960Y000273D01*
X019967Y000274D01*
X019982Y000277D01*
X019999Y000281D01*
X020017Y000288D01*
X020035Y000297D01*
X020036D01*
X020037Y000298D01*
X020039Y000300D01*
X020043Y000302D01*
X020051Y000308D01*
X020062Y000316D01*
X020074Y000327D01*
X020086Y000339D01*
X020098Y000354D01*
X020109Y000370D01*
Y000371D01*
X020110Y000373D01*
X020111Y000375D01*
X020113Y000378D01*
X020115Y000383D01*
X020117Y000388D01*
X020120Y000394D01*
X020122Y000401D01*
X020127Y000416D01*
X020131Y000434D01*
X020134Y000453D01*
X020136Y000473D01*
Y000474D01*
Y000476D01*
Y000479D01*
X020135Y000483D01*
Y000488D01*
X020134Y000494D01*
X020133Y000500D01*
X020132Y000507D01*
X020129Y000523D01*
X020124Y000540D01*
X020117Y000558D01*
X020109Y000575D01*
Y000576D01*
X020107Y000577D01*
X020106Y000580D01*
X020103Y000582D01*
X020098Y000591D01*
X020090Y000601D01*
X020079Y000613D01*
X020066Y000626D01*
X020051Y000638D01*
X020034Y000649D01*
X020034D01*
X020032Y000650D01*
X020030Y000652D01*
X020026Y000653D01*
X020022Y000655D01*
X020017Y000658D01*
X020010Y000660D01*
X020004Y000663D01*
X019989Y000668D01*
X019972Y000672D01*
X019953Y000675D01*
X019934Y000677D01*
D02*
G37*
G36*
X020429Y000664D02*
X020329D01*
Y000503D01*
X020411Y000502D01*
X020419D01*
X020427Y000503D01*
X020437Y000504D01*
X020449Y000504D01*
X020461Y000506D01*
X020472Y000508D01*
X020481Y000511D01*
X020482Y000512D01*
X020485Y000513D01*
X020489Y000515D01*
X020494Y000518D01*
X020500Y000522D01*
X020506Y000527D01*
X020512Y000533D01*
X020517Y000539D01*
X020518Y000540D01*
X020519Y000543D01*
X020521Y000547D01*
X020523Y000553D01*
X020526Y000559D01*
X020528Y000567D01*
X020529Y000575D01*
X020530Y000584D01*
Y000585D01*
Y000588D01*
X020529Y000593D01*
X020528Y000599D01*
X020527Y000605D01*
X020524Y000612D01*
X020521Y000620D01*
X020517Y000628D01*
X020516Y000628D01*
X020515Y000631D01*
X020512Y000634D01*
X020507Y000639D01*
X020503Y000643D01*
X020497Y000647D01*
X020490Y000652D01*
X020483Y000655D01*
X020482Y000656D01*
X020478Y000657D01*
X020473Y000658D01*
X020466Y000660D01*
X020456Y000661D01*
X020444Y000663D01*
X020429Y000664D01*
D02*
G37*
G36*
X022119Y000677D02*
X022114D01*
X022110Y000676D01*
X022105D01*
X022100Y000675D01*
X022086Y000673D01*
X022071Y000670D01*
X022054Y000665D01*
X022037Y000658D01*
X022019Y000649D01*
X022018D01*
X022016Y000647D01*
X022014Y000646D01*
X022011Y000644D01*
X022003Y000638D01*
X021992Y000629D01*
X021980Y000618D01*
X021968Y000606D01*
X021957Y000591D01*
X021946Y000574D01*
Y000574D01*
X021944Y000572D01*
X021943Y000570D01*
X021941Y000566D01*
X021940Y000562D01*
X021938Y000557D01*
X021935Y000551D01*
X021933Y000545D01*
X021927Y000529D01*
X021924Y000512D01*
X021921Y000492D01*
X021919Y000471D01*
Y000470D01*
Y000467D01*
X021920Y000463D01*
Y000457D01*
X021921Y000450D01*
X021922Y000441D01*
X021925Y000432D01*
X021927Y000421D01*
X021930Y000410D01*
X021934Y000399D01*
X021938Y000387D01*
X021944Y000375D01*
X021951Y000363D01*
X021959Y000351D01*
X021968Y000339D01*
X021978Y000328D01*
X021978Y000327D01*
X021981Y000326D01*
X021984Y000323D01*
X021988Y000319D01*
X021994Y000315D01*
X022000Y000310D01*
X022008Y000305D01*
X022017Y000300D01*
X022027Y000294D01*
X022038Y000289D01*
X022050Y000284D01*
X022062Y000279D01*
X022075Y000276D01*
X022089Y000273D01*
X022104Y000271D01*
X022119Y000270D01*
X022124D01*
X022129Y000271D01*
X022133D01*
X022139Y000272D01*
X022145Y000273D01*
X022153Y000274D01*
X022168Y000277D01*
X022185Y000281D01*
X022203Y000288D01*
X022220Y000297D01*
X022221D01*
X022223Y000298D01*
X022225Y000300D01*
X022229Y000302D01*
X022237Y000308D01*
X022247Y000316D01*
X022259Y000327D01*
X022272Y000339D01*
X022283Y000354D01*
X022294Y000370D01*
Y000371D01*
X022296Y000373D01*
X022296Y000375D01*
X022299Y000378D01*
X022301Y000383D01*
X022303Y000388D01*
X022305Y000394D01*
X022308Y000401D01*
X022312Y000416D01*
X022317Y000434D01*
X022320Y000453D01*
X022321Y000473D01*
Y000474D01*
Y000476D01*
Y000479D01*
X022320Y000483D01*
Y000488D01*
X022320Y000494D01*
X022319Y000500D01*
X022317Y000507D01*
X022315Y000523D01*
X022309Y000540D01*
X022303Y000558D01*
X022294Y000575D01*
Y000576D01*
X022293Y000577D01*
X022291Y000580D01*
X022289Y000582D01*
X022283Y000591D01*
X022275Y000601D01*
X022264Y000613D01*
X022252Y000626D01*
X022237Y000638D01*
X022220Y000649D01*
X022219D01*
X022218Y000650D01*
X022215Y000652D01*
X022212Y000653D01*
X022207Y000655D01*
X022202Y000658D01*
X022196Y000660D01*
X022189Y000663D01*
X022175Y000668D01*
X022157Y000672D01*
X022139Y000675D01*
X022119Y000677D01*
D02*
G37*
G36*
X005896Y002537D02*
X005777Y002367D01*
X005896D01*
Y002537D01*
D02*
G37*
G36*
X004434Y002476D02*
X004431D01*
X004428Y002476D01*
X004422Y002475D01*
X004415Y002473D01*
X004407Y002471D01*
X004397Y002467D01*
X004389Y002461D01*
X004380Y002454D01*
X004379Y002453D01*
X004377Y002450D01*
X004373Y002446D01*
X004369Y002439D01*
X004365Y002431D01*
X004361Y002422D01*
X004357Y002410D01*
X004356Y002398D01*
X004509D01*
Y002398D01*
Y002399D01*
X004509Y002401D01*
Y002403D01*
X004508Y002410D01*
X004506Y002417D01*
X004503Y002425D01*
X004500Y002434D01*
X004496Y002442D01*
X004491Y002449D01*
Y002449D01*
X004490Y002450D01*
X004487Y002453D01*
X004482Y002458D01*
X004476Y002462D01*
X004468Y002467D01*
X004458Y002472D01*
X004446Y002475D01*
X004440Y002476D01*
X004434Y002476D01*
D02*
G37*
G36*
X004116Y002570D02*
X003997D01*
Y002445D01*
X004110D01*
X004116Y002446D01*
X004124Y002446D01*
X004132Y002447D01*
X004141Y002448D01*
X004150Y002449D01*
X004158Y002452D01*
X004159Y002452D01*
X004161Y002453D01*
X004164Y002455D01*
X004169Y002457D01*
X004173Y002460D01*
X004178Y002464D01*
X004183Y002469D01*
X004187Y002474D01*
X004188Y002475D01*
X004189Y002477D01*
X004190Y002481D01*
X004193Y002485D01*
X004194Y002490D01*
X004196Y002495D01*
X004197Y002502D01*
X004197Y002508D01*
Y002509D01*
Y002509D01*
X004197Y002513D01*
X004196Y002518D01*
X004195Y002524D01*
X004193Y002531D01*
X004189Y002538D01*
X004184Y002545D01*
X004178Y002553D01*
X004177Y002553D01*
X004174Y002555D01*
X004170Y002558D01*
X004163Y002561D01*
X004154Y002565D01*
X004143Y002567D01*
X004131Y002569D01*
X004116Y002570D01*
D02*
G37*
G36*
X018909Y000947D02*
X018846D01*
Y000880D01*
X018906D01*
X018909Y000880D01*
X018913Y000881D01*
X018918Y000881D01*
X018922Y000882D01*
X018927Y000882D01*
X018931Y000884D01*
X018932Y000884D01*
X018933Y000884D01*
X018935Y000885D01*
X018937Y000886D01*
X018940Y000888D01*
X018942Y000890D01*
X018945Y000893D01*
X018947Y000896D01*
X018947Y000896D01*
X018948Y000897D01*
X018949Y000899D01*
X018950Y000901D01*
X018951Y000904D01*
X018952Y000907D01*
X018952Y000910D01*
X018952Y000914D01*
Y000914D01*
Y000914D01*
X018952Y000916D01*
X018952Y000919D01*
X018951Y000922D01*
X018950Y000926D01*
X018948Y000930D01*
X018945Y000934D01*
X018942Y000937D01*
X018941Y000938D01*
X018940Y000939D01*
X018938Y000940D01*
X018934Y000942D01*
X018929Y000944D01*
X018924Y000945D01*
X018917Y000946D01*
X018909Y000947D01*
D02*
G37*
G36*
X020509Y005424D02*
X020505D01*
X020503Y005424D01*
X020496Y005423D01*
X020487Y005421D01*
X020477Y005418D01*
X020467Y005413D01*
X020456Y005407D01*
X020446Y005397D01*
X020444Y005396D01*
X020442Y005393D01*
X020437Y005387D01*
X020432Y005380D01*
X020427Y005370D01*
X020423Y005359D01*
X020420Y005347D01*
X020419Y005334D01*
Y005333D01*
Y005332D01*
Y005330D01*
X020419Y005328D01*
X020420Y005321D01*
X020422Y005312D01*
X020425Y005302D01*
X020430Y005292D01*
X020436Y005281D01*
X020446Y005271D01*
X020447Y005269D01*
X020450Y005267D01*
X020456Y005262D01*
X020463Y005258D01*
X020472Y005253D01*
X020484Y005248D01*
X020495Y005246D01*
X020509Y005244D01*
X020512D01*
X020515Y005245D01*
X020522Y005246D01*
X020531Y005248D01*
X020541Y005251D01*
X020551Y005256D01*
X020562Y005262D01*
X020572Y005271D01*
X020574Y005272D01*
X020576Y005275D01*
X020581Y005281D01*
X020585Y005288D01*
X020590Y005298D01*
X020594Y005309D01*
X020597Y005321D01*
X020598Y005334D01*
Y005335D01*
Y005336D01*
Y005338D01*
X020598Y005340D01*
X020597Y005347D01*
X020595Y005356D01*
X020592Y005366D01*
X020587Y005376D01*
X020581Y005387D01*
X020572Y005397D01*
X020571Y005399D01*
X020568Y005401D01*
X020562Y005406D01*
X020554Y005411D01*
X020545Y005416D01*
X020535Y005420D01*
X020522Y005423D01*
X020509Y005424D01*
D02*
G37*
G36*
X019925Y004785D02*
X019770Y004712D01*
X019925Y004640D01*
Y004785D01*
D02*
G37*
G36*
X019472Y004404D02*
X019468D01*
X019462Y004403D01*
X019455Y004402D01*
X019448Y004400D01*
X019439Y004396D01*
X019431Y004392D01*
X019423Y004385D01*
X019422Y004384D01*
X019419Y004382D01*
X019415Y004378D01*
X019411Y004372D01*
X019406Y004365D01*
X019401Y004356D01*
X019396Y004346D01*
X019393Y004334D01*
Y004333D01*
X019392Y004330D01*
X019391Y004325D01*
X019390Y004317D01*
X019390Y004312D01*
X019389Y004306D01*
Y004300D01*
X019389Y004293D01*
Y004286D01*
X019388Y004278D01*
Y004269D01*
Y004259D01*
Y004236D01*
X019552D01*
Y004288D01*
Y004289D01*
Y004290D01*
Y004293D01*
Y004295D01*
Y004299D01*
X019551Y004304D01*
X019551Y004314D01*
X019550Y004325D01*
X019548Y004336D01*
X019546Y004346D01*
X019543Y004356D01*
X019543Y004356D01*
X019541Y004360D01*
X019539Y004363D01*
X019536Y004368D01*
X019532Y004373D01*
X019527Y004379D01*
X019521Y004385D01*
X019514Y004390D01*
X019514Y004391D01*
X019511Y004392D01*
X019507Y004395D01*
X019502Y004398D01*
X019495Y004400D01*
X019488Y004402D01*
X019480Y004403D01*
X019472Y004404D01*
D02*
G37*
G36*
X019272Y004369D02*
X019267D01*
X019261Y004368D01*
X019255Y004367D01*
X019247Y004364D01*
X019240Y004361D01*
X019232Y004356D01*
X019226Y004349D01*
X019225Y004348D01*
X019223Y004345D01*
X019221Y004341D01*
X019217Y004333D01*
X019214Y004324D01*
X019211Y004313D01*
X019209Y004300D01*
X019209Y004284D01*
Y004236D01*
X019345D01*
Y004259D01*
Y004260D01*
Y004261D01*
Y004263D01*
Y004266D01*
X019345Y004274D01*
X019344Y004284D01*
X019343Y004295D01*
X019342Y004305D01*
X019340Y004316D01*
X019337Y004324D01*
X019337Y004325D01*
X019336Y004327D01*
X019333Y004331D01*
X019331Y004336D01*
X019327Y004341D01*
X019323Y004347D01*
X019317Y004352D01*
X019311Y004357D01*
X019310Y004358D01*
X019308Y004359D01*
X019305Y004361D01*
X019299Y004363D01*
X019293Y004365D01*
X019287Y004367D01*
X019280Y004369D01*
X019272Y004369D01*
D02*
G37*
G36*
X020417Y004775D02*
X020406D01*
X020400Y004774D01*
X020394D01*
X020387Y004773D01*
X020379Y004773D01*
X020363Y004772D01*
X020345Y004769D01*
X020328Y004765D01*
X020311Y004760D01*
X020310D01*
X020309Y004760D01*
X020307Y004759D01*
X020305Y004758D01*
X020297Y004754D01*
X020288Y004750D01*
X020278Y004745D01*
X020268Y004737D01*
X020259Y004730D01*
X020251Y004721D01*
X020250Y004720D01*
X020247Y004716D01*
X020245Y004712D01*
X020241Y004705D01*
X020238Y004697D01*
X020234Y004688D01*
X020232Y004678D01*
X020232Y004668D01*
Y004667D01*
Y004663D01*
X020232Y004657D01*
X020234Y004651D01*
X020236Y004642D01*
X020240Y004634D01*
X020244Y004624D01*
X020251Y004615D01*
X020251Y004613D01*
X020254Y004611D01*
X020259Y004606D01*
X020265Y004601D01*
X020273Y004594D01*
X020282Y004588D01*
X020294Y004582D01*
X020307Y004577D01*
X020308D01*
X020309Y004576D01*
X020311Y004575D01*
X020314Y004575D01*
X020318Y004574D01*
X020323Y004573D01*
X020328Y004571D01*
X020335Y004571D01*
X020342Y004569D01*
X020350Y004568D01*
X020359Y004567D01*
X020369Y004566D01*
X020379Y004566D01*
X020391Y004565D01*
X020404Y004564D01*
X020429D01*
X020434Y004565D01*
X020442D01*
X020449Y004566D01*
X020457D01*
X020475Y004567D01*
X020493Y004569D01*
X020511Y004573D01*
X020519Y004575D01*
X020526Y004577D01*
X020527D01*
X020528Y004577D01*
X020530Y004578D01*
X020532Y004579D01*
X020539Y004582D01*
X020547Y004587D01*
X020556Y004592D01*
X020565Y004598D01*
X020574Y004606D01*
X020582Y004615D01*
X020583Y004616D01*
X020585Y004619D01*
X020588Y004625D01*
X020591Y004631D01*
X020595Y004639D01*
X020598Y004648D01*
X020600Y004657D01*
X020601Y004668D01*
Y004669D01*
Y004669D01*
Y004672D01*
X020600Y004678D01*
X020598Y004686D01*
X020596Y004693D01*
X020593Y004703D01*
X020589Y004712D01*
X020583Y004721D01*
X020582Y004722D01*
X020579Y004725D01*
X020575Y004730D01*
X020568Y004735D01*
X020560Y004741D01*
X020551Y004747D01*
X020539Y004753D01*
X020526Y004758D01*
X020526D01*
X020524Y004759D01*
X020522Y004760D01*
X020518Y004761D01*
X020514Y004762D01*
X020509Y004764D01*
X020503Y004765D01*
X020495Y004767D01*
X020488Y004768D01*
X020480Y004770D01*
X020471Y004771D01*
X020461Y004772D01*
X020440Y004774D01*
X020417Y004775D01*
D02*
G37*
G36*
X024629Y007238D02*
X024582D01*
Y007084D01*
X024630D01*
X024632Y007084D01*
X024636Y007084D01*
X024641Y007085D01*
X024646Y007085D01*
X024652Y007086D01*
X024656Y007087D01*
X024657Y007088D01*
X024658Y007088D01*
X024660Y007089D01*
X024663Y007090D01*
X024666Y007092D01*
X024669Y007093D01*
X024672Y007096D01*
X024674Y007098D01*
X024675Y007098D01*
X024676Y007100D01*
X024678Y007102D01*
X024680Y007105D01*
X024682Y007108D01*
X024685Y007113D01*
X024687Y007118D01*
X024689Y007123D01*
Y007123D01*
X024689Y007124D01*
X024690Y007125D01*
X024690Y007126D01*
X024690Y007128D01*
X024691Y007130D01*
X024691Y007132D01*
X024692Y007134D01*
X024693Y007140D01*
X024694Y007146D01*
X024694Y007154D01*
X024695Y007162D01*
Y007162D01*
Y007164D01*
Y007165D01*
X024694Y007167D01*
Y007170D01*
X024694Y007173D01*
X024694Y007176D01*
X024693Y007180D01*
X024692Y007188D01*
X024690Y007196D01*
X024688Y007203D01*
X024686Y007207D01*
X024684Y007210D01*
Y007211D01*
X024683Y007211D01*
X024683Y007212D01*
X024682Y007213D01*
X024680Y007216D01*
X024677Y007220D01*
X024673Y007224D01*
X024669Y007227D01*
X024664Y007231D01*
X024659Y007233D01*
X024658Y007233D01*
X024657Y007234D01*
X024654Y007235D01*
X024650Y007235D01*
X024646Y007236D01*
X024640Y007237D01*
X024636Y007237D01*
X024633D01*
X024629Y007238D01*
D02*
G37*
G36*
X024814Y007242D02*
X024812D01*
X024811Y007242D01*
X024808Y007241D01*
X024804Y007240D01*
X024800Y007238D01*
X024795Y007236D01*
X024793Y007234D01*
X024790Y007232D01*
X024788Y007230D01*
X024786Y007227D01*
Y007227D01*
X024786Y007226D01*
X024785Y007225D01*
X024784Y007224D01*
X024783Y007222D01*
X024782Y007219D01*
X024781Y007216D01*
X024780Y007212D01*
X024779Y007208D01*
X024778Y007203D01*
X024777Y007197D01*
X024776Y007191D01*
X024775Y007184D01*
X024774Y007176D01*
X024774Y007168D01*
X024774Y007159D01*
Y007159D01*
Y007157D01*
Y007155D01*
X024774Y007151D01*
Y007147D01*
X024774Y007143D01*
X024775Y007138D01*
X024775Y007132D01*
X024777Y007121D01*
X024777Y007116D01*
X024779Y007110D01*
X024780Y007105D01*
X024782Y007101D01*
X024783Y007097D01*
X024785Y007093D01*
Y007093D01*
X024786Y007093D01*
X024787Y007091D01*
X024790Y007088D01*
X024793Y007085D01*
X024798Y007082D01*
X024802Y007079D01*
X024808Y007077D01*
X024811Y007077D01*
X024814Y007077D01*
X024816D01*
X024817Y007077D01*
X024820Y007078D01*
X024824Y007079D01*
X024828Y007081D01*
X024833Y007084D01*
X024836Y007086D01*
X024838Y007088D01*
X024840Y007090D01*
X024843Y007093D01*
Y007093D01*
X024843Y007094D01*
X024844Y007095D01*
X024844Y007096D01*
X024846Y007098D01*
X024846Y007101D01*
X024848Y007104D01*
X024849Y007107D01*
X024850Y007112D01*
X024851Y007116D01*
X024852Y007122D01*
X024853Y007128D01*
X024853Y007135D01*
X024854Y007142D01*
X024855Y007150D01*
Y007159D01*
Y007160D01*
Y007160D01*
Y007161D01*
Y007164D01*
X024854Y007167D01*
Y007171D01*
X024854Y007176D01*
X024854Y007181D01*
X024853Y007186D01*
X024852Y007197D01*
X024851Y007203D01*
X024850Y007208D01*
X024848Y007213D01*
X024847Y007218D01*
X024845Y007222D01*
X024843Y007225D01*
Y007226D01*
X024842Y007226D01*
X024842Y007227D01*
X024841Y007228D01*
X024838Y007231D01*
X024835Y007234D01*
X024831Y007237D01*
X024826Y007239D01*
X024823Y007240D01*
X024820Y007241D01*
X024817Y007242D01*
X024814Y007242D01*
D02*
G37*
G36*
X024629Y008068D02*
X024582D01*
Y007914D01*
X024630D01*
X024632Y007914D01*
X024636Y007914D01*
X024641Y007915D01*
X024646Y007915D01*
X024652Y007916D01*
X024656Y007917D01*
X024657Y007918D01*
X024658Y007918D01*
X024660Y007919D01*
X024663Y007920D01*
X024666Y007922D01*
X024669Y007923D01*
X024672Y007926D01*
X024674Y007928D01*
X024675Y007928D01*
X024676Y007930D01*
X024678Y007932D01*
X024680Y007935D01*
X024682Y007938D01*
X024685Y007943D01*
X024687Y007948D01*
X024689Y007953D01*
Y007953D01*
X024689Y007954D01*
X024690Y007955D01*
X024690Y007956D01*
X024690Y007958D01*
X024691Y007960D01*
X024691Y007962D01*
X024692Y007964D01*
X024693Y007970D01*
X024694Y007976D01*
X024694Y007984D01*
X024695Y007992D01*
Y007992D01*
Y007994D01*
Y007995D01*
X024694Y007997D01*
Y008000D01*
X024694Y008003D01*
X024694Y008006D01*
X024693Y008010D01*
X024692Y008018D01*
X024690Y008026D01*
X024688Y008033D01*
X024686Y008037D01*
X024684Y008040D01*
Y008041D01*
X024683Y008041D01*
X024683Y008042D01*
X024682Y008043D01*
X024680Y008046D01*
X024677Y008050D01*
X024673Y008054D01*
X024669Y008057D01*
X024664Y008061D01*
X024659Y008063D01*
X024658Y008063D01*
X024657Y008064D01*
X024654Y008065D01*
X024650Y008065D01*
X024646Y008066D01*
X024640Y008067D01*
X024636Y008067D01*
X024633D01*
X024629Y008068D01*
D02*
G37*
G36*
X019321Y002038D02*
X019275D01*
Y001884D01*
X019322D01*
X019324Y001884D01*
X019329Y001885D01*
X019334Y001885D01*
X019339Y001886D01*
X019344Y001886D01*
X019349Y001888D01*
X019349Y001888D01*
X019351Y001888D01*
X019353Y001889D01*
X019355Y001890D01*
X019358Y001892D01*
X019361Y001894D01*
X019364Y001896D01*
X019367Y001898D01*
X019367Y001899D01*
X019368Y001900D01*
X019370Y001902D01*
X019372Y001905D01*
X019374Y001909D01*
X019377Y001913D01*
X019379Y001918D01*
X019381Y001923D01*
Y001924D01*
X019382Y001924D01*
X019382Y001925D01*
X019382Y001926D01*
X019383Y001928D01*
X019383Y001930D01*
X019384Y001932D01*
X019384Y001934D01*
X019385Y001940D01*
X019386Y001947D01*
X019387Y001954D01*
X019387Y001962D01*
Y001963D01*
Y001964D01*
Y001965D01*
X019387Y001968D01*
Y001970D01*
X019386Y001973D01*
X019386Y001977D01*
X019386Y001980D01*
X019384Y001988D01*
X019383Y001996D01*
X019380Y002004D01*
X019378Y002007D01*
X019376Y002011D01*
Y002011D01*
X019376Y002012D01*
X019375Y002012D01*
X019375Y002014D01*
X019372Y002016D01*
X019369Y002020D01*
X019366Y002024D01*
X019361Y002028D01*
X019356Y002031D01*
X019351Y002033D01*
X019351Y002034D01*
X019349Y002034D01*
X019346Y002035D01*
X019343Y002036D01*
X019338Y002036D01*
X019332Y002037D01*
X019329Y002037D01*
X019325D01*
X019321Y002038D01*
D02*
G37*
%LPD*%
D40*
X012372Y001142D02*
G03*
X012372Y001634I000000J000246D01*
G01*
X024520Y004577D02*
G03*
X024520Y004577I-000022J000000D01*
G01*
X016014Y002501D02*
Y004445D01*
X014321Y002501D02*
Y004445D01*
Y002501D02*
X016014D01*
X015557Y004898D02*
X016014Y004445D01*
X014321D02*
X014774Y004898D01*
X015557D01*
X012904D02*
X013687D01*
X012451Y004445D02*
X012904Y004898D01*
X013687D02*
X014144Y004445D01*
X012451Y002501D02*
X014144D01*
X012451D02*
Y004445D01*
X014144Y002501D02*
Y004445D01*
X016734Y000360D02*
X018734D01*
X016734D02*
Y002360D01*
X018734Y000360D02*
Y002360D01*
X016734D02*
X018734D01*
X012392Y002077D02*
X016171D01*
Y000758D02*
Y002077D01*
X012392Y000758D02*
X016171D01*
X012372D02*
Y001142D01*
Y001634D02*
Y002077D01*
X023563Y005522D02*
X024665D01*
X023563Y003839D02*
X024665D01*
X023425Y005778D02*
Y006211D01*
X018750Y003327D02*
Y003760D01*
X021063Y003327D02*
Y003760D01*
Y002598D02*
Y003031D01*
X007047Y006535D02*
X007165D01*
X007047Y005630D02*
X007165D01*
X007047D02*
Y006535D01*
X007165Y005630D02*
Y006535D01*
X005354Y007963D02*
X005551D01*
X005354Y006742D02*
X005551D01*
X005354D02*
Y007963D01*
X005551Y006742D02*
Y007963D01*
X021555Y001486D02*
Y001683D01*
X022776Y001486D02*
Y001683D01*
X021555Y001486D02*
X022776D01*
X021555Y001683D02*
X022776D01*
X015226Y006821D02*
Y007530D01*
X013297Y006821D02*
Y007530D01*
X015226D01*
X013297Y006821D02*
X015226D01*
D43*
X001809Y002976D02*
G03*
X001909Y003076I000000J000100D01*
G01*
X000709D02*
G03*
X000809Y002976I000100J000000D01*
G01*
Y003776D02*
G03*
X000709Y003676I000000J-000100D01*
G01*
X001909D02*
G03*
X001809Y003776I-000100J000000D01*
G01*
X024142Y006600D02*
G03*
X024242Y006700I000000J000100D01*
G01*
X023042D02*
G03*
X023142Y006600I000100J000000D01*
G01*
Y007400D02*
G03*
X023042Y007300I000000J-000100D01*
G01*
X024242D02*
G03*
X024142Y007400I-000100J000000D01*
G01*
X023142Y008238D02*
G03*
X023042Y008138I000000J-000100D01*
G01*
X024242D02*
G03*
X024142Y008238I-000100J000000D01*
G01*
Y007438D02*
G03*
X024242Y007538I000000J000100D01*
G01*
X023042D02*
G03*
X023142Y007438I000100J000000D01*
G01*
X002077Y008701D02*
G03*
X002175Y008583I000108J-000010D01*
G01*
Y009449D02*
G03*
X002077Y009331I000010J-000108D01*
G01*
X002864D02*
G03*
X002766Y009449I-000108J000010D01*
G01*
Y008583D02*
G03*
X002864Y008701I-000010J000108D01*
G01*
X000809Y003776D02*
X001809D01*
X000709Y003076D02*
Y003676D01*
X001909Y003076D02*
Y003676D01*
X000809Y002976D02*
X001809D01*
X023142Y007400D02*
X024142D01*
X023042Y006700D02*
Y007300D01*
X024242Y006700D02*
Y007300D01*
X023142Y006600D02*
X024142D01*
X023142Y007438D02*
X024142D01*
X024242Y007538D02*
Y008138D01*
X023042Y007538D02*
Y008138D01*
X023142Y008238D02*
X024142D01*
X002864Y008701D02*
Y009331D01*
X002175Y009449D02*
X002766D01*
X002175Y008583D02*
X002766D01*
X002077Y008701D02*
Y009331D01*
X003014Y011451D02*
X003514D01*
X003764Y011201D01*
X004014Y011451D01*
X004514D01*
X004764Y011201D01*
X002764D02*
X003014Y011451D01*
X004764Y011201D02*
X005014Y011451D01*
X005514D01*
X005764Y011201D01*
X006014Y011451D02*
X006514D01*
X006764Y011201D01*
X007014Y011451D01*
X007514D01*
X007764Y011201D01*
X005764D02*
X006014Y011451D01*
X007764Y011201D02*
X008014Y011451D01*
X008514D01*
X008764Y011201D01*
X003514Y009451D02*
X003764Y009701D01*
X004514Y009451D02*
X004764Y009701D01*
X004014Y009451D02*
X004514D01*
X003764Y009701D02*
X004014Y009451D01*
X002764Y009701D02*
Y011201D01*
Y009701D02*
X003014Y009451D01*
X003514D01*
X005514D02*
X005764Y009701D01*
X005014Y009451D02*
X005514D01*
X004764Y009701D02*
X005014Y009451D01*
X006514D02*
X006764Y009701D01*
X007514Y009451D02*
X007764Y009701D01*
X007014Y009451D02*
X007514D01*
X006764Y009701D02*
X007014Y009451D01*
X005764Y009701D02*
X006014Y009451D01*
X006514D01*
X008514D02*
X008764Y009701D01*
X008014Y009451D02*
X008514D01*
X007764Y009701D02*
X008014Y009451D01*
X009514Y011451D02*
X009764Y011201D01*
X009014Y011451D02*
X009514D01*
X008764Y011201D02*
X009014Y011451D01*
X008764Y009701D02*
X009014Y009451D01*
X009514D01*
X009764Y009701D01*
X010014Y011451D02*
X010514D01*
X010764Y011201D01*
X011014Y011451D01*
X011514D01*
X011764Y011201D01*
X009764D02*
X010014Y011451D01*
X011764Y011201D02*
X012014Y011451D01*
X012514D01*
X012764Y011201D01*
X013014Y011451D02*
X013514D01*
X013764Y011201D01*
X014014Y011451D01*
X014514D01*
X014764Y011201D01*
X012764D02*
X013014Y011451D01*
X014764Y011201D02*
X015014Y011451D01*
X015514D01*
X015764Y011201D01*
X010514Y009451D02*
X010764Y009701D01*
X011514Y009451D02*
X011764Y009701D01*
X011014Y009451D02*
X011514D01*
X010764Y009701D02*
X011014Y009451D01*
X009764Y009701D02*
X010014Y009451D01*
X010514D01*
X012514D02*
X012764Y009701D01*
X012014Y009451D02*
X012514D01*
X011764Y009701D02*
X012014Y009451D01*
X013514D02*
X013764Y009701D01*
X014514Y009451D02*
X014764Y009701D01*
X014014Y009451D02*
X014514D01*
X013764Y009701D02*
X014014Y009451D01*
X012764Y009701D02*
X013014Y009451D01*
X013514D01*
X015514D02*
X015764Y009701D01*
X015014Y009451D02*
X015514D01*
X014764Y009701D02*
X015014Y009451D01*
X016514Y011451D02*
X016764Y011201D01*
X016014Y011451D02*
X016514D01*
X015764Y011201D02*
X016014Y011451D01*
X015764Y009701D02*
X016014Y009451D01*
X016514D01*
X016764Y009701D01*
X017014Y011451D02*
X017514D01*
X017764Y011201D01*
X018014Y011451D01*
X018514D01*
X018764Y011201D01*
X016764D02*
X017014Y011451D01*
X018764Y011201D02*
X019014Y011451D01*
X019514D01*
X019764Y011201D01*
X020014Y011451D02*
X020514D01*
X020764Y011201D01*
X021014Y011451D01*
X021514D01*
X021764Y011201D01*
X019764D02*
X020014Y011451D01*
X021764Y011201D02*
X022014Y011451D01*
X022514D01*
X017514Y009451D02*
X017764Y009701D01*
X018514Y009451D02*
X018764Y009701D01*
X018014Y009451D02*
X018514D01*
X017764Y009701D02*
X018014Y009451D01*
X016764Y009701D02*
X017014Y009451D01*
X017514D01*
X019514D02*
X019764Y009701D01*
X019014Y009451D02*
X019514D01*
X018764Y009701D02*
X019014Y009451D01*
X020514D02*
X020764Y009701D01*
X021514Y009451D02*
X021764Y009701D01*
X021014Y009451D02*
X021514D01*
X020764Y009701D02*
X021014Y009451D01*
X019764Y009701D02*
X020014Y009451D01*
X020514D01*
X022014D02*
X022514D01*
X021764Y009701D02*
X022014Y009451D01*
X022764Y009701D02*
Y011201D01*
X022514Y011451D02*
X022764Y011201D01*
X022514Y009451D02*
X022764Y009701D01*
D58*
X019343Y006633D02*
G03*
X019343Y006633I-000141J000000D01*
G01*
X021766Y009197D02*
X022016Y009447D01*
X022516D01*
X022766Y009197D01*
X022516Y008447D02*
X022766Y008697D01*
X022016Y008447D02*
X022516D01*
X021766Y008697D02*
X022016Y008447D01*
X020016Y009447D02*
X020516D01*
X020766Y009197D01*
X020516Y008447D02*
X020766Y008697D01*
Y009197D02*
X021016Y009447D01*
X021516D01*
X021766Y009197D01*
X021516Y008447D02*
X021766Y008697D01*
X021016Y008447D02*
X021516D01*
X020766Y008697D02*
X021016Y008447D01*
X019766Y008697D02*
Y009197D01*
X020016Y009447D01*
X019766Y008697D02*
X020016Y008447D01*
X020516D01*
X022766Y008697D02*
Y009197D01*
X012234Y003976D02*
Y004370D01*
Y000039D02*
Y002795D01*
X007510Y000039D02*
X012234D01*
X007510Y003976D02*
Y004370D01*
Y000039D02*
Y002795D01*
Y004370D02*
X012234D01*
X007234Y003976D02*
Y004370D01*
Y000039D02*
Y002795D01*
X002510Y000039D02*
X007234D01*
X002510Y003976D02*
Y004370D01*
Y000039D02*
Y002795D01*
Y004370D02*
X007234D01*
X023238Y002726D02*
Y003159D01*
X023081Y002569D02*
X023238Y002726D01*
X022451Y002569D02*
X023081D01*
X022293Y002726D02*
X022451Y002569D01*
X022293Y002726D02*
Y003159D01*
X023238Y003947D02*
Y004537D01*
X022293D02*
X023238D01*
X022293Y003947D02*
Y004537D01*
X005768Y008258D02*
X006201D01*
X005610Y008415D02*
X005768Y008258D01*
X005610Y008415D02*
Y009045D01*
X005768Y009203D01*
X006201D01*
X006988Y008258D02*
X007579D01*
Y009203D01*
X006988D02*
X007579D01*
X018878Y006929D02*
X020915D01*
X020925Y003937D02*
Y006929D01*
X018878Y003937D02*
X020925D01*
X018878D02*
Y006929D01*
X018199Y007520D02*
Y007953D01*
X018041Y007362D02*
X018199Y007520D01*
X017411Y007362D02*
X018041D01*
X017254Y007520D02*
X017411Y007362D01*
X017254Y007520D02*
Y007953D01*
X018199Y008740D02*
Y009331D01*
X017254D02*
X018199D01*
X017254Y008740D02*
Y009331D01*
X017234Y007520D02*
Y007953D01*
X017077Y007362D02*
X017234Y007520D01*
X016447Y007362D02*
X017077D01*
X016289Y007520D02*
X016447Y007362D01*
X016289Y007520D02*
Y007953D01*
X017234Y008740D02*
Y009331D01*
X016289D02*
X017234D01*
X016289Y008740D02*
Y009331D01*
X017529Y002726D02*
Y003159D01*
X017372Y002569D02*
X017529Y002726D01*
X016742Y002569D02*
X017372D01*
X016585Y002726D02*
X016742Y002569D01*
X016585Y002726D02*
Y003159D01*
X017529Y003947D02*
Y004537D01*
X016585D02*
X017529D01*
X016585Y003947D02*
Y004537D01*
D61*
X006781Y006634D02*
G03*
X006781Y006634I-000049J000000D01*
G01*
X005030Y008061D02*
G03*
X005030Y008061I-000049J000000D01*
G01*
X021506Y001112D02*
G03*
X021506Y001112I-000049J000000D01*
G01*
X013207Y006201D02*
G03*
X013207Y006201I-000049J000000D01*
G01*
D62*
X008407Y008193D02*
X008998D01*
X008703Y007809D02*
Y008350D01*
D63*
X-000305Y005335D02*
X000541D01*
X-000305D02*
Y008287D01*
X001663D01*
Y005335D02*
Y008287D01*
X000541Y005335D02*
X001663D01*
X022366Y003403D02*
X023166D01*
X006444Y008330D02*
Y009130D01*
X020915Y006929D02*
Y006939D01*
X017326Y008196D02*
X018126D01*
X016362D02*
X017162D01*
X016657Y003403D02*
X017457D01*
D64*
X024104Y003375D02*
Y003397D01*
X010532Y007499D02*
Y007521D01*
Y008522D02*
Y008544D01*
Y009034D02*
Y009056D01*
X010532Y005137D02*
Y005159D01*
Y006121D02*
Y006143D01*
X010532Y006633D02*
Y006655D01*
X021003Y001467D02*
X021025D01*
X006721Y007402D02*
X006743D01*
X004517Y008681D02*
X004539D01*
X003554Y008971D02*
Y008993D01*
X018522Y008091D02*
X018544D01*
X015944D02*
X015966D01*
X007096Y005146D02*
Y005168D01*
X005501Y005492D02*
X005523D01*
X008689Y006347D02*
Y006369D01*
X016288Y003376D02*
X016310D01*
X003189Y005757D02*
Y005779D01*
X013199Y009034D02*
Y009056D01*
X003720Y007607D02*
Y007629D01*
D65*
X003189Y005187D02*
D03*
X003189Y006289D02*
D03*
X011821Y008022D02*
D03*
X011821Y005640D02*
D03*
X004616Y005788D02*
D03*
X004616Y006289D02*
D03*
X011821Y005148D02*
D03*
X011821Y006644D02*
D03*
X011821Y006132D02*
D03*
X010531Y005640D02*
D03*
X011821Y007510D02*
D03*
X011821Y009045D02*
D03*
X011821Y008533D02*
D03*
X010531Y008022D02*
D03*
D66*
X008689Y005151D02*
D03*
D67*
X016309Y005316D02*
D03*
X016319Y006663D02*
D03*
D68*
X006112Y005492D02*
D03*
M02*
