G04 Layer_Color=8388736*
%FSAX24Y24*%
%MOIN*%
G70*
G01*
G75*
%ADD13R,0.0591X0.0472*%
%ADD77R,0.0089X0.0197*%
%ADD78R,0.0118X0.0187*%
%ADD79R,0.0118X0.0217*%
%ADD80R,0.0118X0.0217*%
%ADD81R,0.0502X0.0108*%
%ADD82R,0.0443X0.0512*%
%ADD83R,0.0453X0.0512*%
%ADD84R,0.0541X0.0512*%
%ADD85R,0.0512X0.0167*%
%ADD86R,0.0512X0.0148*%
%ADD87R,0.0414X0.0886*%
%ADD88R,0.0270X0.0520*%
%ADD89R,0.0520X0.0270*%
%ADD90R,0.0492X0.0571*%
G04:AMPARAMS|DCode=91|XSize=52mil|YSize=52mil|CornerRadius=26mil|HoleSize=0mil|Usage=FLASHONLY|Rotation=90.000|XOffset=0mil|YOffset=0mil|HoleType=Round|Shape=RoundedRectangle|*
%AMROUNDEDRECTD91*
21,1,0.0520,0.0000,0,0,90.0*
21,1,0.0000,0.0520,0,0,90.0*
1,1,0.0520,0.0000,0.0000*
1,1,0.0520,0.0000,0.0000*
1,1,0.0520,0.0000,0.0000*
1,1,0.0520,0.0000,0.0000*
%
%ADD91ROUNDEDRECTD91*%
G04:AMPARAMS|DCode=92|XSize=32mil|YSize=32mil|CornerRadius=16mil|HoleSize=0mil|Usage=FLASHONLY|Rotation=180.000|XOffset=0mil|YOffset=0mil|HoleType=Round|Shape=RoundedRectangle|*
%AMROUNDEDRECTD92*
21,1,0.0320,0.0000,0,0,180.0*
21,1,0.0000,0.0320,0,0,180.0*
1,1,0.0320,0.0000,0.0000*
1,1,0.0320,0.0000,0.0000*
1,1,0.0320,0.0000,0.0000*
1,1,0.0320,0.0000,0.0000*
%
%ADD92ROUNDEDRECTD92*%
G04:AMPARAMS|DCode=93|XSize=32mil|YSize=32mil|CornerRadius=16mil|HoleSize=0mil|Usage=FLASHONLY|Rotation=90.000|XOffset=0mil|YOffset=0mil|HoleType=Round|Shape=RoundedRectangle|*
%AMROUNDEDRECTD93*
21,1,0.0320,0.0000,0,0,90.0*
21,1,0.0000,0.0320,0,0,90.0*
1,1,0.0320,0.0000,0.0000*
1,1,0.0320,0.0000,0.0000*
1,1,0.0320,0.0000,0.0000*
1,1,0.0320,0.0000,0.0000*
%
%ADD93ROUNDEDRECTD93*%
%ADD94R,0.0220X0.0220*%
%ADD95R,0.0650X0.0611*%
%ADD96R,0.0492X0.0492*%
%ADD97R,0.0453X0.0571*%
%ADD98R,0.0571X0.0453*%
%ADD99R,0.0453X0.0414*%
%ADD100R,0.0414X0.0532*%
%ADD101R,0.0355X0.0177*%
G04:AMPARAMS|DCode=102|XSize=76.8mil|YSize=76.8mil|CornerRadius=10.4mil|HoleSize=0mil|Usage=FLASHONLY|Rotation=270.000|XOffset=0mil|YOffset=0mil|HoleType=Round|Shape=RoundedRectangle|*
%AMROUNDEDRECTD102*
21,1,0.0768,0.0561,0,0,270.0*
21,1,0.0561,0.0768,0,0,270.0*
1,1,0.0207,-0.0281,-0.0281*
1,1,0.0207,-0.0281,0.0281*
1,1,0.0207,0.0281,0.0281*
1,1,0.0207,0.0281,-0.0281*
%
%ADD102ROUNDEDRECTD102*%
G04:AMPARAMS|DCode=103|XSize=72.9mil|YSize=76.8mil|CornerRadius=9.9mil|HoleSize=0mil|Usage=FLASHONLY|Rotation=270.000|XOffset=0mil|YOffset=0mil|HoleType=Round|Shape=RoundedRectangle|*
%AMROUNDEDRECTD103*
21,1,0.0729,0.0571,0,0,270.0*
21,1,0.0532,0.0768,0,0,270.0*
1,1,0.0197,-0.0285,-0.0266*
1,1,0.0197,-0.0285,0.0266*
1,1,0.0197,0.0285,0.0266*
1,1,0.0197,0.0285,-0.0266*
%
%ADD103ROUNDEDRECTD103*%
G04:AMPARAMS|DCode=104|XSize=84.7mil|YSize=90.6mil|CornerRadius=11.3mil|HoleSize=0mil|Usage=FLASHONLY|Rotation=270.000|XOffset=0mil|YOffset=0mil|HoleType=Round|Shape=RoundedRectangle|*
%AMROUNDEDRECTD104*
21,1,0.0847,0.0679,0,0,270.0*
21,1,0.0620,0.0906,0,0,270.0*
1,1,0.0227,-0.0340,-0.0310*
1,1,0.0227,-0.0340,0.0310*
1,1,0.0227,0.0340,0.0310*
1,1,0.0227,0.0340,-0.0310*
%
%ADD104ROUNDEDRECTD104*%
G04:AMPARAMS|DCode=105|XSize=17.7mil|YSize=80.7mil|CornerRadius=3mil|HoleSize=0mil|Usage=FLASHONLY|Rotation=270.000|XOffset=0mil|YOffset=0mil|HoleType=Round|Shape=RoundedRectangle|*
%AMROUNDEDRECTD105*
21,1,0.0177,0.0748,0,0,270.0*
21,1,0.0118,0.0807,0,0,270.0*
1,1,0.0059,-0.0374,-0.0059*
1,1,0.0059,-0.0374,0.0059*
1,1,0.0059,0.0374,0.0059*
1,1,0.0059,0.0374,-0.0059*
%
%ADD105ROUNDEDRECTD105*%
%ADD106R,0.0414X0.0453*%
%ADD107R,0.0650X0.0571*%
%ADD108R,0.0453X0.0256*%
%ADD109R,0.0571X0.0650*%
%ADD110R,0.0256X0.0453*%
%ADD111R,0.0611X0.0178*%
%ADD112O,0.0296X0.0945*%
%ADD113C,0.0611*%
%ADD114R,0.0611X0.0611*%
%ADD115R,0.0611X0.0611*%
%ADD116R,0.0620X0.0620*%
%ADD117C,0.0620*%
%ADD118C,0.1004*%
%ADD119C,0.1103*%
%ADD120C,0.0760*%
%ADD121C,0.0492*%
%ADD122C,0.0880*%
%ADD123C,0.0335*%
D13*
X021329Y006998D02*
D03*
X018474D02*
D03*
D77*
X017849Y004774D02*
D03*
D78*
X017864Y005054D02*
D03*
D79*
X021909Y005541D02*
D03*
Y006093D02*
D03*
D80*
Y005817D02*
D03*
D81*
X002475Y008991D02*
D03*
D82*
X023676Y007836D02*
D03*
D83*
X023671Y007000D02*
D03*
D84*
X001304Y003376D02*
D03*
D85*
X019793Y001639D02*
D03*
D86*
X020413Y001658D02*
D03*
D87*
X015167Y003101D02*
D03*
Y004301D02*
D03*
X013297D02*
D03*
Y003101D02*
D03*
D88*
X001629Y003376D02*
D03*
X001309D02*
D03*
X000989D02*
D03*
X023962Y007000D02*
D03*
X023642D02*
D03*
X023322D02*
D03*
Y007838D02*
D03*
X023642D02*
D03*
X023962D02*
D03*
D89*
X002470Y008854D02*
D03*
Y009178D02*
D03*
X019793Y001486D02*
D03*
Y001841D02*
D03*
X020413Y001486D02*
D03*
Y001841D02*
D03*
D90*
X023740Y004203D02*
D03*
X024488D02*
D03*
X023740Y005148D02*
D03*
X024488D02*
D03*
D91*
X023258Y008947D02*
D03*
D92*
X024656Y006791D02*
D03*
X002260Y007330D02*
D03*
D93*
Y006220D02*
D03*
D94*
X017992Y005059D02*
D03*
X021791Y005817D02*
D03*
Y006093D02*
D03*
X017992Y004774D02*
D03*
X021791Y005541D02*
D03*
D95*
X008703Y008783D02*
D03*
D96*
X009096Y007504D02*
D03*
X008309D02*
D03*
D97*
X003809Y008385D02*
D03*
X003218D02*
D03*
X004905Y005210D02*
D03*
X004315D02*
D03*
D98*
X017077Y005030D02*
D03*
Y005621D02*
D03*
X017087Y006929D02*
D03*
Y006339D02*
D03*
D99*
X003523Y005187D02*
D03*
X002854D02*
D03*
X002854Y006289D02*
D03*
X003524D02*
D03*
X009023Y005151D02*
D03*
X008354D02*
D03*
X023770Y003386D02*
D03*
X024439D02*
D03*
X010866Y007510D02*
D03*
X010197D02*
D03*
Y008533D02*
D03*
X010866D02*
D03*
X010197Y009045D02*
D03*
X010866D02*
D03*
X010866Y005148D02*
D03*
X010197D02*
D03*
Y006132D02*
D03*
X010866D02*
D03*
X010197Y006644D02*
D03*
X010866D02*
D03*
X012155Y008022D02*
D03*
X011486D02*
D03*
X012155Y005640D02*
D03*
X011486D02*
D03*
X003219Y008982D02*
D03*
X003888D02*
D03*
X004281Y005788D02*
D03*
X004951D02*
D03*
X004951Y006289D02*
D03*
X004282D02*
D03*
X006762Y005157D02*
D03*
X007431D02*
D03*
X008354Y006358D02*
D03*
X009024D02*
D03*
X002854Y005768D02*
D03*
X003524D02*
D03*
X012864Y009045D02*
D03*
X013533D02*
D03*
X011486Y005148D02*
D03*
X012155D02*
D03*
X012155Y006644D02*
D03*
X011486D02*
D03*
X012155Y006132D02*
D03*
X011486D02*
D03*
X010197Y005640D02*
D03*
X010866D02*
D03*
X011486Y007510D02*
D03*
X012155D02*
D03*
Y009045D02*
D03*
X011486D02*
D03*
X012155Y008533D02*
D03*
X011486D02*
D03*
X010197Y008022D02*
D03*
X010866D02*
D03*
X003386Y007618D02*
D03*
X004055D02*
D03*
D100*
X023740Y005994D02*
D03*
X023110D02*
D03*
X019065Y003543D02*
D03*
X018435D02*
D03*
X020748Y003543D02*
D03*
X021378D02*
D03*
X020748Y002815D02*
D03*
X021378D02*
D03*
D101*
X007480Y006339D02*
D03*
Y005827D02*
D03*
X006732D02*
D03*
Y006083D02*
D03*
Y006339D02*
D03*
D102*
X000541Y006339D02*
D03*
Y007283D02*
D03*
D103*
Y005236D02*
D03*
Y008386D02*
D03*
D104*
X001673Y008031D02*
D03*
Y005591D02*
D03*
D105*
X001722Y007067D02*
D03*
Y007323D02*
D03*
Y006299D02*
D03*
Y006555D02*
D03*
Y006811D02*
D03*
D106*
X016309Y004981D02*
D03*
Y005650D02*
D03*
X016319Y006998D02*
D03*
Y006329D02*
D03*
X021014Y001801D02*
D03*
Y001132D02*
D03*
X006732Y007067D02*
D03*
Y007736D02*
D03*
X004528Y008346D02*
D03*
Y009016D02*
D03*
X006112Y005827D02*
D03*
Y005158D02*
D03*
X018533Y007756D02*
D03*
Y008425D02*
D03*
X015955Y007756D02*
D03*
Y008425D02*
D03*
X005512Y005158D02*
D03*
Y005827D02*
D03*
X016299Y003041D02*
D03*
Y003711D02*
D03*
D107*
X022766Y004104D02*
D03*
Y003002D02*
D03*
X017726Y008898D02*
D03*
Y007795D02*
D03*
X016762Y008898D02*
D03*
Y007795D02*
D03*
X017057Y004104D02*
D03*
Y003002D02*
D03*
D108*
X005925Y007726D02*
D03*
Y006978D02*
D03*
X004980D02*
D03*
Y007352D02*
D03*
Y007726D02*
D03*
D109*
X007146Y008730D02*
D03*
X006043D02*
D03*
D110*
X021791Y002057D02*
D03*
X022539D02*
D03*
Y001112D02*
D03*
X022165D02*
D03*
X021791D02*
D03*
D111*
X018474Y006585D02*
D03*
Y006329D02*
D03*
Y006073D02*
D03*
Y005817D02*
D03*
Y005561D02*
D03*
Y005305D02*
D03*
Y005049D02*
D03*
Y004793D02*
D03*
Y004537D02*
D03*
Y004281D02*
D03*
X021329D02*
D03*
Y004537D02*
D03*
Y004793D02*
D03*
Y005049D02*
D03*
Y005305D02*
D03*
Y005561D02*
D03*
Y005817D02*
D03*
Y006073D02*
D03*
Y006329D02*
D03*
Y006585D02*
D03*
D112*
X013512Y006201D02*
D03*
X014012D02*
D03*
X014512D02*
D03*
X015012D02*
D03*
X013512Y008150D02*
D03*
X014012D02*
D03*
X014512D02*
D03*
X015012D02*
D03*
D113*
X018234Y000860D02*
D03*
Y001860D02*
D03*
X017234Y000860D02*
D03*
X015266Y000758D02*
D03*
X014282D02*
D03*
X013297D02*
D03*
X015266Y002018D02*
D03*
X014282D02*
D03*
X023258Y008947D02*
D03*
D114*
X017234Y001860D02*
D03*
D115*
X013297Y002018D02*
D03*
D116*
X003264Y009951D02*
D03*
D117*
Y010951D02*
D03*
X004264Y009951D02*
D03*
Y010951D02*
D03*
X005264Y009951D02*
D03*
Y010951D02*
D03*
X006264Y009951D02*
D03*
Y010951D02*
D03*
X007264Y009951D02*
D03*
Y010951D02*
D03*
X008264Y009951D02*
D03*
Y010951D02*
D03*
X009264Y009951D02*
D03*
Y010951D02*
D03*
X010264Y009951D02*
D03*
Y010951D02*
D03*
X011264Y009951D02*
D03*
Y010951D02*
D03*
X012264Y009951D02*
D03*
Y010951D02*
D03*
X013264Y009951D02*
D03*
Y010951D02*
D03*
X014264Y009951D02*
D03*
Y010951D02*
D03*
X015264Y009951D02*
D03*
Y010951D02*
D03*
X016264Y009951D02*
D03*
Y010951D02*
D03*
X017264Y009951D02*
D03*
Y010951D02*
D03*
X018264Y009951D02*
D03*
Y010951D02*
D03*
X019264Y009951D02*
D03*
Y010951D02*
D03*
X020264Y009951D02*
D03*
Y010951D02*
D03*
X021264Y009951D02*
D03*
Y010951D02*
D03*
X022264Y009951D02*
D03*
Y010951D02*
D03*
D118*
X001378Y001378D02*
D03*
Y010433D02*
D03*
D119*
X024213D02*
D03*
Y001378D02*
D03*
D120*
X020266Y008947D02*
D03*
X021266D02*
D03*
X022266D02*
D03*
D121*
X009872Y003386D02*
D03*
X011841Y001417D02*
D03*
Y000433D02*
D03*
X007904D02*
D03*
Y001417D02*
D03*
X004872Y003386D02*
D03*
X006841Y001417D02*
D03*
Y000433D02*
D03*
X002904D02*
D03*
Y001417D02*
D03*
D122*
X011841Y003386D02*
D03*
X010856D02*
D03*
X007904D02*
D03*
X008888D02*
D03*
X009872Y001417D02*
D03*
X006841Y003386D02*
D03*
X005856D02*
D03*
X002904D02*
D03*
X003888D02*
D03*
X004872Y001417D02*
D03*
D123*
X002260Y006220D02*
D03*
Y007330D02*
D03*
M02*
