G04 Layer_Physical_Order=2*
G04 Layer_Color=36540*
%FSAX24Y24*%
%MOIN*%
G70*
G01*
G75*
%ADD37C,0.0197*%
%ADD44C,0.0591*%
%ADD48C,0.0600*%
%ADD52C,0.0860*%
%ADD53C,0.0315*%
%ADD54C,0.0200*%
%ADD56C,0.0280*%
G36*
X023052Y011373D02*
X023301D01*
X023310Y011350D01*
X023314Y011323D01*
X023189Y011177D01*
X023085Y011007D01*
X023010Y010824D01*
X022963Y010631D01*
X022948Y010433D01*
X022963Y010235D01*
X023010Y010042D01*
X023085Y009859D01*
X023189Y009690D01*
X023318Y009539D01*
X023469Y009410D01*
X023638Y009306D01*
X023822Y009230D01*
X024015Y009184D01*
X024213Y009168D01*
X024410Y009184D01*
X024604Y009230D01*
X024787Y009306D01*
X024956Y009410D01*
X025103Y009535D01*
X025129Y009530D01*
X025153Y009522D01*
Y009331D01*
X025335D01*
Y009232D01*
X025153D01*
Y008889D01*
X025335D01*
Y008789D01*
X025153D01*
Y008446D01*
X025335D01*
Y008346D01*
X025153D01*
Y007993D01*
X025335D01*
Y007893D01*
X025153D01*
Y007550D01*
X025335D01*
Y007450D01*
X025153D01*
Y007097D01*
X025335D01*
Y006997D01*
X025153D01*
Y006654D01*
X025335D01*
Y006554D01*
X025153D01*
Y006202D01*
X025335D01*
Y006102D01*
X025153D01*
Y005759D01*
X025335D01*
Y005659D01*
X025153D01*
Y005306D01*
X025335D01*
Y005206D01*
X025153D01*
Y004863D01*
X025335D01*
Y004763D01*
X025153D01*
Y004410D01*
X025335D01*
Y004310D01*
X025153D01*
Y003967D01*
X025335D01*
Y003867D01*
X025153D01*
Y003515D01*
X025335D01*
Y003415D01*
X025153D01*
Y003072D01*
X025335D01*
Y002972D01*
X025153D01*
Y002629D01*
X025335D01*
Y002529D01*
X025153D01*
Y002289D01*
X025129Y002281D01*
X025103Y002276D01*
X024956Y002401D01*
X024787Y002505D01*
X024604Y002581D01*
X024410Y002627D01*
X024213Y002643D01*
X024015Y002627D01*
X023822Y002581D01*
X023638Y002505D01*
X023469Y002401D01*
X023318Y002272D01*
X023189Y002121D01*
X023085Y001952D01*
X023010Y001769D01*
X022963Y001576D01*
X022948Y001378D01*
X022963Y001180D01*
X023010Y000987D01*
X023085Y000804D01*
X023189Y000634D01*
X023314Y000488D01*
X023310Y000461D01*
X023301Y000438D01*
X023111D01*
Y000256D01*
X023011D01*
Y000438D01*
X021654D01*
Y000256D01*
X021554D01*
Y000438D01*
X021221D01*
Y000256D01*
X021121D01*
Y000438D01*
X020770D01*
Y000256D01*
X020670D01*
Y000438D01*
X020237D01*
Y000256D01*
X020137D01*
Y000438D01*
X019834D01*
Y000256D01*
X019784D01*
Y000206D01*
X019611D01*
X019615Y000186D01*
X019623Y000175D01*
X019599Y000131D01*
X019489D01*
Y000206D01*
X019499Y000256D01*
X019489Y000306D01*
X019489Y002441D01*
X017579Y002441D01*
X017579Y004569D01*
X017592Y004581D01*
X017629Y004602D01*
X017687Y004590D01*
X017757Y004604D01*
X017775Y004616D01*
X017828D01*
X017846Y004566D01*
X017814Y004519D01*
X017810Y004499D01*
X018155D01*
X018151Y004519D01*
X018119Y004566D01*
X018137Y004616D01*
X018834Y004616D01*
X018837Y004614D01*
X018907Y004600D01*
X018978Y004614D01*
X018981Y004616D01*
X019163D01*
X019163Y009527D01*
X018340Y009527D01*
X018337Y009577D01*
X018363Y009581D01*
X018455Y009619D01*
X018535Y009680D01*
X018596Y009759D01*
X018634Y009852D01*
X018647Y009951D01*
X018634Y010050D01*
X018596Y010142D01*
X018535Y010222D01*
X018455Y010283D01*
X018363Y010321D01*
X018264Y010334D01*
X018165Y010321D01*
X018072Y010283D01*
X017993Y010222D01*
X017932Y010142D01*
X017894Y010050D01*
X017881Y009951D01*
X017894Y009852D01*
X017932Y009759D01*
X017993Y009680D01*
X018072Y009619D01*
X018165Y009581D01*
X018191Y009577D01*
X018188Y009527D01*
X017341Y009527D01*
X017338Y009577D01*
X017363Y009581D01*
X017455Y009619D01*
X017535Y009680D01*
X017596Y009759D01*
X017634Y009852D01*
X017647Y009951D01*
X017634Y010050D01*
X017596Y010142D01*
X017535Y010222D01*
X017455Y010283D01*
X017363Y010321D01*
X017264Y010334D01*
X017165Y010321D01*
X017072Y010283D01*
X016993Y010222D01*
X016932Y010142D01*
X016894Y010050D01*
X016881Y009951D01*
X016894Y009852D01*
X016932Y009759D01*
X016993Y009680D01*
X017072Y009619D01*
X017165Y009581D01*
X017190Y009577D01*
X017187Y009527D01*
X016342Y009527D01*
X016338Y009577D01*
X016363Y009581D01*
X016455Y009619D01*
X016535Y009680D01*
X016596Y009759D01*
X016634Y009852D01*
X016647Y009951D01*
X016634Y010050D01*
X016596Y010142D01*
X016535Y010222D01*
X016455Y010283D01*
X016363Y010321D01*
X016264Y010334D01*
X016165Y010321D01*
X016072Y010283D01*
X015993Y010222D01*
X015932Y010142D01*
X015894Y010050D01*
X015881Y009951D01*
X015894Y009852D01*
X015932Y009759D01*
X015993Y009680D01*
X016072Y009619D01*
X016165Y009581D01*
X016189Y009577D01*
X016186Y009527D01*
X015343Y009527D01*
X015339Y009577D01*
X015363Y009581D01*
X015455Y009619D01*
X015535Y009680D01*
X015596Y009759D01*
X015634Y009852D01*
X015647Y009951D01*
X015634Y010050D01*
X015596Y010142D01*
X015535Y010222D01*
X015455Y010283D01*
X015363Y010321D01*
X015264Y010334D01*
X015165Y010321D01*
X015072Y010283D01*
X014993Y010222D01*
X014932Y010142D01*
X014894Y010050D01*
X014881Y009951D01*
X014894Y009852D01*
X014932Y009759D01*
X014993Y009680D01*
X015072Y009619D01*
X015165Y009581D01*
X015188Y009577D01*
X015185Y009527D01*
X014343Y009528D01*
X014340Y009578D01*
X014363Y009581D01*
X014455Y009619D01*
X014535Y009680D01*
X014596Y009759D01*
X014634Y009852D01*
X014647Y009951D01*
X014634Y010050D01*
X014596Y010142D01*
X014535Y010222D01*
X014455Y010283D01*
X014363Y010321D01*
X014264Y010334D01*
X014165Y010321D01*
X014072Y010283D01*
X013993Y010222D01*
X013932Y010142D01*
X013894Y010050D01*
X013881Y009951D01*
X013894Y009852D01*
X013932Y009759D01*
X013993Y009680D01*
X014072Y009619D01*
X014165Y009581D01*
X014187Y009578D01*
X014184Y009528D01*
X013344Y009528D01*
X013341Y009578D01*
X013363Y009581D01*
X013455Y009619D01*
X013535Y009680D01*
X013596Y009759D01*
X013634Y009852D01*
X013647Y009951D01*
X013634Y010050D01*
X013596Y010142D01*
X013535Y010222D01*
X013455Y010283D01*
X013363Y010321D01*
X013264Y010334D01*
X013165Y010321D01*
X013072Y010283D01*
X012993Y010222D01*
X012932Y010142D01*
X012894Y010050D01*
X012881Y009951D01*
X012894Y009852D01*
X012932Y009759D01*
X012993Y009680D01*
X013072Y009619D01*
X013165Y009581D01*
X013186Y009578D01*
X013183Y009528D01*
X012345Y009528D01*
X012342Y009578D01*
X012363Y009581D01*
X012455Y009619D01*
X012535Y009680D01*
X012596Y009759D01*
X012634Y009852D01*
X012647Y009951D01*
X012634Y010050D01*
X012596Y010142D01*
X012535Y010222D01*
X012455Y010283D01*
X012363Y010321D01*
X012264Y010334D01*
X012165Y010321D01*
X012072Y010283D01*
X011993Y010222D01*
X011932Y010142D01*
X011894Y010050D01*
X011881Y009951D01*
X011894Y009852D01*
X011932Y009759D01*
X011993Y009680D01*
X012072Y009619D01*
X012165Y009581D01*
X012186Y009578D01*
X012182Y009528D01*
X011346Y009528D01*
X011343Y009578D01*
X011363Y009581D01*
X011455Y009619D01*
X011535Y009680D01*
X011596Y009759D01*
X011634Y009852D01*
X011647Y009951D01*
X011634Y010050D01*
X011596Y010142D01*
X011535Y010222D01*
X011455Y010283D01*
X011363Y010321D01*
X011264Y010334D01*
X011165Y010321D01*
X011072Y010283D01*
X010993Y010222D01*
X010932Y010142D01*
X010894Y010050D01*
X010881Y009951D01*
X010894Y009852D01*
X010932Y009759D01*
X010993Y009680D01*
X011072Y009619D01*
X011165Y009581D01*
X011185Y009578D01*
X011181Y009528D01*
X010347Y009528D01*
X010344Y009578D01*
X010363Y009581D01*
X010455Y009619D01*
X010535Y009680D01*
X010596Y009759D01*
X010634Y009852D01*
X010647Y009951D01*
X010634Y010050D01*
X010596Y010142D01*
X010535Y010222D01*
X010455Y010283D01*
X010363Y010321D01*
X010264Y010334D01*
X010165Y010321D01*
X010072Y010283D01*
X009993Y010222D01*
X009932Y010142D01*
X009894Y010050D01*
X009881Y009951D01*
X009894Y009852D01*
X009932Y009759D01*
X009993Y009680D01*
X010072Y009619D01*
X010165Y009581D01*
X010184Y009578D01*
X010180Y009528D01*
X009348Y009528D01*
X009345Y009578D01*
X009363Y009581D01*
X009455Y009619D01*
X009535Y009680D01*
X009596Y009759D01*
X009634Y009852D01*
X009647Y009951D01*
X009634Y010050D01*
X009596Y010142D01*
X009535Y010222D01*
X009455Y010283D01*
X009363Y010321D01*
X009264Y010334D01*
X009165Y010321D01*
X009072Y010283D01*
X008993Y010222D01*
X008932Y010142D01*
X008894Y010050D01*
X008881Y009951D01*
X008894Y009852D01*
X008932Y009759D01*
X008993Y009680D01*
X009072Y009619D01*
X009165Y009581D01*
X009183Y009578D01*
X009180Y009528D01*
X008349Y009528D01*
X008346Y009578D01*
X008363Y009581D01*
X008455Y009619D01*
X008535Y009680D01*
X008596Y009759D01*
X008634Y009852D01*
X008647Y009951D01*
X008634Y010050D01*
X008596Y010142D01*
X008535Y010222D01*
X008455Y010283D01*
X008363Y010321D01*
X008264Y010334D01*
X008165Y010321D01*
X008072Y010283D01*
X007993Y010222D01*
X007932Y010142D01*
X007894Y010050D01*
X007847Y010062D01*
Y010260D01*
X007860Y010276D01*
X007932Y010325D01*
X007980Y010397D01*
X007987Y010432D01*
X007774D01*
Y010532D01*
X007987D01*
X007980Y010568D01*
X007932Y010640D01*
X007860Y010688D01*
X007847Y010705D01*
Y010839D01*
X007894Y010852D01*
X007932Y010759D01*
X007993Y010680D01*
X008072Y010619D01*
X008165Y010581D01*
X008264Y010568D01*
X008363Y010581D01*
X008455Y010619D01*
X008535Y010680D01*
X008596Y010759D01*
X008634Y010852D01*
X008647Y010951D01*
X008634Y011050D01*
X008596Y011142D01*
X008535Y011222D01*
X008455Y011283D01*
X008363Y011321D01*
X008347Y011323D01*
X008350Y011373D01*
X008533D01*
Y011555D01*
X008633D01*
Y011373D01*
X009025D01*
Y011555D01*
X009125D01*
Y011373D01*
X009178D01*
X009181Y011323D01*
X009165Y011321D01*
X009072Y011283D01*
X008993Y011222D01*
X008932Y011142D01*
X008894Y011050D01*
X008881Y010951D01*
X008894Y010852D01*
X008932Y010759D01*
X008993Y010680D01*
X009072Y010619D01*
X009165Y010581D01*
X009264Y010568D01*
X009363Y010581D01*
X009455Y010619D01*
X009535Y010680D01*
X009596Y010759D01*
X009634Y010852D01*
X009647Y010951D01*
X009634Y011050D01*
X009596Y011142D01*
X009535Y011222D01*
X009455Y011283D01*
X009363Y011321D01*
X009347Y011323D01*
X009350Y011373D01*
X009527D01*
Y011555D01*
X009627D01*
Y011373D01*
X010029D01*
Y011555D01*
X010129D01*
Y011373D01*
X010178D01*
X010181Y011323D01*
X010165Y011321D01*
X010072Y011283D01*
X009993Y011222D01*
X009932Y011142D01*
X009894Y011050D01*
X009881Y010951D01*
X009894Y010852D01*
X009932Y010759D01*
X009993Y010680D01*
X010072Y010619D01*
X010165Y010581D01*
X010264Y010568D01*
X010363Y010581D01*
X010455Y010619D01*
X010535Y010680D01*
X010596Y010759D01*
X010634Y010852D01*
X010647Y010951D01*
X010634Y011050D01*
X010596Y011142D01*
X010535Y011222D01*
X010455Y011283D01*
X010363Y011321D01*
X010347Y011323D01*
X010350Y011373D01*
X010521D01*
Y011555D01*
X010621D01*
Y011373D01*
X011023D01*
Y011555D01*
X011123D01*
Y011373D01*
X011178D01*
X011181Y011323D01*
X011165Y011321D01*
X011072Y011283D01*
X010993Y011222D01*
X010932Y011142D01*
X010894Y011050D01*
X010881Y010951D01*
X010894Y010852D01*
X010932Y010759D01*
X010993Y010680D01*
X011072Y010619D01*
X011165Y010581D01*
X011264Y010568D01*
X011363Y010581D01*
X011455Y010619D01*
X011535Y010680D01*
X011596Y010759D01*
X011634Y010852D01*
X011647Y010951D01*
X011634Y011050D01*
X011596Y011142D01*
X011535Y011222D01*
X011455Y011283D01*
X011363Y011321D01*
X011347Y011323D01*
X011350Y011373D01*
X011515D01*
Y011555D01*
X011615D01*
Y011373D01*
X012017D01*
Y011555D01*
X012117D01*
Y011373D01*
X012178D01*
X012181Y011323D01*
X012165Y011321D01*
X012072Y011283D01*
X011993Y011222D01*
X011932Y011142D01*
X011894Y011050D01*
X011881Y010951D01*
X011894Y010852D01*
X011932Y010759D01*
X011993Y010680D01*
X012072Y010619D01*
X012165Y010581D01*
X012264Y010568D01*
X012363Y010581D01*
X012455Y010619D01*
X012535Y010680D01*
X012596Y010759D01*
X012634Y010852D01*
X012647Y010951D01*
X012634Y011050D01*
X012596Y011142D01*
X012535Y011222D01*
X012455Y011283D01*
X012363Y011321D01*
X012347Y011323D01*
X012350Y011373D01*
X012509D01*
Y011555D01*
X012609D01*
Y011373D01*
X013011D01*
Y011555D01*
X013111D01*
Y011373D01*
X013178D01*
X013181Y011323D01*
X013165Y011321D01*
X013072Y011283D01*
X012993Y011222D01*
X012932Y011142D01*
X012894Y011050D01*
X012881Y010951D01*
X012894Y010852D01*
X012932Y010759D01*
X012993Y010680D01*
X013072Y010619D01*
X013165Y010581D01*
X013264Y010568D01*
X013363Y010581D01*
X013455Y010619D01*
X013535Y010680D01*
X013596Y010759D01*
X013634Y010852D01*
X013647Y010951D01*
X013634Y011050D01*
X013596Y011142D01*
X013535Y011222D01*
X013455Y011283D01*
X013363Y011321D01*
X013347Y011323D01*
X013350Y011373D01*
X013503D01*
Y011555D01*
X013603D01*
Y011373D01*
X014005D01*
Y011555D01*
X014105D01*
Y011373D01*
X014178D01*
X014181Y011323D01*
X014165Y011321D01*
X014072Y011283D01*
X013993Y011222D01*
X013932Y011142D01*
X013894Y011050D01*
X013881Y010951D01*
X013894Y010852D01*
X013932Y010759D01*
X013993Y010680D01*
X014072Y010619D01*
X014165Y010581D01*
X014264Y010568D01*
X014363Y010581D01*
X014455Y010619D01*
X014535Y010680D01*
X014596Y010759D01*
X014634Y010852D01*
X014647Y010951D01*
X014634Y011050D01*
X014596Y011142D01*
X014535Y011222D01*
X014455Y011283D01*
X014363Y011321D01*
X014347Y011323D01*
X014350Y011373D01*
X014497D01*
Y011555D01*
X014597D01*
Y011373D01*
X014999D01*
Y011555D01*
X015099D01*
Y011373D01*
X015178D01*
X015181Y011323D01*
X015165Y011321D01*
X015072Y011283D01*
X014993Y011222D01*
X014932Y011142D01*
X014894Y011050D01*
X014881Y010951D01*
X014894Y010852D01*
X014932Y010759D01*
X014993Y010680D01*
X015072Y010619D01*
X015165Y010581D01*
X015264Y010568D01*
X015363Y010581D01*
X015455Y010619D01*
X015535Y010680D01*
X015596Y010759D01*
X015634Y010852D01*
X015647Y010951D01*
X015634Y011050D01*
X015596Y011142D01*
X015535Y011222D01*
X015455Y011283D01*
X015363Y011321D01*
X015347Y011323D01*
X015350Y011373D01*
X015491D01*
Y011555D01*
X015591D01*
Y011373D01*
X015993D01*
Y011555D01*
X016093D01*
Y011373D01*
X016178D01*
X016181Y011323D01*
X016165Y011321D01*
X016072Y011283D01*
X015993Y011222D01*
X015932Y011142D01*
X015894Y011050D01*
X015881Y010951D01*
X015894Y010852D01*
X015932Y010759D01*
X015993Y010680D01*
X016072Y010619D01*
X016165Y010581D01*
X016264Y010568D01*
X016363Y010581D01*
X016455Y010619D01*
X016535Y010680D01*
X016596Y010759D01*
X016634Y010852D01*
X016647Y010951D01*
X016634Y011050D01*
X016596Y011142D01*
X016535Y011222D01*
X016455Y011283D01*
X016363Y011321D01*
X016347Y011323D01*
X016350Y011373D01*
X016495D01*
Y011555D01*
X016595D01*
Y011373D01*
X016987D01*
Y011555D01*
X017087D01*
Y011373D01*
X017178D01*
X017181Y011323D01*
X017165Y011321D01*
X017072Y011283D01*
X016993Y011222D01*
X016932Y011142D01*
X016894Y011050D01*
X016881Y010951D01*
X016894Y010852D01*
X016932Y010759D01*
X016993Y010680D01*
X017072Y010619D01*
X017165Y010581D01*
X017264Y010568D01*
X017363Y010581D01*
X017455Y010619D01*
X017535Y010680D01*
X017596Y010759D01*
X017634Y010852D01*
X017647Y010951D01*
X017634Y011050D01*
X017596Y011142D01*
X017535Y011222D01*
X017455Y011283D01*
X017363Y011321D01*
X017347Y011323D01*
X017350Y011373D01*
X017489D01*
Y011555D01*
X017589D01*
Y011373D01*
X017981D01*
Y011555D01*
X018082D01*
Y011373D01*
X018178D01*
X018181Y011323D01*
X018165Y011321D01*
X018072Y011283D01*
X017993Y011222D01*
X017932Y011142D01*
X017894Y011050D01*
X017881Y010951D01*
X017894Y010852D01*
X017932Y010759D01*
X017993Y010680D01*
X018072Y010619D01*
X018165Y010581D01*
X018264Y010568D01*
X018363Y010581D01*
X018455Y010619D01*
X018535Y010680D01*
X018596Y010759D01*
X018634Y010852D01*
X018647Y010951D01*
X018634Y011050D01*
X018596Y011142D01*
X018535Y011222D01*
X018455Y011283D01*
X018363Y011321D01*
X018347Y011323D01*
X018350Y011373D01*
X018483D01*
Y011555D01*
X018583D01*
Y011373D01*
X018976D01*
Y011555D01*
X019076D01*
Y011373D01*
X019178D01*
X019181Y011323D01*
X019165Y011321D01*
X019072Y011283D01*
X018993Y011222D01*
X018932Y011142D01*
X018894Y011050D01*
X018881Y010951D01*
X018894Y010852D01*
X018932Y010759D01*
X018993Y010680D01*
X019072Y010619D01*
X019165Y010581D01*
X019264Y010568D01*
X019363Y010581D01*
X019455Y010619D01*
X019535Y010680D01*
X019596Y010759D01*
X019634Y010852D01*
X019647Y010951D01*
X019634Y011050D01*
X019596Y011142D01*
X019535Y011222D01*
X019455Y011283D01*
X019363Y011321D01*
X019347Y011323D01*
X019350Y011373D01*
X019478D01*
Y011555D01*
X019578D01*
Y011373D01*
X019970D01*
Y011555D01*
X020070D01*
Y011373D01*
X020178D01*
X020181Y011323D01*
X020165Y011321D01*
X020072Y011283D01*
X019993Y011222D01*
X019932Y011142D01*
X019894Y011050D01*
X019881Y010951D01*
X019894Y010852D01*
X019932Y010759D01*
X019993Y010680D01*
X020072Y010619D01*
X020165Y010581D01*
X020264Y010568D01*
X020363Y010581D01*
X020455Y010619D01*
X020535Y010680D01*
X020596Y010759D01*
X020634Y010852D01*
X020647Y010951D01*
X020634Y011050D01*
X020596Y011142D01*
X020535Y011222D01*
X020455Y011283D01*
X020363Y011321D01*
X020347Y011323D01*
X020350Y011373D01*
X020472D01*
Y011555D01*
X020572D01*
Y011373D01*
X020964D01*
Y011555D01*
X021064D01*
Y011373D01*
X021178D01*
X021181Y011323D01*
X021165Y011321D01*
X021072Y011283D01*
X020993Y011222D01*
X020932Y011142D01*
X020894Y011050D01*
X020881Y010951D01*
X020894Y010852D01*
X020932Y010759D01*
X020993Y010680D01*
X021072Y010619D01*
X021165Y010581D01*
X021264Y010568D01*
X021363Y010581D01*
X021455Y010619D01*
X021535Y010680D01*
X021596Y010759D01*
X021634Y010852D01*
X021647Y010951D01*
X021634Y011050D01*
X021596Y011142D01*
X021535Y011222D01*
X021455Y011283D01*
X021363Y011321D01*
X021347Y011323D01*
X021350Y011373D01*
X021466D01*
Y011555D01*
X021566D01*
Y011373D01*
X021958D01*
Y011555D01*
X022058D01*
Y011373D01*
X022178D01*
X022181Y011323D01*
X022165Y011321D01*
X022072Y011283D01*
X021993Y011222D01*
X021932Y011142D01*
X021894Y011050D01*
X021881Y010951D01*
X021894Y010852D01*
X021932Y010759D01*
X021993Y010680D01*
X022072Y010619D01*
X022165Y010581D01*
X022264Y010568D01*
X022363Y010581D01*
X022455Y010619D01*
X022535Y010680D01*
X022596Y010759D01*
X022634Y010852D01*
X022647Y010951D01*
X022634Y011050D01*
X022596Y011142D01*
X022535Y011222D01*
X022455Y011283D01*
X022363Y011321D01*
X022347Y011323D01*
X022350Y011373D01*
X022460D01*
Y011555D01*
X022560D01*
Y011373D01*
X022952D01*
Y011555D01*
X023052D01*
Y011373D01*
D02*
G37*
G36*
X005953Y011704D02*
X005959Y011679D01*
X005923Y011625D01*
X005909Y011555D01*
X005923Y011485D01*
X005963Y011425D01*
X006022Y011386D01*
X006093Y011372D01*
X006101Y011373D01*
X006178D01*
X006181Y011323D01*
X006165Y011321D01*
X006072Y011283D01*
X005993Y011222D01*
X005932Y011142D01*
X005894Y011050D01*
X005881Y010951D01*
X005894Y010852D01*
X005932Y010759D01*
X005993Y010680D01*
X006072Y010619D01*
X006165Y010581D01*
X006264Y010568D01*
X006363Y010581D01*
X006455Y010619D01*
X006535Y010680D01*
X006596Y010759D01*
X006634Y010852D01*
X006647Y010951D01*
X006634Y011050D01*
X006596Y011142D01*
X006535Y011222D01*
X006455Y011283D01*
X006363Y011321D01*
X006347Y011323D01*
X006350Y011373D01*
X006586D01*
X006594Y011372D01*
X006603Y011373D01*
X007079D01*
X007087Y011372D01*
X007095Y011373D01*
X007178D01*
X007181Y011323D01*
X007165Y011321D01*
X007072Y011283D01*
X006993Y011222D01*
X006932Y011142D01*
X006894Y011050D01*
X006881Y010951D01*
X006894Y010852D01*
X006932Y010759D01*
X006993Y010680D01*
X007072Y010619D01*
X007165Y010581D01*
X007264Y010568D01*
X007363Y010581D01*
X007455Y010619D01*
X007535Y010680D01*
X007596Y010759D01*
X007634Y010852D01*
X007647Y010951D01*
X007634Y011050D01*
X007596Y011142D01*
X007535Y011222D01*
X007455Y011283D01*
X007363Y011321D01*
X007347Y011323D01*
X007350Y011373D01*
X007581D01*
X007589Y011372D01*
X007597Y011373D01*
X007766D01*
Y010705D01*
X007688Y010690D01*
X007616Y010641D01*
X007567Y010568D01*
X007550Y010482D01*
X007567Y010396D01*
X007616Y010324D01*
X007688Y010275D01*
X007766Y010260D01*
Y009469D01*
X005648Y009469D01*
X005648Y008454D01*
X005303D01*
X005303Y008110D01*
X004764D01*
Y007440D01*
X003000D01*
Y006721D01*
X002343D01*
Y006484D01*
X002310Y006457D01*
Y006220D01*
Y005984D01*
X002343Y005957D01*
Y004461D01*
X002293Y004452D01*
X002247Y004521D01*
X002169Y004573D01*
X002127Y004581D01*
Y004350D01*
X002077D01*
Y004300D01*
X001846D01*
X001854Y004258D01*
X001906Y004180D01*
X001945Y004154D01*
X001930Y004104D01*
X000389D01*
X000386Y004109D01*
X000352Y004132D01*
X000351Y004191D01*
X000385Y004213D01*
X000424Y004272D01*
X000428Y004292D01*
X000256D01*
Y004392D01*
X000432D01*
X000438Y004424D01*
Y004655D01*
X000256D01*
Y004705D01*
X000206D01*
Y004877D01*
X000186Y004873D01*
X000132Y004837D01*
X000110Y004842D01*
X000082Y004856D01*
Y005636D01*
X000110Y005650D01*
X000132Y005655D01*
X000186Y005619D01*
X000206Y005615D01*
Y005787D01*
Y005960D01*
X000186Y005956D01*
X000132Y005919D01*
X000110Y005925D01*
X000082Y005939D01*
Y007382D01*
X000082Y007382D01*
Y007703D01*
X000110Y007717D01*
X000132Y007722D01*
X000186Y007686D01*
X000206Y007682D01*
Y007854D01*
Y008027D01*
X000186Y008023D01*
X000132Y007986D01*
X000110Y007992D01*
X000082Y008005D01*
Y008766D01*
X000110Y008780D01*
X000132Y008785D01*
X000186Y008749D01*
X000206Y008745D01*
Y008917D01*
X000256D01*
Y008967D01*
X000438D01*
Y009232D01*
X000256D01*
Y009331D01*
X000438D01*
Y009522D01*
X000461Y009530D01*
X000488Y009535D01*
X000634Y009410D01*
X000804Y009306D01*
X000987Y009230D01*
X001180Y009184D01*
X001378Y009168D01*
X001576Y009184D01*
X001769Y009230D01*
X001952Y009306D01*
X002121Y009410D01*
X002272Y009539D01*
X002401Y009690D01*
X002505Y009859D01*
X002581Y010042D01*
X002627Y010235D01*
X002643Y010433D01*
X002627Y010631D01*
X002581Y010824D01*
X002505Y011007D01*
X002401Y011177D01*
X002276Y011323D01*
X002281Y011350D01*
X002289Y011373D01*
X002558D01*
Y011555D01*
X002658D01*
Y011373D01*
X003060D01*
Y011555D01*
X003160D01*
Y011373D01*
X003178D01*
X003181Y011323D01*
X003165Y011321D01*
X003072Y011283D01*
X002993Y011222D01*
X002932Y011142D01*
X002894Y011050D01*
X002881Y010951D01*
X002894Y010852D01*
X002932Y010759D01*
X002993Y010680D01*
X003072Y010619D01*
X003165Y010581D01*
X003264Y010568D01*
X003363Y010581D01*
X003455Y010619D01*
X003535Y010680D01*
X003596Y010759D01*
X003634Y010852D01*
X003647Y010951D01*
X003634Y011050D01*
X003596Y011142D01*
X003535Y011222D01*
X003455Y011283D01*
X003363Y011321D01*
X003347Y011323D01*
X003350Y011373D01*
X003562D01*
Y011555D01*
X003662D01*
Y011373D01*
X004054D01*
Y011555D01*
X004154D01*
Y011373D01*
X004178D01*
X004181Y011323D01*
X004165Y011321D01*
X004072Y011283D01*
X003993Y011222D01*
X003932Y011142D01*
X003894Y011050D01*
X003881Y010951D01*
X003894Y010852D01*
X003932Y010759D01*
X003993Y010680D01*
X004072Y010619D01*
X004165Y010581D01*
X004264Y010568D01*
X004363Y010581D01*
X004455Y010619D01*
X004535Y010680D01*
X004596Y010759D01*
X004634Y010852D01*
X004647Y010951D01*
X004634Y011050D01*
X004596Y011142D01*
X004535Y011222D01*
X004455Y011283D01*
X004363Y011321D01*
X004347Y011323D01*
X004350Y011373D01*
X004556D01*
Y011555D01*
X004656D01*
Y011373D01*
X005048D01*
Y011555D01*
X005148D01*
Y011373D01*
X005187D01*
X005191Y011323D01*
X005165Y011320D01*
X005073Y011282D01*
X004994Y011221D01*
X004933Y011142D01*
X004895Y011050D01*
X004888Y011001D01*
X005639D01*
X005633Y011050D01*
X005595Y011142D01*
X005534Y011221D01*
X005455Y011282D01*
X005363Y011320D01*
X005337Y011323D01*
X005340Y011373D01*
X005550D01*
Y011555D01*
X005600D01*
Y011605D01*
X005773D01*
X005769Y011625D01*
X005732Y011679D01*
X005738Y011701D01*
X005752Y011729D01*
X005939D01*
X005953Y011704D01*
D02*
G37*
G36*
X007932Y009759D02*
X007993Y009680D01*
X008072Y009619D01*
X008165Y009581D01*
X008264Y009568D01*
X008265Y009567D01*
X008267Y009523D01*
X008271Y009510D01*
X008273Y009497D01*
X008275Y009495D01*
X008276Y009492D01*
X008284Y009482D01*
X008291Y009471D01*
X008293Y009469D01*
X008295Y009467D01*
X008307Y009460D01*
X008318Y009453D01*
X008320Y009452D01*
X008323Y009451D01*
X008336Y009449D01*
X008349Y009447D01*
X009180Y009447D01*
X009193Y009449D01*
X009206Y009451D01*
X009208Y009452D01*
X009211Y009453D01*
X009222Y009460D01*
X009233Y009467D01*
X009234Y009467D01*
X009241Y009471D01*
X009287Y009471D01*
X009294Y009467D01*
X009294Y009467D01*
X009306Y009460D01*
X009317Y009453D01*
X009319Y009452D01*
X009322Y009451D01*
X009335Y009449D01*
X009348Y009447D01*
X010180Y009447D01*
X010193Y009449D01*
X010207Y009451D01*
X010209Y009452D01*
X010212Y009453D01*
X010223Y009460D01*
X010234Y009467D01*
X010246Y009470D01*
X010281Y009470D01*
X010293Y009467D01*
X010305Y009460D01*
X010316Y009453D01*
X010318Y009452D01*
X010321Y009451D01*
X010334Y009449D01*
X010347Y009446D01*
X011181Y009446D01*
X011194Y009449D01*
X011208Y009451D01*
X011210Y009452D01*
X011213Y009453D01*
X011224Y009460D01*
X011235Y009467D01*
X011243Y009469D01*
X011253Y009470D01*
X011275Y009470D01*
X011284Y009469D01*
X011292Y009467D01*
X011304Y009460D01*
X011315Y009453D01*
X011318Y009452D01*
X011320Y009451D01*
X011333Y009449D01*
X011346Y009446D01*
X012182Y009446D01*
X012195Y009449D01*
X012208Y009451D01*
X012211Y009452D01*
X012213Y009452D01*
X012225Y009460D01*
X012236Y009467D01*
X012264Y009470D01*
X012291Y009467D01*
X012291Y009467D01*
X012303Y009460D01*
X012314Y009452D01*
X012317Y009452D01*
X012319Y009451D01*
X012332Y009449D01*
X012345Y009446D01*
X013183Y009446D01*
X013196Y009449D01*
X013209Y009450D01*
X013212Y009452D01*
X013214Y009452D01*
X013225Y009460D01*
X013237Y009466D01*
X013264Y009468D01*
X013291Y009466D01*
X013302Y009460D01*
X013313Y009452D01*
X013316Y009452D01*
X013318Y009450D01*
X013331Y009449D01*
X013344Y009446D01*
X014184Y009446D01*
X014197Y009449D01*
X014210Y009450D01*
X014213Y009452D01*
X014215Y009452D01*
X014226Y009460D01*
X014238Y009466D01*
X014264Y009468D01*
X014290Y009466D01*
X014301Y009460D01*
X014312Y009452D01*
X014315Y009452D01*
X014317Y009450D01*
X014330Y009449D01*
X014343Y009446D01*
X015185Y009446D01*
X015198Y009449D01*
X015211Y009450D01*
X015213Y009452D01*
X015216Y009452D01*
X015227Y009460D01*
X015239Y009466D01*
X015253Y009467D01*
X015274Y009467D01*
X015289Y009466D01*
X015300Y009460D01*
X015311Y009452D01*
X015314Y009452D01*
X015316Y009450D01*
X015330Y009449D01*
X015343Y009446D01*
X016186Y009446D01*
X016199Y009448D01*
X016212Y009450D01*
X016214Y009451D01*
X016217Y009452D01*
X016228Y009459D01*
X016240Y009466D01*
X016288Y009466D01*
X016299Y009459D01*
X016310Y009452D01*
X016313Y009451D01*
X016315Y009450D01*
X016329Y009448D01*
X016342Y009446D01*
X017187Y009446D01*
X017200Y009448D01*
X017213Y009450D01*
X017215Y009451D01*
X017218Y009452D01*
X017229Y009459D01*
X017240Y009466D01*
X017287Y009466D01*
X017299Y009459D01*
X017310Y009452D01*
X017312Y009451D01*
X017315Y009450D01*
X017328Y009448D01*
X017341Y009446D01*
X018188Y009446D01*
X018201Y009448D01*
X018214Y009450D01*
X018216Y009451D01*
X018219Y009452D01*
X018230Y009459D01*
X018241Y009466D01*
X018286Y009466D01*
X018298Y009459D01*
X018309Y009452D01*
X018311Y009451D01*
X018314Y009450D01*
X018327Y009448D01*
X018340Y009446D01*
X019082Y009445D01*
X019082Y004934D01*
X019053Y004921D01*
X019032Y004915D01*
X018977Y004952D01*
X018957Y004956D01*
Y004783D01*
X018907D01*
Y004733D01*
X018721D01*
X018694Y004698D01*
X018137Y004698D01*
X018135Y004697D01*
X018133Y004698D01*
X018119Y004694D01*
X018106Y004692D01*
X018104Y004690D01*
X018102Y004690D01*
X018091Y004682D01*
X018079Y004674D01*
X018078Y004672D01*
X018076Y004671D01*
X018069Y004659D01*
X018061Y004647D01*
X018061Y004645D01*
X018060Y004644D01*
X018051Y004619D01*
X017982Y004632D01*
X017914Y004619D01*
X017905Y004644D01*
X017904Y004645D01*
X017903Y004647D01*
X017895Y004659D01*
X017888Y004671D01*
X017887Y004672D01*
X017886Y004674D01*
X017855Y004704D01*
X017859Y004724D01*
X017515D01*
X017519Y004704D01*
X017528Y004690D01*
X017534Y004657D01*
X017521Y004627D01*
X017513Y004615D01*
X017505Y004604D01*
X017504Y004602D01*
X017503Y004601D01*
X017501Y004587D01*
X017497Y004573D01*
X017498Y004571D01*
X017497Y004569D01*
X017497Y002441D01*
X017503Y002410D01*
X017521Y002383D01*
X017548Y002366D01*
X017579Y002359D01*
X019407Y002359D01*
X019407Y000465D01*
X019365Y000435D01*
Y000256D01*
X019265D01*
Y000438D01*
X018897D01*
Y000256D01*
X018797D01*
Y000438D01*
X018429D01*
Y000256D01*
X018329D01*
Y000438D01*
X018284D01*
X018281Y000488D01*
X018332Y000495D01*
X018424Y000532D01*
X018502Y000593D01*
X018562Y000671D01*
X018600Y000762D01*
X018613Y000860D01*
X018600Y000958D01*
X018562Y001049D01*
X018502Y001128D01*
X018424Y001188D01*
X018332Y001226D01*
X018234Y001239D01*
X018136Y001226D01*
X018045Y001188D01*
X017967Y001128D01*
X017906Y001049D01*
X017869Y000958D01*
X017856Y000860D01*
X017869Y000762D01*
X017906Y000671D01*
X017967Y000593D01*
X018045Y000532D01*
X018136Y000495D01*
X018188Y000488D01*
X018185Y000438D01*
X017961D01*
Y000256D01*
X017861D01*
Y000438D01*
X017493D01*
Y000256D01*
X017393D01*
Y000438D01*
X017284D01*
X017281Y000488D01*
X017332Y000495D01*
X017424Y000532D01*
X017502Y000593D01*
X017562Y000671D01*
X017600Y000762D01*
X017613Y000860D01*
X017600Y000958D01*
X017562Y001049D01*
X017502Y001128D01*
X017424Y001188D01*
X017332Y001226D01*
X017234Y001239D01*
X017136Y001226D01*
X017045Y001188D01*
X016967Y001128D01*
X016906Y001049D01*
X016869Y000958D01*
X016856Y000860D01*
X016869Y000762D01*
X016906Y000671D01*
X016967Y000593D01*
X017045Y000532D01*
X017136Y000495D01*
X017188Y000488D01*
X017185Y000438D01*
X017025D01*
Y000256D01*
X016925D01*
Y000438D01*
X016556D01*
Y000256D01*
X016456D01*
Y000438D01*
X016088D01*
Y000256D01*
X015988D01*
Y000438D01*
X015543D01*
X015527Y000485D01*
X015533Y000490D01*
X015594Y000569D01*
X015631Y000660D01*
X015644Y000758D01*
X015631Y000856D01*
X015594Y000947D01*
X015533Y001026D01*
X015455Y001086D01*
X015364Y001123D01*
X015266Y001136D01*
X015168Y001123D01*
X015076Y001086D01*
X014998Y001026D01*
X014938Y000947D01*
X014900Y000856D01*
X014887Y000758D01*
X014900Y000660D01*
X014938Y000569D01*
X014998Y000490D01*
X015005Y000485D01*
X014989Y000438D01*
X014684D01*
Y000256D01*
X014584D01*
Y000438D01*
X014559D01*
X014543Y000485D01*
X014549Y000490D01*
X014609Y000569D01*
X014647Y000660D01*
X014660Y000758D01*
X014647Y000856D01*
X014609Y000947D01*
X014549Y001026D01*
X014471Y001086D01*
X014379Y001123D01*
X014282Y001136D01*
X014184Y001123D01*
X014092Y001086D01*
X014014Y001026D01*
X013954Y000947D01*
X013916Y000856D01*
X013903Y000758D01*
X013916Y000660D01*
X013954Y000569D01*
X014014Y000490D01*
X014020Y000485D01*
X014004Y000438D01*
X013747D01*
Y000256D01*
X013647D01*
Y000438D01*
X013574D01*
X013558Y000485D01*
X013565Y000490D01*
X013625Y000569D01*
X013663Y000660D01*
X013676Y000758D01*
X013663Y000856D01*
X013625Y000947D01*
X013565Y001026D01*
X013486Y001086D01*
X013395Y001123D01*
X013297Y001136D01*
X013199Y001123D01*
X013108Y001086D01*
X013030Y001026D01*
X012969Y000947D01*
X012932Y000856D01*
X012919Y000758D01*
X012932Y000660D01*
X012969Y000569D01*
X013030Y000490D01*
X013036Y000485D01*
X013020Y000438D01*
X012811D01*
Y000256D01*
X012711D01*
Y000438D01*
X012343D01*
Y000256D01*
X012243D01*
Y000428D01*
X012223Y000424D01*
X012207Y000414D01*
X012181Y000424D01*
X012158Y000441D01*
X012149Y000516D01*
X012117Y000592D01*
X012066Y000659D01*
X012000Y000709D01*
X011923Y000741D01*
X011841Y000752D01*
X011758Y000741D01*
X011681Y000709D01*
X011615Y000659D01*
X011564Y000592D01*
X011532Y000516D01*
X011522Y000433D01*
X011524Y000414D01*
X011508Y000402D01*
X011477Y000390D01*
X011426Y000424D01*
X011406Y000428D01*
Y000256D01*
X011306D01*
Y000438D01*
X010938D01*
Y000256D01*
X010838D01*
Y000438D01*
X010470D01*
Y000256D01*
X010370D01*
Y000438D01*
X010002D01*
Y000256D01*
X009902D01*
Y000438D01*
X009533D01*
Y000256D01*
X009433D01*
Y000438D01*
X009065D01*
Y000256D01*
X008965D01*
Y000438D01*
X008597D01*
Y000256D01*
X008547D01*
Y000206D01*
X008375D01*
X008379Y000186D01*
X008386Y000175D01*
X008363Y000131D01*
X008111D01*
X008094Y000181D01*
X008129Y000208D01*
X008180Y000274D01*
X008212Y000350D01*
X008222Y000433D01*
X008212Y000516D01*
X008180Y000592D01*
X008129Y000659D01*
X008063Y000709D01*
X007986Y000741D01*
X007904Y000752D01*
X007821Y000741D01*
X007744Y000709D01*
X007678Y000659D01*
X007627Y000592D01*
X007595Y000516D01*
X007585Y000433D01*
X007595Y000350D01*
X007627Y000274D01*
X007678Y000208D01*
X007713Y000181D01*
X007696Y000131D01*
X007547D01*
X007523Y000175D01*
X007531Y000186D01*
X007534Y000206D01*
X007190D01*
X007194Y000186D01*
X007201Y000175D01*
X007178Y000131D01*
X007048D01*
X007031Y000181D01*
X007066Y000208D01*
X007117Y000274D01*
X007149Y000350D01*
X007159Y000433D01*
X007149Y000516D01*
X007117Y000592D01*
X007066Y000659D01*
X007000Y000709D01*
X006923Y000741D01*
X006841Y000752D01*
X006758Y000741D01*
X006681Y000709D01*
X006615Y000659D01*
X006564Y000592D01*
X006532Y000516D01*
X006522Y000433D01*
X006532Y000350D01*
X006564Y000274D01*
X006615Y000208D01*
X006650Y000181D01*
X006633Y000131D01*
X006460D01*
X006440Y000168D01*
X006439Y000181D01*
X006444Y000206D01*
X006270D01*
Y000256D01*
X006220D01*
Y000428D01*
X006219Y000428D01*
X005789D01*
X005788Y000428D01*
Y000256D01*
X005688D01*
Y000428D01*
X005687Y000428D01*
X005321D01*
X005320Y000428D01*
Y000256D01*
X005220D01*
Y000428D01*
X005219Y000428D01*
X004853D01*
X004852Y000428D01*
Y000256D01*
X004752D01*
Y000428D01*
X004750Y000428D01*
X004384D01*
X004383Y000428D01*
Y000256D01*
X004283D01*
Y000428D01*
X004282Y000428D01*
X003916D01*
X003915Y000428D01*
Y000256D01*
X003815D01*
Y000428D01*
X003814Y000428D01*
X003448D01*
X003447Y000428D01*
Y000256D01*
X003347D01*
Y000428D01*
X003327Y000424D01*
X003268Y000385D01*
X003266Y000382D01*
X003218Y000400D01*
X003222Y000433D01*
X003212Y000516D01*
X003180Y000592D01*
X003129Y000659D01*
X003063Y000709D01*
X002986Y000741D01*
X002904Y000752D01*
X002821Y000741D01*
X002744Y000709D01*
X002678Y000659D01*
X002627Y000592D01*
X002595Y000516D01*
X002590Y000475D01*
X002570Y000460D01*
Y000256D01*
X002470D01*
Y000438D01*
X002289D01*
X002281Y000461D01*
X002276Y000488D01*
X002401Y000634D01*
X002505Y000804D01*
X002581Y000987D01*
X002627Y001177D01*
X002642Y001185D01*
X002675Y001195D01*
X002678Y001192D01*
X002744Y001141D01*
X002821Y001109D01*
X002904Y001098D01*
X002986Y001109D01*
X003063Y001141D01*
X003129Y001192D01*
X003180Y001258D01*
X003212Y001335D01*
X003222Y001417D01*
X003212Y001500D01*
X003180Y001577D01*
X003129Y001643D01*
X003063Y001694D01*
X002986Y001725D01*
X002904Y001736D01*
X002821Y001725D01*
X002744Y001694D01*
X002678Y001643D01*
X002666Y001628D01*
X002612Y001639D01*
X002581Y001769D01*
X002505Y001952D01*
X002401Y002121D01*
X002272Y002272D01*
X002121Y002401D01*
X001952Y002505D01*
X001769Y002581D01*
X001576Y002627D01*
X001378Y002643D01*
X001180Y002627D01*
X000987Y002581D01*
X000804Y002505D01*
X000634Y002401D01*
X000488Y002276D01*
X000461Y002281D01*
X000438Y002289D01*
Y002478D01*
X000256D01*
Y002578D01*
X000438D01*
Y002841D01*
X000256D01*
Y002941D01*
X000438D01*
Y003204D01*
X000256D01*
Y003304D01*
X000438D01*
Y003566D01*
X000256D01*
Y003666D01*
X000438D01*
Y003978D01*
X000438Y003979D01*
X000437Y003984D01*
X000469Y004023D01*
X001930D01*
X001934Y004024D01*
X001938Y004023D01*
X001949Y004027D01*
X001961Y004029D01*
X001964Y004031D01*
X001968Y004032D01*
X001978Y004040D01*
X001988Y004047D01*
X001990Y004050D01*
X001993Y004053D01*
X001999Y004063D01*
X002005Y004073D01*
X002006Y004077D01*
X002008Y004081D01*
X002020Y004120D01*
X002077Y004108D01*
X002169Y004127D01*
X002248Y004179D01*
X002300Y004258D01*
X002319Y004350D01*
X002337Y004377D01*
X002356Y004380D01*
X002365Y004383D01*
X002374Y004385D01*
X002380Y004389D01*
X002386Y004391D01*
X002393Y004398D01*
X002400Y004403D01*
X002404Y004409D01*
X002409Y004413D01*
X002413Y004422D01*
X002418Y004429D01*
X002419Y004436D01*
X002422Y004442D01*
X002423Y004451D01*
X002424Y004461D01*
Y005957D01*
X002424Y005961D01*
X002424Y005965D01*
X002420Y005976D01*
X002418Y005988D01*
X002416Y005991D01*
X002415Y005995D01*
X002426Y006043D01*
X002431Y006049D01*
X002484Y006128D01*
X002502Y006220D01*
X002484Y006313D01*
X002431Y006392D01*
X002426Y006398D01*
X002415Y006446D01*
X002416Y006450D01*
X002418Y006453D01*
X002420Y006465D01*
X002424Y006476D01*
X002424Y006480D01*
X002424Y006484D01*
Y006639D01*
X003000D01*
X003031Y006646D01*
X003058Y006663D01*
X003075Y006690D01*
X003081Y006721D01*
Y006767D01*
X003131Y006782D01*
X003159Y006741D01*
X003218Y006702D01*
X003237Y006698D01*
Y006870D01*
Y007042D01*
X003218Y007038D01*
X003159Y006999D01*
X003131Y006958D01*
X003081Y006974D01*
Y007359D01*
X004764D01*
X004795Y007365D01*
X004821Y007383D01*
X004839Y007409D01*
X004845Y007440D01*
Y008028D01*
X005303D01*
X005334Y008034D01*
X005361Y008052D01*
X005372Y008069D01*
X005396Y008082D01*
X005432Y008090D01*
X005432Y008090D01*
X005452Y008086D01*
Y008258D01*
X005502D01*
Y008308D01*
X005674D01*
X005670Y008328D01*
X005672Y008337D01*
X005691Y008387D01*
X005705Y008396D01*
X005723Y008423D01*
X005729Y008454D01*
X005729Y009387D01*
X007766Y009387D01*
X007797Y009393D01*
X007823Y009411D01*
X007841Y009437D01*
X007847Y009469D01*
Y009771D01*
X007927D01*
X007932Y009759D01*
D02*
G37*
%LPC*%
G36*
X022264Y010334D02*
X022165Y010321D01*
X022072Y010283D01*
X021993Y010222D01*
X021932Y010142D01*
X021894Y010050D01*
X021881Y009951D01*
X021894Y009852D01*
X021932Y009759D01*
X021993Y009680D01*
X022072Y009619D01*
X022165Y009581D01*
X022264Y009568D01*
X022363Y009581D01*
X022455Y009619D01*
X022535Y009680D01*
X022596Y009759D01*
X022634Y009852D01*
X022647Y009951D01*
X022634Y010050D01*
X022596Y010142D01*
X022535Y010222D01*
X022455Y010283D01*
X022363Y010321D01*
X022264Y010334D01*
D02*
G37*
G36*
X021264D02*
X021165Y010321D01*
X021072Y010283D01*
X020993Y010222D01*
X020932Y010142D01*
X020894Y010050D01*
X020881Y009951D01*
X020894Y009852D01*
X020932Y009759D01*
X020993Y009680D01*
X021072Y009619D01*
X021165Y009581D01*
X021264Y009568D01*
X021363Y009581D01*
X021455Y009619D01*
X021535Y009680D01*
X021596Y009759D01*
X021634Y009852D01*
X021647Y009951D01*
X021634Y010050D01*
X021596Y010142D01*
X021535Y010222D01*
X021455Y010283D01*
X021363Y010321D01*
X021264Y010334D01*
D02*
G37*
G36*
X020264D02*
X020165Y010321D01*
X020072Y010283D01*
X019993Y010222D01*
X019932Y010142D01*
X019894Y010050D01*
X019881Y009951D01*
X019894Y009852D01*
X019932Y009759D01*
X019993Y009680D01*
X020072Y009619D01*
X020165Y009581D01*
X020264Y009568D01*
X020363Y009581D01*
X020455Y009619D01*
X020535Y009680D01*
X020596Y009759D01*
X020634Y009852D01*
X020647Y009951D01*
X020634Y010050D01*
X020596Y010142D01*
X020535Y010222D01*
X020455Y010283D01*
X020363Y010321D01*
X020264Y010334D01*
D02*
G37*
G36*
X019264D02*
X019165Y010321D01*
X019072Y010283D01*
X018993Y010222D01*
X018932Y010142D01*
X018894Y010050D01*
X018881Y009951D01*
X018894Y009852D01*
X018932Y009759D01*
X018993Y009680D01*
X019072Y009619D01*
X019165Y009581D01*
X019264Y009568D01*
X019363Y009581D01*
X019455Y009619D01*
X019535Y009680D01*
X019596Y009759D01*
X019634Y009852D01*
X019647Y009951D01*
X019634Y010050D01*
X019596Y010142D01*
X019535Y010222D01*
X019455Y010283D01*
X019363Y010321D01*
X019264Y010334D01*
D02*
G37*
G36*
X019447Y009016D02*
Y008894D01*
X019569D01*
X019565Y008914D01*
X019526Y008973D01*
X019466Y009012D01*
X019447Y009016D01*
D02*
G37*
G36*
X019347D02*
X019327Y009012D01*
X019268Y008973D01*
X019228Y008914D01*
X019224Y008894D01*
X019347D01*
Y009016D01*
D02*
G37*
G36*
X023910Y008842D02*
Y008720D01*
X024032D01*
X024028Y008740D01*
X023989Y008799D01*
X023930Y008838D01*
X023910Y008842D01*
D02*
G37*
G36*
X023810D02*
X023790Y008838D01*
X023731Y008799D01*
X023692Y008740D01*
X023688Y008720D01*
X023810D01*
Y008842D01*
D02*
G37*
G36*
X019569Y008794D02*
X019447D01*
Y008672D01*
X019466Y008676D01*
X019526Y008715D01*
X019565Y008774D01*
X019569Y008794D01*
D02*
G37*
G36*
X019347D02*
X019224D01*
X019228Y008774D01*
X019268Y008715D01*
X019327Y008676D01*
X019347Y008672D01*
Y008794D01*
D02*
G37*
G36*
X023258Y009325D02*
X023160Y009312D01*
X023069Y009275D01*
X022990Y009215D01*
X022930Y009136D01*
X022892Y009045D01*
X022879Y008947D01*
X022892Y008849D01*
X022930Y008758D01*
X022990Y008679D01*
X023069Y008619D01*
X023160Y008581D01*
X023258Y008568D01*
X023356Y008581D01*
X023447Y008619D01*
X023526Y008679D01*
X023586Y008758D01*
X023623Y008849D01*
X023636Y008947D01*
X023623Y009045D01*
X023586Y009136D01*
X023526Y009215D01*
X023447Y009275D01*
X023356Y009312D01*
X023258Y009325D01*
D02*
G37*
G36*
X024032Y008620D02*
X023910D01*
Y008498D01*
X023930Y008502D01*
X023989Y008541D01*
X024028Y008600D01*
X024032Y008620D01*
D02*
G37*
G36*
X023810D02*
X023688D01*
X023692Y008600D01*
X023731Y008541D01*
X023790Y008502D01*
X023810Y008498D01*
Y008620D01*
D02*
G37*
G36*
X022266Y009401D02*
X022148Y009385D01*
X022039Y009340D01*
X021945Y009268D01*
X021873Y009174D01*
X021827Y009064D01*
X021812Y008947D01*
X021827Y008829D01*
X021873Y008720D01*
X021945Y008626D01*
X022039Y008554D01*
X022148Y008508D01*
X022266Y008493D01*
X022383Y008508D01*
X022493Y008554D01*
X022587Y008626D01*
X022659Y008720D01*
X022704Y008829D01*
X022720Y008947D01*
X022704Y009064D01*
X022659Y009174D01*
X022587Y009268D01*
X022493Y009340D01*
X022383Y009385D01*
X022266Y009401D01*
D02*
G37*
G36*
X021266D02*
X021148Y009385D01*
X021039Y009340D01*
X020945Y009268D01*
X020873Y009174D01*
X020827Y009064D01*
X020812Y008947D01*
X020827Y008829D01*
X020873Y008720D01*
X020945Y008626D01*
X021039Y008554D01*
X021148Y008508D01*
X021266Y008493D01*
X021383Y008508D01*
X021493Y008554D01*
X021587Y008626D01*
X021659Y008720D01*
X021704Y008829D01*
X021720Y008947D01*
X021704Y009064D01*
X021659Y009174D01*
X021587Y009268D01*
X021493Y009340D01*
X021383Y009385D01*
X021266Y009401D01*
D02*
G37*
G36*
X020266D02*
X020148Y009385D01*
X020039Y009340D01*
X019945Y009268D01*
X019873Y009174D01*
X019827Y009064D01*
X019812Y008947D01*
X019827Y008829D01*
X019873Y008720D01*
X019945Y008626D01*
X020039Y008554D01*
X020148Y008508D01*
X020266Y008493D01*
X020383Y008508D01*
X020493Y008554D01*
X020587Y008626D01*
X020659Y008720D01*
X020704Y008829D01*
X020720Y008947D01*
X020704Y009064D01*
X020659Y009174D01*
X020587Y009268D01*
X020493Y009340D01*
X020383Y009385D01*
X020266Y009401D01*
D02*
G37*
G36*
X020040Y008283D02*
Y008160D01*
X020162D01*
X020159Y008180D01*
X020119Y008239D01*
X020060Y008279D01*
X020040Y008283D01*
D02*
G37*
G36*
X019940D02*
X019920Y008279D01*
X019861Y008239D01*
X019822Y008180D01*
X019818Y008160D01*
X019940D01*
Y008283D01*
D02*
G37*
G36*
X020162Y008060D02*
X020040D01*
Y007938D01*
X020060Y007942D01*
X020119Y007981D01*
X020159Y008040D01*
X020162Y008060D01*
D02*
G37*
G36*
X019940D02*
X019818D01*
X019822Y008040D01*
X019861Y007981D01*
X019920Y007942D01*
X019940Y007938D01*
Y008060D01*
D02*
G37*
G36*
X021605Y007682D02*
Y007560D01*
X021727D01*
X021723Y007580D01*
X021684Y007639D01*
X021625Y007678D01*
X021605Y007682D01*
D02*
G37*
G36*
X021505D02*
X021485Y007678D01*
X021426Y007639D01*
X021387Y007580D01*
X021383Y007560D01*
X021505D01*
Y007682D01*
D02*
G37*
G36*
X020286Y007662D02*
Y007540D01*
X020409D01*
X020405Y007560D01*
X020365Y007619D01*
X020306Y007659D01*
X020286Y007662D01*
D02*
G37*
G36*
X020186D02*
X020166Y007659D01*
X020107Y007619D01*
X020068Y007560D01*
X020064Y007540D01*
X020186D01*
Y007662D01*
D02*
G37*
G36*
X023382Y007582D02*
Y007460D01*
X023504D01*
X023500Y007480D01*
X023460Y007539D01*
X023401Y007578D01*
X023382Y007582D01*
D02*
G37*
G36*
X023282D02*
X023262Y007578D01*
X023203Y007539D01*
X023163Y007480D01*
X023159Y007460D01*
X023282D01*
Y007582D01*
D02*
G37*
G36*
X021727Y007460D02*
X021605D01*
Y007338D01*
X021625Y007341D01*
X021684Y007381D01*
X021723Y007440D01*
X021727Y007460D01*
D02*
G37*
G36*
X021505D02*
X021383D01*
X021387Y007440D01*
X021426Y007381D01*
X021485Y007341D01*
X021505Y007338D01*
Y007460D01*
D02*
G37*
G36*
X020409Y007440D02*
X020286D01*
Y007318D01*
X020306Y007322D01*
X020365Y007361D01*
X020405Y007420D01*
X020409Y007440D01*
D02*
G37*
G36*
X020186D02*
X020064D01*
X020068Y007420D01*
X020107Y007361D01*
X020166Y007322D01*
X020186Y007318D01*
Y007440D01*
D02*
G37*
G36*
X023504Y007360D02*
X023382D01*
Y007238D01*
X023401Y007242D01*
X023460Y007281D01*
X023500Y007340D01*
X023504Y007360D01*
D02*
G37*
G36*
X023282D02*
X023159D01*
X023163Y007340D01*
X023203Y007281D01*
X023262Y007242D01*
X023282Y007238D01*
Y007360D01*
D02*
G37*
G36*
X022412Y007042D02*
Y006920D01*
X022534D01*
X022531Y006940D01*
X022491Y006999D01*
X022432Y007038D01*
X022412Y007042D01*
D02*
G37*
G36*
X022312D02*
X022292Y007038D01*
X022233Y006999D01*
X022194Y006940D01*
X022190Y006920D01*
X022312D01*
Y007042D01*
D02*
G37*
G36*
X019668Y007033D02*
Y006910D01*
X019790D01*
X019786Y006930D01*
X019747Y006989D01*
X019687Y007029D01*
X019668Y007033D01*
D02*
G37*
G36*
X019568D02*
X019548Y007029D01*
X019489Y006989D01*
X019449Y006930D01*
X019445Y006910D01*
X019568D01*
Y007033D01*
D02*
G37*
G36*
X020288Y007013D02*
Y006891D01*
X020410D01*
X020406Y006910D01*
X020367Y006969D01*
X020308Y007009D01*
X020288Y007013D01*
D02*
G37*
G36*
X020188D02*
X020168Y007009D01*
X020109Y006969D01*
X020069Y006910D01*
X020066Y006891D01*
X020188D01*
Y007013D01*
D02*
G37*
G36*
X020857Y006895D02*
Y006772D01*
X020979D01*
X020975Y006792D01*
X020936Y006851D01*
X020877Y006891D01*
X020857Y006895D01*
D02*
G37*
G36*
X020757D02*
X020737Y006891D01*
X020678Y006851D01*
X020639Y006792D01*
X020635Y006772D01*
X020757D01*
Y006895D01*
D02*
G37*
G36*
X022534Y006820D02*
X022412D01*
Y006698D01*
X022432Y006702D01*
X022491Y006741D01*
X022531Y006800D01*
X022534Y006820D01*
D02*
G37*
G36*
X022312D02*
X022190D01*
X022194Y006800D01*
X022233Y006741D01*
X022292Y006702D01*
X022312Y006698D01*
Y006820D01*
D02*
G37*
G36*
X019790Y006810D02*
X019668D01*
Y006688D01*
X019687Y006692D01*
X019747Y006731D01*
X019786Y006790D01*
X019790Y006810D01*
D02*
G37*
G36*
X019568D02*
X019445D01*
X019449Y006790D01*
X019489Y006731D01*
X019548Y006692D01*
X019568Y006688D01*
Y006810D01*
D02*
G37*
G36*
X020979Y006672D02*
X020857D01*
Y006550D01*
X020877Y006554D01*
X020936Y006594D01*
X020975Y006653D01*
X020979Y006672D01*
D02*
G37*
G36*
X020757D02*
X020635D01*
X020639Y006653D01*
X020678Y006594D01*
X020737Y006554D01*
X020757Y006550D01*
Y006672D01*
D02*
G37*
G36*
X023967Y006876D02*
X023896Y006862D01*
X023837Y006823D01*
X023797Y006763D01*
X023783Y006693D01*
X023797Y006623D01*
X023837Y006563D01*
X023896Y006523D01*
X023967Y006509D01*
X024037Y006523D01*
X024096Y006563D01*
X024136Y006623D01*
X024150Y006693D01*
X024136Y006763D01*
X024096Y006823D01*
X024037Y006862D01*
X023967Y006876D01*
D02*
G37*
G36*
X019669Y006536D02*
Y006413D01*
X019792D01*
X019788Y006433D01*
X019748Y006492D01*
X019689Y006532D01*
X019669Y006536D01*
D02*
G37*
G36*
X019569D02*
X019550Y006532D01*
X019490Y006492D01*
X019451Y006433D01*
X019447Y006413D01*
X019569D01*
Y006536D01*
D02*
G37*
G36*
X020420Y006791D02*
X020056D01*
Y006556D01*
X020236D01*
Y006506D01*
X020286D01*
Y006334D01*
X020306Y006338D01*
X020365Y006377D01*
X020366Y006379D01*
X020366Y006379D01*
X020406Y006438D01*
X020420Y006507D01*
Y006791D01*
D02*
G37*
G36*
X020186Y006456D02*
X020064D01*
X020068Y006436D01*
X020107Y006377D01*
X020166Y006338D01*
X020186Y006334D01*
Y006456D01*
D02*
G37*
G36*
X020857Y006373D02*
Y006251D01*
X020979D01*
X020975Y006271D01*
X020936Y006330D01*
X020877Y006369D01*
X020857Y006373D01*
D02*
G37*
G36*
X020757D02*
X020737Y006369D01*
X020678Y006330D01*
X020639Y006271D01*
X020635Y006251D01*
X020757D01*
Y006373D01*
D02*
G37*
G36*
X019792Y006313D02*
X019669D01*
Y006191D01*
X019689Y006195D01*
X019748Y006234D01*
X019788Y006294D01*
X019792Y006313D01*
D02*
G37*
G36*
X019569D02*
X019447D01*
X019451Y006294D01*
X019490Y006234D01*
X019550Y006195D01*
X019569Y006191D01*
Y006313D01*
D02*
G37*
G36*
X022117Y006265D02*
Y006143D01*
X022239D01*
X022235Y006162D01*
X022196Y006221D01*
X022137Y006261D01*
X022117Y006265D01*
D02*
G37*
G36*
X022017D02*
X021997Y006261D01*
X021938Y006221D01*
X021899Y006162D01*
X021895Y006143D01*
X022017D01*
Y006265D01*
D02*
G37*
G36*
X020288Y006074D02*
Y005952D01*
X020410D01*
X020406Y005971D01*
X020367Y006031D01*
X020308Y006070D01*
X020288Y006074D01*
D02*
G37*
G36*
X020188D02*
X020168Y006070D01*
X020109Y006031D01*
X020069Y005971D01*
X020066Y005952D01*
X020188D01*
Y006074D01*
D02*
G37*
G36*
X022874Y006297D02*
X022804Y006283D01*
X022744Y006244D01*
X022704Y006184D01*
X022690Y006114D01*
X022704Y006044D01*
X022744Y005984D01*
X022804Y005944D01*
X022874Y005930D01*
X022944Y005944D01*
X023004Y005984D01*
X023044Y006044D01*
X023058Y006114D01*
X023044Y006184D01*
X023004Y006244D01*
X022944Y006283D01*
X022874Y006297D01*
D02*
G37*
G36*
X022017Y006043D02*
X021895D01*
X021899Y006023D01*
X021938Y005964D01*
X021997Y005924D01*
X022017Y005920D01*
Y006043D01*
D02*
G37*
G36*
X019669Y006040D02*
Y005918D01*
X019792D01*
X019788Y005938D01*
X019748Y005997D01*
X019689Y006036D01*
X019669Y006040D01*
D02*
G37*
G36*
X019569D02*
X019550Y006036D01*
X019490Y005997D01*
X019451Y005938D01*
X019447Y005918D01*
X019569D01*
Y006040D01*
D02*
G37*
G36*
X022239Y006043D02*
X022117D01*
Y005920D01*
X022137Y005924D01*
X022168Y005945D01*
X022204Y005909D01*
X022202Y005907D01*
X022189Y005837D01*
X022191Y005826D01*
X022176Y005810D01*
X022147Y005790D01*
X022137Y005792D01*
Y005620D01*
Y005448D01*
X022156Y005452D01*
X022215Y005491D01*
X022255Y005550D01*
X022269Y005620D01*
X022267Y005630D01*
X022282Y005646D01*
X022311Y005665D01*
X022372Y005653D01*
X022442Y005667D01*
X022502Y005707D01*
X022542Y005766D01*
X022556Y005837D01*
X022542Y005907D01*
X022502Y005966D01*
X022442Y006006D01*
X022372Y006020D01*
X022302Y006006D01*
X022270Y005985D01*
X022234Y006021D01*
X022235Y006023D01*
X022239Y006043D01*
D02*
G37*
G36*
X020410Y005852D02*
X020288D01*
Y005729D01*
X020308Y005733D01*
X020367Y005773D01*
X020406Y005832D01*
X020410Y005852D01*
D02*
G37*
G36*
X020188D02*
X020066D01*
X020069Y005832D01*
X020109Y005773D01*
X020168Y005733D01*
X020188Y005729D01*
Y005852D01*
D02*
G37*
G36*
X019792Y005818D02*
X019669D01*
Y005696D01*
X019689Y005699D01*
X019748Y005739D01*
X019788Y005798D01*
X019792Y005818D01*
D02*
G37*
G36*
X019569D02*
X019447D01*
X019451Y005798D01*
X019490Y005739D01*
X019550Y005699D01*
X019569Y005696D01*
Y005818D01*
D02*
G37*
G36*
X022037Y005792D02*
X022017Y005788D01*
X021958Y005749D01*
X021918Y005690D01*
X021914Y005670D01*
X022037D01*
Y005792D01*
D02*
G37*
G36*
X020288Y005605D02*
Y005482D01*
X020410D01*
X020406Y005502D01*
X020367Y005561D01*
X020308Y005601D01*
X020288Y005605D01*
D02*
G37*
G36*
X020188D02*
X020168Y005601D01*
X020109Y005561D01*
X020069Y005502D01*
X020066Y005482D01*
X020188D01*
Y005605D01*
D02*
G37*
G36*
X022037Y005570D02*
X021914D01*
X021918Y005550D01*
X021958Y005491D01*
X022017Y005452D01*
X022037Y005448D01*
Y005570D01*
D02*
G37*
G36*
X019669Y005545D02*
Y005422D01*
X019792D01*
X019788Y005442D01*
X019748Y005501D01*
X019689Y005541D01*
X019669Y005545D01*
D02*
G37*
G36*
X019569D02*
X019550Y005541D01*
X019490Y005501D01*
X019451Y005442D01*
X019447Y005422D01*
X019569D01*
Y005545D01*
D02*
G37*
G36*
X020410Y005382D02*
X020288D01*
Y005260D01*
X020308Y005264D01*
X020367Y005303D01*
X020406Y005363D01*
X020410Y005382D01*
D02*
G37*
G36*
X020188D02*
X020066D01*
X020069Y005363D01*
X020109Y005303D01*
X020168Y005264D01*
X020188Y005260D01*
Y005382D01*
D02*
G37*
G36*
X019792Y005322D02*
X019669D01*
Y005200D01*
X019689Y005204D01*
X019748Y005244D01*
X019788Y005303D01*
X019792Y005322D01*
D02*
G37*
G36*
X019569D02*
X019447D01*
X019451Y005303D01*
X019490Y005244D01*
X019550Y005204D01*
X019569Y005200D01*
Y005322D01*
D02*
G37*
G36*
X020989Y006151D02*
X020625D01*
Y005969D01*
X020806D01*
Y005869D01*
X020625D01*
Y005568D01*
X020806D01*
Y005468D01*
X020625D01*
Y005168D01*
X020989D01*
Y006151D01*
D02*
G37*
G36*
X020288Y005135D02*
Y005013D01*
X020410D01*
X020406Y005033D01*
X020367Y005092D01*
X020308Y005131D01*
X020288Y005135D01*
D02*
G37*
G36*
X020188D02*
X020168Y005131D01*
X020109Y005092D01*
X020069Y005033D01*
X020066Y005013D01*
X020188D01*
Y005135D01*
D02*
G37*
G36*
X020979Y005068D02*
X020857D01*
Y004946D01*
X020877Y004950D01*
X020936Y004989D01*
X020975Y005048D01*
X020979Y005068D01*
D02*
G37*
G36*
X020757D02*
X020635D01*
X020639Y005048D01*
X020678Y004989D01*
X020737Y004950D01*
X020757Y004946D01*
Y005068D01*
D02*
G37*
G36*
X019669Y005049D02*
Y004927D01*
X019792D01*
X019788Y004947D01*
X019748Y005006D01*
X019689Y005045D01*
X019669Y005049D01*
D02*
G37*
G36*
X019569D02*
X019550Y005045D01*
X019490Y005006D01*
X019451Y004947D01*
X019447Y004927D01*
X019569D01*
Y005049D01*
D02*
G37*
G36*
X020410Y004913D02*
X020288D01*
Y004791D01*
X020308Y004794D01*
X020367Y004834D01*
X020406Y004893D01*
X020410Y004913D01*
D02*
G37*
G36*
X020188D02*
X020066D01*
X020069Y004893D01*
X020109Y004834D01*
X020168Y004794D01*
X020188Y004791D01*
Y004913D01*
D02*
G37*
G36*
X019792Y004827D02*
X019669D01*
Y004705D01*
X019689Y004709D01*
X019748Y004748D01*
X019788Y004807D01*
X019792Y004827D01*
D02*
G37*
G36*
X019569D02*
X019447D01*
X019451Y004807D01*
X019490Y004748D01*
X019550Y004709D01*
X019569Y004705D01*
Y004827D01*
D02*
G37*
G36*
X022285Y005038D02*
X022215Y005024D01*
X022156Y004985D01*
X022116Y004925D01*
X022102Y004855D01*
X022116Y004785D01*
X022156Y004725D01*
X022215Y004685D01*
X022285Y004671D01*
X022356Y004685D01*
X022415Y004725D01*
X022455Y004785D01*
X022469Y004855D01*
X022455Y004925D01*
X022415Y004985D01*
X022356Y005024D01*
X022285Y005038D01*
D02*
G37*
G36*
X020288Y004666D02*
Y004543D01*
X020410D01*
X020406Y004563D01*
X020367Y004622D01*
X020308Y004662D01*
X020288Y004666D01*
D02*
G37*
G36*
X020188D02*
X020168Y004662D01*
X020109Y004622D01*
X020069Y004563D01*
X020066Y004543D01*
X020188D01*
Y004666D01*
D02*
G37*
G36*
X019669Y004554D02*
Y004432D01*
X019792D01*
X019788Y004451D01*
X019748Y004510D01*
X019689Y004550D01*
X019669Y004554D01*
D02*
G37*
G36*
X019569D02*
X019550Y004550D01*
X019490Y004510D01*
X019451Y004451D01*
X019447Y004432D01*
X019569D01*
Y004554D01*
D02*
G37*
G36*
X020410Y004443D02*
X020288D01*
Y004321D01*
X020308Y004325D01*
X020367Y004365D01*
X020406Y004424D01*
X020410Y004443D01*
D02*
G37*
G36*
X020188D02*
X020066D01*
X020069Y004424D01*
X020109Y004365D01*
X020168Y004325D01*
X020188Y004321D01*
Y004443D01*
D02*
G37*
G36*
X018155Y004399D02*
X018032D01*
Y004277D01*
X018052Y004280D01*
X018111Y004320D01*
X018151Y004379D01*
X018155Y004399D01*
D02*
G37*
G36*
X017932D02*
X017810D01*
X017814Y004379D01*
X017853Y004320D01*
X017913Y004280D01*
X017932Y004277D01*
Y004399D01*
D02*
G37*
G36*
X019792Y004332D02*
X019669D01*
Y004209D01*
X019689Y004213D01*
X019748Y004253D01*
X019788Y004312D01*
X019792Y004332D01*
D02*
G37*
G36*
X019569D02*
X019447D01*
X019451Y004312D01*
X019490Y004253D01*
X019550Y004213D01*
X019569Y004209D01*
Y004332D01*
D02*
G37*
G36*
X020286Y004208D02*
Y004085D01*
X020409D01*
X020405Y004105D01*
X020365Y004164D01*
X020306Y004204D01*
X020286Y004208D01*
D02*
G37*
G36*
X020186D02*
X020166Y004204D01*
X020107Y004164D01*
X020068Y004105D01*
X020064Y004085D01*
X020186D01*
Y004208D01*
D02*
G37*
G36*
X019668Y004060D02*
Y003938D01*
X019790D01*
X019786Y003958D01*
X019747Y004017D01*
X019687Y004056D01*
X019668Y004060D01*
D02*
G37*
G36*
X019568D02*
X019548Y004056D01*
X019489Y004017D01*
X019449Y003958D01*
X019445Y003938D01*
X019568D01*
Y004060D01*
D02*
G37*
G36*
X020409Y003985D02*
X020286D01*
Y003863D01*
X020306Y003867D01*
X020365Y003907D01*
X020405Y003966D01*
X020409Y003985D01*
D02*
G37*
G36*
X020186D02*
X020064D01*
X020068Y003966D01*
X020107Y003907D01*
X020166Y003867D01*
X020186Y003863D01*
Y003985D01*
D02*
G37*
G36*
X019790Y003838D02*
X019668D01*
Y003715D01*
X019687Y003719D01*
X019747Y003759D01*
X019786Y003818D01*
X019790Y003838D01*
D02*
G37*
G36*
X019568D02*
X019445D01*
X019449Y003818D01*
X019489Y003759D01*
X019548Y003719D01*
X019568Y003715D01*
Y003838D01*
D02*
G37*
G36*
X022746Y003737D02*
X022676Y003723D01*
X022616Y003683D01*
X022577Y003623D01*
X022563Y003553D01*
X022577Y003483D01*
X022616Y003423D01*
X022676Y003384D01*
X022746Y003370D01*
X022816Y003384D01*
X022876Y003423D01*
X022916Y003483D01*
X022930Y003553D01*
X022916Y003623D01*
X022876Y003683D01*
X022816Y003723D01*
X022746Y003737D01*
D02*
G37*
G36*
X019390Y003668D02*
X019320Y003654D01*
X019260Y003614D01*
X019220Y003554D01*
X019206Y003484D01*
X019220Y003414D01*
X019260Y003354D01*
X019320Y003315D01*
X019390Y003301D01*
X019460Y003315D01*
X019520Y003354D01*
X019559Y003414D01*
X019573Y003484D01*
X019559Y003554D01*
X019520Y003614D01*
X019460Y003654D01*
X019390Y003668D01*
D02*
G37*
G36*
X020404Y003658D02*
X020333Y003644D01*
X020274Y003604D01*
X020234Y003545D01*
X020220Y003474D01*
X020234Y003404D01*
X020274Y003345D01*
X020333Y003305D01*
X020404Y003291D01*
X020474Y003305D01*
X020533Y003345D01*
X020573Y003404D01*
X020587Y003474D01*
X020573Y003545D01*
X020533Y003604D01*
X020474Y003644D01*
X020404Y003658D01*
D02*
G37*
G36*
X020198Y003302D02*
Y003180D01*
X020320D01*
X020316Y003200D01*
X020277Y003259D01*
X020217Y003298D01*
X020198Y003302D01*
D02*
G37*
G36*
X020098D02*
X020078Y003298D01*
X020019Y003259D01*
X019979Y003200D01*
X019975Y003180D01*
X020098D01*
Y003302D01*
D02*
G37*
G36*
X020320Y003080D02*
X020198D01*
Y002958D01*
X020217Y002962D01*
X020277Y003001D01*
X020316Y003060D01*
X020320Y003080D01*
D02*
G37*
G36*
X020098D02*
X019975D01*
X019979Y003060D01*
X020019Y003001D01*
X020078Y002962D01*
X020098Y002958D01*
Y003080D01*
D02*
G37*
G36*
X023770Y003323D02*
X023699Y003309D01*
X023640Y003270D01*
X023600Y003210D01*
X023586Y003140D01*
X023600Y003070D01*
X023640Y003010D01*
X023699Y002970D01*
X023770Y002956D01*
X023840Y002970D01*
X023899Y003010D01*
X023939Y003070D01*
X023953Y003140D01*
X023939Y003210D01*
X023899Y003270D01*
X023840Y003309D01*
X023770Y003323D01*
D02*
G37*
G36*
X019253Y002918D02*
Y002796D01*
X019375D01*
X019371Y002816D01*
X019332Y002875D01*
X019273Y002914D01*
X019253Y002918D01*
D02*
G37*
G36*
X019153D02*
X019133Y002914D01*
X019074Y002875D01*
X019034Y002816D01*
X019030Y002796D01*
X019153D01*
Y002918D01*
D02*
G37*
G36*
X020423Y002949D02*
X020353Y002935D01*
X020293Y002896D01*
X020254Y002836D01*
X020240Y002766D01*
X020254Y002696D01*
X020293Y002636D01*
X020353Y002596D01*
X020423Y002582D01*
X020493Y002596D01*
X020553Y002636D01*
X020593Y002696D01*
X020607Y002766D01*
X020593Y002836D01*
X020553Y002896D01*
X020493Y002935D01*
X020423Y002949D01*
D02*
G37*
G36*
X019375Y002696D02*
X019253D01*
Y002574D01*
X019273Y002578D01*
X019332Y002617D01*
X019371Y002676D01*
X019375Y002696D01*
D02*
G37*
G36*
X019153D02*
X019030D01*
X019034Y002676D01*
X019074Y002617D01*
X019133Y002578D01*
X019153Y002574D01*
Y002696D01*
D02*
G37*
G36*
X022136Y002693D02*
X022066Y002679D01*
X022006Y002640D01*
X021966Y002580D01*
X021952Y002510D01*
X021966Y002440D01*
X022006Y002380D01*
X022066Y002340D01*
X022136Y002326D01*
X022206Y002340D01*
X022266Y002380D01*
X022305Y002440D01*
X022319Y002510D01*
X022305Y002580D01*
X022266Y002640D01*
X022206Y002679D01*
X022136Y002693D01*
D02*
G37*
G36*
X020118Y002487D02*
X020048Y002473D01*
X019988Y002433D01*
X019949Y002373D01*
X019935Y002303D01*
X019949Y002233D01*
X019988Y002173D01*
X020048Y002134D01*
X020118Y002120D01*
X020188Y002134D01*
X020248Y002173D01*
X020288Y002233D01*
X020302Y002303D01*
X020288Y002373D01*
X020248Y002433D01*
X020188Y002473D01*
X020118Y002487D01*
D02*
G37*
G36*
X020828Y001285D02*
Y001162D01*
X020950D01*
X020946Y001182D01*
X020906Y001241D01*
X020847Y001281D01*
X020828Y001285D01*
D02*
G37*
G36*
X020728D02*
X020708Y001281D01*
X020649Y001241D01*
X020609Y001182D01*
X020605Y001162D01*
X020728D01*
Y001285D01*
D02*
G37*
G36*
X020950Y001062D02*
X020828D01*
Y000940D01*
X020847Y000944D01*
X020906Y000983D01*
X020946Y001042D01*
X020950Y001062D01*
D02*
G37*
G36*
X020728D02*
X020605D01*
X020609Y001042D01*
X020649Y000983D01*
X020708Y000944D01*
X020728Y000940D01*
Y001062D01*
D02*
G37*
G36*
X019734Y000428D02*
X019714Y000424D01*
X019655Y000385D01*
X019615Y000326D01*
X019611Y000306D01*
X019734D01*
Y000428D01*
D02*
G37*
G36*
X005773Y011505D02*
X005650D01*
Y011383D01*
X005670Y011387D01*
X005729Y011426D01*
X005769Y011485D01*
X005773Y011505D01*
D02*
G37*
G36*
X005639Y010901D02*
X005314D01*
Y010575D01*
X005363Y010582D01*
X005455Y010620D01*
X005534Y010681D01*
X005595Y010760D01*
X005633Y010852D01*
X005639Y010901D01*
D02*
G37*
G36*
X005214D02*
X004888D01*
X004895Y010852D01*
X004933Y010760D01*
X004994Y010681D01*
X005073Y010620D01*
X005165Y010582D01*
X005214Y010575D01*
Y010901D01*
D02*
G37*
G36*
X007314Y010326D02*
Y010001D01*
X007639D01*
X007633Y010050D01*
X007595Y010142D01*
X007534Y010221D01*
X007455Y010282D01*
X007363Y010320D01*
X007314Y010326D01*
D02*
G37*
G36*
X007214D02*
X007165Y010320D01*
X007073Y010282D01*
X006994Y010221D01*
X006933Y010142D01*
X006895Y010050D01*
X006888Y010001D01*
X007214D01*
Y010326D01*
D02*
G37*
G36*
X007639Y009901D02*
X007314D01*
Y009575D01*
X007363Y009582D01*
X007455Y009620D01*
X007534Y009681D01*
X007595Y009760D01*
X007633Y009852D01*
X007639Y009901D01*
D02*
G37*
G36*
X007214D02*
X006888D01*
X006895Y009852D01*
X006933Y009760D01*
X006994Y009681D01*
X007073Y009620D01*
X007165Y009582D01*
X007214Y009575D01*
Y009901D01*
D02*
G37*
G36*
X006264Y010334D02*
X006165Y010321D01*
X006072Y010283D01*
X005993Y010222D01*
X005932Y010142D01*
X005894Y010050D01*
X005881Y009951D01*
X005894Y009852D01*
X005932Y009759D01*
X005993Y009680D01*
X006072Y009619D01*
X006165Y009581D01*
X006264Y009568D01*
X006363Y009581D01*
X006455Y009619D01*
X006535Y009680D01*
X006596Y009759D01*
X006634Y009852D01*
X006647Y009951D01*
X006634Y010050D01*
X006596Y010142D01*
X006535Y010222D01*
X006455Y010283D01*
X006363Y010321D01*
X006264Y010334D01*
D02*
G37*
G36*
X005264D02*
X005165Y010321D01*
X005072Y010283D01*
X004993Y010222D01*
X004932Y010142D01*
X004894Y010050D01*
X004881Y009951D01*
X004894Y009852D01*
X004932Y009759D01*
X004993Y009680D01*
X005072Y009619D01*
X005165Y009581D01*
X005264Y009568D01*
X005363Y009581D01*
X005455Y009619D01*
X005535Y009680D01*
X005596Y009759D01*
X005634Y009852D01*
X005647Y009951D01*
X005634Y010050D01*
X005596Y010142D01*
X005535Y010222D01*
X005455Y010283D01*
X005363Y010321D01*
X005264Y010334D01*
D02*
G37*
G36*
X004264D02*
X004165Y010321D01*
X004072Y010283D01*
X003993Y010222D01*
X003932Y010142D01*
X003894Y010050D01*
X003881Y009951D01*
X003894Y009852D01*
X003932Y009759D01*
X003993Y009680D01*
X004072Y009619D01*
X004165Y009581D01*
X004264Y009568D01*
X004363Y009581D01*
X004455Y009619D01*
X004535Y009680D01*
X004596Y009759D01*
X004634Y009852D01*
X004647Y009951D01*
X004634Y010050D01*
X004596Y010142D01*
X004535Y010222D01*
X004455Y010283D01*
X004363Y010321D01*
X004264Y010334D01*
D02*
G37*
G36*
X003644Y010331D02*
X002884D01*
Y009571D01*
X003015D01*
X003032Y009521D01*
X002986Y009453D01*
X002968Y009360D01*
X002986Y009267D01*
X003039Y009189D01*
X003117Y009136D01*
X003210Y009118D01*
X003303Y009136D01*
X003381Y009189D01*
X003434Y009267D01*
X003452Y009360D01*
X003434Y009453D01*
X003388Y009521D01*
X003405Y009571D01*
X003644D01*
Y010331D01*
D02*
G37*
G36*
X000428Y008867D02*
X000306D01*
Y008745D01*
X000326Y008749D01*
X000385Y008788D01*
X000424Y008848D01*
X000428Y008867D01*
D02*
G37*
G36*
X001929Y009100D02*
X001836Y009082D01*
X001758Y009029D01*
X001705Y008951D01*
X001687Y008858D01*
X001705Y008766D01*
X001758Y008687D01*
X001836Y008635D01*
X001929Y008616D01*
X002022Y008635D01*
X002100Y008687D01*
X002153Y008766D01*
X002171Y008858D01*
X002153Y008951D01*
X002100Y009029D01*
X002022Y009082D01*
X001929Y009100D01*
D02*
G37*
G36*
X002717Y008351D02*
Y008170D01*
X002898D01*
X002890Y008212D01*
X002838Y008290D01*
X002759Y008343D01*
X002717Y008351D01*
D02*
G37*
G36*
X002617D02*
X002575Y008343D01*
X002497Y008290D01*
X002445Y008212D01*
X002436Y008170D01*
X002617D01*
Y008351D01*
D02*
G37*
G36*
X000306Y008027D02*
Y007904D01*
X000428D01*
X000424Y007924D01*
X000385Y007983D01*
X000326Y008023D01*
X000306Y008027D01*
D02*
G37*
G36*
X002898Y008070D02*
X002717D01*
Y007889D01*
X002759Y007898D01*
X002838Y007950D01*
X002890Y008028D01*
X002898Y008070D01*
D02*
G37*
G36*
X002617D02*
X002436D01*
X002445Y008028D01*
X002497Y007950D01*
X002575Y007898D01*
X002617Y007889D01*
Y008070D01*
D02*
G37*
G36*
X000428Y007804D02*
X000306D01*
Y007682D01*
X000326Y007686D01*
X000385Y007725D01*
X000424Y007785D01*
X000428Y007804D01*
D02*
G37*
G36*
X002260Y007572D02*
X002167Y007554D01*
X002089Y007501D01*
X002036Y007423D01*
X002018Y007330D01*
X002036Y007237D01*
X002089Y007159D01*
X002167Y007106D01*
X002260Y007088D01*
X002353Y007106D01*
X002431Y007159D01*
X002484Y007237D01*
X002502Y007330D01*
X002484Y007423D01*
X002431Y007501D01*
X002353Y007554D01*
X002260Y007572D01*
D02*
G37*
G36*
X002210Y006451D02*
X002168Y006443D01*
X002090Y006391D01*
X002037Y006313D01*
X002029Y006270D01*
X002210D01*
Y006451D01*
D02*
G37*
G36*
Y006170D02*
X002029D01*
X002037Y006128D01*
X002090Y006050D01*
X002168Y005998D01*
X002210Y005990D01*
Y006170D01*
D02*
G37*
G36*
X000306Y005960D02*
Y005837D01*
X000428D01*
X000424Y005857D01*
X000385Y005916D01*
X000326Y005956D01*
X000306Y005960D01*
D02*
G37*
G36*
X000428Y005737D02*
X000306D01*
Y005615D01*
X000326Y005619D01*
X000385Y005659D01*
X000424Y005718D01*
X000428Y005737D01*
D02*
G37*
G36*
X000306Y004877D02*
Y004755D01*
X000428D01*
X000424Y004774D01*
X000385Y004834D01*
X000326Y004873D01*
X000306Y004877D01*
D02*
G37*
G36*
X002027Y004581D02*
X001985Y004573D01*
X001906Y004521D01*
X001854Y004443D01*
X001846Y004400D01*
X002027D01*
Y004581D01*
D02*
G37*
G36*
X015847Y009227D02*
Y009105D01*
X015970D01*
X015966Y009125D01*
X015926Y009184D01*
X015867Y009223D01*
X015847Y009227D01*
D02*
G37*
G36*
X015747D02*
X015727Y009223D01*
X015668Y009184D01*
X015629Y009125D01*
X015625Y009105D01*
X015747D01*
Y009227D01*
D02*
G37*
G36*
X007845Y009188D02*
Y009066D01*
X007968D01*
X007964Y009085D01*
X007924Y009145D01*
X007865Y009184D01*
X007845Y009188D01*
D02*
G37*
G36*
X007745D02*
X007726Y009184D01*
X007666Y009145D01*
X007627Y009085D01*
X007623Y009066D01*
X007745D01*
Y009188D01*
D02*
G37*
G36*
X018475Y009159D02*
Y009036D01*
X018597D01*
X018594Y009056D01*
X018554Y009115D01*
X018495Y009155D01*
X018475Y009159D01*
D02*
G37*
G36*
X018375D02*
X018355Y009155D01*
X018296Y009115D01*
X018257Y009056D01*
X018253Y009036D01*
X018375D01*
Y009159D01*
D02*
G37*
G36*
X015970Y009005D02*
X015847D01*
Y008883D01*
X015867Y008887D01*
X015926Y008926D01*
X015966Y008985D01*
X015970Y009005D01*
D02*
G37*
G36*
X015747D02*
X015625D01*
X015629Y008985D01*
X015668Y008926D01*
X015727Y008887D01*
X015747Y008883D01*
Y009005D01*
D02*
G37*
G36*
X007968Y008966D02*
X007845D01*
Y008843D01*
X007865Y008847D01*
X007924Y008887D01*
X007964Y008946D01*
X007968Y008966D01*
D02*
G37*
G36*
X007745D02*
X007623D01*
X007627Y008946D01*
X007666Y008887D01*
X007726Y008847D01*
X007745Y008843D01*
Y008966D01*
D02*
G37*
G36*
X009744Y009199D02*
X009674Y009185D01*
X009614Y009146D01*
X009575Y009086D01*
X009561Y009016D01*
X009575Y008946D01*
X009614Y008886D01*
X009674Y008846D01*
X009744Y008832D01*
X009814Y008846D01*
X009874Y008886D01*
X009914Y008946D01*
X009928Y009016D01*
X009914Y009086D01*
X009874Y009146D01*
X009814Y009185D01*
X009744Y009199D01*
D02*
G37*
G36*
X018597Y008936D02*
X018475D01*
Y008814D01*
X018495Y008818D01*
X018554Y008857D01*
X018594Y008916D01*
X018597Y008936D01*
D02*
G37*
G36*
X018375D02*
X018253D01*
X018257Y008916D01*
X018296Y008857D01*
X018355Y008818D01*
X018375Y008814D01*
Y008936D01*
D02*
G37*
G36*
X012894Y008834D02*
Y008711D01*
X013017D01*
X013013Y008731D01*
X012973Y008790D01*
X012914Y008830D01*
X012894Y008834D01*
D02*
G37*
G36*
X014026Y009071D02*
X013955Y009057D01*
X013896Y009018D01*
X013856Y008958D01*
X013842Y008888D01*
X013856Y008818D01*
X013896Y008758D01*
X013955Y008718D01*
X014026Y008704D01*
X014096Y008718D01*
X014155Y008758D01*
X014195Y008818D01*
X014209Y008888D01*
X014195Y008958D01*
X014155Y009018D01*
X014096Y009057D01*
X014026Y009071D01*
D02*
G37*
G36*
X012794Y008834D02*
X012775Y008830D01*
X012716Y008790D01*
X012676Y008731D01*
X012672Y008709D01*
X012616Y008686D01*
X012590Y008703D01*
X012520Y008717D01*
X012449Y008703D01*
X012390Y008663D01*
X012350Y008604D01*
X012336Y008533D01*
X012350Y008463D01*
X012390Y008404D01*
X012449Y008364D01*
X012520Y008350D01*
X012590Y008364D01*
X012649Y008404D01*
X012689Y008463D01*
X012694Y008487D01*
X012750Y008510D01*
X012775Y008493D01*
X012794Y008489D01*
Y008661D01*
Y008834D01*
D02*
G37*
G36*
X008248Y008973D02*
X008178Y008959D01*
X008118Y008919D01*
X008078Y008860D01*
X008065Y008789D01*
X008078Y008719D01*
X008118Y008660D01*
X008178Y008620D01*
X008248Y008606D01*
X008318Y008620D01*
X008378Y008660D01*
X008418Y008719D01*
X008432Y008789D01*
X008418Y008860D01*
X008378Y008919D01*
X008318Y008959D01*
X008248Y008973D01*
D02*
G37*
G36*
X015010Y008914D02*
X014940Y008900D01*
X014880Y008860D01*
X014840Y008801D01*
X014826Y008730D01*
X014840Y008660D01*
X014880Y008601D01*
X014940Y008561D01*
X015010Y008547D01*
X015080Y008561D01*
X015140Y008601D01*
X015179Y008660D01*
X015193Y008730D01*
X015179Y008801D01*
X015140Y008860D01*
X015080Y008900D01*
X015010Y008914D01*
D02*
G37*
G36*
X014508D02*
X014438Y008900D01*
X014378Y008860D01*
X014338Y008801D01*
X014324Y008730D01*
X014338Y008660D01*
X014378Y008601D01*
X014438Y008561D01*
X014508Y008547D01*
X014578Y008561D01*
X014638Y008601D01*
X014677Y008660D01*
X014691Y008730D01*
X014677Y008801D01*
X014638Y008860D01*
X014578Y008900D01*
X014508Y008914D01*
D02*
G37*
G36*
X013017Y008611D02*
X012894D01*
Y008489D01*
X012914Y008493D01*
X012973Y008533D01*
X013013Y008592D01*
X013017Y008611D01*
D02*
G37*
G36*
X009734Y008491D02*
X009664Y008477D01*
X009604Y008437D01*
X009565Y008377D01*
X009551Y008307D01*
X009565Y008237D01*
X009604Y008177D01*
X009664Y008138D01*
X009734Y008124D01*
X009804Y008138D01*
X009864Y008177D01*
X009904Y008237D01*
X009918Y008307D01*
X009904Y008377D01*
X009864Y008437D01*
X009804Y008477D01*
X009734Y008491D01*
D02*
G37*
G36*
X005674Y008208D02*
X005552D01*
Y008086D01*
X005572Y008090D01*
X005631Y008129D01*
X005670Y008188D01*
X005674Y008208D01*
D02*
G37*
G36*
X006201Y008284D02*
X006131Y008270D01*
X006071Y008230D01*
X006031Y008171D01*
X006017Y008100D01*
X006031Y008030D01*
X006071Y007971D01*
X006131Y007931D01*
X006201Y007917D01*
X006271Y007931D01*
X006331Y007971D01*
X006370Y008030D01*
X006384Y008100D01*
X006370Y008171D01*
X006331Y008230D01*
X006271Y008270D01*
X006201Y008284D01*
D02*
G37*
G36*
X011900Y008195D02*
X011833Y008182D01*
X011777Y008144D01*
X011739Y008088D01*
X011726Y008022D01*
X011739Y007955D01*
X011777Y007899D01*
X011833Y007862D01*
X011900Y007848D01*
X011966Y007862D01*
X012022Y007899D01*
X012060Y007955D01*
X012073Y008022D01*
X012060Y008088D01*
X012022Y008144D01*
X011966Y008182D01*
X011900Y008195D01*
D02*
G37*
G36*
X013504Y007723D02*
X013434Y007709D01*
X013374Y007669D01*
X013334Y007610D01*
X013330Y007587D01*
X013279D01*
X013279Y007589D01*
X013239Y007649D01*
X013180Y007688D01*
X013160Y007692D01*
Y007520D01*
Y007347D01*
X013180Y007351D01*
X013239Y007391D01*
X013279Y007450D01*
X013283Y007472D01*
X013334D01*
X013334Y007469D01*
X013374Y007410D01*
X013434Y007370D01*
X013504Y007356D01*
X013574Y007370D01*
X013634Y007410D01*
X013673Y007469D01*
X013687Y007539D01*
X013673Y007610D01*
X013634Y007669D01*
X013574Y007709D01*
X013504Y007723D01*
D02*
G37*
G36*
X013060Y007692D02*
X013040Y007688D01*
X012981Y007649D01*
X012942Y007589D01*
X012938Y007570D01*
X013060D01*
Y007692D01*
D02*
G37*
G36*
Y007470D02*
X012938D01*
X012942Y007450D01*
X012981Y007391D01*
X013040Y007351D01*
X013060Y007347D01*
Y007470D01*
D02*
G37*
G36*
X012539Y007713D02*
X012469Y007699D01*
X012410Y007659D01*
X012370Y007600D01*
X012356Y007530D01*
X012370Y007459D01*
X012410Y007400D01*
X012469Y007360D01*
X012539Y007346D01*
X012610Y007360D01*
X012669Y007400D01*
X012709Y007459D01*
X012723Y007530D01*
X012709Y007600D01*
X012669Y007659D01*
X012610Y007699D01*
X012539Y007713D01*
D02*
G37*
G36*
X005315Y007614D02*
X005222Y007596D01*
X005144Y007543D01*
X005091Y007465D01*
X005073Y007372D01*
X005091Y007279D01*
X005144Y007201D01*
X005222Y007148D01*
X005315Y007130D01*
X005408Y007148D01*
X005486Y007201D01*
X005539Y007279D01*
X005557Y007372D01*
X005539Y007465D01*
X005486Y007543D01*
X005408Y007596D01*
X005315Y007614D01*
D02*
G37*
G36*
X017993Y007141D02*
Y007018D01*
X018115D01*
X018111Y007038D01*
X018072Y007097D01*
X018013Y007137D01*
X017993Y007141D01*
D02*
G37*
G36*
X017893D02*
X017873Y007137D01*
X017814Y007097D01*
X017775Y007038D01*
X017771Y007018D01*
X017893D01*
Y007141D01*
D02*
G37*
G36*
X011437Y007339D02*
X011367Y007325D01*
X011307Y007285D01*
X011267Y007226D01*
X011253Y007156D01*
X011267Y007085D01*
X011307Y007026D01*
X011367Y006986D01*
X011437Y006972D01*
X011507Y006986D01*
X011567Y007026D01*
X011607Y007085D01*
X011621Y007156D01*
X011607Y007226D01*
X011567Y007285D01*
X011507Y007325D01*
X011437Y007339D01*
D02*
G37*
G36*
X015070Y007072D02*
Y006950D01*
X015192D01*
X015188Y006969D01*
X015149Y007028D01*
X015089Y007068D01*
X015070Y007072D01*
D02*
G37*
G36*
X014970D02*
X014950Y007068D01*
X014891Y007028D01*
X014851Y006969D01*
X014847Y006950D01*
X014970D01*
Y007072D01*
D02*
G37*
G36*
X003337Y007042D02*
Y006920D01*
X003460D01*
X003456Y006940D01*
X003416Y006999D01*
X003357Y007038D01*
X003337Y007042D01*
D02*
G37*
G36*
X018115Y006919D02*
X017993D01*
Y006796D01*
X018013Y006800D01*
X018072Y006840D01*
X018111Y006899D01*
X018115Y006919D01*
D02*
G37*
G36*
X017893D02*
X017771D01*
X017775Y006899D01*
X017814Y006840D01*
X017873Y006800D01*
X017893Y006796D01*
Y006919D01*
D02*
G37*
G36*
X010062Y007122D02*
X009992Y007109D01*
X009932Y007069D01*
X009893Y007009D01*
X009879Y006939D01*
X009893Y006869D01*
X009932Y006809D01*
X009992Y006769D01*
X010062Y006755D01*
X010132Y006769D01*
X010192Y006809D01*
X010232Y006869D01*
X010246Y006939D01*
X010232Y007009D01*
X010192Y007069D01*
X010132Y007109D01*
X010062Y007122D01*
D02*
G37*
G36*
X015192Y006850D02*
X015070D01*
Y006727D01*
X015089Y006731D01*
X015149Y006771D01*
X015188Y006830D01*
X015192Y006850D01*
D02*
G37*
G36*
X014970D02*
X014847D01*
X014851Y006830D01*
X014891Y006771D01*
X014950Y006731D01*
X014970Y006727D01*
Y006850D01*
D02*
G37*
G36*
X003460Y006820D02*
X003337D01*
Y006698D01*
X003357Y006702D01*
X003416Y006741D01*
X003456Y006800D01*
X003460Y006820D01*
D02*
G37*
G36*
X012737Y006796D02*
Y006674D01*
X012859D01*
X012855Y006694D01*
X012816Y006753D01*
X012757Y006792D01*
X012737Y006796D01*
D02*
G37*
G36*
X012637D02*
X012617Y006792D01*
X012558Y006753D01*
X012519Y006694D01*
X012515Y006674D01*
X012637D01*
Y006796D01*
D02*
G37*
G36*
X007874Y006995D02*
X007804Y006981D01*
X007744Y006941D01*
X007704Y006881D01*
X007690Y006811D01*
X007704Y006741D01*
X007744Y006681D01*
X007804Y006641D01*
X007874Y006628D01*
X007944Y006641D01*
X008004Y006681D01*
X008044Y006741D01*
X008058Y006811D01*
X008044Y006881D01*
X008004Y006941D01*
X007944Y006981D01*
X007874Y006995D01*
D02*
G37*
G36*
X012859Y006574D02*
X012737D01*
Y006452D01*
X012757Y006456D01*
X012816Y006495D01*
X012855Y006554D01*
X012859Y006574D01*
D02*
G37*
G36*
X012637D02*
X012515D01*
X012519Y006554D01*
X012558Y006495D01*
X012617Y006456D01*
X012637Y006452D01*
Y006574D01*
D02*
G37*
G36*
X003900Y006521D02*
X003830Y006507D01*
X003770Y006467D01*
X003730Y006407D01*
X003716Y006337D01*
X003730Y006267D01*
X003770Y006207D01*
X003830Y006168D01*
X003900Y006154D01*
X003970Y006168D01*
X004030Y006207D01*
X004070Y006267D01*
X004084Y006337D01*
X004070Y006407D01*
X004030Y006467D01*
X003970Y006507D01*
X003900Y006521D01*
D02*
G37*
G36*
X007009Y006255D02*
Y006133D01*
X007131D01*
X007127Y006152D01*
X007088Y006212D01*
X007028Y006251D01*
X007009Y006255D01*
D02*
G37*
G36*
X006909D02*
X006889Y006251D01*
X006830Y006212D01*
X006790Y006152D01*
X006786Y006133D01*
X006909D01*
Y006255D01*
D02*
G37*
G36*
X007131Y006033D02*
X007009D01*
Y005910D01*
X007028Y005914D01*
X007088Y005954D01*
X007127Y006013D01*
X007131Y006033D01*
D02*
G37*
G36*
X006909D02*
X006786D01*
X006790Y006013D01*
X006830Y005954D01*
X006889Y005914D01*
X006909Y005910D01*
Y006033D01*
D02*
G37*
G36*
X003960Y006019D02*
Y005838D01*
X004141D01*
X004133Y005880D01*
X004080Y005958D01*
X004002Y006011D01*
X003960Y006019D01*
D02*
G37*
G36*
X003860D02*
X003818Y006011D01*
X003740Y005958D01*
X003687Y005880D01*
X003679Y005838D01*
X003860D01*
Y006019D01*
D02*
G37*
G36*
X004141Y005738D02*
X003960D01*
Y005557D01*
X004002Y005566D01*
X004080Y005618D01*
X004133Y005696D01*
X004141Y005738D01*
D02*
G37*
G36*
X003860D02*
X003679D01*
X003687Y005696D01*
X003740Y005618D01*
X003818Y005566D01*
X003860Y005557D01*
Y005738D01*
D02*
G37*
G36*
X006762Y005872D02*
X006692Y005859D01*
X006632Y005819D01*
X006592Y005759D01*
X006578Y005689D01*
X006592Y005619D01*
X006632Y005559D01*
X006692Y005519D01*
X006762Y005505D01*
X006832Y005519D01*
X006892Y005559D01*
X006931Y005619D01*
X006945Y005689D01*
X006931Y005759D01*
X006892Y005819D01*
X006832Y005859D01*
X006762Y005872D01*
D02*
G37*
G36*
X018072Y005735D02*
X018002Y005721D01*
X017942Y005681D01*
X017902Y005622D01*
X017888Y005551D01*
X017902Y005481D01*
X017942Y005422D01*
X018002Y005382D01*
X018072Y005368D01*
X018142Y005382D01*
X018202Y005422D01*
X018241Y005481D01*
X018255Y005551D01*
X018241Y005622D01*
X018202Y005681D01*
X018142Y005721D01*
X018072Y005735D01*
D02*
G37*
G36*
X012402Y005321D02*
X012331Y005307D01*
X012272Y005268D01*
X012232Y005208D01*
X012218Y005138D01*
X012232Y005068D01*
X012272Y005008D01*
X012331Y004968D01*
X012402Y004954D01*
X012472Y004968D01*
X012531Y005008D01*
X012571Y005068D01*
X012585Y005138D01*
X012571Y005208D01*
X012531Y005268D01*
X012472Y005307D01*
X012402Y005321D01*
D02*
G37*
G36*
X008110D02*
X008040Y005307D01*
X007980Y005268D01*
X007940Y005208D01*
X007926Y005138D01*
X007940Y005068D01*
X007980Y005008D01*
X008040Y004968D01*
X008110Y004954D01*
X008180Y004968D01*
X008240Y005008D01*
X008280Y005068D01*
X008294Y005138D01*
X008280Y005208D01*
X008240Y005268D01*
X008180Y005307D01*
X008110Y005321D01*
D02*
G37*
G36*
X018857Y004956D02*
X018838Y004952D01*
X018779Y004912D01*
X018739Y004853D01*
X018735Y004833D01*
X018857D01*
Y004956D01*
D02*
G37*
G36*
X010247D02*
Y004833D01*
X010369D01*
X010365Y004853D01*
X010326Y004912D01*
X010267Y004952D01*
X010247Y004956D01*
D02*
G37*
G36*
X010147D02*
X010127Y004952D01*
X010068Y004912D01*
X010028Y004853D01*
X010025Y004833D01*
X010147D01*
Y004956D01*
D02*
G37*
G36*
X017687Y005243D02*
X017617Y005229D01*
X017557Y005189D01*
X017517Y005129D01*
X017503Y005059D01*
X017517Y004989D01*
X017542Y004952D01*
X017558Y004902D01*
X017519Y004843D01*
X017515Y004824D01*
X017859D01*
X017855Y004843D01*
X017816Y004902D01*
X017832Y004952D01*
X017857Y004989D01*
X017871Y005059D01*
X017857Y005129D01*
X017817Y005189D01*
X017757Y005229D01*
X017687Y005243D01*
D02*
G37*
G36*
X002835Y004838D02*
Y004715D01*
X002958D01*
X002954Y004735D01*
X002914Y004794D01*
X002855Y004834D01*
X002835Y004838D01*
D02*
G37*
G36*
X002735D02*
X002716Y004834D01*
X002657Y004794D01*
X002617Y004735D01*
X002613Y004715D01*
X002735D01*
Y004838D01*
D02*
G37*
G36*
X013898Y005065D02*
X013827Y005051D01*
X013768Y005012D01*
X013728Y004952D01*
X013714Y004882D01*
X013728Y004812D01*
X013768Y004752D01*
X013827Y004712D01*
X013898Y004698D01*
X013968Y004712D01*
X014027Y004752D01*
X014067Y004812D01*
X014081Y004882D01*
X014067Y004952D01*
X014027Y005012D01*
X013968Y005051D01*
X013898Y005065D01*
D02*
G37*
G36*
X008377Y004779D02*
Y004656D01*
X008499D01*
X008495Y004676D01*
X008456Y004735D01*
X008397Y004775D01*
X008377Y004779D01*
D02*
G37*
G36*
X008277D02*
X008257Y004775D01*
X008198Y004735D01*
X008158Y004676D01*
X008154Y004656D01*
X008277D01*
Y004779D01*
D02*
G37*
G36*
X011486Y004987D02*
X011416Y004973D01*
X011356Y004933D01*
X011317Y004873D01*
X011303Y004803D01*
X011317Y004733D01*
X011356Y004673D01*
X011416Y004634D01*
X011486Y004620D01*
X011556Y004634D01*
X011616Y004673D01*
X011656Y004733D01*
X011670Y004803D01*
X011656Y004873D01*
X011616Y004933D01*
X011556Y004973D01*
X011486Y004987D01*
D02*
G37*
G36*
X010369Y004733D02*
X010247D01*
Y004611D01*
X010267Y004615D01*
X010326Y004655D01*
X010365Y004714D01*
X010369Y004733D01*
D02*
G37*
G36*
X010147D02*
X010025D01*
X010028Y004714D01*
X010068Y004655D01*
X010127Y004615D01*
X010147Y004611D01*
Y004733D01*
D02*
G37*
G36*
X002958Y004615D02*
X002835D01*
Y004493D01*
X002855Y004497D01*
X002914Y004536D01*
X002954Y004596D01*
X002958Y004615D01*
D02*
G37*
G36*
X002735D02*
X002613D01*
X002617Y004596D01*
X002657Y004536D01*
X002716Y004497D01*
X002735Y004493D01*
Y004615D01*
D02*
G37*
G36*
X008499Y004556D02*
X008377D01*
Y004434D01*
X008397Y004438D01*
X008456Y004477D01*
X008495Y004537D01*
X008499Y004556D01*
D02*
G37*
G36*
X008277D02*
X008154D01*
X008158Y004537D01*
X008198Y004477D01*
X008257Y004438D01*
X008277Y004434D01*
Y004556D01*
D02*
G37*
G36*
X004774Y004424D02*
Y004302D01*
X004897D01*
X004893Y004322D01*
X004853Y004381D01*
X004794Y004420D01*
X004774Y004424D01*
D02*
G37*
G36*
X004674D02*
X004655Y004420D01*
X004596Y004381D01*
X004556Y004322D01*
X004552Y004302D01*
X004674D01*
Y004424D01*
D02*
G37*
G36*
X004897Y004202D02*
X004774D01*
Y004080D01*
X004794Y004084D01*
X004853Y004123D01*
X004893Y004182D01*
X004897Y004202D01*
D02*
G37*
G36*
X004674D02*
X004552D01*
X004556Y004182D01*
X004596Y004123D01*
X004655Y004084D01*
X004674Y004080D01*
Y004202D01*
D02*
G37*
G36*
X014657Y004138D02*
Y004016D01*
X014780D01*
X014776Y004035D01*
X014736Y004094D01*
X014677Y004134D01*
X014657Y004138D01*
D02*
G37*
G36*
X014557D02*
X014537Y004134D01*
X014478Y004094D01*
X014439Y004035D01*
X014435Y004016D01*
X014557D01*
Y004138D01*
D02*
G37*
G36*
X009454Y004308D02*
X009383Y004294D01*
X009324Y004255D01*
X009284Y004195D01*
X009270Y004125D01*
X009284Y004055D01*
X009324Y003995D01*
X009383Y003955D01*
X009454Y003941D01*
X009524Y003955D01*
X009583Y003995D01*
X009623Y004055D01*
X009637Y004125D01*
X009623Y004195D01*
X009583Y004255D01*
X009524Y004294D01*
X009454Y004308D01*
D02*
G37*
G36*
X014780Y003916D02*
X014657D01*
Y003793D01*
X014677Y003797D01*
X014736Y003837D01*
X014776Y003896D01*
X014780Y003916D01*
D02*
G37*
G36*
X014557D02*
X014435D01*
X014439Y003896D01*
X014478Y003837D01*
X014537Y003797D01*
X014557Y003793D01*
Y003916D01*
D02*
G37*
G36*
X011841Y003900D02*
X011707Y003883D01*
X011583Y003831D01*
X011477Y003750D01*
X011395Y003643D01*
X011373Y003589D01*
X011323D01*
X011301Y003642D01*
X011219Y003749D01*
X011113Y003830D01*
X010989Y003881D01*
X010906Y003892D01*
Y003386D01*
Y002879D01*
X010989Y002890D01*
X011113Y002941D01*
X011219Y003023D01*
X011301Y003129D01*
X011323Y003182D01*
X011373D01*
X011395Y003129D01*
X011477Y003022D01*
X011583Y002940D01*
X011707Y002889D01*
X011841Y002871D01*
X011974Y002889D01*
X012098Y002940D01*
X012204Y003022D01*
X012286Y003129D01*
X012337Y003253D01*
X012355Y003386D01*
X012337Y003519D01*
X012286Y003643D01*
X012204Y003750D01*
X012098Y003831D01*
X011974Y003883D01*
X011841Y003900D01*
D02*
G37*
G36*
X014026Y003676D02*
Y003554D01*
X014149D01*
X014145Y003574D01*
X014105Y003633D01*
X014046Y003672D01*
X014026Y003676D01*
D02*
G37*
G36*
X013926D02*
X013907Y003672D01*
X013848Y003633D01*
X013808Y003574D01*
X013804Y003554D01*
X013926D01*
Y003676D01*
D02*
G37*
G36*
X007904Y003900D02*
X007770Y003883D01*
X007646Y003831D01*
X007540Y003750D01*
X007458Y003643D01*
X007407Y003519D01*
X007397Y003447D01*
X007347D01*
X007337Y003519D01*
X007286Y003643D01*
X007204Y003750D01*
X007098Y003831D01*
X006974Y003883D01*
X006841Y003900D01*
X006707Y003883D01*
X006583Y003831D01*
X006477Y003750D01*
X006395Y003643D01*
X006373Y003589D01*
X006323D01*
X006301Y003642D01*
X006219Y003749D01*
X006113Y003830D01*
X005989Y003881D01*
X005906Y003892D01*
Y003386D01*
Y002879D01*
X005989Y002890D01*
X006113Y002941D01*
X006219Y003023D01*
X006301Y003129D01*
X006323Y003182D01*
X006373D01*
X006395Y003129D01*
X006477Y003022D01*
X006583Y002940D01*
X006707Y002889D01*
X006841Y002871D01*
X006974Y002889D01*
X007098Y002940D01*
X007204Y003022D01*
X007286Y003129D01*
X007337Y003253D01*
X007347Y003324D01*
X007397D01*
X007407Y003253D01*
X007458Y003129D01*
X007540Y003022D01*
X007646Y002940D01*
X007770Y002889D01*
X007904Y002871D01*
X008037Y002889D01*
X008161Y002940D01*
X008267Y003022D01*
X008349Y003129D01*
X008371Y003182D01*
X008421D01*
X008443Y003129D01*
X008525Y003023D01*
X008631Y002941D01*
X008755Y002890D01*
X008838Y002879D01*
Y003386D01*
Y003892D01*
X008755Y003881D01*
X008631Y003830D01*
X008525Y003749D01*
X008443Y003642D01*
X008421Y003589D01*
X008371D01*
X008349Y003643D01*
X008267Y003750D01*
X008161Y003831D01*
X008037Y003883D01*
X007904Y003900D01*
D02*
G37*
G36*
X003938Y003892D02*
Y003436D01*
X004394D01*
X004383Y003519D01*
X004332Y003642D01*
X004251Y003749D01*
X004144Y003830D01*
X004021Y003881D01*
X003938Y003892D01*
D02*
G37*
G36*
X005806Y003892D02*
X005724Y003881D01*
X005600Y003830D01*
X005494Y003749D01*
X005412Y003642D01*
X005361Y003519D01*
X005350Y003436D01*
X005806D01*
Y003892D01*
D02*
G37*
G36*
X008938Y003892D02*
Y003436D01*
X009394D01*
X009383Y003519D01*
X009332Y003642D01*
X009251Y003749D01*
X009144Y003830D01*
X009021Y003881D01*
X008938Y003892D01*
D02*
G37*
G36*
X010806D02*
X010724Y003881D01*
X010600Y003830D01*
X010494Y003749D01*
X010412Y003642D01*
X010361Y003519D01*
X010350Y003436D01*
X010806D01*
Y003892D01*
D02*
G37*
G36*
X014149Y003454D02*
X014026D01*
Y003332D01*
X014046Y003336D01*
X014105Y003375D01*
X014145Y003434D01*
X014149Y003454D01*
D02*
G37*
G36*
X013926D02*
X013804D01*
X013808Y003434D01*
X013848Y003375D01*
X013907Y003336D01*
X013926Y003332D01*
Y003454D01*
D02*
G37*
G36*
X014596Y003658D02*
X014526Y003644D01*
X014467Y003604D01*
X014427Y003545D01*
X014413Y003474D01*
X014427Y003404D01*
X014467Y003345D01*
X014526Y003305D01*
X014596Y003291D01*
X014667Y003305D01*
X014726Y003345D01*
X014766Y003404D01*
X014780Y003474D01*
X014766Y003545D01*
X014726Y003604D01*
X014667Y003644D01*
X014596Y003658D01*
D02*
G37*
G36*
X016968Y003609D02*
X016898Y003595D01*
X016839Y003555D01*
X016799Y003495D01*
X016785Y003425D01*
X016799Y003355D01*
X016839Y003295D01*
X016898Y003256D01*
X016968Y003242D01*
X017039Y003256D01*
X017098Y003295D01*
X017138Y003355D01*
X017152Y003425D01*
X017138Y003495D01*
X017098Y003555D01*
X017039Y003595D01*
X016968Y003609D01*
D02*
G37*
G36*
X009872Y003705D02*
X009790Y003694D01*
X009713Y003662D01*
X009647Y003611D01*
X009596Y003545D01*
X009564Y003468D01*
X009553Y003386D01*
X009564Y003303D01*
X009596Y003226D01*
X009647Y003160D01*
X009713Y003110D01*
X009790Y003078D01*
X009872Y003067D01*
X009955Y003078D01*
X010032Y003110D01*
X010098Y003160D01*
X010148Y003226D01*
X010180Y003303D01*
X010191Y003386D01*
X010180Y003468D01*
X010148Y003545D01*
X010098Y003611D01*
X010032Y003662D01*
X009955Y003694D01*
X009872Y003705D01*
D02*
G37*
G36*
X004872D02*
X004789Y003694D01*
X004713Y003662D01*
X004647Y003611D01*
X004596Y003545D01*
X004564Y003468D01*
X004553Y003386D01*
X004564Y003303D01*
X004596Y003226D01*
X004647Y003160D01*
X004713Y003110D01*
X004789Y003078D01*
X004802Y003076D01*
X004808Y003064D01*
X004820Y003023D01*
X004818Y003013D01*
X005162D01*
X005159Y003032D01*
X005119Y003091D01*
X005103Y003102D01*
X005098Y003158D01*
X005100Y003164D01*
X005148Y003226D01*
X005180Y003303D01*
X005191Y003386D01*
X005180Y003468D01*
X005148Y003545D01*
X005098Y003611D01*
X005032Y003662D01*
X004955Y003694D01*
X004872Y003705D01*
D02*
G37*
G36*
X005806Y003336D02*
X005350D01*
X005361Y003253D01*
X005412Y003129D01*
X005494Y003023D01*
X005600Y002941D01*
X005724Y002890D01*
X005806Y002879D01*
Y003336D01*
D02*
G37*
G36*
X002904Y003900D02*
X002770Y003883D01*
X002646Y003831D01*
X002540Y003750D01*
X002458Y003643D01*
X002407Y003519D01*
X002389Y003386D01*
X002407Y003253D01*
X002458Y003129D01*
X002540Y003022D01*
X002646Y002940D01*
X002770Y002889D01*
X002904Y002871D01*
X003037Y002889D01*
X003161Y002940D01*
X003267Y003022D01*
X003349Y003129D01*
X003371Y003182D01*
X003421D01*
X003443Y003129D01*
X003525Y003023D01*
X003631Y002941D01*
X003755Y002890D01*
X003838Y002879D01*
Y003386D01*
Y003892D01*
X003755Y003881D01*
X003631Y003830D01*
X003525Y003749D01*
X003443Y003642D01*
X003421Y003589D01*
X003371D01*
X003349Y003643D01*
X003267Y003750D01*
X003161Y003831D01*
X003037Y003883D01*
X002904Y003900D01*
D02*
G37*
G36*
X009394Y003336D02*
X008938D01*
Y002879D01*
X009021Y002890D01*
X009144Y002941D01*
X009251Y003023D01*
X009332Y003129D01*
X009383Y003253D01*
X009394Y003336D01*
D02*
G37*
G36*
X010806D02*
X010350D01*
X010361Y003253D01*
X010412Y003129D01*
X010494Y003023D01*
X010600Y002941D01*
X010724Y002890D01*
X010806Y002879D01*
Y003336D01*
D02*
G37*
G36*
X004394Y003336D02*
X003938D01*
Y002879D01*
X004021Y002890D01*
X004144Y002941D01*
X004251Y003023D01*
X004332Y003129D01*
X004383Y003253D01*
X004394Y003336D01*
D02*
G37*
G36*
X005162Y002913D02*
X005040D01*
Y002790D01*
X005060Y002794D01*
X005119Y002834D01*
X005159Y002893D01*
X005162Y002913D01*
D02*
G37*
G36*
X004940D02*
X004818D01*
X004822Y002893D01*
X004861Y002834D01*
X004920Y002794D01*
X004940Y002790D01*
Y002913D01*
D02*
G37*
G36*
X018284Y002231D02*
Y001910D01*
X018605D01*
X018599Y001958D01*
X018561Y002049D01*
X018501Y002127D01*
X018423Y002187D01*
X018332Y002225D01*
X018284Y002231D01*
D02*
G37*
G36*
X018184D02*
X018137Y002225D01*
X018046Y002187D01*
X017967Y002127D01*
X017908Y002049D01*
X017870Y001958D01*
X017864Y001910D01*
X018184D01*
Y002231D01*
D02*
G37*
G36*
X013673Y002393D02*
X012922D01*
Y001642D01*
X013673D01*
Y002393D01*
D02*
G37*
G36*
X015266Y002396D02*
X015168Y002383D01*
X015076Y002346D01*
X014998Y002285D01*
X014938Y002207D01*
X014900Y002116D01*
X014887Y002018D01*
X014900Y001920D01*
X014938Y001828D01*
X014998Y001750D01*
X015076Y001690D01*
X015168Y001652D01*
X015266Y001639D01*
X015364Y001652D01*
X015455Y001690D01*
X015533Y001750D01*
X015594Y001828D01*
X015631Y001920D01*
X015644Y002018D01*
X015631Y002116D01*
X015594Y002207D01*
X015533Y002285D01*
X015455Y002346D01*
X015364Y002383D01*
X015266Y002396D01*
D02*
G37*
G36*
X014282D02*
X014184Y002383D01*
X014092Y002346D01*
X014014Y002285D01*
X013954Y002207D01*
X013916Y002116D01*
X013903Y002018D01*
X013916Y001920D01*
X013954Y001828D01*
X014014Y001750D01*
X014092Y001690D01*
X014184Y001652D01*
X014282Y001639D01*
X014379Y001652D01*
X014471Y001690D01*
X014549Y001750D01*
X014609Y001828D01*
X014647Y001920D01*
X014660Y002018D01*
X014647Y002116D01*
X014609Y002207D01*
X014549Y002285D01*
X014471Y002346D01*
X014379Y002383D01*
X014282Y002396D01*
D02*
G37*
G36*
X018605Y001810D02*
X018284D01*
Y001490D01*
X018332Y001496D01*
X018423Y001534D01*
X018501Y001593D01*
X018561Y001672D01*
X018599Y001763D01*
X018605Y001810D01*
D02*
G37*
G36*
X018184D02*
X017864D01*
X017870Y001763D01*
X017908Y001672D01*
X017967Y001593D01*
X018046Y001534D01*
X018137Y001496D01*
X018184Y001490D01*
Y001810D01*
D02*
G37*
G36*
X017610Y002236D02*
X016859D01*
Y001485D01*
X017610D01*
Y002236D01*
D02*
G37*
G36*
X018996Y001847D02*
X018926Y001833D01*
X018866Y001793D01*
X018827Y001734D01*
X018813Y001663D01*
X018827Y001593D01*
X018866Y001534D01*
X018926Y001494D01*
X018996Y001480D01*
X019066Y001494D01*
X019126Y001534D01*
X019166Y001593D01*
X019180Y001663D01*
X019166Y001734D01*
X019126Y001793D01*
X019066Y001833D01*
X018996Y001847D01*
D02*
G37*
G36*
X009922Y001924D02*
Y001467D01*
X010379D01*
X010368Y001550D01*
X010316Y001674D01*
X010235Y001780D01*
X010129Y001862D01*
X010005Y001913D01*
X009922Y001924D01*
D02*
G37*
G36*
X009822D02*
X009739Y001913D01*
X009615Y001862D01*
X009509Y001780D01*
X009428Y001674D01*
X009376Y001550D01*
X009366Y001467D01*
X009822D01*
Y001924D01*
D02*
G37*
G36*
X004922Y001924D02*
Y001467D01*
X005379D01*
X005368Y001550D01*
X005316Y001674D01*
X005235Y001780D01*
X005129Y001862D01*
X005005Y001913D01*
X004922Y001924D01*
D02*
G37*
G36*
X004822Y001924D02*
X004739Y001913D01*
X004615Y001862D01*
X004509Y001780D01*
X004428Y001674D01*
X004376Y001550D01*
X004365Y001467D01*
X004822D01*
Y001924D01*
D02*
G37*
G36*
X011841Y001736D02*
X011758Y001725D01*
X011681Y001694D01*
X011615Y001643D01*
X011564Y001577D01*
X011532Y001500D01*
X011522Y001417D01*
X011532Y001335D01*
X011564Y001258D01*
X011615Y001192D01*
X011681Y001141D01*
X011758Y001109D01*
X011841Y001098D01*
X011923Y001109D01*
X012000Y001141D01*
X012066Y001192D01*
X012117Y001258D01*
X012149Y001335D01*
X012159Y001417D01*
X012149Y001500D01*
X012117Y001577D01*
X012066Y001643D01*
X012000Y001694D01*
X011923Y001725D01*
X011841Y001736D01*
D02*
G37*
G36*
X007904D02*
X007821Y001725D01*
X007744Y001694D01*
X007678Y001643D01*
X007627Y001577D01*
X007595Y001500D01*
X007585Y001417D01*
X007595Y001335D01*
X007627Y001258D01*
X007678Y001192D01*
X007744Y001141D01*
X007821Y001109D01*
X007904Y001098D01*
X007986Y001109D01*
X008063Y001141D01*
X008129Y001192D01*
X008180Y001258D01*
X008212Y001335D01*
X008222Y001417D01*
X008212Y001500D01*
X008180Y001577D01*
X008129Y001643D01*
X008063Y001694D01*
X007986Y001725D01*
X007904Y001736D01*
D02*
G37*
G36*
X006841D02*
X006758Y001725D01*
X006681Y001694D01*
X006615Y001643D01*
X006564Y001577D01*
X006532Y001500D01*
X006522Y001417D01*
X006532Y001335D01*
X006564Y001258D01*
X006615Y001192D01*
X006681Y001141D01*
X006758Y001109D01*
X006841Y001098D01*
X006923Y001109D01*
X007000Y001141D01*
X007066Y001192D01*
X007117Y001258D01*
X007149Y001335D01*
X007159Y001417D01*
X007149Y001500D01*
X007117Y001577D01*
X007066Y001643D01*
X007000Y001694D01*
X006923Y001725D01*
X006841Y001736D01*
D02*
G37*
G36*
X005379Y001367D02*
X004922D01*
Y000911D01*
X005005Y000922D01*
X005129Y000973D01*
X005235Y001054D01*
X005316Y001161D01*
X005368Y001285D01*
X005379Y001367D01*
D02*
G37*
G36*
X010379Y001367D02*
X009922D01*
Y000911D01*
X010005Y000922D01*
X010129Y000973D01*
X010235Y001054D01*
X010316Y001161D01*
X010368Y001285D01*
X010379Y001367D01*
D02*
G37*
G36*
X009822D02*
X009366D01*
X009376Y001285D01*
X009428Y001161D01*
X009509Y001054D01*
X009615Y000973D01*
X009739Y000922D01*
X009822Y000911D01*
Y001367D01*
D02*
G37*
G36*
X004822Y001367D02*
X004365D01*
X004376Y001285D01*
X004428Y001161D01*
X004509Y001054D01*
X004615Y000973D01*
X004739Y000922D01*
X004822Y000911D01*
Y001367D01*
D02*
G37*
G36*
X008497Y000428D02*
X008477Y000424D01*
X008418Y000385D01*
X008379Y000326D01*
X008375Y000306D01*
X008497D01*
Y000428D01*
D02*
G37*
G36*
X007412D02*
Y000306D01*
X007534D01*
X007531Y000326D01*
X007491Y000385D01*
X007432Y000424D01*
X007412Y000428D01*
D02*
G37*
G36*
X007312D02*
X007292Y000424D01*
X007233Y000385D01*
X007194Y000326D01*
X007190Y000306D01*
X007312D01*
Y000428D01*
D02*
G37*
G36*
X006320D02*
Y000306D01*
X006442D01*
X006438Y000326D01*
X006399Y000385D01*
X006339Y000424D01*
X006320Y000428D01*
D02*
G37*
%LPD*%
D37*
X003407Y000246D02*
X006270D01*
X023002Y011555D02*
X023425D01*
X022510D02*
X023002D01*
X022008D02*
X022510D01*
X021516D02*
X022008D01*
X021014D02*
X021516D01*
X020522D02*
X021014D01*
X020020D02*
X020522D01*
X019528D02*
X020020D01*
X019026D02*
X019528D01*
X018533D02*
X019026D01*
X018032D02*
X018533D01*
X017539D02*
X018032D01*
X017037D02*
X017539D01*
X016545D02*
X017037D01*
X016043D02*
X016545D01*
X015541D02*
X016043D01*
X015049D02*
X015541D01*
X014547D02*
X015049D01*
X014055D02*
X014547D01*
X013553D02*
X014055D01*
X013061D02*
X013553D01*
X012559D02*
X013061D01*
X012067D02*
X012559D01*
X011565D02*
X012067D01*
X011073D02*
X011565D01*
X010571D02*
X011073D01*
X010079D02*
X010571D01*
X009577D02*
X010079D01*
X009075D02*
X009577D01*
X008583D02*
X009075D01*
X008081D02*
X008583D01*
X007589D02*
X008081D01*
X007087D02*
X007589D01*
X006594D02*
X007087D01*
X006093D02*
X006594D01*
X005098D02*
X005600D01*
X004606D02*
X005098D01*
X004104D02*
X004606D01*
X003612D02*
X004104D01*
X003110D02*
X003612D01*
X002608D02*
X003110D01*
X002165D02*
X002608D01*
X000256Y009281D02*
Y009646D01*
Y008917D02*
Y009281D01*
Y004424D02*
Y004705D01*
Y003102D02*
Y003254D01*
Y002165D02*
Y002441D01*
X010888Y000256D02*
X011356D01*
X010420D02*
X010888D01*
X009952D02*
X010420D01*
X009483D02*
X009952D01*
X009015D02*
X009483D01*
X008547D02*
X009015D01*
X016975D02*
X017443D01*
X016506D02*
X016975D01*
X016038D02*
X016506D01*
X015570D02*
X016038D01*
X015102D02*
X015570D01*
X014634D02*
X015102D01*
X014165D02*
X014634D01*
X013697D02*
X014165D01*
X013229D02*
X013697D01*
X012761D02*
X013229D01*
X012293D02*
X012761D01*
X023061D02*
X023425D01*
X022593D02*
X023061D01*
X020252D02*
X020720D01*
X019784D02*
X020252D01*
X018847D02*
X019315D01*
X018379D02*
X018847D01*
X017911D02*
X018379D01*
X025335Y009281D02*
Y009646D01*
Y008839D02*
Y009281D01*
Y008396D02*
Y008839D01*
Y007943D02*
Y008396D01*
Y007500D02*
Y007943D01*
Y007047D02*
Y007500D01*
Y006604D02*
Y007047D01*
Y006152D02*
Y006604D01*
Y005709D02*
Y006152D01*
Y005256D02*
Y005709D01*
Y004813D02*
Y005256D01*
Y004360D02*
Y004813D01*
Y003917D02*
Y004360D01*
Y003465D02*
Y003917D01*
Y003022D02*
Y003465D01*
Y002579D02*
Y003022D01*
Y002165D02*
Y002579D01*
X000256Y003254D02*
Y003616D01*
Y003979D01*
Y002771D02*
Y003102D01*
Y002441D02*
Y002771D01*
X020807Y005118D02*
Y006201D01*
X020238Y006507D02*
Y006841D01*
X002165Y000256D02*
X002520D01*
X021656D02*
X022125D01*
X021188D02*
X021656D01*
X020720D02*
X021188D01*
X022125D02*
X022593D01*
X017443D02*
X017911D01*
D44*
X018234Y001860D02*
D03*
D48*
X005264Y010951D02*
D03*
X007264Y009951D02*
D03*
D52*
X010856Y003386D02*
D03*
X008888D02*
D03*
X009872Y001417D02*
D03*
X005856Y003386D02*
D03*
X003888D02*
D03*
X004872Y001417D02*
D03*
D53*
X002260Y006220D02*
D03*
X003910Y005788D02*
D03*
X002077Y004350D02*
D03*
X002667Y008120D02*
D03*
D54*
X020778Y001112D02*
D03*
X006959Y006083D02*
D03*
X006270Y000256D02*
D03*
X000256Y004342D02*
D03*
Y004705D02*
D03*
X015020Y006900D02*
D03*
X020236Y006506D02*
D03*
X020807Y006201D02*
D03*
X022087Y005620D02*
D03*
X006594Y011555D02*
D03*
X025335Y002579D02*
D03*
Y003022D02*
D03*
Y003465D02*
D03*
Y003917D02*
D03*
Y004360D02*
D03*
Y004813D02*
D03*
Y005256D02*
D03*
Y005709D02*
D03*
Y006152D02*
D03*
Y006604D02*
D03*
Y007047D02*
D03*
Y007500D02*
D03*
Y007943D02*
D03*
Y008396D02*
D03*
Y008839D02*
D03*
Y009281D02*
D03*
X000256D02*
D03*
Y008917D02*
D03*
Y007854D02*
D03*
Y005787D02*
D03*
Y003979D02*
D03*
Y003616D02*
D03*
Y003254D02*
D03*
Y002891D02*
D03*
Y002528D02*
D03*
X012761Y000256D02*
D03*
X013697D02*
D03*
X014165D02*
D03*
X014634D02*
D03*
X015102D02*
D03*
X016038D02*
D03*
X016506D02*
D03*
X003397D02*
D03*
X003865D02*
D03*
X004333D02*
D03*
X004802D02*
D03*
X005270D02*
D03*
X005738D02*
D03*
X007362D02*
D03*
X008547D02*
D03*
X009015D02*
D03*
X009483D02*
D03*
X009952D02*
D03*
X010420D02*
D03*
X010888D02*
D03*
X011356D02*
D03*
X012293D02*
D03*
X016975D02*
D03*
X017443D02*
D03*
X017911D02*
D03*
X018379D02*
D03*
X018847D02*
D03*
X019315D02*
D03*
X019784D02*
D03*
X020187D02*
D03*
X020720D02*
D03*
X021171D02*
D03*
X022579Y000246D02*
D03*
X023061Y000256D02*
D03*
X002608Y011555D02*
D03*
X003110D02*
D03*
X003612D02*
D03*
X004104D02*
D03*
X004606D02*
D03*
X005098D02*
D03*
X005600D02*
D03*
X006093D02*
D03*
X007589D02*
D03*
X008583D02*
D03*
X009577D02*
D03*
X010571D02*
D03*
X011565D02*
D03*
X012559D02*
D03*
X013553D02*
D03*
X014547D02*
D03*
X015541D02*
D03*
X016545D02*
D03*
X017539D02*
D03*
X018533D02*
D03*
X019528D02*
D03*
X020522D02*
D03*
X021516D02*
D03*
X022510D02*
D03*
X023002D02*
D03*
X008081D02*
D03*
X009075D02*
D03*
X010079D02*
D03*
X011073D02*
D03*
X012067D02*
D03*
X013061D02*
D03*
X014055D02*
D03*
X015049D02*
D03*
X016043D02*
D03*
X017037D02*
D03*
X018032D02*
D03*
X019026D02*
D03*
X020020D02*
D03*
X021014D02*
D03*
X022008D02*
D03*
X000256Y002165D02*
D03*
X023425Y000256D02*
D03*
X025335Y002165D02*
D03*
X002165Y011555D02*
D03*
X000256Y009646D02*
D03*
X015797Y009055D02*
D03*
X017943Y006969D02*
D03*
X018425Y008986D02*
D03*
X012844Y008661D02*
D03*
X019618Y006860D02*
D03*
X019203Y002746D02*
D03*
X019618Y003888D02*
D03*
X021555Y007510D02*
D03*
X022362Y006870D02*
D03*
X023860Y008670D02*
D03*
X019990Y008110D02*
D03*
X019397Y008844D02*
D03*
X025335Y009646D02*
D03*
X023425Y011555D02*
D03*
X007087D02*
D03*
X017982Y004449D02*
D03*
X004990Y002963D02*
D03*
X013976Y003504D02*
D03*
X014607Y003966D02*
D03*
X007795Y009016D02*
D03*
X012687Y006624D02*
D03*
X013110Y007520D02*
D03*
X004724Y004252D02*
D03*
X002785Y004665D02*
D03*
X008327Y004606D02*
D03*
X022067Y006093D02*
D03*
X017687Y004774D02*
D03*
X020807Y006722D02*
D03*
Y005118D02*
D03*
X020148Y003130D02*
D03*
X020236Y007490D02*
D03*
X018907Y004783D02*
D03*
X019619Y004382D02*
D03*
Y004877D02*
D03*
Y005372D02*
D03*
Y006363D02*
D03*
X020238Y005902D02*
D03*
Y005432D02*
D03*
Y004963D02*
D03*
X020806Y005518D02*
D03*
Y005919D02*
D03*
X019619Y005868D02*
D03*
X020238Y006841D02*
D03*
Y004493D02*
D03*
X020236Y004035D02*
D03*
X005502Y008258D02*
D03*
X010197Y004783D02*
D03*
X023332Y007410D02*
D03*
X002520Y000256D02*
D03*
X002165D02*
D03*
X003287Y006870D02*
D03*
X021604Y000256D02*
D03*
X022077Y000246D02*
D03*
D56*
X007774Y010482D02*
D03*
M02*
