M48
;Layer_Color=9474304
;FILE_FORMAT=2:4
INCH
;TYPE=PLATED
T1F00S00C0.0100
T2F00S00C0.0197
T3F00S00C0.0200
T4F00S00C0.0315
T5F00S00C0.0354
T6F00S00C0.0400
T7F00S00C0.0472
T8F00S00C0.0512
T9F00S00C0.1083
%
T01
X000256Y002165
Y002528
Y002891
Y003254
Y003616
Y003979
Y004342
Y004705
Y005787
X002785Y004665
X004724Y004252
X004990Y002963
X004802Y000256
X004333
X003865
X003397
X002520
X002165
X005270
X005738
X006270
X007362
X008547
X009015
X009483
X009952
X010420
X010197Y004783
X009454Y004125
X008327Y004606
X008110Y005138
X006762Y005689
X006959Y006083
X007874Y006811
X010062Y006939
X003900Y006337
X003287Y006870
X012687Y006624
X012402Y005138
X011486Y004803
X013898Y004882
X013976Y003504
X014596Y003474
X014607Y003966
X016968Y003425
X017982Y004449
X017687Y004774
Y005059
X018072Y005551
X017943Y006969
X019618Y006860
X019619Y006363
Y005868
Y005372
Y004877
Y004382
X019618Y003888
X019390Y003484
X019203Y002746
X020423Y002766
X020148Y003130
X020404Y003474
X020236Y004035
X020238Y004493
Y004963
Y005432
Y005902
X020806Y005919
X020807Y006201
Y006722
X020238Y006841
X020236Y006506
X020806Y005518
X020807Y005118
X022285Y004855
X022087Y005620
X022067Y006093
X022372Y005837
X022874Y006114
X022362Y006870
X023967Y006693
X025335Y006604
Y007047
Y006152
Y005709
Y005256
Y004813
Y004360
Y003917
Y003465
Y003022
Y002579
Y002165
X023770Y003140
X022746Y003553
X022136Y002510
X020118Y002303
X018996Y001663
X018847Y000256
X018379
X017911
X017443
X016975
X016506
X016038
X015102
X014634
X014165
X013697
X012761
X012293
X011356
X010888
X019315
X019784
X020187
X020720
X021171
X021604
X022077Y000246
X022579
X023061Y000256
X023425
X020778Y001112
X018907Y004783
X015020Y006900
X015010Y008730
X014508
X014026Y008888
X012844Y008661
X012520Y008533
X012539Y007530
X013110Y007520
X013504Y007539
X011900Y008022
X011437Y007156
X011565Y011555
X011073
X012067
X012559
X013061
X013553
X014055
X014547
X015049
X015541
X016043
X016545
X017037
X017539
X018032
X018533
X019026
X019528
X020020
X020522
X021014
X021516
X022008
X022510
X023002
X023425
X023860Y008670
X025335Y008839
Y008396
Y007943
Y007500
Y009281
Y009646
X023332Y007410
X021555Y007510
X020236Y007490
X019990Y008110
X019397Y008844
X018425Y008986
X015797Y009055
X009744Y009016
X009734Y008307
X008248Y008789
X007795Y009016
X006201Y008100
X005502Y008258
X005600Y011555
X006093
X006594
X007087
X007589
X008081
X008583
X009075
X009577
X010079
X010571
X005098
X004606
X004104
X003612
X003110
X002608
X002165
X000256Y009646
Y009281
Y008917
Y007854
T02
X002077Y004350
X002260Y006220
X003910Y005788
X005315Y007372
X002260Y007330
X002667Y008120
X001929Y008858
X003210Y009360
T03
X007774Y010482
T04
X013297Y000758
X014282
X015266
Y002018
X014282
X013297
T05
X017234Y000860
X018234
Y001860
X017234
X023258Y008947
T06
X011264Y009951
Y010951
X012264
Y009951
X013264
Y010951
X014264
Y009951
X015264
Y010951
X016264
Y009951
X017264
Y010951
X018264
Y009951
X019264
Y010951
X020264
Y009951
X021264
Y010951
X022264
Y009951
X022266Y008947
X021266
X020266
X010264Y009951
X009264
X008264
X007264
X006264
X005264
X004264
X003264
Y010951
X004264
X005264
X006264
X007264
X008264
X009264
X010264
T07
X002904Y000433
Y001417
X004872Y003386
X006841Y001417
Y000433
X007904
Y001417
X009872Y003386
X011841Y001417
Y000433
T08
X002904Y003386
X003888
X005856
X006841
X007904
X008888
X009872Y001417
X004872
X010856Y003386
X011841
T09
X001378Y001378
X024213
Y010433
X001378
M30
